<?xml version="1.0" encoding="UTF-8" standalone="no"?>
<!DOCTYPE svg PUBLIC "-//W3C//DTD SVG 1.1//EN" "http://www.w3.org/Graphics/SVG/1.1/DTD/svg11.dtd">
<svg version="1.1" xmlns="http://www.w3.org/2000/svg" xmlns:xlink="http://www.w3.org/1999/xlink" preserveAspectRatio="xMidYMid meet" viewBox="0 0 100 100" width="100" height="100"><defs><path d="M135.36 415.36C135.31 412.71 134.35 410.38 132.48 408.46C131.73 407.71 125.73 401.71 124.98 400.96C124.39 400.18 123.52 399.27 122.33 398.31C121.02 397 110.52 386.5 109.21 385.19C108.39 384.37 107.47 383.73 106.47 383.27C105.76 382.56 100.09 376.93 99.38 376.23C97.51 374.35 95.18 373.39 92.48 373.39C92.48 373.39 92.48 373.39 92.48 373.39C92.48 373.39 92.48 373.39 92.48 373.39C89.92 373.39 87.59 374.31 85.62 376.18C84.02 377.79 76 385.8 61.58 400.23C61.55 400.26 61.53 400.27 61.53 400.27C59.7 402.24 58.74 404.57 58.74 407.13C58.74 407.59 58.79 408.05 58.83 408.5C57.14 413.26 66.01 418.93 67.15 419.61C68.92 421.38 83.08 435.53 84.85 437.3C85.71 438.17 86.67 438.86 87.73 439.31C88.42 440.01 93.98 445.57 94.67 446.26C96.59 448.18 98.97 449.19 101.67 449.19C104.32 449.19 106.65 448.23 108.57 446.26C108.71 446.13 109.39 445.44 110.63 444.21L119.91 452.39L131.2 440.46L122.51 432.32C128.49 426.37 131.82 423.06 132.48 422.4C134.35 420.43 135.36 418.1 135.36 415.45C135.36 415.41 135.36 415.38 135.36 415.36Z" id="cs86Tkd6q"></path><path d="M290.15 494.31L290.15 494.31L285.85 492.07L285.85 492.07L281.23 489.65L281.23 489.65L275.75 486.77L269.35 496.73L264.5 499.66L261.99 495.77L252.16 486.77L252.16 486.77L252.16 486.77L237.76 494.22L254.4 519.91L234.51 550.67L234.51 550.67L234.51 550.67L234.51 550.67L234.51 550.67L244.3 559.68L259.34 565.76L271.82 546.7L278.35 556.8L278.35 556.8L288.18 565.76L303.18 559.63L283.38 528.87L299.98 503.31L290.15 494.31Z" id="fhBWAIQnn"></path><path d="M512.27 389.62L489.01 446.17L488.91 446.22L474.47 451.57L464.69 442.56L437.99 378.29L455.27 374.77L465.05 383.77L469.26 393.51L480.18 390.77L486.58 374.13L502.49 380.71L512.27 389.62ZM474.51 405.62L476.07 401.65L473.14 402.42L474.51 405.62ZM471.22 398.13L477.99 396.57L479.54 392.5L470.4 396.16L471.22 398.13Z" id="abUTaVxbd"></path><path d="M87.75 53.5C87.75 51.81 86.38 49.75 83.13 46.64C83.13 46.64 83.13 46.64 83.13 46.64C81.39 44.99 78.93 42.8 75.77 40.19C75.13 39.42 74.31 38.59 73.35 37.68C73.35 37.68 73.35 37.68 73.35 37.68C71.11 35.58 67.73 32.65 63.25 28.95C62.19 28.08 61.1 27.26 60.05 26.39C60.05 26.39 60.05 26.39 60.05 26.39C60.05 26.39 60.05 26.39 60.05 26.39C56.98 23.97 54.01 21.54 51.09 19.17C50.45 18.62 49.62 18.34 48.8 18.34C48.48 18.34 48.16 18.39 47.79 18.48C47.78 18.48 47.67 18.52 47.66 18.53C47.06 18.71 46.74 18.8 46.61 18.85C46.6 18.85 46.52 18.85 46.51 18.85C43.91 19.53 41.53 20.26 39.57 20.99C36.69 22.09 35.77 22.73 35.31 23.14C35.28 23.18 35.09 23.34 34.77 23.65L34.77 52.08L34.77 56.33L34.77 70.46L34.77 80.19L34.77 85.31L34.77 85.31L44.55 94.32C45.7 94.13 46.34 94.02 46.47 94C49.35 93.54 51.5 93.18 52.87 92.9C55.02 92.54 56.62 92.26 57.71 92.03C58.67 91.85 59.54 91.62 60.09 91.17C60.41 90.89 60.59 90.48 60.59 89.93C60.59 88.97 60.59 81.25 60.59 80.29C60.64 80.24 60.64 80.24 60.69 80.19C61.33 79.55 62.97 77.95 67.13 74.16C73.53 68.35 77.92 64.33 80.16 62.18C87.75 55.01 87.75 54.37 87.75 53.5C87.75 53.5 87.75 53.45 87.75 53.5Z" id="a2PORgMcz2"></path><path d="M270.08 389.85L258.61 376.27L249.46 367.86L248.96 367.27L248.87 367.31L248.78 367.27L248.82 367.36L248.82 367.36L248.78 367.27C231.88 379.8 222.49 386.77 220.62 388.16C219.93 388.62 219.43 389.03 219.06 389.39C219.06 389.4 219.02 389.44 219.02 389.44C217.83 390.72 217.23 392.09 217.23 393.6C217.23 394.47 217.46 395.34 217.87 396.21C217.87 396.21 217.87 396.21 217.87 396.21C218.74 398.67 221.9 401.19 224.27 402.79C225.25 403.7 233.08 411.02 234.06 411.93C234.19 412.07 234.29 412.21 234.33 412.34C234.33 412.34 234.29 412.39 234.29 412.39C234.28 412.39 234.2 412.43 234.19 412.43C234.19 412.43 234.1 412.53 233.87 412.66C232.5 413.66 225.61 418.64 213.21 427.61L226.1 441.1L226.1 441.1L235.89 450.1L265.1 427.79C265.15 427.77 265.18 427.75 265.19 427.75C266.19 426.88 266.88 426.06 267.38 425.19C267.75 424.55 267.98 423.91 268.11 423.27C268.16 422.95 268.21 422.67 268.21 422.35C268.21 421.35 267.89 420.34 267.34 419.43C267.33 419.42 267.3 419.39 267.29 419.38C267.15 419.15 266.88 418.83 266.56 418.42C266.56 418.42 266.54 418.39 266.51 418.33L251.84 404.57L250.83 403.61C250.81 403.58 250.79 403.57 250.79 403.57C250.79 403.57 250.79 403.57 250.79 403.57C250.97 403.43 251.2 403.29 251.52 403.06C253.99 401.3 260.18 396.9 270.08 389.85Z" id="bqtq0SJj"></path><path d="M585.23 374.67L576.14 400.05L568.96 386.42L559.18 377.42L559.18 377.42L559.18 377.42L551.82 396.07L546.93 384.09L537.14 375.09L541.3 385.33L541.3 385.33L537.14 375.09L519.31 379.02L542.81 440.05C542.92 440.18 542.98 440.26 542.99 440.27C543.22 440.55 543.5 440.78 543.73 440.96C544.64 441.79 551.91 448.45 552.82 449.28C553.83 450.42 554.88 450.65 555.57 450.65C556.3 450.65 556.98 450.47 557.58 450.06C557.9 449.87 558.17 449.6 558.49 449.19C558.5 449.18 558.53 449.15 558.58 449.1L567.54 431.31L572.43 440.27C572.52 440.36 572.56 440.4 572.57 440.41C572.85 440.73 573.12 440.91 573.35 441.1C574.25 441.92 581.45 448.54 582.35 449.37C583.27 450.42 584.32 450.65 585.01 450.65C585.6 450.65 586.24 450.47 586.83 450.06C587.06 449.92 587.34 449.74 587.61 449.46C587.63 449.45 587.7 449.37 587.84 449.23L610.7 392.23L600.87 383.22L600.87 383.22L585.23 374.67Z" id="b4IkJfiued"></path><path d="M341.67 392.37L338.47 398.54L338.42 398.67L324.25 398.67L324.25 445.67L306.7 449.87L296.91 440.87L296.91 438.77L296.87 432.05L296.91 432L296.91 398.49L296.37 398.49L295.95 398.72L295.73 398.49L284.3 398.54L274.51 389.53L282.38 373.94L336.82 373.94L346.56 382.9L341.67 392.37Z" id="b10U9ibMRL"></path><path d="M163.02 447.36C163.07 447.36 163.1 447.36 163.11 447.36C170.24 445.62 170.88 445.26 171.25 445.03C171.3 445 171.57 444.85 172.07 444.57L172.07 444.57C172.07 434.7 172.07 429.21 172.07 428.11C173.3 429.62 174.58 431.13 175.82 432.59C179.11 436.53 180.43 437.99 181.21 438.49C182.09 439.3 189.11 445.77 189.99 446.58C191.18 447.77 191.5 447.77 192 447.77C192.55 447.77 193.14 447.63 196.34 445.62C198.86 444.02 201.46 442.38 204.16 440.69C204.35 440.56 205.29 439.95 206.99 438.86C206.25 438.01 205.84 437.53 205.76 437.44C203.02 434.29 199.59 430.17 195.57 425.28C191.27 419.98 189.71 417.92 189.17 417.14C189.17 417.14 189.17 417.14 189.17 417.14C189.49 416.59 190.26 415.41 192.37 412.94C194.29 410.74 195.93 408.55 197.26 406.45C197.26 406.44 197.3 406.4 197.3 406.4C197.62 405.85 197.81 405.35 197.81 404.85C197.81 404.71 197.81 404.57 197.76 404.48C197.1 403.88 193.83 400.86 187.93 395.43C187.93 395.43 187.93 395.43 187.93 395.43C187.93 395.38 187.93 395.34 187.89 395.29C187.89 395.29 187.9 395.29 187.93 395.29C193.83 400.72 197.1 403.74 197.76 404.34C197.71 403.93 197.53 403.52 197.3 403.06C197.29 403.04 197.18 402.9 197.17 402.88C194.29 399.27 189.53 393.92 183.09 386.97C181.12 384.87 180.39 383.95 180.11 383.59C180.11 383.56 180.11 383.41 180.11 383.13C174.24 377.73 170.98 374.73 170.33 374.13C170.33 374.17 170.33 374.22 170.29 374.26C170.22 374.22 169.67 373.85 169.6 373.81C169.01 373.39 168.27 373.03 167.5 372.66C166.58 372.3 165.62 372.07 164.57 372.07C164.3 372.07 163.84 372.07 162.65 372.25C162.61 372.26 162.43 372.29 162.1 372.34C162.02 372.43 161.97 372.47 161.97 372.48C161.37 372.66 159.54 373.12 153.92 374.35C152.09 374.77 149.26 375.41 145.51 376.23C145.42 376.25 145 376.34 144.23 376.5L144.23 387.47L144.23 404.25L144.23 440L144.23 440L154.1 448.96L163.02 447.36Z" id="d19MxQhXIy"></path><path d="M339.34 499.75L350.95 495.13L356.53 486.86L364.07 489.92L367.68 491.38L372.34 493.26L382.08 502.26L359.95 534.81L359.95 561.23L342.95 565.44L333.17 556.43L333.17 526.13L310.08 493.9L326.72 486.86L336.5 495.86L339.34 499.75ZM343.59 505.55L344.09 505.37L346.15 502.31L342.54 504.14L343.59 505.55Z" id="a6zdBToWJZ"></path><path d="M446.31 491.25L446.31 491.25L439.04 491.25L439.04 491.25L398.13 491.25L392.37 508.89L392.37 508.89L392.37 508.89L392.37 508.89L392.37 508.89L402.19 517.9L410.88 517.9L388.94 555.98L388.94 555.98L388.94 555.98L388.94 555.98L388.94 555.98L398.72 564.94L447.22 564.94L447.36 564.94L453.35 547.57L443.52 538.61L443.52 538.61L435.38 538.61L456.14 500.25L446.31 491.25Z" id="e1L4VLUqnD"></path><path d="M391.09 381.21L389.49 382.4L390.08 382.95L390.08 412.25L395.34 409.69L395.34 377.51L413.17 373.99L422.9 382.99L422.9 447.22L405.71 450.42L405.07 450.56L405.07 449.92L401.23 446.63L396.43 450.06L377.55 442.42L377.44 442.37L377.33 442.33L377.22 442.28L377.11 442.23L377.01 442.18L376.9 442.13L376.8 442.09L376.7 442.04L376.6 441.99L376.5 441.94L376.4 441.89L376.31 441.84L376.21 441.79L376.12 441.74L376.03 441.7L375.94 441.65L375.85 441.6L375.76 441.55L375.68 441.5L375.59 441.45L375.51 441.4L375.43 441.34L375.35 441.29L375.27 441.24L375.2 441.19L375.12 441.14L375.05 441.08L374.98 441.03L374.9 440.98L374.84 440.93L374.77 440.87L374.7 440.82L374.63 440.76L374.57 440.71L374.51 440.65L374.45 440.59L374.39 440.54L374.33 440.48L374.27 440.42L374.22 440.37L365.85 432.59L365.44 432.18L365.39 432.14L365.33 432.1L365.3 432.08L365.28 432.06L365.25 432.04L365.22 432.02L365.19 432L365.17 431.98L365.14 431.96L365.11 431.94L365.09 431.92L365.06 431.89L365.03 431.87L365.01 431.85L364.98 431.83L364.95 431.81L364.93 431.79L364.9 431.77L364.88 431.75L364.85 431.73L364.83 431.71L364.8 431.69L364.78 431.67L364.75 431.65L364.73 431.63L364.7 431.61L364.68 431.59L364.66 431.57L364.63 431.55L364.61 431.52L364.59 431.5L364.56 431.48L364.54 431.46L364.52 431.44L364.5 431.42L364.48 431.4L364.46 431.38L364.43 431.36L364.28 431.2L364.12 431.04L363.97 430.88L363.82 430.72L363.68 430.55L363.54 430.37L363.4 430.2L363.27 430.02L363.14 429.83L363.02 429.65L362.9 429.46L362.79 429.27L362.67 429.07L362.57 428.87L362.46 428.67L362.36 428.46L362.27 428.25L362.18 428.04L362.09 427.82L362.01 427.61L361.93 427.38L361.85 427.16L361.78 426.93L361.71 426.7L361.65 426.46L361.59 426.23L361.53 425.99L361.48 425.74L361.44 425.5L361.39 425.25L361.35 424.99L361.32 424.74L361.29 424.48L361.26 424.22L361.24 423.95L361.22 423.68L361.21 423.41L361.2 423.14L361.19 422.86L361.19 422.58L361.19 378.15L380.25 373.9L389.21 382.13L391.09 381.21ZM390.13 424.37L395.38 426.42L395.38 421.81L394.24 422.45L395.38 421.53L395.38 419.2L390.13 422.49L390.13 424.37ZM390.13 417.14L395.38 413.76L395.38 412.11L390.13 414.08L390.13 417.14Z" id="c65FNEcjxQ"></path><path d="M84.48 372.53C82.88 374.13 74.86 382.14 60.43 396.57C60.41 396.6 60.39 396.61 60.39 396.62C58.56 398.58 57.6 400.91 57.6 403.47C57.6 406.17 58.56 408.5 60.43 410.38C60.75 410.69 62.3 412.24 65.1 415.04L81.69 406.58C80.48 405.38 79.81 404.71 79.68 404.57C79.31 404.21 79.18 403.84 79.18 403.29C79.18 402.79 79.36 402.33 79.73 401.87C80.74 400.87 88.86 392.82 89.87 391.82C90.33 391.45 90.79 391.27 91.2 391.27C91.7 391.27 92.11 391.41 92.48 391.77C92.58 391.88 93.1 392.39 94.03 393.33C93.24 387.48 92.8 384.24 92.71 383.59C92.66 383.59 89.23 378.06 85.35 371.79C85.03 372.02 84.75 372.25 84.48 372.53Z" id="d2y6Kf6bsy"></path><path d="M98.24 372.57C96.37 370.7 94.03 369.74 91.34 369.74C89.14 369.74 87.13 370.42 85.35 371.79C89.23 378.06 92.66 383.59 92.66 383.59C92.75 384.24 93.19 387.48 93.99 393.33L100.25 399.59L114.61 393.83C120.48 399.15 123.74 402.11 124.39 402.7C124.39 400.05 123.43 397.71 121.51 395.84C116.85 391.19 100.57 374.9 98.24 372.57Z" id="b2skWWG7NN"></path><path d="M92.16 414.4C92.13 414.43 92.12 414.44 92.11 414.45C91.93 414.67 91.61 414.9 90.88 414.9C90.29 414.9 89.87 414.77 89.51 414.4C88.98 413.88 86.36 411.25 81.65 406.54L65.05 414.99C71.47 421.41 75.04 424.98 75.75 425.69C81.87 424.32 89.83 422.58 89.83 422.58C90.48 423.18 93.74 426.19 99.61 431.59L108.89 439.77L120.18 427.84L110.4 418.83L98.61 407.95L92.16 414.4Z" id="bgcHeLnNd"></path><path d="M124.43 402.74C123.78 402.15 120.52 399.2 114.65 393.87L100.3 399.63C101.53 400.87 102.22 401.55 102.35 401.69C102.72 402.06 102.86 402.47 102.86 403.06C102.86 403.79 102.63 404.07 102.4 404.3C102.15 404.55 100.9 405.8 98.65 408.05L110.49 418.88L120.27 427.89L111.59 419.75C117.57 413.8 120.89 410.49 121.55 409.83C123.43 407.82 124.43 405.49 124.43 402.83C124.43 402.79 124.43 402.76 124.43 402.74Z" id="b2Kgee8Zzy"></path><path d="M89.83 391.82C88.81 392.82 80.69 400.87 79.68 401.87C79.31 402.33 79.13 402.79 79.13 403.29C79.13 403.84 79.27 404.21 79.63 404.57C79.77 404.71 80.44 405.38 81.65 406.58L85.21 404.75L81.65 406.58C86.36 411.3 88.98 413.92 89.51 414.45C89.87 414.81 90.29 414.95 90.88 414.95C91.61 414.95 91.89 414.72 92.11 414.49C92.12 414.49 92.13 414.47 92.16 414.45C98.28 408.33 101.67 404.93 102.35 404.25C102.58 404.07 102.81 403.75 102.81 403.02C102.81 402.42 102.67 402.01 102.31 401.65C102.17 401.51 101.49 400.82 100.25 399.59L94.72 401.78L100.25 399.59C95.56 394.9 92.96 392.29 92.43 391.77C92.07 391.41 91.7 391.27 91.15 391.27C90.74 391.27 90.29 391.45 89.83 391.82Z" id="f7vnFMPFO6"></path><path d="M83.75 433.65C85.67 435.57 88.05 436.57 90.74 436.57C93.39 436.57 95.73 435.61 97.65 433.65C97.78 433.51 98.47 432.82 99.7 431.59C93.83 426.19 90.57 423.18 89.92 422.58C89.87 422.58 81.92 424.32 75.79 425.69C77.39 427.28 82.95 432.85 83.75 433.65Z" id="aVQht5EBA"></path><path d="M81.83 360.74L81.97 360.75L82.11 360.76L82.25 360.78L82.4 360.8L82.54 360.82L82.69 360.84L82.84 360.87L83 360.91L83.15 360.95L83.31 360.99L83.47 361.03L83.63 361.08L83.79 361.13L83.95 361.18L84.12 361.24L84.29 361.31L84.46 361.37L84.63 361.44L84.8 361.51L84.98 361.59L85.15 361.67L85.33 361.75L85.52 361.84L85.7 361.93L85.88 362.02L86.07 362.12L86.26 362.22L86.45 362.33L86.64 362.43L86.84 362.55L87.03 362.66L87.23 362.78L87.43 362.9L87.63 363.03L87.83 363.16L88.04 363.29L88.25 363.43L88.46 363.57L111.73 386.88L111.87 387.02L112.01 387.17L112.15 387.32L112.29 387.47L112.42 387.62L112.54 387.77L112.67 387.93L112.78 388.09L112.9 388.24L113.01 388.4L113.12 388.56L113.22 388.73L113.33 388.89L113.42 389.06L113.52 389.23L113.6 389.39L113.69 389.57L113.77 389.74L113.85 389.91L113.93 390.09L114 390.26L114.06 390.44L114.13 390.62L114.19 390.8L114.24 390.98L114.3 391.17L114.35 391.35L114.39 391.54L114.43 391.72L114.47 391.91L114.51 392.1L114.54 392.3L114.56 392.49L114.59 392.68L114.61 392.88L114.62 393.07L114.64 393.27L114.64 393.47L114.65 393.67L114.65 393.87L114.65 394.07L114.64 394.27L114.63 394.47L114.62 394.66L114.6 394.85L114.58 395.05L114.56 395.24L114.53 395.43L114.5 395.61L114.46 395.8L114.43 395.99L114.38 396.17L114.34 396.35L114.29 396.54L114.23 396.72L114.17 396.9L114.11 397.07L114.05 397.25L113.98 397.43L113.91 397.6L113.83 397.77L113.75 397.94L113.67 398.11L113.59 398.28L113.5 398.45L113.4 398.61L113.3 398.78L113.2 398.94L113.1 399.1L112.99 399.26L112.88 399.42L112.77 399.58L112.65 399.73L112.53 399.89L112.4 400.04L112.27 400.19L112.14 400.34L112.01 400.49L111.87 400.63L111.73 400.78L101.76 410.7L110.45 418.83L99.15 430.77L89.87 422.58L87.82 424.64L87.67 424.79L87.53 424.93L87.38 425.07L87.23 425.2L87.08 425.33L86.93 425.46L86.77 425.58L86.62 425.7L86.46 425.81L86.3 425.93L86.14 426.03L85.98 426.14L85.82 426.24L85.65 426.34L85.49 426.43L85.32 426.52L85.15 426.6L84.98 426.69L84.81 426.77L84.64 426.84L84.47 426.91L84.29 426.98L84.11 427.04L83.94 427.1L83.76 427.16L83.58 427.21L83.39 427.26L83.21 427.31L83.03 427.35L82.84 427.39L82.65 427.42L82.47 427.45L82.28 427.48L82.09 427.5L81.89 427.52L81.7 427.54L81.51 427.55L81.31 427.56L81.11 427.56L80.91 427.57L80.71 427.56L80.51 427.56L80.31 427.55L80.11 427.54L79.92 427.52L79.72 427.5L79.53 427.47L79.34 427.45L79.14 427.41L78.95 427.38L78.76 427.34L78.58 427.3L78.39 427.25L78.21 427.2L78.02 427.15L77.84 427.09L77.66 427.03L77.48 426.96L77.3 426.89L77.13 426.82L76.95 426.75L76.78 426.67L76.61 426.59L76.43 426.5L76.27 426.41L76.1 426.32L75.93 426.22L75.77 426.12L75.6 426.01L75.44 425.91L75.28 425.8L75.13 425.68L74.97 425.56L74.81 425.44L74.66 425.32L74.51 425.19L74.36 425.06L74.21 424.92L74.06 424.78L73.92 424.64L50.65 401.37L50.51 401.23L50.38 401.09L50.25 400.94L50.12 400.8L49.99 400.65L49.87 400.5L49.75 400.35L49.64 400.19L49.53 400.04L49.42 399.88L49.31 399.72L49.21 399.56L49.12 399.4L49.02 399.24L48.93 399.07L48.84 398.91L48.76 398.74L48.68 398.57L48.6 398.4L48.53 398.23L48.46 398.05L48.4 397.88L48.33 397.7L48.28 397.52L48.22 397.34L48.17 397.16L48.12 396.98L48.08 396.79L48.03 396.61L48 396.42L47.96 396.23L47.93 396.04L47.91 395.85L47.88 395.66L47.86 395.46L47.85 395.27L47.83 395.07L47.82 394.87L47.82 394.67L47.82 394.47L47.82 394.28L47.82 394.09L47.83 393.9L47.85 393.71L47.86 393.52L47.88 393.33L47.9 393.15L47.93 392.96L47.96 392.78L48 392.59L48.03 392.41L48.07 392.23L48.12 392.05L48.17 391.87L48.22 391.69L48.27 391.52L48.33 391.34L48.39 391.16L48.46 390.99L48.53 390.82L48.6 390.65L48.67 390.47L48.75 390.31L48.83 390.14L48.92 389.97L49.01 389.8L49.1 389.64L49.2 389.48L49.3 389.31L49.4 389.15L49.5 388.99L49.61 388.83L49.73 388.68L49.84 388.52L49.96 388.37L50.08 388.21L50.21 388.06L50.34 387.91L50.47 387.76L50.61 387.61L74.7 363.52L74.85 363.38L74.99 363.25L75.15 363.11L75.3 362.99L75.45 362.86L75.61 362.74L75.76 362.62L75.92 362.51L76.08 362.4L76.24 362.29L76.4 362.19L76.56 362.09L76.72 362L76.89 361.9L77.06 361.81L77.22 361.73L77.39 361.65L77.56 361.57L77.73 361.49L77.9 361.42L78.08 361.36L78.25 361.29L78.42 361.23L78.6 361.17L78.78 361.12L78.96 361.07L79.14 361.02L79.32 360.98L79.5 360.94L79.68 360.9L79.86 360.87L80.05 360.84L80.23 360.82L80.42 360.79L80.61 360.77L80.79 360.76L80.98 360.75L81.17 360.74L81.36 360.73L81.55 360.73L81.69 360.73L81.83 360.74ZM81.13 382.28L81.03 382.29L80.93 382.31L80.83 382.34L80.73 382.38L80.63 382.42L80.52 382.47L80.42 382.53L80.32 382.59L80.21 382.66L80.11 382.73L80 382.81L69.85 392.87L69.77 392.97L69.7 393.08L69.63 393.19L69.57 393.29L69.51 393.4L69.46 393.51L69.42 393.61L69.38 393.72L69.35 393.83L69.33 393.94L69.32 394.06L69.31 394.17L69.3 394.29L69.31 394.41L69.31 394.53L69.33 394.64L69.34 394.75L69.37 394.85L69.4 394.95L69.44 395.04L69.48 395.13L69.53 395.22L69.59 395.31L69.65 395.4L69.73 395.48L69.81 395.57L79.68 405.44L79.77 405.52L79.85 405.59L79.94 405.66L80.03 405.72L80.13 405.77L80.23 405.81L80.33 405.85L80.44 405.88L80.55 405.9L80.67 405.92L80.79 405.93L80.92 405.94L81.05 405.94L81.16 405.94L81.27 405.93L81.38 405.92L81.48 405.9L81.58 405.88L81.68 405.85L81.77 405.81L81.87 405.77L81.95 405.72L82.04 405.67L82.13 405.62L82.21 405.55L82.29 405.49L92.53 395.25L92.58 395.19L92.63 395.14L92.68 395.08L92.73 395.01L92.78 394.94L92.82 394.86L92.86 394.77L92.89 394.68L92.92 394.57L92.95 394.45L92.97 394.32L92.98 394.17L92.98 394.01L92.98 393.88L92.97 393.75L92.96 393.63L92.94 393.51L92.92 393.4L92.89 393.29L92.85 393.19L92.81 393.09L92.76 392.99L92.7 392.9L92.63 392.81L92.56 392.73L92.48 392.64L82.61 382.77L82.52 382.69L82.43 382.61L82.34 382.55L82.25 382.49L82.16 382.44L82.07 382.4L81.97 382.36L81.87 382.33L81.77 382.3L81.66 382.29L81.55 382.27L81.44 382.27L81.33 382.26L81.23 382.27L81.13 382.28Z" id="epFXTyBCb"></path><path d="M73.28 378.79L60.07 390.35L90.97 371.11L73.46 385.51L85.35 381.21C67.93 396.68 58.26 405.28 56.32 406.99C56.32 407.04 45.94 400.87 47.91 395.75C51.29 393.49 59.75 387.83 73.28 378.79Z" id="d7ApDNa4B"></path><path d="M81.97 410.79L99.66 397.17L72.69 422.58L73.97 423.95L99.7 403.06L79.18 422.17C100.46 404.75 112.29 395.08 114.65 393.14C114.61 393.19 118.22 389.85 108.48 383.59C104.94 387.22 96.11 396.28 81.97 410.79Z" id="a2wBYvtbf"></path><path d="M241.23 474.15L243.43 487.09L236.62 490.56L246.54 505.87L246.86 507.89L259.38 507.38L261.53 499.34L251.06 483.15L241.23 474.15Z" id="cMJC8gxP5"></path><path d="M276.89 484.34L274.61 483.11L265.69 497.01L262.45 500.71L261.53 499.34L259.38 507.38L262.67 507.29L272.46 516.25L289.05 490.7L279.22 481.69L276.89 484.34Z" id="b4g02K94z"></path><path d="M249.87 514.88L253.3 516.25L250.01 511.18L249.87 514.88Z" id="a4jnbRyO5h"></path><path d="M249.87 514.88L249.6 522.01L253.3 516.25L249.87 514.88Z" id="cIPQfyTA"></path><path d="M265.97 538.19L267.43 544.14L277.26 553.14L292.3 547.02L282.47 538.06L265.97 538.19Z" id="bBzsY5j7v"></path><path d="M272.46 516.25L262.67 507.29L246.86 507.89L247.09 509.03L244.21 512.55L249.87 514.88L250.01 511.18L253.3 516.25L262.35 531.84L262.86 531.02L265.01 534.31L265.97 538.19L282.47 538.06L292.3 547.02L272.46 516.25Z" id="b9uUxyGdf"></path><path d="M223.59 538.06L233.37 547.06L248.41 553.14L238.63 544.14L223.82 537.78L223.59 538.06Z" id="cxWhovjZD"></path><path d="M249.87 514.88L244.21 512.55L223.82 537.78L238.63 544.14L248.41 553.14L262.35 531.84L253.3 516.25L249.6 522.01L249.87 514.88Z" id="f4uf8c7bc2"></path><path d="M264.82 474.15L253.07 492.43L241.23 474.15L226.83 481.6L243.47 507.29L223.59 538.06L238.63 544.14L253.07 522.06L267.43 544.14L282.47 538.06L262.67 507.29L279.22 481.69L264.82 474.15Z" id="a19GHrCCjc"></path><path d="M247.04 488.73L238.95 495.73L270.31 477.03L274.93 479.45L248.41 496.32L264.14 489.55L241.55 504.27L236.02 495.73L247.04 488.73Z" id="b1LfnEIYAw"></path><path d="M253.03 518.35L265.33 514.29L238.08 534.45L269.35 517.67L264.55 510.17L253.03 518.35Z" id="f4jzAxMbt1"></path><path d="M457.37 424.09L453.76 429.99L463.59 438.99L478.03 433.65L468.3 424.64L456.91 422.95L457.37 424.09Z" id="d6rttJgnq2"></path><path d="M491.57 368.09L489.14 372.07L485.49 370.51L477.62 390.95L468.89 405.26L454.13 371.2L444.34 362.19L448.69 372.3L436.89 374.72L456.91 422.95L468.3 424.64L478.03 433.65L478.13 433.6L501.39 377.1L491.57 368.09Z" id="dJu5SP7tD"></path><path d="M444.34 362.19L427.06 365.76L453.76 429.99L468.3 424.64L491.57 368.09L475.66 361.55L460.8 400.27L444.34 362.19Z" id="b8eVQjUrn"></path><path d="M452.48 404.34L475.52 402.15L448.69 410.06L475.84 406.31L479.54 397.35L452.48 404.34Z" id="bzX8qjGxK"></path><path d="M448.46 380.94L439.68 385.65L478.67 375.82L446.77 388.66L486.99 379.29L485.12 383.77L439.54 395.75L435.06 384.96L448.46 380.94Z" id="a5JMxhkf4v"></path><path d="M47.66 14.69C47.34 14.69 47.02 14.73 46.65 14.82C46.64 14.83 46.53 14.86 46.51 14.87C45.92 15.05 45.6 15.14 45.46 15.19C45.45 15.19 45.38 15.19 45.37 15.19C42.77 15.87 40.39 16.61 38.42 17.34C35.54 18.43 34.63 19.07 34.17 19.49C34.13 19.52 33.95 19.69 33.62 19.99L33.62 45.36L49.99 41.34C49.99 37.52 49.99 35.41 49.99 34.98C50.49 35.39 51.27 35.99 52.32 36.95C52.46 33.47 52.73 24.83 53.1 18.07C52 17.2 50.95 16.33 49.94 15.51C49.3 14.96 48.48 14.69 47.66 14.69Z" id="a9gGixYlqo"></path><path d="M72.21 34.02C69.97 31.92 66.58 28.99 62.06 25.29C58.99 22.87 55.98 20.45 53.05 18.07C52.69 24.83 52.37 33.47 52.27 36.95C52.37 37.04 52.5 37.13 52.59 37.27C53.37 38 54.01 38.59 54.42 39.1C55.26 38.62 59.45 36.23 66.99 31.92C72.86 37.3 76.12 40.28 76.78 40.88C76.78 39.14 75.41 37.13 72.21 34.02C72.21 34.02 72.21 34.02 72.21 34.02Z" id="b2J4AXH39l"></path><path d="M49.94 34.94C49.94 35.36 49.94 37.48 49.94 41.29L50.86 41.06L49.94 41.29C49.94 43.95 49.94 45.43 49.94 45.73C50.95 44.9 51.73 44.26 52.32 43.81C54.61 41.89 55.38 40.97 55.66 40.56C55.52 40.29 55.2 39.83 54.42 39.01C54.31 39.07 53.76 39.37 52.78 39.92C53.76 39.37 54.31 39.07 54.42 39.01C53.97 38.55 53.37 37.95 52.59 37.22C51.36 36.08 50.54 35.39 49.94 34.94Z" id="f2BhfAHBFh"></path><path d="M54.42 39.05C55.2 39.87 55.52 40.33 55.66 40.61C55.38 40.97 54.56 41.93 52.32 43.85C51.73 44.31 50.95 44.95 49.94 45.77C49.94 45.48 49.94 44 49.94 41.34L33.58 45.36L33.58 58.43L39.79 58.66C45.75 64.01 49.05 66.98 49.71 67.58C50.35 66.94 52 65.34 56.16 61.54C62.56 55.74 66.95 51.71 69.19 49.57C76.82 42.43 76.82 41.79 76.82 40.93C76.82 40.93 76.82 40.93 76.82 40.93C76.17 40.32 72.89 37.31 66.99 31.87C59.45 36.18 55.26 38.57 54.42 39.05Z" id="fv4b11VPF"></path><path d="M33.53 69.41L23.75 72.61L33.53 81.61C34.68 81.42 35.32 81.31 35.45 81.29C38.33 80.83 40.48 80.47 41.85 80.19C44 79.83 45.6 79.55 46.7 79.33C47.66 79.14 48.53 78.91 49.07 78.46C48.44 77.84 45.27 74.73 39.57 69.13L33.53 67.3L33.53 69.41Z" id="c21KbnnxCo"></path><path d="M33.53 67.3L39.52 69.13C45.23 74.73 48.39 77.84 49.03 78.46C49.35 78.18 49.53 77.77 49.53 77.22C49.53 76.26 49.53 68.54 49.53 67.58C49.58 67.53 49.58 67.53 49.62 67.49C48.96 66.89 45.65 63.92 39.7 58.57L33.53 58.39L33.53 67.3Z" id="a1yUIZGiVU"></path><path d="M37.97 5.68L38.03 5.69L38.1 5.69L38.17 5.7L38.24 5.7L38.31 5.71L38.38 5.72L38.44 5.73L38.51 5.74L38.58 5.76L38.64 5.77L38.71 5.79L38.78 5.8L38.84 5.82L38.91 5.84L38.98 5.86L39.04 5.89L39.1 5.91L39.17 5.93L39.23 5.96L39.3 5.99L39.36 6.02L39.42 6.05L39.48 6.08L39.54 6.11L39.6 6.14L39.66 6.18L39.72 6.21L39.78 6.25L39.84 6.29L39.89 6.33L39.95 6.37L40.01 6.41L40.06 6.46L40.11 6.5L40.44 6.77L40.76 7.04L41.09 7.3L41.42 7.57L41.75 7.84L42.08 8.11L42.41 8.38L42.74 8.65L43.07 8.92L43.4 9.19L43.73 9.46L44.07 9.73L44.4 10L44.74 10.27L45.07 10.54L45.41 10.82L45.75 11.09L46.09 11.36L46.42 11.63L46.76 11.91L47.1 12.18L47.44 12.45L47.78 12.72L48.12 13L48.46 13.27L48.8 13.54L49.15 13.82L49.49 14.09L49.83 14.37L50.17 14.64L50.51 14.91L50.86 15.19L51.2 15.46L51.54 15.74L51.89 16.01L52.23 16.29L52.6 16.59L52.97 16.9L53.34 17.2L53.69 17.49L54.05 17.78L54.4 18.07L54.74 18.36L55.08 18.64L55.41 18.92L55.74 19.19L56.06 19.46L56.37 19.73L56.68 19.99L56.99 20.25L57.29 20.51L57.59 20.76L57.88 21.01L58.16 21.25L58.44 21.49L58.71 21.73L58.98 21.96L59.25 22.19L59.5 22.42L59.76 22.64L60 22.86L60.25 23.08L60.48 23.29L60.71 23.49L60.94 23.7L61.16 23.9L61.38 24.09L61.59 24.29L61.79 24.47L61.99 24.66L62.19 24.84L62.38 25.02L62.64 25.27L62.9 25.53L63.15 25.77L63.39 26.02L63.62 26.25L63.85 26.49L64.06 26.72L64.27 26.94L64.47 27.16L64.66 27.38L64.84 27.59L65.02 27.8L65.19 28.01L65.35 28.21L65.5 28.4L65.65 28.6L65.78 28.79L65.91 28.98L66.04 29.16L66.15 29.34L66.26 29.52L66.36 29.69L66.46 29.87L66.55 30.04L66.63 30.2L66.7 30.37L66.77 30.53L66.83 30.68L66.88 30.84L66.93 30.99L66.97 31.15L67.01 31.3L67.04 31.44L67.06 31.59L67.08 31.73L67.09 31.87L67.09 31.95L67.08 32.02L67.08 32.09L67.08 32.16L67.07 32.24L67.05 32.32L67.03 32.4L67 32.49L66.97 32.59L66.92 32.69L66.87 32.8L66.8 32.92L66.73 33.04L66.64 33.18L66.53 33.33L66.42 33.49L66.28 33.66L66.13 33.85L65.96 34.05L65.78 34.26L65.57 34.49L65.34 34.74L65.09 35.01L64.82 35.3L64.53 35.6L64.21 35.93L63.86 36.28L63.49 36.65L63.09 37.04L62.67 37.46L62.21 37.9L61.72 38.37L61.21 38.86L60.65 39.38L60.07 39.93L59.45 40.51L59.26 40.7L59.06 40.89L58.85 41.09L58.63 41.3L58.39 41.52L58.15 41.74L57.9 41.98L57.64 42.22L57.37 42.48L57.09 42.74L56.8 43.01L56.5 43.28L56.19 43.57L55.87 43.87L55.54 44.17L55.2 44.48L54.86 44.8L54.5 45.13L54.13 45.47L53.75 45.82L53.37 46.17L52.97 46.53L52.56 46.9L52.15 47.28L51.72 47.67L51.29 48.07L50.84 48.47L50.39 48.89L49.93 49.31L49.45 49.74L48.97 50.18L48.48 50.62L47.98 51.08L47.47 51.54L46.95 52.01L46.42 52.49L46.06 52.82L45.71 53.14L45.37 53.45L45.05 53.74L44.74 54.03L44.44 54.3L44.15 54.56L43.87 54.82L43.61 55.06L43.35 55.3L43.11 55.52L42.88 55.74L42.66 55.94L42.44 56.14L42.24 56.33L42.05 56.51L41.87 56.68L41.69 56.84L41.53 57L41.37 57.14L41.22 57.28L41.08 57.41L40.95 57.54L40.83 57.66L40.71 57.77L40.6 57.88L40.5 57.98L40.4 58.07L40.31 58.16L40.23 58.24L40.15 58.31L40.08 58.38L40.01 58.45L39.95 58.51L39.89 58.57L39.84 58.62L39.84 68.26L39.84 68.38L39.83 68.5L39.81 68.6L39.79 68.71L39.77 68.81L39.73 68.9L39.7 68.99L39.66 69.08L39.61 69.16L39.56 69.23L39.5 69.31L39.44 69.38L39.37 69.44L39.3 69.5L39.23 69.56L39.15 69.62L39.07 69.67L38.98 69.72L38.89 69.77L38.8 69.81L38.7 69.85L38.61 69.89L38.5 69.93L38.4 69.97L38.29 70L38.18 70.04L38.07 70.07L37.95 70.1L37.83 70.13L37.71 70.16L37.59 70.19L37.47 70.21L37.34 70.24L37.22 70.27L37.09 70.29L36.96 70.32L36.87 70.34L36.77 70.36L36.68 70.38L36.58 70.4L36.47 70.42L36.37 70.44L36.26 70.46L36.15 70.48L36.04 70.5L35.93 70.52L35.81 70.54L35.69 70.57L35.57 70.59L35.45 70.61L35.32 70.63L35.2 70.66L35.06 70.68L34.93 70.7L34.8 70.73L34.66 70.75L34.52 70.78L34.37 70.8L34.23 70.83L34.08 70.85L33.93 70.88L33.78 70.9L33.62 70.93L33.47 70.96L33.31 70.99L33.14 71.01L32.98 71.04L32.81 71.07L32.64 71.1L32.47 71.13L32.29 71.16L32.11 71.19L32 71.21L31.88 71.24L31.76 71.26L31.63 71.28L31.5 71.31L31.36 71.33L31.23 71.36L31.09 71.38L30.94 71.41L30.79 71.44L30.64 71.47L30.49 71.49L30.33 71.52L30.16 71.55L30 71.58L29.83 71.61L29.66 71.64L29.48 71.67L29.3 71.7L29.12 71.73L28.93 71.76L28.74 71.79L28.55 71.83L28.35 71.86L28.15 71.89L27.94 71.93L27.74 71.96L27.53 71.99L27.31 72.03L27.09 72.06L26.87 72.1L26.65 72.14L26.42 72.17L26.19 72.21L25.95 72.25L25.71 72.29L23.79 72.61L23.79 10.98L24.34 10.48L24.38 10.45L24.42 10.41L24.47 10.37L24.51 10.33L24.56 10.29L24.62 10.25L24.67 10.21L24.73 10.17L24.79 10.12L24.86 10.08L24.93 10.03L25.01 9.98L25.09 9.93L25.17 9.88L25.26 9.83L25.36 9.78L25.46 9.72L25.56 9.66L25.67 9.6L25.79 9.54L25.91 9.48L26.04 9.42L26.17 9.35L26.31 9.28L26.46 9.22L26.62 9.14L26.78 9.07L26.95 9L27.13 8.92L27.31 8.84L27.5 8.76L27.71 8.68L27.91 8.6L28.13 8.51L28.36 8.42L28.59 8.33L28.76 8.27L28.93 8.21L29.09 8.15L29.26 8.09L29.44 8.03L29.61 7.97L29.79 7.91L29.96 7.84L30.14 7.78L30.32 7.72L30.51 7.66L30.69 7.6L30.88 7.54L31.06 7.48L31.25 7.42L31.44 7.36L31.64 7.3L31.83 7.24L32.02 7.18L32.22 7.12L32.42 7.06L32.62 7L32.82 6.94L33.02 6.88L33.22 6.82L33.43 6.76L33.63 6.7L33.84 6.65L34.05 6.59L34.26 6.53L34.47 6.47L34.68 6.41L34.9 6.36L35.11 6.3L35.33 6.24L35.54 6.18L35.63 6.18L35.66 6.17L35.67 6.17L35.69 6.17L35.7 6.16L35.74 6.15L35.77 6.14L35.79 6.13L35.84 6.12L35.91 6.1L36.08 6.05L36.14 6.03L36.18 6.02L36.25 6L36.29 5.98L36.37 5.96L36.41 5.95L36.45 5.93L36.5 5.92L36.54 5.91L36.59 5.89L36.64 5.88L36.69 5.86L36.82 5.82L36.85 5.81L36.88 5.8L36.91 5.8L36.94 5.79L36.97 5.78L37 5.78L37.03 5.77L37.06 5.76L37.09 5.76L37.12 5.75L37.15 5.75L37.18 5.74L37.2 5.74L37.23 5.73L37.26 5.73L37.29 5.72L37.32 5.72L37.34 5.71L37.37 5.71L37.4 5.71L37.43 5.7L37.45 5.7L37.48 5.7L37.51 5.7L37.53 5.69L37.56 5.69L37.59 5.69L37.61 5.69L37.64 5.69L37.67 5.68L37.7 5.68L37.72 5.68L37.75 5.68L37.78 5.68L37.8 5.68L37.83 5.68L37.9 5.68L37.97 5.68ZM40.69 36.29L41.21 35.87L41.69 35.48L42.11 35.14L42.49 34.85L43.67 33.81L44.55 32.98L45.18 32.35L45.59 31.89L45.83 31.6L45.65 31.28L45.29 30.81L44.72 30.16L43.89 29.3L42.77 28.22L42.07 27.58L41.46 27.05L40.93 26.6L40.48 26.23L40.11 25.93L40.11 36.77L40.69 36.29Z" id="c2DT2HYv7R"></path><path d="M46.33 41.93L31.11 55.6L60.14 34.94L23.75 67.49L23.75 57.75L46.33 41.93Z" id="bu3Kwbi7U"></path><path d="M29.05 23.42L42.99 19.53L25.67 32.7L46.97 21.27L23.75 39.42L23.75 43.67L56.48 19.81L49.07 13.73L29.05 23.42Z" id="aMxjkfbhi"></path><path d="M247.63 363.66L237.85 354.65L246.31 364.66L244.34 366.08L249.33 368.27L259.11 377.23L247.63 363.66Z" id="bb6u7r0fC"></path><path d="M240.87 391.91L239.86 390.95C239.84 390.92 239.82 390.91 239.82 390.9C239.82 390.9 239.82 390.9 239.82 390.9C240 390.77 240.23 390.63 240.55 390.45C241.79 389.56 247.97 385.16 259.11 377.23L249.33 368.23L244.34 366.08L223.73 381.35L230.03 381.94L234.51 391.59L240.87 391.91Z" id="a3e1B1c8op"></path><path d="M232.96 408.37C233.1 408.5 233.19 408.64 233.23 408.78C233.23 408.78 233.19 408.82 233.19 408.82C233.18 408.83 233.11 408.86 233.1 408.87C233.1 408.87 233.01 408.96 232.78 409.1C231.4 410.09 224.51 415.08 212.11 424.05L215.91 428.02L215.22 428.53L225.01 437.53L254.22 415.22C254.27 415.2 254.3 415.18 254.31 415.18C255.31 414.31 256 413.49 256.5 412.62C256.87 411.98 257.1 411.34 257.23 410.7C256.59 410.08 253.34 406.97 247.5 401.37L228.16 403.89C231.04 406.57 232.64 408.07 232.96 408.37Z" id="aJTBqowMd"></path><path d="M256.41 406.86C256.23 406.58 256 406.26 255.68 405.9C255.68 405.89 255.66 405.86 255.63 405.81L240.91 391.91L234.56 391.59L230.08 381.94L223.77 381.35C221.19 383.24 219.76 384.29 219.47 384.5C218.79 384.96 218.29 385.37 217.92 385.74C217.92 385.74 217.88 385.78 217.87 385.78C216.69 387.06 216.09 388.43 216.09 389.94C216.09 391.36 216.69 392.78 217.83 394.15C217.83 394.15 217.85 394.19 217.87 394.24L228.11 403.84L247.41 401.33C253.25 406.92 256.49 410.03 257.14 410.65C257.19 410.33 257.23 410.06 257.23 409.74C257.28 408.78 257.01 407.77 256.41 406.86C256.41 406.86 256.41 406.86 256.41 406.86Z" id="byDcAYZ4R"></path><path d="M222.99 400.14C221.62 401.13 214.73 406.12 202.33 415.09L215.22 428.57L244.43 406.26C244.49 406.24 244.52 406.22 244.53 406.22C245.53 405.35 246.22 404.53 246.72 403.66C247.27 402.74 247.5 401.78 247.5 400.82C247.5 399.82 247.18 398.81 246.63 397.9C246.62 397.89 246.59 397.86 246.58 397.85C246.45 397.62 246.17 397.3 245.85 396.89C245.85 396.89 245.83 396.85 245.81 396.8L230.08 381.99C230.05 381.96 230.04 381.95 230.03 381.94C230.03 381.94 230.03 381.94 230.03 381.94C230.22 381.81 230.45 381.67 230.77 381.49C232 380.6 238.19 376.2 249.33 368.27L237.85 354.7C220.96 367.23 211.57 374.2 209.69 375.59C209.01 376.05 208.5 376.46 208.14 376.82C208.13 376.83 208.1 376.86 208.09 376.87C206.9 378.15 206.31 379.52 206.31 381.03C206.31 382.45 206.9 383.86 208.05 385.23C208.05 385.24 208.06 385.27 208.09 385.33C217.12 393.77 222.13 398.47 223.13 399.41C223.27 399.54 223.36 399.68 223.41 399.82C223.41 399.82 223.36 399.86 223.36 399.86C223.36 399.87 223.34 399.88 223.31 399.91C223.25 399.97 223.15 400.05 222.99 400.14Z" id="aaHo3PxJ"></path><path d="M225.78 371.79L216.09 384.46L244.11 364.85C227.3 381.11 217.96 390.15 216.09 391.95C216.09 391.91 208.41 387.7 206.95 383.59C209.46 382.02 215.74 378.08 225.78 371.79Z" id="bisQ7WNlq"></path><path d="M216.09 419.43C225.09 417.62 230.09 416.61 231.09 416.41C231.09 416.41 244.94 409.6 246.08 404.43C242.08 406.43 232.09 411.43 216.09 419.43Z" id="b9wQFGmKE"></path><path d="M558.95 419.7L560.41 416.73L558.95 414.03L557.44 417.01L558.95 419.7Z" id="b64QsYsGTt"></path><path d="M536.59 423.36L532.02 427.7C537.89 433.11 541.15 436.11 541.81 436.71C542.81 437.85 543.86 438.08 544.55 438.08C545.28 438.08 545.97 437.9 546.56 437.49C546.88 437.3 547.15 437.03 547.47 436.62C547.48 436.61 547.51 436.58 547.57 436.53L557.39 417.05L549.85 403.38L531.47 410.06L536.59 423.36Z" id="g2n1VOxzGK"></path><path d="M548.25 364.85L554.42 382.99L547.66 400.09L536 371.52L526.17 362.51L530.38 372.75L518.13 375.45L531.47 410.06L549.9 403.34L557.44 417.01L558.95 414.03L560.41 416.73L570.19 396.8L558.03 373.81L548.25 364.85Z" id="a5fzpgBA"></path><path d="M588.75 373.58L584.14 371.06L572.98 402.19L570.15 396.85L560.41 416.73L565.53 426.1L561.46 427.66C567.41 433.14 570.72 436.19 571.38 436.8C572.3 437.85 573.35 438.08 574.03 438.08C574.63 438.08 575.27 437.9 575.86 437.49C576.09 437.35 576.37 437.17 576.64 436.89C576.66 436.88 576.73 436.8 576.87 436.66L599.73 379.66L589.94 370.61L588.75 373.58Z" id="jhRyGm8zI"></path><path d="" id="bOdzLEhEQ"></path><path d="M548.25 364.85L537.83 391.13L526.17 362.51L508.34 366.45L531.84 427.47C531.95 427.61 532.01 427.69 532.02 427.7C533.03 428.85 534.08 429.07 534.77 429.07C535.5 429.07 536.18 428.89 536.78 428.48C537.1 428.3 537.37 428.02 537.69 427.61C537.7 427.61 537.73 427.57 537.78 427.52L549.12 405.07L561.46 427.66C561.55 427.74 561.59 427.79 561.6 427.79C562.51 428.85 563.57 429.07 564.25 429.07C564.85 429.07 565.49 428.89 566.08 428.48C566.31 428.34 566.58 428.16 566.86 427.89C566.87 427.87 566.95 427.79 567.09 427.66L589.94 370.65L574.31 362.1L563.2 393.19L548.25 364.85Z" id="aInAWiS5"></path><path d="M530.47 383.18L521.05 390.95L558.95 379.29L525.67 395.02L539.66 393.83L521.14 399.68L517.3 389.76L530.47 383.18Z" id="c2MLonZ2Bg"></path><path d="M576.82 403.34L541.81 417.01L564.43 404.39L527.73 416.82C526.79 414.38 526.28 413.03 526.17 412.75C526.17 412.75 575.45 395.38 574.63 395.02C573.81 394.65 555.02 395.79 555.02 395.79C556.83 395.39 565.92 393.38 582.26 389.76L576.82 403.34Z" id="h4JATdwCuw"></path><path d="M295.77 421.71L303.54 423.59L313.33 432.78L313.33 386.06L303.54 377.05L295.77 385.97L295.77 421.71Z" id="b2b9bP3y5e"></path><path d="M295.77 425.87L285.99 428.25L295.77 437.21L313.33 433.05L313.33 432.78L303.54 423.59L295.77 421.71L295.77 425.87Z" id="ajggJrhEV"></path><path d="M325.9 361.28L321.23 370.29C316.35 370.29 313.64 370.29 313.1 370.29C315.29 373.53 317.71 377.05 317.71 377.05C318.37 377.64 321.66 380.6 327.59 385.92L330.79 379.75L335.68 370.29L325.9 361.28Z" id="aNp1YNnf7"></path><path d="M281.23 370.29L277.94 376.82L263.59 376.87L273.37 385.87L295.77 385.78L295.77 385.97L303.54 377.05L313.33 386.06L327.5 386.06L327.54 385.92C321.65 380.6 318.37 377.64 317.71 377.05C317.71 377.05 315.29 373.53 313.1 370.29C308.85 370.29 298.23 370.29 281.23 370.29Z" id="eGmkNUgwG"></path><path d="M303.54 377.05L317.71 377.05L325.9 361.33L271.45 361.33L263.59 376.91L285.99 376.82L285.99 428.25L303.54 424.05L303.54 377.05Z" id="g26NLneGjl"></path><path d="M292.57 404.94L303.54 398.4L303.54 393.55L292.57 404.94Z" id="a36vnzFatn"></path><path d="M300.57 409.37L292.57 417.19L303.54 410.7L303.54 415.45L285.99 426.15L285.94 419.43L300.57 409.37Z" id="b1e8B9RjyM"></path><path d="M295.77 367.86L287.13 374.63L317.81 361.46L320.55 361.33L289.1 379.02L308.34 373.62L285.03 386.06L274.79 376.55L295.77 367.86Z" id="a4JV4gk4D"></path><path d="M186.33 390.17C183.45 386.56 178.7 381.21 172.25 374.26C170.29 372.16 169.55 371.25 169.28 370.88C169.28 370.85 169.28 370.7 169.28 370.42C163.41 365.02 160.15 362.02 159.5 361.42C159.04 362.7 160.96 365.53 163.15 368.23C162.83 368.23 162.38 368.32 161.65 368.41C161.61 368.42 161.43 368.45 161.1 368.5C161.01 368.59 160.97 368.63 160.96 368.64C160.59 368.73 159.77 368.96 157.94 369.37C158.38 371.18 161.85 385.66 162.29 387.47C162.74 387.84 163.15 388.16 163.52 388.43C163.98 388.8 164.39 389.12 164.75 389.44C165.58 388.98 169.73 386.7 177.19 382.58C183.09 388.01 186.36 391.03 187.02 391.63C186.88 391.18 186.7 390.77 186.47 390.35C186.44 390.32 186.35 390.19 186.33 390.17Z" id="hos7XOphQ"></path><path d="M144.41 372.43C144.33 372.45 143.9 372.54 143.13 372.71L143.13 393.97L161.14 393.05C161.14 389.24 161.14 387.12 161.14 386.7C161.55 386.97 161.87 387.25 162.19 387.52C161.76 385.71 158.29 371.23 157.85 369.42C156.71 369.65 155.06 370.06 152.82 370.56C150.99 370.97 148.16 371.61 144.41 372.43Z" id="clx2jwZE"></path><path d="M184.69 412.62C180.39 407.31 178.83 405.26 178.29 404.48C178.29 404.48 178.29 404.48 178.29 404.48C177.63 403.88 174.37 400.86 168.5 395.43C167.24 394.74 166.54 394.36 166.4 394.29C165.81 394.88 164.94 395.57 163.75 396.48C162.65 397.3 161.83 397.9 161.14 398.35C161.14 398.01 161.14 396.27 161.14 393.14L143.13 394.06L143.13 421.03L151.31 422.86L161.1 431.82C161.1 420.27 161.1 413.85 161.1 412.57C162.01 413.62 163.38 415.22 165.35 417.6C166.58 419.11 167.86 420.66 169.14 422.22C170.28 421.88 175.98 420.17 186.24 417.1L196.02 426.1L194.88 424.78C190.77 419.93 187.37 415.88 184.69 412.62Z" id="a5yC0rbUtb"></path><path d="M164.66 389.53C164.57 389.58 164.1 389.84 163.25 390.31C164.1 389.84 164.57 389.58 164.66 389.53C164.3 389.21 163.89 388.89 163.43 388.53C162.83 388.07 162.1 387.52 161.14 386.79C161.14 387.95 161.14 397.2 161.14 398.35C161.83 397.9 162.65 397.26 163.75 396.48C164.94 395.57 165.76 394.88 166.4 394.29C166.19 394.17 165.14 393.61 163.25 392.59C165.14 393.61 166.19 394.17 166.4 394.29C167.36 393.37 167.68 392.87 167.82 392.59C167.59 392.23 166.86 391.36 164.66 389.53Z" id="j1BwNbTYGd"></path><path d="M167.82 392.64C167.68 392.87 167.36 393.42 166.4 394.33C166.54 394.41 167.24 394.79 168.5 395.47C174.4 400.85 177.68 403.84 178.33 404.43C178.65 403.89 179.43 402.7 181.53 400.23C183.45 398.03 185.1 395.84 186.42 393.74C186.43 393.73 186.46 393.7 186.47 393.69C186.79 393.14 186.97 392.64 186.97 392.14C186.97 392 186.97 391.86 186.93 391.77C186.27 391.17 182.99 388.15 177.1 382.72L164.66 389.58C166.61 391.38 167.66 392.4 167.82 392.64Z" id="a2qeXfgPh"></path><path d="M143.18 425.23L133.39 427.29L143.18 436.3L152.09 434.7C152.15 434.7 152.18 434.7 152.18 434.7C159.31 432.96 159.95 432.59 160.32 432.37C160.37 432.34 160.65 432.18 161.14 431.91L161.14 431.91L151.36 422.95L143.18 421.07L143.18 425.23Z" id="d4PHqJu18j"></path><path d="M169.23 422.31C170.01 423.27 170.83 424.23 171.66 425.19C171.57 425.23 171.13 425.43 170.33 425.78C175.6 430.64 178.52 433.33 179.11 433.87C180.3 435.06 180.62 435.06 181.12 435.06C181.67 435.06 182.26 434.93 185.46 432.91C187.98 431.31 190.58 429.67 193.28 427.98C193.47 427.86 194.41 427.25 196.11 426.15L186.33 417.19C176.07 420.26 170.37 421.97 169.23 422.31Z" id="a7VrlgFbFR"></path><path d="M153.85 359.32L153.93 359.32L154 359.32L154.08 359.32L154.16 359.33L154.24 359.33L154.31 359.34L154.39 359.35L154.46 359.36L154.54 359.36L154.61 359.37L154.69 359.38L154.76 359.39L154.84 359.41L154.91 359.42L154.99 359.43L155.06 359.44L155.13 359.46L155.21 359.47L155.28 359.49L155.35 359.51L155.42 359.52L155.5 359.54L155.57 359.56L155.64 359.58L155.71 359.6L155.78 359.62L155.85 359.64L155.92 359.66L155.99 359.68L156.06 359.71L156.13 359.73L156.2 359.75L156.27 359.78L156.34 359.8L156.41 359.83L156.48 359.85L156.55 359.88L156.62 359.91L156.68 359.94L156.73 359.96L156.79 359.99L156.85 360.02L156.91 360.05L156.96 360.07L157.02 360.1L157.08 360.13L157.13 360.16L157.19 360.18L157.25 360.21L157.3 360.24L157.36 360.27L157.41 360.29L157.47 360.32L157.52 360.35L157.58 360.38L157.63 360.41L157.68 360.43L157.74 360.46L157.79 360.49L157.84 360.52L157.89 360.55L157.95 360.58L158 360.61L158.05 360.63L158.1 360.66L158.15 360.69L158.2 360.72L158.25 360.75L158.3 360.78L158.35 360.81L158.4 360.84L158.44 360.87L158.49 360.9L158.54 360.93L158.58 360.96L158.63 360.99L158.68 361.02L158.72 361.05L159.45 361.55L159.45 362.01L159.47 362.04L159.5 362.07L159.52 362.1L159.55 362.14L159.58 362.18L159.61 362.22L159.64 362.26L159.68 362.3L159.71 362.35L159.76 362.4L159.8 362.45L159.84 362.51L159.89 362.56L159.94 362.62L159.99 362.69L160.05 362.75L160.11 362.82L160.17 362.9L160.24 362.97L160.3 363.05L160.37 363.13L160.45 363.22L160.53 363.31L160.61 363.4L160.69 363.5L160.78 363.6L160.87 363.7L160.97 363.81L161.07 363.92L161.17 364.03L161.27 364.15L161.39 364.27L161.5 364.4L161.62 364.53L161.74 364.66L161.87 364.8L162 364.94L162.14 365.09L162.28 365.24L162.42 365.39L162.9 365.91L163.38 366.42L163.84 366.93L164.31 367.43L164.76 367.92L165.21 368.41L165.65 368.89L166.09 369.37L166.51 369.84L166.94 370.3L167.35 370.76L167.76 371.21L168.17 371.66L168.56 372.1L168.95 372.53L169.33 372.96L169.71 373.38L170.08 373.79L170.44 374.2L170.8 374.6L171.15 375L171.49 375.38L171.83 375.77L172.16 376.14L172.48 376.51L172.8 376.88L173.11 377.24L173.41 377.59L173.71 377.93L173.99 378.27L174.28 378.6L174.55 378.93L174.82 379.25L175.08 379.56L175.34 379.87L175.58 380.17L175.82 380.46L176.06 380.75L176.28 381.03L176.5 381.3L176.64 381.49L176.66 381.53L176.69 381.57L176.71 381.61L176.73 381.65L176.75 381.69L176.77 381.73L176.8 381.77L176.82 381.81L176.83 381.86L176.85 381.9L176.87 381.94L176.89 381.98L176.91 382.02L176.92 382.06L176.94 382.1L176.96 382.14L176.97 382.19L176.98 382.23L177 382.27L177.01 382.31L177.02 382.35L177.04 382.39L177.05 382.43L177.06 382.47L177.07 382.51L177.08 382.56L177.09 382.6L177.09 382.64L177.1 382.68L177.11 382.72L177.12 382.76L177.12 382.8L177.13 382.84L177.13 382.88L177.13 382.93L177.14 382.97L177.14 383.01L177.14 383.05L177.14 383.09L177.14 383.13L177.14 383.17L177.14 383.21L177.14 383.24L177.14 383.28L177.13 383.32L177.13 383.36L177.13 383.4L177.12 383.43L177.12 383.47L177.11 383.51L177.1 383.55L177.09 383.59L177.09 383.62L177.08 383.66L177.07 383.7L177.06 383.74L177.05 383.78L177.04 383.81L177.02 383.85L177.01 383.89L177 383.93L176.98 383.97L176.97 384.01L176.96 384.05L176.94 384.09L176.92 384.12L176.91 384.16L176.89 384.2L176.87 384.24L176.85 384.28L176.83 384.32L176.82 384.36L176.8 384.4L176.77 384.44L176.75 384.48L176.73 384.52L176.71 384.56L176.69 384.6L176.66 384.64L176.64 384.69L176.59 384.73L176.49 384.89L176.39 385.05L176.29 385.21L176.19 385.36L176.08 385.52L175.98 385.68L175.87 385.84L175.76 386L175.65 386.16L175.54 386.32L175.43 386.49L175.32 386.65L175.2 386.81L175.09 386.97L174.97 387.13L174.85 387.29L174.73 387.46L174.61 387.62L174.49 387.78L174.37 387.94L174.25 388.11L174.12 388.27L174 388.43L173.87 388.6L173.74 388.76L173.62 388.92L173.49 389.09L173.36 389.25L173.22 389.41L173.09 389.58L172.96 389.74L172.82 389.91L172.69 390.07L172.55 390.24L172.41 390.4L172.27 390.56L172.13 390.73L171.99 390.89L171.85 391.06L171.7 391.22L171.54 391.41L171.39 391.59L171.24 391.77L171.1 391.94L170.96 392.1L170.82 392.27L170.69 392.42L170.57 392.58L170.45 392.73L170.33 392.87L170.21 393.01L170.11 393.15L170 393.28L169.9 393.41L169.8 393.53L169.71 393.65L169.62 393.76L169.54 393.87L169.46 393.98L169.38 394.09L169.3 394.19L169.23 394.28L169.16 394.38L169.1 394.46L169.04 394.55L168.98 394.63L168.93 394.71L168.87 394.79L168.82 394.86L168.78 394.93L168.73 395L168.69 395.06L168.66 395.12L168.62 395.18L168.59 395.24L168.56 395.29L168.53 395.34L168.5 395.39L168.48 395.43L168.46 395.47L168.5 395.54L168.55 395.6L168.6 395.67L168.65 395.75L168.71 395.83L168.78 395.92L168.85 396.01L168.92 396.11L169 396.22L169.08 396.33L169.17 396.45L169.27 396.57L169.37 396.71L169.48 396.84L169.59 396.99L169.71 397.15L169.83 397.31L169.97 397.48L170.11 397.66L170.25 397.85L170.4 398.04L170.56 398.25L170.73 398.46L170.91 398.68L171.09 398.91L171.28 399.15L171.48 399.4L171.68 399.66L171.9 399.93L172.12 400.21L172.35 400.5L172.59 400.8L172.84 401.12L173.1 401.44L173.37 401.77L173.65 402.12L173.94 402.47L174.23 402.84L174.54 403.22L174.86 403.61L175.16 403.98L175.46 404.34L175.75 404.7L176.05 405.06L176.34 405.41L176.63 405.76L176.91 406.11L177.2 406.45L177.48 406.79L177.76 407.13L178.04 407.47L178.31 407.8L178.59 408.13L178.86 408.45L179.13 408.78L179.39 409.1L179.66 409.41L179.92 409.73L180.18 410.04L180.43 410.34L180.69 410.65L180.94 410.95L181.19 411.24L181.44 411.54L181.68 411.83L181.92 412.11L182.16 412.4L182.4 412.68L182.63 412.96L182.87 413.23L183.1 413.5L183.32 413.77L183.55 414.03L183.77 414.29L183.99 414.54L184.21 414.8L184.42 415.05L184.63 415.29L184.84 415.53L185.05 415.77L186.29 417.19L183.45 419.02L183.25 419.14L183.05 419.27L182.85 419.4L182.65 419.52L182.44 419.65L182.24 419.78L182.04 419.9L181.84 420.03L181.64 420.15L181.45 420.28L181.25 420.4L181.05 420.53L180.85 420.65L180.65 420.78L180.46 420.9L180.26 421.02L180.06 421.15L179.87 421.27L179.67 421.4L179.47 421.52L179.28 421.64L179.08 421.77L178.89 421.89L178.7 422.01L178.5 422.13L178.31 422.26L178.11 422.38L177.92 422.5L177.73 422.62L177.54 422.75L177.35 422.87L177.15 422.99L176.96 423.11L176.77 423.23L176.58 423.35L176.39 423.47L176.2 423.59L176.01 423.71L175.82 423.83L175.63 423.95L175.4 424.1L175.17 424.24L174.96 424.38L174.75 424.5L174.55 424.62L174.36 424.74L174.18 424.85L174.01 424.95L173.84 425.05L173.68 425.14L173.53 425.22L173.39 425.31L173.25 425.38L173.12 425.45L173 425.52L172.88 425.58L172.77 425.64L172.66 425.69L172.56 425.74L172.47 425.78L172.38 425.82L172.29 425.86L172.21 425.9L172.14 425.93L172.06 425.95L171.99 425.98L171.93 426L171.87 426.02L171.81 426.04L171.75 426.05L171.7 426.06L171.65 426.07L171.6 426.08L171.55 426.09L171.5 426.09L171.46 426.1L171.42 426.1L171.37 426.1L171.33 426.1L171.29 426.1L171.23 426.1L171.16 426.1L171.1 426.1L171.04 426.1L170.98 426.09L170.92 426.08L170.86 426.07L170.79 426.05L170.73 426.03L170.66 426.01L170.59 425.97L170.51 425.93L170.43 425.89L170.35 425.84L170.26 425.78L170.16 425.7L170.06 425.63L169.96 425.54L169.84 425.44L169.72 425.33L169.59 425.2L169.45 425.07L169.3 424.92L169.15 424.76L168.98 424.59L168.8 424.4L168.61 424.19L168.41 423.97L168.19 423.73L167.97 423.48L167.73 423.21L167.47 422.92L167.21 422.61L166.92 422.28L166.63 421.94L166.31 421.57L165.98 421.18L165.64 420.77L165.27 420.34L164.89 419.89L164.65 419.6L164.42 419.32L164.18 419.04L163.95 418.76L163.71 418.48L163.48 418.2L163.24 417.92L163 417.64L162.77 417.36L162.54 417.08L162.3 416.79L162.07 416.51L161.83 416.23L161.6 415.95L161.36 415.67L161.13 415.39L160.9 415.11L160.67 414.83L160.43 414.55L160.2 414.27L159.97 413.99L159.74 413.71L159.5 413.43L159.27 413.15L159.04 412.87L158.81 412.59L158.58 412.31L158.35 412.03L158.12 411.75L157.89 411.47L157.66 411.19L157.43 410.91L157.2 410.63L156.98 410.35L156.75 410.08L156.52 409.8L156.29 409.52L156.06 409.24L155.84 408.96L155.61 408.69L155.47 408.51L155.32 408.33L155.18 408.16L155.04 408L154.9 407.83L154.77 407.67L154.63 407.51L154.5 407.35L154.37 407.2L154.25 407.04L154.12 406.9L154 406.75L153.88 406.61L153.76 406.47L153.64 406.33L153.53 406.19L153.42 406.06L153.31 405.93L153.2 405.8L153.09 405.67L152.99 405.55L152.88 405.43L152.78 405.31L152.69 405.2L152.59 405.08L152.49 404.97L152.4 404.86L152.31 404.76L152.22 404.65L152.13 404.55L152.05 404.45L151.96 404.36L151.88 404.26L151.8 404.17L151.72 404.08L151.65 403.99L151.57 403.9L151.5 403.82L151.43 403.74L151.36 403.66L151.36 422.9L150.54 423.36L150.51 423.37L150.48 423.39L150.44 423.4L150.39 423.42L150.33 423.45L150.26 423.47L150.18 423.5L150.09 423.53L150 423.56L149.89 423.59L149.78 423.63L149.65 423.67L149.52 423.71L149.37 423.75L149.22 423.8L149.06 423.84L148.89 423.89L148.71 423.95L148.52 424L148.32 424.06L148.11 424.12L147.89 424.18L147.67 424.24L147.43 424.31L147.19 424.38L146.93 424.45L146.67 424.52L146.4 424.6L146.11 424.68L145.82 424.76L145.52 424.84L145.21 424.93L144.89 425.01L144.56 425.1L144.23 425.2L143.88 425.29L143.52 425.39L143.16 425.49L142.78 425.59L142.4 425.69L142.26 425.65L133.35 427.25L133.35 363.75L134.63 363.47L134.91 363.41L135.18 363.35L135.46 363.29L135.73 363.23L135.99 363.17L136.25 363.12L136.51 363.06L136.77 363L137.02 362.95L137.27 362.89L137.51 362.84L137.75 362.78L137.99 362.73L138.22 362.68L138.46 362.63L138.68 362.58L138.91 362.53L139.13 362.48L139.34 362.43L139.55 362.38L139.76 362.34L139.97 362.29L140.17 362.24L140.37 362.2L140.56 362.16L140.75 362.11L140.94 362.07L141.13 362.03L141.31 361.99L141.48 361.95L141.65 361.91L141.82 361.87L141.99 361.84L142.15 361.8L142.31 361.76L142.76 361.66L142.9 361.63L143.04 361.6L143.45 361.51L143.86 361.42L144.24 361.34L144.62 361.25L144.98 361.17L145.32 361.1L145.66 361.02L145.98 360.95L146.29 360.88L146.59 360.81L146.87 360.75L147.15 360.69L147.41 360.63L147.66 360.57L147.9 360.51L148.13 360.46L148.35 360.41L148.56 360.36L148.76 360.31L148.95 360.27L149.13 360.23L149.3 360.19L149.46 360.15L149.62 360.11L149.76 360.07L149.9 360.04L150.03 360.01L150.15 359.98L150.26 359.95L150.37 359.92L150.47 359.9L150.56 359.87L150.65 359.85L150.73 359.83L150.8 359.81L150.87 359.79L150.93 359.77L150.99 359.76L151.04 359.74L151.09 359.73L151.22 359.59L151.77 359.5L151.86 359.48L151.94 359.47L152.03 359.46L152.11 359.45L152.18 359.44L152.26 359.43L152.33 359.42L152.4 359.41L152.47 359.4L152.53 359.39L152.6 359.38L152.66 359.38L152.72 359.37L152.77 359.36L152.83 359.36L152.88 359.35L152.93 359.35L152.98 359.34L153.03 359.34L153.07 359.34L153.12 359.33L153.16 359.33L153.2 359.33L153.24 359.33L153.28 359.32L153.31 359.32L153.35 359.32L153.38 359.32L153.41 359.32L153.44 359.32L153.47 359.32L153.5 359.32L153.53 359.32L153.55 359.31L153.58 359.31L153.6 359.31L153.63 359.31L153.65 359.31L153.69 359.31L153.77 359.31L153.85 359.32ZM151.79 389.1L152.25 388.76L152.76 388.38L153.32 387.97L153.92 387.52L155.52 386.26L156.64 385.26L157.37 384.51L157.79 383.97L157.99 383.63L157.73 383.29L157.25 382.75L156.46 381.97L155.28 380.91L153.65 379.57L153.27 379.3L152.86 378.99L152.41 378.64L151.91 378.25L151.36 377.83L151.36 389.39L151.79 389.1Z" id="f7uM8GP0xm"></path><path d="M150.99 367.86L137.01 376.55L156.43 369.37L137.01 381.35L166.95 370.29L170.51 374.26L133.35 391.59L133.35 374.81L150.99 367.86Z" id="b1G0REA1MK"></path><path d="M143.18 406.58L164.48 399.22L156.85 405.94L172.66 400.82L168.5 395.43L143.18 406.58Z" id="gbK0MHG6p"></path><path d="M361.42 480.64L358.72 484.57L355.43 483.25L341.07 504.5L340.98 504.37L339.57 513.51L349.07 522.19L371.2 489.65L361.42 480.64Z" id="guwNksFJ5"></path><path d="M315.84 474.24L323.15 484.3L308.98 490.29C319.68 505.23 325.62 513.54 326.81 515.2C332.66 514.33 339.25 513.23 339.25 513.23C339.27 513.25 339.37 513.34 339.57 513.51L340.98 504.37L325.62 483.25L315.84 474.24Z" id="c1rnbTMQbc"></path><path d="M332.02 541.39L322.24 543.82L332.02 552.82L349.07 548.57L349.07 548.48L339.25 539.61L332.02 540.71L332.02 541.39Z" id="g1S0UVUUxl"></path><path d="M339.25 513.23C339.25 513.23 332.62 514.33 326.81 515.2C327.16 515.69 328.91 518.13 332.07 522.51L332.07 540.71L339.29 539.57L349.07 548.48L349.07 522.19L349.07 522.19C343.18 516.82 339.9 513.83 339.25 513.23Z" id="de93qoq3K"></path><path d="M315.79 474.29L299.15 481.33L322.24 513.51L322.24 543.82L339.25 539.61L339.25 513.23L361.42 480.64L345.6 474.29L331.29 495.54L315.79 474.29Z" id="bSKmWL0DZ"></path><path d="M329.55 522.19L338.56 520.27L322.24 532.85L322.24 535.95L339.57 524.75L339.25 516.25L329.55 522.19Z" id="d5mvlEHwC"></path><path d="M334.72 506.1L347.06 501.71L350.03 497.37L334.72 506.1Z" id="a16DH7GlbS"></path><path d="M321.78 486.58L314.15 492.85L353.14 477.3L356.75 478.77L316.89 498.97L345.1 488.14L316.16 505.1L308.02 493.67L321.78 486.58Z" id="c1l1tsUSzQ"></path><path d="M435.38 478.63L414.95 505.23L399.77 531.57L423.36 528L445.21 487.59L435.38 478.63Z" id="a1Q17eOSCC"></path><path d="M423.36 528L399.77 531.57L397.26 535.95L426.65 543.36L436.3 552.32L436.43 552.32L442.42 534.95L432.59 525.94L422.77 529.1L423.36 528Z" id="b1MUgtLOwG"></path><path d="M396.34 537.51L378.01 543.36L387.79 552.32L436.3 552.32L426.65 543.36L397.26 535.95L396.34 537.51Z" id="e2D7YjF0al"></path><path d="M396.98 487.59L395.7 491.61L381.44 496.27L391.27 505.23L414.95 505.23L435.38 478.63L407.91 487.59L396.98 487.59Z" id="cCLWUtQjX"></path><path d="M381.44 496.27L405.12 496.27L378.01 543.36L426.65 543.36L432.59 525.94L409.78 525.94L435.38 478.63L387.2 478.63L381.44 496.27Z" id="a3POuye9LU"></path><path d="M406.67 486.45L396.34 492.62L428.11 478.63L435.38 478.63L405.21 493.94L426.51 485.49L402.88 500.16L405.12 496.27L381.44 496.27L406.67 486.45Z" id="a1SoeYfMaX"></path><path d="M402.24 516.25L418.97 509.03L422.49 503.36L402.24 516.25Z" id="blfTdw4y0"></path><path d="M412.34 527.13L396.43 539.15L419.84 526.08L425.69 526.08L397.26 543.36L378.01 543.36L412.34 527.13Z" id="a6F0CMqAG"></path><path d="M394.24 421.17L387.75 417.51L387.02 420.02L394.24 422.81L394.24 421.17Z" id="b29nu5vAhh"></path><path d="M379.61 416.96C379.62 416.97 379.69 417.04 379.7 417.05C379.7 417.05 379.89 417.19 380.53 417.51C380.61 417.54 381.02 417.69 381.76 417.97L383.31 415.22L379.2 415.22L379.2 415.59L379.15 415.77C379.12 416.29 379.28 416.69 379.61 416.96Z" id="a3YMpyVah"></path><path d="M387.75 417.51L383.68 415.22L383.27 415.22L381.76 417.97L387.02 420.02L387.75 417.51Z" id="bcq99n7Zq"></path><path d="M369.37 361.33L369.37 372.48L360.09 374.54L360.09 415.22L379.2 415.22L379.2 370.33L369.37 361.33Z" id="bLr9x3YGi"></path><path d="M394.24 422.81L387.02 420.02L384.46 428.98L390.4 434.01L394.24 437.3L394.24 437.94L394.88 437.85L412.07 434.65L402.29 425.65L394.24 421.17L394.24 422.81Z" id="dlJMpYSI9"></path><path d="M381.71 417.97L375.77 428.48L385.92 437.21L375.77 428.48L381.71 417.97C380.97 417.69 380.56 417.54 380.48 417.51C379.84 417.23 379.66 417.05 379.66 417.05C379.65 417.04 379.57 416.97 379.57 416.96C379.06 416.5 379.02 416.18 379.11 415.77C379.11 415.76 379.13 415.7 379.15 415.59L379.15 415.22L360.09 415.22C360.09 417.47 360.09 418.72 360.09 418.97C360.09 419.98 360.18 420.89 360.32 421.81C359.82 421.55 357.32 420.29 352.82 418.01C359.13 423.88 362.64 427.14 363.34 427.79C364.07 428.57 365.17 429.21 366.67 429.85C367.93 430.36 374.23 432.91 385.55 437.49L390.35 434.06L384.41 428.98L387.02 420.02L381.71 417.97Z" id="ayTKA5HUJ"></path><path d="M402.29 372.3L394.24 373.85L394.24 421.17L402.29 425.65L412.07 434.65L412.07 370.33L402.29 361.37L402.29 372.3Z" id="eLtFXS8Sz"></path><path d="M384.46 413.85C376.23 410.67 371.66 408.9 370.74 408.55C370.1 408.27 369.92 408.09 369.92 408.09C369.91 408.08 369.84 408.01 369.83 408C369.33 407.54 369.28 407.22 369.37 406.81C369.37 406.8 369.39 406.74 369.42 406.63L369.42 361.37L350.35 365.62C350.35 392.28 350.35 407.09 350.35 410.06C350.35 413.81 351.45 416.78 353.6 418.83C354.33 419.61 355.43 420.25 356.94 420.89C358.2 421.4 364.49 423.95 375.82 428.53L384.46 422.31L384.46 429.03L402.29 425.74L402.29 361.37L384.46 364.89L384.46 413.85Z" id="b1nuAnJDak"></path><path d="M396.85 416.59L384.46 428.98L384.46 423.77L396.85 416.59Z" id="admqBt8ew"></path><path d="M365.9 371.43L355.25 381.07L380.21 368.59L357.35 385.37L369.65 380.16L369.37 383.31L350.31 393.97L350.31 381.07L365.9 371.43Z" id="iiIN3RGQf"></path><path d="M363.61 407.27L390.63 397.17L355.02 420.02L359.82 422.03L396.57 399.09L383.27 409.87L402.29 399.36L402.29 388.3L363.61 407.27Z" id="bmqCSnTUy"></path></defs><g><g><g><use xlink:href="#cs86Tkd6q" opacity="1" fill="#019db2" fill-opacity="1"></use><g><use xlink:href="#cs86Tkd6q" opacity="1" fill-opacity="0" stroke="#000000" stroke-width="1" stroke-opacity="0"></use></g></g><g><use xlink:href="#fhBWAIQnn" opacity="1" fill="#019db2" fill-opacity="1"></use><g><use xlink:href="#fhBWAIQnn" opacity="1" fill-opacity="0" stroke="#000000" stroke-width="1" stroke-opacity="0"></use></g></g><g><use xlink:href="#abUTaVxbd" opacity="1" fill="#019db2" fill-opacity="1"></use><g><use xlink:href="#abUTaVxbd" opacity="1" fill-opacity="0" stroke="#000000" stroke-width="1" stroke-opacity="0"></use></g></g><g><use xlink:href="#a2PORgMcz2" opacity="1" fill="#019db2" fill-opacity="1"></use><g><use xlink:href="#a2PORgMcz2" opacity="1" fill-opacity="0" stroke="#000000" stroke-width="1" stroke-opacity="0"></use></g></g><g><use xlink:href="#bqtq0SJj" opacity="1" fill="#019db2" fill-opacity="1"></use><g><use xlink:href="#bqtq0SJj" opacity="1" fill-opacity="0" stroke="#000000" stroke-width="1" stroke-opacity="0"></use></g></g><g><use xlink:href="#b4IkJfiued" opacity="1" fill="#019db2" fill-opacity="1"></use><g><use xlink:href="#b4IkJfiued" opacity="1" fill-opacity="0" stroke="#000000" stroke-width="1" stroke-opacity="0"></use></g></g><g><use xlink:href="#b10U9ibMRL" opacity="1" fill="#019db2" fill-opacity="1"></use><g><use xlink:href="#b10U9ibMRL" opacity="1" fill-opacity="0" stroke="#000000" stroke-width="1" stroke-opacity="0"></use></g></g><g><use xlink:href="#d19MxQhXIy" opacity="1" fill="#019db2" fill-opacity="1"></use><g><use xlink:href="#d19MxQhXIy" opacity="1" fill-opacity="0" stroke="#000000" stroke-width="1" stroke-opacity="0"></use></g></g><g><use xlink:href="#a6zdBToWJZ" opacity="1" fill="#019db2" fill-opacity="1"></use><g><use xlink:href="#a6zdBToWJZ" opacity="1" fill-opacity="0" stroke="#000000" stroke-width="1" stroke-opacity="0"></use></g></g><g><use xlink:href="#e1L4VLUqnD" opacity="1" fill="#019db2" fill-opacity="1"></use><g><use xlink:href="#e1L4VLUqnD" opacity="1" fill-opacity="0" stroke="#000000" stroke-width="1" stroke-opacity="0"></use></g></g><g><use xlink:href="#c65FNEcjxQ" opacity="1" fill="#019db2" fill-opacity="1"></use><g><use xlink:href="#c65FNEcjxQ" opacity="1" fill-opacity="0" stroke="#000000" stroke-width="1" stroke-opacity="0"></use></g></g><g><use xlink:href="#d2y6Kf6bsy" opacity="1" fill="#65cae5" fill-opacity="1"></use><g><use xlink:href="#d2y6Kf6bsy" opacity="1" fill-opacity="0" stroke="#000000" stroke-width="1" stroke-opacity="0"></use></g></g><g><use xlink:href="#b2skWWG7NN" opacity="1" fill="#8ed7f0" fill-opacity="1"></use><g><use xlink:href="#b2skWWG7NN" opacity="1" fill-opacity="0" stroke="#000000" stroke-width="1" stroke-opacity="0"></use></g></g><g><use xlink:href="#bgcHeLnNd" opacity="1" fill="#65cae5" fill-opacity="1"></use><g><use xlink:href="#bgcHeLnNd" opacity="1" fill-opacity="0" stroke="#000000" stroke-width="1" stroke-opacity="0"></use></g></g><g><use xlink:href="#b2Kgee8Zzy" opacity="1" fill="#65cae5" fill-opacity="1"></use><g><use xlink:href="#b2Kgee8Zzy" opacity="1" fill-opacity="0" stroke="#000000" stroke-width="1" stroke-opacity="0"></use></g></g><g><use xlink:href="#f7vnFMPFO6" opacity="1" fill="#000000" fill-opacity="0"></use><g><use xlink:href="#f7vnFMPFO6" opacity="1" fill-opacity="0" stroke="#000000" stroke-width="1" stroke-opacity="0"></use></g></g><g><use xlink:href="#aVQht5EBA" opacity="1" fill="#65cae5" fill-opacity="1"></use><g><use xlink:href="#aVQht5EBA" opacity="1" fill-opacity="0" stroke="#000000" stroke-width="1" stroke-opacity="0"></use></g></g><g><use xlink:href="#epFXTyBCb" opacity="1" fill="#d6f0fc" fill-opacity="1"></use><g><use xlink:href="#epFXTyBCb" opacity="1" fill-opacity="0" stroke="#000000" stroke-width="1" stroke-opacity="0"></use></g></g><g><use xlink:href="#d7ApDNa4B" opacity="1" fill="#bfe6f3" fill-opacity="1"></use><g><use xlink:href="#d7ApDNa4B" opacity="1" fill-opacity="0" stroke="#000000" stroke-width="1" stroke-opacity="0"></use></g></g><g><use xlink:href="#a2wBYvtbf" opacity="1" fill="#bfe6f3" fill-opacity="1"></use><g><use xlink:href="#a2wBYvtbf" opacity="1" fill-opacity="0" stroke="#000000" stroke-width="1" stroke-opacity="0"></use></g></g><g><use xlink:href="#cMJC8gxP5" opacity="1" fill="#8ed7f0" fill-opacity="1"></use><g><use xlink:href="#cMJC8gxP5" opacity="1" fill-opacity="0" stroke="#000000" stroke-width="1" stroke-opacity="0"></use></g></g><g><use xlink:href="#b4g02K94z" opacity="1" fill="#65cae5" fill-opacity="1"></use><g><use xlink:href="#b4g02K94z" opacity="1" fill-opacity="0" stroke="#000000" stroke-width="1" stroke-opacity="0"></use></g></g><g><use xlink:href="#a4jnbRyO5h" opacity="1" fill="#000000" fill-opacity="0"></use><g><use xlink:href="#a4jnbRyO5h" opacity="1" fill-opacity="0" stroke="#000000" stroke-width="1" stroke-opacity="0"></use></g></g><g><use xlink:href="#cIPQfyTA" opacity="1" fill="#000000" fill-opacity="0"></use><g><use xlink:href="#cIPQfyTA" opacity="1" fill-opacity="0" stroke="#000000" stroke-width="1" stroke-opacity="0"></use></g></g><g><use xlink:href="#bBzsY5j7v" opacity="1" fill="#65cae5" fill-opacity="1"></use><g><use xlink:href="#bBzsY5j7v" opacity="1" fill-opacity="0" stroke="#000000" stroke-width="1" stroke-opacity="0"></use></g></g><g><use xlink:href="#b9uUxyGdf" opacity="1" fill="#8ed7f0" fill-opacity="1"></use><g><use xlink:href="#b9uUxyGdf" opacity="1" fill-opacity="0" stroke="#000000" stroke-width="1" stroke-opacity="0"></use></g></g><g><use xlink:href="#cxWhovjZD" opacity="1" fill="#65cae5" fill-opacity="1"></use><g><use xlink:href="#cxWhovjZD" opacity="1" fill-opacity="0" stroke="#000000" stroke-width="1" stroke-opacity="0"></use></g></g><g><use xlink:href="#f4uf8c7bc2" opacity="1" fill="#65cae5" fill-opacity="1"></use><g><use xlink:href="#f4uf8c7bc2" opacity="1" fill-opacity="0" stroke="#000000" stroke-width="1" stroke-opacity="0"></use></g></g><g><use xlink:href="#a19GHrCCjc" opacity="1" fill="#d6f0fc" fill-opacity="1"></use><g><use xlink:href="#a19GHrCCjc" opacity="1" fill-opacity="0" stroke="#000000" stroke-width="1" stroke-opacity="0"></use></g></g><g><use xlink:href="#b1LfnEIYAw" opacity="1" fill="#bfe6f3" fill-opacity="1"></use><g><use xlink:href="#b1LfnEIYAw" opacity="1" fill-opacity="0" stroke="#000000" stroke-width="1" stroke-opacity="0"></use></g></g><g><use xlink:href="#f4jzAxMbt1" opacity="1" fill="#bfe6f3" fill-opacity="1"></use><g><use xlink:href="#f4jzAxMbt1" opacity="1" fill-opacity="0" stroke="#000000" stroke-width="1" stroke-opacity="0"></use></g></g><g><use xlink:href="#d6rttJgnq2" opacity="1" fill="#65cae5" fill-opacity="1"></use><g><use xlink:href="#d6rttJgnq2" opacity="1" fill-opacity="0" stroke="#000000" stroke-width="1" stroke-opacity="0"></use></g></g><g><use xlink:href="#dJu5SP7tD" opacity="1" fill="#8ed7f0" fill-opacity="1"></use><g><use xlink:href="#dJu5SP7tD" opacity="1" fill-opacity="0" stroke="#000000" stroke-width="1" stroke-opacity="0"></use></g></g><g><use xlink:href="#b8eVQjUrn" opacity="1" fill="#d6f0fc" fill-opacity="1"></use><g><use xlink:href="#b8eVQjUrn" opacity="1" fill-opacity="0" stroke="#000000" stroke-width="1" stroke-opacity="0"></use></g></g><g><use xlink:href="#bzX8qjGxK" opacity="1" fill="#bfe6f3" fill-opacity="1"></use><g><use xlink:href="#bzX8qjGxK" opacity="1" fill-opacity="0" stroke="#000000" stroke-width="1" stroke-opacity="0"></use></g></g><g><use xlink:href="#a5JMxhkf4v" opacity="1" fill="#bfe6f3" fill-opacity="1"></use><g><use xlink:href="#a5JMxhkf4v" opacity="1" fill-opacity="0" stroke="#000000" stroke-width="1" stroke-opacity="0"></use></g></g><g><use xlink:href="#a9gGixYlqo" opacity="1" fill="#65cae5" fill-opacity="1"></use><g><use xlink:href="#a9gGixYlqo" opacity="1" fill-opacity="0" stroke="#000000" stroke-width="1" stroke-opacity="0"></use></g></g><g><use xlink:href="#b2J4AXH39l" opacity="1" fill="#8ed7f0" fill-opacity="1"></use><g><use xlink:href="#b2J4AXH39l" opacity="1" fill-opacity="0" stroke="#000000" stroke-width="1" stroke-opacity="0"></use></g></g><g><use xlink:href="#f2BhfAHBFh" opacity="1" fill="#000000" fill-opacity="0"></use><g><use xlink:href="#f2BhfAHBFh" opacity="1" fill-opacity="0" stroke="#000000" stroke-width="1" stroke-opacity="0"></use></g></g><g><use xlink:href="#fv4b11VPF" opacity="1" fill="#65cae5" fill-opacity="1"></use><g><use xlink:href="#fv4b11VPF" opacity="1" fill-opacity="0" stroke="#000000" stroke-width="1" stroke-opacity="0"></use></g></g><g><use xlink:href="#c21KbnnxCo" opacity="1" fill="#65cae5" fill-opacity="1"></use><g><use xlink:href="#c21KbnnxCo" opacity="1" fill-opacity="0" stroke="#000000" stroke-width="1" stroke-opacity="0"></use></g></g><g><use xlink:href="#a1yUIZGiVU" opacity="1" fill="#8ed7f0" fill-opacity="1"></use><g><use xlink:href="#a1yUIZGiVU" opacity="1" fill-opacity="0" stroke="#000000" stroke-width="1" stroke-opacity="0"></use></g></g><g><use xlink:href="#c2DT2HYv7R" opacity="1" fill="#d6f0fc" fill-opacity="1"></use><g><use xlink:href="#c2DT2HYv7R" opacity="1" fill-opacity="0" stroke="#000000" stroke-width="1" stroke-opacity="0"></use></g></g><g><use xlink:href="#bu3Kwbi7U" opacity="1" fill="#bfe6f3" fill-opacity="1"></use><g><use xlink:href="#bu3Kwbi7U" opacity="1" fill-opacity="0" stroke="#000000" stroke-width="1" stroke-opacity="0"></use></g></g><g><use xlink:href="#aMxjkfbhi" opacity="1" fill="#bfe6f3" fill-opacity="1"></use><g><use xlink:href="#aMxjkfbhi" opacity="1" fill-opacity="0" stroke="#000000" stroke-width="1" stroke-opacity="0"></use></g></g><g><use xlink:href="#bb6u7r0fC" opacity="1" fill="#8ed7f0" fill-opacity="1"></use><g><use xlink:href="#bb6u7r0fC" opacity="1" fill-opacity="0" stroke="#000000" stroke-width="1" stroke-opacity="0"></use></g></g><g><use xlink:href="#a3e1B1c8op" opacity="1" fill="#65cae5" fill-opacity="1"></use><g><use xlink:href="#a3e1B1c8op" opacity="1" fill-opacity="0" stroke="#000000" stroke-width="1" stroke-opacity="0"></use></g></g><g><use xlink:href="#aJTBqowMd" opacity="1" fill="#65cae5" fill-opacity="1"></use><g><use xlink:href="#aJTBqowMd" opacity="1" fill-opacity="0" stroke="#000000" stroke-width="1" stroke-opacity="0"></use></g></g><g><use xlink:href="#byDcAYZ4R" opacity="1" fill="#8ed7f0" fill-opacity="1"></use><g><use xlink:href="#byDcAYZ4R" opacity="1" fill-opacity="0" stroke="#000000" stroke-width="1" stroke-opacity="0"></use></g></g><g><use xlink:href="#aaHo3PxJ" opacity="1" fill="#d6f0fc" fill-opacity="1"></use><g><use xlink:href="#aaHo3PxJ" opacity="1" fill-opacity="0" stroke="#000000" stroke-width="1" stroke-opacity="0"></use></g></g><g><use xlink:href="#bisQ7WNlq" opacity="1" fill="#bfe6f3" fill-opacity="1"></use><g><use xlink:href="#bisQ7WNlq" opacity="1" fill-opacity="0" stroke="#000000" stroke-width="1" stroke-opacity="0"></use></g></g><g><use xlink:href="#b9wQFGmKE" opacity="1" fill="#bfe6f3" fill-opacity="1"></use><g><use xlink:href="#b9wQFGmKE" opacity="1" fill-opacity="0" stroke="#000000" stroke-width="1" stroke-opacity="0"></use></g></g><g><use xlink:href="#b64QsYsGTt" opacity="1" fill="#000000" fill-opacity="0"></use><g><use xlink:href="#b64QsYsGTt" opacity="1" fill-opacity="0" stroke="#000000" stroke-width="1" stroke-opacity="0"></use></g></g><g><use xlink:href="#g2n1VOxzGK" opacity="1" fill="#65cae5" fill-opacity="1"></use><g><use xlink:href="#g2n1VOxzGK" opacity="1" fill-opacity="0" stroke="#000000" stroke-width="1" stroke-opacity="0"></use></g></g><g><use xlink:href="#a5fzpgBA" opacity="1" fill="#8ed7f0" fill-opacity="1"></use><g><use xlink:href="#a5fzpgBA" opacity="1" fill-opacity="0" stroke="#000000" stroke-width="1" stroke-opacity="0"></use></g></g><g><use xlink:href="#jhRyGm8zI" opacity="1" fill="#65cae5" fill-opacity="1"></use><g><use xlink:href="#jhRyGm8zI" opacity="1" fill-opacity="0" stroke="#000000" stroke-width="1" stroke-opacity="0"></use></g></g><g><use xlink:href="#bOdzLEhEQ" opacity="1" fill="#8ed7f0" fill-opacity="1"></use><g><use xlink:href="#bOdzLEhEQ" opacity="1" fill-opacity="0" stroke="#000000" stroke-width="1" stroke-opacity="0"></use></g></g><g><use xlink:href="#aInAWiS5" opacity="1" fill="#d6f0fc" fill-opacity="1"></use><g><use xlink:href="#aInAWiS5" opacity="1" fill-opacity="0" stroke="#000000" stroke-width="1" stroke-opacity="0"></use></g></g><g><use xlink:href="#c2MLonZ2Bg" opacity="1" fill="#bfe6f3" fill-opacity="1"></use><g><use xlink:href="#c2MLonZ2Bg" opacity="1" fill-opacity="0" stroke="#000000" stroke-width="1" stroke-opacity="0"></use></g></g><g><use xlink:href="#h4JATdwCuw" opacity="1" fill="#bfe6f3" fill-opacity="1"></use><g><use xlink:href="#h4JATdwCuw" opacity="1" fill-opacity="0" stroke="#000000" stroke-width="1" stroke-opacity="0"></use></g></g><g><use xlink:href="#b2b9bP3y5e" opacity="1" fill="#8ed7f0" fill-opacity="1"></use><g><use xlink:href="#b2b9bP3y5e" opacity="1" fill-opacity="0" stroke="#000000" stroke-width="1" stroke-opacity="0"></use></g></g><g><use xlink:href="#ajggJrhEV" opacity="1" fill="#65cae5" fill-opacity="1"></use><g><use xlink:href="#ajggJrhEV" opacity="1" fill-opacity="0" stroke="#000000" stroke-width="1" stroke-opacity="0"></use></g></g><g><use xlink:href="#aNp1YNnf7" opacity="1" fill="#8ed7f0" fill-opacity="1"></use><g><use xlink:href="#aNp1YNnf7" opacity="1" fill-opacity="0" stroke="#000000" stroke-width="1" stroke-opacity="0"></use></g></g><g><use xlink:href="#eGmkNUgwG" opacity="1" fill="#65cae5" fill-opacity="1"></use><g><use xlink:href="#eGmkNUgwG" opacity="1" fill-opacity="0" stroke="#000000" stroke-width="1" stroke-opacity="0"></use></g></g><g><use xlink:href="#g26NLneGjl" opacity="1" fill="#d6f0fc" fill-opacity="1"></use><g><use xlink:href="#g26NLneGjl" opacity="1" fill-opacity="0" stroke="#000000" stroke-width="1" stroke-opacity="0"></use></g></g><g><use xlink:href="#a36vnzFatn" opacity="1" fill="#bfe6f3" fill-opacity="1"></use><g><use xlink:href="#a36vnzFatn" opacity="1" fill-opacity="0" stroke="#000000" stroke-width="1" stroke-opacity="0"></use></g></g><g><use xlink:href="#b1e8B9RjyM" opacity="1" fill="#bfe6f3" fill-opacity="1"></use><g><use xlink:href="#b1e8B9RjyM" opacity="1" fill-opacity="0" stroke="#000000" stroke-width="1" stroke-opacity="0"></use></g></g><g><use xlink:href="#a4JV4gk4D" opacity="1" fill="#bfe6f3" fill-opacity="1"></use><g><use xlink:href="#a4JV4gk4D" opacity="1" fill-opacity="0" stroke="#000000" stroke-width="1" stroke-opacity="0"></use></g></g><g><use xlink:href="#hos7XOphQ" opacity="1" fill="#8ed7f0" fill-opacity="1"></use><g><use xlink:href="#hos7XOphQ" opacity="1" fill-opacity="0" stroke="#000000" stroke-width="1" stroke-opacity="0"></use></g></g><g><use xlink:href="#clx2jwZE" opacity="1" fill="#65cae5" fill-opacity="1"></use><g><use xlink:href="#clx2jwZE" opacity="1" fill-opacity="0" stroke="#000000" stroke-width="1" stroke-opacity="0"></use></g></g><g><use xlink:href="#a5yC0rbUtb" opacity="1" fill="#8ed7f0" fill-opacity="1"></use><g><use xlink:href="#a5yC0rbUtb" opacity="1" fill-opacity="0" stroke="#000000" stroke-width="1" stroke-opacity="0"></use></g></g><g><use xlink:href="#j1BwNbTYGd" opacity="1" fill="#000000" fill-opacity="0"></use><g><use xlink:href="#j1BwNbTYGd" opacity="1" fill-opacity="0" stroke="#000000" stroke-width="1" stroke-opacity="0"></use></g></g><g><use xlink:href="#a2qeXfgPh" opacity="1" fill="#65cae5" fill-opacity="1"></use><g><use xlink:href="#a2qeXfgPh" opacity="1" fill-opacity="0" stroke="#000000" stroke-width="1" stroke-opacity="0"></use></g></g><g><use xlink:href="#d4PHqJu18j" opacity="1" fill="#65cae5" fill-opacity="1"></use><g><use xlink:href="#d4PHqJu18j" opacity="1" fill-opacity="0" stroke="#000000" stroke-width="1" stroke-opacity="0"></use></g></g><g><use xlink:href="#a7VrlgFbFR" opacity="1" fill="#65cae5" fill-opacity="1"></use><g><use xlink:href="#a7VrlgFbFR" opacity="1" fill-opacity="0" stroke="#000000" stroke-width="1" stroke-opacity="0"></use></g></g><g><use xlink:href="#f7uM8GP0xm" opacity="1" fill="#d6f0fc" fill-opacity="1"></use><g><use xlink:href="#f7uM8GP0xm" opacity="1" fill-opacity="0" stroke="#000000" stroke-width="1" stroke-opacity="0"></use></g></g><g><use xlink:href="#b1G0REA1MK" opacity="1" fill="#bfe6f3" fill-opacity="1"></use><g><use xlink:href="#b1G0REA1MK" opacity="1" fill-opacity="0" stroke="#000000" stroke-width="1" stroke-opacity="0"></use></g></g><g><use xlink:href="#gbK0MHG6p" opacity="1" fill="#bfe6f3" fill-opacity="1"></use><g><use xlink:href="#gbK0MHG6p" opacity="1" fill-opacity="0" stroke="#000000" stroke-width="1" stroke-opacity="0"></use></g></g><g><use xlink:href="#guwNksFJ5" opacity="1" fill="#65cae5" fill-opacity="1"></use><g><use xlink:href="#guwNksFJ5" opacity="1" fill-opacity="0" stroke="#000000" stroke-width="1" stroke-opacity="0"></use></g></g><g><use xlink:href="#c1rnbTMQbc" opacity="1" fill="#8ed7f0" fill-opacity="1"></use><g><use xlink:href="#c1rnbTMQbc" opacity="1" fill-opacity="0" stroke="#000000" stroke-width="1" stroke-opacity="0"></use></g></g><g><use xlink:href="#g1S0UVUUxl" opacity="1" fill="#65cae5" fill-opacity="1"></use><g><use xlink:href="#g1S0UVUUxl" opacity="1" fill-opacity="0" stroke="#000000" stroke-width="1" stroke-opacity="0"></use></g></g><g><use xlink:href="#de93qoq3K" opacity="1" fill="#8ed7f0" fill-opacity="1"></use><g><use xlink:href="#de93qoq3K" opacity="1" fill-opacity="0" stroke="#000000" stroke-width="1" stroke-opacity="0"></use></g></g><g><use xlink:href="#bSKmWL0DZ" opacity="1" fill="#d6f0fc" fill-opacity="1"></use><g><use xlink:href="#bSKmWL0DZ" opacity="1" fill-opacity="0" stroke="#000000" stroke-width="1" stroke-opacity="0"></use></g></g><g><use xlink:href="#d5mvlEHwC" opacity="1" fill="#bfe6f3" fill-opacity="1"></use><g><use xlink:href="#d5mvlEHwC" opacity="1" fill-opacity="0" stroke="#000000" stroke-width="1" stroke-opacity="0"></use></g></g><g><use xlink:href="#a16DH7GlbS" opacity="1" fill="#bfe6f3" fill-opacity="1"></use><g><use xlink:href="#a16DH7GlbS" opacity="1" fill-opacity="0" stroke="#000000" stroke-width="1" stroke-opacity="0"></use></g></g><g><use xlink:href="#c1l1tsUSzQ" opacity="1" fill="#bfe6f3" fill-opacity="1"></use><g><use xlink:href="#c1l1tsUSzQ" opacity="1" fill-opacity="0" stroke="#000000" stroke-width="1" stroke-opacity="0"></use></g></g><g><use xlink:href="#a1Q17eOSCC" opacity="1" fill="#65cae5" fill-opacity="1"></use><g><use xlink:href="#a1Q17eOSCC" opacity="1" fill-opacity="0" stroke="#000000" stroke-width="1" stroke-opacity="0"></use></g></g><g><use xlink:href="#b1MUgtLOwG" opacity="1" fill="#8ed7f0" fill-opacity="1"></use><g><use xlink:href="#b1MUgtLOwG" opacity="1" fill-opacity="0" stroke="#000000" stroke-width="1" stroke-opacity="0"></use></g></g><g><use xlink:href="#e2D7YjF0al" opacity="1" fill="#65cae5" fill-opacity="1"></use><g><use xlink:href="#e2D7YjF0al" opacity="1" fill-opacity="0" stroke="#000000" stroke-width="1" stroke-opacity="0"></use></g></g><g><use xlink:href="#cCLWUtQjX" opacity="1" fill="#65cae5" fill-opacity="1"></use><g><use xlink:href="#cCLWUtQjX" opacity="1" fill-opacity="0" stroke="#000000" stroke-width="1" stroke-opacity="0"></use></g></g><g><use xlink:href="#a3POuye9LU" opacity="1" fill="#d6f0fc" fill-opacity="1"></use><g><use xlink:href="#a3POuye9LU" opacity="1" fill-opacity="0" stroke="#000000" stroke-width="1" stroke-opacity="0"></use></g></g><g><use xlink:href="#a1SoeYfMaX" opacity="1" fill="#bfe6f3" fill-opacity="1"></use><g><use xlink:href="#a1SoeYfMaX" opacity="1" fill-opacity="0" stroke="#000000" stroke-width="1" stroke-opacity="0"></use></g></g><g><use xlink:href="#blfTdw4y0" opacity="1" fill="#bfe6f3" fill-opacity="1"></use><g><use xlink:href="#blfTdw4y0" opacity="1" fill-opacity="0" stroke="#000000" stroke-width="1" stroke-opacity="0"></use></g></g><g><use xlink:href="#a6F0CMqAG" opacity="1" fill="#bfe6f3" fill-opacity="1"></use><g><use xlink:href="#a6F0CMqAG" opacity="1" fill-opacity="0" stroke="#000000" stroke-width="1" stroke-opacity="0"></use></g></g><g><use xlink:href="#b29nu5vAhh" opacity="1" fill="#000000" fill-opacity="0"></use><g><use xlink:href="#b29nu5vAhh" opacity="1" fill-opacity="0" stroke="#000000" stroke-width="1" stroke-opacity="0"></use></g></g><g><use xlink:href="#a3YMpyVah" opacity="1" fill="#000000" fill-opacity="0"></use><g><use xlink:href="#a3YMpyVah" opacity="1" fill-opacity="0" stroke="#000000" stroke-width="1" stroke-opacity="0"></use></g></g><g><use xlink:href="#bcq99n7Zq" opacity="1" fill="#000000" fill-opacity="0"></use><g><use xlink:href="#bcq99n7Zq" opacity="1" fill-opacity="0" stroke="#000000" stroke-width="1" stroke-opacity="0"></use></g></g><g><use xlink:href="#bLr9x3YGi" opacity="1" fill="#8ed7f0" fill-opacity="1"></use><g><use xlink:href="#bLr9x3YGi" opacity="1" fill-opacity="0" stroke="#000000" stroke-width="1" stroke-opacity="0"></use></g></g><g><use xlink:href="#dlJMpYSI9" opacity="1" fill="#65cae5" fill-opacity="1"></use><g><use xlink:href="#dlJMpYSI9" opacity="1" fill-opacity="0" stroke="#000000" stroke-width="1" stroke-opacity="0"></use></g></g><g><use xlink:href="#ayTKA5HUJ" opacity="1" fill="#65cae5" fill-opacity="1"></use><g><use xlink:href="#ayTKA5HUJ" opacity="1" fill-opacity="0" stroke="#000000" stroke-width="1" stroke-opacity="0"></use></g></g><g><use xlink:href="#eLtFXS8Sz" opacity="1" fill="#8ed7f0" fill-opacity="1"></use><g><use xlink:href="#eLtFXS8Sz" opacity="1" fill-opacity="0" stroke="#000000" stroke-width="1" stroke-opacity="0"></use></g></g><g><use xlink:href="#b1nuAnJDak" opacity="1" fill="#d6f0fc" fill-opacity="1"></use><g><use xlink:href="#b1nuAnJDak" opacity="1" fill-opacity="0" stroke="#000000" stroke-width="1" stroke-opacity="0"></use></g></g><g><use xlink:href="#admqBt8ew" opacity="1" fill="#bfe6f3" fill-opacity="1"></use><g><use xlink:href="#admqBt8ew" opacity="1" fill-opacity="0" stroke="#000000" stroke-width="1" stroke-opacity="0"></use></g></g><g><use xlink:href="#iiIN3RGQf" opacity="1" fill="#bfe6f3" fill-opacity="1"></use><g><use xlink:href="#iiIN3RGQf" opacity="1" fill-opacity="0" stroke="#000000" stroke-width="1" stroke-opacity="0"></use></g></g><g><use xlink:href="#bmqCSnTUy" opacity="1" fill="#bfe6f3" fill-opacity="1"></use><g><use xlink:href="#bmqCSnTUy" opacity="1" fill-opacity="0" stroke="#000000" stroke-width="1" stroke-opacity="0"></use></g></g></g></g></svg>