<?xml version="1.0" encoding="UTF-8" standalone="no"?>
<!DOCTYPE svg PUBLIC "-//W3C//DTD SVG 1.1//EN" "http://www.w3.org/Graphics/SVG/1.1/DTD/svg11.dtd">
<svg version="1.1" xmlns="http://www.w3.org/2000/svg" xmlns:xlink="http://www.w3.org/1999/xlink" preserveAspectRatio="xMidYMid meet" viewBox="0 0 120 120" width="120" height="120"><defs><path d="M58.72 39.91L70.33 35.29L75.91 27.02L83.45 30.08L87.06 31.54L91.73 33.42L101.46 42.42L79.34 74.97L79.34 101.39L62.33 105.6L52.55 96.59L52.55 66.29L29.46 34.06L46.1 27.02L55.89 36.02L58.72 39.91ZM62.97 45.71L63.47 45.53L65.53 42.47L61.92 44.3L62.97 45.71Z" id="a2SFImH5e5"></path><path d="M446.31 491.25L446.31 491.25L439.04 491.25L439.04 491.25L398.13 491.25L392.37 508.89L392.37 508.89L392.37 508.89L392.37 508.89L392.37 508.89L402.19 517.9L410.88 517.9L388.94 555.98L388.94 555.98L388.94 555.98L388.94 555.98L388.94 555.98L398.72 564.94L447.22 564.94L447.36 564.94L453.35 547.57L443.52 538.61L443.52 538.61L435.38 538.61L456.14 500.25L446.31 491.25Z" id="e1L4VLUqnD"></path><path d="M80.8 20.8L78.1 24.73L74.81 23.41L60.46 44.66L60.37 44.53L58.95 53.67L68.46 62.35L90.58 29.81L80.8 20.8Z" id="d8G2uGlwF"></path><path d="M35.22 14.4L42.54 24.46L28.37 30.45C39.06 45.39 45.01 53.7 46.19 55.36C52.05 54.49 58.63 53.39 58.63 53.39C58.65 53.41 58.76 53.5 58.95 53.67L60.37 44.53L45.01 23.41L35.22 14.4Z" id="bi6vGzn26"></path><path d="M51.41 81.55L41.62 83.98L51.41 92.98L68.46 88.73L68.46 88.64L58.63 79.77L51.41 80.87L51.41 81.55Z" id="a1DpHTxdJ5"></path><path d="M58.63 53.39C58.63 53.39 52 54.49 46.19 55.36C46.54 55.85 48.3 58.29 51.45 62.67L51.45 80.87L58.67 79.73L68.46 88.64L68.46 62.35L68.46 62.35C62.56 56.98 59.28 53.99 58.63 53.39Z" id="ajQ60JfoZ"></path><path d="M35.18 14.45L18.54 21.49L41.62 53.67L41.62 83.98L58.63 79.77L58.63 53.39L80.8 20.8L64.98 14.45L50.67 35.7L35.18 14.45Z" id="dDxhaX9Dr"></path><path d="M48.94 62.35L57.94 60.43L41.62 73.01L41.62 76.11L58.95 64.91L58.63 56.41L48.94 62.35Z" id="a5BESqioB1"></path><path d="M54.1 46.26L66.45 41.87L69.42 37.53L54.1 46.26Z" id="f2Dia6416P"></path><path d="M41.17 26.74L33.53 33.01L72.53 17.46L76.14 18.93L36.27 39.13L64.48 28.3L35.54 45.26L27.41 33.83L41.17 26.74Z" id="a4sMs3kQL"></path><path d="M435.38 478.63L414.95 505.23L399.77 531.57L423.36 528L445.21 487.59L435.38 478.63Z" id="a1Q17eOSCC"></path><path d="M423.36 528L399.77 531.57L397.26 535.95L426.65 543.36L436.3 552.32L436.43 552.32L442.42 534.95L432.59 525.94L422.77 529.1L423.36 528Z" id="b1MUgtLOwG"></path><path d="M396.34 537.51L378.01 543.36L387.79 552.32L436.3 552.32L426.65 543.36L397.26 535.95L396.34 537.51Z" id="e2D7YjF0al"></path><path d="M396.98 487.59L395.7 491.61L381.44 496.27L391.27 505.23L414.95 505.23L435.38 478.63L407.91 487.59L396.98 487.59Z" id="cCLWUtQjX"></path><path d="M381.44 496.27L405.12 496.27L378.01 543.36L426.65 543.36L432.59 525.94L409.78 525.94L435.38 478.63L387.2 478.63L381.44 496.27Z" id="a3POuye9LU"></path><path d="M406.67 486.45L396.34 492.62L428.11 478.63L435.38 478.63L405.21 493.94L426.51 485.49L402.88 500.16L405.12 496.27L381.44 496.27L406.67 486.45Z" id="a1SoeYfMaX"></path><path d="M402.24 516.25L418.97 509.03L422.49 503.36L402.24 516.25Z" id="blfTdw4y0"></path><path d="M412.34 527.13L396.43 539.15L419.84 526.08L425.69 526.08L397.26 543.36L378.01 543.36L412.34 527.13Z" id="a6F0CMqAG"></path></defs><g><g><g><use xlink:href="#a2SFImH5e5" opacity="1" fill="#019db2" fill-opacity="1"></use><g><use xlink:href="#a2SFImH5e5" opacity="1" fill-opacity="0" stroke="#000000" stroke-width="1" stroke-opacity="0"></use></g></g><g><use xlink:href="#e1L4VLUqnD" opacity="1" fill="#019db2" fill-opacity="1"></use><g><use xlink:href="#e1L4VLUqnD" opacity="1" fill-opacity="0" stroke="#000000" stroke-width="1" stroke-opacity="0"></use></g></g><g><use xlink:href="#d8G2uGlwF" opacity="1" fill="#65cae5" fill-opacity="1"></use><g><use xlink:href="#d8G2uGlwF" opacity="1" fill-opacity="0" stroke="#000000" stroke-width="1" stroke-opacity="0"></use></g></g><g><use xlink:href="#bi6vGzn26" opacity="1" fill="#8ed7f0" fill-opacity="1"></use><g><use xlink:href="#bi6vGzn26" opacity="1" fill-opacity="0" stroke="#000000" stroke-width="1" stroke-opacity="0"></use></g></g><g><use xlink:href="#a1DpHTxdJ5" opacity="1" fill="#65cae5" fill-opacity="1"></use><g><use xlink:href="#a1DpHTxdJ5" opacity="1" fill-opacity="0" stroke="#000000" stroke-width="1" stroke-opacity="0"></use></g></g><g><use xlink:href="#ajQ60JfoZ" opacity="1" fill="#8ed7f0" fill-opacity="1"></use><g><use xlink:href="#ajQ60JfoZ" opacity="1" fill-opacity="0" stroke="#000000" stroke-width="1" stroke-opacity="0"></use></g></g><g><use xlink:href="#dDxhaX9Dr" opacity="1" fill="#d6f0fc" fill-opacity="1"></use><g><use xlink:href="#dDxhaX9Dr" opacity="1" fill-opacity="0" stroke="#000000" stroke-width="1" stroke-opacity="0"></use></g></g><g><use xlink:href="#a5BESqioB1" opacity="1" fill="#bfe6f3" fill-opacity="1"></use><g><use xlink:href="#a5BESqioB1" opacity="1" fill-opacity="0" stroke="#000000" stroke-width="1" stroke-opacity="0"></use></g></g><g><use xlink:href="#f2Dia6416P" opacity="1" fill="#bfe6f3" fill-opacity="1"></use><g><use xlink:href="#f2Dia6416P" opacity="1" fill-opacity="0" stroke="#000000" stroke-width="1" stroke-opacity="0"></use></g></g><g><use xlink:href="#a4sMs3kQL" opacity="1" fill="#bfe6f3" fill-opacity="1"></use><g><use xlink:href="#a4sMs3kQL" opacity="1" fill-opacity="0" stroke="#000000" stroke-width="1" stroke-opacity="0"></use></g></g><g><use xlink:href="#a1Q17eOSCC" opacity="1" fill="#65cae5" fill-opacity="1"></use><g><use xlink:href="#a1Q17eOSCC" opacity="1" fill-opacity="0" stroke="#000000" stroke-width="1" stroke-opacity="0"></use></g></g><g><use xlink:href="#b1MUgtLOwG" opacity="1" fill="#8ed7f0" fill-opacity="1"></use><g><use xlink:href="#b1MUgtLOwG" opacity="1" fill-opacity="0" stroke="#000000" stroke-width="1" stroke-opacity="0"></use></g></g><g><use xlink:href="#e2D7YjF0al" opacity="1" fill="#65cae5" fill-opacity="1"></use><g><use xlink:href="#e2D7YjF0al" opacity="1" fill-opacity="0" stroke="#000000" stroke-width="1" stroke-opacity="0"></use></g></g><g><use xlink:href="#cCLWUtQjX" opacity="1" fill="#65cae5" fill-opacity="1"></use><g><use xlink:href="#cCLWUtQjX" opacity="1" fill-opacity="0" stroke="#000000" stroke-width="1" stroke-opacity="0"></use></g></g><g><use xlink:href="#a3POuye9LU" opacity="1" fill="#d6f0fc" fill-opacity="1"></use><g><use xlink:href="#a3POuye9LU" opacity="1" fill-opacity="0" stroke="#000000" stroke-width="1" stroke-opacity="0"></use></g></g><g><use xlink:href="#a1SoeYfMaX" opacity="1" fill="#bfe6f3" fill-opacity="1"></use><g><use xlink:href="#a1SoeYfMaX" opacity="1" fill-opacity="0" stroke="#000000" stroke-width="1" stroke-opacity="0"></use></g></g><g><use xlink:href="#blfTdw4y0" opacity="1" fill="#bfe6f3" fill-opacity="1"></use><g><use xlink:href="#blfTdw4y0" opacity="1" fill-opacity="0" stroke="#000000" stroke-width="1" stroke-opacity="0"></use></g></g><g><use xlink:href="#a6F0CMqAG" opacity="1" fill="#bfe6f3" fill-opacity="1"></use><g><use xlink:href="#a6F0CMqAG" opacity="1" fill-opacity="0" stroke="#000000" stroke-width="1" stroke-opacity="0"></use></g></g></g></g></svg>