<?xml version="1.0" encoding="UTF-8" standalone="no"?>
<!DOCTYPE svg PUBLIC "-//W3C//DTD SVG 1.1//EN" "http://www.w3.org/Graphics/SVG/1.1/DTD/svg11.dtd">
<svg version="1.1" xmlns="http://www.w3.org/2000/svg" xmlns:xlink="http://www.w3.org/1999/xlink" preserveAspectRatio="xMidYMid meet" viewBox="0 0 120 120" width="120" height="120"><defs><path d="M90.15 34.35L90.15 34.35L85.85 32.11L85.85 32.11L81.23 29.69L81.23 29.69L75.75 26.81L69.35 36.78L64.5 39.7L61.99 35.82L52.16 26.81L52.16 26.81L52.16 26.81L37.76 34.26L54.4 59.95L34.51 90.72L34.51 90.72L34.51 90.72L34.51 90.72L34.51 90.72L44.3 99.73L59.34 105.81L71.82 86.74L78.35 96.85L78.35 96.85L88.18 105.81L103.18 99.68L83.38 68.91L99.98 43.36L90.15 34.35Z" id="b1uXlkh4zH"></path><path d="M339.34 499.75L350.95 495.13L356.53 486.86L364.07 489.92L367.68 491.38L372.34 493.26L382.08 502.26L359.95 534.81L359.95 561.23L342.95 565.44L333.17 556.43L333.17 526.13L310.08 493.9L326.72 486.86L336.5 495.86L339.34 499.75ZM343.59 505.55L344.09 505.37L346.15 502.31L342.54 504.14L343.59 505.55Z" id="a6zdBToWJZ"></path><path d="M446.31 491.25L446.31 491.25L439.04 491.25L439.04 491.25L398.13 491.25L392.37 508.89L392.37 508.89L392.37 508.89L392.37 508.89L392.37 508.89L402.19 517.9L410.88 517.9L388.94 555.98L388.94 555.98L388.94 555.98L388.94 555.98L388.94 555.98L398.72 564.94L447.22 564.94L447.36 564.94L453.35 547.57L443.52 538.61L443.52 538.61L435.38 538.61L456.14 500.25L446.31 491.25Z" id="e1L4VLUqnD"></path><path d="M41.23 14.19L43.43 27.13L36.62 30.61L46.54 45.92L46.86 47.93L59.38 47.43L61.53 39.38L51.06 23.2L41.23 14.19Z" id="d84OfZJzD"></path><path d="M76.89 24.39L74.61 23.15L65.69 37.05L62.45 40.75L61.53 39.38L59.38 47.43L62.67 47.34L72.46 56.3L89.05 30.74L79.22 21.74L76.89 24.39Z" id="h3y2RNloW3"></path><path d="M49.87 54.93L53.3 56.3L50.01 51.22L49.87 54.93Z" id="ahMLm8Qfo"></path><path d="M49.87 54.93L49.6 62.06L53.3 56.3L49.87 54.93Z" id="h6mGvQd7Mf"></path><path d="M65.97 78.24L67.43 84.18L77.26 93.19L92.3 87.06L82.47 78.1L65.97 78.24Z" id="a4taPr1D4D"></path><path d="M72.46 56.3L62.67 47.34L46.86 47.93L47.09 49.07L44.21 52.59L49.87 54.93L50.01 51.22L53.3 56.3L62.35 71.89L62.86 71.06L65.01 74.35L65.97 78.24L82.47 78.1L92.3 87.06L72.46 56.3Z" id="d3HPEpe1r"></path><path d="M23.59 78.1L33.37 87.11L48.41 93.19L38.63 84.18L23.82 77.83L23.59 78.1Z" id="i4g0nIJaJ"></path><path d="M49.87 54.93L44.21 52.59L23.82 77.83L38.63 84.18L48.41 93.19L62.35 71.89L53.3 56.3L49.6 62.06L49.87 54.93Z" id="a92zsNrjd1"></path><path d="M64.82 14.19L53.07 32.48L41.23 14.19L26.83 21.65L43.47 47.34L23.59 78.1L38.63 84.18L53.07 62.1L67.43 84.18L82.47 78.1L62.67 47.34L79.22 21.74L64.82 14.19Z" id="b2Q6nKUhnF"></path><path d="M47.04 28.78L38.95 35.77L70.31 17.07L74.93 19.5L48.41 36.37L64.14 29.6L41.55 44.32L36.02 35.77L47.04 28.78Z" id="heqkZi7Qb"></path><path d="M53.03 58.4L65.33 54.33L38.08 74.49L69.35 57.71L64.55 50.22L53.03 58.4Z" id="a44DwaVBQ4"></path><path d="M361.42 480.64L358.72 484.57L355.43 483.25L341.07 504.5L340.98 504.37L339.57 513.51L349.07 522.19L371.2 489.65L361.42 480.64Z" id="guwNksFJ5"></path><path d="M315.84 474.24L323.15 484.3L308.98 490.29C319.68 505.23 325.62 513.54 326.81 515.2C332.66 514.33 339.25 513.23 339.25 513.23C339.27 513.25 339.37 513.34 339.57 513.51L340.98 504.37L325.62 483.25L315.84 474.24Z" id="c1rnbTMQbc"></path><path d="M332.02 541.39L322.24 543.82L332.02 552.82L349.07 548.57L349.07 548.48L339.25 539.61L332.02 540.71L332.02 541.39Z" id="g1S0UVUUxl"></path><path d="M339.25 513.23C339.25 513.23 332.62 514.33 326.81 515.2C327.16 515.69 328.91 518.13 332.07 522.51L332.07 540.71L339.29 539.57L349.07 548.48L349.07 522.19L349.07 522.19C343.18 516.82 339.9 513.83 339.25 513.23Z" id="de93qoq3K"></path><path d="M315.79 474.29L299.15 481.33L322.24 513.51L322.24 543.82L339.25 539.61L339.25 513.23L361.42 480.64L345.6 474.29L331.29 495.54L315.79 474.29Z" id="bSKmWL0DZ"></path><path d="M329.55 522.19L338.56 520.27L322.24 532.85L322.24 535.95L339.57 524.75L339.25 516.25L329.55 522.19Z" id="d5mvlEHwC"></path><path d="M334.72 506.1L347.06 501.71L350.03 497.37L334.72 506.1Z" id="a16DH7GlbS"></path><path d="M321.78 486.58L314.15 492.85L353.14 477.3L356.75 478.77L316.89 498.97L345.1 488.14L316.16 505.1L308.02 493.67L321.78 486.58Z" id="c1l1tsUSzQ"></path><path d="M435.38 478.63L414.95 505.23L399.77 531.57L423.36 528L445.21 487.59L435.38 478.63Z" id="a1Q17eOSCC"></path><path d="M423.36 528L399.77 531.57L397.26 535.95L426.65 543.36L436.3 552.32L436.43 552.32L442.42 534.95L432.59 525.94L422.77 529.1L423.36 528Z" id="b1MUgtLOwG"></path><path d="M396.34 537.51L378.01 543.36L387.79 552.32L436.3 552.32L426.65 543.36L397.26 535.95L396.34 537.51Z" id="e2D7YjF0al"></path><path d="M396.98 487.59L395.7 491.61L381.44 496.27L391.27 505.23L414.95 505.23L435.38 478.63L407.91 487.59L396.98 487.59Z" id="cCLWUtQjX"></path><path d="M381.44 496.27L405.12 496.27L378.01 543.36L426.65 543.36L432.59 525.94L409.78 525.94L435.38 478.63L387.2 478.63L381.44 496.27Z" id="a3POuye9LU"></path><path d="M406.67 486.45L396.34 492.62L428.11 478.63L435.38 478.63L405.21 493.94L426.51 485.49L402.88 500.16L405.12 496.27L381.44 496.27L406.67 486.45Z" id="a1SoeYfMaX"></path><path d="M402.24 516.25L418.97 509.03L422.49 503.36L402.24 516.25Z" id="blfTdw4y0"></path><path d="M412.34 527.13L396.43 539.15L419.84 526.08L425.69 526.08L397.26 543.36L378.01 543.36L412.34 527.13Z" id="a6F0CMqAG"></path></defs><g><g><g><use xlink:href="#b1uXlkh4zH" opacity="1" fill="#019db2" fill-opacity="1"></use><g><use xlink:href="#b1uXlkh4zH" opacity="1" fill-opacity="0" stroke="#000000" stroke-width="1" stroke-opacity="0"></use></g></g><g><use xlink:href="#a6zdBToWJZ" opacity="1" fill="#019db2" fill-opacity="1"></use><g><use xlink:href="#a6zdBToWJZ" opacity="1" fill-opacity="0" stroke="#000000" stroke-width="1" stroke-opacity="0"></use></g></g><g><use xlink:href="#e1L4VLUqnD" opacity="1" fill="#019db2" fill-opacity="1"></use><g><use xlink:href="#e1L4VLUqnD" opacity="1" fill-opacity="0" stroke="#000000" stroke-width="1" stroke-opacity="0"></use></g></g><g><use xlink:href="#d84OfZJzD" opacity="1" fill="#8ed7f0" fill-opacity="1"></use><g><use xlink:href="#d84OfZJzD" opacity="1" fill-opacity="0" stroke="#000000" stroke-width="1" stroke-opacity="0"></use></g></g><g><use xlink:href="#h3y2RNloW3" opacity="1" fill="#65cae5" fill-opacity="1"></use><g><use xlink:href="#h3y2RNloW3" opacity="1" fill-opacity="0" stroke="#000000" stroke-width="1" stroke-opacity="0"></use></g></g><g><use xlink:href="#ahMLm8Qfo" opacity="1" fill="#000000" fill-opacity="0"></use><g><use xlink:href="#ahMLm8Qfo" opacity="1" fill-opacity="0" stroke="#000000" stroke-width="1" stroke-opacity="0"></use></g></g><g><use xlink:href="#h6mGvQd7Mf" opacity="1" fill="#000000" fill-opacity="0"></use><g><use xlink:href="#h6mGvQd7Mf" opacity="1" fill-opacity="0" stroke="#000000" stroke-width="1" stroke-opacity="0"></use></g></g><g><use xlink:href="#a4taPr1D4D" opacity="1" fill="#65cae5" fill-opacity="1"></use><g><use xlink:href="#a4taPr1D4D" opacity="1" fill-opacity="0" stroke="#000000" stroke-width="1" stroke-opacity="0"></use></g></g><g><use xlink:href="#d3HPEpe1r" opacity="1" fill="#8ed7f0" fill-opacity="1"></use><g><use xlink:href="#d3HPEpe1r" opacity="1" fill-opacity="0" stroke="#000000" stroke-width="1" stroke-opacity="0"></use></g></g><g><use xlink:href="#i4g0nIJaJ" opacity="1" fill="#65cae5" fill-opacity="1"></use><g><use xlink:href="#i4g0nIJaJ" opacity="1" fill-opacity="0" stroke="#000000" stroke-width="1" stroke-opacity="0"></use></g></g><g><use xlink:href="#a92zsNrjd1" opacity="1" fill="#65cae5" fill-opacity="1"></use><g><use xlink:href="#a92zsNrjd1" opacity="1" fill-opacity="0" stroke="#000000" stroke-width="1" stroke-opacity="0"></use></g></g><g><use xlink:href="#b2Q6nKUhnF" opacity="1" fill="#d6f0fc" fill-opacity="1"></use><g><use xlink:href="#b2Q6nKUhnF" opacity="1" fill-opacity="0" stroke="#000000" stroke-width="1" stroke-opacity="0"></use></g></g><g><use xlink:href="#heqkZi7Qb" opacity="1" fill="#bfe6f3" fill-opacity="1"></use><g><use xlink:href="#heqkZi7Qb" opacity="1" fill-opacity="0" stroke="#000000" stroke-width="1" stroke-opacity="0"></use></g></g><g><use xlink:href="#a44DwaVBQ4" opacity="1" fill="#bfe6f3" fill-opacity="1"></use><g><use xlink:href="#a44DwaVBQ4" opacity="1" fill-opacity="0" stroke="#000000" stroke-width="1" stroke-opacity="0"></use></g></g><g><use xlink:href="#guwNksFJ5" opacity="1" fill="#65cae5" fill-opacity="1"></use><g><use xlink:href="#guwNksFJ5" opacity="1" fill-opacity="0" stroke="#000000" stroke-width="1" stroke-opacity="0"></use></g></g><g><use xlink:href="#c1rnbTMQbc" opacity="1" fill="#8ed7f0" fill-opacity="1"></use><g><use xlink:href="#c1rnbTMQbc" opacity="1" fill-opacity="0" stroke="#000000" stroke-width="1" stroke-opacity="0"></use></g></g><g><use xlink:href="#g1S0UVUUxl" opacity="1" fill="#65cae5" fill-opacity="1"></use><g><use xlink:href="#g1S0UVUUxl" opacity="1" fill-opacity="0" stroke="#000000" stroke-width="1" stroke-opacity="0"></use></g></g><g><use xlink:href="#de93qoq3K" opacity="1" fill="#8ed7f0" fill-opacity="1"></use><g><use xlink:href="#de93qoq3K" opacity="1" fill-opacity="0" stroke="#000000" stroke-width="1" stroke-opacity="0"></use></g></g><g><use xlink:href="#bSKmWL0DZ" opacity="1" fill="#d6f0fc" fill-opacity="1"></use><g><use xlink:href="#bSKmWL0DZ" opacity="1" fill-opacity="0" stroke="#000000" stroke-width="1" stroke-opacity="0"></use></g></g><g><use xlink:href="#d5mvlEHwC" opacity="1" fill="#bfe6f3" fill-opacity="1"></use><g><use xlink:href="#d5mvlEHwC" opacity="1" fill-opacity="0" stroke="#000000" stroke-width="1" stroke-opacity="0"></use></g></g><g><use xlink:href="#a16DH7GlbS" opacity="1" fill="#bfe6f3" fill-opacity="1"></use><g><use xlink:href="#a16DH7GlbS" opacity="1" fill-opacity="0" stroke="#000000" stroke-width="1" stroke-opacity="0"></use></g></g><g><use xlink:href="#c1l1tsUSzQ" opacity="1" fill="#bfe6f3" fill-opacity="1"></use><g><use xlink:href="#c1l1tsUSzQ" opacity="1" fill-opacity="0" stroke="#000000" stroke-width="1" stroke-opacity="0"></use></g></g><g><use xlink:href="#a1Q17eOSCC" opacity="1" fill="#65cae5" fill-opacity="1"></use><g><use xlink:href="#a1Q17eOSCC" opacity="1" fill-opacity="0" stroke="#000000" stroke-width="1" stroke-opacity="0"></use></g></g><g><use xlink:href="#b1MUgtLOwG" opacity="1" fill="#8ed7f0" fill-opacity="1"></use><g><use xlink:href="#b1MUgtLOwG" opacity="1" fill-opacity="0" stroke="#000000" stroke-width="1" stroke-opacity="0"></use></g></g><g><use xlink:href="#e2D7YjF0al" opacity="1" fill="#65cae5" fill-opacity="1"></use><g><use xlink:href="#e2D7YjF0al" opacity="1" fill-opacity="0" stroke="#000000" stroke-width="1" stroke-opacity="0"></use></g></g><g><use xlink:href="#cCLWUtQjX" opacity="1" fill="#65cae5" fill-opacity="1"></use><g><use xlink:href="#cCLWUtQjX" opacity="1" fill-opacity="0" stroke="#000000" stroke-width="1" stroke-opacity="0"></use></g></g><g><use xlink:href="#a3POuye9LU" opacity="1" fill="#d6f0fc" fill-opacity="1"></use><g><use xlink:href="#a3POuye9LU" opacity="1" fill-opacity="0" stroke="#000000" stroke-width="1" stroke-opacity="0"></use></g></g><g><use xlink:href="#a1SoeYfMaX" opacity="1" fill="#bfe6f3" fill-opacity="1"></use><g><use xlink:href="#a1SoeYfMaX" opacity="1" fill-opacity="0" stroke="#000000" stroke-width="1" stroke-opacity="0"></use></g></g><g><use xlink:href="#blfTdw4y0" opacity="1" fill="#bfe6f3" fill-opacity="1"></use><g><use xlink:href="#blfTdw4y0" opacity="1" fill-opacity="0" stroke="#000000" stroke-width="1" stroke-opacity="0"></use></g></g><g><use xlink:href="#a6F0CMqAG" opacity="1" fill="#bfe6f3" fill-opacity="1"></use><g><use xlink:href="#a6F0CMqAG" opacity="1" fill-opacity="0" stroke="#000000" stroke-width="1" stroke-opacity="0"></use></g></g></g></g></svg>