<?xml version="1.0" encoding="UTF-8" standalone="no"?>
<!DOCTYPE svg PUBLIC "-//W3C//DTD SVG 1.1//EN" "http://www.w3.org/Graphics/SVG/1.1/DTD/svg11.dtd">
<svg version="1.1" xmlns="http://www.w3.org/2000/svg" xmlns:xlink="http://www.w3.org/1999/xlink" preserveAspectRatio="xMidYMid meet" viewBox="0 0 100 100" width="100" height="100"><defs><path d="M68.42 92.01L68.42 26.32L58.59 17.36L58.59 17.36L58.59 17.36L42.5 20.29L42.5 63.9L42.5 69.02L42.5 86.3L42.5 86.3L42.5 86.3L52.29 95.3L68.42 92.01Z" id="at3p26F8q"></path><path d="M31.58 73.68L41.36 82.69L57.5 79.39L47.67 70.39L34.5 61.02L31.58 73.68Z" id="cfPRgqHd1"></path><path d="M34.5 61.02L47.67 70.39L57.5 79.39L57.5 13.7L47.67 4.74L34.5 61.02Z" id="a13IIO2FuR"></path><path d="M31.58 7.67L31.58 73.68L47.67 70.39L47.67 4.7L31.58 7.67Z" id="bBJQE1lDy"></path><path d="M44.51 15.07L35.55 23.67L47.67 15.9L47.67 21.11L31.58 31.03L31.58 23.67L44.51 15.07Z" id="cnlzmIrjV"></path><path d="M36.15 45.52L45.98 41.31L31.58 51.28L31.58 56.35L47.67 45.93L47.67 37.98L36.15 45.52Z" id="c2UaKUzdNu"></path></defs><g><g><g><use xlink:href="#at3p26F8q" opacity="1" fill="#019db2" fill-opacity="1"></use><g><use xlink:href="#at3p26F8q" opacity="1" fill-opacity="0" stroke="#000000" stroke-width="1" stroke-opacity="0"></use></g></g><g><use xlink:href="#cfPRgqHd1" opacity="1" fill="#65cae5" fill-opacity="1"></use><g><use xlink:href="#cfPRgqHd1" opacity="1" fill-opacity="0" stroke="#000000" stroke-width="1" stroke-opacity="0"></use></g></g><g><use xlink:href="#a13IIO2FuR" opacity="1" fill="#8ed7f0" fill-opacity="1"></use><g><use xlink:href="#a13IIO2FuR" opacity="1" fill-opacity="0" stroke="#000000" stroke-width="1" stroke-opacity="0"></use></g></g><g><use xlink:href="#bBJQE1lDy" opacity="1" fill="#d6f0fc" fill-opacity="1"></use><g><use xlink:href="#bBJQE1lDy" opacity="1" fill-opacity="0" stroke="#000000" stroke-width="1" stroke-opacity="0"></use></g></g><g><use xlink:href="#cnlzmIrjV" opacity="1" fill="#bfe6f3" fill-opacity="1"></use><g><use xlink:href="#cnlzmIrjV" opacity="1" fill-opacity="0" stroke="#000000" stroke-width="1" stroke-opacity="0"></use></g></g><g><use xlink:href="#c2UaKUzdNu" opacity="1" fill="#bfe6f3" fill-opacity="1"></use><g><use xlink:href="#c2UaKUzdNu" opacity="1" fill-opacity="0" stroke="#000000" stroke-width="1" stroke-opacity="0"></use></g></g></g></g></svg>