<?xml version="1.0" encoding="UTF-8" standalone="no"?>
<!DOCTYPE svg PUBLIC "-//W3C//DTD SVG 1.1//EN" "http://www.w3.org/Graphics/SVG/1.1/DTD/svg11.dtd">
<svg version="1.1" xmlns="http://www.w3.org/2000/svg" xmlns:xlink="http://www.w3.org/1999/xlink" preserveAspectRatio="xMidYMid meet" viewBox="0 0 100 100" width="100" height="100"><defs><path d="M75.5 83.85C75.73 83.58 75.96 83.26 76.14 82.94C76.14 82.93 76.18 82.9 76.18 82.89C76.55 82.25 76.92 81.43 77.28 80.29C77.29 80.27 77.32 80.18 77.37 80.01L77.37 26.11L67.59 17.11L67.59 17.11L50.77 20.99L50.77 36.95L50.77 46.37C50.77 55.69 50.77 60.87 50.77 61.91C50.63 62.87 50.22 63.14 49.58 63.28C48.03 63.81 40.27 66.44 26.31 71.19L36.14 86.5L36.14 86.5L45.92 95.51L71.02 86.87C73.24 85.86 74.74 84.86 75.5 83.85Z" id="h3dpowMokc"></path><path d="M65.21 70.32C65.22 70.32 65.25 70.28 65.26 70.27C65.62 69.63 65.99 68.81 66.36 67.67C66.36 67.65 66.39 67.56 66.45 67.39L66.45 13.5L56.66 4.49L56.66 15.74L49.62 17.38L49.62 57.98L55.02 61.91L64.57 71.23C64.88 70.84 65.09 70.53 65.21 70.32Z" id="f2EyLaZ2Ks"></path><path d="M49.62 57.98C49.62 58.17 49.62 58.28 49.62 58.3C49.49 59.26 49.08 59.53 48.44 59.67C46.88 60.2 39.13 62.83 25.17 67.58L28.5 72.79L25.17 73.93L34.95 82.94C50.04 77.73 58.42 74.83 60.09 74.25C61.92 73.75 63.43 72.74 64.57 71.23C63.94 70.61 60.75 67.5 55.02 61.91L49.62 57.98Z" id="aFBSpm44U"></path><path d="M50.26 65.25C52.46 64.65 54.2 63.33 55.38 61.31C55.39 61.31 55.43 61.27 55.43 61.27C55.8 60.63 56.16 59.81 56.53 58.66C56.53 58.64 56.56 58.55 56.62 58.39L56.62 4.49L39.8 8.38C39.8 32.93 39.8 46.56 39.8 49.29C39.66 50.25 39.25 50.53 38.61 50.66C37.06 51.19 29.3 53.83 15.34 58.57L25.12 73.93C40.21 68.72 48.59 65.82 50.26 65.25Z" id="aySVUZu20"></path><path d="M50.31 20.77L44.18 24.38L56.62 20.17L56.62 25.29L47.43 28.54L56.62 26.39L56.62 28.54L39.8 33.75L39.8 24.38L50.31 20.77Z" id="gPkoGEfdP"></path><path d="M44.28 42.57L56.62 41.93L56.62 39.23L44.28 42.57Z" id="b1xEGfe7ga"></path><path d="M45.83 57.15L34.49 65.52C47.8 60.5 55.19 57.71 56.66 57.15C56.66 57.15 56.76 60.08 55.06 61.86C53 62.56 42.7 66.05 24.16 72.33L20.32 66.43L45.83 57.15Z" id="a1WEMC7bTC"></path></defs><g><g><g><use xlink:href="#h3dpowMokc" opacity="1" fill="#019db2" fill-opacity="1"></use><g><use xlink:href="#h3dpowMokc" opacity="1" fill-opacity="0" stroke="#000000" stroke-width="1" stroke-opacity="0"></use></g></g><g><use xlink:href="#f2EyLaZ2Ks" opacity="1" fill="#8ed7f0" fill-opacity="1"></use><g><use xlink:href="#f2EyLaZ2Ks" opacity="1" fill-opacity="0" stroke="#000000" stroke-width="1" stroke-opacity="0"></use></g></g><g><use xlink:href="#aFBSpm44U" opacity="1" fill="#65cae5" fill-opacity="1"></use><g><use xlink:href="#aFBSpm44U" opacity="1" fill-opacity="0" stroke="#000000" stroke-width="1" stroke-opacity="0"></use></g></g><g><use xlink:href="#aySVUZu20" opacity="1" fill="#d6f0fc" fill-opacity="1"></use><g><use xlink:href="#aySVUZu20" opacity="1" fill-opacity="0" stroke="#000000" stroke-width="1" stroke-opacity="0"></use></g></g><g><use xlink:href="#gPkoGEfdP" opacity="1" fill="#bfe6f3" fill-opacity="1"></use><g><use xlink:href="#gPkoGEfdP" opacity="1" fill-opacity="0" stroke="#000000" stroke-width="1" stroke-opacity="0"></use></g></g><g><use xlink:href="#b1xEGfe7ga" opacity="1" fill="#bfe6f3" fill-opacity="1"></use><g><use xlink:href="#b1xEGfe7ga" opacity="1" fill-opacity="0" stroke="#000000" stroke-width="1" stroke-opacity="0"></use></g></g><g><use xlink:href="#a1WEMC7bTC" opacity="1" fill="#bfe6f3" fill-opacity="1"></use><g><use xlink:href="#a1WEMC7bTC" opacity="1" fill-opacity="0" stroke="#000000" stroke-width="1" stroke-opacity="0"></use></g></g></g></g></svg>