<?xml version="1.0" encoding="UTF-8" standalone="no"?>
<!DOCTYPE svg PUBLIC "-//W3C//DTD SVG 1.1//EN" "http://www.w3.org/Graphics/SVG/1.1/DTD/svg11.dtd">
<svg version="1.1" xmlns="http://www.w3.org/2000/svg" xmlns:xlink="http://www.w3.org/1999/xlink" preserveAspectRatio="xMidYMid meet" viewBox="0 0 100 100" width="100" height="100"><defs><path d="M290.15 494.31L290.15 494.31L285.85 492.07L285.85 492.07L281.23 489.65L281.23 489.65L275.75 486.77L269.35 496.73L264.5 499.66L261.99 495.77L252.16 486.77L252.16 486.77L252.16 486.77L237.76 494.22L254.4 519.91L234.51 550.67L234.51 550.67L234.51 550.67L234.51 550.67L234.51 550.67L244.3 559.68L259.34 565.76L271.82 546.7L278.35 556.8L278.35 556.8L288.18 565.76L303.18 559.63L283.38 528.87L299.98 503.31L290.15 494.31Z" id="fhBWAIQnn"></path><path d="M512.27 389.62L489.01 446.17L488.91 446.22L474.47 451.57L464.69 442.56L437.99 378.29L455.27 374.77L465.05 383.77L469.26 393.51L480.18 390.77L486.58 374.13L502.49 380.71L512.27 389.62ZM474.51 405.62L476.07 401.65L473.14 402.42L474.51 405.62ZM471.22 398.13L477.99 396.57L479.54 392.5L470.4 396.16L471.22 398.13Z" id="abUTaVxbd"></path><path d="M585.23 374.67L576.14 400.05L568.96 386.42L559.18 377.42L559.18 377.42L559.18 377.42L551.82 396.07L546.93 384.09L537.14 375.09L541.3 385.33L541.3 385.33L537.14 375.09L519.31 379.02L542.81 440.05C542.92 440.18 542.98 440.26 542.99 440.27C543.22 440.55 543.5 440.78 543.73 440.96C544.64 441.79 551.91 448.45 552.82 449.28C553.83 450.42 554.88 450.65 555.57 450.65C556.3 450.65 556.98 450.47 557.58 450.06C557.9 449.87 558.17 449.6 558.49 449.19C558.5 449.18 558.53 449.15 558.58 449.1L567.54 431.31L572.43 440.27C572.52 440.36 572.56 440.4 572.57 440.41C572.85 440.73 573.12 440.91 573.35 441.1C574.25 441.92 581.45 448.54 582.35 449.37C583.27 450.42 584.32 450.65 585.01 450.65C585.6 450.65 586.24 450.47 586.83 450.06C587.06 449.92 587.34 449.74 587.61 449.46C587.63 449.45 587.7 449.37 587.84 449.23L610.7 392.23L600.87 383.22L600.87 383.22L585.23 374.67Z" id="b4IkJfiued"></path><path d="M89.59 36.79L86.39 42.96L86.34 43.1L72.17 43.1L72.17 90.09L54.61 94.3L44.83 85.29L44.83 83.19L44.79 76.47L44.83 76.42L44.83 42.91L44.28 42.91L43.87 43.14L43.64 42.91L32.21 42.96L22.43 33.95L30.29 18.37L84.74 18.37L94.48 27.33L89.59 36.79Z" id="a2WGpNt28I"></path><path d="M339.34 499.75L350.95 495.13L356.53 486.86L364.07 489.92L367.68 491.38L372.34 493.26L382.08 502.26L359.95 534.81L359.95 561.23L342.95 565.44L333.17 556.43L333.17 526.13L310.08 493.9L326.72 486.86L336.5 495.86L339.34 499.75ZM343.59 505.55L344.09 505.37L346.15 502.31L342.54 504.14L343.59 505.55Z" id="a6zdBToWJZ"></path><path d="M446.31 491.25L446.31 491.25L439.04 491.25L439.04 491.25L398.13 491.25L392.37 508.89L392.37 508.89L392.37 508.89L392.37 508.89L392.37 508.89L402.19 517.9L410.88 517.9L388.94 555.98L388.94 555.98L388.94 555.98L388.94 555.98L388.94 555.98L398.72 564.94L447.22 564.94L447.36 564.94L453.35 547.57L443.52 538.61L443.52 538.61L435.38 538.61L456.14 500.25L446.31 491.25Z" id="e1L4VLUqnD"></path><path d="M391.09 381.21L389.49 382.4L390.08 382.95L390.08 412.25L395.34 409.69L395.34 377.51L413.17 373.99L422.9 382.99L422.9 447.22L405.71 450.42L405.07 450.56L405.07 449.92L401.23 446.63L396.43 450.06L377.55 442.42L377.44 442.37L377.33 442.33L377.22 442.28L377.11 442.23L377.01 442.18L376.9 442.13L376.8 442.09L376.7 442.04L376.6 441.99L376.5 441.94L376.4 441.89L376.31 441.84L376.21 441.79L376.12 441.74L376.03 441.7L375.94 441.65L375.85 441.6L375.76 441.55L375.68 441.5L375.59 441.45L375.51 441.4L375.43 441.34L375.35 441.29L375.27 441.24L375.2 441.19L375.12 441.14L375.05 441.08L374.98 441.03L374.9 440.98L374.84 440.93L374.77 440.87L374.7 440.82L374.63 440.76L374.57 440.71L374.51 440.65L374.45 440.59L374.39 440.54L374.33 440.48L374.27 440.42L374.22 440.37L365.85 432.59L365.44 432.18L365.39 432.14L365.33 432.1L365.3 432.08L365.28 432.06L365.25 432.04L365.22 432.02L365.19 432L365.17 431.98L365.14 431.96L365.11 431.94L365.09 431.92L365.06 431.89L365.03 431.87L365.01 431.85L364.98 431.83L364.95 431.81L364.93 431.79L364.9 431.77L364.88 431.75L364.85 431.73L364.83 431.71L364.8 431.69L364.78 431.67L364.75 431.65L364.73 431.63L364.7 431.61L364.68 431.59L364.66 431.57L364.63 431.55L364.61 431.52L364.59 431.5L364.56 431.48L364.54 431.46L364.52 431.44L364.5 431.42L364.48 431.4L364.46 431.38L364.43 431.36L364.28 431.2L364.12 431.04L363.97 430.88L363.82 430.72L363.68 430.55L363.54 430.37L363.4 430.2L363.27 430.02L363.14 429.83L363.02 429.65L362.9 429.46L362.79 429.27L362.67 429.07L362.57 428.87L362.46 428.67L362.36 428.46L362.27 428.25L362.18 428.04L362.09 427.82L362.01 427.61L361.93 427.38L361.85 427.16L361.78 426.93L361.71 426.7L361.65 426.46L361.59 426.23L361.53 425.99L361.48 425.74L361.44 425.5L361.39 425.25L361.35 424.99L361.32 424.74L361.29 424.48L361.26 424.22L361.24 423.95L361.22 423.68L361.21 423.41L361.2 423.14L361.19 422.86L361.19 422.58L361.19 378.15L380.25 373.9L389.21 382.13L391.09 381.21ZM390.13 424.37L395.38 426.42L395.38 421.81L394.24 422.45L395.38 421.53L395.38 419.2L390.13 422.49L390.13 424.37ZM390.13 417.14L395.38 413.76L395.38 412.11L390.13 414.08L390.13 417.14Z" id="c65FNEcjxQ"></path><path d="M241.23 474.15L243.43 487.09L236.62 490.56L246.54 505.87L246.86 507.89L259.38 507.38L261.53 499.34L251.06 483.15L241.23 474.15Z" id="cMJC8gxP5"></path><path d="M276.89 484.34L274.61 483.11L265.69 497.01L262.45 500.71L261.53 499.34L259.38 507.38L262.67 507.29L272.46 516.25L289.05 490.7L279.22 481.69L276.89 484.34Z" id="b4g02K94z"></path><path d="M249.87 514.88L253.3 516.25L250.01 511.18L249.87 514.88Z" id="a4jnbRyO5h"></path><path d="M249.87 514.88L249.6 522.01L253.3 516.25L249.87 514.88Z" id="cIPQfyTA"></path><path d="M265.97 538.19L267.43 544.14L277.26 553.14L292.3 547.02L282.47 538.06L265.97 538.19Z" id="bBzsY5j7v"></path><path d="M272.46 516.25L262.67 507.29L246.86 507.89L247.09 509.03L244.21 512.55L249.87 514.88L250.01 511.18L253.3 516.25L262.35 531.84L262.86 531.02L265.01 534.31L265.97 538.19L282.47 538.06L292.3 547.02L272.46 516.25Z" id="b9uUxyGdf"></path><path d="M223.59 538.06L233.37 547.06L248.41 553.14L238.63 544.14L223.82 537.78L223.59 538.06Z" id="cxWhovjZD"></path><path d="M249.87 514.88L244.21 512.55L223.82 537.78L238.63 544.14L248.41 553.14L262.35 531.84L253.3 516.25L249.6 522.01L249.87 514.88Z" id="f4uf8c7bc2"></path><path d="M264.82 474.15L253.07 492.43L241.23 474.15L226.83 481.6L243.47 507.29L223.59 538.06L238.63 544.14L253.07 522.06L267.43 544.14L282.47 538.06L262.67 507.29L279.22 481.69L264.82 474.15Z" id="a19GHrCCjc"></path><path d="M247.04 488.73L238.95 495.73L270.31 477.03L274.93 479.45L248.41 496.32L264.14 489.55L241.55 504.27L236.02 495.73L247.04 488.73Z" id="b1LfnEIYAw"></path><path d="M253.03 518.35L265.33 514.29L238.08 534.45L269.35 517.67L264.55 510.17L253.03 518.35Z" id="f4jzAxMbt1"></path><path d="M457.37 424.09L453.76 429.99L463.59 438.99L478.03 433.65L468.3 424.64L456.91 422.95L457.37 424.09Z" id="d6rttJgnq2"></path><path d="M491.57 368.09L489.14 372.07L485.49 370.51L477.62 390.95L468.89 405.26L454.13 371.2L444.34 362.19L448.69 372.3L436.89 374.72L456.91 422.95L468.3 424.64L478.03 433.65L478.13 433.6L501.39 377.1L491.57 368.09Z" id="dJu5SP7tD"></path><path d="M444.34 362.19L427.06 365.76L453.76 429.99L468.3 424.64L491.57 368.09L475.66 361.55L460.8 400.27L444.34 362.19Z" id="b8eVQjUrn"></path><path d="M452.48 404.34L475.52 402.15L448.69 410.06L475.84 406.31L479.54 397.35L452.48 404.34Z" id="bzX8qjGxK"></path><path d="M448.46 380.94L439.68 385.65L478.67 375.82L446.77 388.66L486.99 379.29L485.12 383.77L439.54 395.75L435.06 384.96L448.46 380.94Z" id="a5JMxhkf4v"></path><path d="M558.95 419.7L560.41 416.73L558.95 414.03L557.44 417.01L558.95 419.7Z" id="b64QsYsGTt"></path><path d="M536.59 423.36L532.02 427.7C537.89 433.11 541.15 436.11 541.81 436.71C542.81 437.85 543.86 438.08 544.55 438.08C545.28 438.08 545.97 437.9 546.56 437.49C546.88 437.3 547.15 437.03 547.47 436.62C547.48 436.61 547.51 436.58 547.57 436.53L557.39 417.05L549.85 403.38L531.47 410.06L536.59 423.36Z" id="g2n1VOxzGK"></path><path d="M548.25 364.85L554.42 382.99L547.66 400.09L536 371.52L526.17 362.51L530.38 372.75L518.13 375.45L531.47 410.06L549.9 403.34L557.44 417.01L558.95 414.03L560.41 416.73L570.19 396.8L558.03 373.81L548.25 364.85Z" id="a5fzpgBA"></path><path d="M588.75 373.58L584.14 371.06L572.98 402.19L570.15 396.85L560.41 416.73L565.53 426.1L561.46 427.66C567.41 433.14 570.72 436.19 571.38 436.8C572.3 437.85 573.35 438.08 574.03 438.08C574.63 438.08 575.27 437.9 575.86 437.49C576.09 437.35 576.37 437.17 576.64 436.89C576.66 436.88 576.73 436.8 576.87 436.66L599.73 379.66L589.94 370.61L588.75 373.58Z" id="jhRyGm8zI"></path><path d="" id="bOdzLEhEQ"></path><path d="M548.25 364.85L537.83 391.13L526.17 362.51L508.34 366.45L531.84 427.47C531.95 427.61 532.01 427.69 532.02 427.7C533.03 428.85 534.08 429.07 534.77 429.07C535.5 429.07 536.18 428.89 536.78 428.48C537.1 428.3 537.37 428.02 537.69 427.61C537.7 427.61 537.73 427.57 537.78 427.52L549.12 405.07L561.46 427.66C561.55 427.74 561.59 427.79 561.6 427.79C562.51 428.85 563.57 429.07 564.25 429.07C564.85 429.07 565.49 428.89 566.08 428.48C566.31 428.34 566.58 428.16 566.86 427.89C566.87 427.87 566.95 427.79 567.09 427.66L589.94 370.65L574.31 362.1L563.2 393.19L548.25 364.85Z" id="aInAWiS5"></path><path d="M530.47 383.18L521.05 390.95L558.95 379.29L525.67 395.02L539.66 393.83L521.14 399.68L517.3 389.76L530.47 383.18Z" id="c2MLonZ2Bg"></path><path d="M576.82 403.34L541.81 417.01L564.43 404.39L527.73 416.82C526.79 414.38 526.28 413.03 526.17 412.75C526.17 412.75 575.45 395.38 574.63 395.02C573.81 394.65 555.02 395.79 555.02 395.79C556.83 395.39 565.92 393.38 582.26 389.76L576.82 403.34Z" id="h4JATdwCuw"></path><path d="M43.69 66.14L51.46 68.01L61.24 77.2L61.24 30.48L51.46 21.47L43.69 30.39L43.69 66.14Z" id="cFQWNfiMk"></path><path d="M43.69 70.3L33.91 72.67L43.69 81.63L61.24 77.47L61.24 77.2L51.46 68.01L43.69 66.14L43.69 70.3Z" id="aIb5XyoZy"></path><path d="M73.81 5.7L69.15 14.71C64.27 14.71 61.56 14.71 61.01 14.71C63.21 17.95 65.63 21.47 65.63 21.47C66.29 22.07 69.58 25.02 75.51 30.34L78.71 24.17L83.6 14.71L73.81 5.7Z" id="aQY7sU0Et"></path><path d="M29.15 14.71L25.86 21.25L11.51 21.29L21.29 30.3L43.69 30.21L43.69 30.39L51.46 21.47L61.24 30.48L75.41 30.48L75.46 30.34C69.56 25.02 66.29 22.07 65.63 21.47C65.63 21.47 63.21 17.95 61.01 14.71C56.77 14.71 46.14 14.71 29.15 14.71Z" id="d6EueNhU"></path><path d="M51.46 21.47L65.63 21.47L73.81 5.75L19.37 5.75L11.51 21.34L33.91 21.25L33.91 72.67L51.46 68.47L51.46 21.47Z" id="dgFyGzWUe"></path><path d="M40.49 49.36L51.46 42.82L51.46 37.98L40.49 49.36Z" id="a2JT1f4Wc4"></path><path d="M48.49 53.79L40.49 61.61L51.46 55.12L51.46 59.87L33.91 70.57L33.86 63.85L48.49 53.79Z" id="k1RVIf0xg2"></path><path d="M43.69 12.29L35.05 19.05L65.72 5.89L68.47 5.75L37.01 23.44L56.26 18.05L32.95 30.48L22.71 20.97L43.69 12.29Z" id="coa8dkMhL"></path><path d="M361.42 480.64L358.72 484.57L355.43 483.25L341.07 504.5L340.98 504.37L339.57 513.51L349.07 522.19L371.2 489.65L361.42 480.64Z" id="guwNksFJ5"></path><path d="M315.84 474.24L323.15 484.3L308.98 490.29C319.68 505.23 325.62 513.54 326.81 515.2C332.66 514.33 339.25 513.23 339.25 513.23C339.27 513.25 339.37 513.34 339.57 513.51L340.98 504.37L325.62 483.25L315.84 474.24Z" id="c1rnbTMQbc"></path><path d="M332.02 541.39L322.24 543.82L332.02 552.82L349.07 548.57L349.07 548.48L339.25 539.61L332.02 540.71L332.02 541.39Z" id="g1S0UVUUxl"></path><path d="M339.25 513.23C339.25 513.23 332.62 514.33 326.81 515.2C327.16 515.69 328.91 518.13 332.07 522.51L332.07 540.71L339.29 539.57L349.07 548.48L349.07 522.19L349.07 522.19C343.18 516.82 339.9 513.83 339.25 513.23Z" id="de93qoq3K"></path><path d="M315.79 474.29L299.15 481.33L322.24 513.51L322.24 543.82L339.25 539.61L339.25 513.23L361.42 480.64L345.6 474.29L331.29 495.54L315.79 474.29Z" id="bSKmWL0DZ"></path><path d="M329.55 522.19L338.56 520.27L322.24 532.85L322.24 535.95L339.57 524.75L339.25 516.25L329.55 522.19Z" id="d5mvlEHwC"></path><path d="M334.72 506.1L347.06 501.71L350.03 497.37L334.72 506.1Z" id="a16DH7GlbS"></path><path d="M321.78 486.58L314.15 492.85L353.14 477.3L356.75 478.77L316.89 498.97L345.1 488.14L316.16 505.1L308.02 493.67L321.78 486.58Z" id="c1l1tsUSzQ"></path><path d="M435.38 478.63L414.95 505.23L399.77 531.57L423.36 528L445.21 487.59L435.38 478.63Z" id="a1Q17eOSCC"></path><path d="M423.36 528L399.77 531.57L397.26 535.95L426.65 543.36L436.3 552.32L436.43 552.32L442.42 534.95L432.59 525.94L422.77 529.1L423.36 528Z" id="b1MUgtLOwG"></path><path d="M396.34 537.51L378.01 543.36L387.79 552.32L436.3 552.32L426.65 543.36L397.26 535.95L396.34 537.51Z" id="e2D7YjF0al"></path><path d="M396.98 487.59L395.7 491.61L381.44 496.27L391.27 505.23L414.95 505.23L435.38 478.63L407.91 487.59L396.98 487.59Z" id="cCLWUtQjX"></path><path d="M381.44 496.27L405.12 496.27L378.01 543.36L426.65 543.36L432.59 525.94L409.78 525.94L435.38 478.63L387.2 478.63L381.44 496.27Z" id="a3POuye9LU"></path><path d="M406.67 486.45L396.34 492.62L428.11 478.63L435.38 478.63L405.21 493.94L426.51 485.49L402.88 500.16L405.12 496.27L381.44 496.27L406.67 486.45Z" id="a1SoeYfMaX"></path><path d="M402.24 516.25L418.97 509.03L422.49 503.36L402.24 516.25Z" id="blfTdw4y0"></path><path d="M412.34 527.13L396.43 539.15L419.84 526.08L425.69 526.08L397.26 543.36L378.01 543.36L412.34 527.13Z" id="a6F0CMqAG"></path><path d="M394.24 421.17L387.75 417.51L387.02 420.02L394.24 422.81L394.24 421.17Z" id="b29nu5vAhh"></path><path d="M379.61 416.96C379.62 416.97 379.69 417.04 379.7 417.05C379.7 417.05 379.89 417.19 380.53 417.51C380.61 417.54 381.02 417.69 381.76 417.97L383.31 415.22L379.2 415.22L379.2 415.59L379.15 415.77C379.12 416.29 379.28 416.69 379.61 416.96Z" id="a3YMpyVah"></path><path d="M387.75 417.51L383.68 415.22L383.27 415.22L381.76 417.97L387.02 420.02L387.75 417.51Z" id="bcq99n7Zq"></path><path d="M369.37 361.33L369.37 372.48L360.09 374.54L360.09 415.22L379.2 415.22L379.2 370.33L369.37 361.33Z" id="bLr9x3YGi"></path><path d="M394.24 422.81L387.02 420.02L384.46 428.98L390.4 434.01L394.24 437.3L394.24 437.94L394.88 437.85L412.07 434.65L402.29 425.65L394.24 421.17L394.24 422.81Z" id="dlJMpYSI9"></path><path d="M381.71 417.97L375.77 428.48L385.92 437.21L375.77 428.48L381.71 417.97C380.97 417.69 380.56 417.54 380.48 417.51C379.84 417.23 379.66 417.05 379.66 417.05C379.65 417.04 379.57 416.97 379.57 416.96C379.06 416.5 379.02 416.18 379.11 415.77C379.11 415.76 379.13 415.7 379.15 415.59L379.15 415.22L360.09 415.22C360.09 417.47 360.09 418.72 360.09 418.97C360.09 419.98 360.18 420.89 360.32 421.81C359.82 421.55 357.32 420.29 352.82 418.01C359.13 423.88 362.64 427.14 363.34 427.79C364.07 428.57 365.17 429.21 366.67 429.85C367.93 430.36 374.23 432.91 385.55 437.49L390.35 434.06L384.41 428.98L387.02 420.02L381.71 417.97Z" id="ayTKA5HUJ"></path><path d="M402.29 372.3L394.24 373.85L394.24 421.17L402.29 425.65L412.07 434.65L412.07 370.33L402.29 361.37L402.29 372.3Z" id="eLtFXS8Sz"></path><path d="M384.46 413.85C376.23 410.67 371.66 408.9 370.74 408.55C370.1 408.27 369.92 408.09 369.92 408.09C369.91 408.08 369.84 408.01 369.83 408C369.33 407.54 369.28 407.22 369.37 406.81C369.37 406.8 369.39 406.74 369.42 406.63L369.42 361.37L350.35 365.62C350.35 392.28 350.35 407.09 350.35 410.06C350.35 413.81 351.45 416.78 353.6 418.83C354.33 419.61 355.43 420.25 356.94 420.89C358.2 421.4 364.49 423.95 375.82 428.53L384.46 422.31L384.46 429.03L402.29 425.74L402.29 361.37L384.46 364.89L384.46 413.85Z" id="b1nuAnJDak"></path><path d="M396.85 416.59L384.46 428.98L384.46 423.77L396.85 416.59Z" id="admqBt8ew"></path><path d="M365.9 371.43L355.25 381.07L380.21 368.59L357.35 385.37L369.65 380.16L369.37 383.31L350.31 393.97L350.31 381.07L365.9 371.43Z" id="iiIN3RGQf"></path><path d="M363.61 407.27L390.63 397.17L355.02 420.02L359.82 422.03L396.57 399.09L383.27 409.87L402.29 399.36L402.29 388.3L363.61 407.27Z" id="bmqCSnTUy"></path></defs><g><g><g><use xlink:href="#fhBWAIQnn" opacity="1" fill="#019db2" fill-opacity="1"></use><g><use xlink:href="#fhBWAIQnn" opacity="1" fill-opacity="0" stroke="#000000" stroke-width="1" stroke-opacity="0"></use></g></g><g><use xlink:href="#abUTaVxbd" opacity="1" fill="#019db2" fill-opacity="1"></use><g><use xlink:href="#abUTaVxbd" opacity="1" fill-opacity="0" stroke="#000000" stroke-width="1" stroke-opacity="0"></use></g></g><g><use xlink:href="#b4IkJfiued" opacity="1" fill="#019db2" fill-opacity="1"></use><g><use xlink:href="#b4IkJfiued" opacity="1" fill-opacity="0" stroke="#000000" stroke-width="1" stroke-opacity="0"></use></g></g><g><use xlink:href="#a2WGpNt28I" opacity="1" fill="#019db2" fill-opacity="1"></use><g><use xlink:href="#a2WGpNt28I" opacity="1" fill-opacity="0" stroke="#000000" stroke-width="1" stroke-opacity="0"></use></g></g><g><use xlink:href="#a6zdBToWJZ" opacity="1" fill="#019db2" fill-opacity="1"></use><g><use xlink:href="#a6zdBToWJZ" opacity="1" fill-opacity="0" stroke="#000000" stroke-width="1" stroke-opacity="0"></use></g></g><g><use xlink:href="#e1L4VLUqnD" opacity="1" fill="#019db2" fill-opacity="1"></use><g><use xlink:href="#e1L4VLUqnD" opacity="1" fill-opacity="0" stroke="#000000" stroke-width="1" stroke-opacity="0"></use></g></g><g><use xlink:href="#c65FNEcjxQ" opacity="1" fill="#019db2" fill-opacity="1"></use><g><use xlink:href="#c65FNEcjxQ" opacity="1" fill-opacity="0" stroke="#000000" stroke-width="1" stroke-opacity="0"></use></g></g><g><use xlink:href="#cMJC8gxP5" opacity="1" fill="#8ed7f0" fill-opacity="1"></use><g><use xlink:href="#cMJC8gxP5" opacity="1" fill-opacity="0" stroke="#000000" stroke-width="1" stroke-opacity="0"></use></g></g><g><use xlink:href="#b4g02K94z" opacity="1" fill="#65cae5" fill-opacity="1"></use><g><use xlink:href="#b4g02K94z" opacity="1" fill-opacity="0" stroke="#000000" stroke-width="1" stroke-opacity="0"></use></g></g><g><use xlink:href="#a4jnbRyO5h" opacity="1" fill="#000000" fill-opacity="0"></use><g><use xlink:href="#a4jnbRyO5h" opacity="1" fill-opacity="0" stroke="#000000" stroke-width="1" stroke-opacity="0"></use></g></g><g><use xlink:href="#cIPQfyTA" opacity="1" fill="#000000" fill-opacity="0"></use><g><use xlink:href="#cIPQfyTA" opacity="1" fill-opacity="0" stroke="#000000" stroke-width="1" stroke-opacity="0"></use></g></g><g><use xlink:href="#bBzsY5j7v" opacity="1" fill="#65cae5" fill-opacity="1"></use><g><use xlink:href="#bBzsY5j7v" opacity="1" fill-opacity="0" stroke="#000000" stroke-width="1" stroke-opacity="0"></use></g></g><g><use xlink:href="#b9uUxyGdf" opacity="1" fill="#8ed7f0" fill-opacity="1"></use><g><use xlink:href="#b9uUxyGdf" opacity="1" fill-opacity="0" stroke="#000000" stroke-width="1" stroke-opacity="0"></use></g></g><g><use xlink:href="#cxWhovjZD" opacity="1" fill="#65cae5" fill-opacity="1"></use><g><use xlink:href="#cxWhovjZD" opacity="1" fill-opacity="0" stroke="#000000" stroke-width="1" stroke-opacity="0"></use></g></g><g><use xlink:href="#f4uf8c7bc2" opacity="1" fill="#65cae5" fill-opacity="1"></use><g><use xlink:href="#f4uf8c7bc2" opacity="1" fill-opacity="0" stroke="#000000" stroke-width="1" stroke-opacity="0"></use></g></g><g><use xlink:href="#a19GHrCCjc" opacity="1" fill="#d6f0fc" fill-opacity="1"></use><g><use xlink:href="#a19GHrCCjc" opacity="1" fill-opacity="0" stroke="#000000" stroke-width="1" stroke-opacity="0"></use></g></g><g><use xlink:href="#b1LfnEIYAw" opacity="1" fill="#bfe6f3" fill-opacity="1"></use><g><use xlink:href="#b1LfnEIYAw" opacity="1" fill-opacity="0" stroke="#000000" stroke-width="1" stroke-opacity="0"></use></g></g><g><use xlink:href="#f4jzAxMbt1" opacity="1" fill="#bfe6f3" fill-opacity="1"></use><g><use xlink:href="#f4jzAxMbt1" opacity="1" fill-opacity="0" stroke="#000000" stroke-width="1" stroke-opacity="0"></use></g></g><g><use xlink:href="#d6rttJgnq2" opacity="1" fill="#65cae5" fill-opacity="1"></use><g><use xlink:href="#d6rttJgnq2" opacity="1" fill-opacity="0" stroke="#000000" stroke-width="1" stroke-opacity="0"></use></g></g><g><use xlink:href="#dJu5SP7tD" opacity="1" fill="#8ed7f0" fill-opacity="1"></use><g><use xlink:href="#dJu5SP7tD" opacity="1" fill-opacity="0" stroke="#000000" stroke-width="1" stroke-opacity="0"></use></g></g><g><use xlink:href="#b8eVQjUrn" opacity="1" fill="#d6f0fc" fill-opacity="1"></use><g><use xlink:href="#b8eVQjUrn" opacity="1" fill-opacity="0" stroke="#000000" stroke-width="1" stroke-opacity="0"></use></g></g><g><use xlink:href="#bzX8qjGxK" opacity="1" fill="#bfe6f3" fill-opacity="1"></use><g><use xlink:href="#bzX8qjGxK" opacity="1" fill-opacity="0" stroke="#000000" stroke-width="1" stroke-opacity="0"></use></g></g><g><use xlink:href="#a5JMxhkf4v" opacity="1" fill="#bfe6f3" fill-opacity="1"></use><g><use xlink:href="#a5JMxhkf4v" opacity="1" fill-opacity="0" stroke="#000000" stroke-width="1" stroke-opacity="0"></use></g></g><g><use xlink:href="#b64QsYsGTt" opacity="1" fill="#000000" fill-opacity="0"></use><g><use xlink:href="#b64QsYsGTt" opacity="1" fill-opacity="0" stroke="#000000" stroke-width="1" stroke-opacity="0"></use></g></g><g><use xlink:href="#g2n1VOxzGK" opacity="1" fill="#65cae5" fill-opacity="1"></use><g><use xlink:href="#g2n1VOxzGK" opacity="1" fill-opacity="0" stroke="#000000" stroke-width="1" stroke-opacity="0"></use></g></g><g><use xlink:href="#a5fzpgBA" opacity="1" fill="#8ed7f0" fill-opacity="1"></use><g><use xlink:href="#a5fzpgBA" opacity="1" fill-opacity="0" stroke="#000000" stroke-width="1" stroke-opacity="0"></use></g></g><g><use xlink:href="#jhRyGm8zI" opacity="1" fill="#65cae5" fill-opacity="1"></use><g><use xlink:href="#jhRyGm8zI" opacity="1" fill-opacity="0" stroke="#000000" stroke-width="1" stroke-opacity="0"></use></g></g><g><use xlink:href="#bOdzLEhEQ" opacity="1" fill="#8ed7f0" fill-opacity="1"></use><g><use xlink:href="#bOdzLEhEQ" opacity="1" fill-opacity="0" stroke="#000000" stroke-width="1" stroke-opacity="0"></use></g></g><g><use xlink:href="#aInAWiS5" opacity="1" fill="#d6f0fc" fill-opacity="1"></use><g><use xlink:href="#aInAWiS5" opacity="1" fill-opacity="0" stroke="#000000" stroke-width="1" stroke-opacity="0"></use></g></g><g><use xlink:href="#c2MLonZ2Bg" opacity="1" fill="#bfe6f3" fill-opacity="1"></use><g><use xlink:href="#c2MLonZ2Bg" opacity="1" fill-opacity="0" stroke="#000000" stroke-width="1" stroke-opacity="0"></use></g></g><g><use xlink:href="#h4JATdwCuw" opacity="1" fill="#bfe6f3" fill-opacity="1"></use><g><use xlink:href="#h4JATdwCuw" opacity="1" fill-opacity="0" stroke="#000000" stroke-width="1" stroke-opacity="0"></use></g></g><g><use xlink:href="#cFQWNfiMk" opacity="1" fill="#8ed7f0" fill-opacity="1"></use><g><use xlink:href="#cFQWNfiMk" opacity="1" fill-opacity="0" stroke="#000000" stroke-width="1" stroke-opacity="0"></use></g></g><g><use xlink:href="#aIb5XyoZy" opacity="1" fill="#65cae5" fill-opacity="1"></use><g><use xlink:href="#aIb5XyoZy" opacity="1" fill-opacity="0" stroke="#000000" stroke-width="1" stroke-opacity="0"></use></g></g><g><use xlink:href="#aQY7sU0Et" opacity="1" fill="#8ed7f0" fill-opacity="1"></use><g><use xlink:href="#aQY7sU0Et" opacity="1" fill-opacity="0" stroke="#000000" stroke-width="1" stroke-opacity="0"></use></g></g><g><use xlink:href="#d6EueNhU" opacity="1" fill="#65cae5" fill-opacity="1"></use><g><use xlink:href="#d6EueNhU" opacity="1" fill-opacity="0" stroke="#000000" stroke-width="1" stroke-opacity="0"></use></g></g><g><use xlink:href="#dgFyGzWUe" opacity="1" fill="#d6f0fc" fill-opacity="1"></use><g><use xlink:href="#dgFyGzWUe" opacity="1" fill-opacity="0" stroke="#000000" stroke-width="1" stroke-opacity="0"></use></g></g><g><use xlink:href="#a2JT1f4Wc4" opacity="1" fill="#bfe6f3" fill-opacity="1"></use><g><use xlink:href="#a2JT1f4Wc4" opacity="1" fill-opacity="0" stroke="#000000" stroke-width="1" stroke-opacity="0"></use></g></g><g><use xlink:href="#k1RVIf0xg2" opacity="1" fill="#bfe6f3" fill-opacity="1"></use><g><use xlink:href="#k1RVIf0xg2" opacity="1" fill-opacity="0" stroke="#000000" stroke-width="1" stroke-opacity="0"></use></g></g><g><use xlink:href="#coa8dkMhL" opacity="1" fill="#bfe6f3" fill-opacity="1"></use><g><use xlink:href="#coa8dkMhL" opacity="1" fill-opacity="0" stroke="#000000" stroke-width="1" stroke-opacity="0"></use></g></g><g><use xlink:href="#guwNksFJ5" opacity="1" fill="#65cae5" fill-opacity="1"></use><g><use xlink:href="#guwNksFJ5" opacity="1" fill-opacity="0" stroke="#000000" stroke-width="1" stroke-opacity="0"></use></g></g><g><use xlink:href="#c1rnbTMQbc" opacity="1" fill="#8ed7f0" fill-opacity="1"></use><g><use xlink:href="#c1rnbTMQbc" opacity="1" fill-opacity="0" stroke="#000000" stroke-width="1" stroke-opacity="0"></use></g></g><g><use xlink:href="#g1S0UVUUxl" opacity="1" fill="#65cae5" fill-opacity="1"></use><g><use xlink:href="#g1S0UVUUxl" opacity="1" fill-opacity="0" stroke="#000000" stroke-width="1" stroke-opacity="0"></use></g></g><g><use xlink:href="#de93qoq3K" opacity="1" fill="#8ed7f0" fill-opacity="1"></use><g><use xlink:href="#de93qoq3K" opacity="1" fill-opacity="0" stroke="#000000" stroke-width="1" stroke-opacity="0"></use></g></g><g><use xlink:href="#bSKmWL0DZ" opacity="1" fill="#d6f0fc" fill-opacity="1"></use><g><use xlink:href="#bSKmWL0DZ" opacity="1" fill-opacity="0" stroke="#000000" stroke-width="1" stroke-opacity="0"></use></g></g><g><use xlink:href="#d5mvlEHwC" opacity="1" fill="#bfe6f3" fill-opacity="1"></use><g><use xlink:href="#d5mvlEHwC" opacity="1" fill-opacity="0" stroke="#000000" stroke-width="1" stroke-opacity="0"></use></g></g><g><use xlink:href="#a16DH7GlbS" opacity="1" fill="#bfe6f3" fill-opacity="1"></use><g><use xlink:href="#a16DH7GlbS" opacity="1" fill-opacity="0" stroke="#000000" stroke-width="1" stroke-opacity="0"></use></g></g><g><use xlink:href="#c1l1tsUSzQ" opacity="1" fill="#bfe6f3" fill-opacity="1"></use><g><use xlink:href="#c1l1tsUSzQ" opacity="1" fill-opacity="0" stroke="#000000" stroke-width="1" stroke-opacity="0"></use></g></g><g><use xlink:href="#a1Q17eOSCC" opacity="1" fill="#65cae5" fill-opacity="1"></use><g><use xlink:href="#a1Q17eOSCC" opacity="1" fill-opacity="0" stroke="#000000" stroke-width="1" stroke-opacity="0"></use></g></g><g><use xlink:href="#b1MUgtLOwG" opacity="1" fill="#8ed7f0" fill-opacity="1"></use><g><use xlink:href="#b1MUgtLOwG" opacity="1" fill-opacity="0" stroke="#000000" stroke-width="1" stroke-opacity="0"></use></g></g><g><use xlink:href="#e2D7YjF0al" opacity="1" fill="#65cae5" fill-opacity="1"></use><g><use xlink:href="#e2D7YjF0al" opacity="1" fill-opacity="0" stroke="#000000" stroke-width="1" stroke-opacity="0"></use></g></g><g><use xlink:href="#cCLWUtQjX" opacity="1" fill="#65cae5" fill-opacity="1"></use><g><use xlink:href="#cCLWUtQjX" opacity="1" fill-opacity="0" stroke="#000000" stroke-width="1" stroke-opacity="0"></use></g></g><g><use xlink:href="#a3POuye9LU" opacity="1" fill="#d6f0fc" fill-opacity="1"></use><g><use xlink:href="#a3POuye9LU" opacity="1" fill-opacity="0" stroke="#000000" stroke-width="1" stroke-opacity="0"></use></g></g><g><use xlink:href="#a1SoeYfMaX" opacity="1" fill="#bfe6f3" fill-opacity="1"></use><g><use xlink:href="#a1SoeYfMaX" opacity="1" fill-opacity="0" stroke="#000000" stroke-width="1" stroke-opacity="0"></use></g></g><g><use xlink:href="#blfTdw4y0" opacity="1" fill="#bfe6f3" fill-opacity="1"></use><g><use xlink:href="#blfTdw4y0" opacity="1" fill-opacity="0" stroke="#000000" stroke-width="1" stroke-opacity="0"></use></g></g><g><use xlink:href="#a6F0CMqAG" opacity="1" fill="#bfe6f3" fill-opacity="1"></use><g><use xlink:href="#a6F0CMqAG" opacity="1" fill-opacity="0" stroke="#000000" stroke-width="1" stroke-opacity="0"></use></g></g><g><use xlink:href="#b29nu5vAhh" opacity="1" fill="#000000" fill-opacity="0"></use><g><use xlink:href="#b29nu5vAhh" opacity="1" fill-opacity="0" stroke="#000000" stroke-width="1" stroke-opacity="0"></use></g></g><g><use xlink:href="#a3YMpyVah" opacity="1" fill="#000000" fill-opacity="0"></use><g><use xlink:href="#a3YMpyVah" opacity="1" fill-opacity="0" stroke="#000000" stroke-width="1" stroke-opacity="0"></use></g></g><g><use xlink:href="#bcq99n7Zq" opacity="1" fill="#000000" fill-opacity="0"></use><g><use xlink:href="#bcq99n7Zq" opacity="1" fill-opacity="0" stroke="#000000" stroke-width="1" stroke-opacity="0"></use></g></g><g><use xlink:href="#bLr9x3YGi" opacity="1" fill="#8ed7f0" fill-opacity="1"></use><g><use xlink:href="#bLr9x3YGi" opacity="1" fill-opacity="0" stroke="#000000" stroke-width="1" stroke-opacity="0"></use></g></g><g><use xlink:href="#dlJMpYSI9" opacity="1" fill="#65cae5" fill-opacity="1"></use><g><use xlink:href="#dlJMpYSI9" opacity="1" fill-opacity="0" stroke="#000000" stroke-width="1" stroke-opacity="0"></use></g></g><g><use xlink:href="#ayTKA5HUJ" opacity="1" fill="#65cae5" fill-opacity="1"></use><g><use xlink:href="#ayTKA5HUJ" opacity="1" fill-opacity="0" stroke="#000000" stroke-width="1" stroke-opacity="0"></use></g></g><g><use xlink:href="#eLtFXS8Sz" opacity="1" fill="#8ed7f0" fill-opacity="1"></use><g><use xlink:href="#eLtFXS8Sz" opacity="1" fill-opacity="0" stroke="#000000" stroke-width="1" stroke-opacity="0"></use></g></g><g><use xlink:href="#b1nuAnJDak" opacity="1" fill="#d6f0fc" fill-opacity="1"></use><g><use xlink:href="#b1nuAnJDak" opacity="1" fill-opacity="0" stroke="#000000" stroke-width="1" stroke-opacity="0"></use></g></g><g><use xlink:href="#admqBt8ew" opacity="1" fill="#bfe6f3" fill-opacity="1"></use><g><use xlink:href="#admqBt8ew" opacity="1" fill-opacity="0" stroke="#000000" stroke-width="1" stroke-opacity="0"></use></g></g><g><use xlink:href="#iiIN3RGQf" opacity="1" fill="#bfe6f3" fill-opacity="1"></use><g><use xlink:href="#iiIN3RGQf" opacity="1" fill-opacity="0" stroke="#000000" stroke-width="1" stroke-opacity="0"></use></g></g><g><use xlink:href="#bmqCSnTUy" opacity="1" fill="#bfe6f3" fill-opacity="1"></use><g><use xlink:href="#bmqCSnTUy" opacity="1" fill-opacity="0" stroke="#000000" stroke-width="1" stroke-opacity="0"></use></g></g></g></g></svg>