<?xml version="1.0" encoding="UTF-8" standalone="no"?>
<!DOCTYPE svg PUBLIC "-//W3C//DTD SVG 1.1//EN" "http://www.w3.org/Graphics/SVG/1.1/DTD/svg11.dtd">
<svg version="1.1" xmlns="http://www.w3.org/2000/svg" xmlns:xlink="http://www.w3.org/1999/xlink" preserveAspectRatio="xMidYMid meet" viewBox="0 0 100 100" width="100" height="100"><defs><path d="M290.15 494.31L290.15 494.31L285.85 492.07L285.85 492.07L281.23 489.65L281.23 489.65L275.75 486.77L269.35 496.73L264.5 499.66L261.99 495.77L252.16 486.77L252.16 486.77L252.16 486.77L237.76 494.22L254.4 519.91L234.51 550.67L234.51 550.67L234.51 550.67L234.51 550.67L234.51 550.67L244.3 559.68L259.34 565.76L271.82 546.7L278.35 556.8L278.35 556.8L288.18 565.76L303.18 559.63L283.38 528.87L299.98 503.31L290.15 494.31Z" id="fhBWAIQnn"></path><path d="M512.27 389.62L489.01 446.17L488.91 446.22L474.47 451.57L464.69 442.56L437.99 378.29L455.27 374.77L465.05 383.77L469.26 393.51L480.18 390.77L486.58 374.13L502.49 380.71L512.27 389.62ZM474.51 405.62L476.07 401.65L473.14 402.42L474.51 405.62ZM471.22 398.13L477.99 396.57L479.54 392.5L470.4 396.16L471.22 398.13Z" id="abUTaVxbd"></path><path d="M270.08 389.85L258.61 376.27L249.46 367.86L248.96 367.27L248.87 367.31L248.78 367.27L248.82 367.36L248.82 367.36L248.78 367.27C231.88 379.8 222.49 386.77 220.62 388.16C219.93 388.62 219.43 389.03 219.06 389.39C219.06 389.4 219.02 389.44 219.02 389.44C217.83 390.72 217.23 392.09 217.23 393.6C217.23 394.47 217.46 395.34 217.87 396.21C217.87 396.21 217.87 396.21 217.87 396.21C218.74 398.67 221.9 401.19 224.27 402.79C225.25 403.7 233.08 411.02 234.06 411.93C234.19 412.07 234.29 412.21 234.33 412.34C234.33 412.34 234.29 412.39 234.29 412.39C234.28 412.39 234.2 412.43 234.19 412.43C234.19 412.43 234.1 412.53 233.87 412.66C232.5 413.66 225.61 418.64 213.21 427.61L226.1 441.1L226.1 441.1L235.89 450.1L265.1 427.79C265.15 427.77 265.18 427.75 265.19 427.75C266.19 426.88 266.88 426.06 267.38 425.19C267.75 424.55 267.98 423.91 268.11 423.27C268.16 422.95 268.21 422.67 268.21 422.35C268.21 421.35 267.89 420.34 267.34 419.43C267.33 419.42 267.3 419.39 267.29 419.38C267.15 419.15 266.88 418.83 266.56 418.42C266.56 418.42 266.54 418.39 266.51 418.33L251.84 404.57L250.83 403.61C250.81 403.58 250.79 403.57 250.79 403.57C250.79 403.57 250.79 403.57 250.79 403.57C250.97 403.43 251.2 403.29 251.52 403.06C253.99 401.3 260.18 396.9 270.08 389.85Z" id="bqtq0SJj"></path><path d="M585.23 374.67L576.14 400.05L568.96 386.42L559.18 377.42L559.18 377.42L559.18 377.42L551.82 396.07L546.93 384.09L537.14 375.09L541.3 385.33L541.3 385.33L537.14 375.09L519.31 379.02L542.81 440.05C542.92 440.18 542.98 440.26 542.99 440.27C543.22 440.55 543.5 440.78 543.73 440.96C544.64 441.79 551.91 448.45 552.82 449.28C553.83 450.42 554.88 450.65 555.57 450.65C556.3 450.65 556.98 450.47 557.58 450.06C557.9 449.87 558.17 449.6 558.49 449.19C558.5 449.18 558.53 449.15 558.58 449.1L567.54 431.31L572.43 440.27C572.52 440.36 572.56 440.4 572.57 440.41C572.85 440.73 573.12 440.91 573.35 441.1C574.25 441.92 581.45 448.54 582.35 449.37C583.27 450.42 584.32 450.65 585.01 450.65C585.6 450.65 586.24 450.47 586.83 450.06C587.06 449.92 587.34 449.74 587.61 449.46C587.63 449.45 587.7 449.37 587.84 449.23L610.7 392.23L600.87 383.22L600.87 383.22L585.23 374.67Z" id="b4IkJfiued"></path><path d="M341.67 392.37L338.47 398.54L338.42 398.67L324.25 398.67L324.25 445.67L306.7 449.87L296.91 440.87L296.91 438.77L296.87 432.05L296.91 432L296.91 398.49L296.37 398.49L295.95 398.72L295.73 398.49L284.3 398.54L274.51 389.53L282.38 373.94L336.82 373.94L346.56 382.9L341.67 392.37Z" id="b10U9ibMRL"></path><path d="M49.48 93.22C49.53 93.22 49.56 93.22 49.57 93.22C56.7 91.49 57.34 91.12 57.7 90.89C57.76 90.86 58.03 90.71 58.53 90.43L58.53 90.43C58.53 80.56 58.53 75.07 58.53 73.98C59.76 75.49 61.04 76.99 62.28 78.46C65.57 82.39 66.89 83.85 67.67 84.35C68.55 85.16 75.57 91.64 76.45 92.45C77.64 93.63 77.96 93.63 78.46 93.63C79.01 93.63 79.6 93.5 82.8 91.49C85.32 89.89 87.92 88.24 90.62 86.55C90.81 86.43 91.75 85.82 93.45 84.72C92.71 83.87 92.3 83.4 92.22 83.3C89.48 80.15 86.05 76.03 82.02 71.14C77.73 65.84 76.17 63.78 75.62 63.01C75.62 63.01 75.62 63.01 75.62 63.01C75.94 62.46 76.72 61.27 78.82 58.8C80.74 56.61 82.39 54.41 83.72 52.31C83.72 52.3 83.76 52.27 83.76 52.26C84.08 51.71 84.26 51.21 84.26 50.71C84.26 50.57 84.26 50.43 84.22 50.34C83.56 49.74 80.29 46.72 74.39 41.29C74.39 41.29 74.39 41.29 74.39 41.29C74.39 41.25 74.39 41.2 74.34 41.15C74.35 41.15 74.36 41.15 74.39 41.15C80.29 46.59 83.56 49.6 84.22 50.21C84.17 49.79 83.99 49.38 83.76 48.93C83.75 48.91 83.64 48.76 83.62 48.74C80.74 45.13 75.99 39.78 69.54 32.83C67.58 30.73 66.85 29.82 66.57 29.45C66.57 29.42 66.57 29.27 66.57 28.99C60.7 23.59 57.44 20.59 56.79 19.99C56.79 20.03 56.79 20.08 56.74 20.13C56.68 20.08 56.13 19.71 56.06 19.67C55.46 19.26 54.73 18.89 53.96 18.53C53.04 18.16 52.08 17.93 51.03 17.93C50.76 17.93 50.3 17.93 49.11 18.11C49.07 18.12 48.89 18.15 48.56 18.21C48.48 18.29 48.43 18.33 48.42 18.34C47.83 18.53 46 18.98 40.38 20.22C38.55 20.63 35.72 21.27 31.97 22.09C31.88 22.11 31.45 22.2 30.69 22.37L30.69 33.34L30.69 50.11L30.69 85.86L30.69 85.86L40.56 94.82L49.48 93.22Z" id="cpUPjGftE"></path><path d="M339.34 499.75L350.95 495.13L356.53 486.86L364.07 489.92L367.68 491.38L372.34 493.26L382.08 502.26L359.95 534.81L359.95 561.23L342.95 565.44L333.17 556.43L333.17 526.13L310.08 493.9L326.72 486.86L336.5 495.86L339.34 499.75ZM343.59 505.55L344.09 505.37L346.15 502.31L342.54 504.14L343.59 505.55Z" id="a6zdBToWJZ"></path><path d="M446.31 491.25L446.31 491.25L439.04 491.25L439.04 491.25L398.13 491.25L392.37 508.89L392.37 508.89L392.37 508.89L392.37 508.89L392.37 508.89L402.19 517.9L410.88 517.9L388.94 555.98L388.94 555.98L388.94 555.98L388.94 555.98L388.94 555.98L398.72 564.94L447.22 564.94L447.36 564.94L453.35 547.57L443.52 538.61L443.52 538.61L435.38 538.61L456.14 500.25L446.31 491.25Z" id="e1L4VLUqnD"></path><path d="M391.09 381.21L389.49 382.4L390.08 382.95L390.08 412.25L395.34 409.69L395.34 377.51L413.17 373.99L422.9 382.99L422.9 447.22L405.71 450.42L405.07 450.56L405.07 449.92L401.23 446.63L396.43 450.06L377.55 442.42L377.44 442.37L377.33 442.33L377.22 442.28L377.11 442.23L377.01 442.18L376.9 442.13L376.8 442.09L376.7 442.04L376.6 441.99L376.5 441.94L376.4 441.89L376.31 441.84L376.21 441.79L376.12 441.74L376.03 441.7L375.94 441.65L375.85 441.6L375.76 441.55L375.68 441.5L375.59 441.45L375.51 441.4L375.43 441.34L375.35 441.29L375.27 441.24L375.2 441.19L375.12 441.14L375.05 441.08L374.98 441.03L374.9 440.98L374.84 440.93L374.77 440.87L374.7 440.82L374.63 440.76L374.57 440.71L374.51 440.65L374.45 440.59L374.39 440.54L374.33 440.48L374.27 440.42L374.22 440.37L365.85 432.59L365.44 432.18L365.39 432.14L365.33 432.1L365.3 432.08L365.28 432.06L365.25 432.04L365.22 432.02L365.19 432L365.17 431.98L365.14 431.96L365.11 431.94L365.09 431.92L365.06 431.89L365.03 431.87L365.01 431.85L364.98 431.83L364.95 431.81L364.93 431.79L364.9 431.77L364.88 431.75L364.85 431.73L364.83 431.71L364.8 431.69L364.78 431.67L364.75 431.65L364.73 431.63L364.7 431.61L364.68 431.59L364.66 431.57L364.63 431.55L364.61 431.52L364.59 431.5L364.56 431.48L364.54 431.46L364.52 431.44L364.5 431.42L364.48 431.4L364.46 431.38L364.43 431.36L364.28 431.2L364.12 431.04L363.97 430.88L363.82 430.72L363.68 430.55L363.54 430.37L363.4 430.2L363.27 430.02L363.14 429.83L363.02 429.65L362.9 429.46L362.79 429.27L362.67 429.07L362.57 428.87L362.46 428.67L362.36 428.46L362.27 428.25L362.18 428.04L362.09 427.82L362.01 427.61L361.93 427.38L361.85 427.16L361.78 426.93L361.71 426.7L361.65 426.46L361.59 426.23L361.53 425.99L361.48 425.74L361.44 425.5L361.39 425.25L361.35 424.99L361.32 424.74L361.29 424.48L361.26 424.22L361.24 423.95L361.22 423.68L361.21 423.41L361.2 423.14L361.19 422.86L361.19 422.58L361.19 378.15L380.25 373.9L389.21 382.13L391.09 381.21ZM390.13 424.37L395.38 426.42L395.38 421.81L394.24 422.45L395.38 421.53L395.38 419.2L390.13 422.49L390.13 424.37ZM390.13 417.14L395.38 413.76L395.38 412.11L390.13 414.08L390.13 417.14Z" id="c65FNEcjxQ"></path><path d="M241.23 474.15L243.43 487.09L236.62 490.56L246.54 505.87L246.86 507.89L259.38 507.38L261.53 499.34L251.06 483.15L241.23 474.15Z" id="cMJC8gxP5"></path><path d="M276.89 484.34L274.61 483.11L265.69 497.01L262.45 500.71L261.53 499.34L259.38 507.38L262.67 507.29L272.46 516.25L289.05 490.7L279.22 481.69L276.89 484.34Z" id="b4g02K94z"></path><path d="M249.87 514.88L253.3 516.25L250.01 511.18L249.87 514.88Z" id="a4jnbRyO5h"></path><path d="M249.87 514.88L249.6 522.01L253.3 516.25L249.87 514.88Z" id="cIPQfyTA"></path><path d="M265.97 538.19L267.43 544.14L277.26 553.14L292.3 547.02L282.47 538.06L265.97 538.19Z" id="bBzsY5j7v"></path><path d="M272.46 516.25L262.67 507.29L246.86 507.89L247.09 509.03L244.21 512.55L249.87 514.88L250.01 511.18L253.3 516.25L262.35 531.84L262.86 531.02L265.01 534.31L265.97 538.19L282.47 538.06L292.3 547.02L272.46 516.25Z" id="b9uUxyGdf"></path><path d="M223.59 538.06L233.37 547.06L248.41 553.14L238.63 544.14L223.82 537.78L223.59 538.06Z" id="cxWhovjZD"></path><path d="M249.87 514.88L244.21 512.55L223.82 537.78L238.63 544.14L248.41 553.14L262.35 531.84L253.3 516.25L249.6 522.01L249.87 514.88Z" id="f4uf8c7bc2"></path><path d="M264.82 474.15L253.07 492.43L241.23 474.15L226.83 481.6L243.47 507.29L223.59 538.06L238.63 544.14L253.07 522.06L267.43 544.14L282.47 538.06L262.67 507.29L279.22 481.69L264.82 474.15Z" id="a19GHrCCjc"></path><path d="M247.04 488.73L238.95 495.73L270.31 477.03L274.93 479.45L248.41 496.32L264.14 489.55L241.55 504.27L236.02 495.73L247.04 488.73Z" id="b1LfnEIYAw"></path><path d="M253.03 518.35L265.33 514.29L238.08 534.45L269.35 517.67L264.55 510.17L253.03 518.35Z" id="f4jzAxMbt1"></path><path d="M457.37 424.09L453.76 429.99L463.59 438.99L478.03 433.65L468.3 424.64L456.91 422.95L457.37 424.09Z" id="d6rttJgnq2"></path><path d="M491.57 368.09L489.14 372.07L485.49 370.51L477.62 390.95L468.89 405.26L454.13 371.2L444.34 362.19L448.69 372.3L436.89 374.72L456.91 422.95L468.3 424.64L478.03 433.65L478.13 433.6L501.39 377.1L491.57 368.09Z" id="dJu5SP7tD"></path><path d="M444.34 362.19L427.06 365.76L453.76 429.99L468.3 424.64L491.57 368.09L475.66 361.55L460.8 400.27L444.34 362.19Z" id="b8eVQjUrn"></path><path d="M452.48 404.34L475.52 402.15L448.69 410.06L475.84 406.31L479.54 397.35L452.48 404.34Z" id="bzX8qjGxK"></path><path d="M448.46 380.94L439.68 385.65L478.67 375.82L446.77 388.66L486.99 379.29L485.12 383.77L439.54 395.75L435.06 384.96L448.46 380.94Z" id="a5JMxhkf4v"></path><path d="M247.63 363.66L237.85 354.65L246.31 364.66L244.34 366.08L249.33 368.27L259.11 377.23L247.63 363.66Z" id="bb6u7r0fC"></path><path d="M240.87 391.91L239.86 390.95C239.84 390.92 239.82 390.91 239.82 390.9C239.82 390.9 239.82 390.9 239.82 390.9C240 390.77 240.23 390.63 240.55 390.45C241.79 389.56 247.97 385.16 259.11 377.23L249.33 368.23L244.34 366.08L223.73 381.35L230.03 381.94L234.51 391.59L240.87 391.91Z" id="a3e1B1c8op"></path><path d="M232.96 408.37C233.1 408.5 233.19 408.64 233.23 408.78C233.23 408.78 233.19 408.82 233.19 408.82C233.18 408.83 233.11 408.86 233.1 408.87C233.1 408.87 233.01 408.96 232.78 409.1C231.4 410.09 224.51 415.08 212.11 424.05L215.91 428.02L215.22 428.53L225.01 437.53L254.22 415.22C254.27 415.2 254.3 415.18 254.31 415.18C255.31 414.31 256 413.49 256.5 412.62C256.87 411.98 257.1 411.34 257.23 410.7C256.59 410.08 253.34 406.97 247.5 401.37L228.16 403.89C231.04 406.57 232.64 408.07 232.96 408.37Z" id="aJTBqowMd"></path><path d="M256.41 406.86C256.23 406.58 256 406.26 255.68 405.9C255.68 405.89 255.66 405.86 255.63 405.81L240.91 391.91L234.56 391.59L230.08 381.94L223.77 381.35C221.19 383.24 219.76 384.29 219.47 384.5C218.79 384.96 218.29 385.37 217.92 385.74C217.92 385.74 217.88 385.78 217.87 385.78C216.69 387.06 216.09 388.43 216.09 389.94C216.09 391.36 216.69 392.78 217.83 394.15C217.83 394.15 217.85 394.19 217.87 394.24L228.11 403.84L247.41 401.33C253.25 406.92 256.49 410.03 257.14 410.65C257.19 410.33 257.23 410.06 257.23 409.74C257.28 408.78 257.01 407.77 256.41 406.86C256.41 406.86 256.41 406.86 256.41 406.86Z" id="byDcAYZ4R"></path><path d="M222.99 400.14C221.62 401.13 214.73 406.12 202.33 415.09L215.22 428.57L244.43 406.26C244.49 406.24 244.52 406.22 244.53 406.22C245.53 405.35 246.22 404.53 246.72 403.66C247.27 402.74 247.5 401.78 247.5 400.82C247.5 399.82 247.18 398.81 246.63 397.9C246.62 397.89 246.59 397.86 246.58 397.85C246.45 397.62 246.17 397.3 245.85 396.89C245.85 396.89 245.83 396.85 245.81 396.8L230.08 381.99C230.05 381.96 230.04 381.95 230.03 381.94C230.03 381.94 230.03 381.94 230.03 381.94C230.22 381.81 230.45 381.67 230.77 381.49C232 380.6 238.19 376.2 249.33 368.27L237.85 354.7C220.96 367.23 211.57 374.2 209.69 375.59C209.01 376.05 208.5 376.46 208.14 376.82C208.13 376.83 208.1 376.86 208.09 376.87C206.9 378.15 206.31 379.52 206.31 381.03C206.31 382.45 206.9 383.86 208.05 385.23C208.05 385.24 208.06 385.27 208.09 385.33C217.12 393.77 222.13 398.47 223.13 399.41C223.27 399.54 223.36 399.68 223.41 399.82C223.41 399.82 223.36 399.86 223.36 399.86C223.36 399.87 223.34 399.88 223.31 399.91C223.25 399.97 223.15 400.05 222.99 400.14Z" id="aaHo3PxJ"></path><path d="M225.78 371.79L216.09 384.46L244.11 364.85C227.3 381.11 217.96 390.15 216.09 391.95C216.09 391.91 208.41 387.7 206.95 383.59C209.46 382.02 215.74 378.08 225.78 371.79Z" id="bisQ7WNlq"></path><path d="M216.09 419.43C225.09 417.62 230.09 416.61 231.09 416.41C231.09 416.41 244.94 409.6 246.08 404.43C242.08 406.43 232.09 411.43 216.09 419.43Z" id="b9wQFGmKE"></path><path d="M558.95 419.7L560.41 416.73L558.95 414.03L557.44 417.01L558.95 419.7Z" id="b64QsYsGTt"></path><path d="M536.59 423.36L532.02 427.7C537.89 433.11 541.15 436.11 541.81 436.71C542.81 437.85 543.86 438.08 544.55 438.08C545.28 438.08 545.97 437.9 546.56 437.49C546.88 437.3 547.15 437.03 547.47 436.62C547.48 436.61 547.51 436.58 547.57 436.53L557.39 417.05L549.85 403.38L531.47 410.06L536.59 423.36Z" id="g2n1VOxzGK"></path><path d="M548.25 364.85L554.42 382.99L547.66 400.09L536 371.52L526.17 362.51L530.38 372.75L518.13 375.45L531.47 410.06L549.9 403.34L557.44 417.01L558.95 414.03L560.41 416.73L570.19 396.8L558.03 373.81L548.25 364.85Z" id="a5fzpgBA"></path><path d="M588.75 373.58L584.14 371.06L572.98 402.19L570.15 396.85L560.41 416.73L565.53 426.1L561.46 427.66C567.41 433.14 570.72 436.19 571.38 436.8C572.3 437.85 573.35 438.08 574.03 438.08C574.63 438.08 575.27 437.9 575.86 437.49C576.09 437.35 576.37 437.17 576.64 436.89C576.66 436.88 576.73 436.8 576.87 436.66L599.73 379.66L589.94 370.61L588.75 373.58Z" id="jhRyGm8zI"></path><path d="" id="bOdzLEhEQ"></path><path d="M548.25 364.85L537.83 391.13L526.17 362.51L508.34 366.45L531.84 427.47C531.95 427.61 532.01 427.69 532.02 427.7C533.03 428.85 534.08 429.07 534.77 429.07C535.5 429.07 536.18 428.89 536.78 428.48C537.1 428.3 537.37 428.02 537.69 427.61C537.7 427.61 537.73 427.57 537.78 427.52L549.12 405.07L561.46 427.66C561.55 427.74 561.59 427.79 561.6 427.79C562.51 428.85 563.57 429.07 564.25 429.07C564.85 429.07 565.49 428.89 566.08 428.48C566.31 428.34 566.58 428.16 566.86 427.89C566.87 427.87 566.95 427.79 567.09 427.66L589.94 370.65L574.31 362.1L563.2 393.19L548.25 364.85Z" id="aInAWiS5"></path><path d="M530.47 383.18L521.05 390.95L558.95 379.29L525.67 395.02L539.66 393.83L521.14 399.68L517.3 389.76L530.47 383.18Z" id="c2MLonZ2Bg"></path><path d="M576.82 403.34L541.81 417.01L564.43 404.39L527.73 416.82C526.79 414.38 526.28 413.03 526.17 412.75C526.17 412.75 575.45 395.38 574.63 395.02C573.81 394.65 555.02 395.79 555.02 395.79C556.83 395.39 565.92 393.38 582.26 389.76L576.82 403.34Z" id="h4JATdwCuw"></path><path d="M295.77 421.71L303.54 423.59L313.33 432.78L313.33 386.06L303.54 377.05L295.77 385.97L295.77 421.71Z" id="b2b9bP3y5e"></path><path d="M295.77 425.87L285.99 428.25L295.77 437.21L313.33 433.05L313.33 432.78L303.54 423.59L295.77 421.71L295.77 425.87Z" id="ajggJrhEV"></path><path d="M325.9 361.28L321.23 370.29C316.35 370.29 313.64 370.29 313.1 370.29C315.29 373.53 317.71 377.05 317.71 377.05C318.37 377.64 321.66 380.6 327.59 385.92L330.79 379.75L335.68 370.29L325.9 361.28Z" id="aNp1YNnf7"></path><path d="M281.23 370.29L277.94 376.82L263.59 376.87L273.37 385.87L295.77 385.78L295.77 385.97L303.54 377.05L313.33 386.06L327.5 386.06L327.54 385.92C321.65 380.6 318.37 377.64 317.71 377.05C317.71 377.05 315.29 373.53 313.1 370.29C308.85 370.29 298.23 370.29 281.23 370.29Z" id="eGmkNUgwG"></path><path d="M303.54 377.05L317.71 377.05L325.9 361.33L271.45 361.33L263.59 376.91L285.99 376.82L285.99 428.25L303.54 424.05L303.54 377.05Z" id="g26NLneGjl"></path><path d="M292.57 404.94L303.54 398.4L303.54 393.55L292.57 404.94Z" id="a36vnzFatn"></path><path d="M300.57 409.37L292.57 417.19L303.54 410.7L303.54 415.45L285.99 426.15L285.94 419.43L300.57 409.37Z" id="b1e8B9RjyM"></path><path d="M295.77 367.86L287.13 374.63L317.81 361.46L320.55 361.33L289.1 379.02L308.34 373.62L285.03 386.06L274.79 376.55L295.77 367.86Z" id="a4JV4gk4D"></path><path d="M72.79 36.03C69.91 32.42 65.16 27.07 58.71 20.13C56.74 18.02 56.01 17.11 55.74 16.74C55.74 16.71 55.74 16.56 55.74 16.29C49.87 10.88 46.61 7.88 45.96 7.28C45.5 8.56 47.42 11.39 49.61 14.09C49.29 14.09 48.84 14.18 48.1 14.27C48.07 14.28 47.88 14.31 47.56 14.37C47.47 14.45 47.43 14.49 47.42 14.5C47.05 14.59 46.23 14.82 44.4 15.23C44.84 17.04 48.31 31.53 48.74 33.34C49.2 33.7 49.61 34.02 49.98 34.3C50.44 34.66 50.85 34.98 51.21 35.3C52.04 34.85 56.19 32.56 63.65 28.45C69.54 33.88 72.82 36.89 73.48 37.5C73.34 37.04 73.16 36.63 72.93 36.22C72.9 36.18 72.8 36.05 72.79 36.03Z" id="bZTfo5EoP"></path><path d="M30.87 18.3C30.78 18.32 30.36 18.41 29.59 18.57L29.59 39.83L47.6 38.91C47.6 35.1 47.6 32.98 47.6 32.56C48.01 32.83 48.33 33.11 48.65 33.38C48.22 31.57 44.74 17.09 44.31 15.28C43.17 15.51 41.52 15.92 39.28 16.42C37.45 16.83 34.62 17.47 30.87 18.3Z" id="bbM4YTHSZ"></path><path d="M71.14 58.48C66.85 53.18 65.29 51.12 64.74 50.34C64.74 50.34 64.74 50.34 64.74 50.34C64.09 49.74 60.83 46.72 54.96 41.29C53.7 40.61 53 40.22 52.86 40.15C52.26 40.74 51.4 41.43 50.21 42.34C49.11 43.17 48.29 43.76 47.6 44.22C47.6 43.87 47.6 42.13 47.6 39.01L29.59 39.92L29.59 66.89L37.77 68.72L47.56 77.68C47.56 66.13 47.56 59.72 47.56 58.43C48.47 59.49 49.84 61.09 51.81 63.46C53.04 64.97 54.32 66.53 55.6 68.08C56.74 67.74 62.44 66.03 72.7 62.96L82.48 71.97L81.34 70.64C77.22 65.79 73.83 61.74 71.14 58.48Z" id="dlyvnPNZ2"></path><path d="M51.12 35.39C51.03 35.45 50.55 35.71 49.7 36.17C50.55 35.71 51.03 35.45 51.12 35.39C50.76 35.07 50.34 34.75 49.89 34.39C49.29 33.93 48.56 33.38 47.6 32.65C47.6 33.81 47.6 43.06 47.6 44.22C48.29 43.76 49.11 43.12 50.21 42.34C51.4 41.43 52.22 40.74 52.86 40.15C52.65 40.04 51.6 39.47 49.7 38.46C51.6 39.47 52.65 40.04 52.86 40.15C53.82 39.23 54.14 38.73 54.28 38.46C54.05 38.09 53.32 37.22 51.12 35.39Z" id="aayPWMTYD"></path><path d="M54.28 38.5C54.14 38.73 53.82 39.28 52.86 40.19C53 40.27 53.7 40.65 54.96 41.34C60.86 46.71 64.13 49.7 64.79 50.3C65.11 49.75 65.89 48.56 67.99 46.09C69.91 43.9 71.56 41.7 72.88 39.6C72.89 39.6 72.92 39.56 72.93 39.55C73.25 39.01 73.43 38.5 73.43 38C73.43 37.86 73.43 37.73 73.38 37.63C72.73 37.03 69.45 34.01 63.56 28.58L51.12 35.44C53.07 37.24 54.12 38.26 54.28 38.5Z" id="mc654NIXs"></path><path d="M29.64 71.1L19.85 73.15L29.64 82.16L38.55 80.56C38.6 80.56 38.64 80.56 38.64 80.56C45.77 78.82 46.41 78.46 46.78 78.23C46.83 78.2 47.11 78.05 47.6 77.77L47.6 77.77L37.82 68.81L29.64 66.94L29.64 71.1Z" id="bnTlkDM2t"></path><path d="M55.69 68.17C56.47 69.13 57.29 70.09 58.12 71.05C58.03 71.09 57.59 71.29 56.79 71.65C62.06 76.5 64.98 79.2 65.57 79.74C66.76 80.93 67.08 80.93 67.58 80.93C68.13 80.93 68.72 80.79 71.92 78.78C74.44 77.18 77.04 75.53 79.74 73.84C79.93 73.72 80.87 73.11 82.57 72.01L72.79 63.05C62.53 66.12 56.83 67.83 55.69 68.17Z" id="dJNJF3GQd"></path><path d="M40.31 5.18L40.38 5.18L40.46 5.18L40.54 5.19L40.62 5.19L40.69 5.2L40.77 5.2L40.85 5.21L40.92 5.22L41 5.23L41.07 5.24L41.15 5.25L41.22 5.26L41.3 5.27L41.37 5.28L41.44 5.29L41.52 5.31L41.59 5.32L41.66 5.34L41.74 5.35L41.81 5.37L41.88 5.39L41.95 5.4L42.03 5.42L42.1 5.44L42.17 5.46L42.24 5.48L42.31 5.5L42.38 5.52L42.45 5.55L42.52 5.57L42.59 5.59L42.66 5.62L42.73 5.64L42.8 5.67L42.87 5.69L42.94 5.72L43.01 5.74L43.08 5.77L43.13 5.8L43.19 5.83L43.25 5.85L43.31 5.88L43.36 5.91L43.42 5.94L43.48 5.96L43.54 5.99L43.59 6.02L43.65 6.05L43.7 6.07L43.76 6.1L43.82 6.13L43.87 6.16L43.93 6.19L43.98 6.21L44.03 6.24L44.09 6.27L44.14 6.3L44.2 6.33L44.25 6.35L44.3 6.38L44.35 6.41L44.41 6.44L44.46 6.47L44.51 6.5L44.56 6.53L44.61 6.56L44.66 6.58L44.71 6.61L44.76 6.64L44.81 6.67L44.85 6.7L44.9 6.73L44.95 6.76L45 6.79L45.04 6.82L45.09 6.85L45.13 6.88L45.18 6.91L45.91 7.42L45.91 7.87L45.93 7.9L45.95 7.93L45.98 7.97L46.01 8L46.04 8.04L46.07 8.08L46.1 8.12L46.14 8.16L46.17 8.21L46.21 8.26L46.26 8.31L46.3 8.37L46.35 8.43L46.4 8.49L46.45 8.55L46.51 8.62L46.57 8.69L46.63 8.76L46.69 8.84L46.76 8.91L46.83 9L46.91 9.08L46.98 9.17L47.07 9.26L47.15 9.36L47.24 9.46L47.33 9.56L47.42 9.67L47.52 9.78L47.63 9.89L47.73 10.01L47.84 10.13L47.96 10.26L48.08 10.39L48.2 10.52L48.33 10.66L48.46 10.8L48.6 10.95L48.74 11.1L48.88 11.26L49.36 11.78L49.84 12.29L50.3 12.79L50.76 13.29L51.22 13.79L51.67 14.28L52.11 14.76L52.54 15.23L52.97 15.7L53.4 16.17L53.81 16.62L54.22 17.08L54.62 17.52L55.02 17.96L55.41 18.39L55.79 18.82L56.17 19.24L56.54 19.65L56.9 20.06L57.26 20.46L57.61 20.86L57.95 21.25L58.29 21.63L58.62 22.01L58.94 22.38L59.26 22.74L59.57 23.1L59.87 23.45L60.16 23.8L60.45 24.13L60.73 24.47L61.01 24.79L61.28 25.11L61.54 25.42L61.79 25.73L62.04 26.03L62.28 26.32L62.52 26.61L62.74 26.89L62.96 27.17L63.1 27.35L63.12 27.39L63.15 27.43L63.17 27.47L63.19 27.51L63.21 27.55L63.23 27.6L63.25 27.64L63.27 27.68L63.29 27.72L63.31 27.76L63.33 27.8L63.35 27.84L63.37 27.88L63.38 27.92L63.4 27.97L63.41 28.01L63.43 28.05L63.44 28.09L63.46 28.13L63.47 28.17L63.48 28.21L63.49 28.25L63.51 28.29L63.52 28.34L63.53 28.38L63.54 28.42L63.54 28.46L63.55 28.5L63.56 28.54L63.57 28.58L63.57 28.62L63.58 28.67L63.58 28.71L63.59 28.75L63.59 28.79L63.6 28.83L63.6 28.87L63.6 28.91L63.6 28.95L63.6 28.99L63.6 29.03L63.6 29.07L63.6 29.11L63.6 29.15L63.59 29.18L63.59 29.22L63.58 29.26L63.58 29.3L63.57 29.33L63.57 29.37L63.56 29.41L63.55 29.45L63.54 29.49L63.54 29.52L63.53 29.56L63.52 29.6L63.51 29.64L63.49 29.68L63.48 29.72L63.47 29.75L63.46 29.79L63.44 29.83L63.43 29.87L63.41 29.91L63.4 29.95L63.38 29.99L63.37 30.03L63.35 30.07L63.33 30.11L63.31 30.14L63.29 30.18L63.27 30.22L63.25 30.26L63.23 30.3L63.21 30.34L63.19 30.39L63.17 30.43L63.15 30.47L63.12 30.51L63.1 30.55L63.05 30.59L62.95 30.75L62.85 30.91L62.75 31.07L62.65 31.23L62.54 31.39L62.43 31.55L62.33 31.71L62.22 31.87L62.11 32.03L62 32.19L61.89 32.35L61.77 32.51L61.66 32.67L61.54 32.83L61.43 32.99L61.31 33.16L61.19 33.32L61.07 33.48L60.95 33.64L60.83 33.81L60.71 33.97L60.58 34.13L60.46 34.3L60.33 34.46L60.2 34.62L60.07 34.79L59.94 34.95L59.81 35.11L59.68 35.28L59.55 35.44L59.42 35.61L59.28 35.77L59.14 35.93L59.01 36.1L58.87 36.26L58.73 36.43L58.59 36.59L58.45 36.76L58.3 36.92L58.16 37.09L58 37.27L57.85 37.45L57.7 37.63L57.56 37.8L57.42 37.97L57.28 38.13L57.15 38.29L57.02 38.44L56.9 38.59L56.79 38.73L56.67 38.87L56.56 39.01L56.46 39.14L56.36 39.27L56.26 39.39L56.17 39.51L56.08 39.63L56 39.74L55.91 39.84L55.84 39.95L55.76 40.05L55.69 40.15L55.62 40.24L55.56 40.33L55.5 40.41L55.44 40.5L55.38 40.58L55.33 40.65L55.28 40.73L55.24 40.79L55.19 40.86L55.15 40.93L55.11 40.99L55.08 41.04L55.05 41.1L55.01 41.15L54.99 41.2L54.96 41.25L54.94 41.29L54.92 41.34L54.96 41.4L55.01 41.46L55.06 41.53L55.11 41.61L55.17 41.69L55.24 41.78L55.31 41.87L55.38 41.97L55.46 42.08L55.54 42.19L55.63 42.31L55.73 42.44L55.83 42.57L55.94 42.71L56.05 42.86L56.17 43.01L56.29 43.17L56.43 43.34L56.56 43.52L56.71 43.71L56.86 43.9L57.02 44.11L57.19 44.32L57.36 44.54L57.55 44.77L57.74 45.01L57.94 45.27L58.14 45.52L58.36 45.79L58.58 46.07L58.81 46.37L59.05 46.67L59.3 46.98L59.56 47.3L59.83 47.63L60.11 47.98L60.39 48.34L60.69 48.7L61 49.08L61.32 49.47L61.62 49.84L61.91 50.2L62.21 50.56L62.5 50.92L62.8 51.27L63.09 51.62L63.37 51.97L63.66 52.31L63.94 52.66L64.22 52.99L64.5 53.33L64.77 53.66L65.05 53.99L65.32 54.32L65.59 54.64L65.85 54.96L66.12 55.28L66.38 55.59L66.64 55.9L66.89 56.21L67.15 56.51L67.4 56.81L67.65 57.11L67.9 57.4L68.14 57.69L68.38 57.98L68.62 58.26L68.86 58.54L69.09 58.82L69.33 59.09L69.56 59.36L69.78 59.63L70.01 59.89L70.23 60.15L70.45 60.41L70.67 60.66L70.88 60.91L71.09 61.15L71.3 61.4L71.51 61.63L72.74 63.05L69.91 64.88L69.71 65.01L69.51 65.13L69.3 65.26L69.1 65.39L68.9 65.51L68.7 65.64L68.5 65.76L68.3 65.89L68.1 66.01L67.9 66.14L67.71 66.27L67.51 66.39L67.31 66.51L67.11 66.64L66.91 66.76L66.72 66.89L66.52 67.01L66.32 67.14L66.13 67.26L65.93 67.38L65.74 67.51L65.54 67.63L65.35 67.75L65.15 67.88L64.96 68L64.77 68.12L64.57 68.24L64.38 68.36L64.19 68.49L64 68.61L63.8 68.73L63.61 68.85L63.42 68.97L63.23 69.09L63.04 69.21L62.85 69.34L62.66 69.46L62.47 69.58L62.28 69.7L62.09 69.82L61.86 69.96L61.63 70.11L61.42 70.24L61.21 70.37L61.01 70.49L60.82 70.6L60.64 70.71L60.46 70.81L60.3 70.91L60.14 71L59.99 71.09L59.85 71.17L59.71 71.24L59.58 71.31L59.46 71.38L59.34 71.44L59.23 71.5L59.12 71.55L59.02 71.6L58.93 71.65L58.84 71.69L58.75 71.72L58.67 71.76L58.59 71.79L58.52 71.82L58.45 71.84L58.39 71.86L58.32 71.88L58.27 71.9L58.21 71.91L58.16 71.93L58.1 71.94L58.06 71.94L58.01 71.95L57.96 71.96L57.92 71.96L57.88 71.96L57.83 71.96L57.79 71.97L57.75 71.97L57.69 71.97L57.62 71.96L57.56 71.96L57.5 71.96L57.44 71.95L57.38 71.94L57.32 71.93L57.25 71.92L57.18 71.89L57.12 71.87L57.04 71.84L56.97 71.8L56.89 71.75L56.81 71.7L56.72 71.64L56.62 71.57L56.52 71.49L56.41 71.4L56.3 71.3L56.18 71.19L56.05 71.07L55.91 70.93L55.76 70.78L55.6 70.62L55.44 70.45L55.26 70.26L55.07 70.05L54.87 69.83L54.65 69.6L54.43 69.34L54.19 69.07L53.93 68.78L53.67 68.47L53.38 68.15L53.09 67.8L52.77 67.43L52.44 67.05L52.1 66.64L51.73 66.2L51.35 65.75L51.11 65.47L50.88 65.19L50.64 64.91L50.4 64.62L50.17 64.34L49.93 64.06L49.7 63.78L49.46 63.5L49.23 63.22L48.99 62.94L48.76 62.66L48.52 62.38L48.29 62.1L48.06 61.81L47.82 61.53L47.59 61.25L47.36 60.97L47.12 60.69L46.89 60.41L46.66 60.13L46.43 59.85L46.19 59.57L45.96 59.29L45.73 59.01L45.5 58.73L45.27 58.45L45.04 58.17L44.81 57.89L44.58 57.61L44.35 57.33L44.12 57.05L43.89 56.78L43.66 56.5L43.43 56.22L43.21 55.94L42.98 55.66L42.75 55.38L42.52 55.1L42.3 54.83L42.07 54.55L41.92 54.37L41.78 54.2L41.64 54.03L41.5 53.86L41.36 53.69L41.22 53.53L41.09 53.37L40.96 53.21L40.83 53.06L40.7 52.91L40.58 52.76L40.46 52.61L40.34 52.47L40.22 52.33L40.1 52.19L39.99 52.05L39.87 51.92L39.76 51.79L39.66 51.66L39.55 51.54L39.45 51.41L39.34 51.29L39.24 51.18L39.14 51.06L39.05 50.95L38.95 50.84L38.86 50.73L38.77 50.62L38.68 50.52L38.59 50.41L38.51 50.32L38.42 50.22L38.34 50.12L38.26 50.03L38.18 49.94L38.11 49.85L38.03 49.77L37.96 49.68L37.89 49.6L37.82 49.52L37.82 68.77L37 69.22L36.97 69.24L36.94 69.25L36.9 69.27L36.85 69.29L36.79 69.31L36.72 69.33L36.64 69.36L36.55 69.39L36.46 69.42L36.35 69.45L36.23 69.49L36.11 69.53L35.98 69.57L35.83 69.61L35.68 69.66L35.52 69.71L35.35 69.76L35.17 69.81L34.98 69.86L34.78 69.92L34.57 69.98L34.35 70.04L34.13 70.11L33.89 70.17L33.65 70.24L33.39 70.31L33.13 70.39L32.85 70.46L32.57 70.54L32.28 70.62L31.98 70.7L31.67 70.79L31.35 70.88L31.02 70.97L30.69 71.06L30.34 71.15L29.98 71.25L29.62 71.35L29.24 71.45L28.86 71.55L28.72 71.51L19.81 73.11L19.81 9.61L21.09 9.34L21.37 9.28L21.64 9.22L21.91 9.16L22.18 9.1L22.45 9.04L22.71 8.98L22.97 8.92L23.23 8.87L23.48 8.81L23.73 8.76L23.97 8.7L24.21 8.65L24.45 8.59L24.68 8.54L24.91 8.49L25.14 8.44L25.36 8.39L25.58 8.34L25.8 8.29L26.01 8.25L26.22 8.2L26.43 8.15L26.63 8.11L26.83 8.06L27.02 8.02L27.21 7.98L27.4 7.93L27.58 7.89L27.76 7.85L27.94 7.81L28.11 7.77L28.28 7.74L28.45 7.7L28.61 7.66L28.77 7.63L29.22 7.53L29.36 7.49L29.5 7.46L29.91 7.37L30.31 7.28L30.7 7.2L31.07 7.12L31.43 7.04L31.78 6.96L32.12 6.88L32.44 6.81L32.75 6.74L33.04 6.68L33.33 6.61L33.6 6.55L33.87 6.49L34.12 6.43L34.36 6.38L34.59 6.32L34.81 6.27L35.02 6.22L35.22 6.18L35.41 6.13L35.59 6.09L35.76 6.05L35.92 6.01L36.07 5.97L36.22 5.94L36.36 5.9L36.49 5.87L36.61 5.84L36.72 5.81L36.83 5.79L36.93 5.76L37.02 5.74L37.1 5.71L37.18 5.69L37.26 5.67L37.33 5.65L37.39 5.63L37.45 5.62L37.5 5.6L37.54 5.59L37.68 5.45L38.23 5.36L38.32 5.35L38.4 5.33L38.49 5.32L38.56 5.31L38.64 5.3L38.72 5.29L38.79 5.28L38.86 5.27L38.93 5.26L38.99 5.25L39.06 5.25L39.12 5.24L39.18 5.23L39.23 5.23L39.29 5.22L39.34 5.22L39.39 5.21L39.44 5.21L39.49 5.2L39.53 5.2L39.58 5.2L39.62 5.19L39.66 5.19L39.7 5.19L39.74 5.19L39.77 5.18L39.81 5.18L39.84 5.18L39.87 5.18L39.9 5.18L39.93 5.18L39.96 5.18L39.99 5.18L40.01 5.18L40.04 5.18L40.06 5.18L40.08 5.18L40.11 5.18L40.15 5.18L40.23 5.18L40.31 5.18ZM38.25 34.96L38.71 34.62L39.22 34.25L39.77 33.83L40.38 33.38L41.98 32.12L43.1 31.13L43.83 30.37L44.25 29.84L44.45 29.5L44.19 29.16L43.71 28.61L42.92 27.83L41.74 26.78L40.1 25.43L39.73 25.16L39.32 24.85L38.87 24.5L38.37 24.11L37.82 23.69L37.82 35.26L38.25 34.96Z" id="a5nWVZOe83"></path><path d="M37.45 13.73L23.46 22.41L42.89 15.23L23.46 27.21L53.41 16.15L56.97 20.13L19.81 37.45L19.81 20.67L37.45 13.73Z" id="a4TYNlzla5"></path><path d="M29.64 52.45L50.94 45.09L43.3 51.81L59.12 46.69L54.96 41.29L29.64 52.45Z" id="a3YKszyqM"></path><path d="M361.42 480.64L358.72 484.57L355.43 483.25L341.07 504.5L340.98 504.37L339.57 513.51L349.07 522.19L371.2 489.65L361.42 480.64Z" id="guwNksFJ5"></path><path d="M315.84 474.24L323.15 484.3L308.98 490.29C319.68 505.23 325.62 513.54 326.81 515.2C332.66 514.33 339.25 513.23 339.25 513.23C339.27 513.25 339.37 513.34 339.57 513.51L340.98 504.37L325.62 483.25L315.84 474.24Z" id="c1rnbTMQbc"></path><path d="M332.02 541.39L322.24 543.82L332.02 552.82L349.07 548.57L349.07 548.48L339.25 539.61L332.02 540.71L332.02 541.39Z" id="g1S0UVUUxl"></path><path d="M339.25 513.23C339.25 513.23 332.62 514.33 326.81 515.2C327.16 515.69 328.91 518.13 332.07 522.51L332.07 540.71L339.29 539.57L349.07 548.48L349.07 522.19L349.07 522.19C343.18 516.82 339.9 513.83 339.25 513.23Z" id="de93qoq3K"></path><path d="M315.79 474.29L299.15 481.33L322.24 513.51L322.24 543.82L339.25 539.61L339.25 513.23L361.42 480.64L345.6 474.29L331.29 495.54L315.79 474.29Z" id="bSKmWL0DZ"></path><path d="M329.55 522.19L338.56 520.27L322.24 532.85L322.24 535.95L339.57 524.75L339.25 516.25L329.55 522.19Z" id="d5mvlEHwC"></path><path d="M334.72 506.1L347.06 501.71L350.03 497.37L334.72 506.1Z" id="a16DH7GlbS"></path><path d="M321.78 486.58L314.15 492.85L353.14 477.3L356.75 478.77L316.89 498.97L345.1 488.14L316.16 505.1L308.02 493.67L321.78 486.58Z" id="c1l1tsUSzQ"></path><path d="M435.38 478.63L414.95 505.23L399.77 531.57L423.36 528L445.21 487.59L435.38 478.63Z" id="a1Q17eOSCC"></path><path d="M423.36 528L399.77 531.57L397.26 535.95L426.65 543.36L436.3 552.32L436.43 552.32L442.42 534.95L432.59 525.94L422.77 529.1L423.36 528Z" id="b1MUgtLOwG"></path><path d="M396.34 537.51L378.01 543.36L387.79 552.32L436.3 552.32L426.65 543.36L397.26 535.95L396.34 537.51Z" id="e2D7YjF0al"></path><path d="M396.98 487.59L395.7 491.61L381.44 496.27L391.27 505.23L414.95 505.23L435.38 478.63L407.91 487.59L396.98 487.59Z" id="cCLWUtQjX"></path><path d="M381.44 496.27L405.12 496.27L378.01 543.36L426.65 543.36L432.59 525.94L409.78 525.94L435.38 478.63L387.2 478.63L381.44 496.27Z" id="a3POuye9LU"></path><path d="M406.67 486.45L396.34 492.62L428.11 478.63L435.38 478.63L405.21 493.94L426.51 485.49L402.88 500.16L405.12 496.27L381.44 496.27L406.67 486.45Z" id="a1SoeYfMaX"></path><path d="M402.24 516.25L418.97 509.03L422.49 503.36L402.24 516.25Z" id="blfTdw4y0"></path><path d="M412.34 527.13L396.43 539.15L419.84 526.08L425.69 526.08L397.26 543.36L378.01 543.36L412.34 527.13Z" id="a6F0CMqAG"></path><path d="M394.24 421.17L387.75 417.51L387.02 420.02L394.24 422.81L394.24 421.17Z" id="b29nu5vAhh"></path><path d="M379.61 416.96C379.62 416.97 379.69 417.04 379.7 417.05C379.7 417.05 379.89 417.19 380.53 417.51C380.61 417.54 381.02 417.69 381.76 417.97L383.31 415.22L379.2 415.22L379.2 415.59L379.15 415.77C379.12 416.29 379.28 416.69 379.61 416.96Z" id="a3YMpyVah"></path><path d="M387.75 417.51L383.68 415.22L383.27 415.22L381.76 417.97L387.02 420.02L387.75 417.51Z" id="bcq99n7Zq"></path><path d="M369.37 361.33L369.37 372.48L360.09 374.54L360.09 415.22L379.2 415.22L379.2 370.33L369.37 361.33Z" id="bLr9x3YGi"></path><path d="M394.24 422.81L387.02 420.02L384.46 428.98L390.4 434.01L394.24 437.3L394.24 437.94L394.88 437.85L412.07 434.65L402.29 425.65L394.24 421.17L394.24 422.81Z" id="dlJMpYSI9"></path><path d="M381.71 417.97L375.77 428.48L385.92 437.21L375.77 428.48L381.71 417.97C380.97 417.69 380.56 417.54 380.48 417.51C379.84 417.23 379.66 417.05 379.66 417.05C379.65 417.04 379.57 416.97 379.57 416.96C379.06 416.5 379.02 416.18 379.11 415.77C379.11 415.76 379.13 415.7 379.15 415.59L379.15 415.22L360.09 415.22C360.09 417.47 360.09 418.72 360.09 418.97C360.09 419.98 360.18 420.89 360.32 421.81C359.82 421.55 357.32 420.29 352.82 418.01C359.13 423.88 362.64 427.14 363.34 427.79C364.07 428.57 365.17 429.21 366.67 429.85C367.93 430.36 374.23 432.91 385.55 437.49L390.35 434.06L384.41 428.98L387.02 420.02L381.71 417.97Z" id="ayTKA5HUJ"></path><path d="M402.29 372.3L394.24 373.85L394.24 421.17L402.29 425.65L412.07 434.65L412.07 370.33L402.29 361.37L402.29 372.3Z" id="eLtFXS8Sz"></path><path d="M384.46 413.85C376.23 410.67 371.66 408.9 370.74 408.55C370.1 408.27 369.92 408.09 369.92 408.09C369.91 408.08 369.84 408.01 369.83 408C369.33 407.54 369.28 407.22 369.37 406.81C369.37 406.8 369.39 406.74 369.42 406.63L369.42 361.37L350.35 365.62C350.35 392.28 350.35 407.09 350.35 410.06C350.35 413.81 351.45 416.78 353.6 418.83C354.33 419.61 355.43 420.25 356.94 420.89C358.2 421.4 364.49 423.95 375.82 428.53L384.46 422.31L384.46 429.03L402.29 425.74L402.29 361.37L384.46 364.89L384.46 413.85Z" id="b1nuAnJDak"></path><path d="M396.85 416.59L384.46 428.98L384.46 423.77L396.85 416.59Z" id="admqBt8ew"></path><path d="M365.9 371.43L355.25 381.07L380.21 368.59L357.35 385.37L369.65 380.16L369.37 383.31L350.31 393.97L350.31 381.07L365.9 371.43Z" id="iiIN3RGQf"></path><path d="M363.61 407.27L390.63 397.17L355.02 420.02L359.82 422.03L396.57 399.09L383.27 409.87L402.29 399.36L402.29 388.3L363.61 407.27Z" id="bmqCSnTUy"></path></defs><g><g><g><use xlink:href="#fhBWAIQnn" opacity="1" fill="#019db2" fill-opacity="1"></use><g><use xlink:href="#fhBWAIQnn" opacity="1" fill-opacity="0" stroke="#000000" stroke-width="1" stroke-opacity="0"></use></g></g><g><use xlink:href="#abUTaVxbd" opacity="1" fill="#019db2" fill-opacity="1"></use><g><use xlink:href="#abUTaVxbd" opacity="1" fill-opacity="0" stroke="#000000" stroke-width="1" stroke-opacity="0"></use></g></g><g><use xlink:href="#bqtq0SJj" opacity="1" fill="#019db2" fill-opacity="1"></use><g><use xlink:href="#bqtq0SJj" opacity="1" fill-opacity="0" stroke="#000000" stroke-width="1" stroke-opacity="0"></use></g></g><g><use xlink:href="#b4IkJfiued" opacity="1" fill="#019db2" fill-opacity="1"></use><g><use xlink:href="#b4IkJfiued" opacity="1" fill-opacity="0" stroke="#000000" stroke-width="1" stroke-opacity="0"></use></g></g><g><use xlink:href="#b10U9ibMRL" opacity="1" fill="#019db2" fill-opacity="1"></use><g><use xlink:href="#b10U9ibMRL" opacity="1" fill-opacity="0" stroke="#000000" stroke-width="1" stroke-opacity="0"></use></g></g><g><use xlink:href="#cpUPjGftE" opacity="1" fill="#019db2" fill-opacity="1"></use><g><use xlink:href="#cpUPjGftE" opacity="1" fill-opacity="0" stroke="#000000" stroke-width="1" stroke-opacity="0"></use></g></g><g><use xlink:href="#a6zdBToWJZ" opacity="1" fill="#019db2" fill-opacity="1"></use><g><use xlink:href="#a6zdBToWJZ" opacity="1" fill-opacity="0" stroke="#000000" stroke-width="1" stroke-opacity="0"></use></g></g><g><use xlink:href="#e1L4VLUqnD" opacity="1" fill="#019db2" fill-opacity="1"></use><g><use xlink:href="#e1L4VLUqnD" opacity="1" fill-opacity="0" stroke="#000000" stroke-width="1" stroke-opacity="0"></use></g></g><g><use xlink:href="#c65FNEcjxQ" opacity="1" fill="#019db2" fill-opacity="1"></use><g><use xlink:href="#c65FNEcjxQ" opacity="1" fill-opacity="0" stroke="#000000" stroke-width="1" stroke-opacity="0"></use></g></g><g><use xlink:href="#cMJC8gxP5" opacity="1" fill="#8ed7f0" fill-opacity="1"></use><g><use xlink:href="#cMJC8gxP5" opacity="1" fill-opacity="0" stroke="#000000" stroke-width="1" stroke-opacity="0"></use></g></g><g><use xlink:href="#b4g02K94z" opacity="1" fill="#65cae5" fill-opacity="1"></use><g><use xlink:href="#b4g02K94z" opacity="1" fill-opacity="0" stroke="#000000" stroke-width="1" stroke-opacity="0"></use></g></g><g><use xlink:href="#a4jnbRyO5h" opacity="1" fill="#000000" fill-opacity="0"></use><g><use xlink:href="#a4jnbRyO5h" opacity="1" fill-opacity="0" stroke="#000000" stroke-width="1" stroke-opacity="0"></use></g></g><g><use xlink:href="#cIPQfyTA" opacity="1" fill="#000000" fill-opacity="0"></use><g><use xlink:href="#cIPQfyTA" opacity="1" fill-opacity="0" stroke="#000000" stroke-width="1" stroke-opacity="0"></use></g></g><g><use xlink:href="#bBzsY5j7v" opacity="1" fill="#65cae5" fill-opacity="1"></use><g><use xlink:href="#bBzsY5j7v" opacity="1" fill-opacity="0" stroke="#000000" stroke-width="1" stroke-opacity="0"></use></g></g><g><use xlink:href="#b9uUxyGdf" opacity="1" fill="#8ed7f0" fill-opacity="1"></use><g><use xlink:href="#b9uUxyGdf" opacity="1" fill-opacity="0" stroke="#000000" stroke-width="1" stroke-opacity="0"></use></g></g><g><use xlink:href="#cxWhovjZD" opacity="1" fill="#65cae5" fill-opacity="1"></use><g><use xlink:href="#cxWhovjZD" opacity="1" fill-opacity="0" stroke="#000000" stroke-width="1" stroke-opacity="0"></use></g></g><g><use xlink:href="#f4uf8c7bc2" opacity="1" fill="#65cae5" fill-opacity="1"></use><g><use xlink:href="#f4uf8c7bc2" opacity="1" fill-opacity="0" stroke="#000000" stroke-width="1" stroke-opacity="0"></use></g></g><g><use xlink:href="#a19GHrCCjc" opacity="1" fill="#d6f0fc" fill-opacity="1"></use><g><use xlink:href="#a19GHrCCjc" opacity="1" fill-opacity="0" stroke="#000000" stroke-width="1" stroke-opacity="0"></use></g></g><g><use xlink:href="#b1LfnEIYAw" opacity="1" fill="#bfe6f3" fill-opacity="1"></use><g><use xlink:href="#b1LfnEIYAw" opacity="1" fill-opacity="0" stroke="#000000" stroke-width="1" stroke-opacity="0"></use></g></g><g><use xlink:href="#f4jzAxMbt1" opacity="1" fill="#bfe6f3" fill-opacity="1"></use><g><use xlink:href="#f4jzAxMbt1" opacity="1" fill-opacity="0" stroke="#000000" stroke-width="1" stroke-opacity="0"></use></g></g><g><use xlink:href="#d6rttJgnq2" opacity="1" fill="#65cae5" fill-opacity="1"></use><g><use xlink:href="#d6rttJgnq2" opacity="1" fill-opacity="0" stroke="#000000" stroke-width="1" stroke-opacity="0"></use></g></g><g><use xlink:href="#dJu5SP7tD" opacity="1" fill="#8ed7f0" fill-opacity="1"></use><g><use xlink:href="#dJu5SP7tD" opacity="1" fill-opacity="0" stroke="#000000" stroke-width="1" stroke-opacity="0"></use></g></g><g><use xlink:href="#b8eVQjUrn" opacity="1" fill="#d6f0fc" fill-opacity="1"></use><g><use xlink:href="#b8eVQjUrn" opacity="1" fill-opacity="0" stroke="#000000" stroke-width="1" stroke-opacity="0"></use></g></g><g><use xlink:href="#bzX8qjGxK" opacity="1" fill="#bfe6f3" fill-opacity="1"></use><g><use xlink:href="#bzX8qjGxK" opacity="1" fill-opacity="0" stroke="#000000" stroke-width="1" stroke-opacity="0"></use></g></g><g><use xlink:href="#a5JMxhkf4v" opacity="1" fill="#bfe6f3" fill-opacity="1"></use><g><use xlink:href="#a5JMxhkf4v" opacity="1" fill-opacity="0" stroke="#000000" stroke-width="1" stroke-opacity="0"></use></g></g><g><use xlink:href="#bb6u7r0fC" opacity="1" fill="#8ed7f0" fill-opacity="1"></use><g><use xlink:href="#bb6u7r0fC" opacity="1" fill-opacity="0" stroke="#000000" stroke-width="1" stroke-opacity="0"></use></g></g><g><use xlink:href="#a3e1B1c8op" opacity="1" fill="#65cae5" fill-opacity="1"></use><g><use xlink:href="#a3e1B1c8op" opacity="1" fill-opacity="0" stroke="#000000" stroke-width="1" stroke-opacity="0"></use></g></g><g><use xlink:href="#aJTBqowMd" opacity="1" fill="#65cae5" fill-opacity="1"></use><g><use xlink:href="#aJTBqowMd" opacity="1" fill-opacity="0" stroke="#000000" stroke-width="1" stroke-opacity="0"></use></g></g><g><use xlink:href="#byDcAYZ4R" opacity="1" fill="#8ed7f0" fill-opacity="1"></use><g><use xlink:href="#byDcAYZ4R" opacity="1" fill-opacity="0" stroke="#000000" stroke-width="1" stroke-opacity="0"></use></g></g><g><use xlink:href="#aaHo3PxJ" opacity="1" fill="#d6f0fc" fill-opacity="1"></use><g><use xlink:href="#aaHo3PxJ" opacity="1" fill-opacity="0" stroke="#000000" stroke-width="1" stroke-opacity="0"></use></g></g><g><use xlink:href="#bisQ7WNlq" opacity="1" fill="#bfe6f3" fill-opacity="1"></use><g><use xlink:href="#bisQ7WNlq" opacity="1" fill-opacity="0" stroke="#000000" stroke-width="1" stroke-opacity="0"></use></g></g><g><use xlink:href="#b9wQFGmKE" opacity="1" fill="#bfe6f3" fill-opacity="1"></use><g><use xlink:href="#b9wQFGmKE" opacity="1" fill-opacity="0" stroke="#000000" stroke-width="1" stroke-opacity="0"></use></g></g><g><use xlink:href="#b64QsYsGTt" opacity="1" fill="#000000" fill-opacity="0"></use><g><use xlink:href="#b64QsYsGTt" opacity="1" fill-opacity="0" stroke="#000000" stroke-width="1" stroke-opacity="0"></use></g></g><g><use xlink:href="#g2n1VOxzGK" opacity="1" fill="#65cae5" fill-opacity="1"></use><g><use xlink:href="#g2n1VOxzGK" opacity="1" fill-opacity="0" stroke="#000000" stroke-width="1" stroke-opacity="0"></use></g></g><g><use xlink:href="#a5fzpgBA" opacity="1" fill="#8ed7f0" fill-opacity="1"></use><g><use xlink:href="#a5fzpgBA" opacity="1" fill-opacity="0" stroke="#000000" stroke-width="1" stroke-opacity="0"></use></g></g><g><use xlink:href="#jhRyGm8zI" opacity="1" fill="#65cae5" fill-opacity="1"></use><g><use xlink:href="#jhRyGm8zI" opacity="1" fill-opacity="0" stroke="#000000" stroke-width="1" stroke-opacity="0"></use></g></g><g><use xlink:href="#bOdzLEhEQ" opacity="1" fill="#8ed7f0" fill-opacity="1"></use><g><use xlink:href="#bOdzLEhEQ" opacity="1" fill-opacity="0" stroke="#000000" stroke-width="1" stroke-opacity="0"></use></g></g><g><use xlink:href="#aInAWiS5" opacity="1" fill="#d6f0fc" fill-opacity="1"></use><g><use xlink:href="#aInAWiS5" opacity="1" fill-opacity="0" stroke="#000000" stroke-width="1" stroke-opacity="0"></use></g></g><g><use xlink:href="#c2MLonZ2Bg" opacity="1" fill="#bfe6f3" fill-opacity="1"></use><g><use xlink:href="#c2MLonZ2Bg" opacity="1" fill-opacity="0" stroke="#000000" stroke-width="1" stroke-opacity="0"></use></g></g><g><use xlink:href="#h4JATdwCuw" opacity="1" fill="#bfe6f3" fill-opacity="1"></use><g><use xlink:href="#h4JATdwCuw" opacity="1" fill-opacity="0" stroke="#000000" stroke-width="1" stroke-opacity="0"></use></g></g><g><use xlink:href="#b2b9bP3y5e" opacity="1" fill="#8ed7f0" fill-opacity="1"></use><g><use xlink:href="#b2b9bP3y5e" opacity="1" fill-opacity="0" stroke="#000000" stroke-width="1" stroke-opacity="0"></use></g></g><g><use xlink:href="#ajggJrhEV" opacity="1" fill="#65cae5" fill-opacity="1"></use><g><use xlink:href="#ajggJrhEV" opacity="1" fill-opacity="0" stroke="#000000" stroke-width="1" stroke-opacity="0"></use></g></g><g><use xlink:href="#aNp1YNnf7" opacity="1" fill="#8ed7f0" fill-opacity="1"></use><g><use xlink:href="#aNp1YNnf7" opacity="1" fill-opacity="0" stroke="#000000" stroke-width="1" stroke-opacity="0"></use></g></g><g><use xlink:href="#eGmkNUgwG" opacity="1" fill="#65cae5" fill-opacity="1"></use><g><use xlink:href="#eGmkNUgwG" opacity="1" fill-opacity="0" stroke="#000000" stroke-width="1" stroke-opacity="0"></use></g></g><g><use xlink:href="#g26NLneGjl" opacity="1" fill="#d6f0fc" fill-opacity="1"></use><g><use xlink:href="#g26NLneGjl" opacity="1" fill-opacity="0" stroke="#000000" stroke-width="1" stroke-opacity="0"></use></g></g><g><use xlink:href="#a36vnzFatn" opacity="1" fill="#bfe6f3" fill-opacity="1"></use><g><use xlink:href="#a36vnzFatn" opacity="1" fill-opacity="0" stroke="#000000" stroke-width="1" stroke-opacity="0"></use></g></g><g><use xlink:href="#b1e8B9RjyM" opacity="1" fill="#bfe6f3" fill-opacity="1"></use><g><use xlink:href="#b1e8B9RjyM" opacity="1" fill-opacity="0" stroke="#000000" stroke-width="1" stroke-opacity="0"></use></g></g><g><use xlink:href="#a4JV4gk4D" opacity="1" fill="#bfe6f3" fill-opacity="1"></use><g><use xlink:href="#a4JV4gk4D" opacity="1" fill-opacity="0" stroke="#000000" stroke-width="1" stroke-opacity="0"></use></g></g><g><use xlink:href="#bZTfo5EoP" opacity="1" fill="#8ed7f0" fill-opacity="1"></use><g><use xlink:href="#bZTfo5EoP" opacity="1" fill-opacity="0" stroke="#000000" stroke-width="1" stroke-opacity="0"></use></g></g><g><use xlink:href="#bbM4YTHSZ" opacity="1" fill="#65cae5" fill-opacity="1"></use><g><use xlink:href="#bbM4YTHSZ" opacity="1" fill-opacity="0" stroke="#000000" stroke-width="1" stroke-opacity="0"></use></g></g><g><use xlink:href="#dlyvnPNZ2" opacity="1" fill="#8ed7f0" fill-opacity="1"></use><g><use xlink:href="#dlyvnPNZ2" opacity="1" fill-opacity="0" stroke="#000000" stroke-width="1" stroke-opacity="0"></use></g></g><g><use xlink:href="#aayPWMTYD" opacity="1" fill="#000000" fill-opacity="0"></use><g><use xlink:href="#aayPWMTYD" opacity="1" fill-opacity="0" stroke="#000000" stroke-width="1" stroke-opacity="0"></use></g></g><g><use xlink:href="#mc654NIXs" opacity="1" fill="#65cae5" fill-opacity="1"></use><g><use xlink:href="#mc654NIXs" opacity="1" fill-opacity="0" stroke="#000000" stroke-width="1" stroke-opacity="0"></use></g></g><g><use xlink:href="#bnTlkDM2t" opacity="1" fill="#65cae5" fill-opacity="1"></use><g><use xlink:href="#bnTlkDM2t" opacity="1" fill-opacity="0" stroke="#000000" stroke-width="1" stroke-opacity="0"></use></g></g><g><use xlink:href="#dJNJF3GQd" opacity="1" fill="#65cae5" fill-opacity="1"></use><g><use xlink:href="#dJNJF3GQd" opacity="1" fill-opacity="0" stroke="#000000" stroke-width="1" stroke-opacity="0"></use></g></g><g><use xlink:href="#a5nWVZOe83" opacity="1" fill="#d6f0fc" fill-opacity="1"></use><g><use xlink:href="#a5nWVZOe83" opacity="1" fill-opacity="0" stroke="#000000" stroke-width="1" stroke-opacity="0"></use></g></g><g><use xlink:href="#a4TYNlzla5" opacity="1" fill="#bfe6f3" fill-opacity="1"></use><g><use xlink:href="#a4TYNlzla5" opacity="1" fill-opacity="0" stroke="#000000" stroke-width="1" stroke-opacity="0"></use></g></g><g><use xlink:href="#a3YKszyqM" opacity="1" fill="#bfe6f3" fill-opacity="1"></use><g><use xlink:href="#a3YKszyqM" opacity="1" fill-opacity="0" stroke="#000000" stroke-width="1" stroke-opacity="0"></use></g></g><g><use xlink:href="#guwNksFJ5" opacity="1" fill="#65cae5" fill-opacity="1"></use><g><use xlink:href="#guwNksFJ5" opacity="1" fill-opacity="0" stroke="#000000" stroke-width="1" stroke-opacity="0"></use></g></g><g><use xlink:href="#c1rnbTMQbc" opacity="1" fill="#8ed7f0" fill-opacity="1"></use><g><use xlink:href="#c1rnbTMQbc" opacity="1" fill-opacity="0" stroke="#000000" stroke-width="1" stroke-opacity="0"></use></g></g><g><use xlink:href="#g1S0UVUUxl" opacity="1" fill="#65cae5" fill-opacity="1"></use><g><use xlink:href="#g1S0UVUUxl" opacity="1" fill-opacity="0" stroke="#000000" stroke-width="1" stroke-opacity="0"></use></g></g><g><use xlink:href="#de93qoq3K" opacity="1" fill="#8ed7f0" fill-opacity="1"></use><g><use xlink:href="#de93qoq3K" opacity="1" fill-opacity="0" stroke="#000000" stroke-width="1" stroke-opacity="0"></use></g></g><g><use xlink:href="#bSKmWL0DZ" opacity="1" fill="#d6f0fc" fill-opacity="1"></use><g><use xlink:href="#bSKmWL0DZ" opacity="1" fill-opacity="0" stroke="#000000" stroke-width="1" stroke-opacity="0"></use></g></g><g><use xlink:href="#d5mvlEHwC" opacity="1" fill="#bfe6f3" fill-opacity="1"></use><g><use xlink:href="#d5mvlEHwC" opacity="1" fill-opacity="0" stroke="#000000" stroke-width="1" stroke-opacity="0"></use></g></g><g><use xlink:href="#a16DH7GlbS" opacity="1" fill="#bfe6f3" fill-opacity="1"></use><g><use xlink:href="#a16DH7GlbS" opacity="1" fill-opacity="0" stroke="#000000" stroke-width="1" stroke-opacity="0"></use></g></g><g><use xlink:href="#c1l1tsUSzQ" opacity="1" fill="#bfe6f3" fill-opacity="1"></use><g><use xlink:href="#c1l1tsUSzQ" opacity="1" fill-opacity="0" stroke="#000000" stroke-width="1" stroke-opacity="0"></use></g></g><g><use xlink:href="#a1Q17eOSCC" opacity="1" fill="#65cae5" fill-opacity="1"></use><g><use xlink:href="#a1Q17eOSCC" opacity="1" fill-opacity="0" stroke="#000000" stroke-width="1" stroke-opacity="0"></use></g></g><g><use xlink:href="#b1MUgtLOwG" opacity="1" fill="#8ed7f0" fill-opacity="1"></use><g><use xlink:href="#b1MUgtLOwG" opacity="1" fill-opacity="0" stroke="#000000" stroke-width="1" stroke-opacity="0"></use></g></g><g><use xlink:href="#e2D7YjF0al" opacity="1" fill="#65cae5" fill-opacity="1"></use><g><use xlink:href="#e2D7YjF0al" opacity="1" fill-opacity="0" stroke="#000000" stroke-width="1" stroke-opacity="0"></use></g></g><g><use xlink:href="#cCLWUtQjX" opacity="1" fill="#65cae5" fill-opacity="1"></use><g><use xlink:href="#cCLWUtQjX" opacity="1" fill-opacity="0" stroke="#000000" stroke-width="1" stroke-opacity="0"></use></g></g><g><use xlink:href="#a3POuye9LU" opacity="1" fill="#d6f0fc" fill-opacity="1"></use><g><use xlink:href="#a3POuye9LU" opacity="1" fill-opacity="0" stroke="#000000" stroke-width="1" stroke-opacity="0"></use></g></g><g><use xlink:href="#a1SoeYfMaX" opacity="1" fill="#bfe6f3" fill-opacity="1"></use><g><use xlink:href="#a1SoeYfMaX" opacity="1" fill-opacity="0" stroke="#000000" stroke-width="1" stroke-opacity="0"></use></g></g><g><use xlink:href="#blfTdw4y0" opacity="1" fill="#bfe6f3" fill-opacity="1"></use><g><use xlink:href="#blfTdw4y0" opacity="1" fill-opacity="0" stroke="#000000" stroke-width="1" stroke-opacity="0"></use></g></g><g><use xlink:href="#a6F0CMqAG" opacity="1" fill="#bfe6f3" fill-opacity="1"></use><g><use xlink:href="#a6F0CMqAG" opacity="1" fill-opacity="0" stroke="#000000" stroke-width="1" stroke-opacity="0"></use></g></g><g><use xlink:href="#b29nu5vAhh" opacity="1" fill="#000000" fill-opacity="0"></use><g><use xlink:href="#b29nu5vAhh" opacity="1" fill-opacity="0" stroke="#000000" stroke-width="1" stroke-opacity="0"></use></g></g><g><use xlink:href="#a3YMpyVah" opacity="1" fill="#000000" fill-opacity="0"></use><g><use xlink:href="#a3YMpyVah" opacity="1" fill-opacity="0" stroke="#000000" stroke-width="1" stroke-opacity="0"></use></g></g><g><use xlink:href="#bcq99n7Zq" opacity="1" fill="#000000" fill-opacity="0"></use><g><use xlink:href="#bcq99n7Zq" opacity="1" fill-opacity="0" stroke="#000000" stroke-width="1" stroke-opacity="0"></use></g></g><g><use xlink:href="#bLr9x3YGi" opacity="1" fill="#8ed7f0" fill-opacity="1"></use><g><use xlink:href="#bLr9x3YGi" opacity="1" fill-opacity="0" stroke="#000000" stroke-width="1" stroke-opacity="0"></use></g></g><g><use xlink:href="#dlJMpYSI9" opacity="1" fill="#65cae5" fill-opacity="1"></use><g><use xlink:href="#dlJMpYSI9" opacity="1" fill-opacity="0" stroke="#000000" stroke-width="1" stroke-opacity="0"></use></g></g><g><use xlink:href="#ayTKA5HUJ" opacity="1" fill="#65cae5" fill-opacity="1"></use><g><use xlink:href="#ayTKA5HUJ" opacity="1" fill-opacity="0" stroke="#000000" stroke-width="1" stroke-opacity="0"></use></g></g><g><use xlink:href="#eLtFXS8Sz" opacity="1" fill="#8ed7f0" fill-opacity="1"></use><g><use xlink:href="#eLtFXS8Sz" opacity="1" fill-opacity="0" stroke="#000000" stroke-width="1" stroke-opacity="0"></use></g></g><g><use xlink:href="#b1nuAnJDak" opacity="1" fill="#d6f0fc" fill-opacity="1"></use><g><use xlink:href="#b1nuAnJDak" opacity="1" fill-opacity="0" stroke="#000000" stroke-width="1" stroke-opacity="0"></use></g></g><g><use xlink:href="#admqBt8ew" opacity="1" fill="#bfe6f3" fill-opacity="1"></use><g><use xlink:href="#admqBt8ew" opacity="1" fill-opacity="0" stroke="#000000" stroke-width="1" stroke-opacity="0"></use></g></g><g><use xlink:href="#iiIN3RGQf" opacity="1" fill="#bfe6f3" fill-opacity="1"></use><g><use xlink:href="#iiIN3RGQf" opacity="1" fill-opacity="0" stroke="#000000" stroke-width="1" stroke-opacity="0"></use></g></g><g><use xlink:href="#bmqCSnTUy" opacity="1" fill="#bfe6f3" fill-opacity="1"></use><g><use xlink:href="#bmqCSnTUy" opacity="1" fill-opacity="0" stroke="#000000" stroke-width="1" stroke-opacity="0"></use></g></g></g></g></svg>