<?xml version="1.0" encoding="UTF-8" standalone="no"?>
<!DOCTYPE svg PUBLIC "-//W3C//DTD SVG 1.1//EN" "http://www.w3.org/Graphics/SVG/1.1/DTD/svg11.dtd">
<svg version="1.1" xmlns="http://www.w3.org/2000/svg" xmlns:xlink="http://www.w3.org/1999/xlink" preserveAspectRatio="xMidYMid meet" viewBox="0 0 120 120" width="120" height="120"><defs><path d="M290.15 494.31L290.15 494.31L285.85 492.07L285.85 492.07L281.23 489.65L281.23 489.65L275.75 486.77L269.35 496.73L264.5 499.66L261.99 495.77L252.16 486.77L252.16 486.77L252.16 486.77L237.76 494.22L254.4 519.91L234.51 550.67L234.51 550.67L234.51 550.67L234.51 550.67L234.51 550.67L244.3 559.68L259.34 565.76L271.82 546.7L278.35 556.8L278.35 556.8L288.18 565.76L303.18 559.63L283.38 528.87L299.98 503.31L290.15 494.31Z" id="fhBWAIQnn"></path><path d="M85.71 28.3L76.62 53.67L69.44 40.05L59.66 31.04L59.66 31.04L59.66 31.04L52.3 49.69L47.41 37.71L37.62 28.71L41.78 38.95L41.78 38.95L37.62 28.71L19.79 32.64L43.29 93.67C43.4 93.81 43.46 93.88 43.47 93.9C43.7 94.17 43.98 94.4 44.21 94.58C45.12 95.41 52.39 102.07 53.3 102.9C54.31 104.05 55.36 104.27 56.05 104.27C56.78 104.27 57.46 104.09 58.06 103.68C58.38 103.5 58.65 103.22 58.97 102.81C58.98 102.81 59.01 102.77 59.06 102.72L68.02 84.94L72.91 93.9C73 93.98 73.04 94.03 73.05 94.03C73.33 94.35 73.6 94.54 73.83 94.72C74.73 95.55 81.93 102.17 82.83 102.99C83.75 104.05 84.8 104.27 85.49 104.27C86.08 104.27 86.72 104.09 87.31 103.68C87.54 103.54 87.82 103.36 88.09 103.09C88.11 103.07 88.18 102.99 88.32 102.86L111.18 45.85L101.35 36.85L101.35 36.85L85.71 28.3Z" id="azkzvAJh8"></path><path d="M339.34 499.75L350.95 495.13L356.53 486.86L364.07 489.92L367.68 491.38L372.34 493.26L382.08 502.26L359.95 534.81L359.95 561.23L342.95 565.44L333.17 556.43L333.17 526.13L310.08 493.9L326.72 486.86L336.5 495.86L339.34 499.75ZM343.59 505.55L344.09 505.37L346.15 502.31L342.54 504.14L343.59 505.55Z" id="a6zdBToWJZ"></path><path d="M446.31 491.25L446.31 491.25L439.04 491.25L439.04 491.25L398.13 491.25L392.37 508.89L392.37 508.89L392.37 508.89L392.37 508.89L392.37 508.89L402.19 517.9L410.88 517.9L388.94 555.98L388.94 555.98L388.94 555.98L388.94 555.98L388.94 555.98L398.72 564.94L447.22 564.94L447.36 564.94L453.35 547.57L443.52 538.61L443.52 538.61L435.38 538.61L456.14 500.25L446.31 491.25Z" id="e1L4VLUqnD"></path><path d="M241.23 474.15L243.43 487.09L236.62 490.56L246.54 505.87L246.86 507.89L259.38 507.38L261.53 499.34L251.06 483.15L241.23 474.15Z" id="cMJC8gxP5"></path><path d="M276.89 484.34L274.61 483.11L265.69 497.01L262.45 500.71L261.53 499.34L259.38 507.38L262.67 507.29L272.46 516.25L289.05 490.7L279.22 481.69L276.89 484.34Z" id="b4g02K94z"></path><path d="M249.87 514.88L253.3 516.25L250.01 511.18L249.87 514.88Z" id="a4jnbRyO5h"></path><path d="M249.87 514.88L249.6 522.01L253.3 516.25L249.87 514.88Z" id="cIPQfyTA"></path><path d="M265.97 538.19L267.43 544.14L277.26 553.14L292.3 547.02L282.47 538.06L265.97 538.19Z" id="bBzsY5j7v"></path><path d="M272.46 516.25L262.67 507.29L246.86 507.89L247.09 509.03L244.21 512.55L249.87 514.88L250.01 511.18L253.3 516.25L262.35 531.84L262.86 531.02L265.01 534.31L265.97 538.19L282.47 538.06L292.3 547.02L272.46 516.25Z" id="b9uUxyGdf"></path><path d="M223.59 538.06L233.37 547.06L248.41 553.14L238.63 544.14L223.82 537.78L223.59 538.06Z" id="cxWhovjZD"></path><path d="M249.87 514.88L244.21 512.55L223.82 537.78L238.63 544.14L248.41 553.14L262.35 531.84L253.3 516.25L249.6 522.01L249.87 514.88Z" id="f4uf8c7bc2"></path><path d="M264.82 474.15L253.07 492.43L241.23 474.15L226.83 481.6L243.47 507.29L223.59 538.06L238.63 544.14L253.07 522.06L267.43 544.14L282.47 538.06L262.67 507.29L279.22 481.69L264.82 474.15Z" id="a19GHrCCjc"></path><path d="M247.04 488.73L238.95 495.73L270.31 477.03L274.93 479.45L248.41 496.32L264.14 489.55L241.55 504.27L236.02 495.73L247.04 488.73Z" id="b1LfnEIYAw"></path><path d="M253.03 518.35L265.33 514.29L238.08 534.45L269.35 517.67L264.55 510.17L253.03 518.35Z" id="f4jzAxMbt1"></path><path d="M59.43 73.33L60.89 70.35L59.43 67.66L57.92 70.63L59.43 73.33Z" id="bcRN3yfmD"></path><path d="M37.07 76.98L32.5 81.33C38.37 86.73 41.63 89.73 42.29 90.33C43.29 91.47 44.34 91.7 45.03 91.7C45.76 91.7 46.45 91.52 47.04 91.11C47.36 90.93 47.63 90.65 47.95 90.24C47.96 90.23 47.99 90.2 48.05 90.15L57.87 70.67L50.33 57.01L31.95 63.68L37.07 76.98Z" id="a18xL6Miqc"></path><path d="M48.73 18.47L54.9 36.62L48.14 53.71L36.48 25.14L26.65 16.14L30.86 26.38L18.61 29.07L31.95 63.68L50.38 56.96L57.92 70.63L59.43 67.66L60.89 70.35L70.67 50.42L58.51 27.43L48.73 18.47Z" id="a5efCJOEot"></path><path d="M89.23 27.2L84.62 24.69L73.46 55.82L70.63 50.47L60.89 70.35L66.01 79.73L61.94 81.28C67.89 86.77 71.2 89.81 71.86 90.42C72.78 91.47 73.83 91.7 74.51 91.7C75.11 91.7 75.75 91.52 76.34 91.11C76.57 90.97 76.85 90.79 77.12 90.51C77.14 90.5 77.21 90.42 77.35 90.29L100.21 33.28L90.42 24.23L89.23 27.2Z" id="b3rwa0xBLF"></path><path d="" id="a2BEdiYKsD"></path><path d="M48.73 18.47L38.31 44.75L26.65 16.14L8.82 20.07L32.32 81.1C32.43 81.23 32.49 81.31 32.5 81.33C33.51 82.47 34.56 82.7 35.25 82.7C35.98 82.7 36.66 82.51 37.26 82.1C37.58 81.92 37.85 81.65 38.17 81.23C38.18 81.23 38.21 81.2 38.26 81.14L49.6 58.7L61.94 81.28C62.03 81.36 62.07 81.41 62.08 81.42C62.99 82.47 64.05 82.7 64.73 82.7C65.33 82.7 65.97 82.51 66.56 82.1C66.79 81.97 67.06 81.78 67.34 81.51C67.35 81.49 67.43 81.42 67.57 81.28L90.42 24.27L74.79 15.73L63.68 46.81L48.73 18.47Z" id="c5sINjiUR"></path><path d="M30.95 36.8L21.53 44.57L59.43 32.91L26.15 48.64L40.14 47.45L21.62 53.3L17.78 43.38L30.95 36.8Z" id="ceuuEAEAu"></path><path d="M77.3 56.96L42.29 70.63L64.91 58.01L28.21 70.45C27.27 68 26.76 66.65 26.65 66.38C26.65 66.38 75.93 49.01 75.11 48.64C74.29 48.27 55.5 49.42 55.5 49.42C57.31 49.01 66.4 47 82.74 43.38L77.3 56.96Z" id="e2VnHkVQbf"></path><path d="M361.42 480.64L358.72 484.57L355.43 483.25L341.07 504.5L340.98 504.37L339.57 513.51L349.07 522.19L371.2 489.65L361.42 480.64Z" id="guwNksFJ5"></path><path d="M315.84 474.24L323.15 484.3L308.98 490.29C319.68 505.23 325.62 513.54 326.81 515.2C332.66 514.33 339.25 513.23 339.25 513.23C339.27 513.25 339.37 513.34 339.57 513.51L340.98 504.37L325.62 483.25L315.84 474.24Z" id="c1rnbTMQbc"></path><path d="M332.02 541.39L322.24 543.82L332.02 552.82L349.07 548.57L349.07 548.48L339.25 539.61L332.02 540.71L332.02 541.39Z" id="g1S0UVUUxl"></path><path d="M339.25 513.23C339.25 513.23 332.62 514.33 326.81 515.2C327.16 515.69 328.91 518.13 332.07 522.51L332.07 540.71L339.29 539.57L349.07 548.48L349.07 522.19L349.07 522.19C343.18 516.82 339.9 513.83 339.25 513.23Z" id="de93qoq3K"></path><path d="M315.79 474.29L299.15 481.33L322.24 513.51L322.24 543.82L339.25 539.61L339.25 513.23L361.42 480.64L345.6 474.29L331.29 495.54L315.79 474.29Z" id="bSKmWL0DZ"></path><path d="M329.55 522.19L338.56 520.27L322.24 532.85L322.24 535.95L339.57 524.75L339.25 516.25L329.55 522.19Z" id="d5mvlEHwC"></path><path d="M334.72 506.1L347.06 501.71L350.03 497.37L334.72 506.1Z" id="a16DH7GlbS"></path><path d="M321.78 486.58L314.15 492.85L353.14 477.3L356.75 478.77L316.89 498.97L345.1 488.14L316.16 505.1L308.02 493.67L321.78 486.58Z" id="c1l1tsUSzQ"></path><path d="M435.38 478.63L414.95 505.23L399.77 531.57L423.36 528L445.21 487.59L435.38 478.63Z" id="a1Q17eOSCC"></path><path d="M423.36 528L399.77 531.57L397.26 535.95L426.65 543.36L436.3 552.32L436.43 552.32L442.42 534.95L432.59 525.94L422.77 529.1L423.36 528Z" id="b1MUgtLOwG"></path><path d="M396.34 537.51L378.01 543.36L387.79 552.32L436.3 552.32L426.65 543.36L397.26 535.95L396.34 537.51Z" id="e2D7YjF0al"></path><path d="M396.98 487.59L395.7 491.61L381.44 496.27L391.27 505.23L414.95 505.23L435.38 478.63L407.91 487.59L396.98 487.59Z" id="cCLWUtQjX"></path><path d="M381.44 496.27L405.12 496.27L378.01 543.36L426.65 543.36L432.59 525.94L409.78 525.94L435.38 478.63L387.2 478.63L381.44 496.27Z" id="a3POuye9LU"></path><path d="M406.67 486.45L396.34 492.62L428.11 478.63L435.38 478.63L405.21 493.94L426.51 485.49L402.88 500.16L405.12 496.27L381.44 496.27L406.67 486.45Z" id="a1SoeYfMaX"></path><path d="M402.24 516.25L418.97 509.03L422.49 503.36L402.24 516.25Z" id="blfTdw4y0"></path><path d="M412.34 527.13L396.43 539.15L419.84 526.08L425.69 526.08L397.26 543.36L378.01 543.36L412.34 527.13Z" id="a6F0CMqAG"></path></defs><g><g><g><use xlink:href="#fhBWAIQnn" opacity="1" fill="#019db2" fill-opacity="1"></use><g><use xlink:href="#fhBWAIQnn" opacity="1" fill-opacity="0" stroke="#000000" stroke-width="1" stroke-opacity="0"></use></g></g><g><use xlink:href="#azkzvAJh8" opacity="1" fill="#019db2" fill-opacity="1"></use><g><use xlink:href="#azkzvAJh8" opacity="1" fill-opacity="0" stroke="#000000" stroke-width="1" stroke-opacity="0"></use></g></g><g><use xlink:href="#a6zdBToWJZ" opacity="1" fill="#019db2" fill-opacity="1"></use><g><use xlink:href="#a6zdBToWJZ" opacity="1" fill-opacity="0" stroke="#000000" stroke-width="1" stroke-opacity="0"></use></g></g><g><use xlink:href="#e1L4VLUqnD" opacity="1" fill="#019db2" fill-opacity="1"></use><g><use xlink:href="#e1L4VLUqnD" opacity="1" fill-opacity="0" stroke="#000000" stroke-width="1" stroke-opacity="0"></use></g></g><g><use xlink:href="#cMJC8gxP5" opacity="1" fill="#8ed7f0" fill-opacity="1"></use><g><use xlink:href="#cMJC8gxP5" opacity="1" fill-opacity="0" stroke="#000000" stroke-width="1" stroke-opacity="0"></use></g></g><g><use xlink:href="#b4g02K94z" opacity="1" fill="#65cae5" fill-opacity="1"></use><g><use xlink:href="#b4g02K94z" opacity="1" fill-opacity="0" stroke="#000000" stroke-width="1" stroke-opacity="0"></use></g></g><g><use xlink:href="#a4jnbRyO5h" opacity="1" fill="#000000" fill-opacity="0"></use><g><use xlink:href="#a4jnbRyO5h" opacity="1" fill-opacity="0" stroke="#000000" stroke-width="1" stroke-opacity="0"></use></g></g><g><use xlink:href="#cIPQfyTA" opacity="1" fill="#000000" fill-opacity="0"></use><g><use xlink:href="#cIPQfyTA" opacity="1" fill-opacity="0" stroke="#000000" stroke-width="1" stroke-opacity="0"></use></g></g><g><use xlink:href="#bBzsY5j7v" opacity="1" fill="#65cae5" fill-opacity="1"></use><g><use xlink:href="#bBzsY5j7v" opacity="1" fill-opacity="0" stroke="#000000" stroke-width="1" stroke-opacity="0"></use></g></g><g><use xlink:href="#b9uUxyGdf" opacity="1" fill="#8ed7f0" fill-opacity="1"></use><g><use xlink:href="#b9uUxyGdf" opacity="1" fill-opacity="0" stroke="#000000" stroke-width="1" stroke-opacity="0"></use></g></g><g><use xlink:href="#cxWhovjZD" opacity="1" fill="#65cae5" fill-opacity="1"></use><g><use xlink:href="#cxWhovjZD" opacity="1" fill-opacity="0" stroke="#000000" stroke-width="1" stroke-opacity="0"></use></g></g><g><use xlink:href="#f4uf8c7bc2" opacity="1" fill="#65cae5" fill-opacity="1"></use><g><use xlink:href="#f4uf8c7bc2" opacity="1" fill-opacity="0" stroke="#000000" stroke-width="1" stroke-opacity="0"></use></g></g><g><use xlink:href="#a19GHrCCjc" opacity="1" fill="#d6f0fc" fill-opacity="1"></use><g><use xlink:href="#a19GHrCCjc" opacity="1" fill-opacity="0" stroke="#000000" stroke-width="1" stroke-opacity="0"></use></g></g><g><use xlink:href="#b1LfnEIYAw" opacity="1" fill="#bfe6f3" fill-opacity="1"></use><g><use xlink:href="#b1LfnEIYAw" opacity="1" fill-opacity="0" stroke="#000000" stroke-width="1" stroke-opacity="0"></use></g></g><g><use xlink:href="#f4jzAxMbt1" opacity="1" fill="#bfe6f3" fill-opacity="1"></use><g><use xlink:href="#f4jzAxMbt1" opacity="1" fill-opacity="0" stroke="#000000" stroke-width="1" stroke-opacity="0"></use></g></g><g><use xlink:href="#bcRN3yfmD" opacity="1" fill="#000000" fill-opacity="0"></use><g><use xlink:href="#bcRN3yfmD" opacity="1" fill-opacity="0" stroke="#000000" stroke-width="1" stroke-opacity="0"></use></g></g><g><use xlink:href="#a18xL6Miqc" opacity="1" fill="#65cae5" fill-opacity="1"></use><g><use xlink:href="#a18xL6Miqc" opacity="1" fill-opacity="0" stroke="#000000" stroke-width="1" stroke-opacity="0"></use></g></g><g><use xlink:href="#a5efCJOEot" opacity="1" fill="#8ed7f0" fill-opacity="1"></use><g><use xlink:href="#a5efCJOEot" opacity="1" fill-opacity="0" stroke="#000000" stroke-width="1" stroke-opacity="0"></use></g></g><g><use xlink:href="#b3rwa0xBLF" opacity="1" fill="#65cae5" fill-opacity="1"></use><g><use xlink:href="#b3rwa0xBLF" opacity="1" fill-opacity="0" stroke="#000000" stroke-width="1" stroke-opacity="0"></use></g></g><g><use xlink:href="#a2BEdiYKsD" opacity="1" fill="#8ed7f0" fill-opacity="1"></use><g><use xlink:href="#a2BEdiYKsD" opacity="1" fill-opacity="0" stroke="#000000" stroke-width="1" stroke-opacity="0"></use></g></g><g><use xlink:href="#c5sINjiUR" opacity="1" fill="#d6f0fc" fill-opacity="1"></use><g><use xlink:href="#c5sINjiUR" opacity="1" fill-opacity="0" stroke="#000000" stroke-width="1" stroke-opacity="0"></use></g></g><g><use xlink:href="#ceuuEAEAu" opacity="1" fill="#bfe6f3" fill-opacity="1"></use><g><use xlink:href="#ceuuEAEAu" opacity="1" fill-opacity="0" stroke="#000000" stroke-width="1" stroke-opacity="0"></use></g></g><g><use xlink:href="#e2VnHkVQbf" opacity="1" fill="#bfe6f3" fill-opacity="1"></use><g><use xlink:href="#e2VnHkVQbf" opacity="1" fill-opacity="0" stroke="#000000" stroke-width="1" stroke-opacity="0"></use></g></g><g><use xlink:href="#guwNksFJ5" opacity="1" fill="#65cae5" fill-opacity="1"></use><g><use xlink:href="#guwNksFJ5" opacity="1" fill-opacity="0" stroke="#000000" stroke-width="1" stroke-opacity="0"></use></g></g><g><use xlink:href="#c1rnbTMQbc" opacity="1" fill="#8ed7f0" fill-opacity="1"></use><g><use xlink:href="#c1rnbTMQbc" opacity="1" fill-opacity="0" stroke="#000000" stroke-width="1" stroke-opacity="0"></use></g></g><g><use xlink:href="#g1S0UVUUxl" opacity="1" fill="#65cae5" fill-opacity="1"></use><g><use xlink:href="#g1S0UVUUxl" opacity="1" fill-opacity="0" stroke="#000000" stroke-width="1" stroke-opacity="0"></use></g></g><g><use xlink:href="#de93qoq3K" opacity="1" fill="#8ed7f0" fill-opacity="1"></use><g><use xlink:href="#de93qoq3K" opacity="1" fill-opacity="0" stroke="#000000" stroke-width="1" stroke-opacity="0"></use></g></g><g><use xlink:href="#bSKmWL0DZ" opacity="1" fill="#d6f0fc" fill-opacity="1"></use><g><use xlink:href="#bSKmWL0DZ" opacity="1" fill-opacity="0" stroke="#000000" stroke-width="1" stroke-opacity="0"></use></g></g><g><use xlink:href="#d5mvlEHwC" opacity="1" fill="#bfe6f3" fill-opacity="1"></use><g><use xlink:href="#d5mvlEHwC" opacity="1" fill-opacity="0" stroke="#000000" stroke-width="1" stroke-opacity="0"></use></g></g><g><use xlink:href="#a16DH7GlbS" opacity="1" fill="#bfe6f3" fill-opacity="1"></use><g><use xlink:href="#a16DH7GlbS" opacity="1" fill-opacity="0" stroke="#000000" stroke-width="1" stroke-opacity="0"></use></g></g><g><use xlink:href="#c1l1tsUSzQ" opacity="1" fill="#bfe6f3" fill-opacity="1"></use><g><use xlink:href="#c1l1tsUSzQ" opacity="1" fill-opacity="0" stroke="#000000" stroke-width="1" stroke-opacity="0"></use></g></g><g><use xlink:href="#a1Q17eOSCC" opacity="1" fill="#65cae5" fill-opacity="1"></use><g><use xlink:href="#a1Q17eOSCC" opacity="1" fill-opacity="0" stroke="#000000" stroke-width="1" stroke-opacity="0"></use></g></g><g><use xlink:href="#b1MUgtLOwG" opacity="1" fill="#8ed7f0" fill-opacity="1"></use><g><use xlink:href="#b1MUgtLOwG" opacity="1" fill-opacity="0" stroke="#000000" stroke-width="1" stroke-opacity="0"></use></g></g><g><use xlink:href="#e2D7YjF0al" opacity="1" fill="#65cae5" fill-opacity="1"></use><g><use xlink:href="#e2D7YjF0al" opacity="1" fill-opacity="0" stroke="#000000" stroke-width="1" stroke-opacity="0"></use></g></g><g><use xlink:href="#cCLWUtQjX" opacity="1" fill="#65cae5" fill-opacity="1"></use><g><use xlink:href="#cCLWUtQjX" opacity="1" fill-opacity="0" stroke="#000000" stroke-width="1" stroke-opacity="0"></use></g></g><g><use xlink:href="#a3POuye9LU" opacity="1" fill="#d6f0fc" fill-opacity="1"></use><g><use xlink:href="#a3POuye9LU" opacity="1" fill-opacity="0" stroke="#000000" stroke-width="1" stroke-opacity="0"></use></g></g><g><use xlink:href="#a1SoeYfMaX" opacity="1" fill="#bfe6f3" fill-opacity="1"></use><g><use xlink:href="#a1SoeYfMaX" opacity="1" fill-opacity="0" stroke="#000000" stroke-width="1" stroke-opacity="0"></use></g></g><g><use xlink:href="#blfTdw4y0" opacity="1" fill="#bfe6f3" fill-opacity="1"></use><g><use xlink:href="#blfTdw4y0" opacity="1" fill-opacity="0" stroke="#000000" stroke-width="1" stroke-opacity="0"></use></g></g><g><use xlink:href="#a6F0CMqAG" opacity="1" fill="#bfe6f3" fill-opacity="1"></use><g><use xlink:href="#a6F0CMqAG" opacity="1" fill-opacity="0" stroke="#000000" stroke-width="1" stroke-opacity="0"></use></g></g></g></g></svg>