<?xml version="1.0" encoding="UTF-8" standalone="no"?>
<!DOCTYPE svg PUBLIC "-//W3C//DTD SVG 1.1//EN" "http://www.w3.org/Graphics/SVG/1.1/DTD/svg11.dtd">
<svg version="1.1" xmlns="http://www.w3.org/2000/svg" xmlns:xlink="http://www.w3.org/1999/xlink" preserveAspectRatio="xMidYMid meet" viewBox="0 0 100 100" width="100" height="100"><defs><path d="M52.95 19.24L53.12 19.38L53.3 19.52L53.47 19.66L53.64 19.8L53.81 19.94L53.98 20.08L54.15 20.23L54.32 20.37L54.5 20.51L54.67 20.65L54.84 20.79L55.01 20.93L55.18 21.08L55.35 21.22L55.53 21.36L55.7 21.5L55.87 21.64L56.04 21.78L56.22 21.93L56.39 22.07L56.56 22.21L56.73 22.35L56.91 22.49L57.08 22.63L57.25 22.77L57.42 22.91L57.6 23.05L57.77 23.19L57.94 23.33L58.12 23.47L58.29 23.61L58.46 23.75L58.64 23.89L58.81 24.03L58.99 24.17L59.16 24.31L59.33 24.45L59.51 24.58L59.68 24.72L59.84 24.84L60 24.96L60.14 25.08L60.29 25.19L60.42 25.3L60.56 25.4L60.69 25.5L60.81 25.59L60.93 25.68L61.04 25.77L61.15 25.85L61.26 25.93L61.36 26.01L61.46 26.08L61.55 26.15L61.64 26.22L61.73 26.28L61.81 26.34L61.88 26.39L61.96 26.45L62.03 26.5L62.1 26.54L62.16 26.59L62.22 26.63L62.27 26.67L62.33 26.7L62.38 26.74L62.43 26.77L62.47 26.8L62.51 26.83L62.55 26.85L62.59 26.88L62.62 26.9L62.65 26.92L62.68 26.94L62.71 26.95L62.73 26.97L62.75 26.98L62.77 26.99L62.79 27.01L65.63 27.46L75.41 36.47L73.35 38.71L73.21 38.87L73.06 39.03L72.92 39.19L72.78 39.35L72.63 39.51L72.49 39.67L72.34 39.83L72.2 39.99L72.05 40.15L71.91 40.3L71.76 40.46L71.62 40.62L71.47 40.78L71.33 40.93L71.18 41.09L71.04 41.25L70.89 41.4L70.75 41.56L70.6 41.71L70.46 41.87L70.31 42.02L70.17 42.18L70.02 42.33L69.88 42.49L69.73 42.64L69.59 42.79L69.44 42.95L69.3 43.1L69.01 43.41L68.87 43.56L68.73 43.71L68.58 43.87L68.44 44.02L68.3 44.17L68.16 44.32L68.02 44.47L67.87 44.62L67.73 44.77L67.59 44.93L66.08 46.57L69.01 46.57L78.79 55.58L78.79 86.94L78.79 87.01L78.79 87.07L78.79 87.14L78.78 87.21L78.78 87.27L78.77 87.34L78.76 87.4L78.75 87.47L78.74 87.53L78.73 87.6L78.71 87.66L78.7 87.72L78.68 87.79L78.66 87.85L78.65 87.91L78.63 87.97L78.6 88.03L78.58 88.09L78.56 88.15L78.54 88.21L78.51 88.27L78.48 88.33L78.46 88.39L78.43 88.44L78.4 88.5L78.37 88.56L78.33 88.62L78.3 88.67L78.27 88.73L78.23 88.78L78.2 88.84L78.16 88.89L78.12 88.95L78.08 89L78.04 89.05L78 89.11L77.96 89.16L77.92 89.21L77.88 89.26L77.83 89.31L77.72 89.44L77.6 89.56L77.48 89.67L77.35 89.79L77.22 89.9L77.08 90.02L76.94 90.13L76.79 90.23L76.64 90.34L76.49 90.44L76.33 90.54L76.17 90.64L76 90.74L75.83 90.84L75.66 90.93L75.49 91.02L75.31 91.12L75.13 91.2L74.94 91.29L74.76 91.38L74.57 91.46L74.38 91.54L74.19 91.62L73.99 91.7L73.8 91.78L73.6 91.86L73.4 91.93L73.21 92.01L73.01 92.08L72.81 92.15L72.6 92.22L72.4 92.29L72.2 92.35L72 92.42L71.8 92.48L71.59 92.55L71.39 92.61L71.19 92.67L70.99 92.73L70.79 92.79L70.5 92.88L70.21 92.96L69.92 93.05L69.63 93.13L69.34 93.21L69.05 93.28L68.77 93.36L68.49 93.43L68.21 93.5L67.93 93.57L67.66 93.63L67.38 93.7L67.11 93.76L66.84 93.82L66.57 93.87L66.31 93.93L66.04 93.98L65.78 94.03L65.52 94.08L65.26 94.13L65 94.17L64.75 94.21L64.5 94.25L64.25 94.29L64 94.32L63.76 94.35L63.51 94.38L63.27 94.41L63.03 94.44L62.8 94.46L62.56 94.48L62.33 94.5L62.1 94.52L61.87 94.53L61.64 94.54L61.42 94.55L61.2 94.56L60.98 94.57L60.77 94.57L60.55 94.57L60.49 94.57L60.43 94.57L60.38 94.57L60.32 94.56L60.27 94.56L60.21 94.55L60.15 94.53L60.09 94.51L60.03 94.49L59.96 94.46L59.89 94.42L59.81 94.38L59.72 94.32L59.63 94.26L59.53 94.19L59.42 94.11L59.3 94.01L59.17 93.91L59.04 93.79L58.88 93.66L58.72 93.52L58.54 93.36L58.35 93.19L58.14 93L57.92 92.8L57.68 92.58L57.42 92.34L57.15 92.08L56.85 91.8L56.54 91.5L56.21 91.19L55.85 90.85L55.47 90.49L55.07 90.11L54.65 89.7L54.2 89.27L53.72 88.82L53.22 88.34L52.7 87.83L52.14 87.3L52.1 87.26L52.05 87.21L52.01 87.17L51.96 87.13L51.92 87.08L51.87 87.04L51.83 86.99L51.78 86.95L51.74 86.91L51.7 86.86L51.65 86.82L51.61 86.78L51.56 86.73L51.52 86.69L51.47 86.65L51.43 86.61L51.38 86.56L51.34 86.52L51.16 86.35L51.12 86.31L51.07 86.26L51.03 86.22L50.98 86.18L50.94 86.13L50.89 86.09L50.85 86.05L50.8 86L50.76 85.96L50.71 85.92L50.67 85.87L50.63 85.83L50.58 85.79L50.54 85.74L50.49 85.7L50.45 85.65L50.4 85.61L50.36 85.57L50.32 85.55L50.29 85.54L50.25 85.53L50.21 85.51L50.17 85.49L50.13 85.47L50.08 85.44L50.04 85.42L49.99 85.39L49.94 85.35L49.88 85.32L49.82 85.28L49.76 85.23L49.7 85.19L49.63 85.13L49.56 85.08L49.49 85.02L49.41 84.96L49.33 84.89L49.24 84.82L49.15 84.74L49.06 84.66L48.96 84.57L48.85 84.48L48.74 84.38L48.63 84.28L48.51 84.17L48.38 84.06L48.25 83.94L48.11 83.81L47.97 83.68L47.82 83.54L47.67 83.39L47.5 83.24L47.33 83.08L47.16 82.92L46.97 82.75L46.78 82.57L46.59 82.38L46.38 82.18L46.3 82.11L46.23 82.03L46.15 81.95L46.07 81.87L45.99 81.79L45.91 81.71L45.82 81.63L45.74 81.55L45.65 81.47L45.57 81.38L45.48 81.3L45.39 81.21L45.3 81.12L45.21 81.04L45.11 80.95L45.02 80.85L44.92 80.76L44.82 80.67L44.73 80.58L44.63 80.48L44.53 80.38L44.32 80.19L44.22 80.09L44.11 79.98L44 79.88L43.89 79.78L43.78 79.67L43.67 79.57L43.56 79.46L43.44 79.35L43.33 79.24L43.21 79.12L43.09 79.01L42.98 78.9L42.85 78.78L42.73 78.66L42.61 78.54L42.48 78.42L42.36 78.3L41.98 77.93L41.59 77.56L41.22 77.19L40.84 76.83L40.47 76.46L40.1 76.1L39.73 75.74L39.36 75.38L39 75.02L38.63 74.67L38.27 74.31L37.92 73.96L37.56 73.61L37.21 73.26L36.86 72.91L36.51 72.56L36.17 72.21L35.83 71.87L35.49 71.53L35.15 71.19L34.82 70.85L34.49 70.51L34.16 70.18L33.83 69.84L33.51 69.51L33.19 69.18L32.87 68.86L32.56 68.53L32.25 68.21L31.94 67.88L31.63 67.56L31.33 67.24L31.03 66.93L30.73 66.61L30.44 66.3L30.14 65.99L29.86 65.68L29.57 65.37L29.29 65.07L29.01 64.77L28.52 64.23L28.04 63.71L27.59 63.2L27.16 62.72L26.75 62.25L26.36 61.79L25.99 61.36L25.64 60.94L25.3 60.53L24.99 60.14L24.69 59.77L24.4 59.41L24.14 59.06L23.89 58.73L23.65 58.41L23.43 58.11L23.22 57.81L23.03 57.53L22.85 57.26L22.68 57.01L22.53 56.76L22.39 56.52L22.26 56.3L22.14 56.08L22.03 55.88L21.93 55.68L21.84 55.49L21.76 55.31L21.69 55.14L21.62 54.98L21.57 54.83L21.52 54.68L21.48 54.54L21.44 54.4L21.41 54.27L21.39 54.15L21.37 54.03L21.35 53.92L21.34 53.81L21.33 53.7L21.33 53.64L21.33 53.58L21.34 53.51L21.34 53.44L21.35 53.37L21.36 53.29L21.37 53.22L21.39 53.14L21.41 53.05L21.43 52.97L21.45 52.87L21.48 52.78L21.51 52.68L21.55 52.58L21.59 52.47L21.64 52.36L21.69 52.24L21.74 52.11L21.81 51.99L21.87 51.85L21.94 51.71L22.02 51.57L22.11 51.41L22.2 51.25L22.3 51.09L22.4 50.92L22.51 50.74L22.63 50.55L22.76 50.36L22.89 50.15L23.03 49.94L23.18 49.73L23.34 49.5L23.51 49.27L23.69 49.02L23.87 48.77L24.07 48.51L24.27 48.24L24.49 47.96L24.71 47.67L24.82 47.52L24.94 47.38L25.05 47.23L25.17 47.07L25.29 46.92L25.41 46.76L25.54 46.61L25.66 46.44L25.79 46.28L25.93 46.12L26.06 45.95L26.2 45.78L26.34 45.61L26.48 45.43L26.62 45.25L26.77 45.07L26.92 44.89L27.07 44.71L27.23 44.52L27.39 44.33L27.55 44.14L27.71 43.95L27.88 43.75L28.05 43.55L28.22 43.35L28.39 43.15L28.57 42.94L28.75 42.73L28.94 42.52L29.12 42.31L29.31 42.09L29.5 41.87L29.7 41.65L29.9 41.43L30.1 41.2L30.31 40.97L30.51 40.74L30.73 40.51L30.94 40.27L31.16 40.03L31.37 39.8L31.58 39.56L31.8 39.32L32.01 39.07L32.23 38.83L32.46 38.58L32.68 38.33L32.91 38.08L33.14 37.82L33.37 37.57L33.6 37.31L33.84 37.05L34.08 36.79L34.32 36.52L34.56 36.25L34.81 35.99L35.06 35.72L35.31 35.44L35.56 35.17L35.82 34.89L36.07 34.61L36.33 34.33L36.59 34.05L36.86 33.76L37.13 33.48L37.39 33.19L37.67 32.9L37.94 32.6L38.22 32.31L38.49 32.01L38.77 31.71L39.06 31.41L39.34 31.11L39.63 30.8L39.92 30.49L40.21 30.18L40.5 29.87L40.8 29.56L41.1 29.24L41.4 28.93L41.62 28.69L41.85 28.45L42.08 28.2L42.3 27.96L42.53 27.72L42.76 27.48L42.99 27.24L43.21 27L43.44 26.76L43.67 26.52L43.9 26.28L44.12 26.03L44.35 25.79L44.58 25.55L44.81 25.31L45.04 25.07L45.27 24.82L45.49 24.58L45.72 24.34L45.95 24.1L46.18 23.85L46.41 23.61L46.64 23.37L46.87 23.13L47.1 22.88L47.33 22.64L47.79 22.15L48.02 21.91L48.24 21.67L48.7 21.18L48.93 20.94L49.39 20.45L49.85 19.96L50.54 19.23L51.59 18.09L52.78 19.1L52.95 19.24ZM52.4 62.29L52.29 62.43L52.19 62.57L52.18 62.6L52.17 62.63L52.15 62.65L52.14 62.66L52.25 62.78L52.36 62.93L52.49 63.11L52.64 63.3L52.64 61.93L52.51 62.12L52.4 62.29Z" id="c1kZm8IaAf"></path><path d="M67.91 74.32C67.91 72.23 67.91 61.78 67.91 42.96L58.13 33.95L58.13 42.96L51.55 42.96C51.55 53.99 51.55 60.11 51.55 61.34C50.72 60.56 49.22 59.05 46.47 56.08C43.09 52.38 41.76 50.78 41.22 50.05C41.22 50.05 41.26 50 41.26 49.95C40.6 49.36 37.31 46.39 31.39 41.04C26.56 43.07 23.88 44.2 23.34 44.42C20.55 48.03 20.28 49.27 20.28 50.09C20.28 51.46 21.19 53.89 27.91 61.2C30.43 63.94 33.35 66.91 36.55 70.11C37.97 69.9 45.04 68.82 57.76 66.87L66.95 76.7C67.59 75.72 67.91 74.93 67.91 74.32Z" id="gp9Q93Hw"></path><path d="M46.24 43.97C49.22 40.58 52.74 36.65 56.71 32.31C58.59 30.3 60.55 28.24 62.47 26.09C62.61 25.94 63.3 25.2 64.53 23.85L54.75 14.85C53.79 15.89 53.25 16.47 53.15 16.58C52.69 16.22 52.23 15.81 51.78 15.44C51.7 15.37 51.3 15.04 50.59 14.43C49.96 15.12 49.61 15.5 49.54 15.58C46.47 18.82 43.41 22.07 40.39 25.27C34.91 31.07 30.52 35.87 27.41 39.53C25.72 41.5 24.44 43.1 23.43 44.38C23.97 44.15 26.65 43.02 31.48 40.99L41.26 49.95C42.48 48.34 44.14 46.34 46.24 43.97Z" id="fXANmrbfF"></path><path d="M36.55 70.07C38.06 71.58 39.62 73.09 41.26 74.69C41.26 74.69 41.26 74.69 41.26 74.69C48.85 81.95 48.85 81.95 49.67 81.95C52.51 81.95 55.98 81.36 59.91 80.17C62.56 79.39 65.49 78.34 66.95 76.7C66.34 76.04 63.28 72.75 57.76 66.82C45.04 68.77 37.97 69.85 36.55 70.07Z" id="a1lX8IsXVF"></path><path d="M31.48 65.68C39.07 72.95 39.07 72.95 39.89 72.95C42.72 72.95 46.2 72.35 50.13 71.17C53.88 70.07 58.13 68.42 58.13 65.27C58.13 63.18 58.13 52.72 58.13 33.91L41.76 33.91C41.76 44.93 41.76 51.06 41.76 52.29C40.94 51.51 39.43 50 36.69 47.03C33.31 43.33 31.98 41.73 31.43 40.99C31.94 40.26 33.22 38.62 36.46 34.91C39.43 31.53 42.95 27.6 46.93 23.26C48.8 21.25 50.77 19.19 52.69 17.04C52.83 16.89 53.51 16.14 54.75 14.8C53.05 14.53 52.1 14.37 51.91 14.34C51.68 14.21 50.95 13.75 48.8 12.06C46.47 10.23 44.19 8.31 41.9 6.43C41.82 6.37 41.43 6.03 40.71 5.43C40.08 6.11 39.73 6.5 39.66 6.57C36.6 9.82 33.54 13.06 30.52 16.26C25.03 22.07 20.64 26.87 17.54 30.53C11.04 38.07 10.5 39.9 10.5 41.04C10.5 42.41 11.41 44.83 18.13 52.15C21.83 56.17 26.31 60.74 31.48 65.68C31.48 65.68 31.48 65.68 31.48 65.68Z" id="abdUAFa5f"></path><path d="M39.98 18.69L23.34 28.65L51.73 18.09L48.03 22.07L21.38 33.31L42.31 28.38C23.36 35.29 12.83 39.13 10.72 39.9C10.72 39.9 12.1 36.29 20.28 27.37C22.91 26.21 29.47 23.32 39.98 18.69Z" id="a1nsYrLc44"></path><path d="M24.71 53.75L40.26 50.87L37.56 48.03L24.71 53.75Z" id="aQhBrmh7G"></path><path d="M35.5 63.71L53.33 57.27L35.5 69.57L36.55 70.07L58.13 58.23L58.13 50.87L35.5 63.71Z" id="a3JPBnQx4S"></path></defs><g><g><g><use xlink:href="#c1kZm8IaAf" opacity="1" fill="#019db2" fill-opacity="1"></use><g><use xlink:href="#c1kZm8IaAf" opacity="1" fill-opacity="0" stroke="#000000" stroke-width="1" stroke-opacity="0"></use></g></g><g><use xlink:href="#gp9Q93Hw" opacity="1" fill="#8ed7f0" fill-opacity="1"></use><g><use xlink:href="#gp9Q93Hw" opacity="1" fill-opacity="0" stroke="#000000" stroke-width="1" stroke-opacity="0"></use></g></g><g><use xlink:href="#fXANmrbfF" opacity="1" fill="#65cae5" fill-opacity="1"></use><g><use xlink:href="#fXANmrbfF" opacity="1" fill-opacity="0" stroke="#000000" stroke-width="1" stroke-opacity="0"></use></g></g><g><use xlink:href="#a1lX8IsXVF" opacity="1" fill="#65cae5" fill-opacity="1"></use><g><use xlink:href="#a1lX8IsXVF" opacity="1" fill-opacity="0" stroke="#000000" stroke-width="1" stroke-opacity="0"></use></g></g><g><use xlink:href="#abdUAFa5f" opacity="1" fill="#d6f0fc" fill-opacity="1"></use><g><use xlink:href="#abdUAFa5f" opacity="1" fill-opacity="0" stroke="#000000" stroke-width="1" stroke-opacity="0"></use></g></g><g><use xlink:href="#a1nsYrLc44" opacity="1" fill="#bfe6f3" fill-opacity="1"></use><g><use xlink:href="#a1nsYrLc44" opacity="1" fill-opacity="0" stroke="#000000" stroke-width="1" stroke-opacity="0"></use></g></g><g><use xlink:href="#aQhBrmh7G" opacity="1" fill="#bfe6f3" fill-opacity="1"></use><g><use xlink:href="#aQhBrmh7G" opacity="1" fill-opacity="0" stroke="#000000" stroke-width="1" stroke-opacity="0"></use></g></g><g><use xlink:href="#a3JPBnQx4S" opacity="1" fill="#bfe6f3" fill-opacity="1"></use><g><use xlink:href="#a3JPBnQx4S" opacity="1" fill-opacity="0" stroke="#000000" stroke-width="1" stroke-opacity="0"></use></g></g></g></g></svg>