<?xml version="1.0" encoding="UTF-8" standalone="no"?>
<!DOCTYPE svg PUBLIC "-//W3C//DTD SVG 1.1//EN" "http://www.w3.org/Graphics/SVG/1.1/DTD/svg11.dtd">
<svg version="1.1" xmlns="http://www.w3.org/2000/svg" xmlns:xlink="http://www.w3.org/1999/xlink" preserveAspectRatio="xMidYMid meet" viewBox="0 0 120 120" width="120" height="120"><defs><path d="M93.18 29.46L93.18 29.46L85.91 29.46L85.91 29.46L45 29.46L39.24 47.11L39.24 47.11L39.24 47.11L39.24 47.11L39.24 47.11L49.07 56.11L57.75 56.11L35.81 94.19L35.81 94.19L35.81 94.19L35.81 94.19L35.81 94.19L45.6 103.15L94.1 103.15L94.24 103.15L100.22 85.78L90.39 76.82L90.39 76.82L82.26 76.82L103.01 38.47L93.18 29.46Z" id="e9b4zx7fo"></path><path d="M82.26 16.85L61.82 43.45L46.65 69.78L70.24 66.22L92.09 25.81L82.26 16.85Z" id="e4UqJnLG5I"></path><path d="M70.24 66.22L46.65 69.78L44.13 74.17L73.53 81.58L83.17 90.54L83.31 90.54L89.3 73.17L79.47 64.16L69.64 67.31L70.24 66.22Z" id="brXlmJREl"></path><path d="M43.22 75.73L24.89 81.58L34.67 90.54L83.17 90.54L73.53 81.58L44.13 74.17L43.22 75.73Z" id="g45lDuql9H"></path><path d="M43.86 25.81L42.58 29.83L28.32 34.49L38.14 43.45L61.82 43.45L82.26 16.85L54.78 25.81L43.86 25.81Z" id="gzsOZfzDp"></path><path d="M28.32 34.49L52 34.49L24.89 81.58L73.53 81.58L79.47 64.16L56.66 64.16L82.26 16.85L34.07 16.85L28.32 34.49Z" id="ctUyPSzfY"></path><path d="M53.55 24.66L43.22 30.83L74.99 16.85L82.26 16.85L52.09 32.16L73.39 23.7L49.75 38.38L52 34.49L28.32 34.49L53.55 24.66Z" id="a9Ktpq7pY"></path><path d="M49.11 54.47L65.85 47.25L69.37 41.58L49.11 54.47Z" id="a8re5K1uO1"></path><path d="M59.22 65.35L43.31 77.37L66.71 64.3L72.57 64.3L44.13 81.58L24.89 81.58L59.22 65.35Z" id="b466Dkwqi"></path></defs><g><g><g><use xlink:href="#e9b4zx7fo" opacity="1" fill="#019db2" fill-opacity="1"></use><g><use xlink:href="#e9b4zx7fo" opacity="1" fill-opacity="0" stroke="#000000" stroke-width="1" stroke-opacity="0"></use></g></g><g><use xlink:href="#e4UqJnLG5I" opacity="1" fill="#65cae5" fill-opacity="1"></use><g><use xlink:href="#e4UqJnLG5I" opacity="1" fill-opacity="0" stroke="#000000" stroke-width="1" stroke-opacity="0"></use></g></g><g><use xlink:href="#brXlmJREl" opacity="1" fill="#8ed7f0" fill-opacity="1"></use><g><use xlink:href="#brXlmJREl" opacity="1" fill-opacity="0" stroke="#000000" stroke-width="1" stroke-opacity="0"></use></g></g><g><use xlink:href="#g45lDuql9H" opacity="1" fill="#65cae5" fill-opacity="1"></use><g><use xlink:href="#g45lDuql9H" opacity="1" fill-opacity="0" stroke="#000000" stroke-width="1" stroke-opacity="0"></use></g></g><g><use xlink:href="#gzsOZfzDp" opacity="1" fill="#65cae5" fill-opacity="1"></use><g><use xlink:href="#gzsOZfzDp" opacity="1" fill-opacity="0" stroke="#000000" stroke-width="1" stroke-opacity="0"></use></g></g><g><use xlink:href="#ctUyPSzfY" opacity="1" fill="#d6f0fc" fill-opacity="1"></use><g><use xlink:href="#ctUyPSzfY" opacity="1" fill-opacity="0" stroke="#000000" stroke-width="1" stroke-opacity="0"></use></g></g><g><use xlink:href="#a9Ktpq7pY" opacity="1" fill="#bfe6f3" fill-opacity="1"></use><g><use xlink:href="#a9Ktpq7pY" opacity="1" fill-opacity="0" stroke="#000000" stroke-width="1" stroke-opacity="0"></use></g></g><g><use xlink:href="#a8re5K1uO1" opacity="1" fill="#bfe6f3" fill-opacity="1"></use><g><use xlink:href="#a8re5K1uO1" opacity="1" fill-opacity="0" stroke="#000000" stroke-width="1" stroke-opacity="0"></use></g></g><g><use xlink:href="#b466Dkwqi" opacity="1" fill="#bfe6f3" fill-opacity="1"></use><g><use xlink:href="#b466Dkwqi" opacity="1" fill-opacity="0" stroke="#000000" stroke-width="1" stroke-opacity="0"></use></g></g></g></g></svg>