<?xml version="1.0" encoding="UTF-8" standalone="no"?>
<!DOCTYPE svg PUBLIC "-//W3C//DTD SVG 1.1//EN" "http://www.w3.org/Graphics/SVG/1.1/DTD/svg11.dtd">
<svg version="1.1" xmlns="http://www.w3.org/2000/svg" xmlns:xlink="http://www.w3.org/1999/xlink" preserveAspectRatio="xMidYMid meet" viewBox="0 0 100 100" width="100" height="100"><defs><path d="M135.36 415.36C135.31 412.71 134.35 410.38 132.48 408.46C131.73 407.71 125.73 401.71 124.98 400.96C124.39 400.18 123.52 399.27 122.33 398.31C121.02 397 110.52 386.5 109.21 385.19C108.39 384.37 107.47 383.73 106.47 383.27C105.76 382.56 100.09 376.93 99.38 376.23C97.51 374.35 95.18 373.39 92.48 373.39C92.48 373.39 92.48 373.39 92.48 373.39C92.48 373.39 92.48 373.39 92.48 373.39C89.92 373.39 87.59 374.31 85.62 376.18C84.02 377.79 76 385.8 61.58 400.23C61.55 400.26 61.53 400.27 61.53 400.27C59.7 402.24 58.74 404.57 58.74 407.13C58.74 407.59 58.79 408.05 58.83 408.5C57.14 413.26 66.01 418.93 67.15 419.61C68.92 421.38 83.08 435.53 84.85 437.3C85.71 438.17 86.67 438.86 87.73 439.31C88.42 440.01 93.98 445.57 94.67 446.26C96.59 448.18 98.97 449.19 101.67 449.19C104.32 449.19 106.65 448.23 108.57 446.26C108.71 446.13 109.39 445.44 110.63 444.21L119.91 452.39L131.2 440.46L122.51 432.32C128.49 426.37 131.82 423.06 132.48 422.4C134.35 420.43 135.36 418.1 135.36 415.45C135.36 415.41 135.36 415.38 135.36 415.36Z" id="cs86Tkd6q"></path><path d="M290.15 494.31L290.15 494.31L285.85 492.07L285.85 492.07L281.23 489.65L281.23 489.65L275.75 486.77L269.35 496.73L264.5 499.66L261.99 495.77L252.16 486.77L252.16 486.77L252.16 486.77L237.76 494.22L254.4 519.91L234.51 550.67L234.51 550.67L234.51 550.67L234.51 550.67L234.51 550.67L244.3 559.68L259.34 565.76L271.82 546.7L278.35 556.8L278.35 556.8L288.18 565.76L303.18 559.63L283.38 528.87L299.98 503.31L290.15 494.31Z" id="fhBWAIQnn"></path><path d="M512.27 389.62L489.01 446.17L488.91 446.22L474.47 451.57L464.69 442.56L437.99 378.29L455.27 374.77L465.05 383.77L469.26 393.51L480.18 390.77L486.58 374.13L502.49 380.71L512.27 389.62ZM474.51 405.62L476.07 401.65L473.14 402.42L474.51 405.62ZM471.22 398.13L477.99 396.57L479.54 392.5L470.4 396.16L471.22 398.13Z" id="abUTaVxbd"></path><path d="M602.93 282.47C602.93 280.78 601.55 278.72 598.31 275.61C598.31 275.61 598.31 275.61 598.31 275.61C596.57 273.97 594.1 271.77 590.95 269.17C590.31 268.39 589.49 267.57 588.53 266.65C588.53 266.65 588.53 266.65 588.53 266.65C586.29 264.55 582.9 261.62 578.42 257.92C577.37 257.05 576.27 256.23 575.22 255.36C575.22 255.36 575.22 255.36 575.22 255.36C575.22 255.36 575.22 255.36 575.22 255.36C572.16 252.94 569.19 250.51 566.26 248.14C565.62 247.59 564.8 247.31 563.98 247.31C563.66 247.31 563.34 247.36 562.97 247.45C562.96 247.46 562.85 247.49 562.83 247.5C562.24 247.68 561.92 247.77 561.78 247.82C561.77 247.82 561.7 247.82 561.69 247.82C559.09 248.5 556.71 249.23 554.74 249.97C551.86 251.06 550.95 251.7 550.49 252.11C550.45 252.15 550.27 252.32 549.94 252.62L549.94 281.05L549.94 285.3L549.94 299.43L549.94 309.17L549.94 314.29L549.94 314.29L559.73 323.29C560.88 323.1 561.52 322.99 561.65 322.97C564.53 322.51 566.67 322.15 568.05 321.87C570.19 321.51 571.79 321.23 572.89 321.01C573.85 320.82 574.72 320.59 575.27 320.14C575.59 319.86 575.77 319.45 575.77 318.9C575.77 317.94 575.77 310.22 575.77 309.26C575.82 309.21 575.82 309.21 575.86 309.17C576.5 308.53 578.15 306.93 582.31 303.13C588.71 297.33 593.1 293.3 595.34 291.15C602.93 283.98 602.93 283.34 602.93 282.47C602.93 282.47 602.93 282.42 602.93 282.47Z" id="afl9FnQvj"></path><path d="M270.08 389.85L258.61 376.27L249.46 367.86L248.96 367.27L248.87 367.31L248.78 367.27L248.82 367.36L248.82 367.36L248.78 367.27C231.88 379.8 222.49 386.77 220.62 388.16C219.93 388.62 219.43 389.03 219.06 389.39C219.06 389.4 219.02 389.44 219.02 389.44C217.83 390.72 217.23 392.09 217.23 393.6C217.23 394.47 217.46 395.34 217.87 396.21C217.87 396.21 217.87 396.21 217.87 396.21C218.74 398.67 221.9 401.19 224.27 402.79C225.25 403.7 233.08 411.02 234.06 411.93C234.19 412.07 234.29 412.21 234.33 412.34C234.33 412.34 234.29 412.39 234.29 412.39C234.28 412.39 234.2 412.43 234.19 412.43C234.19 412.43 234.1 412.53 233.87 412.66C232.5 413.66 225.61 418.64 213.21 427.61L226.1 441.1L226.1 441.1L235.89 450.1L265.1 427.79C265.15 427.77 265.18 427.75 265.19 427.75C266.19 426.88 266.88 426.06 267.38 425.19C267.75 424.55 267.98 423.91 268.11 423.27C268.16 422.95 268.21 422.67 268.21 422.35C268.21 421.35 267.89 420.34 267.34 419.43C267.33 419.42 267.3 419.39 267.29 419.38C267.15 419.15 266.88 418.83 266.56 418.42C266.56 418.42 266.54 418.39 266.51 418.33L251.84 404.57L250.83 403.61C250.81 403.58 250.79 403.57 250.79 403.57C250.79 403.57 250.79 403.57 250.79 403.57C250.97 403.43 251.2 403.29 251.52 403.06C253.99 401.3 260.18 396.9 270.08 389.85Z" id="bqtq0SJj"></path><path d="M585.23 374.67L576.14 400.05L568.96 386.42L559.18 377.42L559.18 377.42L559.18 377.42L551.82 396.07L546.93 384.09L537.14 375.09L541.3 385.33L541.3 385.33L537.14 375.09L519.31 379.02L542.81 440.05C542.92 440.18 542.98 440.26 542.99 440.27C543.22 440.55 543.5 440.78 543.73 440.96C544.64 441.79 551.91 448.45 552.82 449.28C553.83 450.42 554.88 450.65 555.57 450.65C556.3 450.65 556.98 450.47 557.58 450.06C557.9 449.87 558.17 449.6 558.49 449.19C558.5 449.18 558.53 449.15 558.58 449.1L567.54 431.31L572.43 440.27C572.52 440.36 572.56 440.4 572.57 440.41C572.85 440.73 573.12 440.91 573.35 441.1C574.25 441.92 581.45 448.54 582.35 449.37C583.27 450.42 584.32 450.65 585.01 450.65C585.6 450.65 586.24 450.47 586.83 450.06C587.06 449.92 587.34 449.74 587.61 449.46C587.63 449.45 587.7 449.37 587.84 449.23L610.7 392.23L600.87 383.22L600.87 383.22L585.23 374.67Z" id="b4IkJfiued"></path><path d="M341.67 392.37L338.47 398.54L338.42 398.67L324.25 398.67L324.25 445.67L306.7 449.87L296.91 440.87L296.91 438.77L296.87 432.05L296.91 432L296.91 398.49L296.37 398.49L295.95 398.72L295.73 398.49L284.3 398.54L274.51 389.53L282.38 373.94L336.82 373.94L346.56 382.9L341.67 392.37Z" id="b10U9ibMRL"></path><path d="M163.02 447.36C163.07 447.36 163.1 447.36 163.11 447.36C170.24 445.62 170.88 445.26 171.25 445.03C171.3 445 171.57 444.85 172.07 444.57L172.07 444.57C172.07 434.7 172.07 429.21 172.07 428.11C173.3 429.62 174.58 431.13 175.82 432.59C179.11 436.53 180.43 437.99 181.21 438.49C182.09 439.3 189.11 445.77 189.99 446.58C191.18 447.77 191.5 447.77 192 447.77C192.55 447.77 193.14 447.63 196.34 445.62C198.86 444.02 201.46 442.38 204.16 440.69C204.35 440.56 205.29 439.95 206.99 438.86C206.25 438.01 205.84 437.53 205.76 437.44C203.02 434.29 199.59 430.17 195.57 425.28C191.27 419.98 189.71 417.92 189.17 417.14C189.17 417.14 189.17 417.14 189.17 417.14C189.49 416.59 190.26 415.41 192.37 412.94C194.29 410.74 195.93 408.55 197.26 406.45C197.26 406.44 197.3 406.4 197.3 406.4C197.62 405.85 197.81 405.35 197.81 404.85C197.81 404.71 197.81 404.57 197.76 404.48C197.1 403.88 193.83 400.86 187.93 395.43C187.93 395.43 187.93 395.43 187.93 395.43C187.93 395.38 187.93 395.34 187.89 395.29C187.89 395.29 187.9 395.29 187.93 395.29C193.83 400.72 197.1 403.74 197.76 404.34C197.71 403.93 197.53 403.52 197.3 403.06C197.29 403.04 197.18 402.9 197.17 402.88C194.29 399.27 189.53 393.92 183.09 386.97C181.12 384.87 180.39 383.95 180.11 383.59C180.11 383.56 180.11 383.41 180.11 383.13C174.24 377.73 170.98 374.73 170.33 374.13C170.33 374.17 170.33 374.22 170.29 374.26C170.22 374.22 169.67 373.85 169.6 373.81C169.01 373.39 168.27 373.03 167.5 372.66C166.58 372.3 165.62 372.07 164.57 372.07C164.3 372.07 163.84 372.07 162.65 372.25C162.61 372.26 162.43 372.29 162.1 372.34C162.02 372.43 161.97 372.47 161.97 372.48C161.37 372.66 159.54 373.12 153.92 374.35C152.09 374.77 149.26 375.41 145.51 376.23C145.42 376.25 145 376.34 144.23 376.5L144.23 387.47L144.23 404.25L144.23 440L144.23 440L154.1 448.96L163.02 447.36Z" id="d19MxQhXIy"></path><path d="M339.34 499.75L350.95 495.13L356.53 486.86L364.07 489.92L367.68 491.38L372.34 493.26L382.08 502.26L359.95 534.81L359.95 561.23L342.95 565.44L333.17 556.43L333.17 526.13L310.08 493.9L326.72 486.86L336.5 495.86L339.34 499.75ZM343.59 505.55L344.09 505.37L346.15 502.31L342.54 504.14L343.59 505.55Z" id="a6zdBToWJZ"></path><path d="M446.31 491.25L446.31 491.25L439.04 491.25L439.04 491.25L398.13 491.25L392.37 508.89L392.37 508.89L392.37 508.89L392.37 508.89L392.37 508.89L402.19 517.9L410.88 517.9L388.94 555.98L388.94 555.98L388.94 555.98L388.94 555.98L388.94 555.98L398.72 564.94L447.22 564.94L447.36 564.94L453.35 547.57L443.52 538.61L443.52 538.61L435.38 538.61L456.14 500.25L446.31 491.25Z" id="e1L4VLUqnD"></path><path d="M391.09 381.21L389.49 382.4L390.08 382.95L390.08 412.25L395.34 409.69L395.34 377.51L413.17 373.99L422.9 382.99L422.9 447.22L405.71 450.42L405.07 450.56L405.07 449.92L401.23 446.63L396.43 450.06L377.55 442.42L377.44 442.37L377.33 442.33L377.22 442.28L377.11 442.23L377.01 442.18L376.9 442.13L376.8 442.09L376.7 442.04L376.6 441.99L376.5 441.94L376.4 441.89L376.31 441.84L376.21 441.79L376.12 441.74L376.03 441.7L375.94 441.65L375.85 441.6L375.76 441.55L375.68 441.5L375.59 441.45L375.51 441.4L375.43 441.34L375.35 441.29L375.27 441.24L375.2 441.19L375.12 441.14L375.05 441.08L374.98 441.03L374.9 440.98L374.84 440.93L374.77 440.87L374.7 440.82L374.63 440.76L374.57 440.71L374.51 440.65L374.45 440.59L374.39 440.54L374.33 440.48L374.27 440.42L374.22 440.37L365.85 432.59L365.44 432.18L365.39 432.14L365.33 432.1L365.3 432.08L365.28 432.06L365.25 432.04L365.22 432.02L365.19 432L365.17 431.98L365.14 431.96L365.11 431.94L365.09 431.92L365.06 431.89L365.03 431.87L365.01 431.85L364.98 431.83L364.95 431.81L364.93 431.79L364.9 431.77L364.88 431.75L364.85 431.73L364.83 431.71L364.8 431.69L364.78 431.67L364.75 431.65L364.73 431.63L364.7 431.61L364.68 431.59L364.66 431.57L364.63 431.55L364.61 431.52L364.59 431.5L364.56 431.48L364.54 431.46L364.52 431.44L364.5 431.42L364.48 431.4L364.46 431.38L364.43 431.36L364.28 431.2L364.12 431.04L363.97 430.88L363.82 430.72L363.68 430.55L363.54 430.37L363.4 430.2L363.27 430.02L363.14 429.83L363.02 429.65L362.9 429.46L362.79 429.27L362.67 429.07L362.57 428.87L362.46 428.67L362.36 428.46L362.27 428.25L362.18 428.04L362.09 427.82L362.01 427.61L361.93 427.38L361.85 427.16L361.78 426.93L361.71 426.7L361.65 426.46L361.59 426.23L361.53 425.99L361.48 425.74L361.44 425.5L361.39 425.25L361.35 424.99L361.32 424.74L361.29 424.48L361.26 424.22L361.24 423.95L361.22 423.68L361.21 423.41L361.2 423.14L361.19 422.86L361.19 422.58L361.19 378.15L380.25 373.9L389.21 382.13L391.09 381.21ZM390.13 424.37L395.38 426.42L395.38 421.81L394.24 422.45L395.38 421.53L395.38 419.2L390.13 422.49L390.13 424.37ZM390.13 417.14L395.38 413.76L395.38 412.11L390.13 414.08L390.13 417.14Z" id="c65FNEcjxQ"></path><path d="M84.48 372.53C82.88 374.13 74.86 382.14 60.43 396.57C60.41 396.6 60.39 396.61 60.39 396.62C58.56 398.58 57.6 400.91 57.6 403.47C57.6 406.17 58.56 408.5 60.43 410.38C60.75 410.69 62.3 412.24 65.1 415.04L81.69 406.58C80.48 405.38 79.81 404.71 79.68 404.57C79.31 404.21 79.18 403.84 79.18 403.29C79.18 402.79 79.36 402.33 79.73 401.87C80.74 400.87 88.86 392.82 89.87 391.82C90.33 391.45 90.79 391.27 91.2 391.27C91.7 391.27 92.11 391.41 92.48 391.77C92.58 391.88 93.1 392.39 94.03 393.33C93.24 387.48 92.8 384.24 92.71 383.59C92.66 383.59 89.23 378.06 85.35 371.79C85.03 372.02 84.75 372.25 84.48 372.53Z" id="d2y6Kf6bsy"></path><path d="M98.24 372.57C96.37 370.7 94.03 369.74 91.34 369.74C89.14 369.74 87.13 370.42 85.35 371.79C89.23 378.06 92.66 383.59 92.66 383.59C92.75 384.24 93.19 387.48 93.99 393.33L100.25 399.59L114.61 393.83C120.48 399.15 123.74 402.11 124.39 402.7C124.39 400.05 123.43 397.71 121.51 395.84C116.85 391.19 100.57 374.9 98.24 372.57Z" id="b2skWWG7NN"></path><path d="M92.16 414.4C92.13 414.43 92.12 414.44 92.11 414.45C91.93 414.67 91.61 414.9 90.88 414.9C90.29 414.9 89.87 414.77 89.51 414.4C88.98 413.88 86.36 411.25 81.65 406.54L65.05 414.99C71.47 421.41 75.04 424.98 75.75 425.69C81.87 424.32 89.83 422.58 89.83 422.58C90.48 423.18 93.74 426.19 99.61 431.59L108.89 439.77L120.18 427.84L110.4 418.83L98.61 407.95L92.16 414.4Z" id="bgcHeLnNd"></path><path d="M124.43 402.74C123.78 402.15 120.52 399.2 114.65 393.87L100.3 399.63C101.53 400.87 102.22 401.55 102.35 401.69C102.72 402.06 102.86 402.47 102.86 403.06C102.86 403.79 102.63 404.07 102.4 404.3C102.15 404.55 100.9 405.8 98.65 408.05L110.49 418.88L120.27 427.89L111.59 419.75C117.57 413.8 120.89 410.49 121.55 409.83C123.43 407.82 124.43 405.49 124.43 402.83C124.43 402.79 124.43 402.76 124.43 402.74Z" id="b2Kgee8Zzy"></path><path d="M89.83 391.82C88.81 392.82 80.69 400.87 79.68 401.87C79.31 402.33 79.13 402.79 79.13 403.29C79.13 403.84 79.27 404.21 79.63 404.57C79.77 404.71 80.44 405.38 81.65 406.58L85.21 404.75L81.65 406.58C86.36 411.3 88.98 413.92 89.51 414.45C89.87 414.81 90.29 414.95 90.88 414.95C91.61 414.95 91.89 414.72 92.11 414.49C92.12 414.49 92.13 414.47 92.16 414.45C98.28 408.33 101.67 404.93 102.35 404.25C102.58 404.07 102.81 403.75 102.81 403.02C102.81 402.42 102.67 402.01 102.31 401.65C102.17 401.51 101.49 400.82 100.25 399.59L94.72 401.78L100.25 399.59C95.56 394.9 92.96 392.29 92.43 391.77C92.07 391.41 91.7 391.27 91.15 391.27C90.74 391.27 90.29 391.45 89.83 391.82Z" id="f7vnFMPFO6"></path><path d="M83.75 433.65C85.67 435.57 88.05 436.57 90.74 436.57C93.39 436.57 95.73 435.61 97.65 433.65C97.78 433.51 98.47 432.82 99.7 431.59C93.83 426.19 90.57 423.18 89.92 422.58C89.87 422.58 81.92 424.32 75.79 425.69C77.39 427.28 82.95 432.85 83.75 433.65Z" id="aVQht5EBA"></path><path d="M81.83 360.74L81.97 360.75L82.11 360.76L82.25 360.78L82.4 360.8L82.54 360.82L82.69 360.84L82.84 360.87L83 360.91L83.15 360.95L83.31 360.99L83.47 361.03L83.63 361.08L83.79 361.13L83.95 361.18L84.12 361.24L84.29 361.31L84.46 361.37L84.63 361.44L84.8 361.51L84.98 361.59L85.15 361.67L85.33 361.75L85.52 361.84L85.7 361.93L85.88 362.02L86.07 362.12L86.26 362.22L86.45 362.33L86.64 362.43L86.84 362.55L87.03 362.66L87.23 362.78L87.43 362.9L87.63 363.03L87.83 363.16L88.04 363.29L88.25 363.43L88.46 363.57L111.73 386.88L111.87 387.02L112.01 387.17L112.15 387.32L112.29 387.47L112.42 387.62L112.54 387.77L112.67 387.93L112.78 388.09L112.9 388.24L113.01 388.4L113.12 388.56L113.22 388.73L113.33 388.89L113.42 389.06L113.52 389.23L113.6 389.39L113.69 389.57L113.77 389.74L113.85 389.91L113.93 390.09L114 390.26L114.06 390.44L114.13 390.62L114.19 390.8L114.24 390.98L114.3 391.17L114.35 391.35L114.39 391.54L114.43 391.72L114.47 391.91L114.51 392.1L114.54 392.3L114.56 392.49L114.59 392.68L114.61 392.88L114.62 393.07L114.64 393.27L114.64 393.47L114.65 393.67L114.65 393.87L114.65 394.07L114.64 394.27L114.63 394.47L114.62 394.66L114.6 394.85L114.58 395.05L114.56 395.24L114.53 395.43L114.5 395.61L114.46 395.8L114.43 395.99L114.38 396.17L114.34 396.35L114.29 396.54L114.23 396.72L114.17 396.9L114.11 397.07L114.05 397.25L113.98 397.43L113.91 397.6L113.83 397.77L113.75 397.94L113.67 398.11L113.59 398.28L113.5 398.45L113.4 398.61L113.3 398.78L113.2 398.94L113.1 399.1L112.99 399.26L112.88 399.42L112.77 399.58L112.65 399.73L112.53 399.89L112.4 400.04L112.27 400.19L112.14 400.34L112.01 400.49L111.87 400.63L111.73 400.78L101.76 410.7L110.45 418.83L99.15 430.77L89.87 422.58L87.82 424.64L87.67 424.79L87.53 424.93L87.38 425.07L87.23 425.2L87.08 425.33L86.93 425.46L86.77 425.58L86.62 425.7L86.46 425.81L86.3 425.93L86.14 426.03L85.98 426.14L85.82 426.24L85.65 426.34L85.49 426.43L85.32 426.52L85.15 426.6L84.98 426.69L84.81 426.77L84.64 426.84L84.47 426.91L84.29 426.98L84.11 427.04L83.94 427.1L83.76 427.16L83.58 427.21L83.39 427.26L83.21 427.31L83.03 427.35L82.84 427.39L82.65 427.42L82.47 427.45L82.28 427.48L82.09 427.5L81.89 427.52L81.7 427.54L81.51 427.55L81.31 427.56L81.11 427.56L80.91 427.57L80.71 427.56L80.51 427.56L80.31 427.55L80.11 427.54L79.92 427.52L79.72 427.5L79.53 427.47L79.34 427.45L79.14 427.41L78.95 427.38L78.76 427.34L78.58 427.3L78.39 427.25L78.21 427.2L78.02 427.15L77.84 427.09L77.66 427.03L77.48 426.96L77.3 426.89L77.13 426.82L76.95 426.75L76.78 426.67L76.61 426.59L76.43 426.5L76.27 426.41L76.1 426.32L75.93 426.22L75.77 426.12L75.6 426.01L75.44 425.91L75.28 425.8L75.13 425.68L74.97 425.56L74.81 425.44L74.66 425.32L74.51 425.19L74.36 425.06L74.21 424.92L74.06 424.78L73.92 424.64L50.65 401.37L50.51 401.23L50.38 401.09L50.25 400.94L50.12 400.8L49.99 400.65L49.87 400.5L49.75 400.35L49.64 400.19L49.53 400.04L49.42 399.88L49.31 399.72L49.21 399.56L49.12 399.4L49.02 399.24L48.93 399.07L48.84 398.91L48.76 398.74L48.68 398.57L48.6 398.4L48.53 398.23L48.46 398.05L48.4 397.88L48.33 397.7L48.28 397.52L48.22 397.34L48.17 397.16L48.12 396.98L48.08 396.79L48.03 396.61L48 396.42L47.96 396.23L47.93 396.04L47.91 395.85L47.88 395.66L47.86 395.46L47.85 395.27L47.83 395.07L47.82 394.87L47.82 394.67L47.82 394.47L47.82 394.28L47.82 394.09L47.83 393.9L47.85 393.71L47.86 393.52L47.88 393.33L47.9 393.15L47.93 392.96L47.96 392.78L48 392.59L48.03 392.41L48.07 392.23L48.12 392.05L48.17 391.87L48.22 391.69L48.27 391.52L48.33 391.34L48.39 391.16L48.46 390.99L48.53 390.82L48.6 390.65L48.67 390.47L48.75 390.31L48.83 390.14L48.92 389.97L49.01 389.8L49.1 389.64L49.2 389.48L49.3 389.31L49.4 389.15L49.5 388.99L49.61 388.83L49.73 388.68L49.84 388.52L49.96 388.37L50.08 388.21L50.21 388.06L50.34 387.91L50.47 387.76L50.61 387.61L74.7 363.52L74.85 363.38L74.99 363.25L75.15 363.11L75.3 362.99L75.45 362.86L75.61 362.74L75.76 362.62L75.92 362.51L76.08 362.4L76.24 362.29L76.4 362.19L76.56 362.09L76.72 362L76.89 361.9L77.06 361.81L77.22 361.73L77.39 361.65L77.56 361.57L77.73 361.49L77.9 361.42L78.08 361.36L78.25 361.29L78.42 361.23L78.6 361.17L78.78 361.12L78.96 361.07L79.14 361.02L79.32 360.98L79.5 360.94L79.68 360.9L79.86 360.87L80.05 360.84L80.23 360.82L80.42 360.79L80.61 360.77L80.79 360.76L80.98 360.75L81.17 360.74L81.36 360.73L81.55 360.73L81.69 360.73L81.83 360.74ZM81.13 382.28L81.03 382.29L80.93 382.31L80.83 382.34L80.73 382.38L80.63 382.42L80.52 382.47L80.42 382.53L80.32 382.59L80.21 382.66L80.11 382.73L80 382.81L69.85 392.87L69.77 392.97L69.7 393.08L69.63 393.19L69.57 393.29L69.51 393.4L69.46 393.51L69.42 393.61L69.38 393.72L69.35 393.83L69.33 393.94L69.32 394.06L69.31 394.17L69.3 394.29L69.31 394.41L69.31 394.53L69.33 394.64L69.34 394.75L69.37 394.85L69.4 394.95L69.44 395.04L69.48 395.13L69.53 395.22L69.59 395.31L69.65 395.4L69.73 395.48L69.81 395.57L79.68 405.44L79.77 405.52L79.85 405.59L79.94 405.66L80.03 405.72L80.13 405.77L80.23 405.81L80.33 405.85L80.44 405.88L80.55 405.9L80.67 405.92L80.79 405.93L80.92 405.94L81.05 405.94L81.16 405.94L81.27 405.93L81.38 405.92L81.48 405.9L81.58 405.88L81.68 405.85L81.77 405.81L81.87 405.77L81.95 405.72L82.04 405.67L82.13 405.62L82.21 405.55L82.29 405.49L92.53 395.25L92.58 395.19L92.63 395.14L92.68 395.08L92.73 395.01L92.78 394.94L92.82 394.86L92.86 394.77L92.89 394.68L92.92 394.57L92.95 394.45L92.97 394.32L92.98 394.17L92.98 394.01L92.98 393.88L92.97 393.75L92.96 393.63L92.94 393.51L92.92 393.4L92.89 393.29L92.85 393.19L92.81 393.09L92.76 392.99L92.7 392.9L92.63 392.81L92.56 392.73L92.48 392.64L82.61 382.77L82.52 382.69L82.43 382.61L82.34 382.55L82.25 382.49L82.16 382.44L82.07 382.4L81.97 382.36L81.87 382.33L81.77 382.3L81.66 382.29L81.55 382.27L81.44 382.27L81.33 382.26L81.23 382.27L81.13 382.28Z" id="epFXTyBCb"></path><path d="M73.28 378.79L60.07 390.35L90.97 371.11L73.46 385.51L85.35 381.21C67.93 396.68 58.26 405.28 56.32 406.99C56.32 407.04 45.94 400.87 47.91 395.75C51.29 393.49 59.75 387.83 73.28 378.79Z" id="d7ApDNa4B"></path><path d="M81.97 410.79L99.66 397.17L72.69 422.58L73.97 423.95L99.7 403.06L79.18 422.17C100.46 404.75 112.29 395.08 114.65 393.14C114.61 393.19 118.22 389.85 108.48 383.59C104.94 387.22 96.11 396.28 81.97 410.79Z" id="a2wBYvtbf"></path><path d="M241.23 474.15L243.43 487.09L236.62 490.56L246.54 505.87L246.86 507.89L259.38 507.38L261.53 499.34L251.06 483.15L241.23 474.15Z" id="cMJC8gxP5"></path><path d="M276.89 484.34L274.61 483.11L265.69 497.01L262.45 500.71L261.53 499.34L259.38 507.38L262.67 507.29L272.46 516.25L289.05 490.7L279.22 481.69L276.89 484.34Z" id="b4g02K94z"></path><path d="M249.87 514.88L253.3 516.25L250.01 511.18L249.87 514.88Z" id="a4jnbRyO5h"></path><path d="M249.87 514.88L249.6 522.01L253.3 516.25L249.87 514.88Z" id="cIPQfyTA"></path><path d="M265.97 538.19L267.43 544.14L277.26 553.14L292.3 547.02L282.47 538.06L265.97 538.19Z" id="bBzsY5j7v"></path><path d="M272.46 516.25L262.67 507.29L246.86 507.89L247.09 509.03L244.21 512.55L249.87 514.88L250.01 511.18L253.3 516.25L262.35 531.84L262.86 531.02L265.01 534.31L265.97 538.19L282.47 538.06L292.3 547.02L272.46 516.25Z" id="b9uUxyGdf"></path><path d="M223.59 538.06L233.37 547.06L248.41 553.14L238.63 544.14L223.82 537.78L223.59 538.06Z" id="cxWhovjZD"></path><path d="M249.87 514.88L244.21 512.55L223.82 537.78L238.63 544.14L248.41 553.14L262.35 531.84L253.3 516.25L249.6 522.01L249.87 514.88Z" id="f4uf8c7bc2"></path><path d="M264.82 474.15L253.07 492.43L241.23 474.15L226.83 481.6L243.47 507.29L223.59 538.06L238.63 544.14L253.07 522.06L267.43 544.14L282.47 538.06L262.67 507.29L279.22 481.69L264.82 474.15Z" id="a19GHrCCjc"></path><path d="M247.04 488.73L238.95 495.73L270.31 477.03L274.93 479.45L248.41 496.32L264.14 489.55L241.55 504.27L236.02 495.73L247.04 488.73Z" id="b1LfnEIYAw"></path><path d="M253.03 518.35L265.33 514.29L238.08 534.45L269.35 517.67L264.55 510.17L253.03 518.35Z" id="f4jzAxMbt1"></path><path d="M457.37 424.09L453.76 429.99L463.59 438.99L478.03 433.65L468.3 424.64L456.91 422.95L457.37 424.09Z" id="d6rttJgnq2"></path><path d="M491.57 368.09L489.14 372.07L485.49 370.51L477.62 390.95L468.89 405.26L454.13 371.2L444.34 362.19L448.69 372.3L436.89 374.72L456.91 422.95L468.3 424.64L478.03 433.65L478.13 433.6L501.39 377.1L491.57 368.09Z" id="dJu5SP7tD"></path><path d="M444.34 362.19L427.06 365.76L453.76 429.99L468.3 424.64L491.57 368.09L475.66 361.55L460.8 400.27L444.34 362.19Z" id="b8eVQjUrn"></path><path d="M452.48 404.34L475.52 402.15L448.69 410.06L475.84 406.31L479.54 397.35L452.48 404.34Z" id="bzX8qjGxK"></path><path d="M448.46 380.94L439.68 385.65L478.67 375.82L446.77 388.66L486.99 379.29L485.12 383.77L439.54 395.75L435.06 384.96L448.46 380.94Z" id="a5JMxhkf4v"></path><path d="M562.83 243.66C562.51 243.66 562.19 243.7 561.83 243.79C561.81 243.8 561.71 243.84 561.69 243.84C561.1 244.02 560.78 244.11 560.64 244.16C560.63 244.16 560.56 244.16 560.55 244.16C557.94 244.85 555.57 245.58 553.6 246.31C550.72 247.41 549.81 248.05 549.35 248.46C549.31 248.49 549.13 248.66 548.8 248.96L548.8 274.33L565.17 270.31C565.17 266.5 565.17 264.38 565.17 263.95C565.67 264.37 566.45 264.96 567.5 265.92C567.63 262.45 567.91 253.81 568.27 247.04C567.18 246.17 566.13 245.3 565.12 244.48C564.48 243.93 563.66 243.66 562.83 243.66Z" id="g33LSI71uz"></path><path d="M587.38 262.99C585.14 260.89 581.76 257.97 577.23 254.26C574.17 251.84 571.15 249.42 568.23 247.04C567.86 253.81 567.54 262.45 567.45 265.92C567.54 266.01 567.68 266.1 567.77 266.24C568.55 266.97 569.19 267.57 569.6 268.07C570.44 267.59 574.63 265.2 582.17 260.89C588.04 266.27 591.3 269.25 591.95 269.85C591.95 268.11 590.58 266.1 587.38 262.99C587.38 262.99 587.38 262.99 587.38 262.99Z" id="g3mmwfBVZk"></path><path d="M565.12 263.91C565.12 264.33 565.12 266.45 565.12 270.26L566.03 270.03L565.12 270.26C565.12 272.92 565.12 274.4 565.12 274.7C566.13 273.87 566.9 273.23 567.5 272.78C569.78 270.86 570.56 269.94 570.83 269.53C570.7 269.26 570.38 268.8 569.6 267.98C569.49 268.04 568.94 268.34 567.95 268.89C568.94 268.34 569.49 268.04 569.6 267.98C569.14 267.52 568.55 266.93 567.77 266.19C566.54 265.05 565.71 264.37 565.12 263.91Z" id="bsjKTOhNO"></path><path d="M569.6 268.02C570.38 268.85 570.7 269.3 570.83 269.58C570.56 269.94 569.74 270.9 567.5 272.82C566.9 273.28 566.13 273.92 565.12 274.74C565.12 274.45 565.12 272.97 565.12 270.31L548.75 274.33L548.75 287.41L554.97 287.63C560.92 292.98 564.23 295.95 564.89 296.55C565.53 295.91 567.18 294.31 571.34 290.51C577.74 284.71 582.13 280.69 584.37 278.54C592 271.41 592 270.77 592 269.9C592 269.9 592 269.9 592 269.9C591.34 269.29 588.07 266.28 582.17 260.85C574.63 265.15 570.44 267.54 569.6 268.02Z" id="abUgj9GbE"></path><path d="M548.71 298.38L538.93 301.58L548.71 310.58C549.86 310.39 550.5 310.28 550.63 310.26C553.51 309.81 555.66 309.44 557.03 309.17C559.18 308.8 560.78 308.53 561.87 308.3C562.83 308.11 563.7 307.89 564.25 307.43C563.62 306.81 560.45 303.7 554.74 298.1L548.71 296.27L548.71 298.38Z" id="aeG5Q31s7"></path><path d="M548.71 296.27L554.7 298.1C560.4 303.7 563.57 306.81 564.21 307.43C564.53 307.15 564.71 306.74 564.71 306.19C564.71 305.23 564.71 297.51 564.71 296.55C564.75 296.5 564.75 296.5 564.8 296.46C564.14 295.86 560.83 292.89 554.88 287.54L548.71 287.36L548.71 296.27Z" id="b1UpLyfH9y"></path><path d="M553.14 234.65L553.21 234.66L553.28 234.66L553.35 234.67L553.42 234.67L553.48 234.68L553.55 234.69L553.62 234.7L553.69 234.71L553.75 234.73L553.82 234.74L553.89 234.76L553.95 234.78L554.02 234.79L554.09 234.81L554.15 234.83L554.22 234.86L554.28 234.88L554.35 234.91L554.41 234.93L554.47 234.96L554.54 234.99L554.6 235.02L554.66 235.05L554.72 235.08L554.78 235.11L554.84 235.15L554.9 235.19L554.96 235.22L555.01 235.26L555.07 235.3L555.13 235.34L555.18 235.39L555.24 235.43L555.29 235.47L555.62 235.74L555.94 236.01L556.27 236.28L556.59 236.54L556.92 236.81L557.25 237.08L557.58 237.35L557.91 237.62L558.25 237.89L558.58 238.16L558.91 238.43L559.24 238.7L559.58 238.97L559.92 239.24L560.25 239.52L560.59 239.79L560.93 240.06L561.26 240.33L561.6 240.6L561.94 240.88L562.28 241.15L562.62 241.42L562.96 241.7L563.3 241.97L563.64 242.24L563.98 242.52L564.32 242.79L564.67 243.06L565.01 243.34L565.35 243.61L565.69 243.89L566.03 244.16L566.38 244.43L566.72 244.71L567.06 244.98L567.41 245.26L567.78 245.56L568.15 245.87L568.51 246.17L568.87 246.46L569.23 246.75L569.57 247.04L569.92 247.33L570.25 247.61L570.59 247.89L570.91 248.16L571.23 248.43L571.55 248.7L571.86 248.96L572.17 249.22L572.47 249.48L572.76 249.73L573.05 249.98L573.34 250.22L573.62 250.46L573.89 250.7L574.16 250.93L574.42 251.16L574.68 251.39L574.93 251.61L575.18 251.83L575.42 252.05L575.66 252.26L575.89 252.47L576.12 252.67L576.34 252.87L576.55 253.06L576.77 253.26L576.97 253.45L577.17 253.63L577.36 253.81L577.55 253.99L577.82 254.25L578.08 254.5L578.33 254.74L578.57 254.99L578.8 255.22L579.02 255.46L579.24 255.69L579.45 255.91L579.65 256.13L579.84 256.35L580.02 256.56L580.2 256.77L580.37 256.98L580.53 257.18L580.68 257.38L580.82 257.57L580.96 257.76L581.09 257.95L581.21 258.13L581.33 258.31L581.44 258.49L581.54 258.67L581.64 258.84L581.72 259.01L581.8 259.17L581.88 259.34L581.94 259.5L582.01 259.66L582.06 259.81L582.11 259.97L582.15 260.12L582.18 260.27L582.21 260.41L582.24 260.56L582.25 260.7L582.26 260.85L582.26 260.92L582.26 260.99L582.26 261.06L582.25 261.14L582.24 261.21L582.23 261.29L582.21 261.38L582.18 261.46L582.14 261.56L582.1 261.66L582.05 261.77L581.98 261.89L581.9 262.01L581.81 262.15L581.71 262.3L581.59 262.46L581.46 262.63L581.31 262.82L581.14 263.02L580.95 263.23L580.75 263.47L580.52 263.72L580.27 263.98L580 264.27L579.71 264.58L579.39 264.9L579.04 265.25L578.67 265.62L578.27 266.01L577.84 266.43L577.39 266.87L576.9 267.34L576.38 267.83L575.83 268.36L575.25 268.91L574.63 269.49L574.44 269.67L574.24 269.86L574.02 270.06L573.8 270.27L573.57 270.49L573.33 270.72L573.08 270.95L572.82 271.19L572.55 271.45L572.27 271.71L571.98 271.98L571.68 272.26L571.37 272.54L571.05 272.84L570.72 273.14L570.38 273.45L570.03 273.77L569.67 274.1L569.31 274.44L568.93 274.79L568.54 275.14L568.15 275.5L567.74 275.88L567.32 276.25L566.9 276.64L566.46 277.04L566.02 277.44L565.57 277.86L565.1 278.28L564.63 278.71L564.15 279.15L563.66 279.59L563.16 280.05L562.65 280.51L562.13 280.98L561.6 281.46L561.24 281.79L560.89 282.11L560.55 282.42L560.23 282.71L559.91 283L559.61 283.27L559.33 283.54L559.05 283.79L558.78 284.03L558.53 284.27L558.29 284.49L558.05 284.71L557.83 284.91L557.62 285.11L557.42 285.3L557.23 285.48L557.04 285.65L556.87 285.81L556.7 285.97L556.55 286.11L556.4 286.25L556.26 286.39L556.13 286.51L556 286.63L555.89 286.74L555.78 286.85L555.67 286.95L555.58 287.04L555.49 287.13L555.4 287.21L555.33 287.28L555.25 287.35L555.19 287.42L555.13 287.48L555.07 287.54L555.02 287.59L555.02 297.23L555.01 297.35L555.01 297.47L554.99 297.58L554.97 297.68L554.94 297.78L554.91 297.87L554.87 297.96L554.83 298.05L554.79 298.13L554.73 298.2L554.68 298.28L554.62 298.35L554.55 298.41L554.48 298.47L554.41 298.53L554.33 298.59L554.25 298.64L554.16 298.69L554.07 298.74L553.98 298.78L553.88 298.83L553.78 298.87L553.68 298.9L553.57 298.94L553.47 298.98L553.36 299.01L553.24 299.04L553.13 299.07L553.01 299.1L552.89 299.13L552.77 299.16L552.65 299.18L552.52 299.21L552.39 299.24L552.27 299.26L552.14 299.29L552.04 299.31L551.95 299.33L551.85 299.35L551.75 299.37L551.65 299.39L551.55 299.41L551.44 299.43L551.33 299.45L551.22 299.47L551.11 299.49L550.99 299.52L550.87 299.54L550.75 299.56L550.63 299.58L550.5 299.6L550.37 299.63L550.24 299.65L550.11 299.67L549.97 299.7L549.84 299.72L549.69 299.75L549.55 299.77L549.41 299.8L549.26 299.82L549.11 299.85L548.96 299.88L548.8 299.9L548.64 299.93L548.48 299.96L548.32 299.98L548.16 300.01L547.99 300.04L547.82 300.07L547.64 300.1L547.47 300.13L547.29 300.16L547.18 300.18L547.06 300.21L546.93 300.23L546.81 300.25L546.68 300.28L546.54 300.3L546.4 300.33L546.26 300.36L546.12 300.38L545.97 300.41L545.82 300.44L545.66 300.46L545.5 300.49L545.34 300.52L545.18 300.55L545.01 300.58L544.83 300.61L544.66 300.64L544.48 300.67L544.29 300.7L544.11 300.73L543.92 300.77L543.72 300.8L543.53 300.83L543.33 300.86L543.12 300.9L542.91 300.93L542.7 300.97L542.49 301L542.27 301.04L542.05 301.07L541.82 301.11L541.6 301.14L541.36 301.18L541.13 301.22L540.89 301.26L538.97 301.58L538.97 239.95L539.52 239.45L539.56 239.42L539.6 239.38L539.64 239.34L539.69 239.31L539.74 239.27L539.79 239.23L539.85 239.18L539.91 239.14L539.97 239.1L540.04 239.05L540.11 239L540.19 238.96L540.27 238.91L540.35 238.85L540.44 238.8L540.53 238.75L540.63 238.69L540.74 238.63L540.85 238.58L540.96 238.51L541.09 238.45L541.21 238.39L541.35 238.32L541.49 238.26L541.64 238.19L541.79 238.12L541.96 238.04L542.13 237.97L542.3 237.89L542.49 237.81L542.68 237.73L542.88 237.65L543.09 237.57L543.31 237.48L543.54 237.39L543.77 237.3L543.94 237.24L544.1 237.18L544.27 237.12L544.44 237.06L544.61 237L544.79 236.94L544.96 236.88L545.14 236.82L545.32 236.76L545.5 236.69L545.68 236.63L545.87 236.57L546.05 236.51L546.24 236.45L546.43 236.39L546.62 236.33L546.81 236.27L547.01 236.21L547.2 236.15L547.4 236.09L547.6 236.03L547.79 235.97L548 235.91L548.2 235.85L548.4 235.79L548.61 235.74L548.81 235.68L549.02 235.62L549.23 235.56L549.44 235.5L549.65 235.44L549.86 235.38L550.07 235.33L550.29 235.27L550.5 235.21L550.72 235.15L550.81 235.15L550.84 235.15L550.85 235.14L550.86 235.14L550.88 235.13L550.91 235.12L550.95 235.11L550.97 235.1L551.01 235.09L551.08 235.07L551.26 235.02L551.32 235L551.36 234.99L551.43 234.97L551.47 234.96L551.55 234.93L551.59 234.92L551.63 234.91L551.67 234.89L551.72 234.88L551.77 234.86L551.81 234.85L551.86 234.83L552 234.79L552.03 234.78L552.06 234.77L552.09 234.77L552.12 234.76L552.15 234.75L552.18 234.75L552.21 234.74L552.24 234.73L552.27 234.73L552.3 234.72L552.32 234.72L552.35 234.71L552.38 234.71L552.41 234.7L552.44 234.7L552.46 234.69L552.49 234.69L552.52 234.69L552.55 234.68L552.58 234.68L552.6 234.68L552.63 234.67L552.66 234.67L552.68 234.67L552.71 234.66L552.74 234.66L552.77 234.66L552.79 234.66L552.82 234.66L552.85 234.66L552.87 234.65L552.9 234.65L552.93 234.65L552.95 234.65L552.98 234.65L553.01 234.65L553.07 234.65L553.14 234.65ZM555.87 265.27L556.39 264.84L556.86 264.45L557.29 264.11L557.67 263.82L558.85 262.78L559.73 261.95L560.36 261.32L560.77 260.87L561.01 260.57L560.82 260.25L560.47 259.78L559.9 259.13L559.07 258.27L557.94 257.19L557.25 256.56L556.63 256.02L556.11 255.58L555.66 255.21L555.29 254.9L555.29 265.74L555.87 265.27Z" id="c3eeT5Jn4b"></path><path d="M561.51 270.9L546.29 284.57L575.31 263.91L538.93 296.46L538.93 286.72L561.51 270.9Z" id="d2QkHGsWdl"></path><path d="M544.23 252.39L558.17 248.5L540.85 261.67L562.15 250.24L538.93 268.39L538.93 272.64L571.66 248.78L564.25 242.7L544.23 252.39Z" id="j3grJcI3m"></path><path d="M247.63 363.66L237.85 354.65L246.31 364.66L244.34 366.08L249.33 368.27L259.11 377.23L247.63 363.66Z" id="bb6u7r0fC"></path><path d="M240.87 391.91L239.86 390.95C239.84 390.92 239.82 390.91 239.82 390.9C239.82 390.9 239.82 390.9 239.82 390.9C240 390.77 240.23 390.63 240.55 390.45C241.79 389.56 247.97 385.16 259.11 377.23L249.33 368.23L244.34 366.08L223.73 381.35L230.03 381.94L234.51 391.59L240.87 391.91Z" id="a3e1B1c8op"></path><path d="M232.96 408.37C233.1 408.5 233.19 408.64 233.23 408.78C233.23 408.78 233.19 408.82 233.19 408.82C233.18 408.83 233.11 408.86 233.1 408.87C233.1 408.87 233.01 408.96 232.78 409.1C231.4 410.09 224.51 415.08 212.11 424.05L215.91 428.02L215.22 428.53L225.01 437.53L254.22 415.22C254.27 415.2 254.3 415.18 254.31 415.18C255.31 414.31 256 413.49 256.5 412.62C256.87 411.98 257.1 411.34 257.23 410.7C256.59 410.08 253.34 406.97 247.5 401.37L228.16 403.89C231.04 406.57 232.64 408.07 232.96 408.37Z" id="aJTBqowMd"></path><path d="M256.41 406.86C256.23 406.58 256 406.26 255.68 405.9C255.68 405.89 255.66 405.86 255.63 405.81L240.91 391.91L234.56 391.59L230.08 381.94L223.77 381.35C221.19 383.24 219.76 384.29 219.47 384.5C218.79 384.96 218.29 385.37 217.92 385.74C217.92 385.74 217.88 385.78 217.87 385.78C216.69 387.06 216.09 388.43 216.09 389.94C216.09 391.36 216.69 392.78 217.83 394.15C217.83 394.15 217.85 394.19 217.87 394.24L228.11 403.84L247.41 401.33C253.25 406.92 256.49 410.03 257.14 410.65C257.19 410.33 257.23 410.06 257.23 409.74C257.28 408.78 257.01 407.77 256.41 406.86C256.41 406.86 256.41 406.86 256.41 406.86Z" id="byDcAYZ4R"></path><path d="M222.99 400.14C221.62 401.13 214.73 406.12 202.33 415.09L215.22 428.57L244.43 406.26C244.49 406.24 244.52 406.22 244.53 406.22C245.53 405.35 246.22 404.53 246.72 403.66C247.27 402.74 247.5 401.78 247.5 400.82C247.5 399.82 247.18 398.81 246.63 397.9C246.62 397.89 246.59 397.86 246.58 397.85C246.45 397.62 246.17 397.3 245.85 396.89C245.85 396.89 245.83 396.85 245.81 396.8L230.08 381.99C230.05 381.96 230.04 381.95 230.03 381.94C230.03 381.94 230.03 381.94 230.03 381.94C230.22 381.81 230.45 381.67 230.77 381.49C232 380.6 238.19 376.2 249.33 368.27L237.85 354.7C220.96 367.23 211.57 374.2 209.69 375.59C209.01 376.05 208.5 376.46 208.14 376.82C208.13 376.83 208.1 376.86 208.09 376.87C206.9 378.15 206.31 379.52 206.31 381.03C206.31 382.45 206.9 383.86 208.05 385.23C208.05 385.24 208.06 385.27 208.09 385.33C217.12 393.77 222.13 398.47 223.13 399.41C223.27 399.54 223.36 399.68 223.41 399.82C223.41 399.82 223.36 399.86 223.36 399.86C223.36 399.87 223.34 399.88 223.31 399.91C223.25 399.97 223.15 400.05 222.99 400.14Z" id="aaHo3PxJ"></path><path d="M225.78 371.79L216.09 384.46L244.11 364.85C227.3 381.11 217.96 390.15 216.09 391.95C216.09 391.91 208.41 387.7 206.95 383.59C209.46 382.02 215.74 378.08 225.78 371.79Z" id="bisQ7WNlq"></path><path d="M216.09 419.43C225.09 417.62 230.09 416.61 231.09 416.41C231.09 416.41 244.94 409.6 246.08 404.43C242.08 406.43 232.09 411.43 216.09 419.43Z" id="b9wQFGmKE"></path><path d="M558.95 419.7L560.41 416.73L558.95 414.03L557.44 417.01L558.95 419.7Z" id="b64QsYsGTt"></path><path d="M536.59 423.36L532.02 427.7C537.89 433.11 541.15 436.11 541.81 436.71C542.81 437.85 543.86 438.08 544.55 438.08C545.28 438.08 545.97 437.9 546.56 437.49C546.88 437.3 547.15 437.03 547.47 436.62C547.48 436.61 547.51 436.58 547.57 436.53L557.39 417.05L549.85 403.38L531.47 410.06L536.59 423.36Z" id="g2n1VOxzGK"></path><path d="M548.25 364.85L554.42 382.99L547.66 400.09L536 371.52L526.17 362.51L530.38 372.75L518.13 375.45L531.47 410.06L549.9 403.34L557.44 417.01L558.95 414.03L560.41 416.73L570.19 396.8L558.03 373.81L548.25 364.85Z" id="a5fzpgBA"></path><path d="M588.75 373.58L584.14 371.06L572.98 402.19L570.15 396.85L560.41 416.73L565.53 426.1L561.46 427.66C567.41 433.14 570.72 436.19 571.38 436.8C572.3 437.85 573.35 438.08 574.03 438.08C574.63 438.08 575.27 437.9 575.86 437.49C576.09 437.35 576.37 437.17 576.64 436.89C576.66 436.88 576.73 436.8 576.87 436.66L599.73 379.66L589.94 370.61L588.75 373.58Z" id="jhRyGm8zI"></path><path d="" id="bOdzLEhEQ"></path><path d="M548.25 364.85L537.83 391.13L526.17 362.51L508.34 366.45L531.84 427.47C531.95 427.61 532.01 427.69 532.02 427.7C533.03 428.85 534.08 429.07 534.77 429.07C535.5 429.07 536.18 428.89 536.78 428.48C537.1 428.3 537.37 428.02 537.69 427.61C537.7 427.61 537.73 427.57 537.78 427.52L549.12 405.07L561.46 427.66C561.55 427.74 561.59 427.79 561.6 427.79C562.51 428.85 563.57 429.07 564.25 429.07C564.85 429.07 565.49 428.89 566.08 428.48C566.31 428.34 566.58 428.16 566.86 427.89C566.87 427.87 566.95 427.79 567.09 427.66L589.94 370.65L574.31 362.1L563.2 393.19L548.25 364.85Z" id="aInAWiS5"></path><path d="M530.47 383.18L521.05 390.95L558.95 379.29L525.67 395.02L539.66 393.83L521.14 399.68L517.3 389.76L530.47 383.18Z" id="c2MLonZ2Bg"></path><path d="M576.82 403.34L541.81 417.01L564.43 404.39L527.73 416.82C526.79 414.38 526.28 413.03 526.17 412.75C526.17 412.75 575.45 395.38 574.63 395.02C573.81 394.65 555.02 395.79 555.02 395.79C556.83 395.39 565.92 393.38 582.26 389.76L576.82 403.34Z" id="h4JATdwCuw"></path><path d="M295.77 421.71L303.54 423.59L313.33 432.78L313.33 386.06L303.54 377.05L295.77 385.97L295.77 421.71Z" id="b2b9bP3y5e"></path><path d="M295.77 425.87L285.99 428.25L295.77 437.21L313.33 433.05L313.33 432.78L303.54 423.59L295.77 421.71L295.77 425.87Z" id="ajggJrhEV"></path><path d="M325.9 361.28L321.23 370.29C316.35 370.29 313.64 370.29 313.1 370.29C315.29 373.53 317.71 377.05 317.71 377.05C318.37 377.64 321.66 380.6 327.59 385.92L330.79 379.75L335.68 370.29L325.9 361.28Z" id="aNp1YNnf7"></path><path d="M281.23 370.29L277.94 376.82L263.59 376.87L273.37 385.87L295.77 385.78L295.77 385.97L303.54 377.05L313.33 386.06L327.5 386.06L327.54 385.92C321.65 380.6 318.37 377.64 317.71 377.05C317.71 377.05 315.29 373.53 313.1 370.29C308.85 370.29 298.23 370.29 281.23 370.29Z" id="eGmkNUgwG"></path><path d="M303.54 377.05L317.71 377.05L325.9 361.33L271.45 361.33L263.59 376.91L285.99 376.82L285.99 428.25L303.54 424.05L303.54 377.05Z" id="g26NLneGjl"></path><path d="M292.57 404.94L303.54 398.4L303.54 393.55L292.57 404.94Z" id="a36vnzFatn"></path><path d="M300.57 409.37L292.57 417.19L303.54 410.7L303.54 415.45L285.99 426.15L285.94 419.43L300.57 409.37Z" id="b1e8B9RjyM"></path><path d="M295.77 367.86L287.13 374.63L317.81 361.46L320.55 361.33L289.1 379.02L308.34 373.62L285.03 386.06L274.79 376.55L295.77 367.86Z" id="a4JV4gk4D"></path><path d="M186.33 390.17C183.45 386.56 178.7 381.21 172.25 374.26C170.29 372.16 169.55 371.25 169.28 370.88C169.28 370.85 169.28 370.7 169.28 370.42C163.41 365.02 160.15 362.02 159.5 361.42C159.04 362.7 160.96 365.53 163.15 368.23C162.83 368.23 162.38 368.32 161.65 368.41C161.61 368.42 161.43 368.45 161.1 368.5C161.01 368.59 160.97 368.63 160.96 368.64C160.59 368.73 159.77 368.96 157.94 369.37C158.38 371.18 161.85 385.66 162.29 387.47C162.74 387.84 163.15 388.16 163.52 388.43C163.98 388.8 164.39 389.12 164.75 389.44C165.58 388.98 169.73 386.7 177.19 382.58C183.09 388.01 186.36 391.03 187.02 391.63C186.88 391.18 186.7 390.77 186.47 390.35C186.44 390.32 186.35 390.19 186.33 390.17Z" id="hos7XOphQ"></path><path d="M144.41 372.43C144.33 372.45 143.9 372.54 143.13 372.71L143.13 393.97L161.14 393.05C161.14 389.24 161.14 387.12 161.14 386.7C161.55 386.97 161.87 387.25 162.19 387.52C161.76 385.71 158.29 371.23 157.85 369.42C156.71 369.65 155.06 370.06 152.82 370.56C150.99 370.97 148.16 371.61 144.41 372.43Z" id="clx2jwZE"></path><path d="M184.69 412.62C180.39 407.31 178.83 405.26 178.29 404.48C178.29 404.48 178.29 404.48 178.29 404.48C177.63 403.88 174.37 400.86 168.5 395.43C167.24 394.74 166.54 394.36 166.4 394.29C165.81 394.88 164.94 395.57 163.75 396.48C162.65 397.3 161.83 397.9 161.14 398.35C161.14 398.01 161.14 396.27 161.14 393.14L143.13 394.06L143.13 421.03L151.31 422.86L161.1 431.82C161.1 420.27 161.1 413.85 161.1 412.57C162.01 413.62 163.38 415.22 165.35 417.6C166.58 419.11 167.86 420.66 169.14 422.22C170.28 421.88 175.98 420.17 186.24 417.1L196.02 426.1L194.88 424.78C190.77 419.93 187.37 415.88 184.69 412.62Z" id="a5yC0rbUtb"></path><path d="M164.66 389.53C164.57 389.58 164.1 389.84 163.25 390.31C164.1 389.84 164.57 389.58 164.66 389.53C164.3 389.21 163.89 388.89 163.43 388.53C162.83 388.07 162.1 387.52 161.14 386.79C161.14 387.95 161.14 397.2 161.14 398.35C161.83 397.9 162.65 397.26 163.75 396.48C164.94 395.57 165.76 394.88 166.4 394.29C166.19 394.17 165.14 393.61 163.25 392.59C165.14 393.61 166.19 394.17 166.4 394.29C167.36 393.37 167.68 392.87 167.82 392.59C167.59 392.23 166.86 391.36 164.66 389.53Z" id="j1BwNbTYGd"></path><path d="M167.82 392.64C167.68 392.87 167.36 393.42 166.4 394.33C166.54 394.41 167.24 394.79 168.5 395.47C174.4 400.85 177.68 403.84 178.33 404.43C178.65 403.89 179.43 402.7 181.53 400.23C183.45 398.03 185.1 395.84 186.42 393.74C186.43 393.73 186.46 393.7 186.47 393.69C186.79 393.14 186.97 392.64 186.97 392.14C186.97 392 186.97 391.86 186.93 391.77C186.27 391.17 182.99 388.15 177.1 382.72L164.66 389.58C166.61 391.38 167.66 392.4 167.82 392.64Z" id="a2qeXfgPh"></path><path d="M143.18 425.23L133.39 427.29L143.18 436.3L152.09 434.7C152.15 434.7 152.18 434.7 152.18 434.7C159.31 432.96 159.95 432.59 160.32 432.37C160.37 432.34 160.65 432.18 161.14 431.91L161.14 431.91L151.36 422.95L143.18 421.07L143.18 425.23Z" id="d4PHqJu18j"></path><path d="M169.23 422.31C170.01 423.27 170.83 424.23 171.66 425.19C171.57 425.23 171.13 425.43 170.33 425.78C175.6 430.64 178.52 433.33 179.11 433.87C180.3 435.06 180.62 435.06 181.12 435.06C181.67 435.06 182.26 434.93 185.46 432.91C187.98 431.31 190.58 429.67 193.28 427.98C193.47 427.86 194.41 427.25 196.11 426.15L186.33 417.19C176.07 420.26 170.37 421.97 169.23 422.31Z" id="a7VrlgFbFR"></path><path d="M153.85 359.32L153.93 359.32L154 359.32L154.08 359.32L154.16 359.33L154.24 359.33L154.31 359.34L154.39 359.35L154.46 359.36L154.54 359.36L154.61 359.37L154.69 359.38L154.76 359.39L154.84 359.41L154.91 359.42L154.99 359.43L155.06 359.44L155.13 359.46L155.21 359.47L155.28 359.49L155.35 359.51L155.42 359.52L155.5 359.54L155.57 359.56L155.64 359.58L155.71 359.6L155.78 359.62L155.85 359.64L155.92 359.66L155.99 359.68L156.06 359.71L156.13 359.73L156.2 359.75L156.27 359.78L156.34 359.8L156.41 359.83L156.48 359.85L156.55 359.88L156.62 359.91L156.68 359.94L156.73 359.96L156.79 359.99L156.85 360.02L156.91 360.05L156.96 360.07L157.02 360.1L157.08 360.13L157.13 360.16L157.19 360.18L157.25 360.21L157.3 360.24L157.36 360.27L157.41 360.29L157.47 360.32L157.52 360.35L157.58 360.38L157.63 360.41L157.68 360.43L157.74 360.46L157.79 360.49L157.84 360.52L157.89 360.55L157.95 360.58L158 360.61L158.05 360.63L158.1 360.66L158.15 360.69L158.2 360.72L158.25 360.75L158.3 360.78L158.35 360.81L158.4 360.84L158.44 360.87L158.49 360.9L158.54 360.93L158.58 360.96L158.63 360.99L158.68 361.02L158.72 361.05L159.45 361.55L159.45 362.01L159.47 362.04L159.5 362.07L159.52 362.1L159.55 362.14L159.58 362.18L159.61 362.22L159.64 362.26L159.68 362.3L159.71 362.35L159.76 362.4L159.8 362.45L159.84 362.51L159.89 362.56L159.94 362.62L159.99 362.69L160.05 362.75L160.11 362.82L160.17 362.9L160.24 362.97L160.3 363.05L160.37 363.13L160.45 363.22L160.53 363.31L160.61 363.4L160.69 363.5L160.78 363.6L160.87 363.7L160.97 363.81L161.07 363.92L161.17 364.03L161.27 364.15L161.39 364.27L161.5 364.4L161.62 364.53L161.74 364.66L161.87 364.8L162 364.94L162.14 365.09L162.28 365.24L162.42 365.39L162.9 365.91L163.38 366.42L163.84 366.93L164.31 367.43L164.76 367.92L165.21 368.41L165.65 368.89L166.09 369.37L166.51 369.84L166.94 370.3L167.35 370.76L167.76 371.21L168.17 371.66L168.56 372.1L168.95 372.53L169.33 372.96L169.71 373.38L170.08 373.79L170.44 374.2L170.8 374.6L171.15 375L171.49 375.38L171.83 375.77L172.16 376.14L172.48 376.51L172.8 376.88L173.11 377.24L173.41 377.59L173.71 377.93L173.99 378.27L174.28 378.6L174.55 378.93L174.82 379.25L175.08 379.56L175.34 379.87L175.58 380.17L175.82 380.46L176.06 380.75L176.28 381.03L176.5 381.3L176.64 381.49L176.66 381.53L176.69 381.57L176.71 381.61L176.73 381.65L176.75 381.69L176.77 381.73L176.8 381.77L176.82 381.81L176.83 381.86L176.85 381.9L176.87 381.94L176.89 381.98L176.91 382.02L176.92 382.06L176.94 382.1L176.96 382.14L176.97 382.19L176.98 382.23L177 382.27L177.01 382.31L177.02 382.35L177.04 382.39L177.05 382.43L177.06 382.47L177.07 382.51L177.08 382.56L177.09 382.6L177.09 382.64L177.1 382.68L177.11 382.72L177.12 382.76L177.12 382.8L177.13 382.84L177.13 382.88L177.13 382.93L177.14 382.97L177.14 383.01L177.14 383.05L177.14 383.09L177.14 383.13L177.14 383.17L177.14 383.21L177.14 383.24L177.14 383.28L177.13 383.32L177.13 383.36L177.13 383.4L177.12 383.43L177.12 383.47L177.11 383.51L177.1 383.55L177.09 383.59L177.09 383.62L177.08 383.66L177.07 383.7L177.06 383.74L177.05 383.78L177.04 383.81L177.02 383.85L177.01 383.89L177 383.93L176.98 383.97L176.97 384.01L176.96 384.05L176.94 384.09L176.92 384.12L176.91 384.16L176.89 384.2L176.87 384.24L176.85 384.28L176.83 384.32L176.82 384.36L176.8 384.4L176.77 384.44L176.75 384.48L176.73 384.52L176.71 384.56L176.69 384.6L176.66 384.64L176.64 384.69L176.59 384.73L176.49 384.89L176.39 385.05L176.29 385.21L176.19 385.36L176.08 385.52L175.98 385.68L175.87 385.84L175.76 386L175.65 386.16L175.54 386.32L175.43 386.49L175.32 386.65L175.2 386.81L175.09 386.97L174.97 387.13L174.85 387.29L174.73 387.46L174.61 387.62L174.49 387.78L174.37 387.94L174.25 388.11L174.12 388.27L174 388.43L173.87 388.6L173.74 388.76L173.62 388.92L173.49 389.09L173.36 389.25L173.22 389.41L173.09 389.58L172.96 389.74L172.82 389.91L172.69 390.07L172.55 390.24L172.41 390.4L172.27 390.56L172.13 390.73L171.99 390.89L171.85 391.06L171.7 391.22L171.54 391.41L171.39 391.59L171.24 391.77L171.1 391.94L170.96 392.1L170.82 392.27L170.69 392.42L170.57 392.58L170.45 392.73L170.33 392.87L170.21 393.01L170.11 393.15L170 393.28L169.9 393.41L169.8 393.53L169.71 393.65L169.62 393.76L169.54 393.87L169.46 393.98L169.38 394.09L169.3 394.19L169.23 394.28L169.16 394.38L169.1 394.46L169.04 394.55L168.98 394.63L168.93 394.71L168.87 394.79L168.82 394.86L168.78 394.93L168.73 395L168.69 395.06L168.66 395.12L168.62 395.18L168.59 395.24L168.56 395.29L168.53 395.34L168.5 395.39L168.48 395.43L168.46 395.47L168.5 395.54L168.55 395.6L168.6 395.67L168.65 395.75L168.71 395.83L168.78 395.92L168.85 396.01L168.92 396.11L169 396.22L169.08 396.33L169.17 396.45L169.27 396.57L169.37 396.71L169.48 396.84L169.59 396.99L169.71 397.15L169.83 397.31L169.97 397.48L170.11 397.66L170.25 397.85L170.4 398.04L170.56 398.25L170.73 398.46L170.91 398.68L171.09 398.91L171.28 399.15L171.48 399.4L171.68 399.66L171.9 399.93L172.12 400.21L172.35 400.5L172.59 400.8L172.84 401.12L173.1 401.44L173.37 401.77L173.65 402.12L173.94 402.47L174.23 402.84L174.54 403.22L174.86 403.61L175.16 403.98L175.46 404.34L175.75 404.7L176.05 405.06L176.34 405.41L176.63 405.76L176.91 406.11L177.2 406.45L177.48 406.79L177.76 407.13L178.04 407.47L178.31 407.8L178.59 408.13L178.86 408.45L179.13 408.78L179.39 409.1L179.66 409.41L179.92 409.73L180.18 410.04L180.43 410.34L180.69 410.65L180.94 410.95L181.19 411.24L181.44 411.54L181.68 411.83L181.92 412.11L182.16 412.4L182.4 412.68L182.63 412.96L182.87 413.23L183.1 413.5L183.32 413.77L183.55 414.03L183.77 414.29L183.99 414.54L184.21 414.8L184.42 415.05L184.63 415.29L184.84 415.53L185.05 415.77L186.29 417.19L183.45 419.02L183.25 419.14L183.05 419.27L182.85 419.4L182.65 419.52L182.44 419.65L182.24 419.78L182.04 419.9L181.84 420.03L181.64 420.15L181.45 420.28L181.25 420.4L181.05 420.53L180.85 420.65L180.65 420.78L180.46 420.9L180.26 421.02L180.06 421.15L179.87 421.27L179.67 421.4L179.47 421.52L179.28 421.64L179.08 421.77L178.89 421.89L178.7 422.01L178.5 422.13L178.31 422.26L178.11 422.38L177.92 422.5L177.73 422.62L177.54 422.75L177.35 422.87L177.15 422.99L176.96 423.11L176.77 423.23L176.58 423.35L176.39 423.47L176.2 423.59L176.01 423.71L175.82 423.83L175.63 423.95L175.4 424.1L175.17 424.24L174.96 424.38L174.75 424.5L174.55 424.62L174.36 424.74L174.18 424.85L174.01 424.95L173.84 425.05L173.68 425.14L173.53 425.22L173.39 425.31L173.25 425.38L173.12 425.45L173 425.52L172.88 425.58L172.77 425.64L172.66 425.69L172.56 425.74L172.47 425.78L172.38 425.82L172.29 425.86L172.21 425.9L172.14 425.93L172.06 425.95L171.99 425.98L171.93 426L171.87 426.02L171.81 426.04L171.75 426.05L171.7 426.06L171.65 426.07L171.6 426.08L171.55 426.09L171.5 426.09L171.46 426.1L171.42 426.1L171.37 426.1L171.33 426.1L171.29 426.1L171.23 426.1L171.16 426.1L171.1 426.1L171.04 426.1L170.98 426.09L170.92 426.08L170.86 426.07L170.79 426.05L170.73 426.03L170.66 426.01L170.59 425.97L170.51 425.93L170.43 425.89L170.35 425.84L170.26 425.78L170.16 425.7L170.06 425.63L169.96 425.54L169.84 425.44L169.72 425.33L169.59 425.2L169.45 425.07L169.3 424.92L169.15 424.76L168.98 424.59L168.8 424.4L168.61 424.19L168.41 423.97L168.19 423.73L167.97 423.48L167.73 423.21L167.47 422.92L167.21 422.61L166.92 422.28L166.63 421.94L166.31 421.57L165.98 421.18L165.64 420.77L165.27 420.34L164.89 419.89L164.65 419.6L164.42 419.32L164.18 419.04L163.95 418.76L163.71 418.48L163.48 418.2L163.24 417.92L163 417.64L162.77 417.36L162.54 417.08L162.3 416.79L162.07 416.51L161.83 416.23L161.6 415.95L161.36 415.67L161.13 415.39L160.9 415.11L160.67 414.83L160.43 414.55L160.2 414.27L159.97 413.99L159.74 413.71L159.5 413.43L159.27 413.15L159.04 412.87L158.81 412.59L158.58 412.31L158.35 412.03L158.12 411.75L157.89 411.47L157.66 411.19L157.43 410.91L157.2 410.63L156.98 410.35L156.75 410.08L156.52 409.8L156.29 409.52L156.06 409.24L155.84 408.96L155.61 408.69L155.47 408.51L155.32 408.33L155.18 408.16L155.04 408L154.9 407.83L154.77 407.67L154.63 407.51L154.5 407.35L154.37 407.2L154.25 407.04L154.12 406.9L154 406.75L153.88 406.61L153.76 406.47L153.64 406.33L153.53 406.19L153.42 406.06L153.31 405.93L153.2 405.8L153.09 405.67L152.99 405.55L152.88 405.43L152.78 405.31L152.69 405.2L152.59 405.08L152.49 404.97L152.4 404.86L152.31 404.76L152.22 404.65L152.13 404.55L152.05 404.45L151.96 404.36L151.88 404.26L151.8 404.17L151.72 404.08L151.65 403.99L151.57 403.9L151.5 403.82L151.43 403.74L151.36 403.66L151.36 422.9L150.54 423.36L150.51 423.37L150.48 423.39L150.44 423.4L150.39 423.42L150.33 423.45L150.26 423.47L150.18 423.5L150.09 423.53L150 423.56L149.89 423.59L149.78 423.63L149.65 423.67L149.52 423.71L149.37 423.75L149.22 423.8L149.06 423.84L148.89 423.89L148.71 423.95L148.52 424L148.32 424.06L148.11 424.12L147.89 424.18L147.67 424.24L147.43 424.31L147.19 424.38L146.93 424.45L146.67 424.52L146.4 424.6L146.11 424.68L145.82 424.76L145.52 424.84L145.21 424.93L144.89 425.01L144.56 425.1L144.23 425.2L143.88 425.29L143.52 425.39L143.16 425.49L142.78 425.59L142.4 425.69L142.26 425.65L133.35 427.25L133.35 363.75L134.63 363.47L134.91 363.41L135.18 363.35L135.46 363.29L135.73 363.23L135.99 363.17L136.25 363.12L136.51 363.06L136.77 363L137.02 362.95L137.27 362.89L137.51 362.84L137.75 362.78L137.99 362.73L138.22 362.68L138.46 362.63L138.68 362.58L138.91 362.53L139.13 362.48L139.34 362.43L139.55 362.38L139.76 362.34L139.97 362.29L140.17 362.24L140.37 362.2L140.56 362.16L140.75 362.11L140.94 362.07L141.13 362.03L141.31 361.99L141.48 361.95L141.65 361.91L141.82 361.87L141.99 361.84L142.15 361.8L142.31 361.76L142.76 361.66L142.9 361.63L143.04 361.6L143.45 361.51L143.86 361.42L144.24 361.34L144.62 361.25L144.98 361.17L145.32 361.1L145.66 361.02L145.98 360.95L146.29 360.88L146.59 360.81L146.87 360.75L147.15 360.69L147.41 360.63L147.66 360.57L147.9 360.51L148.13 360.46L148.35 360.41L148.56 360.36L148.76 360.31L148.95 360.27L149.13 360.23L149.3 360.19L149.46 360.15L149.62 360.11L149.76 360.07L149.9 360.04L150.03 360.01L150.15 359.98L150.26 359.95L150.37 359.92L150.47 359.9L150.56 359.87L150.65 359.85L150.73 359.83L150.8 359.81L150.87 359.79L150.93 359.77L150.99 359.76L151.04 359.74L151.09 359.73L151.22 359.59L151.77 359.5L151.86 359.48L151.94 359.47L152.03 359.46L152.11 359.45L152.18 359.44L152.26 359.43L152.33 359.42L152.4 359.41L152.47 359.4L152.53 359.39L152.6 359.38L152.66 359.38L152.72 359.37L152.77 359.36L152.83 359.36L152.88 359.35L152.93 359.35L152.98 359.34L153.03 359.34L153.07 359.34L153.12 359.33L153.16 359.33L153.2 359.33L153.24 359.33L153.28 359.32L153.31 359.32L153.35 359.32L153.38 359.32L153.41 359.32L153.44 359.32L153.47 359.32L153.5 359.32L153.53 359.32L153.55 359.31L153.58 359.31L153.6 359.31L153.63 359.31L153.65 359.31L153.69 359.31L153.77 359.31L153.85 359.32ZM151.79 389.1L152.25 388.76L152.76 388.38L153.32 387.97L153.92 387.52L155.52 386.26L156.64 385.26L157.37 384.51L157.79 383.97L157.99 383.63L157.73 383.29L157.25 382.75L156.46 381.97L155.28 380.91L153.65 379.57L153.27 379.3L152.86 378.99L152.41 378.64L151.91 378.25L151.36 377.83L151.36 389.39L151.79 389.1Z" id="f7uM8GP0xm"></path><path d="M150.99 367.86L137.01 376.55L156.43 369.37L137.01 381.35L166.95 370.29L170.51 374.26L133.35 391.59L133.35 374.81L150.99 367.86Z" id="b1G0REA1MK"></path><path d="M143.18 406.58L164.48 399.22L156.85 405.94L172.66 400.82L168.5 395.43L143.18 406.58Z" id="gbK0MHG6p"></path><path d="M361.42 480.64L358.72 484.57L355.43 483.25L341.07 504.5L340.98 504.37L339.57 513.51L349.07 522.19L371.2 489.65L361.42 480.64Z" id="guwNksFJ5"></path><path d="M315.84 474.24L323.15 484.3L308.98 490.29C319.68 505.23 325.62 513.54 326.81 515.2C332.66 514.33 339.25 513.23 339.25 513.23C339.27 513.25 339.37 513.34 339.57 513.51L340.98 504.37L325.62 483.25L315.84 474.24Z" id="c1rnbTMQbc"></path><path d="M332.02 541.39L322.24 543.82L332.02 552.82L349.07 548.57L349.07 548.48L339.25 539.61L332.02 540.71L332.02 541.39Z" id="g1S0UVUUxl"></path><path d="M339.25 513.23C339.25 513.23 332.62 514.33 326.81 515.2C327.16 515.69 328.91 518.13 332.07 522.51L332.07 540.71L339.29 539.57L349.07 548.48L349.07 522.19L349.07 522.19C343.18 516.82 339.9 513.83 339.25 513.23Z" id="de93qoq3K"></path><path d="M315.79 474.29L299.15 481.33L322.24 513.51L322.24 543.82L339.25 539.61L339.25 513.23L361.42 480.64L345.6 474.29L331.29 495.54L315.79 474.29Z" id="bSKmWL0DZ"></path><path d="M329.55 522.19L338.56 520.27L322.24 532.85L322.24 535.95L339.57 524.75L339.25 516.25L329.55 522.19Z" id="d5mvlEHwC"></path><path d="M334.72 506.1L347.06 501.71L350.03 497.37L334.72 506.1Z" id="a16DH7GlbS"></path><path d="M321.78 486.58L314.15 492.85L353.14 477.3L356.75 478.77L316.89 498.97L345.1 488.14L316.16 505.1L308.02 493.67L321.78 486.58Z" id="c1l1tsUSzQ"></path><path d="M435.38 478.63L414.95 505.23L399.77 531.57L423.36 528L445.21 487.59L435.38 478.63Z" id="a1Q17eOSCC"></path><path d="M423.36 528L399.77 531.57L397.26 535.95L426.65 543.36L436.3 552.32L436.43 552.32L442.42 534.95L432.59 525.94L422.77 529.1L423.36 528Z" id="b1MUgtLOwG"></path><path d="M396.34 537.51L378.01 543.36L387.79 552.32L436.3 552.32L426.65 543.36L397.26 535.95L396.34 537.51Z" id="e2D7YjF0al"></path><path d="M396.98 487.59L395.7 491.61L381.44 496.27L391.27 505.23L414.95 505.23L435.38 478.63L407.91 487.59L396.98 487.59Z" id="cCLWUtQjX"></path><path d="M381.44 496.27L405.12 496.27L378.01 543.36L426.65 543.36L432.59 525.94L409.78 525.94L435.38 478.63L387.2 478.63L381.44 496.27Z" id="a3POuye9LU"></path><path d="M406.67 486.45L396.34 492.62L428.11 478.63L435.38 478.63L405.21 493.94L426.51 485.49L402.88 500.16L405.12 496.27L381.44 496.27L406.67 486.45Z" id="a1SoeYfMaX"></path><path d="M402.24 516.25L418.97 509.03L422.49 503.36L402.24 516.25Z" id="blfTdw4y0"></path><path d="M412.34 527.13L396.43 539.15L419.84 526.08L425.69 526.08L397.26 543.36L378.01 543.36L412.34 527.13Z" id="a6F0CMqAG"></path><path d="M394.24 421.17L387.75 417.51L387.02 420.02L394.24 422.81L394.24 421.17Z" id="b29nu5vAhh"></path><path d="M379.61 416.96C379.62 416.97 379.69 417.04 379.7 417.05C379.7 417.05 379.89 417.19 380.53 417.51C380.61 417.54 381.02 417.69 381.76 417.97L383.31 415.22L379.2 415.22L379.2 415.59L379.15 415.77C379.12 416.29 379.28 416.69 379.61 416.96Z" id="a3YMpyVah"></path><path d="M387.75 417.51L383.68 415.22L383.27 415.22L381.76 417.97L387.02 420.02L387.75 417.51Z" id="bcq99n7Zq"></path><path d="M369.37 361.33L369.37 372.48L360.09 374.54L360.09 415.22L379.2 415.22L379.2 370.33L369.37 361.33Z" id="bLr9x3YGi"></path><path d="M394.24 422.81L387.02 420.02L384.46 428.98L390.4 434.01L394.24 437.3L394.24 437.94L394.88 437.85L412.07 434.65L402.29 425.65L394.24 421.17L394.24 422.81Z" id="dlJMpYSI9"></path><path d="M381.71 417.97L375.77 428.48L385.92 437.21L375.77 428.48L381.71 417.97C380.97 417.69 380.56 417.54 380.48 417.51C379.84 417.23 379.66 417.05 379.66 417.05C379.65 417.04 379.57 416.97 379.57 416.96C379.06 416.5 379.02 416.18 379.11 415.77C379.11 415.76 379.13 415.7 379.15 415.59L379.15 415.22L360.09 415.22C360.09 417.47 360.09 418.72 360.09 418.97C360.09 419.98 360.18 420.89 360.32 421.81C359.82 421.55 357.32 420.29 352.82 418.01C359.13 423.88 362.64 427.14 363.34 427.79C364.07 428.57 365.17 429.21 366.67 429.85C367.93 430.36 374.23 432.91 385.55 437.49L390.35 434.06L384.41 428.98L387.02 420.02L381.71 417.97Z" id="ayTKA5HUJ"></path><path d="M402.29 372.3L394.24 373.85L394.24 421.17L402.29 425.65L412.07 434.65L412.07 370.33L402.29 361.37L402.29 372.3Z" id="eLtFXS8Sz"></path><path d="M384.46 413.85C376.23 410.67 371.66 408.9 370.74 408.55C370.1 408.27 369.92 408.09 369.92 408.09C369.91 408.08 369.84 408.01 369.83 408C369.33 407.54 369.28 407.22 369.37 406.81C369.37 406.8 369.39 406.74 369.42 406.63L369.42 361.37L350.35 365.62C350.35 392.28 350.35 407.09 350.35 410.06C350.35 413.81 351.45 416.78 353.6 418.83C354.33 419.61 355.43 420.25 356.94 420.89C358.2 421.4 364.49 423.95 375.82 428.53L384.46 422.31L384.46 429.03L402.29 425.74L402.29 361.37L384.46 364.89L384.46 413.85Z" id="b1nuAnJDak"></path><path d="M396.85 416.59L384.46 428.98L384.46 423.77L396.85 416.59Z" id="admqBt8ew"></path><path d="M365.9 371.43L355.25 381.07L380.21 368.59L357.35 385.37L369.65 380.16L369.37 383.31L350.31 393.97L350.31 381.07L365.9 371.43Z" id="iiIN3RGQf"></path><path d="M363.61 407.27L390.63 397.17L355.02 420.02L359.82 422.03L396.57 399.09L383.27 409.87L402.29 399.36L402.29 388.3L363.61 407.27Z" id="bmqCSnTUy"></path><path d="M96.99 60.49C96.99 57.79 96.03 55.42 94.06 53.5C91.74 51.17 73.12 32.56 70.8 30.23C70.02 29.45 69.1 28.81 68.14 28.35C67.43 27.64 61.69 21.89 60.97 21.18C59.09 19.3 56.76 18.34 54.06 18.34C51.5 18.34 49.17 19.26 47.21 21.13C45.6 22.73 37.59 30.75 23.16 45.18C23.13 45.2 23.12 45.22 23.12 45.22C21.52 46.96 20.6 48.93 20.37 51.17C20.33 51.49 20.33 51.81 20.33 52.17C20.33 52.49 20.33 52.77 20.37 53.09C20.37 53.09 20.37 53.09 20.37 53.09C19.73 57.57 28.1 64.01 28.1 64.01C28.1 64.01 28.1 64.01 28.1 64.01C39.1 75.01 45.21 81.12 46.43 82.34C47.3 83.21 48.21 83.85 49.22 84.31C49.92 85.01 55.51 90.6 56.21 91.3C58.13 93.22 60.51 94.23 63.21 94.23C65.86 94.23 68.19 93.27 70.11 91.3C72.5 88.91 91.63 69.79 94.02 67.39C95.89 65.61 96.85 63.46 96.94 60.99C96.94 60.81 96.99 60.67 96.99 60.49Z" id="g5gh8U7oF"></path><path d="M59.87 17.61C58 15.74 55.66 14.78 52.97 14.78C50.5 14.78 48.26 15.65 46.34 17.34C47 19.23 52.26 34.41 52.92 36.31C53.38 36.35 53.74 36.49 54.06 36.81C54.85 37.59 61.1 43.85 61.88 44.63C68.37 42.39 76.24 39.51 76.24 39.51C77.21 40.4 85.04 47.49 86.02 48.38C86.02 48.19 86.06 48.06 86.06 47.87C86.06 45.18 85.06 42.8 83.14 40.88C78.49 36.23 62.2 19.94 59.87 17.61Z" id="c6KQxeGQ3"></path><path d="M63.94 46.69C64.3 47.05 64.44 47.46 64.44 48.06C64.44 48.79 64.21 49.06 63.98 49.29C63.3 49.97 59.91 53.37 53.79 59.49C53.76 59.51 53.75 59.53 53.74 59.53C53.56 59.76 53.24 59.99 52.51 59.99C51.92 59.99 51.5 59.85 51.14 59.49C50.15 58.5 42.25 50.6 41.26 49.61C40.9 49.25 40.76 48.88 40.76 48.33C40.76 47.83 40.94 47.37 41.31 46.91C42.33 45.91 50.44 37.86 51.46 36.86C51.92 36.49 52.37 36.31 52.78 36.31C52.83 36.31 52.88 36.31 52.92 36.31C52.26 34.41 47 19.23 46.34 17.34C46.25 17.43 46.16 17.47 46.11 17.57C44.51 19.17 36.49 27.18 22.06 41.61C22.04 41.64 22.02 41.65 22.02 41.66C20.19 43.62 19.23 45.95 19.23 48.51C19.23 51.21 20.19 53.54 22.06 55.42C24.39 57.74 43.01 76.36 45.33 78.69C47.25 80.61 49.63 81.61 52.33 81.61C54.98 81.61 57.31 80.65 59.23 78.69C61.62 76.29 80.75 57.17 83.14 54.78C84.92 52.99 85.88 50.8 86.02 48.38C85.04 47.49 77.21 40.4 76.24 39.51C76.24 39.51 68.33 42.34 61.88 44.63C62.29 45.04 63.73 46.48 63.94 46.69Z" id="anbBlynQe"></path><path d="M51.46 36.86C50.44 37.86 42.33 45.91 41.31 46.91C40.94 47.37 40.76 47.83 40.76 48.33C40.76 48.88 40.9 49.25 41.26 49.61C42.25 50.6 50.15 58.5 51.14 59.49C51.5 59.85 51.92 59.99 52.51 59.99C53.24 59.99 53.52 59.76 53.74 59.53C53.75 59.53 53.76 59.51 53.79 59.49C59.91 53.37 63.3 49.97 63.98 49.29C64.21 49.11 64.44 48.79 64.44 48.06C64.44 47.46 64.3 47.05 63.94 46.69C63.73 46.48 62.09 44.83 61.88 44.63C57.36 46.18 53.52 47.46 53.47 47.33C53.52 47.51 57.36 46.23 61.88 44.63C61.1 43.85 54.85 37.59 54.06 36.81C53.7 36.45 53.33 36.31 52.78 36.31C52.37 36.31 51.92 36.49 51.46 36.86Z" id="bqSq3tgKn"></path><path d="M43.55 5.78L43.75 5.79L43.96 5.8L44.16 5.82L44.36 5.84L44.56 5.86L44.75 5.89L44.95 5.92L45.14 5.96L45.33 6L45.52 6.04L45.71 6.09L45.9 6.14L46.08 6.19L46.27 6.25L46.45 6.31L46.63 6.38L46.81 6.45L46.99 6.52L47.16 6.6L47.34 6.68L47.51 6.76L47.68 6.85L47.85 6.94L48.02 7.04L48.18 7.14L48.35 7.24L48.51 7.35L48.67 7.45L48.83 7.57L48.99 7.69L49.14 7.81L49.3 7.93L49.45 8.06L49.6 8.19L49.75 8.32L49.9 8.46L50.04 8.61L73.31 31.87L73.46 32.02L73.6 32.17L73.75 32.33L73.88 32.48L74.02 32.63L74.15 32.79L74.27 32.95L74.39 33.11L74.51 33.27L74.62 33.44L74.73 33.6L74.84 33.77L74.94 33.94L75.04 34.11L75.13 34.28L75.22 34.46L75.31 34.63L75.39 34.81L75.47 34.99L75.55 35.17L75.62 35.35L75.68 35.54L75.75 35.72L75.81 35.91L75.86 36.09L75.91 36.28L75.96 36.47L76.01 36.67L76.05 36.86L76.08 37.05L76.11 37.25L76.14 37.45L76.17 37.65L76.19 37.85L76.21 38.05L76.22 38.25L76.23 38.46L76.23 38.66L76.24 38.87L76.23 39.07L76.23 39.27L76.22 39.47L76.21 39.67L76.19 39.87L76.17 40.07L76.14 40.26L76.11 40.46L76.08 40.65L76.05 40.84L76.01 41.03L75.96 41.22L75.92 41.41L75.86 41.6L75.81 41.78L75.75 41.96L75.69 42.15L75.62 42.33L75.55 42.51L75.48 42.68L75.4 42.86L75.32 43.03L75.23 43.21L75.15 43.38L75.05 43.55L74.96 43.72L74.86 43.88L74.75 44.05L74.64 44.21L74.53 44.38L74.42 44.54L74.3 44.7L74.17 44.86L74.05 45.01L73.92 45.17L73.78 45.32L73.64 45.47L73.5 45.62L73.36 45.77L49.45 69.68L49.3 69.83L49.15 69.97L49 70.12L48.84 70.25L48.69 70.39L48.53 70.52L48.37 70.64L48.21 70.76L48.05 70.88L47.89 70.99L47.73 71.1L47.56 71.21L47.39 71.31L47.22 71.41L47.05 71.5L46.88 71.59L46.71 71.68L46.54 71.76L46.36 71.84L46.18 71.92L46 71.99L45.82 72.05L45.64 72.12L45.46 72.18L45.27 72.23L45.09 72.28L44.9 72.33L44.71 72.38L44.52 72.42L44.33 72.45L44.14 72.48L43.94 72.51L43.75 72.54L43.55 72.56L43.35 72.58L43.15 72.59L42.95 72.6L42.75 72.6L42.54 72.61L42.34 72.6L42.13 72.6L41.93 72.59L41.72 72.57L41.52 72.56L41.32 72.53L41.12 72.51L40.93 72.48L40.73 72.45L40.54 72.41L40.34 72.37L40.15 72.32L39.96 72.27L39.77 72.22L39.58 72.16L39.4 72.1L39.21 72.04L39.03 71.97L38.85 71.9L38.67 71.82L38.49 71.75L38.31 71.66L38.13 71.58L37.96 71.48L37.79 71.39L37.62 71.29L37.45 71.19L37.28 71.08L37.12 70.98L36.95 70.86L36.79 70.75L36.63 70.62L36.47 70.5L36.31 70.37L36.16 70.24L36 70.11L35.85 69.97L35.7 69.83L35.55 69.68L12.28 46.41L12.14 46.27L12 46.12L11.87 45.97L11.73 45.82L11.61 45.67L11.48 45.51L11.36 45.36L11.24 45.2L11.13 45.04L11.02 44.88L10.92 44.72L10.81 44.55L10.71 44.39L10.62 44.22L10.53 44.05L10.44 43.88L10.36 43.71L10.28 43.53L10.2 43.36L10.13 43.18L10.06 43L9.99 42.82L9.93 42.64L9.87 42.45L9.82 42.27L9.77 42.08L9.72 41.89L9.68 41.7L9.64 41.51L9.6 41.32L9.57 41.12L9.54 40.93L9.52 40.73L9.49 40.53L9.48 40.33L9.46 40.12L9.45 39.92L9.45 39.72L9.45 39.51L9.45 39.31L9.45 39.12L9.46 38.92L9.48 38.73L9.49 38.54L9.52 38.34L9.54 38.15L9.57 37.96L9.6 37.77L9.64 37.59L9.67 37.4L9.72 37.21L9.76 37.03L9.81 36.85L9.87 36.66L9.93 36.48L9.99 36.3L10.05 36.12L10.12 35.95L10.19 35.77L10.27 35.59L10.35 35.42L10.43 35.25L10.52 35.07L10.61 34.9L10.7 34.73L10.8 34.57L10.9 34.4L11 34.23L11.11 34.07L11.22 33.91L11.34 33.74L11.45 33.58L11.58 33.43L11.7 33.27L11.83 33.11L11.96 32.96L12.1 32.8L12.24 32.65L12.28 32.61L36.28 8.56L36.43 8.42L36.59 8.28L36.74 8.14L36.9 8.01L37.06 7.89L37.21 7.76L37.37 7.64L37.54 7.53L37.7 7.42L37.86 7.31L38.03 7.2L38.2 7.1L38.36 7L38.53 6.91L38.7 6.82L38.88 6.73L39.05 6.65L39.22 6.57L39.4 6.5L39.58 6.43L39.75 6.36L39.93 6.3L40.11 6.24L40.29 6.18L40.48 6.13L40.66 6.08L40.84 6.03L41.03 5.99L41.22 5.95L41.4 5.92L41.59 5.89L41.78 5.86L41.97 5.84L42.17 5.82L42.36 5.8L42.55 5.79L42.75 5.78L42.94 5.77L43.14 5.77L43.35 5.77L43.55 5.78ZM42.76 27.32L42.66 27.33L42.56 27.35L42.46 27.38L42.36 27.42L42.26 27.46L42.16 27.51L42.05 27.57L41.95 27.63L41.84 27.7L41.74 27.77L41.63 27.85L31.48 37.91L31.4 38.01L31.33 38.12L31.26 38.23L31.2 38.33L31.14 38.44L31.09 38.55L31.05 38.65L31.01 38.76L30.99 38.87L30.96 38.98L30.95 39.1L30.94 39.21L30.93 39.33L30.94 39.45L30.94 39.57L30.96 39.68L30.97 39.79L31 39.89L31.03 39.99L31.07 40.08L31.11 40.17L31.16 40.26L31.22 40.35L31.28 40.44L31.36 40.52L31.44 40.61L41.31 50.48L41.4 50.56L41.48 50.63L41.57 50.7L41.66 50.76L41.76 50.81L41.86 50.85L41.96 50.89L42.07 50.92L42.18 50.94L42.3 50.96L42.42 50.97L42.55 50.98L42.68 50.98L42.79 50.98L42.9 50.97L43.01 50.96L43.11 50.94L43.21 50.92L43.31 50.89L43.4 50.85L43.5 50.81L43.58 50.76L43.67 50.71L43.76 50.66L43.84 50.59L43.92 50.53L54.16 40.29L54.21 40.23L54.26 40.18L54.31 40.12L54.36 40.05L54.41 39.98L54.45 39.9L54.49 39.81L54.52 39.72L54.55 39.61L54.58 39.49L54.6 39.36L54.61 39.21L54.61 39.05L54.61 38.92L54.6 38.79L54.59 38.67L54.57 38.55L54.55 38.44L54.52 38.33L54.48 38.23L54.44 38.13L54.39 38.03L54.33 37.94L54.26 37.85L54.19 37.77L54.11 37.68L44.24 27.81L44.15 27.73L44.06 27.65L43.97 27.59L43.88 27.53L43.79 27.48L43.7 27.44L43.6 27.4L43.5 27.37L43.4 27.34L43.29 27.33L43.18 27.31L43.07 27.31L42.96 27.3L42.86 27.31L42.76 27.32Z" id="bdpwsmfqa"></path><path d="M38.48 63.01C52.55 59.55 60.36 57.63 61.93 57.25C61.93 57.2 74.64 45.27 75.37 42.98C70.45 45.65 58.15 52.33 38.48 63.01Z" id="a1QYRlAmaW"></path><path d="M49.9 16.33L19.23 39.51L49.31 26.02L22.02 41.61L64.4 23.01L67.41 26.02C37.24 41.22 20.48 49.66 17.13 51.35C17.22 51.35 8.85 44.9 9.49 40.42C14.88 37.21 28.35 29.18 49.9 16.33Z" id="i1HuxDyQ3h"></path></defs><g><g><g><use xlink:href="#cs86Tkd6q" opacity="1" fill="#019db2" fill-opacity="1"></use><g><use xlink:href="#cs86Tkd6q" opacity="1" fill-opacity="0" stroke="#000000" stroke-width="1" stroke-opacity="0"></use></g></g><g><use xlink:href="#fhBWAIQnn" opacity="1" fill="#019db2" fill-opacity="1"></use><g><use xlink:href="#fhBWAIQnn" opacity="1" fill-opacity="0" stroke="#000000" stroke-width="1" stroke-opacity="0"></use></g></g><g><use xlink:href="#abUTaVxbd" opacity="1" fill="#019db2" fill-opacity="1"></use><g><use xlink:href="#abUTaVxbd" opacity="1" fill-opacity="0" stroke="#000000" stroke-width="1" stroke-opacity="0"></use></g></g><g><use xlink:href="#afl9FnQvj" opacity="1" fill="#019db2" fill-opacity="1"></use><g><use xlink:href="#afl9FnQvj" opacity="1" fill-opacity="0" stroke="#000000" stroke-width="1" stroke-opacity="0"></use></g></g><g><use xlink:href="#bqtq0SJj" opacity="1" fill="#019db2" fill-opacity="1"></use><g><use xlink:href="#bqtq0SJj" opacity="1" fill-opacity="0" stroke="#000000" stroke-width="1" stroke-opacity="0"></use></g></g><g><use xlink:href="#b4IkJfiued" opacity="1" fill="#019db2" fill-opacity="1"></use><g><use xlink:href="#b4IkJfiued" opacity="1" fill-opacity="0" stroke="#000000" stroke-width="1" stroke-opacity="0"></use></g></g><g><use xlink:href="#b10U9ibMRL" opacity="1" fill="#019db2" fill-opacity="1"></use><g><use xlink:href="#b10U9ibMRL" opacity="1" fill-opacity="0" stroke="#000000" stroke-width="1" stroke-opacity="0"></use></g></g><g><use xlink:href="#d19MxQhXIy" opacity="1" fill="#019db2" fill-opacity="1"></use><g><use xlink:href="#d19MxQhXIy" opacity="1" fill-opacity="0" stroke="#000000" stroke-width="1" stroke-opacity="0"></use></g></g><g><use xlink:href="#a6zdBToWJZ" opacity="1" fill="#019db2" fill-opacity="1"></use><g><use xlink:href="#a6zdBToWJZ" opacity="1" fill-opacity="0" stroke="#000000" stroke-width="1" stroke-opacity="0"></use></g></g><g><use xlink:href="#e1L4VLUqnD" opacity="1" fill="#019db2" fill-opacity="1"></use><g><use xlink:href="#e1L4VLUqnD" opacity="1" fill-opacity="0" stroke="#000000" stroke-width="1" stroke-opacity="0"></use></g></g><g><use xlink:href="#c65FNEcjxQ" opacity="1" fill="#019db2" fill-opacity="1"></use><g><use xlink:href="#c65FNEcjxQ" opacity="1" fill-opacity="0" stroke="#000000" stroke-width="1" stroke-opacity="0"></use></g></g><g><use xlink:href="#d2y6Kf6bsy" opacity="1" fill="#65cae5" fill-opacity="1"></use><g><use xlink:href="#d2y6Kf6bsy" opacity="1" fill-opacity="0" stroke="#000000" stroke-width="1" stroke-opacity="0"></use></g></g><g><use xlink:href="#b2skWWG7NN" opacity="1" fill="#8ed7f0" fill-opacity="1"></use><g><use xlink:href="#b2skWWG7NN" opacity="1" fill-opacity="0" stroke="#000000" stroke-width="1" stroke-opacity="0"></use></g></g><g><use xlink:href="#bgcHeLnNd" opacity="1" fill="#65cae5" fill-opacity="1"></use><g><use xlink:href="#bgcHeLnNd" opacity="1" fill-opacity="0" stroke="#000000" stroke-width="1" stroke-opacity="0"></use></g></g><g><use xlink:href="#b2Kgee8Zzy" opacity="1" fill="#65cae5" fill-opacity="1"></use><g><use xlink:href="#b2Kgee8Zzy" opacity="1" fill-opacity="0" stroke="#000000" stroke-width="1" stroke-opacity="0"></use></g></g><g><use xlink:href="#f7vnFMPFO6" opacity="1" fill="#000000" fill-opacity="0"></use><g><use xlink:href="#f7vnFMPFO6" opacity="1" fill-opacity="0" stroke="#000000" stroke-width="1" stroke-opacity="0"></use></g></g><g><use xlink:href="#aVQht5EBA" opacity="1" fill="#65cae5" fill-opacity="1"></use><g><use xlink:href="#aVQht5EBA" opacity="1" fill-opacity="0" stroke="#000000" stroke-width="1" stroke-opacity="0"></use></g></g><g><use xlink:href="#epFXTyBCb" opacity="1" fill="#d6f0fc" fill-opacity="1"></use><g><use xlink:href="#epFXTyBCb" opacity="1" fill-opacity="0" stroke="#000000" stroke-width="1" stroke-opacity="0"></use></g></g><g><use xlink:href="#d7ApDNa4B" opacity="1" fill="#bfe6f3" fill-opacity="1"></use><g><use xlink:href="#d7ApDNa4B" opacity="1" fill-opacity="0" stroke="#000000" stroke-width="1" stroke-opacity="0"></use></g></g><g><use xlink:href="#a2wBYvtbf" opacity="1" fill="#bfe6f3" fill-opacity="1"></use><g><use xlink:href="#a2wBYvtbf" opacity="1" fill-opacity="0" stroke="#000000" stroke-width="1" stroke-opacity="0"></use></g></g><g><use xlink:href="#cMJC8gxP5" opacity="1" fill="#8ed7f0" fill-opacity="1"></use><g><use xlink:href="#cMJC8gxP5" opacity="1" fill-opacity="0" stroke="#000000" stroke-width="1" stroke-opacity="0"></use></g></g><g><use xlink:href="#b4g02K94z" opacity="1" fill="#65cae5" fill-opacity="1"></use><g><use xlink:href="#b4g02K94z" opacity="1" fill-opacity="0" stroke="#000000" stroke-width="1" stroke-opacity="0"></use></g></g><g><use xlink:href="#a4jnbRyO5h" opacity="1" fill="#000000" fill-opacity="0"></use><g><use xlink:href="#a4jnbRyO5h" opacity="1" fill-opacity="0" stroke="#000000" stroke-width="1" stroke-opacity="0"></use></g></g><g><use xlink:href="#cIPQfyTA" opacity="1" fill="#000000" fill-opacity="0"></use><g><use xlink:href="#cIPQfyTA" opacity="1" fill-opacity="0" stroke="#000000" stroke-width="1" stroke-opacity="0"></use></g></g><g><use xlink:href="#bBzsY5j7v" opacity="1" fill="#65cae5" fill-opacity="1"></use><g><use xlink:href="#bBzsY5j7v" opacity="1" fill-opacity="0" stroke="#000000" stroke-width="1" stroke-opacity="0"></use></g></g><g><use xlink:href="#b9uUxyGdf" opacity="1" fill="#8ed7f0" fill-opacity="1"></use><g><use xlink:href="#b9uUxyGdf" opacity="1" fill-opacity="0" stroke="#000000" stroke-width="1" stroke-opacity="0"></use></g></g><g><use xlink:href="#cxWhovjZD" opacity="1" fill="#65cae5" fill-opacity="1"></use><g><use xlink:href="#cxWhovjZD" opacity="1" fill-opacity="0" stroke="#000000" stroke-width="1" stroke-opacity="0"></use></g></g><g><use xlink:href="#f4uf8c7bc2" opacity="1" fill="#65cae5" fill-opacity="1"></use><g><use xlink:href="#f4uf8c7bc2" opacity="1" fill-opacity="0" stroke="#000000" stroke-width="1" stroke-opacity="0"></use></g></g><g><use xlink:href="#a19GHrCCjc" opacity="1" fill="#d6f0fc" fill-opacity="1"></use><g><use xlink:href="#a19GHrCCjc" opacity="1" fill-opacity="0" stroke="#000000" stroke-width="1" stroke-opacity="0"></use></g></g><g><use xlink:href="#b1LfnEIYAw" opacity="1" fill="#bfe6f3" fill-opacity="1"></use><g><use xlink:href="#b1LfnEIYAw" opacity="1" fill-opacity="0" stroke="#000000" stroke-width="1" stroke-opacity="0"></use></g></g><g><use xlink:href="#f4jzAxMbt1" opacity="1" fill="#bfe6f3" fill-opacity="1"></use><g><use xlink:href="#f4jzAxMbt1" opacity="1" fill-opacity="0" stroke="#000000" stroke-width="1" stroke-opacity="0"></use></g></g><g><use xlink:href="#d6rttJgnq2" opacity="1" fill="#65cae5" fill-opacity="1"></use><g><use xlink:href="#d6rttJgnq2" opacity="1" fill-opacity="0" stroke="#000000" stroke-width="1" stroke-opacity="0"></use></g></g><g><use xlink:href="#dJu5SP7tD" opacity="1" fill="#8ed7f0" fill-opacity="1"></use><g><use xlink:href="#dJu5SP7tD" opacity="1" fill-opacity="0" stroke="#000000" stroke-width="1" stroke-opacity="0"></use></g></g><g><use xlink:href="#b8eVQjUrn" opacity="1" fill="#d6f0fc" fill-opacity="1"></use><g><use xlink:href="#b8eVQjUrn" opacity="1" fill-opacity="0" stroke="#000000" stroke-width="1" stroke-opacity="0"></use></g></g><g><use xlink:href="#bzX8qjGxK" opacity="1" fill="#bfe6f3" fill-opacity="1"></use><g><use xlink:href="#bzX8qjGxK" opacity="1" fill-opacity="0" stroke="#000000" stroke-width="1" stroke-opacity="0"></use></g></g><g><use xlink:href="#a5JMxhkf4v" opacity="1" fill="#bfe6f3" fill-opacity="1"></use><g><use xlink:href="#a5JMxhkf4v" opacity="1" fill-opacity="0" stroke="#000000" stroke-width="1" stroke-opacity="0"></use></g></g><g><use xlink:href="#g33LSI71uz" opacity="1" fill="#65cae5" fill-opacity="1"></use><g><use xlink:href="#g33LSI71uz" opacity="1" fill-opacity="0" stroke="#000000" stroke-width="1" stroke-opacity="0"></use></g></g><g><use xlink:href="#g3mmwfBVZk" opacity="1" fill="#8ed7f0" fill-opacity="1"></use><g><use xlink:href="#g3mmwfBVZk" opacity="1" fill-opacity="0" stroke="#000000" stroke-width="1" stroke-opacity="0"></use></g></g><g><use xlink:href="#bsjKTOhNO" opacity="1" fill="#000000" fill-opacity="0"></use><g><use xlink:href="#bsjKTOhNO" opacity="1" fill-opacity="0" stroke="#000000" stroke-width="1" stroke-opacity="0"></use></g></g><g><use xlink:href="#abUgj9GbE" opacity="1" fill="#65cae5" fill-opacity="1"></use><g><use xlink:href="#abUgj9GbE" opacity="1" fill-opacity="0" stroke="#000000" stroke-width="1" stroke-opacity="0"></use></g></g><g><use xlink:href="#aeG5Q31s7" opacity="1" fill="#65cae5" fill-opacity="1"></use><g><use xlink:href="#aeG5Q31s7" opacity="1" fill-opacity="0" stroke="#000000" stroke-width="1" stroke-opacity="0"></use></g></g><g><use xlink:href="#b1UpLyfH9y" opacity="1" fill="#8ed7f0" fill-opacity="1"></use><g><use xlink:href="#b1UpLyfH9y" opacity="1" fill-opacity="0" stroke="#000000" stroke-width="1" stroke-opacity="0"></use></g></g><g><use xlink:href="#c3eeT5Jn4b" opacity="1" fill="#d6f0fc" fill-opacity="1"></use><g><use xlink:href="#c3eeT5Jn4b" opacity="1" fill-opacity="0" stroke="#000000" stroke-width="1" stroke-opacity="0"></use></g></g><g><use xlink:href="#d2QkHGsWdl" opacity="1" fill="#bfe6f3" fill-opacity="1"></use><g><use xlink:href="#d2QkHGsWdl" opacity="1" fill-opacity="0" stroke="#000000" stroke-width="1" stroke-opacity="0"></use></g></g><g><use xlink:href="#j3grJcI3m" opacity="1" fill="#bfe6f3" fill-opacity="1"></use><g><use xlink:href="#j3grJcI3m" opacity="1" fill-opacity="0" stroke="#000000" stroke-width="1" stroke-opacity="0"></use></g></g><g><use xlink:href="#bb6u7r0fC" opacity="1" fill="#8ed7f0" fill-opacity="1"></use><g><use xlink:href="#bb6u7r0fC" opacity="1" fill-opacity="0" stroke="#000000" stroke-width="1" stroke-opacity="0"></use></g></g><g><use xlink:href="#a3e1B1c8op" opacity="1" fill="#65cae5" fill-opacity="1"></use><g><use xlink:href="#a3e1B1c8op" opacity="1" fill-opacity="0" stroke="#000000" stroke-width="1" stroke-opacity="0"></use></g></g><g><use xlink:href="#aJTBqowMd" opacity="1" fill="#65cae5" fill-opacity="1"></use><g><use xlink:href="#aJTBqowMd" opacity="1" fill-opacity="0" stroke="#000000" stroke-width="1" stroke-opacity="0"></use></g></g><g><use xlink:href="#byDcAYZ4R" opacity="1" fill="#8ed7f0" fill-opacity="1"></use><g><use xlink:href="#byDcAYZ4R" opacity="1" fill-opacity="0" stroke="#000000" stroke-width="1" stroke-opacity="0"></use></g></g><g><use xlink:href="#aaHo3PxJ" opacity="1" fill="#d6f0fc" fill-opacity="1"></use><g><use xlink:href="#aaHo3PxJ" opacity="1" fill-opacity="0" stroke="#000000" stroke-width="1" stroke-opacity="0"></use></g></g><g><use xlink:href="#bisQ7WNlq" opacity="1" fill="#bfe6f3" fill-opacity="1"></use><g><use xlink:href="#bisQ7WNlq" opacity="1" fill-opacity="0" stroke="#000000" stroke-width="1" stroke-opacity="0"></use></g></g><g><use xlink:href="#b9wQFGmKE" opacity="1" fill="#bfe6f3" fill-opacity="1"></use><g><use xlink:href="#b9wQFGmKE" opacity="1" fill-opacity="0" stroke="#000000" stroke-width="1" stroke-opacity="0"></use></g></g><g><use xlink:href="#b64QsYsGTt" opacity="1" fill="#000000" fill-opacity="0"></use><g><use xlink:href="#b64QsYsGTt" opacity="1" fill-opacity="0" stroke="#000000" stroke-width="1" stroke-opacity="0"></use></g></g><g><use xlink:href="#g2n1VOxzGK" opacity="1" fill="#65cae5" fill-opacity="1"></use><g><use xlink:href="#g2n1VOxzGK" opacity="1" fill-opacity="0" stroke="#000000" stroke-width="1" stroke-opacity="0"></use></g></g><g><use xlink:href="#a5fzpgBA" opacity="1" fill="#8ed7f0" fill-opacity="1"></use><g><use xlink:href="#a5fzpgBA" opacity="1" fill-opacity="0" stroke="#000000" stroke-width="1" stroke-opacity="0"></use></g></g><g><use xlink:href="#jhRyGm8zI" opacity="1" fill="#65cae5" fill-opacity="1"></use><g><use xlink:href="#jhRyGm8zI" opacity="1" fill-opacity="0" stroke="#000000" stroke-width="1" stroke-opacity="0"></use></g></g><g><use xlink:href="#bOdzLEhEQ" opacity="1" fill="#8ed7f0" fill-opacity="1"></use><g><use xlink:href="#bOdzLEhEQ" opacity="1" fill-opacity="0" stroke="#000000" stroke-width="1" stroke-opacity="0"></use></g></g><g><use xlink:href="#aInAWiS5" opacity="1" fill="#d6f0fc" fill-opacity="1"></use><g><use xlink:href="#aInAWiS5" opacity="1" fill-opacity="0" stroke="#000000" stroke-width="1" stroke-opacity="0"></use></g></g><g><use xlink:href="#c2MLonZ2Bg" opacity="1" fill="#bfe6f3" fill-opacity="1"></use><g><use xlink:href="#c2MLonZ2Bg" opacity="1" fill-opacity="0" stroke="#000000" stroke-width="1" stroke-opacity="0"></use></g></g><g><use xlink:href="#h4JATdwCuw" opacity="1" fill="#bfe6f3" fill-opacity="1"></use><g><use xlink:href="#h4JATdwCuw" opacity="1" fill-opacity="0" stroke="#000000" stroke-width="1" stroke-opacity="0"></use></g></g><g><use xlink:href="#b2b9bP3y5e" opacity="1" fill="#8ed7f0" fill-opacity="1"></use><g><use xlink:href="#b2b9bP3y5e" opacity="1" fill-opacity="0" stroke="#000000" stroke-width="1" stroke-opacity="0"></use></g></g><g><use xlink:href="#ajggJrhEV" opacity="1" fill="#65cae5" fill-opacity="1"></use><g><use xlink:href="#ajggJrhEV" opacity="1" fill-opacity="0" stroke="#000000" stroke-width="1" stroke-opacity="0"></use></g></g><g><use xlink:href="#aNp1YNnf7" opacity="1" fill="#8ed7f0" fill-opacity="1"></use><g><use xlink:href="#aNp1YNnf7" opacity="1" fill-opacity="0" stroke="#000000" stroke-width="1" stroke-opacity="0"></use></g></g><g><use xlink:href="#eGmkNUgwG" opacity="1" fill="#65cae5" fill-opacity="1"></use><g><use xlink:href="#eGmkNUgwG" opacity="1" fill-opacity="0" stroke="#000000" stroke-width="1" stroke-opacity="0"></use></g></g><g><use xlink:href="#g26NLneGjl" opacity="1" fill="#d6f0fc" fill-opacity="1"></use><g><use xlink:href="#g26NLneGjl" opacity="1" fill-opacity="0" stroke="#000000" stroke-width="1" stroke-opacity="0"></use></g></g><g><use xlink:href="#a36vnzFatn" opacity="1" fill="#bfe6f3" fill-opacity="1"></use><g><use xlink:href="#a36vnzFatn" opacity="1" fill-opacity="0" stroke="#000000" stroke-width="1" stroke-opacity="0"></use></g></g><g><use xlink:href="#b1e8B9RjyM" opacity="1" fill="#bfe6f3" fill-opacity="1"></use><g><use xlink:href="#b1e8B9RjyM" opacity="1" fill-opacity="0" stroke="#000000" stroke-width="1" stroke-opacity="0"></use></g></g><g><use xlink:href="#a4JV4gk4D" opacity="1" fill="#bfe6f3" fill-opacity="1"></use><g><use xlink:href="#a4JV4gk4D" opacity="1" fill-opacity="0" stroke="#000000" stroke-width="1" stroke-opacity="0"></use></g></g><g><use xlink:href="#hos7XOphQ" opacity="1" fill="#8ed7f0" fill-opacity="1"></use><g><use xlink:href="#hos7XOphQ" opacity="1" fill-opacity="0" stroke="#000000" stroke-width="1" stroke-opacity="0"></use></g></g><g><use xlink:href="#clx2jwZE" opacity="1" fill="#65cae5" fill-opacity="1"></use><g><use xlink:href="#clx2jwZE" opacity="1" fill-opacity="0" stroke="#000000" stroke-width="1" stroke-opacity="0"></use></g></g><g><use xlink:href="#a5yC0rbUtb" opacity="1" fill="#8ed7f0" fill-opacity="1"></use><g><use xlink:href="#a5yC0rbUtb" opacity="1" fill-opacity="0" stroke="#000000" stroke-width="1" stroke-opacity="0"></use></g></g><g><use xlink:href="#j1BwNbTYGd" opacity="1" fill="#000000" fill-opacity="0"></use><g><use xlink:href="#j1BwNbTYGd" opacity="1" fill-opacity="0" stroke="#000000" stroke-width="1" stroke-opacity="0"></use></g></g><g><use xlink:href="#a2qeXfgPh" opacity="1" fill="#65cae5" fill-opacity="1"></use><g><use xlink:href="#a2qeXfgPh" opacity="1" fill-opacity="0" stroke="#000000" stroke-width="1" stroke-opacity="0"></use></g></g><g><use xlink:href="#d4PHqJu18j" opacity="1" fill="#65cae5" fill-opacity="1"></use><g><use xlink:href="#d4PHqJu18j" opacity="1" fill-opacity="0" stroke="#000000" stroke-width="1" stroke-opacity="0"></use></g></g><g><use xlink:href="#a7VrlgFbFR" opacity="1" fill="#65cae5" fill-opacity="1"></use><g><use xlink:href="#a7VrlgFbFR" opacity="1" fill-opacity="0" stroke="#000000" stroke-width="1" stroke-opacity="0"></use></g></g><g><use xlink:href="#f7uM8GP0xm" opacity="1" fill="#d6f0fc" fill-opacity="1"></use><g><use xlink:href="#f7uM8GP0xm" opacity="1" fill-opacity="0" stroke="#000000" stroke-width="1" stroke-opacity="0"></use></g></g><g><use xlink:href="#b1G0REA1MK" opacity="1" fill="#bfe6f3" fill-opacity="1"></use><g><use xlink:href="#b1G0REA1MK" opacity="1" fill-opacity="0" stroke="#000000" stroke-width="1" stroke-opacity="0"></use></g></g><g><use xlink:href="#gbK0MHG6p" opacity="1" fill="#bfe6f3" fill-opacity="1"></use><g><use xlink:href="#gbK0MHG6p" opacity="1" fill-opacity="0" stroke="#000000" stroke-width="1" stroke-opacity="0"></use></g></g><g><use xlink:href="#guwNksFJ5" opacity="1" fill="#65cae5" fill-opacity="1"></use><g><use xlink:href="#guwNksFJ5" opacity="1" fill-opacity="0" stroke="#000000" stroke-width="1" stroke-opacity="0"></use></g></g><g><use xlink:href="#c1rnbTMQbc" opacity="1" fill="#8ed7f0" fill-opacity="1"></use><g><use xlink:href="#c1rnbTMQbc" opacity="1" fill-opacity="0" stroke="#000000" stroke-width="1" stroke-opacity="0"></use></g></g><g><use xlink:href="#g1S0UVUUxl" opacity="1" fill="#65cae5" fill-opacity="1"></use><g><use xlink:href="#g1S0UVUUxl" opacity="1" fill-opacity="0" stroke="#000000" stroke-width="1" stroke-opacity="0"></use></g></g><g><use xlink:href="#de93qoq3K" opacity="1" fill="#8ed7f0" fill-opacity="1"></use><g><use xlink:href="#de93qoq3K" opacity="1" fill-opacity="0" stroke="#000000" stroke-width="1" stroke-opacity="0"></use></g></g><g><use xlink:href="#bSKmWL0DZ" opacity="1" fill="#d6f0fc" fill-opacity="1"></use><g><use xlink:href="#bSKmWL0DZ" opacity="1" fill-opacity="0" stroke="#000000" stroke-width="1" stroke-opacity="0"></use></g></g><g><use xlink:href="#d5mvlEHwC" opacity="1" fill="#bfe6f3" fill-opacity="1"></use><g><use xlink:href="#d5mvlEHwC" opacity="1" fill-opacity="0" stroke="#000000" stroke-width="1" stroke-opacity="0"></use></g></g><g><use xlink:href="#a16DH7GlbS" opacity="1" fill="#bfe6f3" fill-opacity="1"></use><g><use xlink:href="#a16DH7GlbS" opacity="1" fill-opacity="0" stroke="#000000" stroke-width="1" stroke-opacity="0"></use></g></g><g><use xlink:href="#c1l1tsUSzQ" opacity="1" fill="#bfe6f3" fill-opacity="1"></use><g><use xlink:href="#c1l1tsUSzQ" opacity="1" fill-opacity="0" stroke="#000000" stroke-width="1" stroke-opacity="0"></use></g></g><g><use xlink:href="#a1Q17eOSCC" opacity="1" fill="#65cae5" fill-opacity="1"></use><g><use xlink:href="#a1Q17eOSCC" opacity="1" fill-opacity="0" stroke="#000000" stroke-width="1" stroke-opacity="0"></use></g></g><g><use xlink:href="#b1MUgtLOwG" opacity="1" fill="#8ed7f0" fill-opacity="1"></use><g><use xlink:href="#b1MUgtLOwG" opacity="1" fill-opacity="0" stroke="#000000" stroke-width="1" stroke-opacity="0"></use></g></g><g><use xlink:href="#e2D7YjF0al" opacity="1" fill="#65cae5" fill-opacity="1"></use><g><use xlink:href="#e2D7YjF0al" opacity="1" fill-opacity="0" stroke="#000000" stroke-width="1" stroke-opacity="0"></use></g></g><g><use xlink:href="#cCLWUtQjX" opacity="1" fill="#65cae5" fill-opacity="1"></use><g><use xlink:href="#cCLWUtQjX" opacity="1" fill-opacity="0" stroke="#000000" stroke-width="1" stroke-opacity="0"></use></g></g><g><use xlink:href="#a3POuye9LU" opacity="1" fill="#d6f0fc" fill-opacity="1"></use><g><use xlink:href="#a3POuye9LU" opacity="1" fill-opacity="0" stroke="#000000" stroke-width="1" stroke-opacity="0"></use></g></g><g><use xlink:href="#a1SoeYfMaX" opacity="1" fill="#bfe6f3" fill-opacity="1"></use><g><use xlink:href="#a1SoeYfMaX" opacity="1" fill-opacity="0" stroke="#000000" stroke-width="1" stroke-opacity="0"></use></g></g><g><use xlink:href="#blfTdw4y0" opacity="1" fill="#bfe6f3" fill-opacity="1"></use><g><use xlink:href="#blfTdw4y0" opacity="1" fill-opacity="0" stroke="#000000" stroke-width="1" stroke-opacity="0"></use></g></g><g><use xlink:href="#a6F0CMqAG" opacity="1" fill="#bfe6f3" fill-opacity="1"></use><g><use xlink:href="#a6F0CMqAG" opacity="1" fill-opacity="0" stroke="#000000" stroke-width="1" stroke-opacity="0"></use></g></g><g><use xlink:href="#b29nu5vAhh" opacity="1" fill="#000000" fill-opacity="0"></use><g><use xlink:href="#b29nu5vAhh" opacity="1" fill-opacity="0" stroke="#000000" stroke-width="1" stroke-opacity="0"></use></g></g><g><use xlink:href="#a3YMpyVah" opacity="1" fill="#000000" fill-opacity="0"></use><g><use xlink:href="#a3YMpyVah" opacity="1" fill-opacity="0" stroke="#000000" stroke-width="1" stroke-opacity="0"></use></g></g><g><use xlink:href="#bcq99n7Zq" opacity="1" fill="#000000" fill-opacity="0"></use><g><use xlink:href="#bcq99n7Zq" opacity="1" fill-opacity="0" stroke="#000000" stroke-width="1" stroke-opacity="0"></use></g></g><g><use xlink:href="#bLr9x3YGi" opacity="1" fill="#8ed7f0" fill-opacity="1"></use><g><use xlink:href="#bLr9x3YGi" opacity="1" fill-opacity="0" stroke="#000000" stroke-width="1" stroke-opacity="0"></use></g></g><g><use xlink:href="#dlJMpYSI9" opacity="1" fill="#65cae5" fill-opacity="1"></use><g><use xlink:href="#dlJMpYSI9" opacity="1" fill-opacity="0" stroke="#000000" stroke-width="1" stroke-opacity="0"></use></g></g><g><use xlink:href="#ayTKA5HUJ" opacity="1" fill="#65cae5" fill-opacity="1"></use><g><use xlink:href="#ayTKA5HUJ" opacity="1" fill-opacity="0" stroke="#000000" stroke-width="1" stroke-opacity="0"></use></g></g><g><use xlink:href="#eLtFXS8Sz" opacity="1" fill="#8ed7f0" fill-opacity="1"></use><g><use xlink:href="#eLtFXS8Sz" opacity="1" fill-opacity="0" stroke="#000000" stroke-width="1" stroke-opacity="0"></use></g></g><g><use xlink:href="#b1nuAnJDak" opacity="1" fill="#d6f0fc" fill-opacity="1"></use><g><use xlink:href="#b1nuAnJDak" opacity="1" fill-opacity="0" stroke="#000000" stroke-width="1" stroke-opacity="0"></use></g></g><g><use xlink:href="#admqBt8ew" opacity="1" fill="#bfe6f3" fill-opacity="1"></use><g><use xlink:href="#admqBt8ew" opacity="1" fill-opacity="0" stroke="#000000" stroke-width="1" stroke-opacity="0"></use></g></g><g><use xlink:href="#iiIN3RGQf" opacity="1" fill="#bfe6f3" fill-opacity="1"></use><g><use xlink:href="#iiIN3RGQf" opacity="1" fill-opacity="0" stroke="#000000" stroke-width="1" stroke-opacity="0"></use></g></g><g><use xlink:href="#bmqCSnTUy" opacity="1" fill="#bfe6f3" fill-opacity="1"></use><g><use xlink:href="#bmqCSnTUy" opacity="1" fill-opacity="0" stroke="#000000" stroke-width="1" stroke-opacity="0"></use></g></g><g><use xlink:href="#g5gh8U7oF" opacity="1" fill="#019db2" fill-opacity="1"></use><g><use xlink:href="#g5gh8U7oF" opacity="1" fill-opacity="0" stroke="#000000" stroke-width="1" stroke-opacity="0"></use></g></g><g><use xlink:href="#c6KQxeGQ3" opacity="1" fill="#8ed7f0" fill-opacity="1"></use><g><use xlink:href="#c6KQxeGQ3" opacity="1" fill-opacity="0" stroke="#000000" stroke-width="1" stroke-opacity="0"></use></g></g><g><use xlink:href="#anbBlynQe" opacity="1" fill="#65cae5" fill-opacity="1"></use><g><use xlink:href="#anbBlynQe" opacity="1" fill-opacity="0" stroke="#000000" stroke-width="1" stroke-opacity="0"></use></g></g><g><use xlink:href="#bqSq3tgKn" opacity="1" fill="#000000" fill-opacity="0"></use><g><use xlink:href="#bqSq3tgKn" opacity="1" fill-opacity="0" stroke="#000000" stroke-width="1" stroke-opacity="0"></use></g></g><g><use xlink:href="#bdpwsmfqa" opacity="1" fill="#d6f0fc" fill-opacity="1"></use><g><use xlink:href="#bdpwsmfqa" opacity="1" fill-opacity="0" stroke="#000000" stroke-width="1" stroke-opacity="0"></use></g></g><g><use xlink:href="#a1QYRlAmaW" opacity="1" fill="#bfe6f3" fill-opacity="1"></use><g><use xlink:href="#a1QYRlAmaW" opacity="1" fill-opacity="0" stroke="#000000" stroke-width="1" stroke-opacity="0"></use></g></g><g><use xlink:href="#i1HuxDyQ3h" opacity="1" fill="#bfe6f3" fill-opacity="1"></use><g><use xlink:href="#i1HuxDyQ3h" opacity="1" fill-opacity="0" stroke="#000000" stroke-width="1" stroke-opacity="0"></use></g></g></g></g></svg>