<?xml version="1.0" encoding="UTF-8" standalone="no"?>
<!DOCTYPE svg PUBLIC "-//W3C//DTD SVG 1.1//EN" "http://www.w3.org/Graphics/SVG/1.1/DTD/svg11.dtd">
<svg version="1.1" xmlns="http://www.w3.org/2000/svg" xmlns:xlink="http://www.w3.org/1999/xlink" preserveAspectRatio="xMidYMid meet" viewBox="0 0 100 100" width="100" height="100"><defs><path d="M33.75 84.9L34.25 84.45C38.03 87.9 40.14 89.82 40.56 90.21C41.06 91.03 42.29 91.3 43.44 91.58C44.72 91.9 46.64 92.22 49.15 92.63C55.87 93.73 57.43 93.86 58.02 93.86C59.21 93.86 60.44 93.59 61.59 93.09C62.68 92.63 63.73 91.94 64.79 91.03C64.79 91.02 64.83 90.99 64.83 90.98C65.47 90.39 66.25 89.57 67.21 88.42C68.67 87.23 71.69 84.13 76.49 79.05C81.93 73.29 87.14 67.58 91.94 62.05C92.58 61.41 92.9 60.58 92.9 59.67C92.9 59.62 92.9 59.62 92.9 59.58C92.9 59.03 92.67 58.25 91.89 57.43C89.96 55.5 80.32 45.84 62.96 28.45L57.84 23.74L57.84 23.74L57.84 23.74L53.13 19.44C53.05 19.39 53 19.35 52.99 19.35C52.44 18.98 51.8 18.75 51.16 18.66C51.08 18.66 50.46 18.66 50.39 18.66C50.02 18.66 49.15 18.66 40.42 20.22C38.5 20.54 35.62 21.04 31.73 21.86C31.65 21.88 31.2 21.97 30.41 22.14L30.41 41.57L30.41 44.99L30.41 47.69L30.41 51.17C30.41 68.64 30.41 78.34 30.41 80.29C30.5 80.79 30.68 81.2 30.96 81.47C31.33 81.93 32.26 83.07 33.75 84.9Z" id="a2qOUg7jiN"></path><path d="M52.63 54.78C57.75 50.07 59.85 48.19 60.72 47.37C60.72 47.35 60.72 47.24 60.72 47.05L47.23 35.17L46.96 59.94C49 58.08 50.89 56.36 52.63 54.78Z" id="b2jmjL7Yy1"></path><path d="M29.36 69.59L19.89 68.72C25.74 74.04 28.98 77 29.63 77.59C30.13 78.41 31.37 78.69 32.51 78.96C33.79 79.28 35.71 79.6 38.23 80.01C44.95 81.11 46.5 81.25 47.09 81.25C48.28 81.25 49.52 80.97 50.66 80.47C50.02 79.86 46.84 76.83 41.11 71.37L29.36 65.84L29.36 69.59Z" id="f29LxjxwYt"></path><path d="M52.63 54.78C57.75 50.07 59.85 48.19 60.72 47.37C60.72 47.35 60.72 47.24 60.72 47.05L49.93 37.54L48.47 37.5L49.93 37.54L47.28 35.21L46.96 59.94C49 58.08 50.89 56.36 52.63 54.78Z" id="b16uutXsq6"></path><path d="M49.01 39.19L47.19 41.38C47.05 52.55 46.97 58.75 46.96 59.99C48.19 58.85 50.02 57.2 52.63 54.82C57.75 50.11 59.85 48.24 60.72 47.42C60.72 47.39 60.72 47.27 60.72 47.05L49.93 37.54L47.28 35.21L47.19 41.38L49.01 39.19Z" id="a9kR0KA4m"></path><path d="M72.28 38.09L49.93 37.5L60.72 47.01C60.72 47.2 60.72 47.3 60.72 47.33C59.8 48.1 57.75 50.02 52.63 54.73C50.02 57.15 48.19 58.8 46.96 59.9C46.97 58.66 47.05 52.45 47.19 41.29L35.89 54.91L29.36 54.09L29.36 65.89L41.11 71.46C46.84 76.92 50.02 79.95 50.66 80.56C51.76 80.1 52.81 79.42 53.86 78.5C53.86 78.5 53.9 78.46 53.91 78.46C54.55 77.86 55.32 77.04 56.28 75.9C57.75 74.71 60.76 71.6 65.56 66.53C71 60.77 76.21 55.05 81.01 49.52C81.65 48.88 81.97 48.06 81.97 47.14C82.07 47.1 82.07 47.05 82.07 47.01C80.76 45.82 77.5 42.85 72.28 38.09Z" id="a4zg1IfJaj"></path><path d="M52.12 15.87L42.29 6.91C45.28 11.96 46.94 14.76 47.28 15.33C45.91 15.51 43.53 15.92 39.37 16.65C37.45 16.97 34.57 17.47 30.68 18.3C30.59 18.32 30.15 18.41 29.36 18.57L45.91 28.99L47.32 35.26L49.88 37.54L72.24 38.14C78.11 43.49 81.37 46.46 82.02 47.05C82.02 46.46 81.84 45.68 81.06 44.86C77.2 40.99 67.56 31.33 52.12 15.87Z" id="a1Jjf1ANGb"></path><path d="M29.36 54.09L35.89 54.91L47.19 41.38L47.23 35.17L47.37 35.26L45.91 28.99L29.36 18.53L29.36 54.09Z" id="h1nAlrqv2E"></path><path d="M40.43 6.15L40.48 6.16L40.53 6.17L40.58 6.18L40.63 6.19L40.68 6.2L40.73 6.21L40.78 6.23L40.83 6.24L40.88 6.25L40.93 6.26L40.98 6.28L41.03 6.29L41.08 6.31L41.13 6.33L41.18 6.34L41.23 6.36L41.28 6.38L41.33 6.4L41.37 6.41L41.42 6.43L41.47 6.45L41.52 6.47L41.57 6.5L41.61 6.52L41.66 6.54L41.71 6.56L41.75 6.59L41.8 6.61L41.84 6.63L41.89 6.66L41.94 6.69L41.98 6.71L42.03 6.74L42.07 6.77L42.11 6.79L42.16 6.82L42.29 6.91L71.19 35.85L71.25 35.92L71.31 35.99L71.37 36.06L71.42 36.12L71.48 36.19L71.53 36.26L71.58 36.33L71.62 36.39L71.67 36.46L71.71 36.52L71.75 36.59L71.79 36.65L71.82 36.72L71.86 36.78L71.89 36.84L71.92 36.91L71.95 36.97L71.97 37.03L72 37.09L72.02 37.15L72.04 37.21L72.06 37.27L72.08 37.33L72.09 37.38L72.11 37.44L72.12 37.5L72.13 37.55L72.14 37.61L72.15 37.66L72.16 37.71L72.17 37.76L72.18 37.81L72.18 37.86L72.18 37.91L72.19 37.96L72.19 38L72.19 38.05L72.19 38.09L72.19 38.16L72.19 38.24L72.18 38.31L72.18 38.38L72.17 38.45L72.17 38.52L72.16 38.59L72.15 38.66L72.14 38.72L72.12 38.79L72.11 38.86L72.1 38.93L72.08 38.99L72.06 39.06L72.04 39.13L72.02 39.19L72 39.26L71.98 39.32L71.95 39.38L71.93 39.45L71.9 39.51L71.87 39.57L71.84 39.63L71.81 39.69L71.78 39.75L71.74 39.81L71.71 39.87L71.67 39.93L71.63 39.98L71.59 40.04L71.55 40.1L71.51 40.15L71.47 40.21L71.42 40.26L71.38 40.31L71.33 40.37L71.28 40.42L71.23 40.47L70.85 40.91L70.47 41.34L70.09 41.78L69.7 42.22L69.32 42.66L68.93 43.1L68.54 43.54L68.15 43.99L67.75 44.43L67.36 44.87L66.96 45.31L66.57 45.76L66.17 46.2L65.77 46.65L65.37 47.1L64.96 47.54L64.56 47.99L64.15 48.44L63.75 48.89L63.34 49.33L62.93 49.78L62.52 50.23L62.1 50.68L61.69 51.13L61.28 51.58L60.86 52.04L60.44 52.49L60.02 52.94L59.6 53.39L59.18 53.84L58.76 54.3L58.34 54.75L57.91 55.2L57.49 55.66L57.06 56.11L56.64 56.57L56.21 57.02L55.78 57.47L55.4 57.87L55.04 58.26L54.68 58.64L54.32 59.01L53.98 59.38L53.64 59.73L53.31 60.08L52.98 60.42L52.67 60.75L52.36 61.07L52.05 61.39L51.76 61.69L51.47 61.99L51.19 62.28L50.91 62.57L50.65 62.84L50.39 63.11L50.13 63.37L49.89 63.62L49.65 63.86L49.42 64.09L49.19 64.32L48.97 64.54L48.76 64.75L48.56 64.95L48.36 65.14L48.17 65.33L47.98 65.51L47.8 65.68L47.63 65.84L47.47 65.99L47.31 66.14L47.16 66.28L47.01 66.41L46.88 66.53L46.74 66.64L46.62 66.75L46.5 66.85L46.42 66.94L46.35 67.02L46.28 67.11L46.2 67.2L46.13 67.28L46.06 67.36L45.99 67.45L45.92 67.53L45.85 67.61L45.78 67.68L45.71 67.76L45.64 67.84L45.58 67.91L45.51 67.98L45.45 68.06L45.38 68.13L45.32 68.2L45.25 68.26L45.19 68.33L45.13 68.4L45.07 68.46L45.01 68.53L44.95 68.59L44.89 68.65L44.83 68.71L44.77 68.77L44.71 68.83L44.66 68.89L44.6 68.94L44.55 69L44.49 69.05L44.44 69.11L44.38 69.16L44.33 69.21L44.28 69.26L44.22 69.31L44.17 69.36L44.12 69.41L44.08 69.45L43.9 69.6L43.72 69.74L43.55 69.88L43.37 70.01L43.19 70.14L43.01 70.27L42.83 70.39L42.66 70.51L42.48 70.63L42.3 70.74L42.12 70.85L41.94 70.95L41.76 71.05L41.58 71.15L41.41 71.24L41.23 71.33L41.05 71.41L40.87 71.49L40.69 71.57L40.51 71.64L40.33 71.71L40.15 71.78L39.97 71.84L39.79 71.9L39.61 71.95L39.43 72L39.25 72.05L39.07 72.09L38.89 72.12L38.71 72.16L38.53 72.19L38.35 72.21L38.17 72.24L37.99 72.25L37.81 72.27L37.63 72.28L37.45 72.28L37.27 72.29L37.22 72.29L37.16 72.28L37.1 72.28L37.04 72.28L36.97 72.28L36.9 72.27L36.81 72.27L36.72 72.26L36.63 72.25L36.52 72.24L36.41 72.23L36.28 72.22L36.15 72.2L36.01 72.19L35.85 72.17L35.69 72.15L35.51 72.13L35.33 72.11L35.13 72.08L34.92 72.05L34.69 72.02L34.45 71.99L34.2 71.95L33.93 71.91L33.65 71.87L33.35 71.83L33.04 71.78L32.71 71.73L32.36 71.68L31.99 71.62L31.61 71.57L31.21 71.5L30.79 71.44L30.35 71.37L29.89 71.29L29.42 71.22L28.92 71.14L28.4 71.05L28.2 71.02L28 70.99L27.81 70.96L27.62 70.92L27.44 70.89L27.25 70.86L27.07 70.83L26.89 70.8L26.71 70.77L26.54 70.74L26.36 70.71L26.19 70.69L26.03 70.66L25.86 70.63L25.7 70.6L25.54 70.57L25.38 70.55L25.23 70.52L25.08 70.49L24.93 70.46L24.78 70.44L24.64 70.41L24.49 70.38L24.36 70.36L24.22 70.33L24.09 70.31L23.95 70.28L23.83 70.25L23.7 70.23L23.58 70.2L23.45 70.18L23.34 70.15L23.22 70.13L23.11 70.1L23 70.08L22.89 70.05L22.78 70.03L22.68 70L22.57 69.97L22.45 69.94L22.33 69.91L22.22 69.88L22.1 69.85L21.98 69.82L21.87 69.79L21.75 69.76L21.64 69.72L21.52 69.69L21.41 69.65L21.3 69.62L21.19 69.58L21.08 69.54L20.98 69.5L20.87 69.45L20.77 69.41L20.67 69.36L20.58 69.31L20.49 69.26L20.4 69.2L20.31 69.14L20.23 69.08L20.15 69.02L20.08 68.95L20.01 68.88L19.94 68.81L19.88 68.73L19.83 68.65L19.78 68.57L19.73 68.48L19.69 68.39L19.66 68.3L19.63 68.2L19.6 68.1L19.59 67.99L19.58 67.88L19.57 67.76L19.57 9.61L20.9 9.34L21.2 9.27L21.5 9.21L21.8 9.15L22.09 9.09L22.38 9.03L22.67 8.97L22.94 8.91L23.22 8.86L23.49 8.8L23.76 8.75L24.02 8.7L24.28 8.65L24.54 8.6L24.79 8.55L25.03 8.5L25.28 8.46L25.51 8.41L25.75 8.37L25.98 8.33L26.21 8.28L26.43 8.24L26.65 8.2L26.86 8.16L27.07 8.13L27.28 8.09L27.48 8.05L27.68 8.02L27.87 7.98L28.06 7.95L28.24 7.92L28.43 7.89L28.6 7.86L28.78 7.83L28.95 7.8L29.11 7.77L29.27 7.74L29.43 7.72L29.59 7.69L30.26 7.57L30.9 7.46L31.51 7.35L32.09 7.25L32.64 7.16L33.16 7.07L33.66 6.98L34.12 6.9L34.56 6.83L34.98 6.76L35.37 6.69L35.74 6.63L36.08 6.58L36.4 6.53L36.7 6.48L36.98 6.44L37.24 6.4L37.48 6.36L37.71 6.33L37.91 6.3L38.1 6.28L38.27 6.25L38.43 6.23L38.57 6.21L38.7 6.2L38.82 6.19L38.93 6.17L39.02 6.17L39.11 6.16L39.18 6.15L39.25 6.15L39.31 6.14L39.36 6.14L39.41 6.14L39.45 6.14L39.49 6.14L39.52 6.14L39.55 6.14L40.33 6.14L40.38 6.14L40.43 6.15ZM37.49 50.69L37.84 50.37L38.21 50.03L38.6 49.66L39.03 49.28L39.48 48.86L39.96 48.42L40.47 47.96L41.01 47.47L41.59 46.95L42.2 46.4L42.84 45.82L44.06 44.7L45.16 43.69L46.14 42.78L47.01 41.98L47.79 41.26L48.47 40.64L49.06 40.1L49.57 39.63L50 39.23L50.37 38.9L50.68 38.63L50.93 38.41L50.93 38.09L37.45 26.21L37.17 50.98L37.49 50.69Z" id="a36LNXmp"></path><path d="M19.57 28.99L19.57 32.42L29.91 26.16L19.57 35.12L19.57 38.55L52.12 16.74L46.96 11.21L19.57 28.99Z" id="c1sYVaD6kv"></path><path d="M34.11 48.01L53.86 35.99L21.45 62.55L49.79 42.07L19.89 68.72L22.82 72.29L68.58 33.25L62.32 26.98L34.11 48.01Z" id="hzRd3SCfC"></path></defs><g><g><g><use xlink:href="#a2qOUg7jiN" opacity="1" fill="#019db2" fill-opacity="1"></use><g><use xlink:href="#a2qOUg7jiN" opacity="1" fill-opacity="0" stroke="#000000" stroke-width="1" stroke-opacity="0"></use></g></g><g><use xlink:href="#b2jmjL7Yy1" opacity="1" fill="#000000" fill-opacity="0"></use><g><use xlink:href="#b2jmjL7Yy1" opacity="1" fill-opacity="0" stroke="#000000" stroke-width="1" stroke-opacity="0"></use></g></g><g><use xlink:href="#f29LxjxwYt" opacity="1" fill="#65cae5" fill-opacity="1"></use><g><use xlink:href="#f29LxjxwYt" opacity="1" fill-opacity="0" stroke="#000000" stroke-width="1" stroke-opacity="0"></use></g></g><g><use xlink:href="#b16uutXsq6" opacity="1" fill="#000000" fill-opacity="0"></use><g><use xlink:href="#b16uutXsq6" opacity="1" fill-opacity="0" stroke="#000000" stroke-width="1" stroke-opacity="0"></use></g></g><g><use xlink:href="#a9kR0KA4m" opacity="1" fill="#000000" fill-opacity="0"></use><g><use xlink:href="#a9kR0KA4m" opacity="1" fill-opacity="0" stroke="#000000" stroke-width="1" stroke-opacity="0"></use></g></g><g><use xlink:href="#a4zg1IfJaj" opacity="1" fill="#8ed7f0" fill-opacity="1"></use><g><use xlink:href="#a4zg1IfJaj" opacity="1" fill-opacity="0" stroke="#000000" stroke-width="1" stroke-opacity="0"></use></g></g><g><use xlink:href="#a1Jjf1ANGb" opacity="1" fill="#8ed7f0" fill-opacity="1"></use><g><use xlink:href="#a1Jjf1ANGb" opacity="1" fill-opacity="0" stroke="#000000" stroke-width="1" stroke-opacity="0"></use></g></g><g><use xlink:href="#h1nAlrqv2E" opacity="1" fill="#65cae5" fill-opacity="1"></use><g><use xlink:href="#h1nAlrqv2E" opacity="1" fill-opacity="0" stroke="#000000" stroke-width="1" stroke-opacity="0"></use></g></g><g><use xlink:href="#a36LNXmp" opacity="1" fill="#d6f0fc" fill-opacity="1"></use><g><use xlink:href="#a36LNXmp" opacity="1" fill-opacity="0" stroke="#000000" stroke-width="1" stroke-opacity="0"></use></g></g><g><use xlink:href="#c1sYVaD6kv" opacity="1" fill="#bfe6f3" fill-opacity="1"></use><g><use xlink:href="#c1sYVaD6kv" opacity="1" fill-opacity="0" stroke="#000000" stroke-width="1" stroke-opacity="0"></use></g></g><g><use xlink:href="#hzRd3SCfC" opacity="1" fill="#bfe6f3" fill-opacity="1"></use><g><use xlink:href="#hzRd3SCfC" opacity="1" fill-opacity="0" stroke="#000000" stroke-width="1" stroke-opacity="0"></use></g></g></g></g></svg>