<?xml version="1.0" encoding="UTF-8" standalone="no"?>
<!DOCTYPE svg PUBLIC "-//W3C//DTD SVG 1.1//EN" "http://www.w3.org/Graphics/SVG/1.1/DTD/svg11.dtd">
<svg version="1.1" xmlns="http://www.w3.org/2000/svg" xmlns:xlink="http://www.w3.org/1999/xlink" preserveAspectRatio="xMidYMid meet" viewBox="0 0 100 100" width="100" height="100"><defs><path d="M96.82 58.8C96.77 56.15 95.81 53.82 93.94 51.9C93.19 51.15 87.19 45.15 86.44 44.4C85.85 43.62 84.98 42.71 83.79 41.75C82.48 40.44 71.98 29.94 70.67 28.63C69.85 27.81 68.93 27.17 67.93 26.71C67.22 26 61.55 20.37 60.84 19.67C58.97 17.79 56.64 16.83 53.94 16.83C53.94 16.83 53.94 16.83 53.94 16.83C53.94 16.83 53.94 16.83 53.94 16.83C51.38 16.83 49.05 17.75 47.08 19.62C45.48 21.23 37.46 29.24 23.04 43.67C23.01 43.7 22.99 43.71 22.99 43.71C21.16 45.68 20.2 48.01 20.2 50.57C20.2 51.03 20.25 51.49 20.29 51.94C18.6 56.7 27.47 62.37 28.61 63.05C30.38 64.82 44.53 78.97 46.3 80.74C47.17 81.61 48.13 82.3 49.18 82.75C49.88 83.45 55.44 89.01 56.13 89.7C58.05 91.62 60.43 92.63 63.13 92.63C65.78 92.63 68.11 91.67 70.03 89.7C70.17 89.57 70.85 88.88 72.09 87.65L81.37 95.83L92.66 83.9L83.97 75.76C89.95 69.81 93.27 66.5 93.94 65.84C95.81 63.87 96.82 61.54 96.82 58.89C96.82 58.85 96.82 58.82 96.82 58.8Z" id="c1pmElnVKb"></path><path d="M290.15 494.31L290.15 494.31L285.85 492.07L285.85 492.07L281.23 489.65L281.23 489.65L275.75 486.77L269.35 496.73L264.5 499.66L261.99 495.77L252.16 486.77L252.16 486.77L252.16 486.77L237.76 494.22L254.4 519.91L234.51 550.67L234.51 550.67L234.51 550.67L234.51 550.67L234.51 550.67L244.3 559.68L259.34 565.76L271.82 546.7L278.35 556.8L278.35 556.8L288.18 565.76L303.18 559.63L283.38 528.87L299.98 503.31L290.15 494.31Z" id="fhBWAIQnn"></path><path d="M512.27 389.62L489.01 446.17L488.91 446.22L474.47 451.57L464.69 442.56L437.99 378.29L455.27 374.77L465.05 383.77L469.26 393.51L480.18 390.77L486.58 374.13L502.49 380.71L512.27 389.62ZM474.51 405.62L476.07 401.65L473.14 402.42L474.51 405.62ZM471.22 398.13L477.99 396.57L479.54 392.5L470.4 396.16L471.22 398.13Z" id="abUTaVxbd"></path><path d="M270.08 389.85L258.61 376.27L249.46 367.86L248.96 367.27L248.87 367.31L248.78 367.27L248.82 367.36L248.82 367.36L248.78 367.27C231.88 379.8 222.49 386.77 220.62 388.16C219.93 388.62 219.43 389.03 219.06 389.39C219.06 389.4 219.02 389.44 219.02 389.44C217.83 390.72 217.23 392.09 217.23 393.6C217.23 394.47 217.46 395.34 217.87 396.21C217.87 396.21 217.87 396.21 217.87 396.21C218.74 398.67 221.9 401.19 224.27 402.79C225.25 403.7 233.08 411.02 234.06 411.93C234.19 412.07 234.29 412.21 234.33 412.34C234.33 412.34 234.29 412.39 234.29 412.39C234.28 412.39 234.2 412.43 234.19 412.43C234.19 412.43 234.1 412.53 233.87 412.66C232.5 413.66 225.61 418.64 213.21 427.61L226.1 441.1L226.1 441.1L235.89 450.1L265.1 427.79C265.15 427.77 265.18 427.75 265.19 427.75C266.19 426.88 266.88 426.06 267.38 425.19C267.75 424.55 267.98 423.91 268.11 423.27C268.16 422.95 268.21 422.67 268.21 422.35C268.21 421.35 267.89 420.34 267.34 419.43C267.33 419.42 267.3 419.39 267.29 419.38C267.15 419.15 266.88 418.83 266.56 418.42C266.56 418.42 266.54 418.39 266.51 418.33L251.84 404.57L250.83 403.61C250.81 403.58 250.79 403.57 250.79 403.57C250.79 403.57 250.79 403.57 250.79 403.57C250.97 403.43 251.2 403.29 251.52 403.06C253.99 401.3 260.18 396.9 270.08 389.85Z" id="bqtq0SJj"></path><path d="M585.23 374.67L576.14 400.05L568.96 386.42L559.18 377.42L559.18 377.42L559.18 377.42L551.82 396.07L546.93 384.09L537.14 375.09L541.3 385.33L541.3 385.33L537.14 375.09L519.31 379.02L542.81 440.05C542.92 440.18 542.98 440.26 542.99 440.27C543.22 440.55 543.5 440.78 543.73 440.96C544.64 441.79 551.91 448.45 552.82 449.28C553.83 450.42 554.88 450.65 555.57 450.65C556.3 450.65 556.98 450.47 557.58 450.06C557.9 449.87 558.17 449.6 558.49 449.19C558.5 449.18 558.53 449.15 558.58 449.1L567.54 431.31L572.43 440.27C572.52 440.36 572.56 440.4 572.57 440.41C572.85 440.73 573.12 440.91 573.35 441.1C574.25 441.92 581.45 448.54 582.35 449.37C583.27 450.42 584.32 450.65 585.01 450.65C585.6 450.65 586.24 450.47 586.83 450.06C587.06 449.92 587.34 449.74 587.61 449.46C587.63 449.45 587.7 449.37 587.84 449.23L610.7 392.23L600.87 383.22L600.87 383.22L585.23 374.67Z" id="b4IkJfiued"></path><path d="M341.67 392.37L338.47 398.54L338.42 398.67L324.25 398.67L324.25 445.67L306.7 449.87L296.91 440.87L296.91 438.77L296.87 432.05L296.91 432L296.91 398.49L296.37 398.49L295.95 398.72L295.73 398.49L284.3 398.54L274.51 389.53L282.38 373.94L336.82 373.94L346.56 382.9L341.67 392.37Z" id="b10U9ibMRL"></path><path d="M163.02 447.36C163.07 447.36 163.1 447.36 163.11 447.36C170.24 445.62 170.88 445.26 171.25 445.03C171.3 445 171.57 444.85 172.07 444.57L172.07 444.57C172.07 434.7 172.07 429.21 172.07 428.11C173.3 429.62 174.58 431.13 175.82 432.59C179.11 436.53 180.43 437.99 181.21 438.49C182.09 439.3 189.11 445.77 189.99 446.58C191.18 447.77 191.5 447.77 192 447.77C192.55 447.77 193.14 447.63 196.34 445.62C198.86 444.02 201.46 442.38 204.16 440.69C204.35 440.56 205.29 439.95 206.99 438.86C206.25 438.01 205.84 437.53 205.76 437.44C203.02 434.29 199.59 430.17 195.57 425.28C191.27 419.98 189.71 417.92 189.17 417.14C189.17 417.14 189.17 417.14 189.17 417.14C189.49 416.59 190.26 415.41 192.37 412.94C194.29 410.74 195.93 408.55 197.26 406.45C197.26 406.44 197.3 406.4 197.3 406.4C197.62 405.85 197.81 405.35 197.81 404.85C197.81 404.71 197.81 404.57 197.76 404.48C197.1 403.88 193.83 400.86 187.93 395.43C187.93 395.43 187.93 395.43 187.93 395.43C187.93 395.38 187.93 395.34 187.89 395.29C187.89 395.29 187.9 395.29 187.93 395.29C193.83 400.72 197.1 403.74 197.76 404.34C197.71 403.93 197.53 403.52 197.3 403.06C197.29 403.04 197.18 402.9 197.17 402.88C194.29 399.27 189.53 393.92 183.09 386.97C181.12 384.87 180.39 383.95 180.11 383.59C180.11 383.56 180.11 383.41 180.11 383.13C174.24 377.73 170.98 374.73 170.33 374.13C170.33 374.17 170.33 374.22 170.29 374.26C170.22 374.22 169.67 373.85 169.6 373.81C169.01 373.39 168.27 373.03 167.5 372.66C166.58 372.3 165.62 372.07 164.57 372.07C164.3 372.07 163.84 372.07 162.65 372.25C162.61 372.26 162.43 372.29 162.1 372.34C162.02 372.43 161.97 372.47 161.97 372.48C161.37 372.66 159.54 373.12 153.92 374.35C152.09 374.77 149.26 375.41 145.51 376.23C145.42 376.25 145 376.34 144.23 376.5L144.23 387.47L144.23 404.25L144.23 440L144.23 440L154.1 448.96L163.02 447.36Z" id="d19MxQhXIy"></path><path d="M339.34 499.75L350.95 495.13L356.53 486.86L364.07 489.92L367.68 491.38L372.34 493.26L382.08 502.26L359.95 534.81L359.95 561.23L342.95 565.44L333.17 556.43L333.17 526.13L310.08 493.9L326.72 486.86L336.5 495.86L339.34 499.75ZM343.59 505.55L344.09 505.37L346.15 502.31L342.54 504.14L343.59 505.55Z" id="a6zdBToWJZ"></path><path d="M446.31 491.25L446.31 491.25L439.04 491.25L439.04 491.25L398.13 491.25L392.37 508.89L392.37 508.89L392.37 508.89L392.37 508.89L392.37 508.89L402.19 517.9L410.88 517.9L388.94 555.98L388.94 555.98L388.94 555.98L388.94 555.98L388.94 555.98L398.72 564.94L447.22 564.94L447.36 564.94L453.35 547.57L443.52 538.61L443.52 538.61L435.38 538.61L456.14 500.25L446.31 491.25Z" id="e1L4VLUqnD"></path><path d="M391.09 381.21L389.49 382.4L390.08 382.95L390.08 412.25L395.34 409.69L395.34 377.51L413.17 373.99L422.9 382.99L422.9 447.22L405.71 450.42L405.07 450.56L405.07 449.92L401.23 446.63L396.43 450.06L377.55 442.42L377.44 442.37L377.33 442.33L377.22 442.28L377.11 442.23L377.01 442.18L376.9 442.13L376.8 442.09L376.7 442.04L376.6 441.99L376.5 441.94L376.4 441.89L376.31 441.84L376.21 441.79L376.12 441.74L376.03 441.7L375.94 441.65L375.85 441.6L375.76 441.55L375.68 441.5L375.59 441.45L375.51 441.4L375.43 441.34L375.35 441.29L375.27 441.24L375.2 441.19L375.12 441.14L375.05 441.08L374.98 441.03L374.9 440.98L374.84 440.93L374.77 440.87L374.7 440.82L374.63 440.76L374.57 440.71L374.51 440.65L374.45 440.59L374.39 440.54L374.33 440.48L374.27 440.42L374.22 440.37L365.85 432.59L365.44 432.18L365.39 432.14L365.33 432.1L365.3 432.08L365.28 432.06L365.25 432.04L365.22 432.02L365.19 432L365.17 431.98L365.14 431.96L365.11 431.94L365.09 431.92L365.06 431.89L365.03 431.87L365.01 431.85L364.98 431.83L364.95 431.81L364.93 431.79L364.9 431.77L364.88 431.75L364.85 431.73L364.83 431.71L364.8 431.69L364.78 431.67L364.75 431.65L364.73 431.63L364.7 431.61L364.68 431.59L364.66 431.57L364.63 431.55L364.61 431.52L364.59 431.5L364.56 431.48L364.54 431.46L364.52 431.44L364.5 431.42L364.48 431.4L364.46 431.38L364.43 431.36L364.28 431.2L364.12 431.04L363.97 430.88L363.82 430.72L363.68 430.55L363.54 430.37L363.4 430.2L363.27 430.02L363.14 429.83L363.02 429.65L362.9 429.46L362.79 429.27L362.67 429.07L362.57 428.87L362.46 428.67L362.36 428.46L362.27 428.25L362.18 428.04L362.09 427.82L362.01 427.61L361.93 427.38L361.85 427.16L361.78 426.93L361.71 426.7L361.65 426.46L361.59 426.23L361.53 425.99L361.48 425.74L361.44 425.5L361.39 425.25L361.35 424.99L361.32 424.74L361.29 424.48L361.26 424.22L361.24 423.95L361.22 423.68L361.21 423.41L361.2 423.14L361.19 422.86L361.19 422.58L361.19 378.15L380.25 373.9L389.21 382.13L391.09 381.21ZM390.13 424.37L395.38 426.42L395.38 421.81L394.24 422.45L395.38 421.53L395.38 419.2L390.13 422.49L390.13 424.37ZM390.13 417.14L395.38 413.76L395.38 412.11L390.13 414.08L390.13 417.14Z" id="c65FNEcjxQ"></path><path d="M45.94 15.97C44.34 17.57 36.32 25.58 21.89 40.01C21.87 40.04 21.85 40.05 21.85 40.06C20.02 42.02 19.06 44.35 19.06 46.91C19.06 49.61 20.02 51.94 21.89 53.82C22.2 54.13 23.76 55.68 26.56 58.48L43.15 50.02C41.94 48.82 41.27 48.15 41.14 48.01C40.77 47.65 40.64 47.28 40.64 46.73C40.64 46.23 40.82 45.77 41.18 45.31C42.2 44.31 50.32 36.26 51.33 35.26C51.79 34.89 52.25 34.71 52.66 34.71C53.16 34.71 53.57 34.85 53.94 35.21C54.04 35.32 54.56 35.83 55.49 36.77C54.7 30.92 54.26 27.68 54.17 27.03C54.12 27.03 50.69 21.5 46.81 15.23C46.49 15.46 46.21 15.69 45.94 15.97Z" id="a5d5CYiMOr"></path><path d="M59.7 16.01C57.82 14.14 55.49 13.18 52.8 13.18C50.6 13.18 48.59 13.86 46.81 15.23C50.69 21.5 54.12 27.03 54.12 27.03C54.21 27.68 54.65 30.92 55.45 36.77L61.71 43.03L76.06 37.27C81.93 42.59 85.19 45.55 85.85 46.14C85.85 43.49 84.89 41.15 82.97 39.28C78.31 34.63 62.03 18.34 59.7 16.01Z" id="e19lhfTDCq"></path><path d="M53.62 57.84C53.59 57.87 53.58 57.88 53.57 57.89C53.39 58.11 53.07 58.34 52.34 58.34C51.74 58.34 51.33 58.21 50.97 57.84C50.44 57.32 47.82 54.69 43.1 49.98L26.51 58.43C32.93 64.85 36.49 68.42 37.21 69.13C43.33 67.76 51.29 66.02 51.29 66.02C51.94 66.62 55.2 69.63 61.07 75.03L70.35 83.21L81.64 71.28L71.86 62.27L60.06 51.39L53.62 57.84Z" id="apn5gh0xQ"></path><path d="M85.89 46.18C85.24 45.59 81.98 42.64 76.11 37.31L61.76 43.07C62.99 44.31 63.68 44.99 63.81 45.13C64.18 45.5 64.32 45.91 64.32 46.5C64.32 47.23 64.09 47.51 63.86 47.74C63.61 47.99 62.36 49.24 60.11 51.49L71.95 62.32L81.73 71.33L73.05 63.19C79.03 57.24 82.35 53.93 83.01 53.27C84.89 51.26 85.89 48.93 85.89 46.27C85.89 46.23 85.89 46.2 85.89 46.18Z" id="b23hNXMOf"></path><path d="M51.29 35.26C50.27 36.26 42.15 44.31 41.14 45.31C40.77 45.77 40.59 46.23 40.59 46.73C40.59 47.28 40.73 47.65 41.09 48.01C41.23 48.15 41.9 48.82 43.1 50.02L46.67 48.19L43.1 50.02C47.82 54.74 50.44 57.36 50.97 57.89C51.33 58.25 51.74 58.39 52.34 58.39C53.07 58.39 53.34 58.16 53.57 57.93C53.58 57.93 53.59 57.91 53.62 57.89C59.73 51.77 63.13 48.37 63.81 47.69C64.04 47.51 64.27 47.19 64.27 46.46C64.27 45.86 64.13 45.45 63.77 45.09C63.63 44.95 62.94 44.26 61.71 43.03L56.18 45.22L61.71 43.03C57.02 38.34 54.41 35.73 53.89 35.21C53.53 34.85 53.16 34.71 52.61 34.71C52.2 34.71 51.74 34.89 51.29 35.26Z" id="e3pt22v5u3"></path><path d="M45.21 77.09C47.13 79.01 49.5 80.01 52.2 80.01C54.85 80.01 57.18 79.05 59.1 77.09C59.24 76.95 59.93 76.26 61.16 75.03C55.29 69.63 52.03 66.62 51.38 66.02C51.33 66.02 43.38 67.76 37.25 69.13C38.84 70.72 44.41 76.29 45.21 77.09Z" id="g5R6KNX8O"></path><path d="M43.29 4.18L43.43 4.19L43.57 4.2L43.71 4.22L43.86 4.24L44 4.26L44.15 4.28L44.3 4.31L44.46 4.35L44.61 4.39L44.77 4.43L44.93 4.47L45.09 4.52L45.25 4.57L45.41 4.62L45.58 4.68L45.75 4.75L45.92 4.81L46.09 4.88L46.26 4.95L46.44 5.03L46.61 5.11L46.79 5.19L46.97 5.28L47.16 5.37L47.34 5.46L47.53 5.56L47.72 5.66L47.91 5.77L48.1 5.87L48.29 5.99L48.49 6.1L48.69 6.22L48.89 6.34L49.09 6.47L49.29 6.6L49.5 6.73L49.71 6.87L49.92 7.01L73.18 30.32L73.33 30.46L73.47 30.61L73.61 30.76L73.74 30.91L73.87 31.06L74 31.21L74.12 31.37L74.24 31.53L74.36 31.68L74.47 31.84L74.58 32L74.68 32.17L74.78 32.33L74.88 32.5L74.97 32.67L75.06 32.83L75.15 33.01L75.23 33.18L75.31 33.35L75.38 33.53L75.46 33.7L75.52 33.88L75.59 34.06L75.65 34.24L75.7 34.42L75.76 34.61L75.8 34.79L75.85 34.98L75.89 35.16L75.93 35.35L75.96 35.54L75.99 35.74L76.02 35.93L76.04 36.12L76.06 36.32L76.08 36.51L76.09 36.71L76.1 36.91L76.11 37.11L76.11 37.31L76.11 37.51L76.1 37.71L76.09 37.91L76.08 38.1L76.06 38.29L76.04 38.49L76.02 38.68L75.99 38.87L75.96 39.05L75.92 39.24L75.88 39.43L75.84 39.61L75.79 39.79L75.74 39.98L75.69 40.16L75.63 40.34L75.57 40.51L75.51 40.69L75.44 40.87L75.37 41.04L75.29 41.21L75.21 41.38L75.13 41.55L75.04 41.72L74.95 41.89L74.86 42.05L74.76 42.22L74.66 42.38L74.56 42.54L74.45 42.7L74.34 42.86L74.23 43.02L74.11 43.17L73.99 43.33L73.86 43.48L73.73 43.63L73.6 43.78L73.47 43.93L73.33 44.07L73.18 44.22L63.22 54.14L71.9 62.27L60.61 74.21L51.33 66.02L49.28 68.08L49.13 68.23L48.98 68.37L48.84 68.51L48.69 68.64L48.54 68.77L48.38 68.9L48.23 69.02L48.07 69.14L47.92 69.25L47.76 69.37L47.6 69.47L47.44 69.58L47.28 69.68L47.11 69.78L46.95 69.87L46.78 69.96L46.61 70.04L46.44 70.13L46.27 70.21L46.1 70.28L45.92 70.35L45.75 70.42L45.57 70.48L45.39 70.54L45.22 70.6L45.04 70.65L44.85 70.7L44.67 70.75L44.49 70.79L44.3 70.83L44.11 70.86L43.92 70.89L43.73 70.92L43.54 70.94L43.35 70.96L43.16 70.98L42.96 70.99L42.77 71L42.57 71L42.37 71.01L42.17 71L41.97 71L41.77 70.99L41.57 70.98L41.38 70.96L41.18 70.94L40.99 70.91L40.79 70.89L40.6 70.85L40.41 70.82L40.22 70.78L40.04 70.74L39.85 70.69L39.66 70.64L39.48 70.59L39.3 70.53L39.12 70.47L38.94 70.4L38.76 70.33L38.58 70.26L38.41 70.19L38.24 70.11L38.06 70.03L37.89 69.94L37.72 69.85L37.56 69.76L37.39 69.66L37.23 69.56L37.06 69.45L36.9 69.35L36.74 69.24L36.58 69.12L36.43 69L36.27 68.88L36.12 68.76L35.97 68.63L35.82 68.5L35.67 68.36L35.52 68.22L35.38 68.08L12.11 44.81L11.97 44.67L11.84 44.53L11.7 44.38L11.57 44.24L11.45 44.09L11.33 43.94L11.21 43.79L11.1 43.63L10.98 43.48L10.88 43.32L10.77 43.16L10.67 43L10.57 42.84L10.48 42.68L10.39 42.51L10.3 42.35L10.22 42.18L10.14 42.01L10.06 41.84L9.99 41.67L9.92 41.49L9.85 41.32L9.79 41.14L9.73 40.96L9.68 40.78L9.63 40.6L9.58 40.42L9.53 40.23L9.49 40.05L9.45 39.86L9.42 39.67L9.39 39.48L9.36 39.29L9.34 39.1L9.32 38.9L9.3 38.71L9.29 38.51L9.28 38.31L9.28 38.11L9.28 37.91L9.28 37.72L9.28 37.53L9.29 37.34L9.3 37.15L9.32 36.96L9.34 36.77L9.36 36.59L9.39 36.4L9.42 36.22L9.45 36.03L9.49 35.85L9.53 35.67L9.58 35.49L9.62 35.31L9.68 35.13L9.73 34.96L9.79 34.78L9.85 34.6L9.92 34.43L9.98 34.26L10.06 34.09L10.13 33.91L10.21 33.75L10.29 33.58L10.38 33.41L10.47 33.24L10.56 33.08L10.66 32.92L10.75 32.75L10.86 32.59L10.96 32.43L11.07 32.27L11.18 32.12L11.3 31.96L11.42 31.81L11.54 31.65L11.67 31.5L11.8 31.35L11.93 31.2L12.06 31.05L36.16 6.96L36.3 6.82L36.45 6.69L36.6 6.55L36.76 6.43L36.91 6.3L37.06 6.18L37.22 6.06L37.38 5.95L37.54 5.84L37.7 5.73L37.86 5.63L38.02 5.53L38.18 5.44L38.35 5.34L38.51 5.25L38.68 5.17L38.85 5.09L39.02 5.01L39.19 4.93L39.36 4.86L39.53 4.8L39.71 4.73L39.88 4.67L40.06 4.61L40.24 4.56L40.41 4.51L40.59 4.46L40.77 4.42L40.96 4.38L41.14 4.34L41.32 4.31L41.51 4.28L41.69 4.26L41.88 4.23L42.06 4.21L42.25 4.2L42.44 4.19L42.63 4.18L42.82 4.17L43.01 4.17L43.15 4.17L43.29 4.18ZM42.59 25.72L42.49 25.73L42.39 25.75L42.29 25.78L42.19 25.82L42.09 25.86L41.98 25.91L41.88 25.97L41.77 26.03L41.67 26.1L41.56 26.17L41.46 26.25L31.31 36.31L31.23 36.41L31.15 36.52L31.09 36.63L31.02 36.73L30.97 36.84L30.92 36.95L30.88 37.05L30.84 37.16L30.81 37.27L30.79 37.38L30.77 37.5L30.76 37.61L30.76 37.73L30.76 37.85L30.77 37.97L30.78 38.08L30.8 38.19L30.83 38.29L30.86 38.39L30.89 38.48L30.94 38.57L30.99 38.66L31.05 38.75L31.11 38.84L31.18 38.92L31.26 39.01L41.14 48.88L41.22 48.96L41.31 49.03L41.4 49.1L41.49 49.16L41.59 49.21L41.69 49.25L41.79 49.29L41.9 49.32L42.01 49.34L42.13 49.36L42.25 49.37L42.38 49.38L42.51 49.38L42.62 49.38L42.73 49.37L42.84 49.36L42.94 49.34L43.04 49.32L43.14 49.29L43.23 49.25L43.32 49.21L43.41 49.16L43.5 49.11L43.58 49.06L43.67 48.99L43.74 48.93L53.98 38.69L54.04 38.63L54.09 38.58L54.14 38.52L54.19 38.45L54.23 38.38L54.28 38.3L54.32 38.21L54.35 38.12L54.38 38.01L54.41 37.89L54.43 37.76L54.44 37.61L54.44 37.45L54.44 37.32L54.43 37.19L54.42 37.07L54.4 36.95L54.38 36.84L54.34 36.73L54.31 36.63L54.26 36.53L54.21 36.43L54.16 36.34L54.09 36.25L54.02 36.17L53.94 36.08L44.06 26.21L43.98 26.13L43.89 26.05L43.8 25.99L43.71 25.93L43.62 25.88L43.52 25.84L43.43 25.8L43.33 25.77L43.22 25.74L43.12 25.73L43.01 25.71L42.9 25.71L42.78 25.7L42.69 25.71L42.59 25.72Z" id="a45GK1rHaj"></path><path d="M34.74 22.23L21.53 33.79L52.43 14.55L34.92 28.95L46.81 24.65C29.39 40.12 19.71 48.72 17.78 50.43C17.78 50.48 7.4 44.31 9.37 39.19C12.75 36.93 21.21 31.27 34.74 22.23Z" id="b5hukZtgvO"></path><path d="M43.42 54.23L61.12 40.61L34.14 66.02L35.42 67.39L61.16 46.5L40.64 65.61C61.92 48.19 73.74 38.52 76.11 36.58C76.06 36.63 79.68 33.29 69.94 27.03C66.4 30.66 57.56 39.72 43.42 54.23Z" id="faWwcBT0F"></path><path d="M241.23 474.15L243.43 487.09L236.62 490.56L246.54 505.87L246.86 507.89L259.38 507.38L261.53 499.34L251.06 483.15L241.23 474.15Z" id="cMJC8gxP5"></path><path d="M276.89 484.34L274.61 483.11L265.69 497.01L262.45 500.71L261.53 499.34L259.38 507.38L262.67 507.29L272.46 516.25L289.05 490.7L279.22 481.69L276.89 484.34Z" id="b4g02K94z"></path><path d="M249.87 514.88L253.3 516.25L250.01 511.18L249.87 514.88Z" id="a4jnbRyO5h"></path><path d="M249.87 514.88L249.6 522.01L253.3 516.25L249.87 514.88Z" id="cIPQfyTA"></path><path d="M265.97 538.19L267.43 544.14L277.26 553.14L292.3 547.02L282.47 538.06L265.97 538.19Z" id="bBzsY5j7v"></path><path d="M272.46 516.25L262.67 507.29L246.86 507.89L247.09 509.03L244.21 512.55L249.87 514.88L250.01 511.18L253.3 516.25L262.35 531.84L262.86 531.02L265.01 534.31L265.97 538.19L282.47 538.06L292.3 547.02L272.46 516.25Z" id="b9uUxyGdf"></path><path d="M223.59 538.06L233.37 547.06L248.41 553.14L238.63 544.14L223.82 537.78L223.59 538.06Z" id="cxWhovjZD"></path><path d="M249.87 514.88L244.21 512.55L223.82 537.78L238.63 544.14L248.41 553.14L262.35 531.84L253.3 516.25L249.6 522.01L249.87 514.88Z" id="f4uf8c7bc2"></path><path d="M264.82 474.15L253.07 492.43L241.23 474.15L226.83 481.6L243.47 507.29L223.59 538.06L238.63 544.14L253.07 522.06L267.43 544.14L282.47 538.06L262.67 507.29L279.22 481.69L264.82 474.15Z" id="a19GHrCCjc"></path><path d="M247.04 488.73L238.95 495.73L270.31 477.03L274.93 479.45L248.41 496.32L264.14 489.55L241.55 504.27L236.02 495.73L247.04 488.73Z" id="b1LfnEIYAw"></path><path d="M253.03 518.35L265.33 514.29L238.08 534.45L269.35 517.67L264.55 510.17L253.03 518.35Z" id="f4jzAxMbt1"></path><path d="M457.37 424.09L453.76 429.99L463.59 438.99L478.03 433.65L468.3 424.64L456.91 422.95L457.37 424.09Z" id="d6rttJgnq2"></path><path d="M491.57 368.09L489.14 372.07L485.49 370.51L477.62 390.95L468.89 405.26L454.13 371.2L444.34 362.19L448.69 372.3L436.89 374.72L456.91 422.95L468.3 424.64L478.03 433.65L478.13 433.6L501.39 377.1L491.57 368.09Z" id="dJu5SP7tD"></path><path d="M444.34 362.19L427.06 365.76L453.76 429.99L468.3 424.64L491.57 368.09L475.66 361.55L460.8 400.27L444.34 362.19Z" id="b8eVQjUrn"></path><path d="M452.48 404.34L475.52 402.15L448.69 410.06L475.84 406.31L479.54 397.35L452.48 404.34Z" id="bzX8qjGxK"></path><path d="M448.46 380.94L439.68 385.65L478.67 375.82L446.77 388.66L486.99 379.29L485.12 383.77L439.54 395.75L435.06 384.96L448.46 380.94Z" id="a5JMxhkf4v"></path><path d="M247.63 363.66L237.85 354.65L246.31 364.66L244.34 366.08L249.33 368.27L259.11 377.23L247.63 363.66Z" id="bb6u7r0fC"></path><path d="M240.87 391.91L239.86 390.95C239.84 390.92 239.82 390.91 239.82 390.9C239.82 390.9 239.82 390.9 239.82 390.9C240 390.77 240.23 390.63 240.55 390.45C241.79 389.56 247.97 385.16 259.11 377.23L249.33 368.23L244.34 366.08L223.73 381.35L230.03 381.94L234.51 391.59L240.87 391.91Z" id="a3e1B1c8op"></path><path d="M232.96 408.37C233.1 408.5 233.19 408.64 233.23 408.78C233.23 408.78 233.19 408.82 233.19 408.82C233.18 408.83 233.11 408.86 233.1 408.87C233.1 408.87 233.01 408.96 232.78 409.1C231.4 410.09 224.51 415.08 212.11 424.05L215.91 428.02L215.22 428.53L225.01 437.53L254.22 415.22C254.27 415.2 254.3 415.18 254.31 415.18C255.31 414.31 256 413.49 256.5 412.62C256.87 411.98 257.1 411.34 257.23 410.7C256.59 410.08 253.34 406.97 247.5 401.37L228.16 403.89C231.04 406.57 232.64 408.07 232.96 408.37Z" id="aJTBqowMd"></path><path d="M256.41 406.86C256.23 406.58 256 406.26 255.68 405.9C255.68 405.89 255.66 405.86 255.63 405.81L240.91 391.91L234.56 391.59L230.08 381.94L223.77 381.35C221.19 383.24 219.76 384.29 219.47 384.5C218.79 384.96 218.29 385.37 217.92 385.74C217.92 385.74 217.88 385.78 217.87 385.78C216.69 387.06 216.09 388.43 216.09 389.94C216.09 391.36 216.69 392.78 217.83 394.15C217.83 394.15 217.85 394.19 217.87 394.24L228.11 403.84L247.41 401.33C253.25 406.92 256.49 410.03 257.14 410.65C257.19 410.33 257.23 410.06 257.23 409.74C257.28 408.78 257.01 407.77 256.41 406.86C256.41 406.86 256.41 406.86 256.41 406.86Z" id="byDcAYZ4R"></path><path d="M222.99 400.14C221.62 401.13 214.73 406.12 202.33 415.09L215.22 428.57L244.43 406.26C244.49 406.24 244.52 406.22 244.53 406.22C245.53 405.35 246.22 404.53 246.72 403.66C247.27 402.74 247.5 401.78 247.5 400.82C247.5 399.82 247.18 398.81 246.63 397.9C246.62 397.89 246.59 397.86 246.58 397.85C246.45 397.62 246.17 397.3 245.85 396.89C245.85 396.89 245.83 396.85 245.81 396.8L230.08 381.99C230.05 381.96 230.04 381.95 230.03 381.94C230.03 381.94 230.03 381.94 230.03 381.94C230.22 381.81 230.45 381.67 230.77 381.49C232 380.6 238.19 376.2 249.33 368.27L237.85 354.7C220.96 367.23 211.57 374.2 209.69 375.59C209.01 376.05 208.5 376.46 208.14 376.82C208.13 376.83 208.1 376.86 208.09 376.87C206.9 378.15 206.31 379.52 206.31 381.03C206.31 382.45 206.9 383.86 208.05 385.23C208.05 385.24 208.06 385.27 208.09 385.33C217.12 393.77 222.13 398.47 223.13 399.41C223.27 399.54 223.36 399.68 223.41 399.82C223.41 399.82 223.36 399.86 223.36 399.86C223.36 399.87 223.34 399.88 223.31 399.91C223.25 399.97 223.15 400.05 222.99 400.14Z" id="aaHo3PxJ"></path><path d="M225.78 371.79L216.09 384.46L244.11 364.85C227.3 381.11 217.96 390.15 216.09 391.95C216.09 391.91 208.41 387.7 206.95 383.59C209.46 382.02 215.74 378.08 225.78 371.79Z" id="bisQ7WNlq"></path><path d="M216.09 419.43C225.09 417.62 230.09 416.61 231.09 416.41C231.09 416.41 244.94 409.6 246.08 404.43C242.08 406.43 232.09 411.43 216.09 419.43Z" id="b9wQFGmKE"></path><path d="M558.95 419.7L560.41 416.73L558.95 414.03L557.44 417.01L558.95 419.7Z" id="b64QsYsGTt"></path><path d="M536.59 423.36L532.02 427.7C537.89 433.11 541.15 436.11 541.81 436.71C542.81 437.85 543.86 438.08 544.55 438.08C545.28 438.08 545.97 437.9 546.56 437.49C546.88 437.3 547.15 437.03 547.47 436.62C547.48 436.61 547.51 436.58 547.57 436.53L557.39 417.05L549.85 403.38L531.47 410.06L536.59 423.36Z" id="g2n1VOxzGK"></path><path d="M548.25 364.85L554.42 382.99L547.66 400.09L536 371.52L526.17 362.51L530.38 372.75L518.13 375.45L531.47 410.06L549.9 403.34L557.44 417.01L558.95 414.03L560.41 416.73L570.19 396.8L558.03 373.81L548.25 364.85Z" id="a5fzpgBA"></path><path d="M588.75 373.58L584.14 371.06L572.98 402.19L570.15 396.85L560.41 416.73L565.53 426.1L561.46 427.66C567.41 433.14 570.72 436.19 571.38 436.8C572.3 437.85 573.35 438.08 574.03 438.08C574.63 438.08 575.27 437.9 575.86 437.49C576.09 437.35 576.37 437.17 576.64 436.89C576.66 436.88 576.73 436.8 576.87 436.66L599.73 379.66L589.94 370.61L588.75 373.58Z" id="jhRyGm8zI"></path><path d="" id="bOdzLEhEQ"></path><path d="M548.25 364.85L537.83 391.13L526.17 362.51L508.34 366.45L531.84 427.47C531.95 427.61 532.01 427.69 532.02 427.7C533.03 428.85 534.08 429.07 534.77 429.07C535.5 429.07 536.18 428.89 536.78 428.48C537.1 428.3 537.37 428.02 537.69 427.61C537.7 427.61 537.73 427.57 537.78 427.52L549.12 405.07L561.46 427.66C561.55 427.74 561.59 427.79 561.6 427.79C562.51 428.85 563.57 429.07 564.25 429.07C564.85 429.07 565.49 428.89 566.08 428.48C566.31 428.34 566.58 428.16 566.86 427.89C566.87 427.87 566.95 427.79 567.09 427.66L589.94 370.65L574.31 362.1L563.2 393.19L548.25 364.85Z" id="aInAWiS5"></path><path d="M530.47 383.18L521.05 390.95L558.95 379.29L525.67 395.02L539.66 393.83L521.14 399.68L517.3 389.76L530.47 383.18Z" id="c2MLonZ2Bg"></path><path d="M576.82 403.34L541.81 417.01L564.43 404.39L527.73 416.82C526.79 414.38 526.28 413.03 526.17 412.75C526.17 412.75 575.45 395.38 574.63 395.02C573.81 394.65 555.02 395.79 555.02 395.79C556.83 395.39 565.92 393.38 582.26 389.76L576.82 403.34Z" id="h4JATdwCuw"></path><path d="M295.77 421.71L303.54 423.59L313.33 432.78L313.33 386.06L303.54 377.05L295.77 385.97L295.77 421.71Z" id="b2b9bP3y5e"></path><path d="M295.77 425.87L285.99 428.25L295.77 437.21L313.33 433.05L313.33 432.78L303.54 423.59L295.77 421.71L295.77 425.87Z" id="ajggJrhEV"></path><path d="M325.9 361.28L321.23 370.29C316.35 370.29 313.64 370.29 313.1 370.29C315.29 373.53 317.71 377.05 317.71 377.05C318.37 377.64 321.66 380.6 327.59 385.92L330.79 379.75L335.68 370.29L325.9 361.28Z" id="aNp1YNnf7"></path><path d="M281.23 370.29L277.94 376.82L263.59 376.87L273.37 385.87L295.77 385.78L295.77 385.97L303.54 377.05L313.33 386.06L327.5 386.06L327.54 385.92C321.65 380.6 318.37 377.64 317.71 377.05C317.71 377.05 315.29 373.53 313.1 370.29C308.85 370.29 298.23 370.29 281.23 370.29Z" id="eGmkNUgwG"></path><path d="M303.54 377.05L317.71 377.05L325.9 361.33L271.45 361.33L263.59 376.91L285.99 376.82L285.99 428.25L303.54 424.05L303.54 377.05Z" id="g26NLneGjl"></path><path d="M292.57 404.94L303.54 398.4L303.54 393.55L292.57 404.94Z" id="a36vnzFatn"></path><path d="M300.57 409.37L292.57 417.19L303.54 410.7L303.54 415.45L285.99 426.15L285.94 419.43L300.57 409.37Z" id="b1e8B9RjyM"></path><path d="M295.77 367.86L287.13 374.63L317.81 361.46L320.55 361.33L289.1 379.02L308.34 373.62L285.03 386.06L274.79 376.55L295.77 367.86Z" id="a4JV4gk4D"></path><path d="M186.33 390.17C183.45 386.56 178.7 381.21 172.25 374.26C170.29 372.16 169.55 371.25 169.28 370.88C169.28 370.85 169.28 370.7 169.28 370.42C163.41 365.02 160.15 362.02 159.5 361.42C159.04 362.7 160.96 365.53 163.15 368.23C162.83 368.23 162.38 368.32 161.65 368.41C161.61 368.42 161.43 368.45 161.1 368.5C161.01 368.59 160.97 368.63 160.96 368.64C160.59 368.73 159.77 368.96 157.94 369.37C158.38 371.18 161.85 385.66 162.29 387.47C162.74 387.84 163.15 388.16 163.52 388.43C163.98 388.8 164.39 389.12 164.75 389.44C165.58 388.98 169.73 386.7 177.19 382.58C183.09 388.01 186.36 391.03 187.02 391.63C186.88 391.18 186.7 390.77 186.47 390.35C186.44 390.32 186.35 390.19 186.33 390.17Z" id="hos7XOphQ"></path><path d="M144.41 372.43C144.33 372.45 143.9 372.54 143.13 372.71L143.13 393.97L161.14 393.05C161.14 389.24 161.14 387.12 161.14 386.7C161.55 386.97 161.87 387.25 162.19 387.52C161.76 385.71 158.29 371.23 157.85 369.42C156.71 369.65 155.06 370.06 152.82 370.56C150.99 370.97 148.16 371.61 144.41 372.43Z" id="clx2jwZE"></path><path d="M184.69 412.62C180.39 407.31 178.83 405.26 178.29 404.48C178.29 404.48 178.29 404.48 178.29 404.48C177.63 403.88 174.37 400.86 168.5 395.43C167.24 394.74 166.54 394.36 166.4 394.29C165.81 394.88 164.94 395.57 163.75 396.48C162.65 397.3 161.83 397.9 161.14 398.35C161.14 398.01 161.14 396.27 161.14 393.14L143.13 394.06L143.13 421.03L151.31 422.86L161.1 431.82C161.1 420.27 161.1 413.85 161.1 412.57C162.01 413.62 163.38 415.22 165.35 417.6C166.58 419.11 167.86 420.66 169.14 422.22C170.28 421.88 175.98 420.17 186.24 417.1L196.02 426.1L194.88 424.78C190.77 419.93 187.37 415.88 184.69 412.62Z" id="a5yC0rbUtb"></path><path d="M164.66 389.53C164.57 389.58 164.1 389.84 163.25 390.31C164.1 389.84 164.57 389.58 164.66 389.53C164.3 389.21 163.89 388.89 163.43 388.53C162.83 388.07 162.1 387.52 161.14 386.79C161.14 387.95 161.14 397.2 161.14 398.35C161.83 397.9 162.65 397.26 163.75 396.48C164.94 395.57 165.76 394.88 166.4 394.29C166.19 394.17 165.14 393.61 163.25 392.59C165.14 393.61 166.19 394.17 166.4 394.29C167.36 393.37 167.68 392.87 167.82 392.59C167.59 392.23 166.86 391.36 164.66 389.53Z" id="j1BwNbTYGd"></path><path d="M167.82 392.64C167.68 392.87 167.36 393.42 166.4 394.33C166.54 394.41 167.24 394.79 168.5 395.47C174.4 400.85 177.68 403.84 178.33 404.43C178.65 403.89 179.43 402.7 181.53 400.23C183.45 398.03 185.1 395.84 186.42 393.74C186.43 393.73 186.46 393.7 186.47 393.69C186.79 393.14 186.97 392.64 186.97 392.14C186.97 392 186.97 391.86 186.93 391.77C186.27 391.17 182.99 388.15 177.1 382.72L164.66 389.58C166.61 391.38 167.66 392.4 167.82 392.64Z" id="a2qeXfgPh"></path><path d="M143.18 425.23L133.39 427.29L143.18 436.3L152.09 434.7C152.15 434.7 152.18 434.7 152.18 434.7C159.31 432.96 159.95 432.59 160.32 432.37C160.37 432.34 160.65 432.18 161.14 431.91L161.14 431.91L151.36 422.95L143.18 421.07L143.18 425.23Z" id="d4PHqJu18j"></path><path d="M169.23 422.31C170.01 423.27 170.83 424.23 171.66 425.19C171.57 425.23 171.13 425.43 170.33 425.78C175.6 430.64 178.52 433.33 179.11 433.87C180.3 435.06 180.62 435.06 181.12 435.06C181.67 435.06 182.26 434.93 185.46 432.91C187.98 431.31 190.58 429.67 193.28 427.98C193.47 427.86 194.41 427.25 196.11 426.15L186.33 417.19C176.07 420.26 170.37 421.97 169.23 422.31Z" id="a7VrlgFbFR"></path><path d="M153.85 359.32L153.93 359.32L154 359.32L154.08 359.32L154.16 359.33L154.24 359.33L154.31 359.34L154.39 359.35L154.46 359.36L154.54 359.36L154.61 359.37L154.69 359.38L154.76 359.39L154.84 359.41L154.91 359.42L154.99 359.43L155.06 359.44L155.13 359.46L155.21 359.47L155.28 359.49L155.35 359.51L155.42 359.52L155.5 359.54L155.57 359.56L155.64 359.58L155.71 359.6L155.78 359.62L155.85 359.64L155.92 359.66L155.99 359.68L156.06 359.71L156.13 359.73L156.2 359.75L156.27 359.78L156.34 359.8L156.41 359.83L156.48 359.85L156.55 359.88L156.62 359.91L156.68 359.94L156.73 359.96L156.79 359.99L156.85 360.02L156.91 360.05L156.96 360.07L157.02 360.1L157.08 360.13L157.13 360.16L157.19 360.18L157.25 360.21L157.3 360.24L157.36 360.27L157.41 360.29L157.47 360.32L157.52 360.35L157.58 360.38L157.63 360.41L157.68 360.43L157.74 360.46L157.79 360.49L157.84 360.52L157.89 360.55L157.95 360.58L158 360.61L158.05 360.63L158.1 360.66L158.15 360.69L158.2 360.72L158.25 360.75L158.3 360.78L158.35 360.81L158.4 360.84L158.44 360.87L158.49 360.9L158.54 360.93L158.58 360.96L158.63 360.99L158.68 361.02L158.72 361.05L159.45 361.55L159.45 362.01L159.47 362.04L159.5 362.07L159.52 362.1L159.55 362.14L159.58 362.18L159.61 362.22L159.64 362.26L159.68 362.3L159.71 362.35L159.76 362.4L159.8 362.45L159.84 362.51L159.89 362.56L159.94 362.62L159.99 362.69L160.05 362.75L160.11 362.82L160.17 362.9L160.24 362.97L160.3 363.05L160.37 363.13L160.45 363.22L160.53 363.31L160.61 363.4L160.69 363.5L160.78 363.6L160.87 363.7L160.97 363.81L161.07 363.92L161.17 364.03L161.27 364.15L161.39 364.27L161.5 364.4L161.62 364.53L161.74 364.66L161.87 364.8L162 364.94L162.14 365.09L162.28 365.24L162.42 365.39L162.9 365.91L163.38 366.42L163.84 366.93L164.31 367.43L164.76 367.92L165.21 368.41L165.65 368.89L166.09 369.37L166.51 369.84L166.94 370.3L167.35 370.76L167.76 371.21L168.17 371.66L168.56 372.1L168.95 372.53L169.33 372.96L169.71 373.38L170.08 373.79L170.44 374.2L170.8 374.6L171.15 375L171.49 375.38L171.83 375.77L172.16 376.14L172.48 376.51L172.8 376.88L173.11 377.24L173.41 377.59L173.71 377.93L173.99 378.27L174.28 378.6L174.55 378.93L174.82 379.25L175.08 379.56L175.34 379.87L175.58 380.17L175.82 380.46L176.06 380.75L176.28 381.03L176.5 381.3L176.64 381.49L176.66 381.53L176.69 381.57L176.71 381.61L176.73 381.65L176.75 381.69L176.77 381.73L176.8 381.77L176.82 381.81L176.83 381.86L176.85 381.9L176.87 381.94L176.89 381.98L176.91 382.02L176.92 382.06L176.94 382.1L176.96 382.14L176.97 382.19L176.98 382.23L177 382.27L177.01 382.31L177.02 382.35L177.04 382.39L177.05 382.43L177.06 382.47L177.07 382.51L177.08 382.56L177.09 382.6L177.09 382.64L177.1 382.68L177.11 382.72L177.12 382.76L177.12 382.8L177.13 382.84L177.13 382.88L177.13 382.93L177.14 382.97L177.14 383.01L177.14 383.05L177.14 383.09L177.14 383.13L177.14 383.17L177.14 383.21L177.14 383.24L177.14 383.28L177.13 383.32L177.13 383.36L177.13 383.4L177.12 383.43L177.12 383.47L177.11 383.51L177.1 383.55L177.09 383.59L177.09 383.62L177.08 383.66L177.07 383.7L177.06 383.74L177.05 383.78L177.04 383.81L177.02 383.85L177.01 383.89L177 383.93L176.98 383.97L176.97 384.01L176.96 384.05L176.94 384.09L176.92 384.12L176.91 384.16L176.89 384.2L176.87 384.24L176.85 384.28L176.83 384.32L176.82 384.36L176.8 384.4L176.77 384.44L176.75 384.48L176.73 384.52L176.71 384.56L176.69 384.6L176.66 384.64L176.64 384.69L176.59 384.73L176.49 384.89L176.39 385.05L176.29 385.21L176.19 385.36L176.08 385.52L175.98 385.68L175.87 385.84L175.76 386L175.65 386.16L175.54 386.32L175.43 386.49L175.32 386.65L175.2 386.81L175.09 386.97L174.97 387.13L174.85 387.29L174.73 387.46L174.61 387.62L174.49 387.78L174.37 387.94L174.25 388.11L174.12 388.27L174 388.43L173.87 388.6L173.74 388.76L173.62 388.92L173.49 389.09L173.36 389.25L173.22 389.41L173.09 389.58L172.96 389.74L172.82 389.91L172.69 390.07L172.55 390.24L172.41 390.4L172.27 390.56L172.13 390.73L171.99 390.89L171.85 391.06L171.7 391.22L171.54 391.41L171.39 391.59L171.24 391.77L171.1 391.94L170.96 392.1L170.82 392.27L170.69 392.42L170.57 392.58L170.45 392.73L170.33 392.87L170.21 393.01L170.11 393.15L170 393.28L169.9 393.41L169.8 393.53L169.71 393.65L169.62 393.76L169.54 393.87L169.46 393.98L169.38 394.09L169.3 394.19L169.23 394.28L169.16 394.38L169.1 394.46L169.04 394.55L168.98 394.63L168.93 394.71L168.87 394.79L168.82 394.86L168.78 394.93L168.73 395L168.69 395.06L168.66 395.12L168.62 395.18L168.59 395.24L168.56 395.29L168.53 395.34L168.5 395.39L168.48 395.43L168.46 395.47L168.5 395.54L168.55 395.6L168.6 395.67L168.65 395.75L168.71 395.83L168.78 395.92L168.85 396.01L168.92 396.11L169 396.22L169.08 396.33L169.17 396.45L169.27 396.57L169.37 396.71L169.48 396.84L169.59 396.99L169.71 397.15L169.83 397.31L169.97 397.48L170.11 397.66L170.25 397.85L170.4 398.04L170.56 398.25L170.73 398.46L170.91 398.68L171.09 398.91L171.28 399.15L171.48 399.4L171.68 399.66L171.9 399.93L172.12 400.21L172.35 400.5L172.59 400.8L172.84 401.12L173.1 401.44L173.37 401.77L173.65 402.12L173.94 402.47L174.23 402.84L174.54 403.22L174.86 403.61L175.16 403.98L175.46 404.34L175.75 404.7L176.05 405.06L176.34 405.41L176.63 405.76L176.91 406.11L177.2 406.45L177.48 406.79L177.76 407.13L178.04 407.47L178.31 407.8L178.59 408.13L178.86 408.45L179.13 408.78L179.39 409.1L179.66 409.41L179.92 409.73L180.18 410.04L180.43 410.34L180.69 410.65L180.94 410.95L181.19 411.24L181.44 411.54L181.68 411.83L181.92 412.11L182.16 412.4L182.4 412.68L182.63 412.96L182.87 413.23L183.1 413.5L183.32 413.77L183.55 414.03L183.77 414.29L183.99 414.54L184.21 414.8L184.42 415.05L184.63 415.29L184.84 415.53L185.05 415.77L186.29 417.19L183.45 419.02L183.25 419.14L183.05 419.27L182.85 419.4L182.65 419.52L182.44 419.65L182.24 419.78L182.04 419.9L181.84 420.03L181.64 420.15L181.45 420.28L181.25 420.4L181.05 420.53L180.85 420.65L180.65 420.78L180.46 420.9L180.26 421.02L180.06 421.15L179.87 421.27L179.67 421.4L179.47 421.52L179.28 421.64L179.08 421.77L178.89 421.89L178.7 422.01L178.5 422.13L178.31 422.26L178.11 422.38L177.92 422.5L177.73 422.62L177.54 422.75L177.35 422.87L177.15 422.99L176.96 423.11L176.77 423.23L176.58 423.35L176.39 423.47L176.2 423.59L176.01 423.71L175.82 423.83L175.63 423.95L175.4 424.1L175.17 424.24L174.96 424.38L174.75 424.5L174.55 424.62L174.36 424.74L174.18 424.85L174.01 424.95L173.84 425.05L173.68 425.14L173.53 425.22L173.39 425.31L173.25 425.38L173.12 425.45L173 425.52L172.88 425.58L172.77 425.64L172.66 425.69L172.56 425.74L172.47 425.78L172.38 425.82L172.29 425.86L172.21 425.9L172.14 425.93L172.06 425.95L171.99 425.98L171.93 426L171.87 426.02L171.81 426.04L171.75 426.05L171.7 426.06L171.65 426.07L171.6 426.08L171.55 426.09L171.5 426.09L171.46 426.1L171.42 426.1L171.37 426.1L171.33 426.1L171.29 426.1L171.23 426.1L171.16 426.1L171.1 426.1L171.04 426.1L170.98 426.09L170.92 426.08L170.86 426.07L170.79 426.05L170.73 426.03L170.66 426.01L170.59 425.97L170.51 425.93L170.43 425.89L170.35 425.84L170.26 425.78L170.16 425.7L170.06 425.63L169.96 425.54L169.84 425.44L169.72 425.33L169.59 425.2L169.45 425.07L169.3 424.92L169.15 424.76L168.98 424.59L168.8 424.4L168.61 424.19L168.41 423.97L168.19 423.73L167.97 423.48L167.73 423.21L167.47 422.92L167.21 422.61L166.92 422.28L166.63 421.94L166.31 421.57L165.98 421.18L165.64 420.77L165.27 420.34L164.89 419.89L164.65 419.6L164.42 419.32L164.18 419.04L163.95 418.76L163.71 418.48L163.48 418.2L163.24 417.92L163 417.64L162.77 417.36L162.54 417.08L162.3 416.79L162.07 416.51L161.83 416.23L161.6 415.95L161.36 415.67L161.13 415.39L160.9 415.11L160.67 414.83L160.43 414.55L160.2 414.27L159.97 413.99L159.74 413.71L159.5 413.43L159.27 413.15L159.04 412.87L158.81 412.59L158.58 412.31L158.35 412.03L158.12 411.75L157.89 411.47L157.66 411.19L157.43 410.91L157.2 410.63L156.98 410.35L156.75 410.08L156.52 409.8L156.29 409.52L156.06 409.24L155.84 408.96L155.61 408.69L155.47 408.51L155.32 408.33L155.18 408.16L155.04 408L154.9 407.83L154.77 407.67L154.63 407.51L154.5 407.35L154.37 407.2L154.25 407.04L154.12 406.9L154 406.75L153.88 406.61L153.76 406.47L153.64 406.33L153.53 406.19L153.42 406.06L153.31 405.93L153.2 405.8L153.09 405.67L152.99 405.55L152.88 405.43L152.78 405.31L152.69 405.2L152.59 405.08L152.49 404.97L152.4 404.86L152.31 404.76L152.22 404.65L152.13 404.55L152.05 404.45L151.96 404.36L151.88 404.26L151.8 404.17L151.72 404.08L151.65 403.99L151.57 403.9L151.5 403.82L151.43 403.74L151.36 403.66L151.36 422.9L150.54 423.36L150.51 423.37L150.48 423.39L150.44 423.4L150.39 423.42L150.33 423.45L150.26 423.47L150.18 423.5L150.09 423.53L150 423.56L149.89 423.59L149.78 423.63L149.65 423.67L149.52 423.71L149.37 423.75L149.22 423.8L149.06 423.84L148.89 423.89L148.71 423.95L148.52 424L148.32 424.06L148.11 424.12L147.89 424.18L147.67 424.24L147.43 424.31L147.19 424.38L146.93 424.45L146.67 424.52L146.4 424.6L146.11 424.68L145.82 424.76L145.52 424.84L145.21 424.93L144.89 425.01L144.56 425.1L144.23 425.2L143.88 425.29L143.52 425.39L143.16 425.49L142.78 425.59L142.4 425.69L142.26 425.65L133.35 427.25L133.35 363.75L134.63 363.47L134.91 363.41L135.18 363.35L135.46 363.29L135.73 363.23L135.99 363.17L136.25 363.12L136.51 363.06L136.77 363L137.02 362.95L137.27 362.89L137.51 362.84L137.75 362.78L137.99 362.73L138.22 362.68L138.46 362.63L138.68 362.58L138.91 362.53L139.13 362.48L139.34 362.43L139.55 362.38L139.76 362.34L139.97 362.29L140.17 362.24L140.37 362.2L140.56 362.16L140.75 362.11L140.94 362.07L141.13 362.03L141.31 361.99L141.48 361.95L141.65 361.91L141.82 361.87L141.99 361.84L142.15 361.8L142.31 361.76L142.76 361.66L142.9 361.63L143.04 361.6L143.45 361.51L143.86 361.42L144.24 361.34L144.62 361.25L144.98 361.17L145.32 361.1L145.66 361.02L145.98 360.95L146.29 360.88L146.59 360.81L146.87 360.75L147.15 360.69L147.41 360.63L147.66 360.57L147.9 360.51L148.13 360.46L148.35 360.41L148.56 360.36L148.76 360.31L148.95 360.27L149.13 360.23L149.3 360.19L149.46 360.15L149.62 360.11L149.76 360.07L149.9 360.04L150.03 360.01L150.15 359.98L150.26 359.95L150.37 359.92L150.47 359.9L150.56 359.87L150.65 359.85L150.73 359.83L150.8 359.81L150.87 359.79L150.93 359.77L150.99 359.76L151.04 359.74L151.09 359.73L151.22 359.59L151.77 359.5L151.86 359.48L151.94 359.47L152.03 359.46L152.11 359.45L152.18 359.44L152.26 359.43L152.33 359.42L152.4 359.41L152.47 359.4L152.53 359.39L152.6 359.38L152.66 359.38L152.72 359.37L152.77 359.36L152.83 359.36L152.88 359.35L152.93 359.35L152.98 359.34L153.03 359.34L153.07 359.34L153.12 359.33L153.16 359.33L153.2 359.33L153.24 359.33L153.28 359.32L153.31 359.32L153.35 359.32L153.38 359.32L153.41 359.32L153.44 359.32L153.47 359.32L153.5 359.32L153.53 359.32L153.55 359.31L153.58 359.31L153.6 359.31L153.63 359.31L153.65 359.31L153.69 359.31L153.77 359.31L153.85 359.32ZM151.79 389.1L152.25 388.76L152.76 388.38L153.32 387.97L153.92 387.52L155.52 386.26L156.64 385.26L157.37 384.51L157.79 383.97L157.99 383.63L157.73 383.29L157.25 382.75L156.46 381.97L155.28 380.91L153.65 379.57L153.27 379.3L152.86 378.99L152.41 378.64L151.91 378.25L151.36 377.83L151.36 389.39L151.79 389.1Z" id="f7uM8GP0xm"></path><path d="M150.99 367.86L137.01 376.55L156.43 369.37L137.01 381.35L166.95 370.29L170.51 374.26L133.35 391.59L133.35 374.81L150.99 367.86Z" id="b1G0REA1MK"></path><path d="M143.18 406.58L164.48 399.22L156.85 405.94L172.66 400.82L168.5 395.43L143.18 406.58Z" id="gbK0MHG6p"></path><path d="M361.42 480.64L358.72 484.57L355.43 483.25L341.07 504.5L340.98 504.37L339.57 513.51L349.07 522.19L371.2 489.65L361.42 480.64Z" id="guwNksFJ5"></path><path d="M315.84 474.24L323.15 484.3L308.98 490.29C319.68 505.23 325.62 513.54 326.81 515.2C332.66 514.33 339.25 513.23 339.25 513.23C339.27 513.25 339.37 513.34 339.57 513.51L340.98 504.37L325.62 483.25L315.84 474.24Z" id="c1rnbTMQbc"></path><path d="M332.02 541.39L322.24 543.82L332.02 552.82L349.07 548.57L349.07 548.48L339.25 539.61L332.02 540.71L332.02 541.39Z" id="g1S0UVUUxl"></path><path d="M339.25 513.23C339.25 513.23 332.62 514.33 326.81 515.2C327.16 515.69 328.91 518.13 332.07 522.51L332.07 540.71L339.29 539.57L349.07 548.48L349.07 522.19L349.07 522.19C343.18 516.82 339.9 513.83 339.25 513.23Z" id="de93qoq3K"></path><path d="M315.79 474.29L299.15 481.33L322.24 513.51L322.24 543.82L339.25 539.61L339.25 513.23L361.42 480.64L345.6 474.29L331.29 495.54L315.79 474.29Z" id="bSKmWL0DZ"></path><path d="M329.55 522.19L338.56 520.27L322.24 532.85L322.24 535.95L339.57 524.75L339.25 516.25L329.55 522.19Z" id="d5mvlEHwC"></path><path d="M334.72 506.1L347.06 501.71L350.03 497.37L334.72 506.1Z" id="a16DH7GlbS"></path><path d="M321.78 486.58L314.15 492.85L353.14 477.3L356.75 478.77L316.89 498.97L345.1 488.14L316.16 505.1L308.02 493.67L321.78 486.58Z" id="c1l1tsUSzQ"></path><path d="M435.38 478.63L414.95 505.23L399.77 531.57L423.36 528L445.21 487.59L435.38 478.63Z" id="a1Q17eOSCC"></path><path d="M423.36 528L399.77 531.57L397.26 535.95L426.65 543.36L436.3 552.32L436.43 552.32L442.42 534.95L432.59 525.94L422.77 529.1L423.36 528Z" id="b1MUgtLOwG"></path><path d="M396.34 537.51L378.01 543.36L387.79 552.32L436.3 552.32L426.65 543.36L397.26 535.95L396.34 537.51Z" id="e2D7YjF0al"></path><path d="M396.98 487.59L395.7 491.61L381.44 496.27L391.27 505.23L414.95 505.23L435.38 478.63L407.91 487.59L396.98 487.59Z" id="cCLWUtQjX"></path><path d="M381.44 496.27L405.12 496.27L378.01 543.36L426.65 543.36L432.59 525.94L409.78 525.94L435.38 478.63L387.2 478.63L381.44 496.27Z" id="a3POuye9LU"></path><path d="M406.67 486.45L396.34 492.62L428.11 478.63L435.38 478.63L405.21 493.94L426.51 485.49L402.88 500.16L405.12 496.27L381.44 496.27L406.67 486.45Z" id="a1SoeYfMaX"></path><path d="M402.24 516.25L418.97 509.03L422.49 503.36L402.24 516.25Z" id="blfTdw4y0"></path><path d="M412.34 527.13L396.43 539.15L419.84 526.08L425.69 526.08L397.26 543.36L378.01 543.36L412.34 527.13Z" id="a6F0CMqAG"></path><path d="M394.24 421.17L387.75 417.51L387.02 420.02L394.24 422.81L394.24 421.17Z" id="b29nu5vAhh"></path><path d="M379.61 416.96C379.62 416.97 379.69 417.04 379.7 417.05C379.7 417.05 379.89 417.19 380.53 417.51C380.61 417.54 381.02 417.69 381.76 417.97L383.31 415.22L379.2 415.22L379.2 415.59L379.15 415.77C379.12 416.29 379.28 416.69 379.61 416.96Z" id="a3YMpyVah"></path><path d="M387.75 417.51L383.68 415.22L383.27 415.22L381.76 417.97L387.02 420.02L387.75 417.51Z" id="bcq99n7Zq"></path><path d="M369.37 361.33L369.37 372.48L360.09 374.54L360.09 415.22L379.2 415.22L379.2 370.33L369.37 361.33Z" id="bLr9x3YGi"></path><path d="M394.24 422.81L387.02 420.02L384.46 428.98L390.4 434.01L394.24 437.3L394.24 437.94L394.88 437.85L412.07 434.65L402.29 425.65L394.24 421.17L394.24 422.81Z" id="dlJMpYSI9"></path><path d="M381.71 417.97L375.77 428.48L385.92 437.21L375.77 428.48L381.71 417.97C380.97 417.69 380.56 417.54 380.48 417.51C379.84 417.23 379.66 417.05 379.66 417.05C379.65 417.04 379.57 416.97 379.57 416.96C379.06 416.5 379.02 416.18 379.11 415.77C379.11 415.76 379.13 415.7 379.15 415.59L379.15 415.22L360.09 415.22C360.09 417.47 360.09 418.72 360.09 418.97C360.09 419.98 360.18 420.89 360.32 421.81C359.82 421.55 357.32 420.29 352.82 418.01C359.13 423.88 362.64 427.14 363.34 427.79C364.07 428.57 365.17 429.21 366.67 429.85C367.93 430.36 374.23 432.91 385.55 437.49L390.35 434.06L384.41 428.98L387.02 420.02L381.71 417.97Z" id="ayTKA5HUJ"></path><path d="M402.29 372.3L394.24 373.85L394.24 421.17L402.29 425.65L412.07 434.65L412.07 370.33L402.29 361.37L402.29 372.3Z" id="eLtFXS8Sz"></path><path d="M384.46 413.85C376.23 410.67 371.66 408.9 370.74 408.55C370.1 408.27 369.92 408.09 369.92 408.09C369.91 408.08 369.84 408.01 369.83 408C369.33 407.54 369.28 407.22 369.37 406.81C369.37 406.8 369.39 406.74 369.42 406.63L369.42 361.37L350.35 365.62C350.35 392.28 350.35 407.09 350.35 410.06C350.35 413.81 351.45 416.78 353.6 418.83C354.33 419.61 355.43 420.25 356.94 420.89C358.2 421.4 364.49 423.95 375.82 428.53L384.46 422.31L384.46 429.03L402.29 425.74L402.29 361.37L384.46 364.89L384.46 413.85Z" id="b1nuAnJDak"></path><path d="M396.85 416.59L384.46 428.98L384.46 423.77L396.85 416.59Z" id="admqBt8ew"></path><path d="M365.9 371.43L355.25 381.07L380.21 368.59L357.35 385.37L369.65 380.16L369.37 383.31L350.31 393.97L350.31 381.07L365.9 371.43Z" id="iiIN3RGQf"></path><path d="M363.61 407.27L390.63 397.17L355.02 420.02L359.82 422.03L396.57 399.09L383.27 409.87L402.29 399.36L402.29 388.3L363.61 407.27Z" id="bmqCSnTUy"></path></defs><g><g><g><use xlink:href="#c1pmElnVKb" opacity="1" fill="#019db2" fill-opacity="1"></use><g><use xlink:href="#c1pmElnVKb" opacity="1" fill-opacity="0" stroke="#000000" stroke-width="1" stroke-opacity="0"></use></g></g><g><use xlink:href="#fhBWAIQnn" opacity="1" fill="#019db2" fill-opacity="1"></use><g><use xlink:href="#fhBWAIQnn" opacity="1" fill-opacity="0" stroke="#000000" stroke-width="1" stroke-opacity="0"></use></g></g><g><use xlink:href="#abUTaVxbd" opacity="1" fill="#019db2" fill-opacity="1"></use><g><use xlink:href="#abUTaVxbd" opacity="1" fill-opacity="0" stroke="#000000" stroke-width="1" stroke-opacity="0"></use></g></g><g><use xlink:href="#bqtq0SJj" opacity="1" fill="#019db2" fill-opacity="1"></use><g><use xlink:href="#bqtq0SJj" opacity="1" fill-opacity="0" stroke="#000000" stroke-width="1" stroke-opacity="0"></use></g></g><g><use xlink:href="#b4IkJfiued" opacity="1" fill="#019db2" fill-opacity="1"></use><g><use xlink:href="#b4IkJfiued" opacity="1" fill-opacity="0" stroke="#000000" stroke-width="1" stroke-opacity="0"></use></g></g><g><use xlink:href="#b10U9ibMRL" opacity="1" fill="#019db2" fill-opacity="1"></use><g><use xlink:href="#b10U9ibMRL" opacity="1" fill-opacity="0" stroke="#000000" stroke-width="1" stroke-opacity="0"></use></g></g><g><use xlink:href="#d19MxQhXIy" opacity="1" fill="#019db2" fill-opacity="1"></use><g><use xlink:href="#d19MxQhXIy" opacity="1" fill-opacity="0" stroke="#000000" stroke-width="1" stroke-opacity="0"></use></g></g><g><use xlink:href="#a6zdBToWJZ" opacity="1" fill="#019db2" fill-opacity="1"></use><g><use xlink:href="#a6zdBToWJZ" opacity="1" fill-opacity="0" stroke="#000000" stroke-width="1" stroke-opacity="0"></use></g></g><g><use xlink:href="#e1L4VLUqnD" opacity="1" fill="#019db2" fill-opacity="1"></use><g><use xlink:href="#e1L4VLUqnD" opacity="1" fill-opacity="0" stroke="#000000" stroke-width="1" stroke-opacity="0"></use></g></g><g><use xlink:href="#c65FNEcjxQ" opacity="1" fill="#019db2" fill-opacity="1"></use><g><use xlink:href="#c65FNEcjxQ" opacity="1" fill-opacity="0" stroke="#000000" stroke-width="1" stroke-opacity="0"></use></g></g><g><use xlink:href="#a5d5CYiMOr" opacity="1" fill="#65cae5" fill-opacity="1"></use><g><use xlink:href="#a5d5CYiMOr" opacity="1" fill-opacity="0" stroke="#000000" stroke-width="1" stroke-opacity="0"></use></g></g><g><use xlink:href="#e19lhfTDCq" opacity="1" fill="#8ed7f0" fill-opacity="1"></use><g><use xlink:href="#e19lhfTDCq" opacity="1" fill-opacity="0" stroke="#000000" stroke-width="1" stroke-opacity="0"></use></g></g><g><use xlink:href="#apn5gh0xQ" opacity="1" fill="#65cae5" fill-opacity="1"></use><g><use xlink:href="#apn5gh0xQ" opacity="1" fill-opacity="0" stroke="#000000" stroke-width="1" stroke-opacity="0"></use></g></g><g><use xlink:href="#b23hNXMOf" opacity="1" fill="#65cae5" fill-opacity="1"></use><g><use xlink:href="#b23hNXMOf" opacity="1" fill-opacity="0" stroke="#000000" stroke-width="1" stroke-opacity="0"></use></g></g><g><use xlink:href="#e3pt22v5u3" opacity="1" fill="#000000" fill-opacity="0"></use><g><use xlink:href="#e3pt22v5u3" opacity="1" fill-opacity="0" stroke="#000000" stroke-width="1" stroke-opacity="0"></use></g></g><g><use xlink:href="#g5R6KNX8O" opacity="1" fill="#65cae5" fill-opacity="1"></use><g><use xlink:href="#g5R6KNX8O" opacity="1" fill-opacity="0" stroke="#000000" stroke-width="1" stroke-opacity="0"></use></g></g><g><use xlink:href="#a45GK1rHaj" opacity="1" fill="#d6f0fc" fill-opacity="1"></use><g><use xlink:href="#a45GK1rHaj" opacity="1" fill-opacity="0" stroke="#000000" stroke-width="1" stroke-opacity="0"></use></g></g><g><use xlink:href="#b5hukZtgvO" opacity="1" fill="#bfe6f3" fill-opacity="1"></use><g><use xlink:href="#b5hukZtgvO" opacity="1" fill-opacity="0" stroke="#000000" stroke-width="1" stroke-opacity="0"></use></g></g><g><use xlink:href="#faWwcBT0F" opacity="1" fill="#bfe6f3" fill-opacity="1"></use><g><use xlink:href="#faWwcBT0F" opacity="1" fill-opacity="0" stroke="#000000" stroke-width="1" stroke-opacity="0"></use></g></g><g><use xlink:href="#cMJC8gxP5" opacity="1" fill="#8ed7f0" fill-opacity="1"></use><g><use xlink:href="#cMJC8gxP5" opacity="1" fill-opacity="0" stroke="#000000" stroke-width="1" stroke-opacity="0"></use></g></g><g><use xlink:href="#b4g02K94z" opacity="1" fill="#65cae5" fill-opacity="1"></use><g><use xlink:href="#b4g02K94z" opacity="1" fill-opacity="0" stroke="#000000" stroke-width="1" stroke-opacity="0"></use></g></g><g><use xlink:href="#a4jnbRyO5h" opacity="1" fill="#000000" fill-opacity="0"></use><g><use xlink:href="#a4jnbRyO5h" opacity="1" fill-opacity="0" stroke="#000000" stroke-width="1" stroke-opacity="0"></use></g></g><g><use xlink:href="#cIPQfyTA" opacity="1" fill="#000000" fill-opacity="0"></use><g><use xlink:href="#cIPQfyTA" opacity="1" fill-opacity="0" stroke="#000000" stroke-width="1" stroke-opacity="0"></use></g></g><g><use xlink:href="#bBzsY5j7v" opacity="1" fill="#65cae5" fill-opacity="1"></use><g><use xlink:href="#bBzsY5j7v" opacity="1" fill-opacity="0" stroke="#000000" stroke-width="1" stroke-opacity="0"></use></g></g><g><use xlink:href="#b9uUxyGdf" opacity="1" fill="#8ed7f0" fill-opacity="1"></use><g><use xlink:href="#b9uUxyGdf" opacity="1" fill-opacity="0" stroke="#000000" stroke-width="1" stroke-opacity="0"></use></g></g><g><use xlink:href="#cxWhovjZD" opacity="1" fill="#65cae5" fill-opacity="1"></use><g><use xlink:href="#cxWhovjZD" opacity="1" fill-opacity="0" stroke="#000000" stroke-width="1" stroke-opacity="0"></use></g></g><g><use xlink:href="#f4uf8c7bc2" opacity="1" fill="#65cae5" fill-opacity="1"></use><g><use xlink:href="#f4uf8c7bc2" opacity="1" fill-opacity="0" stroke="#000000" stroke-width="1" stroke-opacity="0"></use></g></g><g><use xlink:href="#a19GHrCCjc" opacity="1" fill="#d6f0fc" fill-opacity="1"></use><g><use xlink:href="#a19GHrCCjc" opacity="1" fill-opacity="0" stroke="#000000" stroke-width="1" stroke-opacity="0"></use></g></g><g><use xlink:href="#b1LfnEIYAw" opacity="1" fill="#bfe6f3" fill-opacity="1"></use><g><use xlink:href="#b1LfnEIYAw" opacity="1" fill-opacity="0" stroke="#000000" stroke-width="1" stroke-opacity="0"></use></g></g><g><use xlink:href="#f4jzAxMbt1" opacity="1" fill="#bfe6f3" fill-opacity="1"></use><g><use xlink:href="#f4jzAxMbt1" opacity="1" fill-opacity="0" stroke="#000000" stroke-width="1" stroke-opacity="0"></use></g></g><g><use xlink:href="#d6rttJgnq2" opacity="1" fill="#65cae5" fill-opacity="1"></use><g><use xlink:href="#d6rttJgnq2" opacity="1" fill-opacity="0" stroke="#000000" stroke-width="1" stroke-opacity="0"></use></g></g><g><use xlink:href="#dJu5SP7tD" opacity="1" fill="#8ed7f0" fill-opacity="1"></use><g><use xlink:href="#dJu5SP7tD" opacity="1" fill-opacity="0" stroke="#000000" stroke-width="1" stroke-opacity="0"></use></g></g><g><use xlink:href="#b8eVQjUrn" opacity="1" fill="#d6f0fc" fill-opacity="1"></use><g><use xlink:href="#b8eVQjUrn" opacity="1" fill-opacity="0" stroke="#000000" stroke-width="1" stroke-opacity="0"></use></g></g><g><use xlink:href="#bzX8qjGxK" opacity="1" fill="#bfe6f3" fill-opacity="1"></use><g><use xlink:href="#bzX8qjGxK" opacity="1" fill-opacity="0" stroke="#000000" stroke-width="1" stroke-opacity="0"></use></g></g><g><use xlink:href="#a5JMxhkf4v" opacity="1" fill="#bfe6f3" fill-opacity="1"></use><g><use xlink:href="#a5JMxhkf4v" opacity="1" fill-opacity="0" stroke="#000000" stroke-width="1" stroke-opacity="0"></use></g></g><g><use xlink:href="#bb6u7r0fC" opacity="1" fill="#8ed7f0" fill-opacity="1"></use><g><use xlink:href="#bb6u7r0fC" opacity="1" fill-opacity="0" stroke="#000000" stroke-width="1" stroke-opacity="0"></use></g></g><g><use xlink:href="#a3e1B1c8op" opacity="1" fill="#65cae5" fill-opacity="1"></use><g><use xlink:href="#a3e1B1c8op" opacity="1" fill-opacity="0" stroke="#000000" stroke-width="1" stroke-opacity="0"></use></g></g><g><use xlink:href="#aJTBqowMd" opacity="1" fill="#65cae5" fill-opacity="1"></use><g><use xlink:href="#aJTBqowMd" opacity="1" fill-opacity="0" stroke="#000000" stroke-width="1" stroke-opacity="0"></use></g></g><g><use xlink:href="#byDcAYZ4R" opacity="1" fill="#8ed7f0" fill-opacity="1"></use><g><use xlink:href="#byDcAYZ4R" opacity="1" fill-opacity="0" stroke="#000000" stroke-width="1" stroke-opacity="0"></use></g></g><g><use xlink:href="#aaHo3PxJ" opacity="1" fill="#d6f0fc" fill-opacity="1"></use><g><use xlink:href="#aaHo3PxJ" opacity="1" fill-opacity="0" stroke="#000000" stroke-width="1" stroke-opacity="0"></use></g></g><g><use xlink:href="#bisQ7WNlq" opacity="1" fill="#bfe6f3" fill-opacity="1"></use><g><use xlink:href="#bisQ7WNlq" opacity="1" fill-opacity="0" stroke="#000000" stroke-width="1" stroke-opacity="0"></use></g></g><g><use xlink:href="#b9wQFGmKE" opacity="1" fill="#bfe6f3" fill-opacity="1"></use><g><use xlink:href="#b9wQFGmKE" opacity="1" fill-opacity="0" stroke="#000000" stroke-width="1" stroke-opacity="0"></use></g></g><g><use xlink:href="#b64QsYsGTt" opacity="1" fill="#000000" fill-opacity="0"></use><g><use xlink:href="#b64QsYsGTt" opacity="1" fill-opacity="0" stroke="#000000" stroke-width="1" stroke-opacity="0"></use></g></g><g><use xlink:href="#g2n1VOxzGK" opacity="1" fill="#65cae5" fill-opacity="1"></use><g><use xlink:href="#g2n1VOxzGK" opacity="1" fill-opacity="0" stroke="#000000" stroke-width="1" stroke-opacity="0"></use></g></g><g><use xlink:href="#a5fzpgBA" opacity="1" fill="#8ed7f0" fill-opacity="1"></use><g><use xlink:href="#a5fzpgBA" opacity="1" fill-opacity="0" stroke="#000000" stroke-width="1" stroke-opacity="0"></use></g></g><g><use xlink:href="#jhRyGm8zI" opacity="1" fill="#65cae5" fill-opacity="1"></use><g><use xlink:href="#jhRyGm8zI" opacity="1" fill-opacity="0" stroke="#000000" stroke-width="1" stroke-opacity="0"></use></g></g><g><use xlink:href="#bOdzLEhEQ" opacity="1" fill="#8ed7f0" fill-opacity="1"></use><g><use xlink:href="#bOdzLEhEQ" opacity="1" fill-opacity="0" stroke="#000000" stroke-width="1" stroke-opacity="0"></use></g></g><g><use xlink:href="#aInAWiS5" opacity="1" fill="#d6f0fc" fill-opacity="1"></use><g><use xlink:href="#aInAWiS5" opacity="1" fill-opacity="0" stroke="#000000" stroke-width="1" stroke-opacity="0"></use></g></g><g><use xlink:href="#c2MLonZ2Bg" opacity="1" fill="#bfe6f3" fill-opacity="1"></use><g><use xlink:href="#c2MLonZ2Bg" opacity="1" fill-opacity="0" stroke="#000000" stroke-width="1" stroke-opacity="0"></use></g></g><g><use xlink:href="#h4JATdwCuw" opacity="1" fill="#bfe6f3" fill-opacity="1"></use><g><use xlink:href="#h4JATdwCuw" opacity="1" fill-opacity="0" stroke="#000000" stroke-width="1" stroke-opacity="0"></use></g></g><g><use xlink:href="#b2b9bP3y5e" opacity="1" fill="#8ed7f0" fill-opacity="1"></use><g><use xlink:href="#b2b9bP3y5e" opacity="1" fill-opacity="0" stroke="#000000" stroke-width="1" stroke-opacity="0"></use></g></g><g><use xlink:href="#ajggJrhEV" opacity="1" fill="#65cae5" fill-opacity="1"></use><g><use xlink:href="#ajggJrhEV" opacity="1" fill-opacity="0" stroke="#000000" stroke-width="1" stroke-opacity="0"></use></g></g><g><use xlink:href="#aNp1YNnf7" opacity="1" fill="#8ed7f0" fill-opacity="1"></use><g><use xlink:href="#aNp1YNnf7" opacity="1" fill-opacity="0" stroke="#000000" stroke-width="1" stroke-opacity="0"></use></g></g><g><use xlink:href="#eGmkNUgwG" opacity="1" fill="#65cae5" fill-opacity="1"></use><g><use xlink:href="#eGmkNUgwG" opacity="1" fill-opacity="0" stroke="#000000" stroke-width="1" stroke-opacity="0"></use></g></g><g><use xlink:href="#g26NLneGjl" opacity="1" fill="#d6f0fc" fill-opacity="1"></use><g><use xlink:href="#g26NLneGjl" opacity="1" fill-opacity="0" stroke="#000000" stroke-width="1" stroke-opacity="0"></use></g></g><g><use xlink:href="#a36vnzFatn" opacity="1" fill="#bfe6f3" fill-opacity="1"></use><g><use xlink:href="#a36vnzFatn" opacity="1" fill-opacity="0" stroke="#000000" stroke-width="1" stroke-opacity="0"></use></g></g><g><use xlink:href="#b1e8B9RjyM" opacity="1" fill="#bfe6f3" fill-opacity="1"></use><g><use xlink:href="#b1e8B9RjyM" opacity="1" fill-opacity="0" stroke="#000000" stroke-width="1" stroke-opacity="0"></use></g></g><g><use xlink:href="#a4JV4gk4D" opacity="1" fill="#bfe6f3" fill-opacity="1"></use><g><use xlink:href="#a4JV4gk4D" opacity="1" fill-opacity="0" stroke="#000000" stroke-width="1" stroke-opacity="0"></use></g></g><g><use xlink:href="#hos7XOphQ" opacity="1" fill="#8ed7f0" fill-opacity="1"></use><g><use xlink:href="#hos7XOphQ" opacity="1" fill-opacity="0" stroke="#000000" stroke-width="1" stroke-opacity="0"></use></g></g><g><use xlink:href="#clx2jwZE" opacity="1" fill="#65cae5" fill-opacity="1"></use><g><use xlink:href="#clx2jwZE" opacity="1" fill-opacity="0" stroke="#000000" stroke-width="1" stroke-opacity="0"></use></g></g><g><use xlink:href="#a5yC0rbUtb" opacity="1" fill="#8ed7f0" fill-opacity="1"></use><g><use xlink:href="#a5yC0rbUtb" opacity="1" fill-opacity="0" stroke="#000000" stroke-width="1" stroke-opacity="0"></use></g></g><g><use xlink:href="#j1BwNbTYGd" opacity="1" fill="#000000" fill-opacity="0"></use><g><use xlink:href="#j1BwNbTYGd" opacity="1" fill-opacity="0" stroke="#000000" stroke-width="1" stroke-opacity="0"></use></g></g><g><use xlink:href="#a2qeXfgPh" opacity="1" fill="#65cae5" fill-opacity="1"></use><g><use xlink:href="#a2qeXfgPh" opacity="1" fill-opacity="0" stroke="#000000" stroke-width="1" stroke-opacity="0"></use></g></g><g><use xlink:href="#d4PHqJu18j" opacity="1" fill="#65cae5" fill-opacity="1"></use><g><use xlink:href="#d4PHqJu18j" opacity="1" fill-opacity="0" stroke="#000000" stroke-width="1" stroke-opacity="0"></use></g></g><g><use xlink:href="#a7VrlgFbFR" opacity="1" fill="#65cae5" fill-opacity="1"></use><g><use xlink:href="#a7VrlgFbFR" opacity="1" fill-opacity="0" stroke="#000000" stroke-width="1" stroke-opacity="0"></use></g></g><g><use xlink:href="#f7uM8GP0xm" opacity="1" fill="#d6f0fc" fill-opacity="1"></use><g><use xlink:href="#f7uM8GP0xm" opacity="1" fill-opacity="0" stroke="#000000" stroke-width="1" stroke-opacity="0"></use></g></g><g><use xlink:href="#b1G0REA1MK" opacity="1" fill="#bfe6f3" fill-opacity="1"></use><g><use xlink:href="#b1G0REA1MK" opacity="1" fill-opacity="0" stroke="#000000" stroke-width="1" stroke-opacity="0"></use></g></g><g><use xlink:href="#gbK0MHG6p" opacity="1" fill="#bfe6f3" fill-opacity="1"></use><g><use xlink:href="#gbK0MHG6p" opacity="1" fill-opacity="0" stroke="#000000" stroke-width="1" stroke-opacity="0"></use></g></g><g><use xlink:href="#guwNksFJ5" opacity="1" fill="#65cae5" fill-opacity="1"></use><g><use xlink:href="#guwNksFJ5" opacity="1" fill-opacity="0" stroke="#000000" stroke-width="1" stroke-opacity="0"></use></g></g><g><use xlink:href="#c1rnbTMQbc" opacity="1" fill="#8ed7f0" fill-opacity="1"></use><g><use xlink:href="#c1rnbTMQbc" opacity="1" fill-opacity="0" stroke="#000000" stroke-width="1" stroke-opacity="0"></use></g></g><g><use xlink:href="#g1S0UVUUxl" opacity="1" fill="#65cae5" fill-opacity="1"></use><g><use xlink:href="#g1S0UVUUxl" opacity="1" fill-opacity="0" stroke="#000000" stroke-width="1" stroke-opacity="0"></use></g></g><g><use xlink:href="#de93qoq3K" opacity="1" fill="#8ed7f0" fill-opacity="1"></use><g><use xlink:href="#de93qoq3K" opacity="1" fill-opacity="0" stroke="#000000" stroke-width="1" stroke-opacity="0"></use></g></g><g><use xlink:href="#bSKmWL0DZ" opacity="1" fill="#d6f0fc" fill-opacity="1"></use><g><use xlink:href="#bSKmWL0DZ" opacity="1" fill-opacity="0" stroke="#000000" stroke-width="1" stroke-opacity="0"></use></g></g><g><use xlink:href="#d5mvlEHwC" opacity="1" fill="#bfe6f3" fill-opacity="1"></use><g><use xlink:href="#d5mvlEHwC" opacity="1" fill-opacity="0" stroke="#000000" stroke-width="1" stroke-opacity="0"></use></g></g><g><use xlink:href="#a16DH7GlbS" opacity="1" fill="#bfe6f3" fill-opacity="1"></use><g><use xlink:href="#a16DH7GlbS" opacity="1" fill-opacity="0" stroke="#000000" stroke-width="1" stroke-opacity="0"></use></g></g><g><use xlink:href="#c1l1tsUSzQ" opacity="1" fill="#bfe6f3" fill-opacity="1"></use><g><use xlink:href="#c1l1tsUSzQ" opacity="1" fill-opacity="0" stroke="#000000" stroke-width="1" stroke-opacity="0"></use></g></g><g><use xlink:href="#a1Q17eOSCC" opacity="1" fill="#65cae5" fill-opacity="1"></use><g><use xlink:href="#a1Q17eOSCC" opacity="1" fill-opacity="0" stroke="#000000" stroke-width="1" stroke-opacity="0"></use></g></g><g><use xlink:href="#b1MUgtLOwG" opacity="1" fill="#8ed7f0" fill-opacity="1"></use><g><use xlink:href="#b1MUgtLOwG" opacity="1" fill-opacity="0" stroke="#000000" stroke-width="1" stroke-opacity="0"></use></g></g><g><use xlink:href="#e2D7YjF0al" opacity="1" fill="#65cae5" fill-opacity="1"></use><g><use xlink:href="#e2D7YjF0al" opacity="1" fill-opacity="0" stroke="#000000" stroke-width="1" stroke-opacity="0"></use></g></g><g><use xlink:href="#cCLWUtQjX" opacity="1" fill="#65cae5" fill-opacity="1"></use><g><use xlink:href="#cCLWUtQjX" opacity="1" fill-opacity="0" stroke="#000000" stroke-width="1" stroke-opacity="0"></use></g></g><g><use xlink:href="#a3POuye9LU" opacity="1" fill="#d6f0fc" fill-opacity="1"></use><g><use xlink:href="#a3POuye9LU" opacity="1" fill-opacity="0" stroke="#000000" stroke-width="1" stroke-opacity="0"></use></g></g><g><use xlink:href="#a1SoeYfMaX" opacity="1" fill="#bfe6f3" fill-opacity="1"></use><g><use xlink:href="#a1SoeYfMaX" opacity="1" fill-opacity="0" stroke="#000000" stroke-width="1" stroke-opacity="0"></use></g></g><g><use xlink:href="#blfTdw4y0" opacity="1" fill="#bfe6f3" fill-opacity="1"></use><g><use xlink:href="#blfTdw4y0" opacity="1" fill-opacity="0" stroke="#000000" stroke-width="1" stroke-opacity="0"></use></g></g><g><use xlink:href="#a6F0CMqAG" opacity="1" fill="#bfe6f3" fill-opacity="1"></use><g><use xlink:href="#a6F0CMqAG" opacity="1" fill-opacity="0" stroke="#000000" stroke-width="1" stroke-opacity="0"></use></g></g><g><use xlink:href="#b29nu5vAhh" opacity="1" fill="#000000" fill-opacity="0"></use><g><use xlink:href="#b29nu5vAhh" opacity="1" fill-opacity="0" stroke="#000000" stroke-width="1" stroke-opacity="0"></use></g></g><g><use xlink:href="#a3YMpyVah" opacity="1" fill="#000000" fill-opacity="0"></use><g><use xlink:href="#a3YMpyVah" opacity="1" fill-opacity="0" stroke="#000000" stroke-width="1" stroke-opacity="0"></use></g></g><g><use xlink:href="#bcq99n7Zq" opacity="1" fill="#000000" fill-opacity="0"></use><g><use xlink:href="#bcq99n7Zq" opacity="1" fill-opacity="0" stroke="#000000" stroke-width="1" stroke-opacity="0"></use></g></g><g><use xlink:href="#bLr9x3YGi" opacity="1" fill="#8ed7f0" fill-opacity="1"></use><g><use xlink:href="#bLr9x3YGi" opacity="1" fill-opacity="0" stroke="#000000" stroke-width="1" stroke-opacity="0"></use></g></g><g><use xlink:href="#dlJMpYSI9" opacity="1" fill="#65cae5" fill-opacity="1"></use><g><use xlink:href="#dlJMpYSI9" opacity="1" fill-opacity="0" stroke="#000000" stroke-width="1" stroke-opacity="0"></use></g></g><g><use xlink:href="#ayTKA5HUJ" opacity="1" fill="#65cae5" fill-opacity="1"></use><g><use xlink:href="#ayTKA5HUJ" opacity="1" fill-opacity="0" stroke="#000000" stroke-width="1" stroke-opacity="0"></use></g></g><g><use xlink:href="#eLtFXS8Sz" opacity="1" fill="#8ed7f0" fill-opacity="1"></use><g><use xlink:href="#eLtFXS8Sz" opacity="1" fill-opacity="0" stroke="#000000" stroke-width="1" stroke-opacity="0"></use></g></g><g><use xlink:href="#b1nuAnJDak" opacity="1" fill="#d6f0fc" fill-opacity="1"></use><g><use xlink:href="#b1nuAnJDak" opacity="1" fill-opacity="0" stroke="#000000" stroke-width="1" stroke-opacity="0"></use></g></g><g><use xlink:href="#admqBt8ew" opacity="1" fill="#bfe6f3" fill-opacity="1"></use><g><use xlink:href="#admqBt8ew" opacity="1" fill-opacity="0" stroke="#000000" stroke-width="1" stroke-opacity="0"></use></g></g><g><use xlink:href="#iiIN3RGQf" opacity="1" fill="#bfe6f3" fill-opacity="1"></use><g><use xlink:href="#iiIN3RGQf" opacity="1" fill-opacity="0" stroke="#000000" stroke-width="1" stroke-opacity="0"></use></g></g><g><use xlink:href="#bmqCSnTUy" opacity="1" fill="#bfe6f3" fill-opacity="1"></use><g><use xlink:href="#bmqCSnTUy" opacity="1" fill-opacity="0" stroke="#000000" stroke-width="1" stroke-opacity="0"></use></g></g></g></g></svg>