<?xml version="1.0" encoding="UTF-8" standalone="no"?>
<!DOCTYPE svg PUBLIC "-//W3C//DTD SVG 1.1//EN" "http://www.w3.org/Graphics/SVG/1.1/DTD/svg11.dtd">
<svg version="1.1" xmlns="http://www.w3.org/2000/svg" xmlns:xlink="http://www.w3.org/1999/xlink" preserveAspectRatio="xMidYMid meet" viewBox="0 0 100 100" width="100" height="100"><defs><path d="M46.52 17.82L27.78 21.06L27.78 37.02L27.78 45.7L27.78 70.34L27.78 72.58L27.78 87.58L27.78 87.58L37.61 96.54L56.35 91.23L56.35 71.3L70.11 86.53L70.11 86.53L79.89 95.53L95.71 87.67L71.94 59.28L91.27 33.09L81.49 24.13L81.49 24.13L65.95 16.08L56.35 29.06L56.35 26.78L46.52 17.82L46.52 17.82Z" id="h1n78JI4Yr"></path><path d="M26.68 72.13L16.85 74.91L26.68 83.92L45.42 78.62L35.59 69.61L26.68 69.75L26.68 72.13Z" id="eiL36aUMx"></path><path d="M80.35 20.47L70.57 11.46L68.46 14.34L64.85 12.47L48.21 34.87L51.23 37.7L61.01 46.66L80.35 20.47Z" id="i1fGRAFXJi"></path><path d="M48.21 34.87L45.42 38.66L45.42 14.16L35.64 5.15L35.64 15.85L26.73 17.41L26.73 45.79C32.82 45.36 36.2 45.11 36.87 45.06C36.87 45.06 41.63 51.05 45.47 57.18C45.47 57.15 45.47 57.01 45.47 56.77L58.77 71.49L75.05 66L84.83 75.01L61.06 46.66L51.23 37.7L48.21 34.87Z" id="a1n1DzFkHD"></path><path d="M60.33 73.31L59.18 73.91L68.97 82.91L84.78 75.05L75 66.05L58.73 71.53L60.33 73.31Z" id="cYKznQxwl"></path><path d="M26.68 69.75L35.59 69.66L45.38 78.66C45.38 65.83 45.38 58.69 45.38 57.27C41.54 51.14 36.78 45.15 36.78 45.15C36.11 45.2 32.74 45.43 26.68 45.84L26.68 69.75Z" id="a5tONlvHDE"></path><path d="M51.23 37.7L70.57 11.46L55.02 3.46L35.59 29.66L35.59 5.15L16.85 8.45L16.85 74.91L35.59 69.61L35.59 47.85L59.18 73.91L75 66.05L51.23 37.7Z" id="aorLT0Lzc"></path><path d="M52.37 59.97L66.73 56.17L63.53 52.33L52.37 59.97Z" id="b4PuNs1H9T"></path><path d="M31.16 19.6L22.25 25.18L58.73 11.97L30.52 25.18L42.82 21.38L16.85 33.09L16.85 24.35L31.16 19.6Z" id="b1JrBj5FsN"></path><path d="M23.98 50.14L36.05 46.66L16.85 57.73L16.85 59.97L46.47 45.11L26.68 58.5L55.75 43.05L54.11 34.27L23.98 50.14Z" id="a11JaTvRk2"></path></defs><g><g><g><use xlink:href="#h1n78JI4Yr" opacity="1" fill="#019db2" fill-opacity="1"></use><g><use xlink:href="#h1n78JI4Yr" opacity="1" fill-opacity="0" stroke="#000000" stroke-width="1" stroke-opacity="0"></use></g></g><g><use xlink:href="#eiL36aUMx" opacity="1" fill="#65cae5" fill-opacity="1"></use><g><use xlink:href="#eiL36aUMx" opacity="1" fill-opacity="0" stroke="#000000" stroke-width="1" stroke-opacity="0"></use></g></g><g><use xlink:href="#i1fGRAFXJi" opacity="1" fill="#65cae5" fill-opacity="1"></use><g><use xlink:href="#i1fGRAFXJi" opacity="1" fill-opacity="0" stroke="#000000" stroke-width="1" stroke-opacity="0"></use></g></g><g><use xlink:href="#a1n1DzFkHD" opacity="1" fill="#8ed7f0" fill-opacity="1"></use><g><use xlink:href="#a1n1DzFkHD" opacity="1" fill-opacity="0" stroke="#000000" stroke-width="1" stroke-opacity="0"></use></g></g><g><use xlink:href="#cYKznQxwl" opacity="1" fill="#65cae5" fill-opacity="1"></use><g><use xlink:href="#cYKznQxwl" opacity="1" fill-opacity="0" stroke="#000000" stroke-width="1" stroke-opacity="0"></use></g></g><g><use xlink:href="#a5tONlvHDE" opacity="1" fill="#8ed7f0" fill-opacity="1"></use><g><use xlink:href="#a5tONlvHDE" opacity="1" fill-opacity="0" stroke="#000000" stroke-width="1" stroke-opacity="0"></use></g></g><g><use xlink:href="#aorLT0Lzc" opacity="1" fill="#d6f0fc" fill-opacity="1"></use><g><use xlink:href="#aorLT0Lzc" opacity="1" fill-opacity="0" stroke="#000000" stroke-width="1" stroke-opacity="0"></use></g></g><g><use xlink:href="#b4PuNs1H9T" opacity="1" fill="#bfe6f3" fill-opacity="1"></use><g><use xlink:href="#b4PuNs1H9T" opacity="1" fill-opacity="0" stroke="#000000" stroke-width="1" stroke-opacity="0"></use></g></g><g><use xlink:href="#b1JrBj5FsN" opacity="1" fill="#bfe6f3" fill-opacity="1"></use><g><use xlink:href="#b1JrBj5FsN" opacity="1" fill-opacity="0" stroke="#000000" stroke-width="1" stroke-opacity="0"></use></g></g><g><use xlink:href="#a11JaTvRk2" opacity="1" fill="#bfe6f3" fill-opacity="1"></use><g><use xlink:href="#a11JaTvRk2" opacity="1" fill-opacity="0" stroke="#000000" stroke-width="1" stroke-opacity="0"></use></g></g></g></g></svg>