<?xml version="1.0" encoding="UTF-8" standalone="no"?>
<!DOCTYPE svg PUBLIC "-//W3C//DTD SVG 1.1//EN" "http://www.w3.org/Graphics/SVG/1.1/DTD/svg11.dtd">
<svg version="1.1" xmlns="http://www.w3.org/2000/svg" xmlns:xlink="http://www.w3.org/1999/xlink" preserveAspectRatio="xMidYMid meet" viewBox="0 0 100 100" width="100" height="100"><defs><path d="M82.57 93.31L66.48 96.06L56.7 87.05L55.55 85.31L55.55 64.74L54.37 64.74L54.37 92.31L38.23 95.6L28.45 86.59L28.45 20.49L45.09 17.57L54.87 26.57L54.87 28.03L56.51 26.85L56.51 21.63L69.27 17.61L72.79 16.51L82.57 25.52L82.57 93.31ZM56.47 41.15L56.47 40.06L54.82 41.11L56.47 41.15ZM54.82 35.81L56.47 34.8L56.47 34.11L54.82 35.26L54.82 35.81Z" id="abYZyYsEZ"></path><path d="M27.21 72.1L17.43 74.11L27.21 83.12L43.35 79.83C37.48 74.43 34.22 71.42 33.57 70.82C33.57 70.82 30.78 69.59 27.21 68.03C27.21 68.58 27.21 69.93 27.21 72.1Z" id="bLNkr3BNc"></path><path d="M54.37 70.64L45.77 74.43L55.55 83.44L71.65 80.7L61.86 71.69L54.37 68.49L54.37 70.64Z" id="amypS6krP"></path><path d="M27.21 68.03C30.73 69.59 33.52 70.82 33.52 70.82C34.17 71.42 37.43 74.43 43.3 79.83L43.3 52.26C37.43 46.86 34.17 43.86 33.52 43.26C33.57 43.3 30.69 42.43 27.21 41.34C27.21 46.68 27.21 65.36 27.21 68.03Z" id="bxCVAy6RO"></path><path d="M59.99 16.61L55.37 18.07L55.37 37.5L48.47 37.5L53.09 50.71L51.53 52.31L54.37 52.31L54.37 68.49L61.86 71.69L71.65 80.7L71.65 12.9L61.86 3.94L59.99 16.61Z" id="a1DjvYjNtL"></path><path d="M34.11 5.04L34.11 15.74L27.26 16.93C27.26 31.57 27.26 39.71 27.26 41.34C27.53 41.43 27.81 41.52 28.08 41.61C29.13 40.94 34.41 37.57 43.9 31.51L43.9 14.05L34.11 5.04Z" id="bTuxlwEHp"></path><path d="M43.9 31.46C34.41 37.52 29.13 40.89 28.08 41.57C31.14 42.53 33.57 43.26 33.57 43.26C34.22 43.86 37.48 46.86 43.35 52.26L51.53 52.26L53.09 50.71L48.47 37.5L43.9 37.5L43.9 31.46Z" id="c1QGkX5LXT"></path><path d="M61.86 71.69L61.86 3.94L45.54 9.06L45.54 28.54L34.07 28.54L34.07 5.04L17.43 7.97L17.43 74.11L33.57 70.82L33.57 43.3L44.54 43.3L44.54 72.83L45.77 74.43L61.86 71.69Z" id="a5GOY5NC0b"></path><path d="M31.14 21.41L21.04 32.06L58.3 5.04L61.86 3.94L61.86 10.11L37.68 26.98L61.86 12.13L61.86 16.93L17.43 45.54L17.43 32.06L31.14 21.41Z" id="e15NJ4KuWg"></path><path d="M40.56 46.14L59.12 36.9L17.43 65.06L17.43 68.49L61.86 39.6L61.86 31.46L40.56 46.14Z" id="bgsOZOVNJ"></path></defs><g><g><g><use xlink:href="#abYZyYsEZ" opacity="1" fill="#019db2" fill-opacity="1"></use><g><use xlink:href="#abYZyYsEZ" opacity="1" fill-opacity="0" stroke="#000000" stroke-width="1" stroke-opacity="0"></use></g></g><g><use xlink:href="#bLNkr3BNc" opacity="1" fill="#65cae5" fill-opacity="1"></use><g><use xlink:href="#bLNkr3BNc" opacity="1" fill-opacity="0" stroke="#000000" stroke-width="1" stroke-opacity="0"></use></g></g><g><use xlink:href="#amypS6krP" opacity="1" fill="#65cae5" fill-opacity="1"></use><g><use xlink:href="#amypS6krP" opacity="1" fill-opacity="0" stroke="#000000" stroke-width="1" stroke-opacity="0"></use></g></g><g><use xlink:href="#bxCVAy6RO" opacity="1" fill="#8ed7f0" fill-opacity="1"></use><g><use xlink:href="#bxCVAy6RO" opacity="1" fill-opacity="0" stroke="#000000" stroke-width="1" stroke-opacity="0"></use></g></g><g><use xlink:href="#a1DjvYjNtL" opacity="1" fill="#8ed7f0" fill-opacity="1"></use><g><use xlink:href="#a1DjvYjNtL" opacity="1" fill-opacity="0" stroke="#000000" stroke-width="1" stroke-opacity="0"></use></g></g><g><use xlink:href="#bTuxlwEHp" opacity="1" fill="#8ed7f0" fill-opacity="1"></use><g><use xlink:href="#bTuxlwEHp" opacity="1" fill-opacity="0" stroke="#000000" stroke-width="1" stroke-opacity="0"></use></g></g><g><use xlink:href="#c1QGkX5LXT" opacity="1" fill="#65cae5" fill-opacity="1"></use><g><use xlink:href="#c1QGkX5LXT" opacity="1" fill-opacity="0" stroke="#000000" stroke-width="1" stroke-opacity="0"></use></g></g><g><use xlink:href="#a5GOY5NC0b" opacity="1" fill="#d6f0fc" fill-opacity="1"></use><g><use xlink:href="#a5GOY5NC0b" opacity="1" fill-opacity="0" stroke="#000000" stroke-width="1" stroke-opacity="0"></use></g></g><g><use xlink:href="#e15NJ4KuWg" opacity="1" fill="#bfe6f3" fill-opacity="1"></use><g><use xlink:href="#e15NJ4KuWg" opacity="1" fill-opacity="0" stroke="#000000" stroke-width="1" stroke-opacity="0"></use></g></g><g><use xlink:href="#bgsOZOVNJ" opacity="1" fill="#bfe6f3" fill-opacity="1"></use><g><use xlink:href="#bgsOZOVNJ" opacity="1" fill-opacity="0" stroke="#000000" stroke-width="1" stroke-opacity="0"></use></g></g></g></g></svg>