<?xml version="1.0" encoding="UTF-8" standalone="no"?>
<!DOCTYPE svg PUBLIC "-//W3C//DTD SVG 1.1//EN" "http://www.w3.org/Graphics/SVG/1.1/DTD/svg11.dtd">
<svg version="1.1" xmlns="http://www.w3.org/2000/svg" xmlns:xlink="http://www.w3.org/1999/xlink" preserveAspectRatio="xMidYMid meet" viewBox="0 0 100 100" width="100" height="100"><defs><path d="M92.18 92.26L74.9 94.69L65.12 85.68L65.12 83.67L62.74 88.1L52.96 79.1L52.5 78.09L52.5 92.31L34.95 93.73L25.17 84.72L25.17 20.22L44.41 18.16L54.24 27.17L55.89 30.64L62.1 26.11L64.85 21.13L70.38 20.13L77.23 18.89L82.45 17.93L92.18 26.94L92.18 92.26ZM57.62 34.3L57.76 34.02L57.58 34.21L57.62 34.3Z" id="c4ZIQN5qK6"></path><path d="M71.52 16.06L63.75 17.47L56.66 30.37L62.93 54.78L64.07 52.63L64.07 69.91L71.52 70.59L81.35 79.6L81.35 14.32L71.52 5.31L71.52 16.06Z" id="a2zASZGENP"></path><path d="M24.07 71.33L14.29 72.15L24.07 81.11L41.62 79.69L31.84 70.69L24.07 69.22L24.07 71.33Z" id="d4tArMA0Kx"></path><path d="M33.49 5.54L38.06 15.1L24.07 16.61L24.07 69.22L31.84 70.69L41.62 79.69L41.62 51.71L43.22 55.42L52.37 33.52L43.31 14.55L33.49 5.54Z" id="c6uHw2pjSc"></path><path d="M64.07 71.65L54.24 73.02L64.07 82.02L81.35 79.6L71.52 70.59L64.07 69.91L64.07 71.65Z" id="au8mTEte8"></path><path d="M52.37 33.52L43.22 55.42L45.37 60.35L42.08 66.48L51.86 75.49L62.93 54.78L56.66 30.37L53.55 36.03L52.37 33.52Z" id="a1kerBjTb1"></path><path d="M31.84 70.69L31.84 42.71L42.08 66.48L54.24 43.67L54.24 73.02L71.52 70.59L71.52 5.31L53.92 8.51L43.77 27.07L33.49 5.54L14.29 7.6L14.29 72.15L31.84 70.69Z" id="a55yTYLT7"></path><path d="M43.31 14.55L27.95 30.37L59.45 7.51L66.31 6.27L24.07 39.19L52.5 21.59L14.29 52.9L14.29 32.74L43.31 14.55Z" id="b2gUs89x42"></path><path d="M43.22 55.42L64.66 45.22L56.66 55.42L71.52 46.91L71.52 32.47L43.22 55.42Z" id="cJytwOrP4"></path></defs><g><g><g><use xlink:href="#c4ZIQN5qK6" opacity="1" fill="#019db2" fill-opacity="1"></use><g><use xlink:href="#c4ZIQN5qK6" opacity="1" fill-opacity="0" stroke="#000000" stroke-width="1" stroke-opacity="0"></use></g></g><g><use xlink:href="#a2zASZGENP" opacity="1" fill="#8ed7f0" fill-opacity="1"></use><g><use xlink:href="#a2zASZGENP" opacity="1" fill-opacity="0" stroke="#000000" stroke-width="1" stroke-opacity="0"></use></g></g><g><use xlink:href="#d4tArMA0Kx" opacity="1" fill="#65cae5" fill-opacity="1"></use><g><use xlink:href="#d4tArMA0Kx" opacity="1" fill-opacity="0" stroke="#000000" stroke-width="1" stroke-opacity="0"></use></g></g><g><use xlink:href="#c6uHw2pjSc" opacity="1" fill="#8ed7f0" fill-opacity="1"></use><g><use xlink:href="#c6uHw2pjSc" opacity="1" fill-opacity="0" stroke="#000000" stroke-width="1" stroke-opacity="0"></use></g></g><g><use xlink:href="#au8mTEte8" opacity="1" fill="#65cae5" fill-opacity="1"></use><g><use xlink:href="#au8mTEte8" opacity="1" fill-opacity="0" stroke="#000000" stroke-width="1" stroke-opacity="0"></use></g></g><g><use xlink:href="#a1kerBjTb1" opacity="1" fill="#65cae5" fill-opacity="1"></use><g><use xlink:href="#a1kerBjTb1" opacity="1" fill-opacity="0" stroke="#000000" stroke-width="1" stroke-opacity="0"></use></g></g><g><use xlink:href="#a55yTYLT7" opacity="1" fill="#d6f0fc" fill-opacity="1"></use><g><use xlink:href="#a55yTYLT7" opacity="1" fill-opacity="0" stroke="#000000" stroke-width="1" stroke-opacity="0"></use></g></g><g><use xlink:href="#b2gUs89x42" opacity="1" fill="#bfe6f3" fill-opacity="1"></use><g><use xlink:href="#b2gUs89x42" opacity="1" fill-opacity="0" stroke="#000000" stroke-width="1" stroke-opacity="0"></use></g></g><g><use xlink:href="#cJytwOrP4" opacity="1" fill="#bfe6f3" fill-opacity="1"></use><g><use xlink:href="#cJytwOrP4" opacity="1" fill-opacity="0" stroke="#000000" stroke-width="1" stroke-opacity="0"></use></g></g></g></g></svg>