<?xml version="1.0" encoding="UTF-8" standalone="no"?>
<!DOCTYPE svg PUBLIC "-//W3C//DTD SVG 1.1//EN" "http://www.w3.org/Graphics/SVG/1.1/DTD/svg11.dtd">
<svg version="1.1" xmlns="http://www.w3.org/2000/svg" xmlns:xlink="http://www.w3.org/1999/xlink" preserveAspectRatio="xMidYMid meet" viewBox="0 0 100 100" width="100" height="100"><defs><path d="M56.8 93.1C61.09 91.95 62.42 91.18 63.06 90.72C63.11 90.69 63.33 90.52 63.75 90.22L63.75 67.45L81.16 67.45L81.16 51.13L74.35 44.87C77.62 44.87 79.43 44.87 79.79 44.87C80.93 44.87 81.62 44.41 82.03 43.77C82.26 43.41 82.35 42.99 82.35 42.63C82.35 42.31 82.35 41.81 80.66 35.27C80.07 33.12 79.52 30.88 78.97 28.64C78.95 28.56 78.84 28.15 78.65 27.41L68.87 18.4C62.83 18.4 59.48 18.4 58.81 18.4C55.7 18.4 51.95 18.35 47.61 18.31C46.89 18.31 43.27 18.31 36.77 18.31L36.77 35.59L36.77 52.23L36.77 78.29L36.77 82.54L36.77 86.19L46.56 95.2L48.48 94.97C52.01 94.27 54.79 93.65 56.8 93.1Z" id="g1VKRef5CE"></path><path d="M58.44 38.56L60.5 45.87L70.28 54.88L70.28 38.56L63.47 32.34L60.5 32.34L60.5 38.56L58.44 38.56Z" id="b3duL2JGJW"></path><path d="M61.28 22.29C61.28 22.29 58.12 18.45 55.15 14.83C52.59 14.83 49.76 14.79 46.56 14.74C45.83 14.74 42.21 14.74 35.68 14.74L35.68 21.87L43.08 23.29L53 32.3L60.55 32.3L63.52 32.3C66.78 32.3 68.59 32.3 68.96 32.3C70.05 32.34 70.79 31.84 71.15 31.2C69.18 29.42 62.26 23.18 61.28 22.29Z" id="b1mhkvbqc7"></path><path d="M58.44 38.56L57.67 35.86L58.44 38.56L60.5 38.56L60.5 32.34L52.96 32.34L54.47 33.67L52.96 32.34L52.87 32.34L52.87 38.56L58.44 38.56Z" id="bpcxf6qX6"></path><path d="M35.68 71.25L25.89 73.67L35.68 82.67C36.83 82.48 37.47 82.38 37.6 82.35C40.07 81.94 42.9 81.3 45.92 80.48C50.21 79.34 51.54 78.56 52.18 78.1C52.23 78.07 52.45 77.9 52.87 77.6L43.08 68.59L35.68 67.41L35.68 71.25Z" id="iiGgkiU89"></path><path d="M71.47 30.06C71.47 29.74 71.47 29.23 69.78 22.7C69.19 20.55 68.64 18.31 68.09 16.07C68.07 15.99 67.96 15.57 67.77 14.83L57.99 5.83L58.53 14.83C58.07 14.83 57.81 14.83 57.76 14.83C56.93 14.83 56.07 14.83 55.2 14.83C58.17 18.45 61.32 22.29 61.32 22.29C61.98 22.88 65.25 25.85 71.15 31.2C71.36 30.68 71.47 30.3 71.47 30.06Z" id="cGC6c5JOs"></path><path d="M52.87 38.56L52.87 32.34L52.96 32.34L43.04 23.34L35.63 21.92C35.63 35.39 35.63 42.87 35.63 44.37C39.52 45.19 43.04 45.92 43.04 45.92C43.69 46.52 46.95 49.52 52.82 54.93L70.24 54.93L60.45 45.92L58.44 38.56L52.87 38.56Z" id="b99SG3oDG"></path><path d="M35.68 67.36L43.08 68.59L52.87 77.6L52.87 54.83C47 49.43 43.74 46.43 43.08 45.83C43.04 45.87 39.56 45.19 35.68 44.32C35.68 47.39 35.68 55.07 35.68 67.36Z" id="a8qcD6KUw"></path><path d="M42.5 68.16C42.55 68.13 42.77 67.96 43.19 67.66L43.19 44.89L60.6 44.89L60.6 28.66L43.19 28.66L43.19 22.4C52.81 22.4 58.16 22.4 59.23 22.4C60.97 22.4 61.75 21.26 61.75 20.11C61.75 19.79 61.75 19.29 60.05 12.75C59.46 10.61 58.91 8.37 58.36 6.13C58.34 6.04 58.23 5.63 58.04 4.89C52.01 4.89 48.66 4.89 47.99 4.89C44.88 4.89 41.13 4.85 36.79 4.8C36.06 4.8 32.43 4.8 25.91 4.8L25.91 72.69C27.06 72.49 27.7 72.39 27.83 72.37C30.39 72 33.22 71.36 36.24 70.54C40.53 69.39 41.86 68.62 42.5 68.16Z" id="ccWUb1QMx"></path><path d="M47.24 11.13L30.88 24.8L58.26 7.11L59.59 12.32L29.96 32.07L46.47 24.8L25.85 39.75L25.85 23.06L47.24 11.13Z" id="c7pNFAX29"></path><path d="M32.93 55.2L43.04 53.23L25.85 65.76L25.85 70.01L61.64 45.28L60.5 38.56L32.93 55.2Z" id="b5G4zHxjrJ"></path></defs><g><g><g><use xlink:href="#g1VKRef5CE" opacity="1" fill="#019db2" fill-opacity="1"></use><g><use xlink:href="#g1VKRef5CE" opacity="1" fill-opacity="0" stroke="#000000" stroke-width="1" stroke-opacity="0"></use></g></g><g><use xlink:href="#b3duL2JGJW" opacity="1" fill="#8ed7f0" fill-opacity="1"></use><g><use xlink:href="#b3duL2JGJW" opacity="1" fill-opacity="0" stroke="#000000" stroke-width="1" stroke-opacity="0"></use></g></g><g><use xlink:href="#b1mhkvbqc7" opacity="1" fill="#65cae5" fill-opacity="1"></use><g><use xlink:href="#b1mhkvbqc7" opacity="1" fill-opacity="0" stroke="#000000" stroke-width="1" stroke-opacity="0"></use></g></g><g><use xlink:href="#bpcxf6qX6" opacity="1" fill="#000000" fill-opacity="0"></use><g><use xlink:href="#bpcxf6qX6" opacity="1" fill-opacity="0" stroke="#000000" stroke-width="1" stroke-opacity="0"></use></g></g><g><use xlink:href="#iiGgkiU89" opacity="1" fill="#65cae5" fill-opacity="1"></use><g><use xlink:href="#iiGgkiU89" opacity="1" fill-opacity="0" stroke="#000000" stroke-width="1" stroke-opacity="0"></use></g></g><g><use xlink:href="#cGC6c5JOs" opacity="1" fill="#8ed7f0" fill-opacity="1"></use><g><use xlink:href="#cGC6c5JOs" opacity="1" fill-opacity="0" stroke="#000000" stroke-width="1" stroke-opacity="0"></use></g></g><g><use xlink:href="#b99SG3oDG" opacity="1" fill="#65cae5" fill-opacity="1"></use><g><use xlink:href="#b99SG3oDG" opacity="1" fill-opacity="0" stroke="#000000" stroke-width="1" stroke-opacity="0"></use></g></g><g><use xlink:href="#a8qcD6KUw" opacity="1" fill="#8ed7f0" fill-opacity="1"></use><g><use xlink:href="#a8qcD6KUw" opacity="1" fill-opacity="0" stroke="#000000" stroke-width="1" stroke-opacity="0"></use></g></g><g><use xlink:href="#ccWUb1QMx" opacity="1" fill="#d6f0fc" fill-opacity="1"></use><g><use xlink:href="#ccWUb1QMx" opacity="1" fill-opacity="0" stroke="#000000" stroke-width="1" stroke-opacity="0"></use></g></g><g><use xlink:href="#c7pNFAX29" opacity="1" fill="#bfe6f3" fill-opacity="1"></use><g><use xlink:href="#c7pNFAX29" opacity="1" fill-opacity="0" stroke="#000000" stroke-width="1" stroke-opacity="0"></use></g></g><g><use xlink:href="#b5G4zHxjrJ" opacity="1" fill="#bfe6f3" fill-opacity="1"></use><g><use xlink:href="#b5G4zHxjrJ" opacity="1" fill-opacity="0" stroke="#000000" stroke-width="1" stroke-opacity="0"></use></g></g></g></g></svg>