<?xml version="1.0" encoding="UTF-8" standalone="no"?>
<!DOCTYPE svg PUBLIC "-//W3C//DTD SVG 1.1//EN" "http://www.w3.org/Graphics/SVG/1.1/DTD/svg11.dtd">
<svg version="1.1" xmlns="http://www.w3.org/2000/svg" xmlns:xlink="http://www.w3.org/1999/xlink" preserveAspectRatio="xMidYMid meet" viewBox="0 0 100 100" width="100" height="100"><defs><path d="M290.15 494.31L290.15 494.31L285.85 492.07L285.85 492.07L281.23 489.65L281.23 489.65L275.75 486.77L269.35 496.73L264.5 499.66L261.99 495.77L252.16 486.77L252.16 486.77L252.16 486.77L237.76 494.22L254.4 519.91L234.51 550.67L234.51 550.67L234.51 550.67L234.51 550.67L234.51 550.67L244.3 559.68L259.34 565.76L271.82 546.7L278.35 556.8L278.35 556.8L288.18 565.76L303.18 559.63L283.38 528.87L299.98 503.31L290.15 494.31Z" id="fhBWAIQnn"></path><path d="M512.27 389.62L489.01 446.17L488.91 446.22L474.47 451.57L464.69 442.56L437.99 378.29L455.27 374.77L465.05 383.77L469.26 393.51L480.18 390.77L486.58 374.13L502.49 380.71L512.27 389.62ZM474.51 405.62L476.07 401.65L473.14 402.42L474.51 405.62ZM471.22 398.13L477.99 396.57L479.54 392.5L470.4 396.16L471.22 398.13Z" id="abUTaVxbd"></path><path d="M83.87 37.47L72.4 23.9L63.26 15.49L62.75 14.89L62.66 14.94L62.57 14.89L62.62 14.98L62.62 14.98L62.57 14.89C45.68 27.43 36.29 34.39 34.41 35.78C33.73 36.24 33.22 36.65 32.86 37.02C32.85 37.02 32.82 37.06 32.81 37.06C31.62 38.34 31.03 39.71 31.03 41.22C31.03 42.09 31.26 42.96 31.67 43.83C31.67 43.83 31.67 43.83 31.67 43.83C32.54 46.3 35.69 48.81 38.07 50.41C39.05 51.33 46.87 58.64 47.85 59.55C47.99 59.69 48.08 59.83 48.13 59.97C48.13 59.97 48.08 60.01 48.08 60.01C48.07 60.02 48 60.05 47.99 60.06C47.99 60.06 47.9 60.15 47.67 60.29C46.29 61.28 39.4 66.27 27.01 75.23L39.9 88.72L39.9 88.72L49.68 97.73L78.89 75.42C78.95 75.39 78.98 75.37 78.98 75.37C79.99 74.5 80.67 73.68 81.18 72.81C81.54 72.17 81.77 71.53 81.91 70.89C81.95 70.57 82 70.3 82 69.98C82 68.97 81.68 67.97 81.13 67.05C81.13 67.05 81.09 67.01 81.09 67.01C80.95 66.78 80.67 66.46 80.35 66.05C80.35 66.04 80.34 66.01 80.31 65.95L65.63 52.19L64.63 51.23C64.6 51.21 64.59 51.19 64.58 51.19C64.58 51.19 64.58 51.19 64.58 51.19C64.77 51.05 64.99 50.91 65.31 50.69C67.79 48.92 73.98 44.52 83.87 37.47Z" id="a3q68yzoho"></path><path d="M585.23 374.67L576.14 400.05L568.96 386.42L559.18 377.42L559.18 377.42L559.18 377.42L551.82 396.07L546.93 384.09L537.14 375.09L541.3 385.33L541.3 385.33L537.14 375.09L519.31 379.02L542.81 440.05C542.92 440.18 542.98 440.26 542.99 440.27C543.22 440.55 543.5 440.78 543.73 440.96C544.64 441.79 551.91 448.45 552.82 449.28C553.83 450.42 554.88 450.65 555.57 450.65C556.3 450.65 556.98 450.47 557.58 450.06C557.9 449.87 558.17 449.6 558.49 449.19C558.5 449.18 558.53 449.15 558.58 449.1L567.54 431.31L572.43 440.27C572.52 440.36 572.56 440.4 572.57 440.41C572.85 440.73 573.12 440.91 573.35 441.1C574.25 441.92 581.45 448.54 582.35 449.37C583.27 450.42 584.32 450.65 585.01 450.65C585.6 450.65 586.24 450.47 586.83 450.06C587.06 449.92 587.34 449.74 587.61 449.46C587.63 449.45 587.7 449.37 587.84 449.23L610.7 392.23L600.87 383.22L600.87 383.22L585.23 374.67Z" id="b4IkJfiued"></path><path d="M341.67 392.37L338.47 398.54L338.42 398.67L324.25 398.67L324.25 445.67L306.7 449.87L296.91 440.87L296.91 438.77L296.87 432.05L296.91 432L296.91 398.49L296.37 398.49L295.95 398.72L295.73 398.49L284.3 398.54L274.51 389.53L282.38 373.94L336.82 373.94L346.56 382.9L341.67 392.37Z" id="b10U9ibMRL"></path><path d="M339.34 499.75L350.95 495.13L356.53 486.86L364.07 489.92L367.68 491.38L372.34 493.26L382.08 502.26L359.95 534.81L359.95 561.23L342.95 565.44L333.17 556.43L333.17 526.13L310.08 493.9L326.72 486.86L336.5 495.86L339.34 499.75ZM343.59 505.55L344.09 505.37L346.15 502.31L342.54 504.14L343.59 505.55Z" id="a6zdBToWJZ"></path><path d="M446.31 491.25L446.31 491.25L439.04 491.25L439.04 491.25L398.13 491.25L392.37 508.89L392.37 508.89L392.37 508.89L392.37 508.89L392.37 508.89L402.19 517.9L410.88 517.9L388.94 555.98L388.94 555.98L388.94 555.98L388.94 555.98L388.94 555.98L398.72 564.94L447.22 564.94L447.36 564.94L453.35 547.57L443.52 538.61L443.52 538.61L435.38 538.61L456.14 500.25L446.31 491.25Z" id="e1L4VLUqnD"></path><path d="M391.09 381.21L389.49 382.4L390.08 382.95L390.08 412.25L395.34 409.69L395.34 377.51L413.17 373.99L422.9 382.99L422.9 447.22L405.71 450.42L405.07 450.56L405.07 449.92L401.23 446.63L396.43 450.06L377.55 442.42L377.44 442.37L377.33 442.33L377.22 442.28L377.11 442.23L377.01 442.18L376.9 442.13L376.8 442.09L376.7 442.04L376.6 441.99L376.5 441.94L376.4 441.89L376.31 441.84L376.21 441.79L376.12 441.74L376.03 441.7L375.94 441.65L375.85 441.6L375.76 441.55L375.68 441.5L375.59 441.45L375.51 441.4L375.43 441.34L375.35 441.29L375.27 441.24L375.2 441.19L375.12 441.14L375.05 441.08L374.98 441.03L374.9 440.98L374.84 440.93L374.77 440.87L374.7 440.82L374.63 440.76L374.57 440.71L374.51 440.65L374.45 440.59L374.39 440.54L374.33 440.48L374.27 440.42L374.22 440.37L365.85 432.59L365.44 432.18L365.39 432.14L365.33 432.1L365.3 432.08L365.28 432.06L365.25 432.04L365.22 432.02L365.19 432L365.17 431.98L365.14 431.96L365.11 431.94L365.09 431.92L365.06 431.89L365.03 431.87L365.01 431.85L364.98 431.83L364.95 431.81L364.93 431.79L364.9 431.77L364.88 431.75L364.85 431.73L364.83 431.71L364.8 431.69L364.78 431.67L364.75 431.65L364.73 431.63L364.7 431.61L364.68 431.59L364.66 431.57L364.63 431.55L364.61 431.52L364.59 431.5L364.56 431.48L364.54 431.46L364.52 431.44L364.5 431.42L364.48 431.4L364.46 431.38L364.43 431.36L364.28 431.2L364.12 431.04L363.97 430.88L363.82 430.72L363.68 430.55L363.54 430.37L363.4 430.2L363.27 430.02L363.14 429.83L363.02 429.65L362.9 429.46L362.79 429.27L362.67 429.07L362.57 428.87L362.46 428.67L362.36 428.46L362.27 428.25L362.18 428.04L362.09 427.82L362.01 427.61L361.93 427.38L361.85 427.16L361.78 426.93L361.71 426.7L361.65 426.46L361.59 426.23L361.53 425.99L361.48 425.74L361.44 425.5L361.39 425.25L361.35 424.99L361.32 424.74L361.29 424.48L361.26 424.22L361.24 423.95L361.22 423.68L361.21 423.41L361.2 423.14L361.19 422.86L361.19 422.58L361.19 378.15L380.25 373.9L389.21 382.13L391.09 381.21ZM390.13 424.37L395.38 426.42L395.38 421.81L394.24 422.45L395.38 421.53L395.38 419.2L390.13 422.49L390.13 424.37ZM390.13 417.14L395.38 413.76L395.38 412.11L390.13 414.08L390.13 417.14Z" id="c65FNEcjxQ"></path><path d="M241.23 474.15L243.43 487.09L236.62 490.56L246.54 505.87L246.86 507.89L259.38 507.38L261.53 499.34L251.06 483.15L241.23 474.15Z" id="cMJC8gxP5"></path><path d="M276.89 484.34L274.61 483.11L265.69 497.01L262.45 500.71L261.53 499.34L259.38 507.38L262.67 507.29L272.46 516.25L289.05 490.7L279.22 481.69L276.89 484.34Z" id="b4g02K94z"></path><path d="M249.87 514.88L253.3 516.25L250.01 511.18L249.87 514.88Z" id="a4jnbRyO5h"></path><path d="M249.87 514.88L249.6 522.01L253.3 516.25L249.87 514.88Z" id="cIPQfyTA"></path><path d="M265.97 538.19L267.43 544.14L277.26 553.14L292.3 547.02L282.47 538.06L265.97 538.19Z" id="bBzsY5j7v"></path><path d="M272.46 516.25L262.67 507.29L246.86 507.89L247.09 509.03L244.21 512.55L249.87 514.88L250.01 511.18L253.3 516.25L262.35 531.84L262.86 531.02L265.01 534.31L265.97 538.19L282.47 538.06L292.3 547.02L272.46 516.25Z" id="b9uUxyGdf"></path><path d="M223.59 538.06L233.37 547.06L248.41 553.14L238.63 544.14L223.82 537.78L223.59 538.06Z" id="cxWhovjZD"></path><path d="M249.87 514.88L244.21 512.55L223.82 537.78L238.63 544.14L248.41 553.14L262.35 531.84L253.3 516.25L249.6 522.01L249.87 514.88Z" id="f4uf8c7bc2"></path><path d="M264.82 474.15L253.07 492.43L241.23 474.15L226.83 481.6L243.47 507.29L223.59 538.06L238.63 544.14L253.07 522.06L267.43 544.14L282.47 538.06L262.67 507.29L279.22 481.69L264.82 474.15Z" id="a19GHrCCjc"></path><path d="M247.04 488.73L238.95 495.73L270.31 477.03L274.93 479.45L248.41 496.32L264.14 489.55L241.55 504.27L236.02 495.73L247.04 488.73Z" id="b1LfnEIYAw"></path><path d="M253.03 518.35L265.33 514.29L238.08 534.45L269.35 517.67L264.55 510.17L253.03 518.35Z" id="f4jzAxMbt1"></path><path d="M457.37 424.09L453.76 429.99L463.59 438.99L478.03 433.65L468.3 424.64L456.91 422.95L457.37 424.09Z" id="d6rttJgnq2"></path><path d="M491.57 368.09L489.14 372.07L485.49 370.51L477.62 390.95L468.89 405.26L454.13 371.2L444.34 362.19L448.69 372.3L436.89 374.72L456.91 422.95L468.3 424.64L478.03 433.65L478.13 433.6L501.39 377.1L491.57 368.09Z" id="dJu5SP7tD"></path><path d="M444.34 362.19L427.06 365.76L453.76 429.99L468.3 424.64L491.57 368.09L475.66 361.55L460.8 400.27L444.34 362.19Z" id="b8eVQjUrn"></path><path d="M452.48 404.34L475.52 402.15L448.69 410.06L475.84 406.31L479.54 397.35L452.48 404.34Z" id="bzX8qjGxK"></path><path d="M448.46 380.94L439.68 385.65L478.67 375.82L446.77 388.66L486.99 379.29L485.12 383.77L439.54 395.75L435.06 384.96L448.46 380.94Z" id="a5JMxhkf4v"></path><path d="M61.43 11.28L51.65 2.27L60.1 12.29L58.14 13.7L63.12 15.9L72.9 24.86L61.43 11.28Z" id="b4U49iSth"></path><path d="M54.66 39.53L53.66 38.57C53.63 38.54 53.61 38.53 53.61 38.53C53.61 38.53 53.61 38.53 53.61 38.53C53.79 38.39 54.02 38.25 54.34 38.07C55.58 37.19 61.77 32.78 72.9 24.86L63.12 15.85L58.14 13.7L37.52 28.97L43.83 29.57L48.31 39.21L54.66 39.53Z" id="b1me2dHe9T"></path><path d="M46.75 55.99C46.89 56.13 46.98 56.26 47.03 56.4C47.03 56.4 46.98 56.45 46.98 56.45C46.97 56.45 46.9 56.49 46.89 56.49C46.89 56.49 46.8 56.58 46.57 56.72C45.19 57.72 38.31 62.7 25.91 71.67L29.7 75.65L29.02 76.15L38.8 85.15L68.01 62.85C68.07 62.82 68.1 62.8 68.1 62.8C69.11 61.93 69.79 61.11 70.3 60.24C70.66 59.6 70.89 58.96 71.03 58.32C70.38 57.7 67.13 54.59 61.29 48.99L41.95 51.51C44.83 54.2 46.43 55.69 46.75 55.99Z" id="a2gWkYKH23"></path><path d="M70.21 54.48C70.02 54.21 69.79 53.89 69.47 53.52C69.47 53.51 69.46 53.48 69.43 53.43L54.71 39.53L48.35 39.21L43.87 29.57L37.57 28.97C34.99 30.86 33.56 31.92 33.27 32.13C32.58 32.58 32.08 32.99 31.71 33.36C31.71 33.36 31.67 33.4 31.67 33.41C30.48 34.69 29.89 36.06 29.89 37.57C29.89 38.98 30.48 40.4 31.62 41.77C31.63 41.78 31.64 41.81 31.67 41.86L41.91 51.46L61.2 48.95C67.04 54.54 70.29 57.65 70.94 58.27C70.98 57.95 71.03 57.68 71.03 57.36C71.07 56.4 70.8 55.39 70.21 54.48C70.21 54.48 70.21 54.48 70.21 54.48Z" id="c1a8UJ7dF"></path><path d="M36.79 47.76C35.41 48.76 28.52 53.74 16.13 62.71L29.02 76.19L58.23 53.89C58.28 53.86 58.31 53.84 58.32 53.84C59.33 52.97 60.01 52.15 60.51 51.28C61.06 50.37 61.29 49.41 61.29 48.45C61.29 47.44 60.97 46.43 60.42 45.52C60.42 45.52 60.38 45.48 60.38 45.47C60.24 45.25 59.97 44.93 59.65 44.51C59.64 44.51 59.63 44.48 59.6 44.42L43.87 29.61C43.85 29.58 43.83 29.57 43.83 29.57C43.83 29.57 43.83 29.57 43.83 29.57C44.01 29.43 44.24 29.29 44.56 29.11C45.8 28.23 51.98 23.82 63.12 15.9L51.65 2.32C34.75 14.85 25.36 21.82 23.49 23.21C22.8 23.67 22.3 24.08 21.93 24.45C21.93 24.45 21.89 24.49 21.89 24.49C20.7 25.77 20.1 27.14 20.1 28.65C20.1 30.07 20.7 31.49 21.84 32.86C21.84 32.86 21.86 32.89 21.89 32.95C30.91 41.4 35.92 46.09 36.93 47.03C37.06 47.17 37.15 47.3 37.2 47.44C37.2 47.44 37.15 47.49 37.15 47.49C37.15 47.49 37.14 47.5 37.11 47.53C37.05 47.59 36.94 47.67 36.79 47.76Z" id="g1mbAqtmQg"></path><path d="M39.58 19.42L29.89 32.08L57.91 12.47C41.09 28.73 31.75 37.77 29.89 39.58C29.89 39.53 22.21 35.33 20.74 31.21C23.25 29.64 29.53 25.71 39.58 19.42Z" id="awox82M9d"></path><path d="M29.89 67.05C38.88 65.24 43.88 64.24 44.88 64.03C44.88 64.03 58.73 57.22 59.87 52.06C55.88 54.06 45.88 59.05 29.89 67.05Z" id="gADI0qRwk"></path><path d="M558.95 419.7L560.41 416.73L558.95 414.03L557.44 417.01L558.95 419.7Z" id="b64QsYsGTt"></path><path d="M536.59 423.36L532.02 427.7C537.89 433.11 541.15 436.11 541.81 436.71C542.81 437.85 543.86 438.08 544.55 438.08C545.28 438.08 545.97 437.9 546.56 437.49C546.88 437.3 547.15 437.03 547.47 436.62C547.48 436.61 547.51 436.58 547.57 436.53L557.39 417.05L549.85 403.38L531.47 410.06L536.59 423.36Z" id="g2n1VOxzGK"></path><path d="M548.25 364.85L554.42 382.99L547.66 400.09L536 371.52L526.17 362.51L530.38 372.75L518.13 375.45L531.47 410.06L549.9 403.34L557.44 417.01L558.95 414.03L560.41 416.73L570.19 396.8L558.03 373.81L548.25 364.85Z" id="a5fzpgBA"></path><path d="M588.75 373.58L584.14 371.06L572.98 402.19L570.15 396.85L560.41 416.73L565.53 426.1L561.46 427.66C567.41 433.14 570.72 436.19 571.38 436.8C572.3 437.85 573.35 438.08 574.03 438.08C574.63 438.08 575.27 437.9 575.86 437.49C576.09 437.35 576.37 437.17 576.64 436.89C576.66 436.88 576.73 436.8 576.87 436.66L599.73 379.66L589.94 370.61L588.75 373.58Z" id="jhRyGm8zI"></path><path d="" id="bOdzLEhEQ"></path><path d="M548.25 364.85L537.83 391.13L526.17 362.51L508.34 366.45L531.84 427.47C531.95 427.61 532.01 427.69 532.02 427.7C533.03 428.85 534.08 429.07 534.77 429.07C535.5 429.07 536.18 428.89 536.78 428.48C537.1 428.3 537.37 428.02 537.69 427.61C537.7 427.61 537.73 427.57 537.78 427.52L549.12 405.07L561.46 427.66C561.55 427.74 561.59 427.79 561.6 427.79C562.51 428.85 563.57 429.07 564.25 429.07C564.85 429.07 565.49 428.89 566.08 428.48C566.31 428.34 566.58 428.16 566.86 427.89C566.87 427.87 566.95 427.79 567.09 427.66L589.94 370.65L574.31 362.1L563.2 393.19L548.25 364.85Z" id="aInAWiS5"></path><path d="M530.47 383.18L521.05 390.95L558.95 379.29L525.67 395.02L539.66 393.83L521.14 399.68L517.3 389.76L530.47 383.18Z" id="c2MLonZ2Bg"></path><path d="M576.82 403.34L541.81 417.01L564.43 404.39L527.73 416.82C526.79 414.38 526.28 413.03 526.17 412.75C526.17 412.75 575.45 395.38 574.63 395.02C573.81 394.65 555.02 395.79 555.02 395.79C556.83 395.39 565.92 393.38 582.26 389.76L576.82 403.34Z" id="h4JATdwCuw"></path><path d="M295.77 421.71L303.54 423.59L313.33 432.78L313.33 386.06L303.54 377.05L295.77 385.97L295.77 421.71Z" id="b2b9bP3y5e"></path><path d="M295.77 425.87L285.99 428.25L295.77 437.21L313.33 433.05L313.33 432.78L303.54 423.59L295.77 421.71L295.77 425.87Z" id="ajggJrhEV"></path><path d="M325.9 361.28L321.23 370.29C316.35 370.29 313.64 370.29 313.1 370.29C315.29 373.53 317.71 377.05 317.71 377.05C318.37 377.64 321.66 380.6 327.59 385.92L330.79 379.75L335.68 370.29L325.9 361.28Z" id="aNp1YNnf7"></path><path d="M281.23 370.29L277.94 376.82L263.59 376.87L273.37 385.87L295.77 385.78L295.77 385.97L303.54 377.05L313.33 386.06L327.5 386.06L327.54 385.92C321.65 380.6 318.37 377.64 317.71 377.05C317.71 377.05 315.29 373.53 313.1 370.29C308.85 370.29 298.23 370.29 281.23 370.29Z" id="eGmkNUgwG"></path><path d="M303.54 377.05L317.71 377.05L325.9 361.33L271.45 361.33L263.59 376.91L285.99 376.82L285.99 428.25L303.54 424.05L303.54 377.05Z" id="g26NLneGjl"></path><path d="M292.57 404.94L303.54 398.4L303.54 393.55L292.57 404.94Z" id="a36vnzFatn"></path><path d="M300.57 409.37L292.57 417.19L303.54 410.7L303.54 415.45L285.99 426.15L285.94 419.43L300.57 409.37Z" id="b1e8B9RjyM"></path><path d="M295.77 367.86L287.13 374.63L317.81 361.46L320.55 361.33L289.1 379.02L308.34 373.62L285.03 386.06L274.79 376.55L295.77 367.86Z" id="a4JV4gk4D"></path><path d="M361.42 480.64L358.72 484.57L355.43 483.25L341.07 504.5L340.98 504.37L339.57 513.51L349.07 522.19L371.2 489.65L361.42 480.64Z" id="guwNksFJ5"></path><path d="M315.84 474.24L323.15 484.3L308.98 490.29C319.68 505.23 325.62 513.54 326.81 515.2C332.66 514.33 339.25 513.23 339.25 513.23C339.27 513.25 339.37 513.34 339.57 513.51L340.98 504.37L325.62 483.25L315.84 474.24Z" id="c1rnbTMQbc"></path><path d="M332.02 541.39L322.24 543.82L332.02 552.82L349.07 548.57L349.07 548.48L339.25 539.61L332.02 540.71L332.02 541.39Z" id="g1S0UVUUxl"></path><path d="M339.25 513.23C339.25 513.23 332.62 514.33 326.81 515.2C327.16 515.69 328.91 518.13 332.07 522.51L332.07 540.71L339.29 539.57L349.07 548.48L349.07 522.19L349.07 522.19C343.18 516.82 339.9 513.83 339.25 513.23Z" id="de93qoq3K"></path><path d="M315.79 474.29L299.15 481.33L322.24 513.51L322.24 543.82L339.25 539.61L339.25 513.23L361.42 480.64L345.6 474.29L331.29 495.54L315.79 474.29Z" id="bSKmWL0DZ"></path><path d="M329.55 522.19L338.56 520.27L322.24 532.85L322.24 535.95L339.57 524.75L339.25 516.25L329.55 522.19Z" id="d5mvlEHwC"></path><path d="M334.72 506.1L347.06 501.71L350.03 497.37L334.72 506.1Z" id="a16DH7GlbS"></path><path d="M321.78 486.58L314.15 492.85L353.14 477.3L356.75 478.77L316.89 498.97L345.1 488.14L316.16 505.1L308.02 493.67L321.78 486.58Z" id="c1l1tsUSzQ"></path><path d="M435.38 478.63L414.95 505.23L399.77 531.57L423.36 528L445.21 487.59L435.38 478.63Z" id="a1Q17eOSCC"></path><path d="M423.36 528L399.77 531.57L397.26 535.95L426.65 543.36L436.3 552.32L436.43 552.32L442.42 534.95L432.59 525.94L422.77 529.1L423.36 528Z" id="b1MUgtLOwG"></path><path d="M396.34 537.51L378.01 543.36L387.79 552.32L436.3 552.32L426.65 543.36L397.26 535.95L396.34 537.51Z" id="e2D7YjF0al"></path><path d="M396.98 487.59L395.7 491.61L381.44 496.27L391.27 505.23L414.95 505.23L435.38 478.63L407.91 487.59L396.98 487.59Z" id="cCLWUtQjX"></path><path d="M381.44 496.27L405.12 496.27L378.01 543.36L426.65 543.36L432.59 525.94L409.78 525.94L435.38 478.63L387.2 478.63L381.44 496.27Z" id="a3POuye9LU"></path><path d="M406.67 486.45L396.34 492.62L428.11 478.63L435.38 478.63L405.21 493.94L426.51 485.49L402.88 500.16L405.12 496.27L381.44 496.27L406.67 486.45Z" id="a1SoeYfMaX"></path><path d="M402.24 516.25L418.97 509.03L422.49 503.36L402.24 516.25Z" id="blfTdw4y0"></path><path d="M412.34 527.13L396.43 539.15L419.84 526.08L425.69 526.08L397.26 543.36L378.01 543.36L412.34 527.13Z" id="a6F0CMqAG"></path><path d="M394.24 421.17L387.75 417.51L387.02 420.02L394.24 422.81L394.24 421.17Z" id="b29nu5vAhh"></path><path d="M379.61 416.96C379.62 416.97 379.69 417.04 379.7 417.05C379.7 417.05 379.89 417.19 380.53 417.51C380.61 417.54 381.02 417.69 381.76 417.97L383.31 415.22L379.2 415.22L379.2 415.59L379.15 415.77C379.12 416.29 379.28 416.69 379.61 416.96Z" id="a3YMpyVah"></path><path d="M387.75 417.51L383.68 415.22L383.27 415.22L381.76 417.97L387.02 420.02L387.75 417.51Z" id="bcq99n7Zq"></path><path d="M369.37 361.33L369.37 372.48L360.09 374.54L360.09 415.22L379.2 415.22L379.2 370.33L369.37 361.33Z" id="bLr9x3YGi"></path><path d="M394.24 422.81L387.02 420.02L384.46 428.98L390.4 434.01L394.24 437.3L394.24 437.94L394.88 437.85L412.07 434.65L402.29 425.65L394.24 421.17L394.24 422.81Z" id="dlJMpYSI9"></path><path d="M381.71 417.97L375.77 428.48L385.92 437.21L375.77 428.48L381.71 417.97C380.97 417.69 380.56 417.54 380.48 417.51C379.84 417.23 379.66 417.05 379.66 417.05C379.65 417.04 379.57 416.97 379.57 416.96C379.06 416.5 379.02 416.18 379.11 415.77C379.11 415.76 379.13 415.7 379.15 415.59L379.15 415.22L360.09 415.22C360.09 417.47 360.09 418.72 360.09 418.97C360.09 419.98 360.18 420.89 360.32 421.81C359.82 421.55 357.32 420.29 352.82 418.01C359.13 423.88 362.64 427.14 363.34 427.79C364.07 428.57 365.17 429.21 366.67 429.85C367.93 430.36 374.23 432.91 385.55 437.49L390.35 434.06L384.41 428.98L387.02 420.02L381.71 417.97Z" id="ayTKA5HUJ"></path><path d="M402.29 372.3L394.24 373.85L394.24 421.17L402.29 425.65L412.07 434.65L412.07 370.33L402.29 361.37L402.29 372.3Z" id="eLtFXS8Sz"></path><path d="M384.46 413.85C376.23 410.67 371.66 408.9 370.74 408.55C370.1 408.27 369.92 408.09 369.92 408.09C369.91 408.08 369.84 408.01 369.83 408C369.33 407.54 369.28 407.22 369.37 406.81C369.37 406.8 369.39 406.74 369.42 406.63L369.42 361.37L350.35 365.62C350.35 392.28 350.35 407.09 350.35 410.06C350.35 413.81 351.45 416.78 353.6 418.83C354.33 419.61 355.43 420.25 356.94 420.89C358.2 421.4 364.49 423.95 375.82 428.53L384.46 422.31L384.46 429.03L402.29 425.74L402.29 361.37L384.46 364.89L384.46 413.85Z" id="b1nuAnJDak"></path><path d="M396.85 416.59L384.46 428.98L384.46 423.77L396.85 416.59Z" id="admqBt8ew"></path><path d="M365.9 371.43L355.25 381.07L380.21 368.59L357.35 385.37L369.65 380.16L369.37 383.31L350.31 393.97L350.31 381.07L365.9 371.43Z" id="iiIN3RGQf"></path><path d="M363.61 407.27L390.63 397.17L355.02 420.02L359.82 422.03L396.57 399.09L383.27 409.87L402.29 399.36L402.29 388.3L363.61 407.27Z" id="bmqCSnTUy"></path></defs><g><g><g><use xlink:href="#fhBWAIQnn" opacity="1" fill="#019db2" fill-opacity="1"></use><g><use xlink:href="#fhBWAIQnn" opacity="1" fill-opacity="0" stroke="#000000" stroke-width="1" stroke-opacity="0"></use></g></g><g><use xlink:href="#abUTaVxbd" opacity="1" fill="#019db2" fill-opacity="1"></use><g><use xlink:href="#abUTaVxbd" opacity="1" fill-opacity="0" stroke="#000000" stroke-width="1" stroke-opacity="0"></use></g></g><g><use xlink:href="#a3q68yzoho" opacity="1" fill="#019db2" fill-opacity="1"></use><g><use xlink:href="#a3q68yzoho" opacity="1" fill-opacity="0" stroke="#000000" stroke-width="1" stroke-opacity="0"></use></g></g><g><use xlink:href="#b4IkJfiued" opacity="1" fill="#019db2" fill-opacity="1"></use><g><use xlink:href="#b4IkJfiued" opacity="1" fill-opacity="0" stroke="#000000" stroke-width="1" stroke-opacity="0"></use></g></g><g><use xlink:href="#b10U9ibMRL" opacity="1" fill="#019db2" fill-opacity="1"></use><g><use xlink:href="#b10U9ibMRL" opacity="1" fill-opacity="0" stroke="#000000" stroke-width="1" stroke-opacity="0"></use></g></g><g><use xlink:href="#a6zdBToWJZ" opacity="1" fill="#019db2" fill-opacity="1"></use><g><use xlink:href="#a6zdBToWJZ" opacity="1" fill-opacity="0" stroke="#000000" stroke-width="1" stroke-opacity="0"></use></g></g><g><use xlink:href="#e1L4VLUqnD" opacity="1" fill="#019db2" fill-opacity="1"></use><g><use xlink:href="#e1L4VLUqnD" opacity="1" fill-opacity="0" stroke="#000000" stroke-width="1" stroke-opacity="0"></use></g></g><g><use xlink:href="#c65FNEcjxQ" opacity="1" fill="#019db2" fill-opacity="1"></use><g><use xlink:href="#c65FNEcjxQ" opacity="1" fill-opacity="0" stroke="#000000" stroke-width="1" stroke-opacity="0"></use></g></g><g><use xlink:href="#cMJC8gxP5" opacity="1" fill="#8ed7f0" fill-opacity="1"></use><g><use xlink:href="#cMJC8gxP5" opacity="1" fill-opacity="0" stroke="#000000" stroke-width="1" stroke-opacity="0"></use></g></g><g><use xlink:href="#b4g02K94z" opacity="1" fill="#65cae5" fill-opacity="1"></use><g><use xlink:href="#b4g02K94z" opacity="1" fill-opacity="0" stroke="#000000" stroke-width="1" stroke-opacity="0"></use></g></g><g><use xlink:href="#a4jnbRyO5h" opacity="1" fill="#000000" fill-opacity="0"></use><g><use xlink:href="#a4jnbRyO5h" opacity="1" fill-opacity="0" stroke="#000000" stroke-width="1" stroke-opacity="0"></use></g></g><g><use xlink:href="#cIPQfyTA" opacity="1" fill="#000000" fill-opacity="0"></use><g><use xlink:href="#cIPQfyTA" opacity="1" fill-opacity="0" stroke="#000000" stroke-width="1" stroke-opacity="0"></use></g></g><g><use xlink:href="#bBzsY5j7v" opacity="1" fill="#65cae5" fill-opacity="1"></use><g><use xlink:href="#bBzsY5j7v" opacity="1" fill-opacity="0" stroke="#000000" stroke-width="1" stroke-opacity="0"></use></g></g><g><use xlink:href="#b9uUxyGdf" opacity="1" fill="#8ed7f0" fill-opacity="1"></use><g><use xlink:href="#b9uUxyGdf" opacity="1" fill-opacity="0" stroke="#000000" stroke-width="1" stroke-opacity="0"></use></g></g><g><use xlink:href="#cxWhovjZD" opacity="1" fill="#65cae5" fill-opacity="1"></use><g><use xlink:href="#cxWhovjZD" opacity="1" fill-opacity="0" stroke="#000000" stroke-width="1" stroke-opacity="0"></use></g></g><g><use xlink:href="#f4uf8c7bc2" opacity="1" fill="#65cae5" fill-opacity="1"></use><g><use xlink:href="#f4uf8c7bc2" opacity="1" fill-opacity="0" stroke="#000000" stroke-width="1" stroke-opacity="0"></use></g></g><g><use xlink:href="#a19GHrCCjc" opacity="1" fill="#d6f0fc" fill-opacity="1"></use><g><use xlink:href="#a19GHrCCjc" opacity="1" fill-opacity="0" stroke="#000000" stroke-width="1" stroke-opacity="0"></use></g></g><g><use xlink:href="#b1LfnEIYAw" opacity="1" fill="#bfe6f3" fill-opacity="1"></use><g><use xlink:href="#b1LfnEIYAw" opacity="1" fill-opacity="0" stroke="#000000" stroke-width="1" stroke-opacity="0"></use></g></g><g><use xlink:href="#f4jzAxMbt1" opacity="1" fill="#bfe6f3" fill-opacity="1"></use><g><use xlink:href="#f4jzAxMbt1" opacity="1" fill-opacity="0" stroke="#000000" stroke-width="1" stroke-opacity="0"></use></g></g><g><use xlink:href="#d6rttJgnq2" opacity="1" fill="#65cae5" fill-opacity="1"></use><g><use xlink:href="#d6rttJgnq2" opacity="1" fill-opacity="0" stroke="#000000" stroke-width="1" stroke-opacity="0"></use></g></g><g><use xlink:href="#dJu5SP7tD" opacity="1" fill="#8ed7f0" fill-opacity="1"></use><g><use xlink:href="#dJu5SP7tD" opacity="1" fill-opacity="0" stroke="#000000" stroke-width="1" stroke-opacity="0"></use></g></g><g><use xlink:href="#b8eVQjUrn" opacity="1" fill="#d6f0fc" fill-opacity="1"></use><g><use xlink:href="#b8eVQjUrn" opacity="1" fill-opacity="0" stroke="#000000" stroke-width="1" stroke-opacity="0"></use></g></g><g><use xlink:href="#bzX8qjGxK" opacity="1" fill="#bfe6f3" fill-opacity="1"></use><g><use xlink:href="#bzX8qjGxK" opacity="1" fill-opacity="0" stroke="#000000" stroke-width="1" stroke-opacity="0"></use></g></g><g><use xlink:href="#a5JMxhkf4v" opacity="1" fill="#bfe6f3" fill-opacity="1"></use><g><use xlink:href="#a5JMxhkf4v" opacity="1" fill-opacity="0" stroke="#000000" stroke-width="1" stroke-opacity="0"></use></g></g><g><use xlink:href="#b4U49iSth" opacity="1" fill="#8ed7f0" fill-opacity="1"></use><g><use xlink:href="#b4U49iSth" opacity="1" fill-opacity="0" stroke="#000000" stroke-width="1" stroke-opacity="0"></use></g></g><g><use xlink:href="#b1me2dHe9T" opacity="1" fill="#65cae5" fill-opacity="1"></use><g><use xlink:href="#b1me2dHe9T" opacity="1" fill-opacity="0" stroke="#000000" stroke-width="1" stroke-opacity="0"></use></g></g><g><use xlink:href="#a2gWkYKH23" opacity="1" fill="#65cae5" fill-opacity="1"></use><g><use xlink:href="#a2gWkYKH23" opacity="1" fill-opacity="0" stroke="#000000" stroke-width="1" stroke-opacity="0"></use></g></g><g><use xlink:href="#c1a8UJ7dF" opacity="1" fill="#8ed7f0" fill-opacity="1"></use><g><use xlink:href="#c1a8UJ7dF" opacity="1" fill-opacity="0" stroke="#000000" stroke-width="1" stroke-opacity="0"></use></g></g><g><use xlink:href="#g1mbAqtmQg" opacity="1" fill="#d6f0fc" fill-opacity="1"></use><g><use xlink:href="#g1mbAqtmQg" opacity="1" fill-opacity="0" stroke="#000000" stroke-width="1" stroke-opacity="0"></use></g></g><g><use xlink:href="#awox82M9d" opacity="1" fill="#bfe6f3" fill-opacity="1"></use><g><use xlink:href="#awox82M9d" opacity="1" fill-opacity="0" stroke="#000000" stroke-width="1" stroke-opacity="0"></use></g></g><g><use xlink:href="#gADI0qRwk" opacity="1" fill="#bfe6f3" fill-opacity="1"></use><g><use xlink:href="#gADI0qRwk" opacity="1" fill-opacity="0" stroke="#000000" stroke-width="1" stroke-opacity="0"></use></g></g><g><use xlink:href="#b64QsYsGTt" opacity="1" fill="#000000" fill-opacity="0"></use><g><use xlink:href="#b64QsYsGTt" opacity="1" fill-opacity="0" stroke="#000000" stroke-width="1" stroke-opacity="0"></use></g></g><g><use xlink:href="#g2n1VOxzGK" opacity="1" fill="#65cae5" fill-opacity="1"></use><g><use xlink:href="#g2n1VOxzGK" opacity="1" fill-opacity="0" stroke="#000000" stroke-width="1" stroke-opacity="0"></use></g></g><g><use xlink:href="#a5fzpgBA" opacity="1" fill="#8ed7f0" fill-opacity="1"></use><g><use xlink:href="#a5fzpgBA" opacity="1" fill-opacity="0" stroke="#000000" stroke-width="1" stroke-opacity="0"></use></g></g><g><use xlink:href="#jhRyGm8zI" opacity="1" fill="#65cae5" fill-opacity="1"></use><g><use xlink:href="#jhRyGm8zI" opacity="1" fill-opacity="0" stroke="#000000" stroke-width="1" stroke-opacity="0"></use></g></g><g><use xlink:href="#bOdzLEhEQ" opacity="1" fill="#8ed7f0" fill-opacity="1"></use><g><use xlink:href="#bOdzLEhEQ" opacity="1" fill-opacity="0" stroke="#000000" stroke-width="1" stroke-opacity="0"></use></g></g><g><use xlink:href="#aInAWiS5" opacity="1" fill="#d6f0fc" fill-opacity="1"></use><g><use xlink:href="#aInAWiS5" opacity="1" fill-opacity="0" stroke="#000000" stroke-width="1" stroke-opacity="0"></use></g></g><g><use xlink:href="#c2MLonZ2Bg" opacity="1" fill="#bfe6f3" fill-opacity="1"></use><g><use xlink:href="#c2MLonZ2Bg" opacity="1" fill-opacity="0" stroke="#000000" stroke-width="1" stroke-opacity="0"></use></g></g><g><use xlink:href="#h4JATdwCuw" opacity="1" fill="#bfe6f3" fill-opacity="1"></use><g><use xlink:href="#h4JATdwCuw" opacity="1" fill-opacity="0" stroke="#000000" stroke-width="1" stroke-opacity="0"></use></g></g><g><use xlink:href="#b2b9bP3y5e" opacity="1" fill="#8ed7f0" fill-opacity="1"></use><g><use xlink:href="#b2b9bP3y5e" opacity="1" fill-opacity="0" stroke="#000000" stroke-width="1" stroke-opacity="0"></use></g></g><g><use xlink:href="#ajggJrhEV" opacity="1" fill="#65cae5" fill-opacity="1"></use><g><use xlink:href="#ajggJrhEV" opacity="1" fill-opacity="0" stroke="#000000" stroke-width="1" stroke-opacity="0"></use></g></g><g><use xlink:href="#aNp1YNnf7" opacity="1" fill="#8ed7f0" fill-opacity="1"></use><g><use xlink:href="#aNp1YNnf7" opacity="1" fill-opacity="0" stroke="#000000" stroke-width="1" stroke-opacity="0"></use></g></g><g><use xlink:href="#eGmkNUgwG" opacity="1" fill="#65cae5" fill-opacity="1"></use><g><use xlink:href="#eGmkNUgwG" opacity="1" fill-opacity="0" stroke="#000000" stroke-width="1" stroke-opacity="0"></use></g></g><g><use xlink:href="#g26NLneGjl" opacity="1" fill="#d6f0fc" fill-opacity="1"></use><g><use xlink:href="#g26NLneGjl" opacity="1" fill-opacity="0" stroke="#000000" stroke-width="1" stroke-opacity="0"></use></g></g><g><use xlink:href="#a36vnzFatn" opacity="1" fill="#bfe6f3" fill-opacity="1"></use><g><use xlink:href="#a36vnzFatn" opacity="1" fill-opacity="0" stroke="#000000" stroke-width="1" stroke-opacity="0"></use></g></g><g><use xlink:href="#b1e8B9RjyM" opacity="1" fill="#bfe6f3" fill-opacity="1"></use><g><use xlink:href="#b1e8B9RjyM" opacity="1" fill-opacity="0" stroke="#000000" stroke-width="1" stroke-opacity="0"></use></g></g><g><use xlink:href="#a4JV4gk4D" opacity="1" fill="#bfe6f3" fill-opacity="1"></use><g><use xlink:href="#a4JV4gk4D" opacity="1" fill-opacity="0" stroke="#000000" stroke-width="1" stroke-opacity="0"></use></g></g><g><use xlink:href="#guwNksFJ5" opacity="1" fill="#65cae5" fill-opacity="1"></use><g><use xlink:href="#guwNksFJ5" opacity="1" fill-opacity="0" stroke="#000000" stroke-width="1" stroke-opacity="0"></use></g></g><g><use xlink:href="#c1rnbTMQbc" opacity="1" fill="#8ed7f0" fill-opacity="1"></use><g><use xlink:href="#c1rnbTMQbc" opacity="1" fill-opacity="0" stroke="#000000" stroke-width="1" stroke-opacity="0"></use></g></g><g><use xlink:href="#g1S0UVUUxl" opacity="1" fill="#65cae5" fill-opacity="1"></use><g><use xlink:href="#g1S0UVUUxl" opacity="1" fill-opacity="0" stroke="#000000" stroke-width="1" stroke-opacity="0"></use></g></g><g><use xlink:href="#de93qoq3K" opacity="1" fill="#8ed7f0" fill-opacity="1"></use><g><use xlink:href="#de93qoq3K" opacity="1" fill-opacity="0" stroke="#000000" stroke-width="1" stroke-opacity="0"></use></g></g><g><use xlink:href="#bSKmWL0DZ" opacity="1" fill="#d6f0fc" fill-opacity="1"></use><g><use xlink:href="#bSKmWL0DZ" opacity="1" fill-opacity="0" stroke="#000000" stroke-width="1" stroke-opacity="0"></use></g></g><g><use xlink:href="#d5mvlEHwC" opacity="1" fill="#bfe6f3" fill-opacity="1"></use><g><use xlink:href="#d5mvlEHwC" opacity="1" fill-opacity="0" stroke="#000000" stroke-width="1" stroke-opacity="0"></use></g></g><g><use xlink:href="#a16DH7GlbS" opacity="1" fill="#bfe6f3" fill-opacity="1"></use><g><use xlink:href="#a16DH7GlbS" opacity="1" fill-opacity="0" stroke="#000000" stroke-width="1" stroke-opacity="0"></use></g></g><g><use xlink:href="#c1l1tsUSzQ" opacity="1" fill="#bfe6f3" fill-opacity="1"></use><g><use xlink:href="#c1l1tsUSzQ" opacity="1" fill-opacity="0" stroke="#000000" stroke-width="1" stroke-opacity="0"></use></g></g><g><use xlink:href="#a1Q17eOSCC" opacity="1" fill="#65cae5" fill-opacity="1"></use><g><use xlink:href="#a1Q17eOSCC" opacity="1" fill-opacity="0" stroke="#000000" stroke-width="1" stroke-opacity="0"></use></g></g><g><use xlink:href="#b1MUgtLOwG" opacity="1" fill="#8ed7f0" fill-opacity="1"></use><g><use xlink:href="#b1MUgtLOwG" opacity="1" fill-opacity="0" stroke="#000000" stroke-width="1" stroke-opacity="0"></use></g></g><g><use xlink:href="#e2D7YjF0al" opacity="1" fill="#65cae5" fill-opacity="1"></use><g><use xlink:href="#e2D7YjF0al" opacity="1" fill-opacity="0" stroke="#000000" stroke-width="1" stroke-opacity="0"></use></g></g><g><use xlink:href="#cCLWUtQjX" opacity="1" fill="#65cae5" fill-opacity="1"></use><g><use xlink:href="#cCLWUtQjX" opacity="1" fill-opacity="0" stroke="#000000" stroke-width="1" stroke-opacity="0"></use></g></g><g><use xlink:href="#a3POuye9LU" opacity="1" fill="#d6f0fc" fill-opacity="1"></use><g><use xlink:href="#a3POuye9LU" opacity="1" fill-opacity="0" stroke="#000000" stroke-width="1" stroke-opacity="0"></use></g></g><g><use xlink:href="#a1SoeYfMaX" opacity="1" fill="#bfe6f3" fill-opacity="1"></use><g><use xlink:href="#a1SoeYfMaX" opacity="1" fill-opacity="0" stroke="#000000" stroke-width="1" stroke-opacity="0"></use></g></g><g><use xlink:href="#blfTdw4y0" opacity="1" fill="#bfe6f3" fill-opacity="1"></use><g><use xlink:href="#blfTdw4y0" opacity="1" fill-opacity="0" stroke="#000000" stroke-width="1" stroke-opacity="0"></use></g></g><g><use xlink:href="#a6F0CMqAG" opacity="1" fill="#bfe6f3" fill-opacity="1"></use><g><use xlink:href="#a6F0CMqAG" opacity="1" fill-opacity="0" stroke="#000000" stroke-width="1" stroke-opacity="0"></use></g></g><g><use xlink:href="#b29nu5vAhh" opacity="1" fill="#000000" fill-opacity="0"></use><g><use xlink:href="#b29nu5vAhh" opacity="1" fill-opacity="0" stroke="#000000" stroke-width="1" stroke-opacity="0"></use></g></g><g><use xlink:href="#a3YMpyVah" opacity="1" fill="#000000" fill-opacity="0"></use><g><use xlink:href="#a3YMpyVah" opacity="1" fill-opacity="0" stroke="#000000" stroke-width="1" stroke-opacity="0"></use></g></g><g><use xlink:href="#bcq99n7Zq" opacity="1" fill="#000000" fill-opacity="0"></use><g><use xlink:href="#bcq99n7Zq" opacity="1" fill-opacity="0" stroke="#000000" stroke-width="1" stroke-opacity="0"></use></g></g><g><use xlink:href="#bLr9x3YGi" opacity="1" fill="#8ed7f0" fill-opacity="1"></use><g><use xlink:href="#bLr9x3YGi" opacity="1" fill-opacity="0" stroke="#000000" stroke-width="1" stroke-opacity="0"></use></g></g><g><use xlink:href="#dlJMpYSI9" opacity="1" fill="#65cae5" fill-opacity="1"></use><g><use xlink:href="#dlJMpYSI9" opacity="1" fill-opacity="0" stroke="#000000" stroke-width="1" stroke-opacity="0"></use></g></g><g><use xlink:href="#ayTKA5HUJ" opacity="1" fill="#65cae5" fill-opacity="1"></use><g><use xlink:href="#ayTKA5HUJ" opacity="1" fill-opacity="0" stroke="#000000" stroke-width="1" stroke-opacity="0"></use></g></g><g><use xlink:href="#eLtFXS8Sz" opacity="1" fill="#8ed7f0" fill-opacity="1"></use><g><use xlink:href="#eLtFXS8Sz" opacity="1" fill-opacity="0" stroke="#000000" stroke-width="1" stroke-opacity="0"></use></g></g><g><use xlink:href="#b1nuAnJDak" opacity="1" fill="#d6f0fc" fill-opacity="1"></use><g><use xlink:href="#b1nuAnJDak" opacity="1" fill-opacity="0" stroke="#000000" stroke-width="1" stroke-opacity="0"></use></g></g><g><use xlink:href="#admqBt8ew" opacity="1" fill="#bfe6f3" fill-opacity="1"></use><g><use xlink:href="#admqBt8ew" opacity="1" fill-opacity="0" stroke="#000000" stroke-width="1" stroke-opacity="0"></use></g></g><g><use xlink:href="#iiIN3RGQf" opacity="1" fill="#bfe6f3" fill-opacity="1"></use><g><use xlink:href="#iiIN3RGQf" opacity="1" fill-opacity="0" stroke="#000000" stroke-width="1" stroke-opacity="0"></use></g></g><g><use xlink:href="#bmqCSnTUy" opacity="1" fill="#bfe6f3" fill-opacity="1"></use><g><use xlink:href="#bmqCSnTUy" opacity="1" fill-opacity="0" stroke="#000000" stroke-width="1" stroke-opacity="0"></use></g></g></g></g></svg>