<?xml version="1.0" encoding="UTF-8" standalone="no"?>
<!DOCTYPE svg PUBLIC "-//W3C//DTD SVG 1.1//EN" "http://www.w3.org/Graphics/SVG/1.1/DTD/svg11.dtd">
<svg version="1.1" xmlns="http://www.w3.org/2000/svg" xmlns:xlink="http://www.w3.org/1999/xlink" preserveAspectRatio="xMidYMid meet" viewBox="0 0 100 100" width="100" height="100"><defs><path d="M54.07 18.48L36.79 22.14L36.79 32.74L36.79 40.33L36.79 85.22L36.79 85.22L46.57 94.18L82.64 94.18L88.72 77.18L78.94 68.17L78.94 68.17L76.93 68.17L74.51 68.17L63.9 68.17L63.9 27.44L54.07 18.48L54.07 18.48Z" id="b2UjR4LON7"></path><path d="M35.69 72.61L25.91 72.61L35.69 81.61L71.72 81.61C65.82 76.18 62.54 73.16 61.89 72.56C61.89 72.56 46.89 70.27 35.69 68.54C35.69 69.08 35.69 70.44 35.69 72.61Z" id="fzQV7YOg"></path><path d="M64.77 64.56L52.93 64.56L52.93 14.82L43.15 5.82L43.15 16.88L35.65 18.48C35.65 48.51 35.65 65.2 35.65 68.54C46.89 70.32 61.89 72.61 61.89 72.61C62.54 73.21 65.8 76.21 71.67 81.61L77.8 64.61L68.01 55.55L64.77 64.56Z" id="a4SFWCAFt"></path><path d="M25.87 72.56L61.89 72.56L68.01 55.55L43.15 55.55L43.15 5.82L25.87 9.47L25.87 72.56Z" id="g2X00E4msO"></path><path d="M37.39 14.37L28.52 21.36L43.15 13.18L43.15 16.88L25.87 27.67L25.87 20.13L37.39 14.37Z" id="a6i8l0aT2"></path><path d="M31.67 52.95L43.15 46.27L43.15 41.25L31.67 52.95Z" id="b42PQsXVZ"></path><path d="M51.01 59.12L43.15 68.22L63.58 55.55L66 55.55L43.15 72.56L31.67 72.56L51.01 59.12Z" id="b23o23t3k"></path></defs><g><g><g><use xlink:href="#b2UjR4LON7" opacity="1" fill="#019db2" fill-opacity="1"></use><g><use xlink:href="#b2UjR4LON7" opacity="1" fill-opacity="0" stroke="#000000" stroke-width="1" stroke-opacity="0"></use></g></g><g><use xlink:href="#fzQV7YOg" opacity="1" fill="#65cae5" fill-opacity="1"></use><g><use xlink:href="#fzQV7YOg" opacity="1" fill-opacity="0" stroke="#000000" stroke-width="1" stroke-opacity="0"></use></g></g><g><use xlink:href="#a4SFWCAFt" opacity="1" fill="#8ed7f0" fill-opacity="1"></use><g><use xlink:href="#a4SFWCAFt" opacity="1" fill-opacity="0" stroke="#000000" stroke-width="1" stroke-opacity="0"></use></g></g><g><use xlink:href="#g2X00E4msO" opacity="1" fill="#d6f0fc" fill-opacity="1"></use><g><use xlink:href="#g2X00E4msO" opacity="1" fill-opacity="0" stroke="#000000" stroke-width="1" stroke-opacity="0"></use></g></g><g><use xlink:href="#a6i8l0aT2" opacity="1" fill="#bfe6f3" fill-opacity="1"></use><g><use xlink:href="#a6i8l0aT2" opacity="1" fill-opacity="0" stroke="#000000" stroke-width="1" stroke-opacity="0"></use></g></g><g><use xlink:href="#b42PQsXVZ" opacity="1" fill="#bfe6f3" fill-opacity="1"></use><g><use xlink:href="#b42PQsXVZ" opacity="1" fill-opacity="0" stroke="#000000" stroke-width="1" stroke-opacity="0"></use></g></g><g><use xlink:href="#b23o23t3k" opacity="1" fill="#bfe6f3" fill-opacity="1"></use><g><use xlink:href="#b23o23t3k" opacity="1" fill-opacity="0" stroke="#000000" stroke-width="1" stroke-opacity="0"></use></g></g></g></g></svg>