<?xml version="1.0" encoding="UTF-8" standalone="no"?>
<!DOCTYPE svg PUBLIC "-//W3C//DTD SVG 1.1//EN" "http://www.w3.org/Graphics/SVG/1.1/DTD/svg11.dtd">
<svg version="1.1" xmlns="http://www.w3.org/2000/svg" xmlns:xlink="http://www.w3.org/1999/xlink" preserveAspectRatio="xMidYMid meet" viewBox="0 0 100 100" width="100" height="100"><defs><path d="M31.05 60.74C31.04 60.75 30.97 60.83 30.96 60.83C30.37 61.43 30.05 62.21 30.05 63.07C30.05 63.85 30.37 64.63 30.96 65.22C31.61 65.82 34.87 68.83 40.74 74.23L67.39 95.94L79.1 86.53C79.1 86.06 79.1 85.8 79.1 85.75C79.1 85.25 78.91 84.83 78.59 84.42C78.59 84.42 78.59 84.42 78.59 84.42C78.59 84.42 78.59 84.42 78.59 84.42C78.32 84.06 77.95 83.74 77.54 83.46C76.95 82.92 74.01 80.21 68.72 75.33C68.72 75.33 68.72 75.33 68.72 75.33C68.35 74.91 67.9 74.55 67.44 74.23C67.17 74 66.66 73.73 65.98 73.31C65.79 73.22 65.2 72.81 63.28 71.17C63.55 70.75 64.19 69.93 65.79 68.38C69.04 65.18 71.23 62.94 72.29 61.7C72.3 61.69 72.41 61.58 72.42 61.57C72.79 61.02 73.06 60.51 73.06 59.97C73.06 59.97 73.06 59.97 73.06 59.97C73.06 59.51 72.93 58.82 72.29 58.14C71.19 56.86 68.58 54.02 64.56 49.68C64.29 49.36 64.01 49.09 63.83 48.86C64.83 48.17 66.94 46.85 71.19 44.33C73.11 43.19 76.08 41.45 80.06 39.21C80.11 39.18 80.39 39.03 80.88 38.75C80.88 38.18 80.88 37.86 80.88 37.79C80.88 37.06 80.88 36.65 76.26 31.26C75.35 30.16 73.89 28.51 71.92 26.27C71.89 26.24 71.72 26.05 71.42 25.73L62.09 17.31L61.59 16.77C61.15 16.77 60.91 16.77 60.86 16.77C60.22 16.77 59.81 16.77 49.25 22.85C48.05 23.54 42.06 27.01 31.28 33.27C31.2 33.32 31.15 33.35 31.14 33.36C30.5 33.86 30.14 34.55 30.14 35.37C30.14 36.1 30.41 36.74 30.91 37.29C31.01 37.4 31.78 38.28 31.87 38.39C32.29 38.85 32.65 39.26 33.02 39.67C33.79 40.56 40.01 47.69 40.79 48.58C41.47 49.41 41.93 49.95 42.21 50.32C41.75 50.87 40.83 51.83 39.1 53.47C36.49 55.94 33.79 58.37 31.05 60.74Z" id="bKSSTQlHb"></path><path d="M31.97 55.3C31.99 55.23 32.11 54.86 32.33 54.21L20.03 52.56L29.82 61.57L56.47 83.28L46.69 74.27L33.75 53.7C32.96 54.4 32.36 54.94 31.97 55.3Z" id="b31lveGahl"></path><path d="M38 49.82C36.63 51.1 35.21 52.42 33.79 53.7C34.66 55.08 38.97 61.95 46.73 74.32L56.51 83.33L68.22 73.91C68.22 73.41 68.22 73.14 68.22 73.09C68.22 72.58 68.03 72.17 67.71 71.76C67.71 71.76 67.71 71.76 67.71 71.76C67.71 71.76 67.71 71.76 67.71 71.76C67.44 71.39 67.07 71.07 66.66 70.8C66.07 70.26 63.13 67.55 57.84 62.66C57.57 63.1 57.41 63.35 57.38 63.39C53.91 60.38 52.72 59.05 52.31 58.5C51.66 57.9 48.4 54.9 42.53 49.5L39.6 48.26C38.96 48.9 38.43 49.42 38 49.82Z" id="e1foIXfVR1"></path><path d="M60.99 13.66C60.96 13.62 60.79 13.44 60.49 13.11L51.17 4.65C55.36 10.03 57.69 13.01 58.16 13.61C56.79 14.25 54.05 15.76 48.15 19.14C47.52 19.51 44.36 21.34 38.69 24.63L43.07 27.19C48.94 32.59 52.2 35.59 52.86 36.19C53.86 35.51 55.97 34.18 60.22 31.67C62.14 30.53 65.11 28.79 69.09 26.55C69.14 26.52 69.41 26.37 69.91 26.09C69.91 25.52 69.91 25.2 69.91 25.13C69.91 24.45 69.91 24.03 65.34 18.64C64.42 17.54 62.96 15.9 60.99 13.66Z" id="a8Si9u5Rk"></path><path d="M30.18 29.61C30.1 29.67 30.05 29.7 30.05 29.7C29.41 30.21 29.04 30.89 29.04 31.71C29.04 32.45 29.31 33.09 29.82 33.63C29.91 33.74 30.68 34.62 30.78 34.73C32.24 36.42 33.47 37.84 34.53 38.98C35.71 38.91 41.64 38.54 52.31 37.89C58.21 43.51 61.48 46.63 62.14 47.26C62.14 47.26 62.14 47.26 62.14 47.26C62.14 46.8 62 46.11 61.36 45.43C60.26 44.15 57.66 41.31 53.63 36.97C53.36 36.65 53.09 36.38 52.9 36.15C52.25 35.55 48.99 32.55 43.12 27.14L38.69 24.67L30.18 29.61Z" id="ajr5spPwJ"></path><path d="M37.95 42.96C39.74 45.02 40.61 46.11 41.11 46.71C40.83 47.03 40.38 47.53 39.6 48.26C39.8 48.35 40.79 48.77 42.57 49.54C48.44 54.95 51.7 57.95 52.35 58.55C52.58 58.18 53.27 57.31 54.87 55.71C58.11 52.51 60.31 50.27 61.36 49.04C61.37 49.03 61.48 48.92 61.5 48.9C61.86 48.35 62.14 47.85 62.14 47.3C61.48 46.68 58.21 43.55 52.31 37.93L34.53 39.03C36.66 41.47 37.8 42.78 37.95 42.96Z" id="dykbcCoac"></path><path d="M20.13 48.13C20.12 48.13 20.04 48.21 20.03 48.22C19.44 48.81 19.12 49.59 19.12 50.46C19.12 51.23 19.44 52.01 20.03 52.61C21.81 54.05 30.69 61.29 46.69 74.32L58.39 64.9C58.39 64.44 58.39 64.18 58.39 64.13C58.39 63.03 57.43 62.25 56.56 61.61C56.29 61.38 55.78 61.11 55.1 60.7C54.82 60.56 53.68 59.69 48.51 55.26C44.31 51.69 42.98 50.18 42.57 49.59C42.8 49.22 43.49 48.35 45.09 46.75C48.33 43.55 50.53 41.31 51.58 40.08C51.59 40.07 51.7 39.96 51.71 39.94C52.08 39.35 52.35 38.89 52.35 38.3C52.35 37.84 52.22 37.15 51.58 36.47C50.48 35.19 47.87 32.35 43.85 28.01C43.58 27.69 43.3 27.42 43.12 27.19C44.13 26.5 46.23 25.18 50.48 22.66C52.4 21.52 55.37 19.78 59.35 17.54C59.4 17.51 59.68 17.36 60.17 17.09C60.17 16.51 60.17 16.19 60.17 16.13C60.17 15.39 60.17 14.98 55.55 9.59C54.64 8.49 53.18 6.85 51.21 4.61C51.18 4.57 51.01 4.39 50.71 4.06C50.27 4.06 50.03 4.06 49.98 4.06C49.34 4.06 48.93 4.06 38.37 10.14C37.17 10.83 31.18 14.31 20.4 20.56C20.32 20.61 20.27 20.65 20.26 20.65C19.62 21.15 19.26 21.84 19.26 22.66C19.26 23.39 19.53 24.03 20.03 24.58C20.13 24.69 20.9 25.57 20.99 25.68C25.38 30.71 27.81 33.45 28.17 33.86C29.95 35.92 30.82 37.02 31.33 37.61C30.82 38.25 29.91 39.21 28.17 40.86C25.57 43.33 22.87 45.75 20.13 48.13Z" id="bFA1H4wsB"></path><path d="M42.66 15.76L28.03 25.77L56.97 12.1L58.16 13.66L31.42 28.47L49.79 20.42L29.86 36.01L22.09 27.05L42.66 15.76Z" id="c8m1KdThh"></path><path d="M30.37 56.17L40.1 52.61L30.78 61.29L32.24 62.53L45.54 52.33L45.09 46.75L30.37 56.17Z" id="adLy5JE0B"></path></defs><g><g><g><use xlink:href="#bKSSTQlHb" opacity="1" fill="#019db2" fill-opacity="1"></use><g><use xlink:href="#bKSSTQlHb" opacity="1" fill-opacity="0" stroke="#000000" stroke-width="1" stroke-opacity="0"></use></g></g><g><use xlink:href="#b31lveGahl" opacity="1" fill="#65cae5" fill-opacity="1"></use><g><use xlink:href="#b31lveGahl" opacity="1" fill-opacity="0" stroke="#000000" stroke-width="1" stroke-opacity="0"></use></g></g><g><use xlink:href="#e1foIXfVR1" opacity="1" fill="#8ed7f0" fill-opacity="1"></use><g><use xlink:href="#e1foIXfVR1" opacity="1" fill-opacity="0" stroke="#000000" stroke-width="1" stroke-opacity="0"></use></g></g><g><use xlink:href="#a8Si9u5Rk" opacity="1" fill="#65cae5" fill-opacity="1"></use><g><use xlink:href="#a8Si9u5Rk" opacity="1" fill-opacity="0" stroke="#000000" stroke-width="1" stroke-opacity="0"></use></g></g><g><use xlink:href="#ajr5spPwJ" opacity="1" fill="#8ed7f0" fill-opacity="1"></use><g><use xlink:href="#ajr5spPwJ" opacity="1" fill-opacity="0" stroke="#000000" stroke-width="1" stroke-opacity="0"></use></g></g><g><use xlink:href="#dykbcCoac" opacity="1" fill="#65cae5" fill-opacity="1"></use><g><use xlink:href="#dykbcCoac" opacity="1" fill-opacity="0" stroke="#000000" stroke-width="1" stroke-opacity="0"></use></g></g><g><use xlink:href="#bFA1H4wsB" opacity="1" fill="#d6f0fc" fill-opacity="1"></use><g><use xlink:href="#bFA1H4wsB" opacity="1" fill-opacity="0" stroke="#000000" stroke-width="1" stroke-opacity="0"></use></g></g><g><use xlink:href="#c8m1KdThh" opacity="1" fill="#bfe6f3" fill-opacity="1"></use><g><use xlink:href="#c8m1KdThh" opacity="1" fill-opacity="0" stroke="#000000" stroke-width="1" stroke-opacity="0"></use></g></g><g><use xlink:href="#adLy5JE0B" opacity="1" fill="#bfe6f3" fill-opacity="1"></use><g><use xlink:href="#adLy5JE0B" opacity="1" fill-opacity="0" stroke="#000000" stroke-width="1" stroke-opacity="0"></use></g></g></g></g></svg>