<?xml version="1.0" encoding="UTF-8" standalone="no"?>
<!DOCTYPE svg PUBLIC "-//W3C//DTD SVG 1.1//EN" "http://www.w3.org/Graphics/SVG/1.1/DTD/svg11.dtd">
<svg version="1.1" xmlns="http://www.w3.org/2000/svg" xmlns:xlink="http://www.w3.org/1999/xlink" preserveAspectRatio="xMidYMid meet" viewBox="0 0 100 100" width="100" height="100"><defs><path d="M49.23 39.65L34.7 52.58L55.59 39.14L59.25 44.4C36.37 58.64 23.66 66.54 21.12 68.13C21.17 68.13 18.42 69.63 20.21 58.3C24.08 55.81 33.75 49.59 49.23 39.65Z" id="b3KN4VF6xI"></path><path d="M32.09 80.79L32.09 80.79L32.09 80.79C37.71 85.97 40.84 88.85 41.46 89.43C42.47 90.43 45.07 91.3 51.15 92.67C53.17 93.09 56.23 93.73 60.25 94.46C60.53 94.5 60.8 94.55 61.07 94.55C61.35 94.55 61.62 94.55 61.9 94.5C62.08 94.5 62.22 94.46 62.4 94.37C63.09 94.14 63.68 93.68 64.23 92.9C65.07 92.03 71.8 85.04 72.64 84.17C75.57 81.11 77.35 79.23 78.26 78.23C80.69 75.67 82.01 73.66 82.29 72.01C82.33 71.74 82.38 71.51 82.38 71.28C82.38 70.27 81.83 68.54 77.71 62.78C75.7 59.94 74.65 58.43 74.06 57.61C74.56 57.06 75.52 56.1 77.17 54.5C80.23 51.49 81.65 49.25 81.65 47.37C81.65 47.37 81.65 47.33 81.65 47.33C81.65 46.05 81.01 44.77 79.82 43.53C79.59 43.26 79.27 42.98 78.81 42.71C77.9 41.7 75.29 38.73 71.13 33.84C68.89 31.23 67.66 29.86 66.88 29.13C66.88 29.13 66.88 29.13 66.88 29.13C66.88 29.13 66.88 29.13 66.88 29.13C66.79 29.04 66.7 28.95 66.61 28.86C65.65 27.98 58.05 21 57.1 20.13C57.01 20.03 56.87 19.94 56.78 19.85C56.78 19.85 56.78 19.85 56.78 19.85C56.78 19.85 56.78 19.85 56.78 19.85C56.18 19.35 55.91 19.26 55.54 19.26C55.41 19.21 55.04 19.07 54.22 18.75C52.53 18.07 52.25 18.02 51.89 18.02C51.71 18.02 50.81 18.02 49.19 18.02C49.08 18.05 49.02 18.07 49.01 18.07C46.49 18.66 44.48 19.17 43.02 19.53C39.41 20.4 35.79 21.36 32.23 22.32C32.15 22.34 31.75 22.45 31.04 22.64L31.04 42.62L31.04 48.06L31.04 50.94L31.04 55.78C31.04 64.89 31.04 69.95 31.04 70.96C29.35 82.25 32.09 80.79 32.09 80.79C32.09 80.79 32.09 80.79 32.09 80.79Z" id="c1pWkvc4mb"></path><path d="M48.18 33.29C47.91 33.02 47.63 32.65 47.31 32.29C47.31 33.15 47.31 40.06 47.31 40.93C47.68 40.56 48.05 40.24 48.32 39.97C49.92 38.41 50.74 37.5 51.2 36.99C50.74 36.4 49.83 35.3 48.18 33.29Z" id="g7MG6sLshs"></path><path d="M47.31 63.83C48 63.14 48.55 62.59 48.96 62.14C48.96 62.14 48.96 62.14 48.96 62.14C52.11 58.89 52.75 57.66 52.89 57.34C52.75 57.02 52.16 55.74 48.91 52.49C48.46 52.03 47.95 51.49 47.31 50.89C47.31 53.48 47.31 62.53 47.31 63.83Z" id="es54U0K58"></path><path d="M30.03 68.58L21.21 68.13C26.83 73.31 29.96 76.19 30.58 76.77C31.59 77.77 34.19 78.64 40.27 80.01C42.29 80.42 45.35 81.06 49.37 81.79C49.65 81.84 49.92 81.89 50.19 81.89C50.47 81.89 50.74 81.89 51.02 81.84C51.2 81.84 51.34 81.79 51.52 81.7C50.83 81.11 47.41 78.16 41.23 72.83L30.03 65.7L30.03 68.58Z" id="i8tR3uxKL"></path><path d="M47.31 63.83C48 63.14 48.55 62.59 48.96 62.14C48.96 62.14 48.96 62.14 48.96 62.14C52.11 58.89 52.75 57.66 52.89 57.34C52.8 57.11 52.53 56.51 51.43 55.23C51.31 55.3 50.72 55.62 49.65 56.19C50.72 55.62 51.31 55.3 51.43 55.23C50.83 54.55 50.01 53.63 48.91 52.49C48.46 52.03 47.95 51.49 47.31 50.89C47.31 53.48 47.31 62.53 47.31 63.83Z" id="aMcCFBsIa"></path><path d="M48.18 33.29C47.91 33.02 47.63 32.65 47.31 32.29C47.31 33.15 47.31 40.06 47.31 40.93C47.68 40.56 48.05 40.24 48.32 39.97C49.92 38.41 50.74 37.5 51.2 36.99C50.74 36.4 49.83 35.3 48.18 33.29Z" id="b3g4N9ZDyA"></path><path d="M47.31 63.83C48 63.14 48.55 62.59 48.96 62.14C48.96 62.14 48.96 62.14 48.96 62.14C52.11 58.89 52.75 57.66 52.89 57.34C52.8 57.11 52.53 56.51 51.43 55.23C50.83 54.55 50.01 53.63 48.91 52.49C48.46 52.03 47.95 51.49 47.31 50.89C47.31 53.48 47.31 62.53 47.31 63.83Z" id="d8eOrzFaax"></path><path d="M47.31 40.93C47.68 40.56 48.05 40.24 48.32 39.97C49.92 38.41 50.79 37.5 51.25 36.99C51.02 36.67 50.61 36.22 50.1 35.58C50.02 35.65 49.63 36 48.91 36.63C49.63 36 50.02 35.65 50.1 35.58C49.65 34.98 49.01 34.25 48.23 33.34C47.91 33.02 47.63 32.7 47.31 32.29C47.31 34.01 47.31 40.06 47.31 40.93Z" id="e28Y198y5A"></path><path d="M47.31 40.93C47.68 40.56 48.05 40.24 48.32 39.97C49.92 38.41 50.79 37.5 51.25 36.99C51.02 36.67 50.61 36.22 50.1 35.58C49.65 34.98 49.01 34.25 48.23 33.34C47.91 33.02 47.63 32.7 47.31 32.29C47.31 34.01 47.31 40.06 47.31 40.93Z" id="c8iLsiPYc"></path><path d="M47.31 63.83C48 63.14 48.55 62.59 48.96 62.14C48.96 62.14 48.96 62.14 48.96 62.14C52.11 58.89 52.75 57.66 52.89 57.34C52.8 57.11 52.53 56.51 51.43 55.23C50.83 54.55 50.01 53.63 48.91 52.49C48.46 52.03 47.95 51.49 47.31 50.89C47.31 53.48 47.31 62.53 47.31 63.83Z" id="c16rsVsvuQ"></path><path d="M47.31 63.83C48 63.14 48.55 62.59 48.96 62.14C48.96 62.14 48.96 62.14 48.96 62.14C52.11 58.89 52.75 57.66 52.89 57.34C52.8 57.11 52.53 56.51 51.43 55.23C50.83 54.55 50.01 53.63 48.91 52.49C48.46 52.03 47.95 51.49 47.31 50.89C47.31 53.48 47.31 62.53 47.31 63.83Z" id="f1HT4WRRxI"></path><path d="M48.96 62.14C52.11 58.85 52.75 57.66 52.89 57.29C52.8 57.06 52.53 56.47 51.43 55.19C50.83 54.5 50.01 53.59 48.91 52.45C48.5 52.03 47.95 51.49 47.31 50.89C47.31 51.3 47.31 53.36 47.31 57.06L48.69 57.34L47.31 57.06C47.31 61.12 47.31 63.38 47.31 63.83C47.95 63.14 48.55 62.59 48.96 62.14C48.96 62.14 48.96 62.14 48.96 62.14Z" id="b2lyx4Srjb"></path><path d="M52.89 57.29C52.75 57.61 52.11 58.85 48.96 62.09C48.96 62.09 48.96 62.09 48.96 62.09C48.55 62.55 47.95 63.1 47.31 63.78C47.31 63.33 47.31 61.09 47.31 57.06L30.03 53.59L30.03 65.7L41.23 72.83C47.41 78.16 50.83 81.11 51.52 81.7C52.21 81.47 52.8 81.02 53.35 80.24C54.19 79.37 60.92 72.38 61.76 71.51C64.69 68.45 66.47 66.57 67.38 65.57C69.81 63.01 71.13 60.99 71.41 59.35C70.76 58.7 67.55 55.47 61.76 49.66L51.43 55.19C52.34 56.44 52.83 57.14 52.89 57.29Z" id="bUPU338yY"></path><path d="M63.22 44.99C61.21 44.72 51.12 43.35 32.96 40.88L29.99 40.88L29.99 53.59L47.27 57.06C47.27 53.36 47.27 51.3 47.27 50.89C47.91 51.49 48.46 52.03 48.87 52.45C50.01 53.59 50.83 54.46 51.38 55.19C52.07 54.82 55.5 52.99 61.67 49.7C67.51 55.55 70.76 58.79 71.41 59.44C71.45 59.17 71.5 58.94 71.5 58.71C71.54 57.66 70.99 55.92 66.88 50.16C64.87 47.33 63.82 45.82 63.22 44.99Z" id="i8plLDYdf"></path><path d="M47.31 35.17L48.78 35.85L47.31 35.17C47.31 38.62 47.31 40.54 47.31 40.93C47.68 40.56 48.05 40.24 48.32 39.97C49.92 38.41 50.79 37.5 51.25 36.99C51.02 36.67 50.61 36.22 50.1 35.58C49.65 34.98 49.01 34.25 48.23 33.34C47.91 33.02 47.63 32.7 47.31 32.29C47.31 32.67 47.31 33.63 47.31 35.17Z" id="cjcuXpbAT"></path><path d="M48.18 33.29C48.96 34.21 49.6 34.98 50.06 35.53C50.79 34.88 54.45 31.62 61.03 25.75C66.9 31.1 70.16 34.07 70.81 34.66C70.81 33.38 70.17 32.1 68.98 30.87C68.75 30.59 68.43 30.32 67.98 30.05C67.06 29.04 64.46 26.07 60.3 21.18C58.06 18.57 56.82 17.2 56.05 16.47C56.05 16.47 56.05 16.47 56.05 16.47C56.05 16.47 56.05 16.47 56.05 16.47C55.95 16.38 55.86 16.29 55.77 16.19C55.12 15.59 51.84 12.59 45.94 7.19C46.68 11.6 47.09 14.06 47.18 14.55C45.07 15.05 43.34 15.46 42.01 15.78C38.4 16.65 34.79 17.61 31.22 18.57C31.14 18.59 30.75 18.7 30.03 18.89L30.03 27.35L47.31 35.07L47.31 32.29C47.74 32.77 48.03 33.11 48.18 33.29Z" id="e2uLXWkWGA"></path><path d="M61.03 25.79C54.45 31.66 50.79 34.92 50.06 35.58C50.61 36.22 50.97 36.67 51.2 36.99C50.74 37.5 49.87 38.41 48.27 39.97C48 40.24 47.63 40.56 47.27 40.93C47.27 40.54 47.27 38.62 47.27 35.17L29.99 27.44L29.99 40.97L32.96 40.97C51.12 43.44 61.21 44.81 63.22 45.09C63.73 44.54 64.69 43.58 66.33 41.98C69.39 38.96 70.81 36.72 70.81 34.85C70.86 34.75 70.81 34.71 70.81 34.71C69.51 33.52 66.25 30.55 61.03 25.79Z" id="c4bmLrf6CV"></path><path d="M41.11 5.45L41.14 5.45L41.17 5.45L41.19 5.46L41.22 5.46L41.25 5.46L41.28 5.46L41.32 5.47L41.35 5.47L41.38 5.48L41.42 5.48L41.46 5.49L41.49 5.5L41.53 5.51L41.58 5.52L41.62 5.53L41.67 5.55L41.72 5.56L41.77 5.58L41.83 5.59L41.89 5.61L41.95 5.63L42.02 5.66L42.08 5.68L42.16 5.71L42.23 5.73L42.31 5.76L42.4 5.8L42.49 5.83L42.58 5.87L42.68 5.9L42.79 5.94L42.89 5.99L43.01 6.03L43.13 6.08L43.25 6.13L43.38 6.18L43.45 6.21L43.51 6.23L43.57 6.26L43.63 6.28L43.68 6.3L43.74 6.32L43.79 6.34L43.84 6.36L43.89 6.38L43.94 6.4L43.99 6.42L44.03 6.43L44.08 6.45L44.12 6.47L44.16 6.48L44.2 6.5L44.23 6.51L44.27 6.52L44.3 6.54L44.34 6.55L44.37 6.56L44.4 6.57L44.43 6.58L44.45 6.59L44.48 6.6L44.5 6.61L44.53 6.62L44.55 6.63L44.59 6.64L44.61 6.65L44.63 6.66L44.66 6.67L44.67 6.67L44.68 6.68L44.7 6.68L44.71 6.69L44.77 6.69L44.82 6.69L44.88 6.69L44.94 6.7L45 6.71L45.05 6.73L45.12 6.75L45.18 6.77L45.25 6.8L45.32 6.84L45.39 6.88L45.47 6.93L45.55 6.98L45.64 7.05L45.73 7.12L45.83 7.2L45.93 7.29L46.05 7.39L46.17 7.5L46.29 7.62L46.43 7.76L46.57 7.9L46.73 8.06L46.89 8.23L47.07 8.42L47.25 8.61L47.45 8.83L47.65 9.05L47.87 9.3L48.11 9.56L48.35 9.83L48.61 10.12L48.88 10.43L49.17 10.76L49.47 11.11L49.79 11.47L50.12 11.86L50.47 12.26L50.79 12.65L51.11 13.02L51.42 13.39L51.73 13.74L52.03 14.09L52.32 14.44L52.61 14.77L52.89 15.1L53.16 15.41L53.43 15.72L53.69 16.03L53.94 16.32L54.19 16.61L54.43 16.89L54.66 17.16L54.89 17.42L55.11 17.67L55.32 17.92L55.53 18.15L55.73 18.38L55.92 18.61L56.1 18.82L56.28 19.02L56.46 19.22L56.62 19.41L56.78 19.59L56.93 19.77L57.08 19.93L57.22 20.09L57.35 20.24L57.47 20.38L57.59 20.51L57.7 20.63L57.8 20.75L57.9 20.86L57.99 20.96L58.07 21.05L58.15 21.13L58.18 21.15L58.22 21.17L58.25 21.2L58.29 21.22L58.32 21.24L58.36 21.26L58.39 21.28L58.42 21.3L58.45 21.33L58.48 21.35L58.51 21.37L58.54 21.39L58.57 21.41L58.6 21.43L58.63 21.46L58.66 21.48L58.68 21.5L58.71 21.52L58.74 21.54L58.76 21.56L58.79 21.59L58.81 21.61L58.84 21.63L58.86 21.65L58.89 21.67L58.91 21.69L58.93 21.72L58.95 21.74L58.98 21.76L59 21.78L59.02 21.8L59.04 21.82L59.06 21.85L59.08 21.87L59.1 21.89L59.12 21.91L59.14 21.93L59.15 21.95L59.25 22.05L59.34 22.15L59.43 22.25L59.51 22.35L59.59 22.44L59.68 22.54L59.75 22.64L59.83 22.74L59.91 22.84L59.98 22.94L60.05 23.04L60.11 23.14L60.18 23.24L60.24 23.34L60.3 23.44L60.36 23.54L60.41 23.64L60.46 23.74L60.51 23.84L60.56 23.94L60.61 24.04L60.65 24.14L60.69 24.25L60.73 24.35L60.76 24.45L60.79 24.55L60.82 24.65L60.85 24.76L60.88 24.86L60.9 24.96L60.92 25.07L60.94 25.17L60.95 25.27L60.96 25.38L60.97 25.48L60.98 25.59L60.98 25.69L60.98 25.79L60.98 25.94L60.97 26.09L60.96 26.25L60.94 26.4L60.91 26.55L60.88 26.71L60.84 26.87L60.79 27.03L60.74 27.19L60.68 27.36L60.62 27.52L60.55 27.69L60.48 27.86L60.39 28.04L60.31 28.21L60.21 28.39L60.11 28.57L60 28.75L59.89 28.93L59.77 29.12L59.65 29.31L59.51 29.5L59.37 29.69L59.23 29.89L59.08 30.09L58.92 30.29L58.75 30.49L58.58 30.7L58.41 30.91L58.22 31.12L58.03 31.33L57.83 31.55L57.63 31.77L57.42 32L57.2 32.23L56.97 32.46L56.74 32.69L56.5 32.93L56.37 33.05L56.25 33.17L56.13 33.29L56.01 33.41L55.89 33.52L55.77 33.64L55.66 33.75L55.55 33.85L55.45 33.96L55.34 34.06L55.24 34.16L55.14 34.26L55.05 34.35L54.95 34.44L54.86 34.54L54.77 34.62L54.69 34.71L54.6 34.79L54.52 34.87L54.44 34.95L54.36 35.03L54.29 35.11L54.22 35.18L54.15 35.25L54.08 35.32L54.01 35.38L53.95 35.45L53.89 35.51L53.83 35.57L53.77 35.63L53.72 35.69L53.67 35.74L53.62 35.8L53.57 35.85L53.52 35.9L53.48 35.94L53.43 35.99L53.39 36.03L53.44 36.1L53.49 36.17L53.54 36.24L53.6 36.32L53.65 36.4L53.71 36.48L53.77 36.56L53.84 36.65L53.9 36.74L53.97 36.84L54.04 36.94L54.11 37.04L54.18 37.15L54.26 37.25L54.34 37.37L54.43 37.49L54.51 37.61L54.6 37.73L54.69 37.86L54.88 38.13L54.98 38.28L55.09 38.42L55.19 38.58L55.3 38.73L55.42 38.89L55.53 39.06L55.65 39.23L55.78 39.4L55.9 39.58L56.03 39.76L56.17 39.95L56.31 40.15L56.45 40.35L56.59 40.55L56.74 40.76L56.89 40.98L57.05 41.2L57.37 41.65L57.67 42.08L57.96 42.49L58.24 42.89L58.5 43.27L58.75 43.64L58.98 43.99L59.2 44.33L59.41 44.66L59.61 44.97L59.8 45.27L59.98 45.56L60.14 45.83L60.3 46.09L60.44 46.34L60.58 46.58L60.7 46.81L60.82 47.03L60.93 47.23L61.02 47.43L61.11 47.62L61.2 47.8L61.27 47.97L61.34 48.13L61.4 48.28L61.46 48.43L61.5 48.57L61.55 48.7L61.58 48.82L61.61 48.94L61.64 49.05L61.66 49.16L61.68 49.26L61.69 49.36L61.7 49.45L61.71 49.54L61.71 49.62L61.71 49.7L61.71 49.84L61.7 49.99L61.69 50.13L61.67 50.28L61.65 50.43L61.61 50.58L61.58 50.73L61.54 50.89L61.49 51.04L61.44 51.2L61.38 51.36L61.31 51.53L61.24 51.69L61.17 51.86L61.09 52.03L61 52.2L60.91 52.38L60.81 52.55L60.7 52.73L60.59 52.91L60.48 53.1L60.35 53.28L60.23 53.47L60.09 53.67L59.95 53.86L59.81 54.06L59.66 54.26L59.5 54.46L59.34 54.67L59.17 54.87L58.99 55.09L58.81 55.3L58.63 55.52L58.43 55.74L58.23 55.96L58.03 56.19L57.82 56.42L57.6 56.65L57.53 56.73L57.45 56.82L57.37 56.91L57.28 57L57.19 57.09L57.1 57.19L57 57.3L56.9 57.41L56.8 57.52L56.69 57.63L56.58 57.75L56.47 57.87L56.35 58L56.22 58.13L56.09 58.27L55.96 58.41L55.83 58.55L55.69 58.7L55.54 58.85L55.39 59.01L55.24 59.17L55.09 59.33L54.92 59.5L54.76 59.68L54.59 59.86L54.42 60.04L54.24 60.23L54.05 60.42L53.87 60.61L53.68 60.81L53.48 61.02L53.28 61.23L53.07 61.45L52.86 61.67L52.65 61.89L52.43 62.12L52.21 62.35L51.98 62.59L43.57 71.33L43.51 71.4L43.46 71.47L43.41 71.53L43.36 71.6L43.3 71.67L43.25 71.73L43.19 71.79L43.14 71.85L43.08 71.91L43.02 71.96L42.97 72.02L42.91 72.07L42.85 72.12L42.79 72.17L42.73 72.22L42.67 72.27L42.61 72.31L42.55 72.35L42.49 72.39L42.42 72.43L42.36 72.47L42.3 72.51L42.23 72.54L42.17 72.58L42.1 72.61L42.04 72.64L41.97 72.67L41.91 72.69L41.84 72.72L41.78 72.74L41.71 72.77L41.64 72.79L41.57 72.81L41.51 72.82L41.44 72.84L41.37 72.86L41.3 72.87L41.23 72.88L41.21 72.88L41.19 72.89L41.17 72.89L41.15 72.89L41.13 72.9L41.1 72.9L41.08 72.9L41.06 72.9L41.04 72.91L41.02 72.91L41 72.91L40.97 72.91L40.95 72.91L40.93 72.91L40.91 72.92L40.89 72.92L40.87 72.92L40.84 72.92L40.82 72.92L40.8 72.92L40.78 72.92L40.76 72.92L40.74 72.92L40.71 72.92L40.69 72.92L40.67 72.92L40.65 72.92L40.63 72.92L40.61 72.93L40.56 72.93L40.54 72.93L40.5 72.93L40.48 72.93L40.41 72.93L40.39 72.93L40.37 72.93L40.35 72.92L40.32 72.92L40.3 72.92L40.28 72.92L40.26 72.92L40.24 72.92L40.22 72.92L40.19 72.92L40.17 72.92L40.15 72.91L40.13 72.91L40.11 72.91L40.09 72.91L40.06 72.9L40.04 72.9L40.02 72.9L40 72.9L39.98 72.89L39.96 72.89L39.94 72.89L39.91 72.89L39.89 72.88L39.87 72.88L39.85 72.88L39.83 72.87L39.81 72.87L39.78 72.87L39.76 72.86L39.72 72.86L39.7 72.85L39.68 72.85L39.63 72.84L39.59 72.83L39.27 72.78L38.96 72.72L38.65 72.66L38.35 72.61L38.05 72.55L37.76 72.5L37.46 72.44L37.18 72.39L36.89 72.33L36.61 72.28L36.34 72.23L36.07 72.17L35.8 72.12L35.54 72.07L35.28 72.02L35.02 71.97L34.77 71.92L34.53 71.87L34.29 71.82L34.05 71.78L33.81 71.73L33.58 71.68L33.36 71.64L33.14 71.59L32.92 71.55L32.71 71.51L32.5 71.46L32.3 71.42L32.1 71.38L31.9 71.34L31.71 71.3L31.52 71.26L31.34 71.23L30.99 71.15L30.82 71.12L30.65 71.08L30.49 71.05L29.82 70.9L29.17 70.76L28.55 70.61L27.97 70.47L27.4 70.34L26.87 70.2L26.36 70.07L25.88 69.95L25.42 69.82L24.99 69.7L24.58 69.58L24.19 69.46L23.83 69.34L23.48 69.22L23.16 69.11L22.86 69L22.58 68.88L22.32 68.77L22.07 68.66L21.85 68.55L21.64 68.44L21.45 68.33L21.28 68.23L21.12 68.12L20.98 68.01L20.85 67.9L20.73 67.79L20.63 67.67L20.54 67.56L20.46 67.45L20.4 67.33L20.34 67.22L20.3 67.1L20.26 66.98L20.24 66.86L20.22 66.73L20.21 66.61L20.21 66.48L20.21 10.07L21.3 9.77L21.68 9.67L21.96 9.6L22.24 9.52L22.52 9.45L22.8 9.37L23.09 9.29L23.37 9.22L23.65 9.14L23.93 9.07L24.22 8.99L24.5 8.92L24.78 8.84L25.07 8.77L25.35 8.69L25.64 8.62L25.92 8.54L26.2 8.47L26.49 8.39L26.77 8.32L27.06 8.25L27.34 8.17L27.62 8.1L27.91 8.03L28.19 7.95L28.48 7.88L28.76 7.81L29.05 7.74L29.33 7.66L29.62 7.59L29.9 7.52L30.19 7.45L30.47 7.38L30.76 7.31L31.04 7.24L31.33 7.17L31.61 7.1L31.9 7.03L32.18 6.96L32.42 6.9L32.54 6.87L32.66 6.84L32.79 6.81L32.92 6.78L33.05 6.74L33.18 6.71L33.31 6.68L33.45 6.64L33.59 6.61L33.73 6.57L33.87 6.54L34.02 6.5L34.17 6.47L34.32 6.43L34.47 6.39L34.63 6.35L34.78 6.31L34.94 6.28L35.1 6.24L35.27 6.2L35.43 6.16L35.6 6.11L35.77 6.07L35.94 6.03L36.12 5.99L36.29 5.95L36.47 5.9L36.65 5.86L36.83 5.82L37.02 5.77L37.21 5.73L37.39 5.68L37.59 5.64L37.78 5.59L37.97 5.54L38.17 5.5L38.35 5.45L41.05 5.45L41.08 5.45L41.11 5.45ZM37.82 54.49L38.13 54.18L38.41 53.89L38.67 53.61L38.91 53.34L39.13 53.09L40.51 51.63L41.52 50.47L42.23 49.59L42.68 48.95L42.94 48.53L43.06 48.29L42.96 48.04L42.71 47.61L42.26 46.96L41.54 46.07L40.5 44.9L39.09 43.44L38.87 43.22L38.63 42.99L38.37 42.73L38.09 42.46L37.8 42.18L37.49 41.89L37.49 54.82L37.82 54.49ZM37.76 31.65L38.02 31.41L38.27 31.17L38.49 30.96L39.56 29.92L40.38 29.1L40.97 28.47L41.37 27.99L40.94 27.42L40.31 26.63L39.46 25.6L38.35 24.29L38.17 24.07L37.95 23.83L37.72 23.57L37.49 23.28L37.49 31.92L37.76 31.65Z" id="e18yBllOOa"></path><path d="M20.21 29.95L20.21 35.39L36.34 25.79L20.21 38.27L20.21 43.12L55.68 18.25L49.23 10.75L20.21 29.95Z" id="a15r0xKm2M"></path></defs><g><g><g><use xlink:href="#b3KN4VF6xI" opacity="1" fill="#bfe6f3" fill-opacity="1"></use><g><use xlink:href="#b3KN4VF6xI" opacity="1" fill-opacity="0" stroke="#000000" stroke-width="1" stroke-opacity="0"></use></g></g><g><use xlink:href="#c1pWkvc4mb" opacity="1" fill="#019db2" fill-opacity="1"></use><g><use xlink:href="#c1pWkvc4mb" opacity="1" fill-opacity="0" stroke="#000000" stroke-width="1" stroke-opacity="0"></use></g></g><g><use xlink:href="#g7MG6sLshs" opacity="1" fill="#000000" fill-opacity="0"></use><g><use xlink:href="#g7MG6sLshs" opacity="1" fill-opacity="0" stroke="#000000" stroke-width="1" stroke-opacity="0"></use></g></g><g><use xlink:href="#es54U0K58" opacity="1" fill="#000000" fill-opacity="0"></use><g><use xlink:href="#es54U0K58" opacity="1" fill-opacity="0" stroke="#000000" stroke-width="1" stroke-opacity="0"></use></g></g><g><use xlink:href="#i8tR3uxKL" opacity="1" fill="#65cae5" fill-opacity="1"></use><g><use xlink:href="#i8tR3uxKL" opacity="1" fill-opacity="0" stroke="#000000" stroke-width="1" stroke-opacity="0"></use></g></g><g><use xlink:href="#aMcCFBsIa" opacity="1" fill="#000000" fill-opacity="0"></use><g><use xlink:href="#aMcCFBsIa" opacity="1" fill-opacity="0" stroke="#000000" stroke-width="1" stroke-opacity="0"></use></g></g><g><use xlink:href="#b3g4N9ZDyA" opacity="1" fill="#000000" fill-opacity="0"></use><g><use xlink:href="#b3g4N9ZDyA" opacity="1" fill-opacity="0" stroke="#000000" stroke-width="1" stroke-opacity="0"></use></g></g><g><use xlink:href="#d8eOrzFaax" opacity="1" fill="#000000" fill-opacity="0"></use><g><use xlink:href="#d8eOrzFaax" opacity="1" fill-opacity="0" stroke="#000000" stroke-width="1" stroke-opacity="0"></use></g></g><g><use xlink:href="#e28Y198y5A" opacity="1" fill="#000000" fill-opacity="0"></use><g><use xlink:href="#e28Y198y5A" opacity="1" fill-opacity="0" stroke="#000000" stroke-width="1" stroke-opacity="0"></use></g></g><g><use xlink:href="#c8iLsiPYc" opacity="1" fill="#000000" fill-opacity="0"></use><g><use xlink:href="#c8iLsiPYc" opacity="1" fill-opacity="0" stroke="#000000" stroke-width="1" stroke-opacity="0"></use></g></g><g><use xlink:href="#c16rsVsvuQ" opacity="1" fill="#000000" fill-opacity="0"></use><g><use xlink:href="#c16rsVsvuQ" opacity="1" fill-opacity="0" stroke="#000000" stroke-width="1" stroke-opacity="0"></use></g></g><g><use xlink:href="#f1HT4WRRxI" opacity="1" fill="#000000" fill-opacity="0"></use><g><use xlink:href="#f1HT4WRRxI" opacity="1" fill-opacity="0" stroke="#000000" stroke-width="1" stroke-opacity="0"></use></g></g><g><use xlink:href="#b2lyx4Srjb" opacity="1" fill="#000000" fill-opacity="0"></use><g><use xlink:href="#b2lyx4Srjb" opacity="1" fill-opacity="0" stroke="#000000" stroke-width="1" stroke-opacity="0"></use></g></g><g><use xlink:href="#bUPU338yY" opacity="1" fill="#8ed7f0" fill-opacity="1"></use><g><use xlink:href="#bUPU338yY" opacity="1" fill-opacity="0" stroke="#000000" stroke-width="1" stroke-opacity="0"></use></g></g><g><use xlink:href="#i8plLDYdf" opacity="1" fill="#65cae5" fill-opacity="1"></use><g><use xlink:href="#i8plLDYdf" opacity="1" fill-opacity="0" stroke="#000000" stroke-width="1" stroke-opacity="0"></use></g></g><g><use xlink:href="#cjcuXpbAT" opacity="1" fill="#000000" fill-opacity="0"></use><g><use xlink:href="#cjcuXpbAT" opacity="1" fill-opacity="0" stroke="#000000" stroke-width="1" stroke-opacity="0"></use></g></g><g><use xlink:href="#e2uLXWkWGA" opacity="1" fill="#8ed7f0" fill-opacity="1"></use><g><use xlink:href="#e2uLXWkWGA" opacity="1" fill-opacity="0" stroke="#000000" stroke-width="1" stroke-opacity="0"></use></g></g><g><use xlink:href="#c4bmLrf6CV" opacity="1" fill="#65cae5" fill-opacity="1"></use><g><use xlink:href="#c4bmLrf6CV" opacity="1" fill-opacity="0" stroke="#000000" stroke-width="1" stroke-opacity="0"></use></g></g><g><use xlink:href="#e18yBllOOa" opacity="1" fill="#d6f0fc" fill-opacity="1"></use><g><use xlink:href="#e18yBllOOa" opacity="1" fill-opacity="0" stroke="#000000" stroke-width="1" stroke-opacity="0"></use></g></g><g><use xlink:href="#a15r0xKm2M" opacity="1" fill="#bfe6f3" fill-opacity="1"></use><g><use xlink:href="#a15r0xKm2M" opacity="1" fill-opacity="0" stroke="#000000" stroke-width="1" stroke-opacity="0"></use></g></g></g></g></svg>