<?xml version="1.0" encoding="UTF-8" standalone="no"?>
<!DOCTYPE svg PUBLIC "-//W3C//DTD SVG 1.1//EN" "http://www.w3.org/Graphics/SVG/1.1/DTD/svg11.dtd">
<svg version="1.1" xmlns="http://www.w3.org/2000/svg" xmlns:xlink="http://www.w3.org/1999/xlink" preserveAspectRatio="xMidYMid meet" viewBox="0 0 100 100" width="100" height="100"><defs><path d="M23.58 54.05C23.58 54.05 23.58 54.05 23.58 54.05C23.63 54.1 23.66 54.13 23.67 54.14C23.76 54.27 23.85 54.41 23.99 54.55C24.63 55.33 25.31 56.1 25.95 56.88C25.96 56.88 25.97 56.9 26 56.93C26 56.93 26 56.93 26 56.93C26.55 57.57 27.1 58.16 27.6 58.8C27.6 58.8 27.6 58.8 27.6 58.8L29.06 60.45C29.06 60.45 29.06 60.45 29.06 60.45C29.75 61.22 30.43 62 31.07 62.73C32.4 64.25 42.97 76.39 44.29 77.91C44.83 78.55 45.34 79.1 45.79 79.65C45.79 79.65 45.79 79.65 45.79 79.65C45.79 79.65 45.79 79.65 45.79 79.65C50.37 84.81 51.55 86.14 52.24 86.5C53.1 87.3 60.02 93.7 60.88 94.5C61.25 94.87 61.52 95.1 61.7 95.28C61.7 95.28 61.7 95.28 61.7 95.28C62.11 95.6 62.34 95.6 62.66 95.6C62.7 95.6 62.9 95.6 63.26 95.6C66.93 92.64 68.98 90.99 69.38 90.66C75.28 85.86 75.55 85.54 75.74 85.31C75.8 85.24 76.09 84.88 76.61 84.22C76.06 83.59 75.75 83.24 75.69 83.17C73.59 80.83 71.53 78.5 69.47 76.17C65.95 72.24 62.43 68.26 58.96 64.33C56.17 61.13 54.85 59.53 54.21 58.75C54.94 58.07 56.63 56.61 60.33 53.73C63.26 51.53 67.78 48.15 73.77 43.76C78.16 40.56 79.99 39.23 80.67 38.78C80.98 38.78 82.49 38.78 85.2 38.78L75.42 29.77L72.54 27.67L72.54 27.67L66.46 23.23L57.95 17.02C57.6 17.02 57.4 17.02 57.36 17.02C56.67 17.02 55.99 17.02 48.9 22.46C46.07 24.61 41.91 27.9 36.47 32.24C34.09 34.11 31.76 35.99 29.52 37.82C28.1 38.96 27.01 39.97 26.23 40.7C23.67 43.3 22.43 45.18 22.25 46.64C22.07 47.78 22.02 48.74 22.02 49.47C22.02 50.02 22.11 50.62 22.25 51.21C22.39 51.9 22.62 52.49 22.94 53.04C23.12 53.41 23.35 53.73 23.58 54.05Z" id="i1i7VfH9CM"></path><path d="M69.75 26.16C70.05 26.16 71.56 26.16 74.27 26.16L64.49 17.15L61.93 17.15L56.72 13.36C56.39 13.36 56.21 13.36 56.17 13.36C55.49 13.36 54.8 13.36 47.71 18.8C44.88 20.95 40.72 24.24 35.28 28.58C32.9 30.46 30.57 32.33 28.33 34.16C27.14 35.17 26.14 35.99 25.41 36.72C25.94 36.74 28.59 36.87 33.36 37.09C39.23 42.49 42.49 45.49 43.14 46.09C43.87 45.41 45.57 43.94 49.27 41.06C52.33 38.87 56.86 35.53 62.85 31.14C67.23 27.94 69.06 26.62 69.75 26.16Z" id="e8PPfWC52"></path><path d="M64.72 70.55C62.62 68.22 60.56 65.89 58.5 63.55C54.98 59.62 51.46 55.65 47.99 51.71C45.2 48.51 43.87 46.91 43.23 46.14C42.58 45.54 39.32 42.53 33.45 37.13C28.68 36.91 26.03 36.79 25.5 36.77C25.36 36.9 25.27 36.99 25.13 37.13C22.57 39.74 21.34 41.61 21.15 43.07C20.97 44.22 20.93 45.18 20.93 45.91C20.93 46.46 21.02 47.05 21.15 47.65C21.29 48.24 21.52 48.83 21.84 49.43C22.11 49.98 22.48 50.48 22.85 50.94C25.18 53.68 27.55 56.42 29.98 59.12C30.59 59.82 33.63 63.33 39.12 69.63L55.9 62.64L65.63 71.6C65.09 70.97 64.78 70.62 64.72 70.55Z" id="bFI11xJZl"></path><path d="M39.07 69.59L42.18 73.2L41.27 73.89C46.45 78.69 49.33 81.35 49.91 81.89C50.27 82.25 50.55 82.48 50.73 82.66C50.73 82.66 50.73 82.66 50.73 82.66C51.14 82.98 51.37 82.98 51.69 82.98C51.73 82.98 51.93 82.98 52.29 82.98C55.96 80.02 58 78.37 58.41 78.05C64.31 73.25 64.58 72.93 64.77 72.7C64.82 72.62 65.11 72.26 65.63 71.6L55.85 62.59L39.07 69.59Z" id="a4PgPLuWM"></path><path d="M13.02 41.93C15.35 44.67 17.73 47.42 20.15 50.11C21.47 51.63 32.04 63.77 33.36 65.29C41.04 74.02 41.04 74.02 41.95 74.02C41.99 74.02 42.19 74.02 42.55 74.02C46.22 71.06 48.27 69.41 48.67 69.09C54.57 64.29 54.85 63.97 55.03 63.74C55.09 63.66 55.38 63.3 55.9 62.64C55.35 62.01 55.04 61.66 54.98 61.59C52.88 59.26 50.82 56.93 48.77 54.59C45.25 50.66 41.73 46.69 38.25 42.75C35.46 39.55 34.14 37.95 33.5 37.18C34.23 36.49 35.92 35.03 39.62 32.15C42.55 29.95 47.07 26.57 53.06 22.18C57.45 18.98 59.28 17.66 59.97 17.2C60.27 17.2 61.78 17.2 64.49 17.2L46.98 4.4C46.65 4.4 46.47 4.4 46.43 4.4C45.75 4.4 45.06 4.4 37.98 9.84C35.14 11.99 30.98 15.28 25.54 19.62C23.17 21.5 20.83 23.37 18.59 25.2C17.18 26.34 16.08 27.35 15.3 28.08C12.74 30.69 11.51 32.56 11.33 34.02C11.14 35.17 11.1 36.13 11.1 36.86C11.1 37.41 11.19 38 11.33 38.59C11.46 39.23 11.69 39.83 12.01 40.42C12.29 40.97 12.65 41.47 13.02 41.93Z" id="b3lLqsZVLw"></path><path d="M12.61 41.38L15.03 44.26L33.45 30.14L16.63 46.14L18.09 47.78L61.57 15.05L54.25 9.75L12.61 41.38Z" id="a1bsToWUYM"></path><path d="M45.15 50.57L47.49 53.18L39.12 59.21L48.72 54.55L50.14 56.19L34.87 66.98L30.8 62.32L45.15 50.57Z" id="abJkXrZqK"></path></defs><g><g><g><use xlink:href="#i1i7VfH9CM" opacity="1" fill="#019db2" fill-opacity="1"></use><g><use xlink:href="#i1i7VfH9CM" opacity="1" fill-opacity="0" stroke="#000000" stroke-width="1" stroke-opacity="0"></use></g></g><g><use xlink:href="#e8PPfWC52" opacity="1" fill="#65cae5" fill-opacity="1"></use><g><use xlink:href="#e8PPfWC52" opacity="1" fill-opacity="0" stroke="#000000" stroke-width="1" stroke-opacity="0"></use></g></g><g><use xlink:href="#bFI11xJZl" opacity="1" fill="#8ed7f0" fill-opacity="1"></use><g><use xlink:href="#bFI11xJZl" opacity="1" fill-opacity="0" stroke="#000000" stroke-width="1" stroke-opacity="0"></use></g></g><g><use xlink:href="#a4PgPLuWM" opacity="1" fill="#65cae5" fill-opacity="1"></use><g><use xlink:href="#a4PgPLuWM" opacity="1" fill-opacity="0" stroke="#000000" stroke-width="1" stroke-opacity="0"></use></g></g><g><use xlink:href="#b3lLqsZVLw" opacity="1" fill="#d6f0fc" fill-opacity="1"></use><g><use xlink:href="#b3lLqsZVLw" opacity="1" fill-opacity="0" stroke="#000000" stroke-width="1" stroke-opacity="0"></use></g></g><g><use xlink:href="#a1bsToWUYM" opacity="1" fill="#bfe6f3" fill-opacity="1"></use><g><use xlink:href="#a1bsToWUYM" opacity="1" fill-opacity="0" stroke="#000000" stroke-width="1" stroke-opacity="0"></use></g></g><g><use xlink:href="#abJkXrZqK" opacity="1" fill="#bfe6f3" fill-opacity="1"></use><g><use xlink:href="#abJkXrZqK" opacity="1" fill-opacity="0" stroke="#000000" stroke-width="1" stroke-opacity="0"></use></g></g></g></g></svg>