<?xml version="1.0" encoding="UTF-8" standalone="no"?>
<!DOCTYPE svg PUBLIC "-//W3C//DTD SVG 1.1//EN" "http://www.w3.org/Graphics/SVG/1.1/DTD/svg11.dtd">
<svg version="1.1" xmlns="http://www.w3.org/2000/svg" xmlns:xlink="http://www.w3.org/1999/xlink" preserveAspectRatio="xMidYMid meet" viewBox="0 0 100 100" width="100" height="100"><defs><path d="M25.08 79.03C25.08 79.03 25.08 79.07 25.13 79.07C25.13 79.07 25.17 79.12 25.17 79.12C25.31 79.26 25.45 79.44 25.63 79.58C25.72 79.67 25.81 79.76 25.95 79.81C26.86 80.64 34.14 87.33 35.05 88.17C35.73 88.99 37.38 89.73 40.9 91.01C40.9 91.01 40.94 91.01 40.94 91.01C42.22 91.42 44.65 92.29 48.21 93.52C48.32 93.56 48.83 93.74 49.77 94.07L52.88 84.79C54.08 81.28 54.75 79.33 54.89 78.94C54.89 78.89 54.89 78.89 54.93 78.89C56.03 78.89 64.85 78.89 65.95 78.89C66.22 79.62 66.54 80.54 66.96 81.68C67.09 82.14 67.32 82.78 67.64 83.55C67.67 83.62 67.81 83.97 68.05 84.61L77.84 93.61C78.52 93.61 78.9 93.61 78.98 93.61C79.62 93.61 80.67 93.43 84.01 92.1C84.56 91.92 85.2 91.65 85.97 91.19C87.21 90.55 88.58 89.95 90.13 89.45C90.77 89.27 91.64 88.9 92.05 88.08C92.14 87.94 92.19 87.76 92.24 87.62C92.33 87.26 92.33 86.85 92.19 86.48C90.24 81.37 74.62 40.48 72.67 35.37C71.57 32.45 71.25 31.53 71.16 31.3C71.16 31.29 71.12 31.22 71.12 31.21C70.61 29.93 70.11 28.93 69.52 28.29C69.52 28.29 69.52 28.29 69.52 28.29C69.52 28.29 69.52 28.29 69.52 28.29C69.42 28.19 69.33 28.1 69.2 28.01C68.29 27.2 61.05 20.73 60.14 19.92C59.73 19.28 59.28 18.82 58.73 18.64C58.73 18.64 58.73 18.64 58.73 18.64C58.73 18.64 58.73 18.64 58.73 18.64C58.5 18.55 58.32 18.55 58.04 18.55C58.03 18.55 57.95 18.55 57.81 18.55L49.08 20.93C49.05 20.93 49.04 20.93 49.04 20.93C47.57 21.38 46.06 21.84 44.6 22.25C44.59 22.26 44.52 22.29 44.51 22.3C43.64 22.57 43.37 23.03 41.95 27.19C40.98 30.06 36.12 44.4 27.37 70.21C27.37 70.21 27.37 70.21 27.37 70.21C27.37 70.21 27.37 70.21 27.37 70.21C27.37 70.21 27.37 70.25 27.37 70.25C27.37 70.3 27.37 70.3 27.32 70.39C27.32 70.4 27.28 70.47 27.28 70.48C27.23 70.62 27.14 70.85 27.05 71.07C27.04 71.08 27.01 71.16 27 71.17C26.96 71.35 26.86 71.53 26.82 71.71C26.8 71.75 26.7 72.04 26.68 72.08C26.59 72.31 26.54 72.54 26.45 72.77C26.43 72.83 26.25 73.3 26.22 73.36C26.18 73.5 26.13 73.59 26.09 73.68C26.08 73.69 26.05 73.8 26.04 73.82C26 73.91 26 73.95 25.95 74.05C25.94 74.09 25.83 74.42 25.81 74.46C25.77 74.59 25.72 74.73 25.68 74.82C25.66 74.86 25.55 75.15 25.54 75.19C25.49 75.28 25.49 75.33 25.49 75.37C25.49 75.37 25.49 75.37 25.49 75.37C25.4 75.65 24.94 76.56 24.76 77.52C24.76 77.54 24.72 77.61 24.67 77.75C24.67 77.91 24.67 78 24.67 78.02C24.67 78.34 24.72 78.62 24.85 78.85C24.94 78.85 24.94 78.89 24.99 78.89C25.04 78.94 25.04 78.98 25.08 79.03Z" id="dEiFH2yNe"></path><path d="M49.58 50.27C53.04 50.27 54.96 50.27 55.34 50.27C55.12 49.68 54.8 48.86 54.38 47.85C53.65 46.02 52.97 44.29 52.33 42.64C51.96 43.66 51.05 46.2 49.58 50.27Z" id="b5kEsQBgc2"></path><path d="M49.58 50.27C53.04 50.27 54.96 50.27 55.34 50.27C55.12 49.68 54.8 48.86 54.38 47.85C53.65 46.02 52.97 44.29 52.33 42.64C51.96 43.66 51.05 46.2 49.58 50.27Z" id="lD7a8UJfi"></path><path d="M61.7 67.14C61.74 67.23 61.74 67.33 61.79 67.42C61.97 68.06 62.16 68.61 62.34 69.11C61.98 69.31 60.2 70.3 56.99 72.08L66.77 81.09C67.46 81.09 67.84 81.09 67.92 81.09C68.56 81.09 69.61 80.9 72.94 79.58C73.49 79.39 74.13 79.12 74.91 78.66C76.14 78.02 77.52 77.43 79.07 76.93C79.71 76.74 80.58 76.38 80.99 75.55C81.08 75.42 81.13 75.23 81.17 75.1C80.52 74.49 77.26 71.48 71.39 66.05C65.58 66.7 62.34 67.07 61.7 67.14Z" id="f492joALV"></path><path d="M14.16 66.46C20.11 71.92 23.41 74.95 24.08 75.55C24.76 76.38 26.41 77.11 29.93 78.39C29.93 78.39 29.97 78.39 29.97 78.39C31.25 78.8 33.68 79.67 37.24 80.9C37.34 80.94 37.86 81.12 38.8 81.45L28.97 72.49L18.68 65.41L14.16 66.46Z" id="b9O20BJUm"></path><path d="M29.88 55.58L26.04 66.91L23.62 64.22L18.68 65.41L28.97 72.49L38.75 81.45L41.9 72.17L43.92 66.37L34.13 57.36L29.88 55.58Z" id="eKqWNrmPT"></path><path d="M49.58 50.27C53.04 50.27 54.96 50.27 55.34 50.27C55.12 49.68 54.8 48.86 54.38 47.85C53.65 46.02 52.97 44.29 52.33 42.64C51.96 43.66 51.05 46.2 49.58 50.27Z" id="b1GG0FEjvI"></path><path d="M29.88 55.58L34.09 57.36C39.96 62.76 43.22 65.77 43.87 66.37C43.87 66.32 43.87 66.32 43.92 66.32C45.66 66.32 59.59 66.32 61.33 66.32C61.42 66.46 61.56 66.73 61.7 67.14C62.34 67.07 65.58 66.7 71.39 66.05L49.58 51.28L33.86 43.92L29.88 55.58Z" id="g3isWi7xJr"></path><path d="M58.19 15.4L58.2 15.41L58.21 15.42L58.22 15.42L58.23 15.43L58.24 15.44L58.25 15.45L58.26 15.46L58.27 15.46L58.28 15.47L58.29 15.48L58.3 15.49L58.31 15.49L58.32 15.5L58.33 15.51L58.34 15.52L58.35 15.52L58.36 15.53L58.37 15.55L58.38 15.55L58.4 15.57L58.41 15.58L58.43 15.6L58.44 15.62L58.47 15.64L58.5 15.67L58.55 15.72L58.6 15.78L58.65 15.84L58.69 15.9L58.74 15.96L58.79 16.02L58.84 16.08L58.88 16.15L58.93 16.22L58.97 16.28L59.02 16.36L59.07 16.43L59.11 16.5L59.16 16.58L59.2 16.65L59.24 16.73L59.29 16.81L59.33 16.89L59.38 16.97L59.42 17.06L59.46 17.14L59.51 17.23L59.55 17.32L59.59 17.41L59.63 17.5L59.68 17.59L59.72 17.69L59.76 17.78L59.8 17.88L59.85 17.98L59.89 18.08L59.93 18.18L59.97 18.28L60.01 18.38L60.06 18.49L60.1 18.59L60.14 18.69L60.15 18.71L60.16 18.73L60.17 18.76L60.18 18.79L60.2 18.82L60.21 18.86L60.23 18.91L60.25 18.95L60.26 19.01L60.29 19.06L60.33 19.19L60.39 19.34L60.42 19.42L60.45 19.51L60.48 19.61L60.52 19.71L60.56 19.82L60.6 19.93L60.65 20.05L60.69 20.18L60.74 20.31L60.79 20.45L60.85 20.6L60.91 20.75L60.97 20.92L61.03 21.09L61.1 21.27L61.17 21.45L61.24 21.65L61.32 21.85L61.39 22.06L61.48 22.29L61.56 22.52L61.65 22.75L81.17 73.82L81.18 73.85L81.19 73.89L81.2 73.92L81.21 73.95L81.22 73.99L81.23 74.02L81.24 74.05L81.24 74.09L81.25 74.12L81.26 74.15L81.26 74.18L81.26 74.22L81.27 74.25L81.27 74.28L81.27 74.31L81.27 74.34L81.28 74.37L81.28 74.41L81.28 74.44L81.27 74.47L81.27 74.5L81.27 74.53L81.27 74.56L81.26 74.59L81.26 74.62L81.26 74.65L81.25 74.69L81.24 74.72L81.24 74.75L81.23 74.78L81.22 74.81L81.21 74.84L81.2 74.87L81.19 74.9L81.18 74.93L81.17 74.96L71.34 66.05L49.54 51.28L33.81 43.92L40.72 23.53L40.83 23.19L40.94 22.87L41.05 22.57L41.15 22.28L41.24 22L41.34 21.74L41.43 21.5L41.51 21.27L41.59 21.05L41.67 20.85L41.74 20.65L41.82 20.48L41.89 20.31L41.95 20.15L42.02 20.01L42.08 19.87L42.14 19.74L42.2 19.63L42.26 19.52L42.32 19.42L42.37 19.33L42.43 19.25L42.49 19.17L42.54 19.11L42.6 19.04L42.65 18.99L42.71 18.94L42.77 18.89L42.82 18.85L42.88 18.81L42.94 18.77L43.01 18.74L43.07 18.71L43.14 18.69L43.2 18.66L43.28 18.64L43.37 18.59L43.49 18.56L43.61 18.53L43.73 18.49L43.86 18.46L43.98 18.42L44.1 18.38L44.22 18.35L44.35 18.31L44.47 18.28L44.59 18.24L44.72 18.21L44.84 18.17L44.97 18.13L45.09 18.1L45.21 18.06L45.34 18.02L45.46 17.99L45.58 17.95L45.71 17.91L45.83 17.87L45.96 17.84L46.08 17.8L46.2 17.76L46.33 17.72L46.45 17.69L46.57 17.65L46.7 17.61L46.82 17.57L46.94 17.53L47.07 17.5L47.19 17.46L47.31 17.42L47.43 17.38L47.56 17.34L47.68 17.31L47.8 17.27L47.85 17.27L51.73 16.22L47.71 6.02L58.18 15.39L58.19 15.4ZM55.34 50.27L55.16 49.79L54.93 49.22L54.68 48.57L54.38 47.85L53.87 46.5L53.36 45.18L52.84 43.89L52.33 42.64L49.58 50.27L55.34 50.27Z" id="ab1c9DNW8"></path><path d="M47.33 5.94L47.43 5.95L47.54 5.97L47.64 5.99L47.73 6.02L47.83 6.05L47.92 6.09L48.01 6.13L48.1 6.18L48.19 6.23L48.28 6.28L48.37 6.34L48.45 6.41L48.53 6.48L48.61 6.55L48.69 6.63L48.77 6.71L48.85 6.8L48.93 6.89L49 6.99L49.08 7.09L49.15 7.19L49.23 7.3L49.3 7.42L49.37 7.54L49.44 7.66L49.51 7.79L49.58 7.92L49.65 8.05L49.73 8.19L49.8 8.34L49.87 8.48L49.94 8.64L50.01 8.79L50.08 8.95L50.15 9.12L50.22 9.29L50.29 9.46L50.36 9.63L50.41 9.73L50.41 9.74L50.42 9.77L50.43 9.79L50.44 9.82L50.45 9.85L50.47 9.88L50.48 9.92L50.49 9.96L50.51 10L50.53 10.05L50.55 10.1L50.59 10.21L50.66 10.41L50.69 10.49L50.72 10.57L50.75 10.66L50.78 10.75L50.82 10.84L50.86 10.95L50.9 11.05L50.94 11.16L50.98 11.28L51.03 11.4L51.07 11.53L51.12 11.67L51.18 11.81L51.23 11.96L51.29 12.11L51.35 12.27L51.41 12.44L51.47 12.61L51.54 12.79L51.61 12.98L51.68 13.17L51.76 13.37L51.83 13.58L51.92 13.79L71.44 64.9L71.45 64.94L71.46 64.99L71.47 65.03L71.48 65.07L71.49 65.11L71.5 65.15L71.51 65.19L71.52 65.23L71.52 65.27L71.53 65.31L71.53 65.35L71.54 65.4L71.54 65.44L71.54 65.48L71.54 65.52L71.55 65.56L71.54 65.6L71.54 65.64L71.54 65.68L71.54 65.72L71.53 65.76L71.53 65.8L71.52 65.84L71.52 65.88L71.51 65.92L71.5 65.96L71.49 66L71.48 66.04L71.47 66.08L71.46 66.12L71.45 66.16L71.44 66.2L71.42 66.23L71.41 66.27L71.39 66.31L71.37 66.35L71.36 66.39L71.34 66.43L71.32 66.47L71.3 66.5L71.27 66.56L71.23 66.62L71.2 66.68L71.16 66.74L71.12 66.79L71.08 66.84L71.04 66.89L71 66.94L70.96 66.99L70.91 67.04L70.87 67.08L70.82 67.13L70.78 67.17L70.73 67.21L70.68 67.25L70.63 67.29L70.58 67.33L70.53 67.36L70.48 67.4L70.42 67.43L70.37 67.46L70.32 67.49L70.27 67.52L70.21 67.55L70.16 67.58L70.11 67.6L70.05 67.63L70 67.65L69.94 67.68L69.89 67.7L69.84 67.72L69.78 67.74L69.73 67.76L69.68 67.78L69.63 67.8L69.58 67.81L69.53 67.83L69.48 67.85L69.43 67.86L69.38 67.87L69.26 67.91L69.15 67.95L69.03 67.99L68.92 68.03L68.8 68.07L68.69 68.11L68.58 68.15L68.47 68.19L68.36 68.23L68.25 68.27L68.14 68.31L68.03 68.35L67.92 68.39L67.81 68.43L67.7 68.48L67.6 68.52L67.49 68.56L67.39 68.6L67.28 68.65L67.18 68.69L67.08 68.74L66.97 68.78L66.87 68.82L66.77 68.87L66.67 68.91L66.57 68.96L66.47 69L66.37 69.05L66.27 69.09L66.17 69.14L66.07 69.19L65.98 69.23L65.88 69.28L65.78 69.33L65.69 69.37L65.59 69.42L65.5 69.47L65.4 69.52L65.31 69.56L65.22 69.61L65.16 69.65L65.1 69.68L65.05 69.71L64.99 69.74L64.93 69.77L64.88 69.81L64.82 69.84L64.77 69.86L64.71 69.89L64.66 69.92L64.61 69.95L64.55 69.98L64.5 70L64.45 70.03L64.4 70.05L64.35 70.08L64.3 70.1L64.25 70.13L64.2 70.15L64.15 70.17L64.1 70.19L64.05 70.21L64.01 70.24L63.96 70.26L63.91 70.28L63.86 70.3L63.82 70.32L63.77 70.33L63.73 70.35L63.68 70.37L63.64 70.39L63.59 70.4L63.55 70.42L63.51 70.44L63.46 70.45L63.42 70.47L63.38 70.48L63.34 70.5L63.29 70.51L63.25 70.53L63.01 70.62L62.77 70.72L62.54 70.81L62.32 70.89L62.1 70.97L61.9 71.05L61.7 71.12L61.51 71.19L61.33 71.26L61.15 71.32L60.98 71.38L60.82 71.44L60.66 71.49L60.51 71.54L60.36 71.59L60.23 71.63L60.09 71.67L59.97 71.71L59.84 71.74L59.73 71.78L59.62 71.81L59.51 71.84L59.41 71.86L59.31 71.89L59.22 71.91L59.13 71.93L59.04 71.94L58.96 71.96L58.88 71.97L58.81 71.99L58.74 72L58.67 72L58.61 72.01L58.55 72.02L58.49 72.02L58.43 72.03L58.38 72.03L58.32 72.03L58.27 72.03L58.22 72.03L57.08 72.03L56.67 70.98L56.65 70.92L56.62 70.87L56.6 70.81L56.58 70.75L56.55 70.7L56.53 70.64L56.51 70.59L56.49 70.53L56.47 70.48L56.45 70.43L56.43 70.37L56.41 70.32L56.39 70.27L56.37 70.22L56.35 70.17L56.33 70.12L56.31 70.07L56.29 70.02L56.28 69.97L56.26 69.93L56.24 69.88L56.22 69.83L56.21 69.79L56.19 69.74L56.18 69.7L56.16 69.65L56.15 69.61L56.13 69.57L56.12 69.53L56.1 69.49L56.09 69.44L56.08 69.4L56.06 69.37L56.05 69.33L56.04 69.29L56.03 69.25L56.02 69.21L56.01 69.18L55.99 69.14L55.98 69.11L55.88 68.82L55.78 68.54L55.69 68.27L55.6 68.01L55.51 67.76L55.42 67.52L55.34 67.29L55.26 67.07L55.18 66.86L55.11 66.65L55.04 66.46L54.97 66.27L54.9 66.09L54.84 65.92L54.78 65.76L54.72 65.6L54.66 65.45L54.61 65.31L54.56 65.18L54.51 65.05L54.46 64.93L54.42 64.82L54.38 64.71L54.34 64.61L54.3 64.51L54.26 64.42L54.23 64.34L54.19 64.26L54.16 64.19L54.13 64.12L54.11 64.06L54.08 64L54.06 63.94L54.03 63.89L54.01 63.85L53.99 63.8L53.97 63.76L53.96 63.73L53.94 63.7L53.93 63.67L53.91 63.63L53.88 63.59L53.86 63.54L53.84 63.5L53.81 63.45L53.79 63.4L53.76 63.34L53.73 63.28L53.7 63.22L53.67 63.15L53.64 63.08L53.61 63L53.57 62.92L53.54 62.84L53.5 62.75L53.46 62.65L53.42 62.55L53.38 62.45L53.34 62.34L53.29 62.22L53.25 62.1L53.2 61.97L53.15 61.84L53.1 61.7L53.04 61.55L52.99 61.39L52.93 61.23L52.87 61.06L52.81 60.89L52.75 60.7L52.69 60.51L52.62 60.31L52.55 60.11L52.48 59.89L52.41 59.67L52.33 59.43L52.25 59.19L52.17 58.94L52.09 58.68L52.01 58.41L51.99 58.37L51.98 58.33L51.97 58.29L51.95 58.25L51.94 58.21L51.93 58.18L51.91 58.14L51.9 58.1L51.88 58.07L51.87 58.03L51.86 58L51.84 57.97L51.83 57.93L51.82 57.9L51.81 57.87L51.79 57.84L51.78 57.81L51.77 57.78L51.76 57.75L51.74 57.73L51.73 57.7L51.72 57.67L51.71 57.65L51.7 57.62L51.69 57.6L51.68 57.57L51.66 57.55L51.65 57.53L51.64 57.51L51.63 57.49L51.62 57.47L51.61 57.45L51.61 57.43L51.6 57.41L51.59 57.39L51.58 57.37L51.57 57.36L51.55 57.31L34.13 57.31L34.12 57.31L34.11 57.31L34.1 57.32L34.1 57.32L34.1 57.32L34.09 57.32L34.09 57.32L34.09 57.32L34.09 57.33L34.09 57.33L34.09 57.34L34.09 57.34L34.09 57.36L32.08 63.21L28.97 72.49L27.41 71.94L27.15 71.85L26.89 71.76L26.63 71.67L26.38 71.58L26.13 71.5L25.89 71.42L25.65 71.33L25.41 71.25L25.18 71.17L24.95 71.09L24.73 71.02L24.51 70.94L24.3 70.87L24.09 70.8L23.88 70.73L23.68 70.66L23.48 70.59L23.29 70.52L23.1 70.46L22.92 70.39L22.74 70.33L22.56 70.27L22.39 70.21L22.22 70.16L22.06 70.1L21.59 69.94L21.44 69.89L21.3 69.84L21.16 69.79L21.03 69.75L20.9 69.7L20.77 69.66L20.65 69.62L20.53 69.58L20.42 69.54L20.31 69.5L20.2 69.46L20.1 69.43L19.72 69.29L19.36 69.16L19.01 69.03L18.68 68.9L18.36 68.78L18.05 68.66L17.76 68.54L17.48 68.43L17.21 68.32L16.96 68.21L16.72 68.1L16.49 68L16.27 67.9L16.06 67.8L15.87 67.71L15.69 67.61L15.51 67.52L15.35 67.43L15.2 67.34L15.05 67.25L14.92 67.16L14.8 67.07L14.68 66.98L14.58 66.89L14.48 66.81L14.39 66.72L14.31 66.63L14.24 66.55L14.17 66.46L14.11 66.37L14.06 66.28L14.02 66.19L13.98 66.1L13.95 66L13.93 65.91L13.91 65.81L13.89 65.71L13.88 65.61L13.88 65.51L13.88 65.41L13.88 65.13L31.02 14.57L31.13 14.27L31.23 13.97L31.32 13.7L31.42 13.43L31.51 13.18L31.59 12.94L31.67 12.71L31.75 12.49L31.83 12.29L31.9 12.09L31.97 11.91L32.04 11.73L32.1 11.57L32.17 11.41L32.23 11.27L32.29 11.13L32.35 11L32.4 10.88L32.46 10.77L32.51 10.67L32.56 10.57L32.61 10.48L32.67 10.4L32.72 10.32L32.77 10.25L32.82 10.19L32.87 10.13L32.92 10.07L32.97 10.02L33.02 9.97L33.07 9.93L33.12 9.89L33.17 9.86L33.23 9.83L33.28 9.8L33.34 9.77L33.4 9.75L33.46 9.72L33.52 9.7L33.58 9.68L33.68 9.63L33.79 9.6L33.9 9.57L34.01 9.54L34.12 9.51L34.23 9.48L34.34 9.45L34.45 9.41L34.56 9.38L34.67 9.35L34.78 9.32L34.89 9.29L35 9.25L35.11 9.22L35.22 9.19L35.34 9.15L35.45 9.12L35.56 9.09L35.67 9.06L35.78 9.02L35.89 8.99L36 8.96L36.12 8.92L36.23 8.89L36.34 8.85L36.45 8.82L36.56 8.79L36.67 8.75L36.78 8.72L36.89 8.68L37.01 8.65L37.12 8.62L37.23 8.58L37.34 8.55L37.45 8.51L37.56 8.48L37.67 8.45L37.78 8.41L37.89 8.38L38 8.34L38.11 8.31L38.16 8.31L46.89 5.93L47.12 5.93L47.22 5.93L47.33 5.94ZM45.56 41.27L45.37 40.78L45.15 40.21L44.89 39.57L44.6 38.85L44.09 37.49L43.57 36.17L43.06 34.89L42.54 33.63L39.8 41.27L45.56 41.27Z" id="c3cL14FZr"></path><path d="M25.54 30.62L23.21 37.47L37.33 23.49L23.21 41.27L52.19 14.71L49.58 7.99L25.54 30.62Z" id="b3i0MiEq0t"></path><path d="M39.8 41.27L54.25 41.27C31.98 57.45 19.6 66.44 17.13 68.24C17.13 68.24 15.02 67.51 14.2 66.41C13.38 65.31 14.52 63.12 14.66 62.71C14.75 62.3 16.4 57.54 16.4 57.54C19.52 55.37 27.32 49.95 39.8 41.27Z" id="c5FzhDJtX"></path><path d="M57.45 28.38L58.09 30.11L49.13 38.16L58.96 32.35L60.78 37.11L54.2 41.27L45.56 41.27L44.33 38.16L57.45 28.38Z" id="d1T0Frt6sh"></path><path d="M53.93 54.75L63.16 49.63L58.32 53.52L65.77 50.27L64.4 46.57L53.93 54.75Z" id="cASoyu2iQ"></path></defs><g><g><g><use xlink:href="#dEiFH2yNe" opacity="1" fill="#019db2" fill-opacity="1"></use><g><use xlink:href="#dEiFH2yNe" opacity="1" fill-opacity="0" stroke="#000000" stroke-width="1" stroke-opacity="0"></use></g></g><g><use xlink:href="#b5kEsQBgc2" opacity="1" fill="#000000" fill-opacity="0"></use><g><use xlink:href="#b5kEsQBgc2" opacity="1" fill-opacity="0" stroke="#000000" stroke-width="1" stroke-opacity="0"></use></g></g><g><use xlink:href="#lD7a8UJfi" opacity="1" fill="#000000" fill-opacity="0"></use><g><use xlink:href="#lD7a8UJfi" opacity="1" fill-opacity="0" stroke="#000000" stroke-width="1" stroke-opacity="0"></use></g></g><g><use xlink:href="#f492joALV" opacity="1" fill="#65cae5" fill-opacity="1"></use><g><use xlink:href="#f492joALV" opacity="1" fill-opacity="0" stroke="#000000" stroke-width="1" stroke-opacity="0"></use></g></g><g><use xlink:href="#b9O20BJUm" opacity="1" fill="#65cae5" fill-opacity="1"></use><g><use xlink:href="#b9O20BJUm" opacity="1" fill-opacity="0" stroke="#000000" stroke-width="1" stroke-opacity="0"></use></g></g><g><use xlink:href="#eKqWNrmPT" opacity="1" fill="#8ed7f0" fill-opacity="1"></use><g><use xlink:href="#eKqWNrmPT" opacity="1" fill-opacity="0" stroke="#000000" stroke-width="1" stroke-opacity="0"></use></g></g><g><use xlink:href="#b1GG0FEjvI" opacity="1" fill="#000000" fill-opacity="0"></use><g><use xlink:href="#b1GG0FEjvI" opacity="1" fill-opacity="0" stroke="#000000" stroke-width="1" stroke-opacity="0"></use></g></g><g><use xlink:href="#g3isWi7xJr" opacity="1" fill="#65cae5" fill-opacity="1"></use><g><use xlink:href="#g3isWi7xJr" opacity="1" fill-opacity="0" stroke="#000000" stroke-width="1" stroke-opacity="0"></use></g></g><g><use xlink:href="#ab1c9DNW8" opacity="1" fill="#8ed7f0" fill-opacity="1"></use><g><use xlink:href="#ab1c9DNW8" opacity="1" fill-opacity="0" stroke="#000000" stroke-width="1" stroke-opacity="0"></use></g></g><g><use xlink:href="#c3cL14FZr" opacity="1" fill="#d6f0fc" fill-opacity="1"></use><g><use xlink:href="#c3cL14FZr" opacity="1" fill-opacity="0" stroke="#000000" stroke-width="1" stroke-opacity="0"></use></g></g><g><use xlink:href="#b3i0MiEq0t" opacity="1" fill="#bfe6f3" fill-opacity="1"></use><g><use xlink:href="#b3i0MiEq0t" opacity="1" fill-opacity="0" stroke="#000000" stroke-width="1" stroke-opacity="0"></use></g></g><g><use xlink:href="#c5FzhDJtX" opacity="1" fill="#bfe6f3" fill-opacity="1"></use><g><use xlink:href="#c5FzhDJtX" opacity="1" fill-opacity="0" stroke="#000000" stroke-width="1" stroke-opacity="0"></use></g></g><g><use xlink:href="#d1T0Frt6sh" opacity="1" fill="#bfe6f3" fill-opacity="1"></use><g><use xlink:href="#d1T0Frt6sh" opacity="1" fill-opacity="0" stroke="#000000" stroke-width="1" stroke-opacity="0"></use></g></g><g><use xlink:href="#cASoyu2iQ" opacity="1" fill="#bfe6f3" fill-opacity="1"></use><g><use xlink:href="#cASoyu2iQ" opacity="1" fill-opacity="0" stroke="#000000" stroke-width="1" stroke-opacity="0"></use></g></g></g></g></svg>