<?xml version="1.0" encoding="UTF-8" standalone="no"?>
<!DOCTYPE svg PUBLIC "-//W3C//DTD SVG 1.1//EN" "http://www.w3.org/Graphics/SVG/1.1/DTD/svg11.dtd">
<svg version="1.1" xmlns="http://www.w3.org/2000/svg" xmlns:xlink="http://www.w3.org/1999/xlink" preserveAspectRatio="xMidYMid meet" viewBox="0 0 100 100" width="100" height="100"><defs><path d="M290.15 494.31L290.15 494.31L285.85 492.07L285.85 492.07L281.23 489.65L281.23 489.65L275.75 486.77L269.35 496.73L264.5 499.66L261.99 495.77L252.16 486.77L252.16 486.77L252.16 486.77L237.76 494.22L254.4 519.91L234.51 550.67L234.51 550.67L234.51 550.67L234.51 550.67L234.51 550.67L244.3 559.68L259.34 565.76L271.82 546.7L278.35 556.8L278.35 556.8L288.18 565.76L303.18 559.63L283.38 528.87L299.98 503.31L290.15 494.31Z" id="fhBWAIQnn"></path><path d="M512.27 389.62L489.01 446.17L488.91 446.22L474.47 451.57L464.69 442.56L437.99 378.29L455.27 374.77L465.05 383.77L469.26 393.51L480.18 390.77L486.58 374.13L502.49 380.71L512.27 389.62ZM474.51 405.62L476.07 401.65L473.14 402.42L474.51 405.62ZM471.22 398.13L477.99 396.57L479.54 392.5L470.4 396.16L471.22 398.13Z" id="abUTaVxbd"></path><path d="M585.23 374.67L576.14 400.05L568.96 386.42L559.18 377.42L559.18 377.42L559.18 377.42L551.82 396.07L546.93 384.09L537.14 375.09L541.3 385.33L541.3 385.33L537.14 375.09L519.31 379.02L542.81 440.05C542.92 440.18 542.98 440.26 542.99 440.27C543.22 440.55 543.5 440.78 543.73 440.96C544.64 441.79 551.91 448.45 552.82 449.28C553.83 450.42 554.88 450.65 555.57 450.65C556.3 450.65 556.98 450.47 557.58 450.06C557.9 449.87 558.17 449.6 558.49 449.19C558.5 449.18 558.53 449.15 558.58 449.1L567.54 431.31L572.43 440.27C572.52 440.36 572.56 440.4 572.57 440.41C572.85 440.73 573.12 440.91 573.35 441.1C574.25 441.92 581.45 448.54 582.35 449.37C583.27 450.42 584.32 450.65 585.01 450.65C585.6 450.65 586.24 450.47 586.83 450.06C587.06 449.92 587.34 449.74 587.61 449.46C587.63 449.45 587.7 449.37 587.84 449.23L610.7 392.23L600.87 383.22L600.87 383.22L585.23 374.67Z" id="b4IkJfiued"></path><path d="M339.34 499.75L350.95 495.13L356.53 486.86L364.07 489.92L367.68 491.38L372.34 493.26L382.08 502.26L359.95 534.81L359.95 561.23L342.95 565.44L333.17 556.43L333.17 526.13L310.08 493.9L326.72 486.86L336.5 495.86L339.34 499.75ZM343.59 505.55L344.09 505.37L346.15 502.31L342.54 504.14L343.59 505.55Z" id="a6zdBToWJZ"></path><path d="M446.31 491.25L446.31 491.25L439.04 491.25L439.04 491.25L398.13 491.25L392.37 508.89L392.37 508.89L392.37 508.89L392.37 508.89L392.37 508.89L402.19 517.9L410.88 517.9L388.94 555.98L388.94 555.98L388.94 555.98L388.94 555.98L388.94 555.98L398.72 564.94L447.22 564.94L447.36 564.94L453.35 547.57L443.52 538.61L443.52 538.61L435.38 538.61L456.14 500.25L446.31 491.25Z" id="e1L4VLUqnD"></path><path d="M54.48 25.27L52.88 26.46L53.47 27.01L53.47 56.31L58.73 53.75L58.73 21.57L76.56 18.05L86.3 27.05L86.3 91.28L69.11 94.48L68.47 94.62L68.47 93.98L64.63 90.69L59.83 94.11L40.95 86.48L40.84 86.43L40.73 86.38L40.62 86.34L40.51 86.29L40.4 86.24L40.3 86.19L40.19 86.14L40.09 86.09L39.99 86.05L39.89 86L39.8 85.95L39.7 85.9L39.61 85.85L39.51 85.8L39.42 85.75L39.33 85.7L39.24 85.65L39.16 85.6L39.07 85.55L38.99 85.5L38.91 85.45L38.83 85.4L38.75 85.35L38.67 85.3L38.59 85.25L38.52 85.19L38.44 85.14L38.37 85.09L38.3 85.04L38.23 84.98L38.16 84.93L38.09 84.87L38.03 84.82L37.97 84.76L37.9 84.71L37.84 84.65L37.78 84.6L37.72 84.54L37.67 84.48L37.61 84.42L29.25 76.65L28.83 76.24L28.78 76.2L28.72 76.16L28.7 76.14L28.67 76.12L28.64 76.1L28.62 76.08L28.59 76.05L28.56 76.03L28.53 76.01L28.51 75.99L28.48 75.97L28.45 75.95L28.43 75.93L28.4 75.91L28.38 75.89L28.35 75.87L28.32 75.85L28.3 75.83L28.27 75.81L28.25 75.79L28.22 75.77L28.2 75.75L28.17 75.73L28.15 75.71L28.12 75.68L28.1 75.66L28.07 75.64L28.05 75.62L28.03 75.6L28 75.58L27.98 75.56L27.96 75.54L27.94 75.52L27.91 75.5L27.89 75.48L27.87 75.46L27.85 75.44L27.83 75.42L27.67 75.26L27.51 75.1L27.36 74.94L27.22 74.77L27.07 74.6L26.93 74.43L26.8 74.25L26.67 74.07L26.54 73.89L26.42 73.71L26.3 73.52L26.18 73.32L26.07 73.13L25.96 72.93L25.86 72.72L25.76 72.52L25.66 72.31L25.57 72.1L25.48 71.88L25.4 71.66L25.32 71.44L25.25 71.22L25.17 70.99L25.11 70.76L25.04 70.52L24.98 70.28L24.93 70.04L24.88 69.8L24.83 69.55L24.79 69.3L24.75 69.05L24.71 68.79L24.68 68.54L24.66 68.27L24.63 68.01L24.62 67.74L24.6 67.47L24.59 67.2L24.58 66.92L24.58 66.64L24.58 22.21L43.65 17.95L52.61 26.18L54.48 25.27ZM53.52 68.42L58.78 70.48L58.78 65.86L57.63 66.5L58.78 65.59L58.78 63.26L53.52 66.55L53.52 68.42ZM53.52 61.2L58.78 57.82L58.78 56.17L53.52 58.14L53.52 61.2Z" id="eMtrvE7AY"></path><path d="M241.23 474.15L243.43 487.09L236.62 490.56L246.54 505.87L246.86 507.89L259.38 507.38L261.53 499.34L251.06 483.15L241.23 474.15Z" id="cMJC8gxP5"></path><path d="M276.89 484.34L274.61 483.11L265.69 497.01L262.45 500.71L261.53 499.34L259.38 507.38L262.67 507.29L272.46 516.25L289.05 490.7L279.22 481.69L276.89 484.34Z" id="b4g02K94z"></path><path d="M249.87 514.88L253.3 516.25L250.01 511.18L249.87 514.88Z" id="a4jnbRyO5h"></path><path d="M249.87 514.88L249.6 522.01L253.3 516.25L249.87 514.88Z" id="cIPQfyTA"></path><path d="M265.97 538.19L267.43 544.14L277.26 553.14L292.3 547.02L282.47 538.06L265.97 538.19Z" id="bBzsY5j7v"></path><path d="M272.46 516.25L262.67 507.29L246.86 507.89L247.09 509.03L244.21 512.55L249.87 514.88L250.01 511.18L253.3 516.25L262.35 531.84L262.86 531.02L265.01 534.31L265.97 538.19L282.47 538.06L292.3 547.02L272.46 516.25Z" id="b9uUxyGdf"></path><path d="M223.59 538.06L233.37 547.06L248.41 553.14L238.63 544.14L223.82 537.78L223.59 538.06Z" id="cxWhovjZD"></path><path d="M249.87 514.88L244.21 512.55L223.82 537.78L238.63 544.14L248.41 553.14L262.35 531.84L253.3 516.25L249.6 522.01L249.87 514.88Z" id="f4uf8c7bc2"></path><path d="M264.82 474.15L253.07 492.43L241.23 474.15L226.83 481.6L243.47 507.29L223.59 538.06L238.63 544.14L253.07 522.06L267.43 544.14L282.47 538.06L262.67 507.29L279.22 481.69L264.82 474.15Z" id="a19GHrCCjc"></path><path d="M247.04 488.73L238.95 495.73L270.31 477.03L274.93 479.45L248.41 496.32L264.14 489.55L241.55 504.27L236.02 495.73L247.04 488.73Z" id="b1LfnEIYAw"></path><path d="M253.03 518.35L265.33 514.29L238.08 534.45L269.35 517.67L264.55 510.17L253.03 518.35Z" id="f4jzAxMbt1"></path><path d="M457.37 424.09L453.76 429.99L463.59 438.99L478.03 433.65L468.3 424.64L456.91 422.95L457.37 424.09Z" id="d6rttJgnq2"></path><path d="M491.57 368.09L489.14 372.07L485.49 370.51L477.62 390.95L468.89 405.26L454.13 371.2L444.34 362.19L448.69 372.3L436.89 374.72L456.91 422.95L468.3 424.64L478.03 433.65L478.13 433.6L501.39 377.1L491.57 368.09Z" id="dJu5SP7tD"></path><path d="M444.34 362.19L427.06 365.76L453.76 429.99L468.3 424.64L491.57 368.09L475.66 361.55L460.8 400.27L444.34 362.19Z" id="b8eVQjUrn"></path><path d="M452.48 404.34L475.52 402.15L448.69 410.06L475.84 406.31L479.54 397.35L452.48 404.34Z" id="bzX8qjGxK"></path><path d="M448.46 380.94L439.68 385.65L478.67 375.82L446.77 388.66L486.99 379.29L485.12 383.77L439.54 395.75L435.06 384.96L448.46 380.94Z" id="a5JMxhkf4v"></path><path d="M558.95 419.7L560.41 416.73L558.95 414.03L557.44 417.01L558.95 419.7Z" id="b64QsYsGTt"></path><path d="M536.59 423.36L532.02 427.7C537.89 433.11 541.15 436.11 541.81 436.71C542.81 437.85 543.86 438.08 544.55 438.08C545.28 438.08 545.97 437.9 546.56 437.49C546.88 437.3 547.15 437.03 547.47 436.62C547.48 436.61 547.51 436.58 547.57 436.53L557.39 417.05L549.85 403.38L531.47 410.06L536.59 423.36Z" id="g2n1VOxzGK"></path><path d="M548.25 364.85L554.42 382.99L547.66 400.09L536 371.52L526.17 362.51L530.38 372.75L518.13 375.45L531.47 410.06L549.9 403.34L557.44 417.01L558.95 414.03L560.41 416.73L570.19 396.8L558.03 373.81L548.25 364.85Z" id="a5fzpgBA"></path><path d="M588.75 373.58L584.14 371.06L572.98 402.19L570.15 396.85L560.41 416.73L565.53 426.1L561.46 427.66C567.41 433.14 570.72 436.19 571.38 436.8C572.3 437.85 573.35 438.08 574.03 438.08C574.63 438.08 575.27 437.9 575.86 437.49C576.09 437.35 576.37 437.17 576.64 436.89C576.66 436.88 576.73 436.8 576.87 436.66L599.73 379.66L589.94 370.61L588.75 373.58Z" id="jhRyGm8zI"></path><path d="" id="bOdzLEhEQ"></path><path d="M548.25 364.85L537.83 391.13L526.17 362.51L508.34 366.45L531.84 427.47C531.95 427.61 532.01 427.69 532.02 427.7C533.03 428.85 534.08 429.07 534.77 429.07C535.5 429.07 536.18 428.89 536.78 428.48C537.1 428.3 537.37 428.02 537.69 427.61C537.7 427.61 537.73 427.57 537.78 427.52L549.12 405.07L561.46 427.66C561.55 427.74 561.59 427.79 561.6 427.79C562.51 428.85 563.57 429.07 564.25 429.07C564.85 429.07 565.49 428.89 566.08 428.48C566.31 428.34 566.58 428.16 566.86 427.89C566.87 427.87 566.95 427.79 567.09 427.66L589.94 370.65L574.31 362.1L563.2 393.19L548.25 364.85Z" id="aInAWiS5"></path><path d="M530.47 383.18L521.05 390.95L558.95 379.29L525.67 395.02L539.66 393.83L521.14 399.68L517.3 389.76L530.47 383.18Z" id="c2MLonZ2Bg"></path><path d="M576.82 403.34L541.81 417.01L564.43 404.39L527.73 416.82C526.79 414.38 526.28 413.03 526.17 412.75C526.17 412.75 575.45 395.38 574.63 395.02C573.81 394.65 555.02 395.79 555.02 395.79C556.83 395.39 565.92 393.38 582.26 389.76L576.82 403.34Z" id="h4JATdwCuw"></path><path d="M361.42 480.64L358.72 484.57L355.43 483.25L341.07 504.5L340.98 504.37L339.57 513.51L349.07 522.19L371.2 489.65L361.42 480.64Z" id="guwNksFJ5"></path><path d="M315.84 474.24L323.15 484.3L308.98 490.29C319.68 505.23 325.62 513.54 326.81 515.2C332.66 514.33 339.25 513.23 339.25 513.23C339.27 513.25 339.37 513.34 339.57 513.51L340.98 504.37L325.62 483.25L315.84 474.24Z" id="c1rnbTMQbc"></path><path d="M332.02 541.39L322.24 543.82L332.02 552.82L349.07 548.57L349.07 548.48L339.25 539.61L332.02 540.71L332.02 541.39Z" id="g1S0UVUUxl"></path><path d="M339.25 513.23C339.25 513.23 332.62 514.33 326.81 515.2C327.16 515.69 328.91 518.13 332.07 522.51L332.07 540.71L339.29 539.57L349.07 548.48L349.07 522.19L349.07 522.19C343.18 516.82 339.9 513.83 339.25 513.23Z" id="de93qoq3K"></path><path d="M315.79 474.29L299.15 481.33L322.24 513.51L322.24 543.82L339.25 539.61L339.25 513.23L361.42 480.64L345.6 474.29L331.29 495.54L315.79 474.29Z" id="bSKmWL0DZ"></path><path d="M329.55 522.19L338.56 520.27L322.24 532.85L322.24 535.95L339.57 524.75L339.25 516.25L329.55 522.19Z" id="d5mvlEHwC"></path><path d="M334.72 506.1L347.06 501.71L350.03 497.37L334.72 506.1Z" id="a16DH7GlbS"></path><path d="M321.78 486.58L314.15 492.85L353.14 477.3L356.75 478.77L316.89 498.97L345.1 488.14L316.16 505.1L308.02 493.67L321.78 486.58Z" id="c1l1tsUSzQ"></path><path d="M435.38 478.63L414.95 505.23L399.77 531.57L423.36 528L445.21 487.59L435.38 478.63Z" id="a1Q17eOSCC"></path><path d="M423.36 528L399.77 531.57L397.26 535.95L426.65 543.36L436.3 552.32L436.43 552.32L442.42 534.95L432.59 525.94L422.77 529.1L423.36 528Z" id="b1MUgtLOwG"></path><path d="M396.34 537.51L378.01 543.36L387.79 552.32L436.3 552.32L426.65 543.36L397.26 535.95L396.34 537.51Z" id="e2D7YjF0al"></path><path d="M396.98 487.59L395.7 491.61L381.44 496.27L391.27 505.23L414.95 505.23L435.38 478.63L407.91 487.59L396.98 487.59Z" id="cCLWUtQjX"></path><path d="M381.44 496.27L405.12 496.27L378.01 543.36L426.65 543.36L432.59 525.94L409.78 525.94L435.38 478.63L387.2 478.63L381.44 496.27Z" id="a3POuye9LU"></path><path d="M406.67 486.45L396.34 492.62L428.11 478.63L435.38 478.63L405.21 493.94L426.51 485.49L402.88 500.16L405.12 496.27L381.44 496.27L406.67 486.45Z" id="a1SoeYfMaX"></path><path d="M402.24 516.25L418.97 509.03L422.49 503.36L402.24 516.25Z" id="blfTdw4y0"></path><path d="M412.34 527.13L396.43 539.15L419.84 526.08L425.69 526.08L397.26 543.36L378.01 543.36L412.34 527.13Z" id="a6F0CMqAG"></path><path d="M57.63 65.22L51.14 61.57L50.41 64.08L57.63 66.87L57.63 65.22Z" id="a1dZzr3oxg"></path><path d="M43.01 61.02C43.01 61.03 43.09 61.1 43.1 61.11C43.1 61.11 43.28 61.25 43.92 61.57C44 61.6 44.41 61.75 45.15 62.02L46.71 59.28L42.59 59.28L42.59 59.65L42.55 59.83C42.52 60.35 42.67 60.74 43.01 61.02Z" id="aWpN2Y8dq"></path><path d="M51.14 61.57L47.07 59.28L46.66 59.28L45.15 62.02L50.41 64.08L51.14 61.57Z" id="b1j8yyFIfJ"></path><path d="M32.77 5.38L32.77 16.54L23.49 18.59L23.49 59.28L42.59 59.28L42.59 14.39L32.77 5.38Z" id="a1u30PGKC1"></path><path d="M57.63 66.87L50.41 64.08L47.85 73.04L53.79 78.07L57.63 81.36L57.63 82L58.27 81.91L75.46 78.71L65.68 69.7L57.63 65.22L57.63 66.87Z" id="dnsFffMkC"></path><path d="M45.11 62.02L39.17 72.54L49.31 81.27L39.17 72.54L45.11 62.02C44.37 61.75 43.96 61.6 43.87 61.57C43.23 61.29 43.05 61.11 43.05 61.11C43.04 61.1 42.97 61.03 42.96 61.02C42.46 60.56 42.41 60.24 42.5 59.83C42.51 59.82 42.52 59.76 42.55 59.65L42.55 59.28L23.49 59.28C23.49 61.53 23.49 62.78 23.49 63.03C23.49 64.03 23.58 64.95 23.71 65.86C23.21 65.61 20.72 64.35 16.22 62.07C22.53 67.94 26.03 71.2 26.73 71.85C27.46 72.63 28.56 73.27 30.07 73.91C31.33 74.42 37.62 76.96 48.95 81.54L53.75 78.11L47.81 73.04L50.41 64.08L45.11 62.02Z" id="b2zi3axN7T"></path><path d="M65.68 16.35L57.63 17.91L57.63 65.22L65.68 69.7L75.46 78.71L75.46 14.39L65.68 5.43L65.68 16.35Z" id="alGsMJOHO"></path><path d="M47.85 57.91C39.62 54.73 35.05 52.96 34.14 52.61C33.5 52.33 33.31 52.15 33.31 52.15C33.31 52.14 33.23 52.07 33.22 52.06C32.72 51.6 32.67 51.28 32.77 50.87C32.77 50.86 32.78 50.8 32.81 50.69L32.81 5.43L13.75 9.68C13.75 36.34 13.75 51.15 13.75 54.11C13.75 57.86 14.85 60.83 16.99 62.89C17.73 63.67 18.82 64.31 20.33 64.95C21.59 65.46 27.88 68 39.21 72.58L47.85 66.37L47.85 73.09L65.68 69.79L65.68 5.43L47.85 8.95L47.85 57.91Z" id="a1POuI47HM"></path><path d="M60.24 60.65L47.85 73.04L47.85 67.83L60.24 60.65Z" id="d3WEgoQkuY"></path><path d="M29.29 15.49L18.64 25.13L43.6 12.65L20.74 29.43L33.04 24.22L32.77 27.37L13.7 38.02L13.7 25.13L29.29 15.49Z" id="a3YbNuU6Bx"></path><path d="M27.01 51.33L54.02 41.22L18.41 64.08L23.21 66.09L59.97 43.14L46.66 53.93L65.68 43.42L65.68 32.35L27.01 51.33Z" id="e3MnUaSXem"></path></defs><g><g><g><use xlink:href="#fhBWAIQnn" opacity="1" fill="#019db2" fill-opacity="1"></use><g><use xlink:href="#fhBWAIQnn" opacity="1" fill-opacity="0" stroke="#000000" stroke-width="1" stroke-opacity="0"></use></g></g><g><use xlink:href="#abUTaVxbd" opacity="1" fill="#019db2" fill-opacity="1"></use><g><use xlink:href="#abUTaVxbd" opacity="1" fill-opacity="0" stroke="#000000" stroke-width="1" stroke-opacity="0"></use></g></g><g><use xlink:href="#b4IkJfiued" opacity="1" fill="#019db2" fill-opacity="1"></use><g><use xlink:href="#b4IkJfiued" opacity="1" fill-opacity="0" stroke="#000000" stroke-width="1" stroke-opacity="0"></use></g></g><g><use xlink:href="#a6zdBToWJZ" opacity="1" fill="#019db2" fill-opacity="1"></use><g><use xlink:href="#a6zdBToWJZ" opacity="1" fill-opacity="0" stroke="#000000" stroke-width="1" stroke-opacity="0"></use></g></g><g><use xlink:href="#e1L4VLUqnD" opacity="1" fill="#019db2" fill-opacity="1"></use><g><use xlink:href="#e1L4VLUqnD" opacity="1" fill-opacity="0" stroke="#000000" stroke-width="1" stroke-opacity="0"></use></g></g><g><use xlink:href="#eMtrvE7AY" opacity="1" fill="#019db2" fill-opacity="1"></use><g><use xlink:href="#eMtrvE7AY" opacity="1" fill-opacity="0" stroke="#000000" stroke-width="1" stroke-opacity="0"></use></g></g><g><use xlink:href="#cMJC8gxP5" opacity="1" fill="#8ed7f0" fill-opacity="1"></use><g><use xlink:href="#cMJC8gxP5" opacity="1" fill-opacity="0" stroke="#000000" stroke-width="1" stroke-opacity="0"></use></g></g><g><use xlink:href="#b4g02K94z" opacity="1" fill="#65cae5" fill-opacity="1"></use><g><use xlink:href="#b4g02K94z" opacity="1" fill-opacity="0" stroke="#000000" stroke-width="1" stroke-opacity="0"></use></g></g><g><use xlink:href="#a4jnbRyO5h" opacity="1" fill="#000000" fill-opacity="0"></use><g><use xlink:href="#a4jnbRyO5h" opacity="1" fill-opacity="0" stroke="#000000" stroke-width="1" stroke-opacity="0"></use></g></g><g><use xlink:href="#cIPQfyTA" opacity="1" fill="#000000" fill-opacity="0"></use><g><use xlink:href="#cIPQfyTA" opacity="1" fill-opacity="0" stroke="#000000" stroke-width="1" stroke-opacity="0"></use></g></g><g><use xlink:href="#bBzsY5j7v" opacity="1" fill="#65cae5" fill-opacity="1"></use><g><use xlink:href="#bBzsY5j7v" opacity="1" fill-opacity="0" stroke="#000000" stroke-width="1" stroke-opacity="0"></use></g></g><g><use xlink:href="#b9uUxyGdf" opacity="1" fill="#8ed7f0" fill-opacity="1"></use><g><use xlink:href="#b9uUxyGdf" opacity="1" fill-opacity="0" stroke="#000000" stroke-width="1" stroke-opacity="0"></use></g></g><g><use xlink:href="#cxWhovjZD" opacity="1" fill="#65cae5" fill-opacity="1"></use><g><use xlink:href="#cxWhovjZD" opacity="1" fill-opacity="0" stroke="#000000" stroke-width="1" stroke-opacity="0"></use></g></g><g><use xlink:href="#f4uf8c7bc2" opacity="1" fill="#65cae5" fill-opacity="1"></use><g><use xlink:href="#f4uf8c7bc2" opacity="1" fill-opacity="0" stroke="#000000" stroke-width="1" stroke-opacity="0"></use></g></g><g><use xlink:href="#a19GHrCCjc" opacity="1" fill="#d6f0fc" fill-opacity="1"></use><g><use xlink:href="#a19GHrCCjc" opacity="1" fill-opacity="0" stroke="#000000" stroke-width="1" stroke-opacity="0"></use></g></g><g><use xlink:href="#b1LfnEIYAw" opacity="1" fill="#bfe6f3" fill-opacity="1"></use><g><use xlink:href="#b1LfnEIYAw" opacity="1" fill-opacity="0" stroke="#000000" stroke-width="1" stroke-opacity="0"></use></g></g><g><use xlink:href="#f4jzAxMbt1" opacity="1" fill="#bfe6f3" fill-opacity="1"></use><g><use xlink:href="#f4jzAxMbt1" opacity="1" fill-opacity="0" stroke="#000000" stroke-width="1" stroke-opacity="0"></use></g></g><g><use xlink:href="#d6rttJgnq2" opacity="1" fill="#65cae5" fill-opacity="1"></use><g><use xlink:href="#d6rttJgnq2" opacity="1" fill-opacity="0" stroke="#000000" stroke-width="1" stroke-opacity="0"></use></g></g><g><use xlink:href="#dJu5SP7tD" opacity="1" fill="#8ed7f0" fill-opacity="1"></use><g><use xlink:href="#dJu5SP7tD" opacity="1" fill-opacity="0" stroke="#000000" stroke-width="1" stroke-opacity="0"></use></g></g><g><use xlink:href="#b8eVQjUrn" opacity="1" fill="#d6f0fc" fill-opacity="1"></use><g><use xlink:href="#b8eVQjUrn" opacity="1" fill-opacity="0" stroke="#000000" stroke-width="1" stroke-opacity="0"></use></g></g><g><use xlink:href="#bzX8qjGxK" opacity="1" fill="#bfe6f3" fill-opacity="1"></use><g><use xlink:href="#bzX8qjGxK" opacity="1" fill-opacity="0" stroke="#000000" stroke-width="1" stroke-opacity="0"></use></g></g><g><use xlink:href="#a5JMxhkf4v" opacity="1" fill="#bfe6f3" fill-opacity="1"></use><g><use xlink:href="#a5JMxhkf4v" opacity="1" fill-opacity="0" stroke="#000000" stroke-width="1" stroke-opacity="0"></use></g></g><g><use xlink:href="#b64QsYsGTt" opacity="1" fill="#000000" fill-opacity="0"></use><g><use xlink:href="#b64QsYsGTt" opacity="1" fill-opacity="0" stroke="#000000" stroke-width="1" stroke-opacity="0"></use></g></g><g><use xlink:href="#g2n1VOxzGK" opacity="1" fill="#65cae5" fill-opacity="1"></use><g><use xlink:href="#g2n1VOxzGK" opacity="1" fill-opacity="0" stroke="#000000" stroke-width="1" stroke-opacity="0"></use></g></g><g><use xlink:href="#a5fzpgBA" opacity="1" fill="#8ed7f0" fill-opacity="1"></use><g><use xlink:href="#a5fzpgBA" opacity="1" fill-opacity="0" stroke="#000000" stroke-width="1" stroke-opacity="0"></use></g></g><g><use xlink:href="#jhRyGm8zI" opacity="1" fill="#65cae5" fill-opacity="1"></use><g><use xlink:href="#jhRyGm8zI" opacity="1" fill-opacity="0" stroke="#000000" stroke-width="1" stroke-opacity="0"></use></g></g><g><use xlink:href="#bOdzLEhEQ" opacity="1" fill="#8ed7f0" fill-opacity="1"></use><g><use xlink:href="#bOdzLEhEQ" opacity="1" fill-opacity="0" stroke="#000000" stroke-width="1" stroke-opacity="0"></use></g></g><g><use xlink:href="#aInAWiS5" opacity="1" fill="#d6f0fc" fill-opacity="1"></use><g><use xlink:href="#aInAWiS5" opacity="1" fill-opacity="0" stroke="#000000" stroke-width="1" stroke-opacity="0"></use></g></g><g><use xlink:href="#c2MLonZ2Bg" opacity="1" fill="#bfe6f3" fill-opacity="1"></use><g><use xlink:href="#c2MLonZ2Bg" opacity="1" fill-opacity="0" stroke="#000000" stroke-width="1" stroke-opacity="0"></use></g></g><g><use xlink:href="#h4JATdwCuw" opacity="1" fill="#bfe6f3" fill-opacity="1"></use><g><use xlink:href="#h4JATdwCuw" opacity="1" fill-opacity="0" stroke="#000000" stroke-width="1" stroke-opacity="0"></use></g></g><g><use xlink:href="#guwNksFJ5" opacity="1" fill="#65cae5" fill-opacity="1"></use><g><use xlink:href="#guwNksFJ5" opacity="1" fill-opacity="0" stroke="#000000" stroke-width="1" stroke-opacity="0"></use></g></g><g><use xlink:href="#c1rnbTMQbc" opacity="1" fill="#8ed7f0" fill-opacity="1"></use><g><use xlink:href="#c1rnbTMQbc" opacity="1" fill-opacity="0" stroke="#000000" stroke-width="1" stroke-opacity="0"></use></g></g><g><use xlink:href="#g1S0UVUUxl" opacity="1" fill="#65cae5" fill-opacity="1"></use><g><use xlink:href="#g1S0UVUUxl" opacity="1" fill-opacity="0" stroke="#000000" stroke-width="1" stroke-opacity="0"></use></g></g><g><use xlink:href="#de93qoq3K" opacity="1" fill="#8ed7f0" fill-opacity="1"></use><g><use xlink:href="#de93qoq3K" opacity="1" fill-opacity="0" stroke="#000000" stroke-width="1" stroke-opacity="0"></use></g></g><g><use xlink:href="#bSKmWL0DZ" opacity="1" fill="#d6f0fc" fill-opacity="1"></use><g><use xlink:href="#bSKmWL0DZ" opacity="1" fill-opacity="0" stroke="#000000" stroke-width="1" stroke-opacity="0"></use></g></g><g><use xlink:href="#d5mvlEHwC" opacity="1" fill="#bfe6f3" fill-opacity="1"></use><g><use xlink:href="#d5mvlEHwC" opacity="1" fill-opacity="0" stroke="#000000" stroke-width="1" stroke-opacity="0"></use></g></g><g><use xlink:href="#a16DH7GlbS" opacity="1" fill="#bfe6f3" fill-opacity="1"></use><g><use xlink:href="#a16DH7GlbS" opacity="1" fill-opacity="0" stroke="#000000" stroke-width="1" stroke-opacity="0"></use></g></g><g><use xlink:href="#c1l1tsUSzQ" opacity="1" fill="#bfe6f3" fill-opacity="1"></use><g><use xlink:href="#c1l1tsUSzQ" opacity="1" fill-opacity="0" stroke="#000000" stroke-width="1" stroke-opacity="0"></use></g></g><g><use xlink:href="#a1Q17eOSCC" opacity="1" fill="#65cae5" fill-opacity="1"></use><g><use xlink:href="#a1Q17eOSCC" opacity="1" fill-opacity="0" stroke="#000000" stroke-width="1" stroke-opacity="0"></use></g></g><g><use xlink:href="#b1MUgtLOwG" opacity="1" fill="#8ed7f0" fill-opacity="1"></use><g><use xlink:href="#b1MUgtLOwG" opacity="1" fill-opacity="0" stroke="#000000" stroke-width="1" stroke-opacity="0"></use></g></g><g><use xlink:href="#e2D7YjF0al" opacity="1" fill="#65cae5" fill-opacity="1"></use><g><use xlink:href="#e2D7YjF0al" opacity="1" fill-opacity="0" stroke="#000000" stroke-width="1" stroke-opacity="0"></use></g></g><g><use xlink:href="#cCLWUtQjX" opacity="1" fill="#65cae5" fill-opacity="1"></use><g><use xlink:href="#cCLWUtQjX" opacity="1" fill-opacity="0" stroke="#000000" stroke-width="1" stroke-opacity="0"></use></g></g><g><use xlink:href="#a3POuye9LU" opacity="1" fill="#d6f0fc" fill-opacity="1"></use><g><use xlink:href="#a3POuye9LU" opacity="1" fill-opacity="0" stroke="#000000" stroke-width="1" stroke-opacity="0"></use></g></g><g><use xlink:href="#a1SoeYfMaX" opacity="1" fill="#bfe6f3" fill-opacity="1"></use><g><use xlink:href="#a1SoeYfMaX" opacity="1" fill-opacity="0" stroke="#000000" stroke-width="1" stroke-opacity="0"></use></g></g><g><use xlink:href="#blfTdw4y0" opacity="1" fill="#bfe6f3" fill-opacity="1"></use><g><use xlink:href="#blfTdw4y0" opacity="1" fill-opacity="0" stroke="#000000" stroke-width="1" stroke-opacity="0"></use></g></g><g><use xlink:href="#a6F0CMqAG" opacity="1" fill="#bfe6f3" fill-opacity="1"></use><g><use xlink:href="#a6F0CMqAG" opacity="1" fill-opacity="0" stroke="#000000" stroke-width="1" stroke-opacity="0"></use></g></g><g><use xlink:href="#a1dZzr3oxg" opacity="1" fill="#000000" fill-opacity="0"></use><g><use xlink:href="#a1dZzr3oxg" opacity="1" fill-opacity="0" stroke="#000000" stroke-width="1" stroke-opacity="0"></use></g></g><g><use xlink:href="#aWpN2Y8dq" opacity="1" fill="#000000" fill-opacity="0"></use><g><use xlink:href="#aWpN2Y8dq" opacity="1" fill-opacity="0" stroke="#000000" stroke-width="1" stroke-opacity="0"></use></g></g><g><use xlink:href="#b1j8yyFIfJ" opacity="1" fill="#000000" fill-opacity="0"></use><g><use xlink:href="#b1j8yyFIfJ" opacity="1" fill-opacity="0" stroke="#000000" stroke-width="1" stroke-opacity="0"></use></g></g><g><use xlink:href="#a1u30PGKC1" opacity="1" fill="#8ed7f0" fill-opacity="1"></use><g><use xlink:href="#a1u30PGKC1" opacity="1" fill-opacity="0" stroke="#000000" stroke-width="1" stroke-opacity="0"></use></g></g><g><use xlink:href="#dnsFffMkC" opacity="1" fill="#65cae5" fill-opacity="1"></use><g><use xlink:href="#dnsFffMkC" opacity="1" fill-opacity="0" stroke="#000000" stroke-width="1" stroke-opacity="0"></use></g></g><g><use xlink:href="#b2zi3axN7T" opacity="1" fill="#65cae5" fill-opacity="1"></use><g><use xlink:href="#b2zi3axN7T" opacity="1" fill-opacity="0" stroke="#000000" stroke-width="1" stroke-opacity="0"></use></g></g><g><use xlink:href="#alGsMJOHO" opacity="1" fill="#8ed7f0" fill-opacity="1"></use><g><use xlink:href="#alGsMJOHO" opacity="1" fill-opacity="0" stroke="#000000" stroke-width="1" stroke-opacity="0"></use></g></g><g><use xlink:href="#a1POuI47HM" opacity="1" fill="#d6f0fc" fill-opacity="1"></use><g><use xlink:href="#a1POuI47HM" opacity="1" fill-opacity="0" stroke="#000000" stroke-width="1" stroke-opacity="0"></use></g></g><g><use xlink:href="#d3WEgoQkuY" opacity="1" fill="#bfe6f3" fill-opacity="1"></use><g><use xlink:href="#d3WEgoQkuY" opacity="1" fill-opacity="0" stroke="#000000" stroke-width="1" stroke-opacity="0"></use></g></g><g><use xlink:href="#a3YbNuU6Bx" opacity="1" fill="#bfe6f3" fill-opacity="1"></use><g><use xlink:href="#a3YbNuU6Bx" opacity="1" fill-opacity="0" stroke="#000000" stroke-width="1" stroke-opacity="0"></use></g></g><g><use xlink:href="#e3MnUaSXem" opacity="1" fill="#bfe6f3" fill-opacity="1"></use><g><use xlink:href="#e3MnUaSXem" opacity="1" fill-opacity="0" stroke="#000000" stroke-width="1" stroke-opacity="0"></use></g></g></g></g></svg>