<?xml version="1.0" encoding="utf-8"?>
<!-- Generator: Adobe Illustrator 19.0.0, SVG Export Plug-In . SVG Version: 6.00 Build 0)  -->
<svg version="1.1" id="Layer_1" xmlns="http://www.w3.org/2000/svg" xmlns:xlink="http://www.w3.org/1999/xlink" x="0px" y="0px"
	 viewBox="0 0 1400 1400" style="enable-background:new 0 0 1400 1400;" xml:space="preserve">
<style type="text/css">
	.st0{fill:#0BB4D8;}
	.st1{fill:#019DB2;}
	.st2{fill:none;}
	.st3{fill:#65CAE5;}
	.st4{fill:#8ED7F0;}
	.st5{fill:#D6F0FC;}
	.st6{fill:#BFE6F3;}
	.st7{clip-path:url(#XMLID_16_);fill:#BFE6F3;}
	.st8{clip-path:url(#XMLID_17_);fill:#BFE6F3;}
	.st9{clip-path:url(#XMLID_18_);fill:#BFE6F3;}
	.st10{clip-path:url(#XMLID_19_);fill:#BFE6F3;}
	.st11{clip-path:url(#XMLID_20_);fill:#BFE6F3;}
	.st12{clip-path:url(#XMLID_21_);fill:#BFE6F3;}
	.st13{clip-path:url(#XMLID_23_);fill:#BFE6F3;}
	.st14{clip-path:url(#XMLID_92_);fill:#BFE6F3;}
	.st15{clip-path:url(#XMLID_100_);fill:#BFE6F3;}
	.st16{clip-path:url(#XMLID_101_);fill:#BFE6F3;}
	.st17{clip-path:url(#XMLID_109_);fill:#BFE6F3;}
	.st18{clip-path:url(#XMLID_140_);fill:#BFE6F3;}
	.st19{clip-path:url(#XMLID_146_);fill:#BFE6F3;}
	.st20{clip-path:url(#XMLID_151_);fill:#BFE6F3;}
	.st21{clip-path:url(#XMLID_156_);fill:#BFE6F3;}
	.st22{clip-path:url(#XMLID_158_);fill:#BFE6F3;}
	.st23{clip-path:url(#XMLID_161_);fill:#BFE6F3;}
	.st24{clip-path:url(#XMLID_162_);fill:#BFE6F3;}
	.st25{clip-path:url(#XMLID_163_);fill:#BFE6F3;}
</style>
<rect id="XMLID_15_" class="st0" width="1400" height="1400"/>
<path id="XMLID_822_" class="st1" d="M138.8,382c0.1,0.1,0.1,0.2,0.2,0.3c0,0,0,0.1,0.1,0.1c0,0,0.1,0.1,0.1,0.1
	c0.3,0.3,0.6,0.7,1,1c0.2,0.2,0.4,0.4,0.7,0.5l19.9,18.3c1.5,1.8,5.1,3.4,12.8,6.2l0.1,0c2.8,0.9,8.1,2.8,15.9,5.5l3.4,1.2l6.8-20.3
	l4.4-12.8c0-0.1,0-0.1,0.1-0.1h24.1c0.6,1.6,1.3,3.6,2.2,6.1c0.3,1,0.8,2.4,1.5,4.1l0.9,2.3l21.4,19.7h2.5c1.4,0,3.7-0.4,11-3.3
	c1.2-0.4,2.6-1,4.3-2c2.7-1.4,5.7-2.7,9.1-3.8c1.4-0.4,3.3-1.2,4.2-3c0.2-0.3,0.3-0.7,0.4-1c0.2-0.8,0.2-1.7-0.1-2.5l-42.7-111.8
	c-2.4-6.4-3.1-8.4-3.3-8.9l-0.1-0.2c-1.1-2.8-2.2-5-3.5-6.4l0,0l0,0c-0.2-0.2-0.4-0.4-0.7-0.6l-19.8-17.7c-0.9-1.4-1.9-2.4-3.1-2.8
	l0,0l0,0c-0.5-0.2-0.9-0.2-1.5-0.2h-0.5l-19.1,5.2l-0.1,0c-3.2,1-6.5,2-9.7,2.9l-0.2,0.1c-1.9,0.6-2.5,1.6-5.6,10.7l-31.9,94.1l0,0
	c0,0,0,0,0,0l0,0.1c0,0.1,0,0.1-0.1,0.3l-0.1,0.2c-0.1,0.3-0.3,0.8-0.5,1.3l-0.1,0.2c-0.1,0.4-0.3,0.8-0.4,1.2l-0.3,0.8
	c-0.2,0.5-0.3,1-0.5,1.5l-0.5,1.3c-0.1,0.3-0.2,0.5-0.3,0.7l-0.1,0.3c-0.1,0.2-0.1,0.3-0.2,0.5l-0.3,0.9c-0.1,0.3-0.2,0.6-0.3,0.8
	l-0.3,0.8c-0.1,0.2-0.1,0.3-0.1,0.4l0,0c-0.2,0.6-1.2,2.6-1.6,4.7l-0.2,0.5v0.6c0,0.7,0.1,1.3,0.4,1.8
	C138.7,381.9,138.7,382,138.8,382z"/>
<path id="XMLID_823_" class="st1" d="M307.8,385.1L307.8,385.1L307.8,385.1L307.8,385.1l20.5,18.9c2.2,2.2,7.9,4.1,21.2,7.1
	c4.4,0.9,11.1,2.3,19.9,3.9c0.6,0.1,1.2,0.2,1.8,0.2c0.6,0,1.2,0,1.8-0.1c0.4,0,0.7-0.1,1.1-0.3c1.5-0.5,2.8-1.5,4-3.2l18.4-19.1
	c6.4-6.7,10.3-10.8,12.3-13c5.3-5.6,8.2-10,8.8-13.6c0.1-0.6,0.2-1.1,0.2-1.6c0-2.2-1.2-6-10.2-18.6c-4.4-6.2-6.7-9.5-8-11.3
	c1.1-1.2,3.2-3.3,6.8-6.8c6.7-6.6,9.8-11.5,9.8-15.6c0,0,0-0.1,0-0.1c0-2.8-1.4-5.6-4-8.3c-0.5-0.6-1.2-1.2-2.2-1.8
	c-2-2.2-7.7-8.7-16.8-19.4c-4.9-5.7-7.6-8.7-9.3-10.3h0l0,0c-0.2-0.2-0.4-0.4-0.6-0.6l-20.8-19.1c-0.2-0.2-0.5-0.4-0.7-0.6l0,0l0,0
	c-1.3-1.1-1.9-1.3-2.7-1.3c-0.3-0.1-1.1-0.4-2.9-1.1c-3.7-1.5-4.3-1.6-5.1-1.6h-5.9l-0.4,0.1c-5.5,1.3-9.9,2.4-13.1,3.2
	c-7.9,1.9-15.8,4-23.6,6.1l-2.6,0.7v43.7v11.9v6.3v10.6v33.2C301.8,388.3,307.8,385.1,307.8,385.1z"/>
<path id="XMLID_824_" class="st1" d="M443.7,322.4c0.4,0.8,0.9,1.5,1.4,2.2l0,0l0.2,0.2c0.2,0.3,0.4,0.6,0.7,0.9
	c1.4,1.7,2.9,3.4,4.3,5.1l0.1,0.1l0,0c1.2,1.4,2.4,2.7,3.5,4.1l0,0l3.2,3.6l0,0c1.5,1.7,3,3.4,4.4,5l28.9,33.2
	c1.2,1.4,2.3,2.6,3.3,3.8l0,0l0,0c10,11.3,12.6,14.2,14.1,15l18.9,17.5c0.8,0.8,1.4,1.3,1.8,1.7l0,0c0.9,0.7,1.4,0.7,2.1,0.7h1.3
	l13.4-10.8c12.9-10.5,13.5-11.2,13.9-11.7l1.9-2.4l-2-2.3c-4.6-5.1-9.1-10.2-13.6-15.3c-7.7-8.6-15.4-17.3-23-25.9
	c-6.1-7-9-10.5-10.4-12.2c1.6-1.5,5.3-4.7,13.4-11c6.4-4.8,16.3-12.2,29.4-21.8c9.6-7,13.6-9.9,15.1-10.9h9.9l-21.4-19.7l-6.3-4.6
	l0,0l-13.3-9.7l-18.6-13.6H519c-1.5,0-3,0-18.5,11.9c-6.2,4.7-15.3,11.9-27.2,21.4c-5.2,4.1-10.3,8.2-15.2,12.2
	c-3.1,2.5-5.5,4.7-7.2,6.3c-5.6,5.7-8.3,9.8-8.7,13c-0.4,2.5-0.5,4.6-0.5,6.2c0,1.2,0.2,2.5,0.5,3.8
	C442.5,319.9,443,321.2,443.7,322.4z"/>
<path id="XMLID_825_" class="st1" d="M595.2,386.3l6.1,7.5l1.1-1l13.8,12.6c1.1,1.8,3.8,2.4,6.3,3c2.8,0.7,7,1.4,12.5,2.3
	c14.7,2.4,18.1,2.7,19.4,2.7c2.6,0,5.3-0.6,7.8-1.7c2.4-1,4.7-2.5,7-4.5l0.1-0.1c1.4-1.3,3.1-3.1,5.2-5.6c3.2-2.6,9.8-9.4,20.3-20.5
	c11.9-12.6,23.3-25.1,33.8-37.2c1.4-1.4,2.1-3.2,2.1-5.2c0-0.1,0-0.1,0-0.2c0-1.2-0.5-2.9-2.2-4.7l-63.3-63.4l-11.2-10.3l0,0l0,0
	l-10.3-9.4l-0.3-0.2c-1.2-0.8-2.6-1.3-4-1.5l-1.7,0c-0.8,0-2.7,0-21.8,3.4c-4.2,0.7-10.5,1.8-19,3.6l-2.9,0.6v42.5v7.5v5.9v7.6v63.7
	C594.2,384.8,594.6,385.7,595.2,386.3z"/>
<path id="XMLID_828_" class="st1" d="M1229,400.3L1229,400.3l21.4,19.7l35.2-6V265.7l-21.4-19.7v0l-7.7,2.4l0,0l-27.9,8.8v11.4
	l-3.6,2.6v-3.2l-21.4-19.7v0l-36.4,6.4v52.7v29.5v42.6v7.5v12.3l0,0l21.4,19.7l35.3-7.2v-60.3h2.6v45L1229,400.3z M1224.9,299.8
	l3.6-2.3v2.4L1224.9,299.8L1224.9,299.8z M1228.5,284.5v1.5l-3.6,2.2v-1.2L1228.5,284.5z"/>
<polygon id="XMLID_830_" class="st1" points="175.3,700.6 210.6,693.4 210.6,549.7 189.1,530.1 189.1,530.1 189.1,530.1 
	153.9,536.5 153.9,631.9 153.9,643.1 153.9,680.9 153.9,680.9 153.9,680.9 "/>
<path id="XMLID_831_" class="st1" d="M330.7,682.4c4-1.1,7.3-3.3,9.8-6.6c0.5-0.6,1-1.3,1.4-2l0.1-0.1c0.8-1.4,1.6-3.2,2.4-5.7
	l0.2-0.6V549.5l-21.4-19.7v0l-36.8,8.5v34.9v20.6v34c-0.3,2.1-1.2,2.7-2.6,3l-50.9,17.3l21.5,33.5h0l21.4,19.7L330.7,682.4z"/>
<path id="XMLID_832_" class="st1" d="M296.1,908.8c0-0.1,0-0.2,0-0.2c-0.1-5.8-2.2-10.9-6.3-15.1l-16.4-16.4
	c-1.3-1.7-3.2-3.7-5.8-5.8l-28.7-28.7c-1.8-1.8-3.8-3.2-6-4.2L217.4,823c-4.1-4.1-9.2-6.2-15.1-6.2c0,0,0,0,0,0c0,0,0,0,0,0
	c-5.6,0-10.7,2-15,6.1l-52.6,52.6l-0.1,0.1c-4,4.3-6.1,9.4-6.1,15c0,1,0.1,2,0.2,3c-3.7,10.4,15.7,22.8,18.2,24.3l38.7,38.7
	c1.9,1.9,4,3.4,6.3,4.4l15.2,15.2c4.2,4.2,9.4,6.4,15.3,6.4c5.8,0,10.9-2.1,15.1-6.4l4.5-4.5l20.3,17.9l24.7-26.1l-19-17.8
	l21.8-21.7C293.9,919.7,296.1,914.6,296.1,908.8z"/>
<path id="XMLID_835_" class="st1" d="M708.8,534.1l-42.1,4.5v55v44.1v42h0l21.4,19.7l38.4-3.1v-31.1l1,2.2v0l21.4,19.7l5.2-9.7v4.4
	l0,0l21.4,19.7l37.8-5.3V553.3L792,533.6l0,0l-11.4,2.1l0,0l-15,2.7v0l-12.1,2.2l-6,10.9l-13.6,9.9l-3.6-7.6L708.8,534.1l10,20.9h0
	L708.8,534.1z M738,568.8l-0.3,0.6l-0.1-0.2L738,568.8z"/>
<polygon id="XMLID_836_" class="st1" points="656.2,1101 634.7,1081.3 634.7,1081.3 625.3,1076.4 625.3,1076.4 615.2,1071.1 
	615.2,1071.1 603.2,1064.8 589.2,1086.6 578.6,1093 573.1,1084.5 551.6,1064.8 551.6,1064.8 551.6,1064.8 520.1,1081.1 
	556.5,1137.3 513,1204.6 513,1204.6 513,1204.6 513,1204.6 513,1204.6 534.4,1224.3 567.3,1237.6 594.6,1195.9 608.9,1218 
	608.9,1218 630.4,1237.6 663.2,1224.2 619.9,1156.9 "/>
<path id="XMLID_839_" class="st1" d="M1099.2,832.8l-34.8-14.4l-14,36.4l-23.9,6l-9.2-21.3l-21.4-19.7l9.6,22.1l0,0l-9.6-22.1
	l-37.8,7.7l58.4,140.6h0l21.4,19.7l31.6-11.7l0.2-0.1l50.9-123.7L1099.2,832.8L1099.2,832.8z M1038,887.3l-3-7l6.4-1.7L1038,887.3z
	 M1049,858.6l-3.4,8.9l-14.8,3.4l-1.8-4.3L1049,858.6z"/>
<path id="XMLID_841_" class="st1" d="M1177.3,634.1c0-0.4,0.1-0.7,0.1-1.1c0-5.9-2.1-11.1-6.4-15.3l-50.9-50.9
	c-1.7-1.7-3.7-3.1-5.8-4.1l-15.7-15.7c-4.1-4.1-9.2-6.2-15.1-6.2c-5.6,0-10.7,2-15,6.1l-52.6,52.6l-0.1,0.1c-3.5,3.8-5.5,8.1-6,13
	c-0.1,0.7-0.1,1.4-0.1,2.2c0,0.7,0,1.3,0.1,2l0,0c-1.4,9.8,16.9,23.9,16.9,23.9l0,0l40.1,40.1c1.9,1.9,3.9,3.3,6.1,4.3l15.3,15.3
	c4.2,4.2,9.4,6.4,15.3,6.4c5.8,0,10.9-2.1,15.1-6.4l52.3-52.3C1175,644.2,1177.1,639.5,1177.3,634.1z"/>
<path id="XMLID_842_" class="st1" d="M1318.9,617.9C1318.9,617.9,1318.9,617.8,1318.9,617.9c0-3.7-3-8.2-10.1-15l0,0
	c-3.8-3.6-9.2-8.4-16.1-14.1c-1.4-1.7-3.2-3.5-5.3-5.5l0,0c-4.9-4.6-12.3-11-22.1-19.1c-2.3-1.9-4.7-3.7-7-5.6l0,0l0,0
	c-6.7-5.3-13.2-10.6-19.6-15.8c-1.4-1.2-3.2-1.8-5-1.8c-0.7,0-1.4,0.1-2.2,0.3l-0.3,0.1c-1.3,0.4-2,0.6-2.3,0.7l-0.2,0
	c-5.7,1.5-10.9,3.1-15.2,4.7c-6.3,2.4-8.3,3.8-9.3,4.7l-1.2,1.1v62.2v9.3v30.9v21.3v11.2l0,0l21.4,19.7l4.2-0.7c6.3-1,11-1.8,14-2.4
	c4.7-0.8,8.2-1.4,10.6-1.9c2.1-0.4,4-0.9,5.2-1.9c0.7-0.6,1.1-1.5,1.1-2.7v-21.1c0.1-0.1,0.1-0.1,0.2-0.2c1.4-1.4,5-4.9,14.1-13.2
	c14-12.7,23.6-21.5,28.5-26.2C1318.9,621.2,1318.9,619.8,1318.9,617.9z"/>
<path id="XMLID_843_" class="st1" d="M550.2,881.7l40.6-28.9l-25.1-29.7l-20-18.4l-1.1-1.3l-0.2,0.1l-0.2-0.1l0.1,0.2h0l-0.1-0.2
	l-61.6,45.7c-1.5,1-2.6,1.9-3.4,2.7l-0.1,0.1c-2.6,2.8-3.9,5.8-3.9,9.1c0,1.9,0.5,3.8,1.4,5.7l0,0c1.9,5.4,8.8,10.9,14,14.4l21.4,20
	c0.3,0.3,0.5,0.6,0.6,0.9c0,0-0.1,0.1-0.1,0.1l-0.2,0.1c0,0-0.2,0.2-0.7,0.5l-45.2,32.7l28.2,29.5h0l21.4,19.7l63.9-48.8l0.2-0.1
	c2.2-1.9,3.7-3.7,4.8-5.6c0.8-1.4,1.3-2.8,1.6-4.2c0.1-0.7,0.2-1.3,0.2-2c0-2.2-0.7-4.4-1.9-6.4l-0.1-0.1c-0.3-0.5-0.9-1.2-1.6-2.1
	l-0.1-0.2L550.9,885l-2.2-2.1l-0.1-0.1c0,0,0,0,0,0C549,882.5,549.5,882.2,550.2,881.7z"/>
<path id="XMLID_844_" class="st1" d="M1314.4,838.3l-34.2-18.7l-19.9,55.5l-15.7-29.8l-21.4-19.7l0,0l0,0l-16.1,40.8l-10.7-26.2
	l-21.4-19.7l9.1,22.4l0,0l-9.1-22.4l-39,8.6l51.4,133.5l0.4,0.5c0.5,0.6,1.1,1.1,1.6,1.5l19.9,18.2c2.2,2.5,4.5,3,6,3
	c1.6,0,3.1-0.4,4.4-1.3c0.7-0.4,1.3-1,2-1.9l0.2-0.2l19.6-38.9l10.7,19.6l0.3,0.3c0.6,0.7,1.2,1.1,1.7,1.5l19.7,18.1
	c2,2.3,4.3,2.8,5.8,2.8c1.3,0,2.7-0.4,4-1.3c0.5-0.3,1.1-0.7,1.7-1.3l0.5-0.5l50-124.7L1314.4,838.3L1314.4,838.3z"/>
<path id="XMLID_845_" class="st1" d="M771.8,323.1c-5.7,5.4-11.6,10.7-17.6,15.9l-0.2,0.2c-1.3,1.3-2,3-2,4.9c0,1.7,0.7,3.4,2,4.7
	l21.4,19.7l58.3,47.5l25.6-20.6v-1.7c0-1.1-0.4-2-1.1-2.9l0,0l0,0c-0.6-0.8-1.4-1.5-2.3-2.1l-19.3-17.8l0,0
	c-0.8-0.9-1.8-1.7-2.8-2.4c-0.6-0.5-1.7-1.1-3.2-2c-0.4-0.2-1.7-1.1-5.9-4.7c0.6-0.9,2-2.7,5.5-6.1c7.1-7,11.9-11.9,14.2-14.6
	l0.3-0.3c0.8-1.2,1.4-2.3,1.4-3.5c0,0,0,0,0,0c0-1-0.3-2.5-1.7-4c-2.4-2.8-8.1-9-16.9-18.5c-0.6-0.7-1.2-1.3-1.6-1.8
	c2.2-1.5,6.8-4.4,16.1-9.9c4.2-2.5,10.7-6.3,19.4-11.2l1.8-1v-2.1c0-1.6,0-2.5-10.1-14.3c-2-2.4-5.2-6-9.5-10.9l-1.1-1.2L822.1,244
	l-1.1-1.2h-1.6c-1.4,0-2.3,0-25.4,13.3l-39.3,22.8l-0.3,0.2c-1.4,1.1-2.2,2.6-2.2,4.4c0,1.6,0.6,3,1.7,4.2l2.1,2.4
	c0.9,1,1.7,1.9,2.5,2.8l17,19.5c1.5,1.8,2.5,3,3.1,3.8C777.6,317.4,775.6,319.5,771.8,323.1z"/>
<polygon id="XMLID_846_" class="st1" points="572.5,534.7 572.5,534.7 534.7,542.7 534.7,565.9 534.7,582.5 534.7,680.7 
	534.7,680.7 556.1,700.3 635,700.3 648.3,663.1 626.9,643.4 626.9,643.4 622.5,643.4 617.2,643.4 594,643.4 594,554.3 "/>
<polygon id="XMLID_847_" class="st1" points="859.6,700.5 897.4,693.6 897.4,645.5 919.7,680.3 919.8,680.3 941.2,699.9 
	970.7,694.4 970.7,694.3 970.7,553.6 949.2,534 949.2,534 914.8,540.5 914.8,540.5 914.7,540.5 914.7,563 904.6,569.5 895.5,555.4 
	874.1,535.8 887.7,556.9 887.7,556.9 881.7,547.6 881.7,547.6 879.7,544.5 874.1,535.8 838.1,542.5 838.1,542.5 838.1,542.5 
	838.1,680.9 838.2,680.9 "/>
<path id="XMLID_850_" class="st1" d="M649.5,964.4L649.5,964.4l21.4,19.7l38.4-9.2v-0.6V872.1h31l0.1-0.3l7-13.5l10.7-20.7
	L736.8,818l0,0H617.7l-17.2,34.1l0,0l0,0v0l0,0l21.4,19.7l25-0.1l0.5,0.5l0.9-0.5l1.2,0V945l-0.1,0.1l0.1,14.7V964.4z M726.6,837.6
	L726.6,837.6l2.5-4.8L726.6,837.6z"/>
<path id="XMLID_851_" class="st1" d="M337.1,982.1l19.5-3.5l0.2,0c15.6-3.8,17-4.6,17.8-5.1l1.8-1v0v-36c2.7,3.3,5.5,6.6,8.2,9.8
	c7.2,8.6,10.1,11.8,11.8,12.9l19.2,17.7c2.6,2.6,3.3,2.6,4.4,2.6c1.2,0,2.5-0.3,9.5-4.7c5.5-3.5,11.2-7.1,17.1-10.8l6.2-4l-2.7-3.1
	c-6-6.9-13.5-15.9-22.3-26.6c-9.4-11.6-12.8-16.1-14-17.8c0,0,0,0,0,0c0.7-1.2,2.4-3.8,7-9.2c4.2-4.8,7.8-9.6,10.7-14.2l0.1-0.1
	c0.7-1.2,1.1-2.3,1.1-3.4c0-0.3,0-0.6-0.1-0.8l-21.5-19.8l0,0c0-0.1,0-0.2-0.1-0.3l0.1,0l21.5,19.8c-0.1-0.9-0.5-1.8-1-2.8l-0.3-0.4
	c-6.3-7.9-16.7-19.6-30.8-34.8c-4.3-4.6-5.9-6.6-6.5-7.4v-1l-21.4-19.7c0,0.1,0,0.2-0.1,0.3l-1.5-1c-1.3-0.9-2.9-1.7-4.6-2.5
	c-2-0.8-4.1-1.3-6.4-1.3c-0.6,0-1.6,0-4.2,0.4l-1.2,0.2l-0.3,0.3c-1.3,0.4-5.3,1.4-17.6,4.1c-4,0.9-10.2,2.3-18.4,4.1l-2.8,0.6v24
	v36.7v78.2h0L337.1,982.1z"/>
<polygon id="XMLID_852_" class="st1" points="409.6,530.2 409.6,530.2 368.6,537.3 368.6,572.2 368.6,591.2 368.6,645.1 368.6,650 
	368.6,682.8 368.6,682.8 390.1,702.4 431.1,690.8 431.1,647.2 461.2,680.5 461.2,680.5 482.6,700.2 517.2,683 465.2,620.9 
	507.5,563.6 486.1,544 486.1,544 452.1,526.4 431.1,554.8 431.1,549.8 "/>
<path id="XMLID_855_" class="st1" d="M814.5,1079l-10.2-4.1l0,0l-7.9-3.2l0,0l-16.5-6.7l-12.2,18.1l-25.4,10.1l-6.2-8.5l-21.4-19.7
	l16,22l0,0l-16-22l-36.4,15.4l50.5,70.5v42.3v6.8v17.2l0,0l21.4,19.7l37.2-9.2v-0.2V1170l0-0.1l48.4-71.2L814.5,1079L814.5,1079z
	 M757.2,1098.8l-4.5,6.7l-1.1,0.4l-2.3-3.1L757.2,1098.8z"/>
<polygon id="XMLID_856_" class="st1" points="997.8,1094.3 976.3,1074.6 976.3,1074.6 960.4,1074.6 960.4,1074.6 870.9,1074.6 
	858.3,1113.2 858.3,1113.2 858.3,1113.2 858.3,1113.2 858.3,1113.2 879.8,1132.9 898.8,1132.9 850.8,1216.2 850.8,1216.2 
	850.8,1216.2 850.8,1216.2 850.8,1216.2 872.2,1235.8 978.3,1235.8 978.6,1235.8 991.7,1197.8 970.2,1178.2 970.2,1178.2 
	952.4,1178.2 "/>
<path id="XMLID_859_" class="st1" d="M903.8,818.1L903.8,818.1l-39,7.7v70.4l-11.5,5.6v-64.1l-1.3-1.2l3.5-2.6l-4.1,2l-19.6-18v0
	l-41.7,9.3v34v28.2v35c0,8.2,2.4,14.7,7.1,19.2c0.6,0.6,1.4,1.2,2.2,1.8l0.9,0.9l0,0h0l18.3,17c1.6,1.7,4,3.1,7.3,4.5l41.3,16.7
	l10.5-7.5l8.4,7.2v1.4l1.4-0.3l37.6-7V837.8L903.8,818.1z M864.9,922.1l-2.5,2l2.5-1.4v10.1l-11.5-4.5v-4.1l11.5-7.2V922.1z
	 M864.9,901.5v3.6l-11.5,7.4v-6.7L864.9,901.5z"/>
<path id="XMLID_861_" class="st1" d="M911.6,416c5.4-0.9,11.6-2.3,18.2-4.1c9.4-2.5,12.3-4.2,13.7-5.2l1.5-1.1v-49.8h38.1v-35.7
	l-14.9-13.7h11.9c2.5,0,4-1,4.9-2.4c0.5-0.8,0.7-1.7,0.7-2.5c0-0.7,0-1.8-3.7-16.1c-1.3-4.7-2.5-9.6-3.7-14.5l-0.7-2.7l-21.4-19.7
	h-22c-6.8,0-15-0.1-24.5-0.2H886v37.8v36.4v57v9.3v8l21.4,19.7L911.6,416z"/>
<path id="XMLID_864_" class="st1" d="M1024.9,349.6c8.1,8.8,18,18.8,29.2,29.6l0,0c3.7,3.6,6.6,6.3,8.8,8.5v0l0,0
	c6.1,5.8,7.7,7.1,8.7,7.4c1.3,1.3,2.6,2.5,3.9,3.8l0,0c16.6,15.9,16.6,15.9,18.4,15.9c6.2,0,13.8-1.3,22.4-3.9
	c5.8-1.7,12.2-4,15.4-7.6c1.3-1.5,2.1-3.2,2.1-5.2v-68.6l-21.4-19.7h-6.4c1.1-1.2,2.2-2.4,3.3-3.6c4.1-4.4,8.4-8.9,12.6-13.6
	l4.5-4.9l-21.4-19.7l-6.2-1c-0.5-0.3-2.1-1.3-6.8-5c-5.1-4-10.1-8.2-15.1-12.3l-2.6-2.2l-2.3,2.5c-6.7,7.1-13.4,14.2-20,21.2
	c-8.8,9.3-16.3,17.4-22.4,24.3l0,0c-6.4,7-10.9,12.5-14.1,16.7c-6.7,8.6-7.4,11.4-7.4,13.2C1008.3,328.4,1010.2,333.6,1024.9,349.6z
	 M1075.5,345c0,0,0.1-0.1,0.1-0.2c0.3-0.4,0.6-0.8,1-1.4v3C1076.1,345.8,1075.8,345.3,1075.5,345z"/>
<g id="XMLID_388_">
	<path id="XMLID_6_" class="st2" d="M198.6,302.7l-6,16.7h12.6c-0.5-1.3-1.2-3.1-2.1-5.3C201.5,310.1,200,306.3,198.6,302.7z"/>
	<path id="XMLID_9_" class="st2" d="M198.6,302.7l-6,16.7h12.6c-0.5-1.3-1.2-3.1-2.1-5.3C201.5,310.1,200,306.3,198.6,302.7z"/>
	<path id="XMLID_71_" class="st3" d="M240.3,353.9l-21.2,2.4c0.1,0.2,0.1,0.4,0.2,0.6c0.4,1.4,0.8,2.6,1.2,3.7l-11.7,6.5l21.4,19.7
		h2.5c1.4,0,3.7-0.4,11-3.3c1.2-0.4,2.6-1,4.3-2c2.7-1.4,5.7-2.7,9.1-3.8c1.4-0.4,3.3-1.2,4.2-3c0.2-0.3,0.3-0.7,0.4-1L240.3,353.9z
		"/>
	<path id="XMLID_75_" class="st3" d="M125,352.5l-9.9,2.3l21.7,19.9c1.5,1.8,5.1,3.4,12.8,6.2l0.1,0c2.8,0.9,8.1,2.8,15.9,5.5
		l3.4,1.2L147.5,368L125,352.5z"/>
	<polygon id="XMLID_220_" class="st4" points="158.8,334.9 149.5,331 141.1,355.8 135.8,349.9 125,352.5 147.5,368 168.9,387.6 
		175.8,367.3 180.2,354.6 	"/>
	<path id="XMLID_8_" class="st2" d="M198.6,302.7l-6,16.7h12.6c-0.5-1.3-1.2-3.1-2.1-5.3C201.5,310.1,200,306.3,198.6,302.7z"/>
	<path id="XMLID_222_" class="st3" d="M158.2,305.5l-8.7,25.5l9.2,3.9l21.4,19.7c0-0.1,0-0.1,0.1-0.1h38.1c0.2,0.3,0.5,0.9,0.8,1.8
		l21.2-2.4l-47.7-32.3L158.2,305.5z"/>
	<path id="XMLID_230_" class="st4" d="M261.7,370.9L219,259.2c-2.4-6.4-3.1-8.4-3.3-8.9l-0.1-0.2c-1.1-2.8-2.2-5-3.5-6.4l0,0l0,0
		c-0.2-0.2-0.4-0.4-0.7-0.6l-22.9-20.5l8.8,22.3l-8.5,2.3l-0.1,0c-3.2,1-6.5,2-9.7,2.9l-0.2,0.1c-1.9,0.6-2.5,1.6-5.6,10.7
		l-15.1,44.6l34.4,16.1l47.7,32.3l21.5,19.5C262,372.6,262,371.8,261.7,370.9z M192.6,319.4l6-16.7c1.5,3.6,3,7.4,4.5,11.4
		c0.9,2.2,1.6,4,2.1,5.3H192.6z"/>
	<path id="XMLID_167_" class="st5" d="M128.1,361.3L128.1,361.3c2.9,1,8.2,2.8,16,5.5l3.4,1.2l6.8-20.3l4.4-12.8
		c0-0.1,0-0.1,0.1-0.1h38.1c0.2,0.4,0.6,1.2,1,2.4c2.5,8,3.6,10.4,4.2,11.5c0.4,0.8,1.5,3.3,4.5,11.9c0.3,1,0.8,2.4,1.5,4.1l0.9,2.3
		h2.5c1.4,0,3.7-0.4,11-3.3c1.2-0.4,2.6-1,4.3-2c2.7-1.4,5.7-2.7,9.1-3.8c1.4-0.4,3.3-1.2,4.2-3c0.6-1.1,0.7-2.3,0.3-3.5
		l-42.7-111.8c-2.4-6.4-3.1-8.4-3.3-8.9l-0.1-0.2c-2.1-5.2-3.9-8.1-7.1-8.1h-0.5l-19.1,5.2l-0.1,0c-3.2,1-6.5,2-9.7,2.9l-0.2,0.1
		c-1.9,0.6-2.5,1.6-5.6,10.7l-37.5,110.6v0.6C114.4,355.6,116.9,357.2,128.1,361.3z M171.2,299.7l6-16.7c1.5,3.6,3,7.4,4.5,11.4
		c0.9,2.2,1.6,4,2.1,5.3H171.2z"/>
	<polygon id="XMLID_3_" class="st6" points="192.6,226.9 140,276.4 134.9,291.4 165.8,260.8 134.9,299.7 198.3,241.6 	"/>
	<path id="XMLID_5_" class="st6" d="M120,335.3l51.2-35.6h31.6l-81.2,59c0,0-4.6-1.6-6.4-4c-1.8-2.4,0.7-7.2,1-8.1
		C116.4,345.7,120,335.3,120,335.3z"/>
	<polygon id="XMLID_73_" class="st6" points="181.1,292.9 209.8,271.5 211.2,275.3 191.6,292.9 213.1,280.2 217.1,290.6 
		202.7,299.7 183.8,299.7 	"/>
	<polygon id="XMLID_224_" class="st6" points="225,311.3 202.1,329.2 222.3,318 211.7,326.5 228,319.4 	"/>
</g>
<g id="XMLID_389_">
	<path id="XMLID_232_" class="st2" d="M349.6,289.3c-1-1.3-3-3.7-6.6-8.1c-0.6-0.6-1.2-1.4-1.9-2.2v18.9c0.8-0.8,1.6-1.5,2.2-2.1
		C346.8,292.4,348.6,290.4,349.6,289.3z"/>
	<path id="XMLID_233_" class="st2" d="M341.1,319.7V348c1.5-1.5,2.7-2.7,3.6-3.7l0,0c6.9-7.1,8.3-9.8,8.6-10.5
		c-0.3-0.7-1.6-3.5-8.7-10.6C343.6,322.2,342.5,321,341.1,319.7z"/>
	<path id="XMLID_234_" class="st3" d="M303.3,352.1v6.3l-19.3-1l20.5,18.9c2.2,2.2,7.9,4.1,21.2,7.1c4.4,0.9,11.1,2.3,19.9,3.9
		c0.6,0.1,1.2,0.2,1.8,0.2c0.6,0,1.2,0,1.8-0.1c0.4,0,0.7-0.1,1.1-0.3l-22.5-19.4L303.3,352.1z"/>
	<path id="XMLID_104_" class="st2" d="M341.1,319.7V348c1.5-1.5,2.7-2.7,3.6-3.7l0,0c6.9-7.1,8.3-9.8,8.6-10.5
		c-0.2-0.5-0.8-1.8-3.2-4.6l-3.9,2.1l3.9-2.1c-1.3-1.5-3.1-3.5-5.5-6C343.6,322.2,342.5,321,341.1,319.7z"/>
	<path id="XMLID_105_" class="st2" d="M349.6,289.3c-1-1.3-3-3.7-6.6-8.1c-0.6-0.6-1.2-1.4-1.9-2.2v18.9c0.8-0.8,1.6-1.5,2.2-2.1
		C346.8,292.4,348.6,290.4,349.6,289.3z"/>
	<path id="XMLID_218_" class="st2" d="M341.1,319.7V348c1.5-1.5,2.7-2.7,3.6-3.7l0,0c6.9-7.1,8.3-9.8,8.6-10.5
		c-0.2-0.5-0.8-1.8-3.2-4.6c-1.3-1.5-3.1-3.5-5.5-6C343.6,322.2,342.5,321,341.1,319.7z"/>
	<path id="XMLID_223_" class="st2" d="M341.1,279v18.9c0.8-0.8,1.6-1.5,2.2-2.1c3.5-3.4,5.4-5.4,6.4-6.5c-0.5-0.7-1.4-1.7-2.5-3.1
		l-2.6,2.3l2.6-2.3c-1-1.3-2.4-2.9-4.1-4.9C342.4,280.6,341.8,279.9,341.1,279z"/>
	<path id="XMLID_106_" class="st2" d="M341.1,279v18.9c0.8-0.8,1.6-1.5,2.2-2.1c3.5-3.4,5.4-5.4,6.4-6.5c-0.5-0.7-1.4-1.7-2.5-3.1
		c-1-1.3-2.4-2.9-4.1-4.9C342.4,280.6,341.8,279.9,341.1,279z"/>
	<path id="XMLID_225_" class="st2" d="M341.1,319.7V348c1.5-1.5,2.7-2.7,3.6-3.7l0,0c6.9-7.1,8.3-9.8,8.6-10.5
		c-0.2-0.5-0.8-1.8-3.2-4.6c-1.3-1.5-3.1-3.5-5.5-6C343.6,322.2,342.5,321,341.1,319.7z"/>
	<path id="XMLID_231_" class="st2" d="M341.1,319.7V348c1.5-1.5,2.7-2.7,3.6-3.7l0,0c6.9-7.1,8.3-9.8,8.6-10.5
		c-0.2-0.5-0.8-1.8-3.2-4.6c-1.3-1.5-3.1-3.5-5.5-6C343.6,322.2,342.5,321,341.1,319.7z"/>
	<path id="XMLID_107_" class="st2" d="M344.7,344.3L344.7,344.3c6.9-7.2,8.3-9.8,8.6-10.6c-0.2-0.5-0.8-1.8-3.2-4.6
		c-1.3-1.5-3.1-3.5-5.5-6c-0.9-0.9-2.1-2.1-3.5-3.4v13.5l3,0.6l-3-0.6V348C342.5,346.5,343.8,345.3,344.7,344.3z"/>
	<path id="XMLID_236_" class="st4" d="M350.1,329.1c2.4,2.8,3,4.1,3.2,4.6c-0.3,0.7-1.7,3.4-8.6,10.5l0,0c-0.9,1-2.2,2.2-3.6,3.7
		v-14.7l-37.8-7.6v26.5l24.5,15.6l22.5,19.4c1.5-0.5,2.8-1.5,4-3.2l18.4-19.1c6.4-6.7,10.3-10.8,12.3-13c5.3-5.6,8.2-10,8.8-13.6
		L372.7,317L350.1,329.1z"/>
	<path id="XMLID_238_" class="st3" d="M383.9,318.1c-4.4-6.2-6.7-9.5-8-11.3l-66.2-9l-6.5,0v27.8l37.8,7.6v-13.5
		c1.4,1.3,2.6,2.5,3.5,3.4c2.5,2.5,4.3,4.4,5.5,6l22.5-12l21.3,21.3c0.1-0.6,0.2-1.1,0.2-1.6C394.1,334.5,392.9,330.7,383.9,318.1z"
		/>
	<path id="XMLID_226_" class="st2" d="M341.1,279v6.3l3.2,1.5l-3.2-1.5v12.6c0.8-0.8,1.6-1.5,2.2-2.1c3.5-3.4,5.4-5.4,6.4-6.5
		c-0.5-0.7-1.4-1.7-2.5-3.1c-1-1.3-2.4-2.9-4.1-4.9C342.4,280.6,341.8,279.9,341.1,279z"/>
	<path id="XMLID_240_" class="st4" d="M341.1,279c0.7,0.9,1.4,1.6,1.9,2.2c1.7,2,3.1,3.7,4.1,4.9l24-21.4l21.4,19.5
		c0-2.8-1.4-5.6-4-8.3c-0.5-0.6-1.2-1.2-2.2-1.8c-2-2.2-7.7-8.7-16.8-19.4c-4.9-5.7-7.6-8.7-9.3-10.3h0l0,0
		c-0.2-0.2-0.4-0.4-0.6-0.6l-21.5-19.7l2.7,16.1c-4.6,1.1-8.4,2-11.3,2.7c-7.9,1.9-15.8,4-23.6,6.1l-2.6,0.7v18.5l37.8,16.9V279z"/>
	<path id="XMLID_241_" class="st3" d="M392.5,284.3l-21.4-19.5l-24,21.4c1.2,1.4,2,2.4,2.5,3.1c-1,1.1-2.9,3.1-6.4,6.5
		c-0.6,0.6-1.4,1.3-2.2,2.1v-12.6l-37.8-16.9v29.6l6.5,0l66.2,9c1.1-1.2,3.2-3.3,6.8-6.8c6.7-6.6,9.8-11.5,9.8-15.6
		C392.6,284.4,392.5,284.3,392.5,284.3z"/>
	<path id="XMLID_170_" class="st5" d="M304.3,363.8c4.4,0.9,11.1,2.3,19.9,3.9c0.6,0.1,1.2,0.2,1.8,0.2c0.6,0,1.2,0,1.8-0.1
		c1.9-0.3,3.7-1.4,5.1-3.4l18.4-19.1c6.4-6.7,10.3-10.8,12.3-13c6.1-6.5,9-11.3,9-15.2c0-2.2-1.2-6-10.2-18.6
		c-4.4-6.2-6.7-9.5-8-11.3c1.1-1.2,3.2-3.3,6.8-6.8c6.7-6.6,9.8-11.5,9.8-15.6c0-2.9-1.4-5.7-4-8.4c-0.5-0.6-1.2-1.2-2.2-1.8
		c-2-2.2-7.7-8.7-16.8-19.4c-9.9-11.5-11-12.2-12.6-12.2c-0.3-0.1-1.1-0.4-2.9-1.1c-3.7-1.5-4.3-1.6-5.1-1.6h-5.9l-0.4,0.1
		c-5.5,1.3-9.9,2.4-13.1,3.2c-7.9,1.9-15.8,4-23.6,6.1l-2.6,0.7v123.4C281.8,357.4,285.2,359.6,304.3,363.8z M321.8,276.1
		c-0.6,0.6-1.4,1.3-2.2,2.1v-18.9c0.7,0.9,1.4,1.6,1.9,2.2c3.6,4.3,5.6,6.7,6.6,8.1C327.2,270.8,325.3,272.7,321.8,276.1z
		 M319.6,328.3V300c1.4,1.3,2.6,2.5,3.5,3.4c7.1,7.1,8.5,9.9,8.7,10.6c-0.3,0.7-1.7,3.4-8.6,10.5l0,0
		C322.3,325.6,321.1,326.8,319.6,328.3z"/>
	<g id="XMLID_7_">
		<defs>
			<path id="XMLID_77_" d="M304.3,363.8c4.4,0.9,11.1,2.3,19.9,3.9c0.6,0.1,1.2,0.2,1.8,0.2c0.6,0,1.2,0,1.8-0.1
				c1.9-0.3,3.7-1.4,5.1-3.4l18.4-19.1c6.4-6.7,10.3-10.8,12.3-13c6.1-6.5,9-11.3,9-15.2c0-2.2-1.2-6-10.2-18.6
				c-4.4-6.2-6.7-9.5-8-11.3c1.1-1.2,3.2-3.3,6.8-6.8c6.7-6.6,9.8-11.5,9.8-15.6c0-2.9-1.4-5.7-4-8.4c-0.5-0.6-1.2-1.2-2.2-1.8
				c-2-2.2-7.7-8.7-16.8-19.4c-9.9-11.5-11-12.2-12.6-12.2c-0.3-0.1-1.1-0.4-2.9-1.1c-3.7-1.5-4.3-1.6-5.1-1.6h-5.9l-0.4,0.1
				c-5.5,1.3-9.9,2.4-13.1,3.2c-7.9,1.9-15.8,4-23.6,6.1l-2.6,0.7v123.4C281.8,357.4,285.2,359.6,304.3,363.8z M321.8,276.1
				c-0.6,0.6-1.4,1.3-2.2,2.1v-18.9c0.7,0.9,1.4,1.6,1.9,2.2c3.6,4.3,5.6,6.7,6.6,8.1C327.2,270.8,325.3,272.7,321.8,276.1z
				 M319.6,328.3V300c1.4,1.3,2.6,2.5,3.5,3.4c7.1,7.1,8.5,9.9,8.7,10.6c-0.3,0.7-1.7,3.4-8.6,10.5l0,0
				C322.3,325.6,321.1,326.8,319.6,328.3z"/>
		</defs>
		<clipPath id="XMLID_16_">
			<use xlink:href="#XMLID_77_"  style="overflow:visible;"/>
		</clipPath>
		<polygon id="XMLID_4_" class="st7" points="345.3,231.9 281.8,273.9 281.8,285.8 317.1,264.8 281.8,292.1 281.8,302.7 
			359.4,248.3 		"/>
		<path id="XMLID_1_" class="st7" d="M281.8,335.9l63.5-40.8l-31.8,28.3l45.7-29.4l8,11.5l-83.4,51.9
			C283.9,357.4,277.9,360.7,281.8,335.9z"/>
	</g>
</g>
<g id="XMLID_390_">
	<path id="XMLID_83_" class="st3" d="M531,274.5c9.6-7,13.6-9.9,15.1-10.9h9.9l-21.4-19.7H529l-11.4-8.3h-1.2c-1.5,0-3,0-18.5,11.9
		c-6.2,4.7-15.3,11.9-27.2,21.4c-5.2,4.1-10.3,8.2-15.2,12.2c-2.6,2.2-4.8,4-6.4,5.6l17.4,0.8l21.4,19.7c1.6-1.5,5.3-4.7,13.4-11
		C508,291.4,517.9,284.1,531,274.5z"/>
	<path id="XMLID_13_" class="st4" d="M537.1,363l-2-2.3c-4.6-5.1-9.1-10.2-13.6-15.3c-7.7-8.6-15.4-17.3-23-25.9
		c-6.1-7-9-10.5-10.4-12.2l-21.4-19.7l-17.4-0.8c-0.3,0.3-0.5,0.5-0.8,0.8c-5.6,5.7-8.3,9.8-8.7,13c-0.4,2.5-0.5,4.6-0.5,6.2
		c0,1.2,0.2,2.5,0.5,3.8c0.3,1.3,0.8,2.6,1.5,3.9c0.6,1.2,1.4,2.3,2.2,3.3c5.1,6,10.3,12,15.6,17.9l20,23l36.7-15.3L537.1,363z"/>
	<path id="XMLID_22_" class="st3" d="M515.7,343.3L479,358.6l6.8,7.9l-2,1.5l18.9,17.5c0.8,0.8,1.4,1.3,1.8,1.7l0,0
		c0.9,0.7,1.4,0.7,2.1,0.7h1.3l13.4-10.8c12.9-10.5,13.5-11.2,13.9-11.7l1.9-2.4L515.7,343.3z"/>
	<path id="XMLID_172_" class="st5" d="M419.8,294.8c0.6,1.2,1.4,2.3,2.2,3.3c5.1,6,10.3,12,15.6,17.9l28.9,33.2
		c16.8,19.1,16.8,19.1,18.8,19.1h1.3l13.4-10.8c12.9-10.5,13.5-11.2,13.9-11.7l1.9-2.4l-2-2.3c-4.6-5.1-9.1-10.2-13.6-15.3
		c-7.7-8.6-15.4-17.3-23-25.9c-6.1-7-9-10.5-10.4-12.2c1.6-1.5,5.3-4.7,13.4-11c6.4-4.8,16.3-12.2,29.4-21.8
		c9.6-7,13.6-9.9,15.1-10.9h9.9l-38.3-28h-1.2c-1.5,0-3,0-18.5,11.9c-6.2,4.7-15.3,11.9-27.2,21.4c-5.2,4.1-10.3,8.2-15.2,12.2
		c-3.1,2.5-5.5,4.7-7.2,6.3c-5.6,5.7-8.3,9.8-8.7,13c-0.4,2.5-0.5,4.6-0.5,6.2c0,1.2,0.2,2.5,0.5,3.8
		C418.6,292.2,419.1,293.5,419.8,294.8z"/>
	<polygon id="XMLID_127_" class="st6" points="512.2,227.7 421.1,296.9 426.4,303.2 466.7,272.3 429.9,307.3 433.1,310.9 
		528.2,239.3 	"/>
	<polygon id="XMLID_282_" class="st6" points="460.9,342.7 492.3,317 497.4,322.7 479.1,335.9 500.1,325.7 503.2,329.3 469.8,352.9 
			"/>
</g>
<g id="XMLID_391_">
	<path id="XMLID_74_" class="st2" d="M630.2,339.2c2.7-2.5,6.7-6.1,12.4-11.3c11.2-10.3,15.8-14.4,17.7-16.2V311l-29.5-26
		L630.2,339.2z"/>
	<path id="XMLID_108_" class="st3" d="M591.7,352.1v8.2l-20.7-1.9l21.3,19.4c1.1,1.8,3.8,2.4,6.3,3c2.8,0.7,7,1.4,12.5,2.3
		c14.7,2.4,18.1,2.7,19.4,2.7c2.6,0,5.3-0.6,7.8-1.7l-20.9-19.9L591.7,352.1z"/>
	<path id="XMLID_79_" class="st2" d="M630.2,339.2c2.7-2.5,6.7-6.1,12.4-11.3c11.2-10.3,15.8-14.4,17.7-16.2V311l-23.6-20.8
		l-3.2-0.1l3.2,0.1l-5.8-5.1L630.2,339.2z"/>
	<path id="XMLID_110_" class="st2" d="M630.7,298.6l4-4.8L630.7,298.6l-0.5,40.7c2.7-2.5,6.7-6.1,12.4-11.3
		c11.2-10.3,15.8-14.4,17.7-16.2V311l-23.6-20.8l-5.8-5.1L630.7,298.6z"/>
	<path id="XMLID_117_" class="st4" d="M707,310.9l-21.4-19.5l-48.9-1.3l23.6,20.8v0.7c-2,1.7-6.5,5.9-17.7,16.2
		c-5.7,5.3-9.7,8.9-12.4,11.3l0.5-40.7L606,328.2l-14.3-1.8v25.8l25.7,12.2l20.9,19.9c2.4-1,4.7-2.5,7-4.5l0.1-0.1
		c1.4-1.3,3.1-3.1,5.2-5.6c3.2-2.6,9.8-9.4,20.3-20.5c11.9-12.6,23.3-25.1,33.8-37.2c1.4-1.4,2.1-3.2,2.1-5.2
		C707,311.1,707,311,707,310.9z"/>
	<path id="XMLID_114_" class="st4" d="M704.8,306.2l-63.3-63.4L620,223.2l10.9,18.4c-3,0.4-8.2,1.3-17.3,2.9
		c-4.2,0.7-10.5,1.8-19,3.6l-2.9,0.6l36.2,22.8l3.1,13.7l5.6,5l48.9,1.3l21.4,19.5C706.9,309.7,706.5,308,704.8,306.2z"/>
	<polygon id="XMLID_125_" class="st3" points="591.7,248.6 591.7,326.4 606,328.2 630.7,298.6 630.8,285 631.1,285.2 627.9,271.5 	
		"/>
	<path id="XMLID_175_" class="st5" d="M577.1,361.2c2.8,0.7,7,1.4,12.5,2.3c14.7,2.4,18.1,2.7,19.4,2.7c5,0,10-2.1,14.9-6.2l0.1-0.1
		c1.4-1.3,3.1-3.1,5.2-5.6c3.2-2.6,9.8-9.4,20.3-20.5c11.9-12.6,23.3-25.1,33.8-37.2c1.4-1.4,2.1-3.2,2.1-5.2c0-1.2-0.4-3-2.2-4.9
		L620,223.2l-0.3-0.2c-1.2-0.8-2.6-1.3-4-1.5l-1.7,0c-0.8,0-2.7,0-21.8,3.4c-4.2,0.7-10.5,1.8-19,3.6l-2.9,0.6v127.2
		C570.3,359.6,573.9,360.4,577.1,361.2z M608.8,319.6l0.6-54.2l29.5,26v0.7c-2,1.7-6.5,5.9-17.7,16.2
		C615.4,313.5,611.5,317.1,608.8,319.6z"/>
	<polygon id="XMLID_283_" class="st6" points="630.2,232.6 570.3,271.5 570.3,279 592.9,265.3 570.3,284.9 570.3,292.4 641.5,244.7 
			"/>
	<g id="XMLID_284_">
		<defs>
			<path id="XMLID_285_" d="M577.1,361.2c2.8,0.7,7,1.4,12.5,2.3c14.7,2.4,18.1,2.7,19.4,2.7c5,0,10-2.1,14.9-6.2l0.1-0.1
				c1.4-1.3,3.1-3.1,5.2-5.6c3.2-2.6,9.8-9.4,20.3-20.5c11.9-12.6,23.3-25.1,33.8-37.2c1.4-1.4,2.1-3.2,2.1-5.2c0-1.2-0.4-3-2.2-4.9
				L620,223.2l-0.3-0.2c-1.2-0.8-2.6-1.3-4-1.5l-1.7,0c-0.8,0-2.7,0-21.8,3.4c-4.2,0.7-10.5,1.8-19,3.6l-2.9,0.6v127.2
				C570.3,359.6,573.9,360.4,577.1,361.2z M608.8,319.6l0.6-54.2l29.5,26v0.7c-2,1.7-6.5,5.9-17.7,16.2
				C615.4,313.5,611.5,317.1,608.8,319.6z"/>
		</defs>
		<clipPath id="XMLID_17_">
			<use xlink:href="#XMLID_285_"  style="overflow:visible;"/>
		</clipPath>
		<polygon id="XMLID_118_" class="st8" points="663.8,267.1 602.1,313.1 645.3,286.8 574.4,344.9 636.4,300.1 571,358.4 
			577.4,366.2 677.5,280.8 		"/>
	</g>
</g>
<g id="XMLID_392_">
	<path id="XMLID_145_" class="st3" d="M1164.5,358.7v8.9l-21.4,4.4l21.4,19.7l35.3-7.2l-21.4-19.7
		C1178.4,364.8,1172.3,362.1,1164.5,358.7z"/>
	<polygon id="XMLID_155_" class="st3" points="1223.9,359.7 1223.9,364.4 1205.1,372.7 1226.5,392.4 1261.7,386.4 1240.3,366.7 	"/>
	<path id="XMLID_251_" class="st4" d="M1164.5,300.3v58.4c7.7,3.4,13.8,6.1,13.8,6.1l21.4,19.7v-60.3l-21.4-19.7
		C1178.4,304.6,1172.1,302.7,1164.5,300.3z"/>
	<polygon id="XMLID_254_" class="st4" points="1240.3,218.5 1236.2,246.2 1226.1,249.4 1226.1,291.9 1211,291.9 1221.1,320.8 
		1217.7,324.3 1223.9,324.3 1223.9,359.7 1240.3,366.7 1261.7,386.4 1261.7,238.1 	"/>
	<path id="XMLID_253_" class="st4" d="M1201,240.6l-21.4-19.7v23.4l-15,2.6v53.4c0.6,0.2,1.2,0.4,1.8,0.6l34.6-22.1V240.6z"/>
	<path id="XMLID_255_" class="st3" d="M1201,291.9v-13.2l-34.6,22.1c6.7,2.1,12,3.7,12,3.7l21.4,19.7h17.9l3.4-3.4l-10.1-28.9H1201z
		"/>
	<polygon id="XMLID_179_" class="st5" points="1205.1,372.7 1240.3,366.7 1240.3,218.5 1204.6,229.7 1204.6,272.3 1179.5,272.3 
		1179.5,220.9 1143.1,227.3 1143.1,372 1178.4,364.8 1178.4,304.6 1202.4,304.6 1202.4,369.2 	"/>
	<g id="XMLID_293_">
		<defs>
			<polygon id="XMLID_294_" points="1205.1,372.7 1240.3,366.7 1240.3,218.5 1204.6,229.7 1204.6,272.3 1179.5,272.3 1179.5,220.9 
				1143.1,227.3 1143.1,372 1178.4,364.8 1178.4,304.6 1202.4,304.6 1202.4,369.2 			"/>
		</defs>
		<clipPath id="XMLID_18_">
			<use xlink:href="#XMLID_294_"  style="overflow:visible;"/>
		</clipPath>
		<polygon id="XMLID_291_" class="st9" points="1143.1,280 1173.1,256.7 1151,280 1232.5,220.9 1240.3,218.5 1240.3,232 
			1187.4,268.9 1240.3,236.4 1240.3,246.9 1143.1,309.5 		"/>
		<polygon id="XMLID_292_" class="st9" points="1240.3,278.7 1193.7,310.8 1234.3,290.6 1143.1,352.2 1143.1,359.7 1240.3,296.5 		
			"/>
	</g>
</g>
<g id="XMLID_393_">
	<polygon id="XMLID_134_" class="st3" points="136.4,625.6 130,653.3 151.4,673 186.7,665.8 165.2,646.1 	"/>
	<polygon id="XMLID_152_" class="st4" points="165.2,502.5 136.4,625.6 165.2,646.1 186.7,665.8 186.7,522.1 	"/>
	<polygon id="XMLID_180_" class="st5" points="165.2,502.4 130,508.9 130,653.3 165.2,646.1 	"/>
	<polygon id="XMLID_295_" class="st6" points="130,543.9 158.3,525.1 138.7,543.9 165.2,526.9 165.2,538.3 130,560 	"/>
	<polygon id="XMLID_298_" class="st6" points="165.2,575.2 140,591.7 161.5,582.5 130,604.3 130,615.4 165.2,592.6 	"/>
</g>
<g id="XMLID_394_">
	<path id="XMLID_78_" class="st4" d="M316.6,648.2c0.5-0.6,1-1.3,1.4-2l0.1-0.1c0.8-1.4,1.6-3.2,2.4-5.7l0.2-0.6V521.9l-21.4-19.7
		v24.6l-15.4,3.6v88.8l11.8,8.6L316.6,648.2z"/>
	<path id="XMLID_281_" class="st3" d="M295.7,627.8l-11.8-8.6v0.7c-0.3,2.1-1.2,2.7-2.6,3l-50.9,17.3l7.3,11.4l-7.3,2.5l21.4,19.7
		l55-19c4-1.1,7.3-3.3,9.8-6.6L295.7,627.8z"/>
	<path id="XMLID_181_" class="st5" d="M230.3,654.1l55-19c4.8-1.3,8.6-4.2,11.2-8.6l0.1-0.1c0.8-1.4,1.6-3.2,2.4-5.7l0.2-0.6V502.2
		l-36.8,8.5v89.5c-0.3,2.1-1.2,2.7-2.6,3l-50.9,17.3L230.3,654.1z"/>
	<polygon id="XMLID_300_" class="st6" points="262.4,545.7 285.4,537.8 272,545.7 299.2,536.5 299.2,547.7 279.1,554.8 299.2,550.1 
		299.2,554.8 262.4,566.2 	"/>
	<polygon id="XMLID_301_" class="st6" points="299.2,578.2 272.2,585.5 299.2,584.1 	"/>
	<path id="XMLID_302_" class="st6" d="M219.8,637.7l55.8-20.3l-24.8,18.3l48.5-18.3c0,0,0.2,6.4-3.5,10.3l-67.6,22.9L219.8,637.7z"
		/>
</g>
<g id="XMLID_399_">
	<path id="XMLID_120_" class="st3" d="M186.7,813.3c-0.7,0.5-1.3,1-1.9,1.6l-52.6,52.6l-0.1,0.1c-4,4.3-6.1,9.4-6.1,15
		c0,5.9,2.1,11,6.2,15.1l10.2,10.2l36.3-18.5l-4.4-4.4c-0.8-0.8-1.1-1.6-1.1-2.8c0-1.1,0.4-2.1,1.2-3.1l22.2-22c1-0.8,2-1.2,2.9-1.2
		c1.1,0,2,0.3,2.8,1.1l3.4,3.4l-2.9-21.3C202.7,839.1,195.2,827,186.7,813.3z"/>
	<path id="XMLID_129_" class="st4" d="M265.8,865.9L214.9,815c-4.1-4.1-9.2-6.2-15.1-6.2c-4.8,0-9.2,1.5-13.1,4.5
		c8.5,13.7,16,25.8,16,25.8l2.9,21.3l13.7,13.7l31.4-12.6l21.4,19.4C272.1,875.1,270,870,265.8,865.9z"/>
	<path id="XMLID_113_" class="st3" d="M215.7,892.4l-14.1,14.1l-0.1,0.1c-0.4,0.5-1.1,1-2.7,1c-1.3,0-2.2-0.3-3-1.1l-17.2-17.2
		l-36.3,18.5l23.4,23.4c13.4-3,30.8-6.8,30.8-6.8l21.4,19.7l20.3,17.9l24.7-26.1l-21.4-19.7L215.7,892.4z"/>
	<path id="XMLID_119_" class="st3" d="M272.2,881.2c0-0.1,0-0.2,0-0.2l-21.4-19.4l-31.4,12.6l4.5,4.5c0.8,0.8,1.1,1.7,1.1,3
		c0,1.6-0.5,2.2-1,2.7l-8.2,8.2l25.9,23.7l21.4,19.7l-19-17.8l21.8-21.7C270,892.1,272.2,887,272.2,881.2z"/>
	<path id="XMLID_148_" class="st2" d="M199.4,855.9c-0.9,0-1.9,0.4-2.9,1.2l-22.2,22c-0.8,1-1.2,2-1.2,3.1c0,1.2,0.3,2,1.1,2.8
		l4.4,4.4l7.8-4l-7.8,4l17.2,17.2c0.8,0.8,1.7,1.1,3,1.1c1.6,0,2.2-0.5,2.7-1l0.1-0.1l22.3-22.3c0.5-0.4,1-1.1,1-2.7
		c0-1.3-0.3-2.2-1.1-3l-4.5-4.5l-12.1,4.8l12.1-4.8L202.2,857C201.4,856.2,200.6,855.9,199.4,855.9z"/>
	<path id="XMLID_150_" class="st3" d="M165.8,931.2l17.4,17.4c4.2,4.2,9.4,6.4,15.3,6.4c5.8,0,10.9-2.1,15.1-6.4l4.5-4.5l-21.4-19.7
		C196.6,924.4,179.2,928.2,165.8,931.2z"/>
	<path id="XMLID_194_" class="st5" d="M193.5,795.3c-4.1-4.1-9.2-6.2-15.1-6.2c-5.6,0-10.7,2-15,6.1l-52.6,52.6l-0.1,0.1
		c-4,4.3-6.1,9.4-6.1,15c0,5.9,2.1,11,6.2,15.1l50.9,50.9c4.2,4.2,9.4,6.4,15.3,6.4c5.8,0,10.9-2.1,15.1-6.4l4.5-4.5l20.3,17.9
		l24.7-26.1l-19-17.8l21.8-21.7c4.2-4.2,6.4-9.3,6.4-15.1c0-5.9-2.1-11.1-6.4-15.3L193.5,795.3z M180,887c-0.4,0.5-1.1,1-2.7,1
		c-1.3,0-2.2-0.3-3-1.1l-21.6-21.6c-0.8-0.8-1.1-1.6-1.1-2.8c0-1.1,0.4-2.1,1.2-3.1l22.2-22c1-0.8,2-1.2,2.9-1.2
		c1.1,0,2,0.3,2.8,1.1l21.6,21.6c0.8,0.8,1.1,1.7,1.1,3c0,1.6-0.5,2.2-1,2.7l-22.3,22.3L180,887z"/>
	<g id="XMLID_304_">
		<defs>
			<path id="XMLID_305_" d="M193.4,795.3c-4.1-4.1-9.2-6.2-15.1-6.2c-5.6,0-10.7,2-15,6.1l-52.6,52.6l-0.1,0.1
				c-4,4.3-6.1,9.4-6.1,15c0,5.9,2.1,11,6.2,15.1l50.9,50.9c4.2,4.2,9.4,6.4,15.3,6.4c5.8,0,10.9-2.1,15.1-6.4l4.5-4.5l20.3,17.9
				l24.7-26.1l-19-17.8l21.8-21.7c4.2-4.2,6.4-9.3,6.4-15.1c0-5.9-2.1-11.1-6.4-15.3L193.4,795.3z M179.9,887c-0.4,0.5-1.1,1-2.7,1
				c-1.3,0-2.2-0.3-3-1.1l-21.6-21.6c-0.8-0.8-1.1-1.6-1.1-2.8c0-1.1,0.4-2.1,1.2-3.1l22.2-22c1-0.8,2-1.2,2.9-1.2
				c1.1,0,2,0.3,2.8,1.1l21.6,21.6c0.8,0.8,1.1,1.7,1.1,3c0,1.6-0.5,2.2-1,2.7l-22.3,22.3L179.9,887z"/>
		</defs>
		<clipPath id="XMLID_19_">
			<use xlink:href="#XMLID_305_"  style="overflow:visible;"/>
		</clipPath>
		<path id="XMLID_303_" class="st10" d="M104.8,865.7l55.5-37.1l-28.9,25.3l67.6-42.1l-38.3,31.5l26-9.4l-63.5,56.4
			C123.2,890.4,100.5,876.9,104.8,865.7z"/>
		<path id="XMLID_299_" class="st10" d="M237.3,839.1l-58,59.5l38.7-29.8L159,924.4l2.8,3l56.3-45.7l-44.9,41.8l77.6-63.5
			C250.7,860.1,258.6,852.8,237.3,839.1z"/>
	</g>
</g>
<g id="XMLID_406_">
	<polygon id="XMLID_144_" class="st4" points="768.1,506 768.1,529.5 751.1,532.6 735.6,560.8 749.3,614.2 751.8,609.5 751.8,647.3 
		768.1,648.8 789.6,668.5 789.6,525.7 	"/>
	<polygon id="XMLID_215_" class="st3" points="664.3,645.8 664.3,650.4 642.9,652.2 664.3,671.8 702.7,668.7 681.3,649 	"/>
	<polygon id="XMLID_216_" class="st4" points="706.4,526.2 684.9,506.5 694.9,527.4 664.3,530.7 664.3,645.8 681.3,649 702.7,668.7 
		702.7,607.5 706.2,615.6 726.2,567.7 	"/>
	<polygon id="XMLID_217_" class="st3" points="751.8,647.3 751.8,651.1 730.3,654.1 751.8,673.8 789.6,668.5 768.1,648.8 	"/>
	<polygon id="XMLID_219_" class="st3" points="728.8,573.2 726.2,567.7 706.2,615.6 710.9,626.4 703.7,639.8 725.1,659.5 
		749.3,614.2 735.6,560.8 	"/>
	<polygon id="XMLID_184_" class="st5" points="642.9,652.2 681.3,649 681.3,587.8 703.7,639.8 730.3,589.9 730.3,654.1 768.1,648.8 
		768.1,506 729.6,513 707.4,553.6 684.9,506.5 642.9,511 	"/>
	<g id="XMLID_314_">
		<defs>
			<polygon id="XMLID_316_" points="642.9,652.2 681.3,649 681.3,587.8 703.7,639.8 730.3,589.9 730.3,654.1 768.1,648.8 768.1,506 
				729.6,513 707.4,553.6 684.9,506.5 642.9,511 			"/>
		</defs>
		<clipPath id="XMLID_20_">
			<use xlink:href="#XMLID_316_"  style="overflow:visible;"/>
		</clipPath>
		<polygon id="XMLID_313_" class="st11" points="642.9,566 706.4,526.2 672.8,560.8 741.7,510.8 756.7,508.1 664.3,580.1 
			726.5,541.6 642.9,610.1 		"/>
		<polygon id="XMLID_315_" class="st11" points="768.1,565.4 706.2,615.6 753.1,593.3 735.6,615.6 768.1,597 		"/>
	</g>
</g>
<g id="XMLID_411_">
	<polygon id="XMLID_81_" class="st4" points="549.2,1056.9 527.7,1037.2 532.5,1065.5 517.6,1073.1 539.3,1106.6 540,1111 
		567.4,1109.9 572.1,1092.3 	"/>
	<polygon id="XMLID_93_" class="st3" points="610.8,1053.7 605.7,1059.5 600.7,1056.8 581.2,1087.2 574.1,1095.3 572.1,1092.3 
		567.4,1109.9 574.6,1109.7 596,1129.3 632.3,1073.4 	"/>
	<polygon id="XMLID_149_" class="st2" points="546.9,1118.2 546.6,1126.3 554.1,1129.3 	"/>
	<polygon id="XMLID_153_" class="st2" points="554.1,1129.3 546.6,1126.3 546,1141.9 	"/>
	<polygon id="XMLID_154_" class="st3" points="617.9,1177 581.8,1177.3 585,1190.3 606.5,1210 639.4,1196.6 	"/>
	<polygon id="XMLID_157_" class="st4" points="639.4,1196.6 596,1129.3 574.6,1109.7 540,1111 540.5,1113.5 534.2,1121.2 
		546.6,1126.3 546.9,1118.2 554.1,1129.3 573.9,1163.4 575,1161.6 579.7,1168.8 581.8,1177.3 617.9,1177 	"/>
	<polygon id="XMLID_159_" class="st3" points="489.6,1176.4 489.1,1177 510.5,1196.7 543.4,1210 522,1190.3 	"/>
	<polygon id="XMLID_160_" class="st3" points="546,1141.9 546.6,1126.3 534.2,1121.2 489.6,1176.4 522,1190.3 543.4,1210 
		573.9,1163.4 554.1,1129.3 	"/>
	<polygon id="XMLID_203_" class="st5" points="610.8,1053.7 579.3,1037.2 553.6,1077.2 527.7,1037.2 496.2,1053.5 532.6,1109.7 
		489.1,1177 522,1190.3 553.6,1142 585,1190.3 617.9,1177 574.6,1109.7 	"/>
	<g id="XMLID_318_">
		<defs>
			<polygon id="XMLID_320_" points="610.8,1053.7 579.3,1037.2 553.6,1077.2 527.7,1037.2 496.2,1053.5 532.6,1109.7 489.1,1177 
				522,1190.3 553.6,1142 585,1190.3 617.9,1177 574.6,1109.7 			"/>
		</defs>
		<clipPath id="XMLID_21_">
			<use xlink:href="#XMLID_320_"  style="overflow:visible;"/>
		</clipPath>
		<polygon id="XMLID_317_" class="st12" points="516.3,1084.4 540.4,1069.1 522.7,1084.4 591.3,1043.5 601.4,1048.8 543.4,1085.7 
			577.8,1070.9 528.4,1103.1 		"/>
		<polygon id="XMLID_319_" class="st12" points="578.7,1116 553.5,1133.9 580.4,1125 520.8,1169.1 589.2,1132.4 		"/>
	</g>
</g>
<g id="XMLID_409_">
	<polygon id="XMLID_130_" class="st3" points="999.5,925.2 1000.5,927.7 992.6,940.6 1014.1,960.3 1045.7,948.6 1024.4,928.9 	"/>
	<polygon id="XMLID_138_" class="st4" points="1096.8,824.9 1075.3,805.2 1070,813.9 1062,810.5 1044.8,855.2 1025.7,886.5 
		993.4,812 972,792.3 981.5,814.4 955.7,819.7 999.5,925.2 1024.4,928.9 1045.7,948.6 1045.9,948.5 	"/>
	<polygon id="XMLID_201_" class="st5" points="1008,875.6 972,792.3 934.2,800.1 992.6,940.6 1024.4,928.9 1075.3,805.2 
		1040.5,790.9 	"/>
	<polygon id="XMLID_323_" class="st6" points="1049,869.2 989.8,884.5 1040.2,879.7 981.5,897 1040.9,888.8 	"/>
	<g id="XMLID_322_">
		<defs>
			<polygon id="XMLID_324_" points="1008,875.6 972,792.3 934.2,800.1 992.6,940.6 1024.4,928.9 1075.3,805.2 1040.5,790.9 			"/>
		</defs>
		<clipPath id="XMLID_23_">
			<use xlink:href="#XMLID_324_"  style="overflow:visible;"/>
		</clipPath>
		<polygon id="XMLID_321_" class="st13" points="951.7,842.1 981,833.3 961.8,843.6 1047.1,822.1 977.3,850.2 1065.3,829.7 
			1061.2,839.5 961.5,865.7 		"/>
	</g>
</g>
<g id="XMLID_397_">
	<path id="XMLID_135_" class="st4" d="M1147.1,590.1l-50.9-50.9c-4.1-4.1-9.2-6.2-15.1-6.2c-5.4,0-10.3,1.9-14.5,5.6l14.4,41.5
		c1,0.1,1.8,0.4,2.5,1.1l17.1,17.1c14.2-4.9,31.4-11.2,31.4-11.2l21.4,19.4c0-0.4,0.1-0.7,0.1-1.1
		C1153.5,599.5,1151.3,594.3,1147.1,590.1z"/>
	<path id="XMLID_136_" class="st3" d="M1100.6,598.3l4.5,4.5c0.8,0.8,1.1,1.7,1.1,3c0,1.6-0.5,2.2-1,2.7l-22.3,22.3l-0.1,0.1
		c-0.4,0.5-1.1,1-2.7,1c-1.3,0-2.2-0.3-3-1.1l-21.6-21.6c-0.8-0.8-1.1-1.6-1.1-2.8c0-1.1,0.4-2.1,1.2-3.1l22.2-22
		c1-0.8,2-1.2,2.9-1.2c0.1,0,0.2,0,0.3,0l-14.4-41.5c-0.2,0.2-0.4,0.3-0.5,0.5l-52.6,52.6l-0.1,0.1c-4,4.3-6.1,9.4-6.1,15
		c0,5.9,2.1,11,6.2,15.1l50.9,50.9c4.2,4.2,9.4,6.4,15.3,6.4c5.8,0,10.9-2.1,15.1-6.4l52.3-52.3c3.9-3.9,6-8.7,6.3-14l-21.4-19.4
		C1132,587.1,1114.7,593.3,1100.6,598.3z"/>
	<path id="XMLID_97_" class="st2" d="M1080.7,580.1c-0.9,0-1.9,0.4-2.9,1.2l-22.2,22c-0.8,1-1.2,2-1.2,3.1c0,1.2,0.3,2,1.1,2.8
		l21.6,21.6c0.8,0.8,1.7,1.1,3,1.1c1.6,0,2.2-0.5,2.7-1l0.1-0.1l22.3-22.3c0.5-0.4,1-1.1,1-2.7c0-1.3-0.3-2.2-1.1-3l-4.5-4.5
		c-9.9,3.4-18.3,6.2-18.4,5.9c0.1,0.4,8.5-2.4,18.4-5.9l-17.1-17.1C1082.7,580.4,1081.9,580.1,1080.7,580.1z"/>
	<path id="XMLID_188_" class="st5" d="M1132,585.7c0-5.9-2.1-11.1-6.4-15.3l-50.9-50.9c-4.1-4.1-9.2-6.2-15.1-6.2
		c-5.6,0-10.7,2-15,6.1L992.1,572l-0.1,0.1c-4,4.3-6.1,9.4-6.1,15c0,5.9,2.1,11,6.2,15.1l50.9,50.9c4.2,4.2,9.4,6.4,15.3,6.4
		c5.8,0,10.9-2.1,15.1-6.4l52.3-52.3C1129.9,596.6,1132,591.5,1132,585.7z M1061.3,611.2c-0.4,0.5-1.1,1-2.7,1c-1.3,0-2.2-0.3-3-1.1
		l-21.6-21.6c-0.8-0.8-1.1-1.6-1.1-2.8c0-1.1,0.4-2.1,1.2-3.1l22.2-22c1-0.8,2-1.2,2.9-1.2c1.1,0,2,0.3,2.8,1.1l21.6,21.6
		c0.8,0.8,1.1,1.7,1.1,3c0,1.6-0.5,2.2-1,2.7l-22.3,22.3L1061.3,611.2z"/>
	<path id="XMLID_327_" class="st6" d="M1130.1,594.7l-80.7,43.8l51.3-12.6C1100.7,625.8,1128.5,599.7,1130.1,594.7z"/>
	<g id="XMLID_326_">
		<defs>
			<path id="XMLID_328_" d="M1132,585.6c0-5.9-2.1-11.1-6.4-15.3l-50.9-50.9c-4.1-4.1-9.2-6.2-15.1-6.2c-5.6,0-10.7,2-15,6.1
				l-52.6,52.6L992,572c-4,4.3-6.1,9.4-6.1,15c0,5.9,2.1,11,6.2,15.1L1043,653c4.2,4.2,9.4,6.4,15.3,6.4c5.8,0,10.9-2.1,15.1-6.4
				l52.3-52.3C1129.9,596.5,1132,591.4,1132,585.6z M1061.3,611.1c-0.4,0.5-1.1,1-2.7,1c-1.3,0-2.2-0.3-3-1.1l-21.6-21.6
				c-0.8-0.8-1.1-1.6-1.1-2.8c0-1.1,0.4-2.1,1.2-3.1l22.2-22c1-0.8,2-1.2,2.9-1.2c1.1,0,2,0.3,2.8,1.1l21.6,21.6
				c0.8,0.8,1.1,1.7,1.1,3c0,1.6-0.5,2.2-1,2.7l-22.3,22.3L1061.3,611.1z"/>
		</defs>
		<clipPath id="XMLID_92_">
			<use xlink:href="#XMLID_328_"  style="overflow:visible;"/>
		</clipPath>
		<path id="XMLID_325_" class="st14" d="M986,589.1l88.4-52.7l-67.1,50.7l65.8-29.5l-59.7,34.1l92.7-40.7l6.6,6.6l-110,55.4
			C1002.9,613,984.6,598.9,986,589.1z"/>
	</g>
</g>
<g id="XMLID_398_">
	<path id="XMLID_124_" class="st3" d="M1236.2,534.8c-1.4-1.2-3.2-1.8-5-1.8c-0.7,0-1.4,0.1-2.2,0.3l-0.3,0.1
		c-1.3,0.4-2,0.6-2.3,0.7l-0.2,0c-5.7,1.5-10.9,3.1-15.2,4.7c-6.3,2.4-8.3,3.8-9.3,4.7l-1.2,1.1v55.5l35.8-8.8v-13.9
		c1.1,0.9,2.8,2.2,5.1,4.3c0.3-7.6,0.9-26.5,1.7-41.3C1240.7,538.5,1238.4,536.6,1236.2,534.8z"/>
	<path id="XMLID_128_" class="st4" d="M1284.9,575.3L1284.9,575.3c-4.9-4.6-12.3-11-22.2-19.1c-6.7-5.3-13.3-10.6-19.7-15.8
		c-0.8,14.8-1.5,33.7-1.7,41.3c0.2,0.2,0.5,0.4,0.7,0.7c1.7,1.6,3.1,2.9,4,4l27.5-15.7l21.4,19.6
		C1294.9,586.5,1291.9,582.1,1284.9,575.3z"/>
	<path id="XMLID_131_" class="st2" d="M1242,582.3c-2.7-2.5-4.5-4-5.8-5v13.9l2-0.5l-2,0.5v9.7c2.2-1.8,3.9-3.2,5.2-4.2
		c5-4.2,6.7-6.2,7.3-7.1c-0.3-0.6-1-1.6-2.7-3.4l-3.6,2l3.6-2C1245,585.2,1243.7,583.9,1242,582.3z"/>
	<path id="XMLID_133_" class="st3" d="M1273.5,570.6l-27.5,15.7c1.7,1.8,2.4,2.8,2.7,3.4c-0.6,0.8-2.4,2.9-7.3,7.1
		c-1.3,1-3,2.4-5.2,4.2v-9.7l-35.8,8.8v28.6l13.6,0.5l21.7,19.5c1.4-1.4,5-4.9,14.1-13.2c14-12.7,23.6-21.5,28.5-26.2
		c16.7-15.6,16.7-17,16.7-18.9c0,0,0,0,0,0L1273.5,570.6z"/>
	<path id="XMLID_142_" class="st3" d="M1200.3,648.1v4.6l-21.4,7l21.4,19.7l4.2-0.7c6.3-1,11-1.8,14-2.4c4.7-0.8,8.2-1.4,10.6-1.9
		c2.1-0.4,4-0.9,5.2-1.9l-20.8-20.4L1200.3,648.1z"/>
	<path id="XMLID_143_" class="st4" d="M1200.3,628.6v19.5l13.1,4l20.8,20.4c0.7-0.6,1.1-1.5,1.1-2.7v-21.1c0.1-0.1,0.1-0.1,0.2-0.2
		l-21.7-19.5L1200.3,628.6z"/>
	<path id="XMLID_191_" class="st5" d="M1263.4,555.6L1263.4,555.6c-4.9-4.6-12.3-11-22.2-19.1c-9-7.2-18-14.4-26.5-21.4
		c-1.4-1.2-3.2-1.8-5-1.8c-0.7,0-1.4,0.1-2.2,0.3l-0.3,0.1c-1.3,0.4-2,0.6-2.3,0.7l-0.2,0c-5.7,1.5-10.9,3.1-15.2,4.7
		c-6.3,2.4-8.3,3.8-9.3,4.7l-1.2,1.1v134.8l4.2-0.7c6.3-1,11-1.8,14-2.4c4.7-0.8,8.2-1.4,10.6-1.9c3.4-0.7,6.3-1.3,6.3-4.5v-21.1
		c1.3-1.3,4.7-4.6,14.4-13.4c14-12.7,23.6-21.5,28.5-26.2c16.7-15.6,16.7-17,16.7-18.9C1273.5,566.9,1270.5,562.4,1263.4,555.6z
		 M1227.2,570c-0.6,0.8-2.4,2.9-7.3,7.1c-1.3,1-3,2.4-5.2,4.2v-23.7c1.2,1,3.1,2.5,5.8,5C1225.2,567,1226.8,569.1,1227.2,570z"/>
	<polygon id="XMLID_331_" class="st6" points="1178.9,627.2 1228.3,592.6 1195,622.5 1258.5,577.3 1178.9,648.5 	"/>
	<g id="XMLID_330_">
		<defs>
			<path id="XMLID_332_" d="M1263.4,555.6L1263.4,555.6c-4.9-4.6-12.3-11-22.2-19.1c-9-7.2-18-14.4-26.5-21.4
				c-1.4-1.2-3.2-1.8-5-1.8c-0.7,0-1.4,0.1-2.2,0.3l-0.3,0.1c-1.3,0.4-2,0.6-2.3,0.7l-0.2,0c-5.7,1.5-10.9,3.1-15.2,4.7
				c-6.3,2.4-8.3,3.8-9.3,4.7l-1.2,1.1v134.8l4.2-0.7c6.3-1,11-1.8,14-2.4c4.7-0.8,8.2-1.4,10.6-1.9c3.4-0.7,6.3-1.3,6.3-4.5v-21.1
				c1.3-1.3,4.7-4.6,14.4-13.4c14-12.7,23.6-21.5,28.5-26.2c16.7-15.6,16.7-17,16.7-18.9C1273.5,566.9,1270.5,562.4,1263.4,555.6z
				 M1227.2,570c-0.6,0.8-2.4,2.9-7.3,7.1c-1.3,1-3,2.4-5.2,4.2v-23.7c1.2,1,3.1,2.5,5.8,5C1225.2,567,1226.8,569.1,1227.2,570z"/>
		</defs>
		<clipPath id="XMLID_100_">
			<use xlink:href="#XMLID_332_"  style="overflow:visible;"/>
		</clipPath>
		<polygon id="XMLID_329_" class="st15" points="1234.3,530.9 1190.5,552.1 1221,543.6 1183.1,572.4 1229.7,547.4 1178.9,587.1 
			1178.9,596.4 1250.5,544.2 		"/>
	</g>
</g>
<g id="XMLID_401_">
	<polygon id="XMLID_94_" class="st4" points="566.8,825.2 541.7,795.5 520.3,775.8 538.8,797.7 534.5,800.8 545.4,805.6 	"/>
	<path id="XMLID_277_" class="st3" d="M513,856.6l13.9,0.7l-2.2-2.1l-0.1-0.1c0,0,0,0,0,0c0.4-0.3,0.9-0.6,1.6-1l40.6-28.9
		l-21.4-19.7l-10.9-4.7l-45.1,33.4l13.8,1.3L513,856.6z"/>
	<path id="XMLID_278_" class="st3" d="M499.1,883.5l10.5,9.8c0.3,0.3,0.5,0.6,0.6,0.9c0,0-0.1,0.1-0.1,0.1l-0.2,0.1
		c0,0-0.2,0.2-0.7,0.5L464,927.6l8.3,8.7l-1.5,1.1l21.4,19.7l63.9-48.8l0.2-0.1c2.2-1.9,3.7-3.7,4.8-5.6c0.8-1.4,1.3-2.8,1.6-4.2
		l-21.3-20.4L499.1,883.5z"/>
	<path id="XMLID_279_" class="st4" d="M560.9,890L560.9,890c-0.4-0.6-0.9-1.3-1.6-2.1l-0.1-0.2L527,857.3l-13.9-0.7l-9.8-21.1
		l-13.8-1.3l-9.4,6.9c-1.5,1-2.6,1.9-3.4,2.7l-0.1,0.1c-2.6,2.8-3.9,5.8-3.9,9.1c0,3.1,1.3,6.2,3.8,9.2l0.1,0.2l22.4,21l42.2-5.5
		l21.3,20.4c0.1-0.7,0.2-1.3,0.2-2C562.8,894.2,562.2,892,560.9,890z"/>
	<path id="XMLID_198_" class="st5" d="M488.5,874.8c0,0-0.2,0.2-0.7,0.5l-45.2,32.7l28.2,29.5l63.9-48.8l0.2-0.1
		c2.2-1.9,3.7-3.7,4.8-5.6c1.2-2,1.7-4.1,1.7-6.2c0-2.2-0.7-4.4-1.9-6.4l-0.1-0.1c-0.3-0.5-0.9-1.2-1.6-2.1l-0.1-0.2l-34.4-32.4
		l-0.1-0.1c0,0,0,0,0,0c0.4-0.3,0.9-0.6,1.6-1l40.6-28.9l-25.1-29.7l-61.6,45.7c-1.5,1-2.6,1.9-3.4,2.7l-0.1,0.1
		c-2.6,2.8-3.9,5.8-3.9,9.1c0,3.1,1.3,6.2,3.8,9.2l0.1,0.2l32.9,30.8c0.3,0.3,0.5,0.6,0.6,0.9c0,0-0.1,0.1-0.1,0.1L488.5,874.8z"/>
	<g id="XMLID_333_">
		<defs>
			<path id="XMLID_338_" d="M488.9,874.8c0,0-0.2,0.2-0.7,0.5L442.9,908l28.2,29.5l63.9-48.8l0.2-0.1c2.2-1.9,3.7-3.7,4.8-5.6
				c1.2-2,1.7-4.1,1.7-6.2c0-2.2-0.7-4.4-1.9-6.4l-0.1-0.1c-0.3-0.5-0.9-1.2-1.6-2.1L538,868l-34.4-32.4l-0.1-0.1c0,0,0,0,0,0
				c0.4-0.3,0.9-0.6,1.6-1l40.6-28.9l-25.1-29.7L459,821.5c-1.5,1-2.6,1.9-3.4,2.7l-0.1,0.1c-2.6,2.8-3.9,5.8-3.9,9.1
				c0,3.1,1.3,6.2,3.8,9.2l0.1,0.2l32.9,30.8c0.3,0.3,0.5,0.6,0.6,0.9c0,0-0.1,0.1-0.1,0.1L488.9,874.8z"/>
		</defs>
		<clipPath id="XMLID_101_">
			<use xlink:href="#XMLID_338_"  style="overflow:visible;"/>
		</clipPath>
		<path id="XMLID_336_" class="st16" d="M452.7,839.1l41.2-25.8L472.7,841l61.3-42.9l-61.3,59.3
			C472.7,857.3,455.9,848.1,452.7,839.1z"/>
		<path id="XMLID_337_" class="st16" d="M538.3,884.7l-65.6,32.8l32.8-6.6C505.5,910.9,535.8,896,538.3,884.7z"/>
	</g>
</g>
<g id="XMLID_410_">
	<polygon id="XMLID_25_" class="st2" points="1219.4,912.2 1222.7,918.1 1225.9,911.6 1222.7,905.7 	"/>
	<path id="XMLID_85_" class="st3" d="M1162.6,897l11.2,29.1l-10,9.5l21.4,19.7c2.2,2.5,4.5,3,6,3c1.6,0,3.1-0.4,4.4-1.3
		c0.7-0.4,1.3-1,2-1.9l0.2-0.2l21.5-42.6l-16.5-29.9L1162.6,897z"/>
	<polygon id="XMLID_132_" class="st4" points="1220.7,817.7 1199.3,798.1 1212.8,837.8 1198,875.2 1172.5,812.7 1151,793 
		1160.2,815.4 1133.4,821.3 1162.6,897 1202.9,882.3 1219.4,912.2 1222.7,905.7 1225.9,911.6 1247.3,868 	"/>
	<path id="XMLID_280_" class="st3" d="M1290.5,810.7l-2.6,6.5l-10.1-5.5l-24.4,68.1l-6.2-11.7l-21.3,43.5l11.2,20.5l-8.9,3.4
		l21.7,20c2,2.3,4.3,2.8,5.8,2.8c1.3,0,2.7-0.4,4-1.3c0.5-0.3,1.1-0.7,1.7-1.3l0.5-0.5l50-124.7L1290.5,810.7z"/>
	<path id="XMLID_126_" class="st4" d="M1151,793"/>
	<path id="XMLID_202_" class="st5" d="M1232,860.1l-32.7-62l-22.8,57.5L1151,793l-39,8.6l51.4,133.5l0.4,0.5c2.2,2.5,4.5,3,6,3
		c1.6,0,3.1-0.4,4.4-1.3c0.7-0.4,1.3-1,2-1.9l0.2-0.2l24.8-49.1l27,49.4l0.3,0.3c2,2.3,4.3,2.8,5.8,2.8c1.3,0,2.7-0.4,4-1.3
		c0.5-0.3,1.1-0.7,1.7-1.3l0.5-0.5l50-124.7l-34.2-18.7L1232,860.1z"/>
	<g id="XMLID_343_">
		<defs>
			<path id="XMLID_344_" d="M1232,860.1l-32.7-62l-22.8,57.5L1151,793l-39,8.6l51.4,133.5l0.4,0.5c2.2,2.5,4.5,3,6,3
				c1.6,0,3.1-0.4,4.4-1.3c0.7-0.4,1.3-1,2-1.9l0.2-0.2l24.8-49.1l27,49.4l0.3,0.3c2,2.3,4.3,2.8,5.8,2.8c1.3,0,2.7-0.4,4-1.3
				c0.5-0.3,1.1-0.7,1.7-1.3l0.5-0.5l50-124.7l-34.2-18.7L1232,860.1z"/>
		</defs>
		<clipPath id="XMLID_109_">
			<use xlink:href="#XMLID_344_"  style="overflow:visible;"/>
		</clipPath>
		<polygon id="XMLID_342_" class="st17" points="1131.6,852.6 1160.4,838.2 1139.8,855.2 1222.7,829.7 1149.9,864.1 1180.5,861.5 
			1140,874.3 		"/>
		<path id="XMLID_339_" class="st17" d="M1273.7,852.6l-11.9,29.7l-76.6,29.9l49.5-27.6l-80.3,27.2l-3.4-8.9c0,0,107.8-38,106-38.8
			c-1.8-0.8-42.9,1.7-42.9,1.7L1273.7,852.6z"/>
	</g>
</g>
<g id="XMLID_403_">
	<path id="XMLID_261_" class="st3" d="M760.1,323.6c-1.3,1.2-2.6,2.3-3.9,3.5l0.8-2.4l-26.9-3.6l21.4,19.7l58.3,47.5l-21.4-19.7
		L760.1,323.6z"/>
	<path id="XMLID_262_" class="st4" d="M772.9,311.7c-1,0.9-2.1,2.1-3.5,3.4c-3,2.8-6.1,5.7-9.2,8.5l28.3,45.1l21.4,19.7l25.6-20.6
		V366c0-1.1-0.4-2-1.1-2.9l0,0l0,0c-0.6-0.8-1.4-1.5-2.3-2.1l-19.3-17.8l-1,1.6c-7.6-6.6-10.2-9.5-11.1-10.7l-21.4-19.7L772.9,311.7
		z"/>
	<path id="XMLID_264_" class="st3" d="M829.2,246.9c-2-2.4-5.2-6-9.5-10.9l-1.1-1.2l-20.4-18.5l15.3,19.6c-3,1.4-9,4.7-21.9,12.1
		l-20.7,12l9.6,5.6l21.4,19.7c2.2-1.5,6.8-4.4,16.1-9.9c4.2-2.5,10.7-6.3,19.4-11.2l1.8-1v-2.1C839.2,259.6,839.2,258.7,829.2,246.9
		z"/>
	<path id="XMLID_265_" class="st4" d="M770.9,260.1l-18.6,10.8l-0.3,0.2c-1.4,1.1-2.2,2.6-2.2,4.4c0,1.6,0.6,3,1.7,4.2l2.1,2.4
		c3.2,3.7,5.9,6.8,8.2,9.3l38.9-2.4l21.5,20.5c0,0,0,0,0,0c0-1-0.3-2.5-1.7-4c-2.4-2.8-8.1-9-16.9-18.5c-0.6-0.7-1.2-1.3-1.6-1.8
		l-21.4-19.7L770.9,260.1z"/>
	<path id="XMLID_266_" class="st3" d="M761.8,291.5c4.4,5.1,7,8,7.5,8.6c3.9,4.5,5.8,6.9,6.9,8.2c-0.6,0.7-1.6,1.8-3.3,3.4l6.5,2.8
		l21.4,19.7c0.5-0.8,2-2.7,5.5-6.2c7.1-7,11.9-11.9,14.2-14.6l0.3-0.3c0.8-1.2,1.4-2.3,1.4-3.5l-21.5-20.5L761.8,291.5z"/>
	<path id="XMLID_176_" class="st5" d="M747.9,295.5c-5.7,5.4-11.6,10.7-17.6,15.9l-0.2,0.2c-1.3,1.3-2,3-2,4.9c0,1.7,0.7,3.4,2,4.7
		l58.3,47.5l25.6-20.6v-1.7c0-2.4-2.1-4.1-4-5.5c-0.6-0.5-1.7-1.1-3.2-2c-0.6-0.3-3.1-2.2-14.4-11.9c-9.2-7.8-12.1-11.1-13-12.4
		c0.5-0.8,2-2.7,5.5-6.2c7.1-7,11.9-11.9,14.2-14.6l0.3-0.3c0.8-1.3,1.4-2.3,1.4-3.6c0-1-0.3-2.5-1.7-4c-2.4-2.8-8.1-9-16.9-18.5
		c-0.6-0.7-1.2-1.3-1.6-1.8c2.2-1.5,6.8-4.4,16.1-9.9c4.2-2.5,10.7-6.3,19.4-11.2l1.8-1v-2.1c0-1.6,0-2.5-10.1-14.3
		c-2-2.4-5.2-6-9.5-10.9l-1.1-1.2h-1.6c-1.4,0-2.3,0-25.4,13.3l-39.3,22.8l-0.3,0.2c-1.4,1.1-2.2,2.6-2.2,4.4c0,1.6,0.6,3,1.7,4.2
		l2.1,2.4c9.6,11,14.9,17,15.7,17.9c3.9,4.5,5.8,6.9,6.9,8.2C753.7,289.8,751.7,291.9,747.9,295.5z"/>
	<polygon id="XMLID_345_" class="st6" points="734.6,265.3 779.6,240.6 747.6,262.5 810.9,232.6 813.5,236 755,268.4 795.2,250.8 
		751.6,284.9 	"/>
	<g id="XMLID_347_">
		<defs>
			<path id="XMLID_348_" d="M747.9,295.5c-5.7,5.4-11.6,10.7-17.6,15.9l-0.2,0.2c-1.3,1.3-2,3-2,4.9c0,1.7,0.7,3.4,2,4.7l58.3,47.5
				l25.6-20.6v-1.7c0-2.4-2.1-4.1-4-5.5c-0.6-0.5-1.7-1.1-3.2-2c-0.6-0.3-3.1-2.2-14.4-11.9c-9.2-7.8-12.1-11.1-13-12.4
				c0.5-0.8,2-2.7,5.5-6.2c7.1-7,11.9-11.9,14.2-14.6l0.3-0.3c0.8-1.3,1.4-2.3,1.4-3.6c0-1-0.3-2.5-1.7-4c-2.4-2.8-8.1-9-16.9-18.5
				c-0.6-0.7-1.2-1.3-1.6-1.8c2.2-1.5,6.8-4.4,16.1-9.9c4.2-2.5,10.7-6.3,19.4-11.2l1.8-1v-2.1c0-1.6,0-2.5-10.1-14.3
				c-2-2.4-5.2-6-9.5-10.9l-1.1-1.2h-1.6c-1.4,0-2.3,0-25.4,13.3l-39.3,22.8l-0.3,0.2c-1.4,1.1-2.2,2.6-2.2,4.4c0,1.6,0.6,3,1.7,4.2
				l2.1,2.4c9.6,11,14.9,17,15.7,17.9c3.9,4.5,5.8,6.9,6.9,8.2C753.7,289.8,751.7,291.9,747.9,295.5z"/>
		</defs>
		<clipPath id="XMLID_140_">
			<use xlink:href="#XMLID_348_"  style="overflow:visible;"/>
		</clipPath>
		<polygon id="XMLID_346_" class="st18" points="784.9,308.4 752.7,329 774,321.2 753.6,340.2 756.8,342.9 785.9,320.6 		"/>
	</g>
</g>
<g id="XMLID_396_">
	<path id="XMLID_86_" class="st3" d="M532.3,644.2v8.9h-21.4l21.4,19.7h78.8L589.6,653C589.6,653,556.8,648,532.3,644.2z"/>
	<path id="XMLID_141_" class="st4" d="M603,615.8l-7.1,19.7h-25.9V526.7L548.6,507v24.2l-16.4,3.5v109.5c24.6,3.9,57.4,8.9,57.4,8.9
		l21.4,19.7l13.4-37.2L603,615.8z"/>
	<polygon id="XMLID_183_" class="st5" points="510.8,515 510.8,653 589.6,653 603,615.8 548.6,615.8 548.6,507 	"/>
	<polygon id="XMLID_349_" class="st6" points="510.8,538.3 536,525.7 516.6,541 548.6,523.1 548.6,531.2 510.8,554.8 	"/>
	<polygon id="XMLID_351_" class="st6" points="548.6,584.5 523.5,610.1 548.6,595.5 	"/>
	<polygon id="XMLID_350_" class="st6" points="523.5,653 565.8,623.6 548.6,643.5 593.3,615.8 598.6,615.8 548.6,653 	"/>
</g>
<g id="XMLID_407_">
	<polygon id="XMLID_112_" class="st3" points="835.7,642.2 835.7,649.3 814.2,653.2 835.7,672.9 873.5,666 852,646.4 	"/>
	<path id="XMLID_115_" class="st4" d="M835.7,583v59.2l16.4,4.1l21.4,19.7v-56.7l-21.4-25C852,584.2,844.5,583.7,835.7,583z"/>
	<polygon id="XMLID_122_" class="st3" points="925.3,647.1 897.3,645.7 895.9,652.6 917.3,672.3 946.8,666.8 946.8,666.6 	"/>
	<path id="XMLID_244_" class="st4" d="M946.8,666.6V526l-21.4-19.7l-5,24.7l-8.1,1.5V571l-3.1,15.2l-37.6-58.4l-21.4-19.7l13.6,21.1
		l-28.1,5.2V583c8.8,0.7,16.4,1.2,16.4,1.2l21.4,25v-5.4l24.5,38.2l-0.7,3.5l28.1,1.5L946.8,666.6z"/>
	<polygon id="XMLID_185_" class="st5" points="852,584.2 895.9,652.6 925.3,647.1 925.3,506.3 890.9,512.9 890.9,571.3 850.2,508.1 
		814.2,514.8 814.2,653.2 852,646.4 	"/>
	<polygon id="XMLID_354_" class="st6" points="925.3,587.6 891.2,609 914.2,600.9 879.9,624.5 921.3,604.8 902.6,619.1 925.3,608.4 
			"/>
	<polygon id="XMLID_355_" class="st6" points="853.9,514 823.5,533.5 857.8,520 	"/>
	<g id="XMLID_353_">
		<defs>
			<polygon id="XMLID_356_" points="852,584.3 895.8,652.7 925.3,647.2 925.3,506.4 890.8,512.9 890.8,571.3 850.1,508.2 
				814.2,514.9 814.2,653.3 852,646.4 			"/>
		</defs>
		<clipPath id="XMLID_146_">
			<use xlink:href="#XMLID_356_"  style="overflow:visible;"/>
		</clipPath>
		<polygon id="XMLID_352_" class="st19" points="814.2,578.8 854.6,553.2 830.4,574.7 925.3,512.9 925.3,535.6 869.8,571.7 
			906.7,556.5 814.2,610.1 		"/>
	</g>
</g>
<g id="XMLID_402_">
	<polygon id="XMLID_252_" class="st4" points="647,844.3 647,922.5 664,926.6 685.4,946.7 685.4,844.5 664,824.8 	"/>
	<polygon id="XMLID_256_" class="st3" points="647,922.5 647,931.6 625.6,936.8 647,956.4 685.4,947.3 685.4,946.7 664,926.6 	"/>
	<path id="XMLID_258_" class="st4" d="M734.3,810l-21.4-19.7L702.7,810h-17.8c4.8,7.1,10.1,14.8,10.1,14.8l21.6,19.4l7-13.5
		L734.3,810z"/>
	<path id="XMLID_259_" class="st3" d="M684.9,810h-69.7l-7.2,14.3l-31.4,0.1l21.4,19.7l49-0.2v0.4l17-19.5l21.4,19.7h31l0.1-0.3
		L695,824.8C695,824.8,689.7,817.1,684.9,810z"/>
	<polygon id="XMLID_199_" class="st5" points="664,927.6 664,824.8 695,824.8 712.9,790.4 593.8,790.4 576.6,824.5 625.6,824.3 
		625.6,936.8 	"/>
	<polygon id="XMLID_359_" class="st6" points="664,860.9 640,885.8 664,871.5 	"/>
	<polygon id="XMLID_358_" class="st6" points="625.5,917.5 657.5,895.5 640,912.6 664,898.4 664,908.8 625.6,932.2 	"/>
	<g id="XMLID_360_">
		<defs>
			<polygon id="XMLID_361_" points="664,927.6 664,824.8 695,824.8 712.9,790.4 593.8,790.4 576.6,824.5 625.6,824.3 625.6,936.8 
							"/>
		</defs>
		<clipPath id="XMLID_151_">
			<use xlink:href="#XMLID_361_"  style="overflow:visible;"/>
		</clipPath>
		<polygon id="XMLID_357_" class="st20" points="601.1,823.7 647,804.7 628.1,819.5 695.2,790.7 701.2,790.4 632.4,829.1 
			674.5,817.3 623.5,844.5 		"/>
	</g>
</g>
<g id="XMLID_400_">
	<path id="XMLID_82_" class="st4" d="M407.9,853.9l-0.3-0.4c-6.3-7.9-16.7-19.6-30.8-34.8c-4.3-4.6-5.9-6.6-6.5-7.4v-1l-21.4-19.7
		c-1,2.8,3.2,9,8,14.9c-0.7,0-1.7,0.2-3.3,0.4l-1.2,0.2l-0.3,0.3c-0.8,0.2-2.6,0.7-6.6,1.6l9.5,39.6c1,0.8,1.9,1.5,2.7,2.1
		c1,0.8,1.9,1.5,2.7,2.2l27.2-15l21.5,19.8C408.8,855.7,408.4,854.8,407.9,853.9z"/>
	<path id="XMLID_102_" class="st3" d="M334.3,810.6c-4,0.9-10.2,2.3-18.4,4.1l-2.8,0.6v46.5l39.4-2v-13.9c0.9,0.6,1.6,1.2,2.3,1.8
		l-9.5-39.6C342.8,808.6,339.2,809.5,334.3,810.6z"/>
	<path id="XMLID_95_" class="st4" d="M426.3,929.2c-6-6.9-13.5-15.9-22.3-26.6c-9.4-11.6-12.8-16.1-14-17.8c0,0,0,0,0,0L368.6,865
		l-4.6-2.5c-1.3,1.3-3.2,2.8-5.8,4.8c-2.4,1.8-4.2,3.1-5.7,4.1v-11.4l-39.4,2v59l17.9,4l21.4,19.6v-42.1c2,2.3,5,5.8,9.3,11
		c2.7,3.3,5.5,6.7,8.3,10.1l37.4-11.2l21.4,19.7L426.3,929.2z"/>
	<path id="XMLID_137_" class="st2" d="M367.1,858.8c-0.5-0.8-2.1-2.7-6.9-6.7l-3.1,1.7l3.1-1.7c-0.8-0.7-1.7-1.4-2.7-2.2
		c-1.3-1-2.9-2.2-5-3.8v25.3c1.5-1,3.3-2.4,5.7-4.1c2.6-2,4.4-3.5,5.8-4.8l-6.9-3.7l6.9,3.7C366.1,860.5,366.8,859.4,367.1,858.8z"
		/>
	<path id="XMLID_139_" class="st3" d="M360.2,852.2c4.8,4,6.4,5.9,6.9,6.7c-0.3,0.5-1,1.7-3.1,3.7l4.6,2.5l21.5,19.6
		c0.7-1.2,2.4-3.8,7-9.2c4.2-4.8,7.8-9.6,10.7-14.2l0.1-0.1c0.7-1.2,1.1-2.3,1.1-3.4c0-0.3,0-0.6-0.1-0.8l-21.5-19.8L360.2,852.2z"
		/>
	<path id="XMLID_147_" class="st3" d="M313.2,921.1v9.1l-21.4,4.5l21.4,19.7l19.5-3.5l0.2,0c15.6-3.8,17-4.6,17.8-5.1l1.8-1v0
		l-21.4-19.6L313.2,921.1z"/>
	<path id="XMLID_214_" class="st3" d="M407.6,912.6l-37.4,11.2c1.7,2.1,3.5,4.2,5.3,6.3l-2.9,1.3l19.2,17.7c2.6,2.6,3.3,2.6,4.4,2.6
		c1.2,0,2.5-0.3,9.5-4.7c5.5-3.5,11.2-7.1,17.1-10.8l6.2-4L407.6,912.6z"/>
	<path id="XMLID_197_" class="st5" d="M311.5,931.2c15.6-3.8,17-4.6,17.8-5.1l1.8-1v-42.1c2,2.3,5,5.8,9.3,11
		c6.6,8.1,13.4,16.3,20.3,24.5c11.4,13.6,12.1,13.6,14,13.6c1.2,0,2.5-0.3,9.5-4.7c5.5-3.5,11.2-7.1,17.1-10.8l6.2-4l-2.7-3.1
		c-6-6.9-13.5-15.9-22.3-26.6c-9.4-11.6-12.8-16.1-14-17.8c0.6-1.2,2.4-3.8,7.1-9.3c4.2-4.8,7.8-9.6,10.7-14.2l0.1-0.1
		c0.7-1.2,1.1-2.3,1.1-3.4c0-1.2-0.4-2.4-1.1-3.6l-0.3-0.4c-6.3-7.9-16.7-19.6-30.8-34.8c-4.3-4.6-5.9-6.6-6.5-7.4v-1l-1.6-1.1
		c-1.3-0.9-2.9-1.7-4.6-2.5c-2-0.8-4.1-1.3-6.4-1.3c-0.6,0-1.6,0-4.2,0.4l-1.2,0.2l-0.3,0.3c-1.3,0.4-5.3,1.4-17.6,4.1
		c-4,0.9-10.2,2.3-18.4,4.1l-2.8,0.6v138.9l19.5-3.5L311.5,931.2z M331.1,851.8v-25.3c2.1,1.6,3.7,2.9,5,3.8c6.9,5.5,8.9,8,9.5,8.9
		c-0.4,0.9-2.1,3.4-8.9,8.5C334.4,849.4,332.6,850.8,331.1,851.8z"/>
	<g id="XMLID_363_">
		<defs>
			<path id="XMLID_365_" d="M311.5,931.2c15.6-3.8,17-4.6,17.8-5.1l1.8-1v-42.1c2,2.3,5,5.8,9.3,11c6.6,8.1,13.4,16.3,20.3,24.5
				c11.4,13.6,12.1,13.6,14,13.6c1.2,0,2.5-0.3,9.5-4.7c5.5-3.5,11.2-7.1,17.1-10.8l6.2-4l-2.7-3.1c-6-6.9-13.5-15.9-22.3-26.6
				c-9.4-11.6-12.8-16.1-14-17.8c0.6-1.2,2.4-3.8,7.1-9.3c4.2-4.8,7.8-9.6,10.7-14.2l0.1-0.1c0.7-1.2,1.1-2.3,1.1-3.4
				c0-1.2-0.4-2.4-1.1-3.6l-0.3-0.4c-6.3-7.9-16.7-19.6-30.8-34.8c-4.3-4.6-5.9-6.6-6.5-7.4v-1l-1.6-1.1c-1.3-0.9-2.9-1.7-4.6-2.5
				c-2-0.8-4.1-1.3-6.4-1.3c-0.6,0-1.6,0-4.2,0.4l-1.2,0.2l-0.3,0.3c-1.3,0.4-5.3,1.4-17.6,4.1c-4,0.9-10.2,2.3-18.4,4.1l-2.8,0.6
				v138.9l19.5-3.5L311.5,931.2z M331.1,851.8v-25.3c2.1,1.6,3.7,2.9,5,3.8c6.9,5.5,8.9,8,9.5,8.9c-0.4,0.9-2.1,3.4-8.9,8.5
				C334.4,849.4,332.6,850.8,331.1,851.8z"/>
		</defs>
		<clipPath id="XMLID_156_">
			<use xlink:href="#XMLID_365_"  style="overflow:visible;"/>
		</clipPath>
		<polygon id="XMLID_362_" class="st21" points="291.7,819.9 330.3,804.7 299.7,823.7 342.2,808 299.7,834.2 365.2,810 373,818.7 
			291.7,856.6 		"/>
		<polygon id="XMLID_364_" class="st21" points="368.6,865 313.2,889.4 359.8,873.3 343.1,888 377.7,876.8 		"/>
	</g>
</g>
<g id="XMLID_14_">
	<polygon id="XMLID_208_" class="st3" points="366.2,643.8 366.2,649 344.7,655.1 366.2,674.8 407.2,663.2 385.7,643.5 	"/>
	<polygon id="XMLID_209_" class="st3" points="441.3,593.3 483.6,536 462.2,516.3 457.6,522.6 449.7,518.5 413.3,567.5 419.9,573.7 
			"/>
	<path id="XMLID_211_" class="st4" d="M419.9,573.7l-6.6-6.2l-6.1,8.3v-53.6l-21.4-19.7v23.4l-19.5,3.4v62.1l22.2-1.6
		c0,0,10.4,13.1,18.8,26.5v-0.9l29.1,32.2l35.6-12l21.4,19.7l-52-62L419.9,573.7z"/>
	<polygon id="XMLID_212_" class="st3" points="436.3,647.7 439.8,651.6 437.3,652.9 458.7,672.6 493.3,655.4 471.9,635.7 	"/>
	<path id="XMLID_213_" class="st4" d="M366.2,591.5v52.3l19.5-0.2l21.4,19.7v-46.8c-8.4-13.4-18.8-26.5-18.8-26.5L366.2,591.5z"/>
	<polygon id="XMLID_182_" class="st5" points="471.9,635.7 419.9,573.7 462.2,516.3 428.2,498.8 385.7,556.1 385.7,502.5 
		344.7,509.7 344.7,655.1 385.7,643.5 385.7,595.9 437.3,652.9 	"/>
	<polygon id="XMLID_309_" class="st6" points="446.8,605.7 422.4,622.4 453.8,614.1 	"/>
	<g id="XMLID_308_">
		<defs>
			<polygon id="XMLID_310_" points="471.9,635.7 419.9,573.7 462.2,516.3 428.2,498.8 385.7,556.1 385.7,502.5 344.7,509.7 
				344.7,655.1 385.7,643.5 385.7,595.9 437.3,652.9 			"/>
		</defs>
		<clipPath id="XMLID_158_">
			<use xlink:href="#XMLID_310_"  style="overflow:visible;"/>
		</clipPath>
		<polygon id="XMLID_307_" class="st22" points="344.7,544.5 376,534.1 356.5,546.3 436.3,517.4 374.6,546.3 401.5,538 344.7,563.6 
					"/>
		<polygon id="XMLID_306_" class="st22" points="426.2,566.2 360.3,600.9 386.7,593.3 344.7,617.5 344.7,622.4 409.5,589.9 
			366.2,619.2 429.8,585.4 		"/>
	</g>
</g>
<g id="XMLID_12_">
	<polygon id="XMLID_76_" class="st3" points="812,1071.1 790.6,1051.4 784.7,1060 777.5,1057.1 746.1,1103.6 745.9,1103.3 
		742.8,1123.3 763.6,1142.3 	"/>
	<path id="XMLID_116_" class="st4" d="M712.3,1057.1l-21.4-19.7l16,22l-31,13.1l39,54.5c12.8-1.9,27.2-4.3,27.2-4.3l0.7,0.6l3.1-20
		L712.3,1057.1z"/>
	<polygon id="XMLID_121_" class="st3" points="726.3,1182.8 726.3,1184.3 704.9,1189.6 726.3,1209.3 763.6,1200 763.6,1199.8 
		742.1,1180.4 	"/>
	<path id="XMLID_123_" class="st4" d="M763.6,1142.3l-21.5-19.6c0,0-14.5,2.4-27.2,4.3l11.5,16v39.8l15.8-2.5l21.4,19.5
		L763.6,1142.3L763.6,1142.3z"/>
	<polygon id="XMLID_204_" class="st5" points="724.7,1084 690.8,1037.5 654.4,1052.9 704.9,1123.3 704.9,1189.6 742.1,1180.4 
		742.1,1122.7 790.6,1051.4 756,1037.5 	"/>
	<polygon id="XMLID_367_" class="st6" points="742.1,1129.3 720.9,1142.3 740.6,1138.1 704.9,1165.6 704.9,1172.4 742.8,1147.9 	"/>
	<polygon id="XMLID_369_" class="st6" points="765.7,1088 732.2,1107.1 759.2,1097.5 	"/>
	<g id="XMLID_368_">
		<defs>
			<polygon id="XMLID_370_" points="724.7,1084 690.8,1037.5 654.4,1052.9 704.9,1123.3 704.9,1189.6 742.1,1180.4 742.1,1122.7 
				790.6,1051.4 756,1037.5 			"/>
		</defs>
		<clipPath id="XMLID_161_">
			<use xlink:href="#XMLID_370_"  style="overflow:visible;"/>
		</clipPath>
		<polygon id="XMLID_366_" class="st23" points="673.8,1079.9 703.9,1064.4 687.2,1078.1 772.5,1044.1 780.4,1047.3 693.2,1091.5 
			754.9,1067.8 691.6,1104.9 		"/>
	</g>
</g>
<g id="XMLID_413_">
	<polygon id="XMLID_10_" class="st3" points="973.9,1066.6 952.4,1047 907.7,1105.2 874.5,1162.8 926.1,1155 	"/>
	<polygon id="XMLID_246_" class="st4" points="924.8,1157.4 926.1,1155 874.5,1162.8 869,1172.4 933.3,1188.6 954.4,1208.2 
		954.7,1208.2 967.8,1170.2 946.3,1150.5 	"/>
	<polygon id="XMLID_247_" class="st3" points="869,1172.4 867,1175.8 826.9,1188.6 848.3,1208.2 954.4,1208.2 933.3,1188.6 	"/>
	<polygon id="XMLID_249_" class="st3" points="892.3,1066.6 868.4,1066.6 865.6,1075.4 834.4,1085.6 855.9,1105.2 907.7,1105.2 
		952.4,1047 	"/>
	<polygon id="XMLID_205_" class="st5" points="847,1047 834.4,1085.6 886.2,1085.6 826.9,1188.6 933.3,1188.6 946.3,1150.5 
		896.4,1150.5 952.4,1047 	"/>
	<polygon id="XMLID_374_" class="st6" points="834.4,1085.6 889.6,1064.1 867,1077.6 936.5,1047 952.4,1047 886.4,1080.5 933,1062 
		881.3,1094.1 886.2,1085.6 	"/>
	<polygon id="XMLID_375_" class="st6" points="924.2,1101.1 879.9,1129.3 916.5,1113.5 	"/>
	<polygon id="XMLID_373_" class="st6" points="826.9,1188.6 902,1153.1 867.2,1179.4 918.4,1150.8 931.2,1150.8 869,1188.6 	"/>
</g>
<g id="XMLID_408_">
	<polygon id="XMLID_88_" class="st2" points="862.4,924.9 862.4,921.3 848.2,913.3 846.6,918.8 	"/>
	<path id="XMLID_250_" class="st2" d="M829.4,909.5c-0.2,0.9-0.1,1.7,1,2.6l0.2,0.2c0,0,0.4,0.3,1.8,1l2.7,1l3.4-6h-9v0.8
		L829.4,909.5z"/>
	<polygon id="XMLID_267_" class="st2" points="846.6,918.8 848.2,913.3 839.3,908.3 838.4,908.3 835.1,914.3 	"/>
	<polygon id="XMLID_268_" class="st4" points="829.5,810.1 808,790.4 808,814.8 787.7,819.3 787.7,908.3 829.5,908.3 	"/>
	<polygon id="XMLID_274_" class="st3" points="862.4,921.3 862.4,924.9 846.6,918.8 841,938.4 854,949.4 862.4,956.6 862.4,958 
		863.8,957.8 901.4,950.8 880,931.1 	"/>
	<path id="XMLID_275_" class="st3" d="M846.6,918.8l-11.6-4.5l-13,23l22.2,19.1L822,937.3l13-23l-2.7-1c-1.4-0.6-1.8-1-1.8-1
		l-0.2-0.2c-1.1-1-1.2-1.7-1-2.6l0.1-0.4v-0.8h-41.7v8.2c0,2.2,0.2,4.2,0.5,6.2l-16.4-8.3l23,21.4c1.6,1.7,4,3.1,7.3,4.5l41.3,16.7
		l10.5-7.5l-13-11.1L846.6,918.8z"/>
	<polygon id="XMLID_276_" class="st4" points="880,790.5 880,814.4 862.4,817.8 862.4,921.3 880,931.1 901.4,950.8 901.4,810.1 	"/>
	<path id="XMLID_200_" class="st5" d="M841,798.2v107.1l-30-11.6c-1.4-0.6-1.8-1-1.8-1l-0.2-0.2c-1.1-1-1.2-1.7-1-2.6l0.1-0.4v-99
		l-41.7,9.3v97.2c0,8.2,2.4,14.7,7.1,19.2c1.6,1.7,4,3.1,7.3,4.5l41.3,16.7l18.9-13.6v14.7l39-7.2V790.5L841,798.2z"/>
	<polygon id="XMLID_379_" class="st6" points="841,927 868.1,911.3 841,938.4 	"/>
	<g id="XMLID_378_">
		<defs>
			<path id="XMLID_380_" d="M841,798.2v107.1l-30-11.6c-1.4-0.6-1.8-1-1.8-1l-0.2-0.2c-1.1-1-1.2-1.7-1-2.6l0.1-0.4v-99l-41.7,9.3
				v97.2c0,8.2,2.4,14.7,7.1,19.2c1.6,1.7,4,3.1,7.3,4.5l41.3,16.7l18.9-13.6v14.7l39-7.2V790.5L841,798.2z"/>
		</defs>
		<clipPath id="XMLID_162_">
			<use xlink:href="#XMLID_380_"  style="overflow:visible;"/>
		</clipPath>
		<polygon id="XMLID_376_" class="st24" points="766.3,833.6 800.4,812.5 777.1,833.6 831.7,806.3 781.7,843 808.6,831.6 808,838.5 
			766.3,861.8 		"/>
		<polygon id="XMLID_377_" class="st24" points="880,849.4 795.4,890.9 854.5,868.8 776.6,918.8 787.1,923.2 867.5,873 838.4,896.6 
			880,873.6 		"/>
	</g>
</g>
<g id="XMLID_404_">
	<polygon id="XMLID_11_" class="st4" points="937.9,292.6 933.4,292.6 937.9,308.6 959.3,328.3 959.3,292.6 944.4,279 937.9,279 	
		"/>
	<path id="XMLID_103_" class="st3" d="M961.2,276.5l-21.6-19.5c0,0-6.9-8.4-13.4-16.3c-5.6,0-11.8-0.1-18.8-0.2h-23.8v15.6l16.2,3.1
		l21.7,19.7h16.5h6.5h11.9C958.8,279,960.4,277.9,961.2,276.5z"/>
	<polygon id="XMLID_221_" class="st2" points="921.2,292.6 933.4,292.6 931.7,286.7 933.4,292.6 937.9,292.6 937.9,279 921.4,279 
		924.7,281.9 921.4,279 921.2,279 	"/>
	<path id="XMLID_227_" class="st3" d="M883.6,355.7v8.4l-21.4,5.3l21.4,19.7l4.2-0.7c5.4-0.9,11.6-2.3,18.2-4.1
		c9.4-2.5,12.3-4.2,13.7-5.2l1.5-1.1l-21.4-19.7L883.6,355.7z"/>
	<path id="XMLID_239_" class="st4" d="M961.2,276.5c0.5-0.8,0.7-1.7,0.7-2.5c0-0.7,0-1.8-3.7-16.1c-1.3-4.7-2.5-9.6-3.7-14.5
		l-0.7-2.7l-21.4-19.7l1.2,19.7h-1.7c-1.8,0-3.7,0-5.6,0c6.5,7.9,13.4,16.3,13.4,16.3L961.2,276.5z"/>
	<path id="XMLID_242_" class="st3" d="M933.4,292.6h-12.2V279h0.2l-21.7-19.7l-16.2-3.1v49.1c8.5,1.8,16.2,3.4,16.2,3.4l21.4,19.7
		h38.1l-21.4-19.7L933.4,292.6z"/>
	<path id="XMLID_243_" class="st4" d="M883.6,305.2v50.4l16.2,2.7l21.4,19.7v-49.8l-21.4-19.7C899.7,308.6,892.1,307.1,883.6,305.2z
		"/>
	<path id="XMLID_177_" class="st5" d="M884.5,364.6c9.4-2.5,12.3-4.2,13.7-5.2l1.5-1.1v-49.8h38.1V273h-38.1v-13.7h35.1
		c3.8,0,5.5-2.5,5.5-5c0-0.7,0-1.8-3.7-16.1c-1.3-4.7-2.5-9.6-3.7-14.5l-0.7-2.7h-22c-6.8,0-15-0.1-24.5-0.2h-23.8v148.5l4.2-0.7
		C871.7,367.8,877.9,366.4,884.5,364.6z"/>
	<g id="XMLID_383_">
		<defs>
			<path id="XMLID_384_" d="M884.5,364.6c9.4-2.5,12.3-4.2,13.7-5.2l1.5-1.1v-49.8h38.1V273h-38.1v-13.7h35.1c3.8,0,5.5-2.5,5.5-5
				c0-0.7,0-1.8-3.7-16.1c-1.3-4.7-2.5-9.6-3.7-14.5l-0.7-2.7h-22c-6.8,0-15-0.1-24.5-0.2h-23.8v148.5l4.2-0.7
				C871.7,367.8,877.9,366.4,884.5,364.6z"/>
		</defs>
		<clipPath id="XMLID_163_">
			<use xlink:href="#XMLID_384_"  style="overflow:visible;"/>
		</clipPath>
		<polygon id="XMLID_381_" class="st25" points="862.1,258.7 908.9,232.6 873.1,262.5 933,223.8 935.9,235.2 871.1,278.4 
			907.2,262.5 862.1,295.2 		"/>
		<polygon id="XMLID_382_" class="st25" points="937.9,292.6 877.6,329 899.7,324.7 862.1,352.1 862.1,361.4 940.4,307.3 		"/>
	</g>
</g>
<g id="XMLID_405_">
	<path id="XMLID_80_" class="st4" d="M1107.9,375.7c1.3-1.5,2.1-3.2,2.1-5.2v-68.6l-21.4-19.7v19.7h-14.4v40.2
		c-1.8-1.7-5.1-5-11.1-11.5c-7.4-8.1-10.3-11.6-11.5-13.2c0,0,0.1-0.1,0.1-0.2l-21.6-19.5l-17.6,7.4c-6.1,7.9-6.7,10.6-6.7,12.4
		c0,3,2,8.3,16.7,24.3c5.5,6,11.9,12.5,18.9,19.5l46.4-7.1L1107.9,375.7z"/>
	<path id="XMLID_111_" class="st3" d="M1051.7,317.2c1.2-1.7,4-5.3,10.9-13.1c6.5-7.4,14.2-16,22.9-25.5c4.1-4.4,8.4-8.9,12.6-13.6
		l4.5-4.9l-21.4-19.7l-3.5,3.8c-1-0.8-2-1.7-3-2.5l-2.6-2.2l-2.3,2.5c-6.7,7.1-13.4,14.2-20,21.2c-12,12.7-21.6,23.2-28.4,31.2
		c-3.7,4.3-6.5,7.8-8.7,10.6l17.6-7.4L1051.7,317.2z"/>
	<path id="XMLID_245_" class="st3" d="M1087.8,354.1l-46.4,7.1c3.3,3.3,6.7,6.6,10.3,10.1l0,0c16.6,15.9,16.6,15.9,18.4,15.9
		c6.2,0,13.8-1.3,22.4-3.9c5.8-1.7,12.2-4,15.4-7.6L1087.8,354.1z"/>
	<path id="XMLID_178_" class="st5" d="M1030.3,351.6L1030.3,351.6c16.6,15.9,16.6,15.9,18.4,15.9c6.2,0,13.8-1.3,22.4-3.9
		c8.2-2.4,17.5-6,17.5-12.9v-68.6h-35.8v40.2c-1.8-1.7-5.1-5-11.1-11.5c-7.4-8.1-10.3-11.6-11.5-13.2c1.1-1.6,3.9-5.2,11-13.3
		c6.5-7.4,14.2-16,22.9-25.5c4.1-4.4,8.4-8.9,12.6-13.6l4.5-4.9l-6.2-1c-0.5-0.3-2.1-1.3-6.8-5c-5.1-4-10.1-8.2-15.1-12.3l-2.6-2.2
		l-2.3,2.5c-6.7,7.1-13.4,14.2-20,21.2c-12,12.7-21.6,23.2-28.4,31.2c-14.2,16.5-15.4,20.5-15.4,23c0,3,2,8.3,16.7,24.3
		C1009.2,330.8,1019,340.8,1030.3,351.6z"/>
	<path id="XMLID_385_" class="st6" d="M1005.8,267.8l43.1-19l-36.4,21.8l62.1-23.1l-8.1,8.7l-58.3,24.6L1054,270l-69.1,25.2
		C984.9,295.2,987.9,287.3,1005.8,267.8z"/>
	<polygon id="XMLID_387_" class="st6" points="1043.6,313 1015.5,325.5 1049.5,319.2 	"/>
	<polygon id="XMLID_386_" class="st6" points="1088.6,319.2 1039.1,347.3 1078.1,333.2 1039.1,360.1 1041.4,361.2 1088.6,335.3 	"/>
</g>
</svg>
